<svg xmlns="http://www.w3.org/2000/svg" xmlns:xlink="http://www.w3.org/1999/xlink" version="1.1" baseProfile="full" viewBox="0 0 200 200" width="200" height="200">
<g fill="black">
<polygon points="60,29 60,177 48,177 48,29 " />
<polygon points="28,29 168,29 168,33 28,33 " />
<polygon points="168,29 144,31 156,19 " />
<polygon points="25,173 176,173 176,177 25,177 " />
<polygon points="176,173 152,175 164,163 " />
<polygon points="54,73 148,73 148,77 54,77 " />
<polygon points="154,75 154,132 142,138 142,75 " />
<polygon points="142,73 148,68 159,77 154,81 142,75 " />
<polygon points="54,122 148,122 148,126 54,126 " />
</g>
</svg>
