<svg xmlns="http://www.w3.org/2000/svg" xmlns:xlink="http://www.w3.org/1999/xlink" version="1.1" baseProfile="full" viewBox="0 0 200 200" width="200" height="200">
<g fill="black">
<polygon points="159,42 146.8,43.8 134.5,45.5 122,47 109.4,48.3 96.7,49.5 83.8,50.4 70.8,51.2 57.7,51.8 44.4,52 31,51.8 30.9,50.1 44.1,48.2 57.3,46.4 70.2,44.7 83,42.9 95.7,41 108.2,39.1 120.6,37 132.9,34.9 145,32.6 156.9,30.2 " />
<polygon points="156.9,30.2 159,42 168.1,40.4 " />
<polygon points="168.1,40.4 168.4,43.4 159.8,38.8 " />
<polygon points="34,88 164,88 164,92 34,92 " />
<polygon points="164,88 140,90 152,78 " />
<polygon points="20,132 182,132 182,136 20,136 " />
<polygon points="182,132 158,134 170,122 " />
<polygon points="107,14 107,184 95,190 95,12 " />
<polygon points="107,14 110,16 107,18 " />
</g>
</svg>
