<svg xmlns="http://www.w3.org/2000/svg" xmlns:xlink="http://www.w3.org/1999/xlink" version="1.1" baseProfile="full" viewBox="0 0 200 200" width="200" height="200">
<g fill="black">
<polygon points="38,29 38,184 26,190 26,23 " />
<polygon points="32,29 179,29 179,33 32,33 " />
<polygon points="179,29 155,31 167,19 " />
<polygon points="32,71 152,71 152,75 32,75 " />
<polygon points="158,73 158,132 146,138 146,73 " />
<polygon points="146,71 152,66 163,75 158,79 146,73 " />
<polygon points="32,122 152,122 152,126 32,126 " />
<polygon points="32,168 184,168 184,172 32,172 " />
<polygon points="184,168 160,170 172,158 " />
</g>
</svg>
