<svg xmlns="http://www.w3.org/2000/svg" xmlns:xlink="http://www.w3.org/1999/xlink" version="1.1" baseProfile="full" viewBox="0 0 200 200" width="200" height="200">
<g fill="black">
<polygon points="83.5,19 78.3,26 72.7,32.7 66.8,39 60.4,44.9 53.5,50.4 46.3,55.6 38.7,60.3 30.7,64.7 22.2,68.5 13.3,71.8 12.6,70.1 20.5,65.1 28,60 35.1,54.9 41.8,49.5 48.1,43.9 54,38.1 59.4,32.1 64.5,25.8 69.1,19.3 73.4,12.6 " />
<polygon points="73.4,12.6 83.5,19 73.9,11.8 " />
<polygon points="83.5,19 84.9,22.3 77.7,22.5 " />
<polygon points="63,31 117,31 117,35 63,35 " />
<polygon points="122.3,35.6 120.6,38.1 118.7,40.5 116.7,42.8 114.5,45.1 112.2,47.3 109.7,49.5 107.1,51.6 104.4,53.6 101.4,55.5 98.6,57.6 97.3,56.3 99.6,53.6 101.4,50.7 103.1,47.9 104.7,45.2 106.2,42.6 107.6,40 108.8,37.5 109.9,35 110.8,32.6 111.6,30.3 " />
<polygon points="111,31 117,26 128,35 123,39 117,39 " />
<polygon points="54,55 54,98 42,104 42,49 " />
<polygon points="48,55 153,55 153,59 48,59 " />
<polygon points="159,57 159,97 147,103 147,57 " />
<polygon points="147,55 153,50 164,59 159,63 147,57 " />
<polygon points="48,91 153,91 153,95 48,95 " />
<polygon points="48,72 153,72 153,76 48,76 " />
<polygon points="42,112 42,166 30,172 30,106 " />
<polygon points="36,112 164,112 164,116 36,116 " />
<polygon points="170,114 170,158 158,164 158,114 " />
<polygon points="158,112 164,107 175,116 170,120 158,114 " />
<polygon points="36,150 164,150 164,154 36,154 " />
<polygon points="36,130 164,130 164,134 36,134 " />
<polygon points="105,55 105,170 93,170 93,55 " />
<polygon points="105,170 102.6,173.6 99,176 95.4,173.6 93,170 " />
<polygon points="105,170 105,171.2 105.2,172.1 105.4,172.7 105.5,173 105.7,173.2 105.9,173.4 106.2,173.5 106.8,173.7 107.7,173.9 109,174 109,186 106.4,185.8 103.9,185.4 101.5,184.6 99.2,183.3 97.2,181.7 95.6,179.7 94.3,177.4 93.5,175 93.1,172.5 93,170 " />
<polygon points="109,174 113.2,175.8 115,180 113.2,184.2 109,186 " />
<polygon points="109,174 182,174 182,186 109,186 " />
<polygon points="182,174 185.6,176.4 188,180 185.6,183.6 182,186 " />
<polygon points="176,175 182,149 184,149 182,175 " />
</g>
</svg>
