<svg xmlns="http://www.w3.org/2000/svg" xmlns:xlink="http://www.w3.org/1999/xlink" version="1.1" baseProfile="full" viewBox="0 0 200 200" width="200" height="200">
<g fill="black">
<polygon points="112,15 112,40 100,40 100,13 " />
<polygon points="112,15 115,17 112,19 " />
<polygon points="38,36 181,36 181,40 38,40 " />
<polygon points="181,36 157,38 169,26 " />
<polygon points="44,36 44,110 32,110 32,30 " />
<polygon points="44,110 41.6,113.6 38,116 34.4,113.6 32,110 " />
<polygon points="44,110 43.4,121.1 42.4,131.5 40.9,141.4 39,150.6 36.5,159.1 33.6,166.9 30.2,174 26.2,180.4 21.7,185.9 16.6,190.6 15.3,189.3 18.6,183.7 21.5,177.7 24.2,171.3 26.5,164.3 28.4,156.8 29.9,148.7 31,140 31.7,130.6 32,120.6 32,110 " />
<polygon points="58,65 157,65 157,69 58,69 " />
<polygon points="163,67 163,123 151,129 151,67 " />
<polygon points="151,65 157,60 168,69 163,73 151,67 " />
<polygon points="48,90 188,90 188,94 48,94 " />
<polygon points="188,90 164,92 176,80 " />
<polygon points="58,117 157,117 157,121 58,121 " />
<polygon points="114,44 114,121 102,121 102,42 " />
<polygon points="114,44 117,46 114,48 " />
<polygon points="77,138 77,185 65,191 65,132 " />
<polygon points="71,138 158,138 158,142 71,142 " />
<polygon points="164,140 164,182 152,188 152,140 " />
<polygon points="152,138 158,133 169,142 164,146 152,140 " />
<polygon points="71,174 158,174 158,178 71,178 " />
</g>
</svg>
