<svg xmlns="http://www.w3.org/2000/svg" xmlns:xlink="http://www.w3.org/1999/xlink" version="1.1" baseProfile="full" viewBox="0 0 200 200" width="200" height="200">
<g fill="black">
<polygon points="91.1,30.6 75.7,179.6 63.8,178.3 79.2,29.3 " />
<polygon points="33,30 144,30 144,34 33,34 " />
<polygon points="149.9,32.3 141.8,179.3 129.8,178.6 138,31.6 " />
<polygon points="138,30 144,25 155,34 150,38 138,32 " />
<polygon points="25,101 178,101 178,105 25,105 " />
<polygon points="178,101 154,103 166,91 " />
<polygon points="21,175 182,175 182,179 21,179 " />
<polygon points="182,175 158,177 170,165 " />
</g>
</svg>
