<svg xmlns="http://www.w3.org/2000/svg" xmlns:xlink="http://www.w3.org/1999/xlink" version="1.1" baseProfile="full" viewBox="0 0 200 200" width="200" height="200">
<g fill="black">
<polygon points="32,41.6 137,41.6 137,45.6 32,45.6 " />
<polygon points="137,41.6 113,43.6 125,31.6 " />
<polygon points="96,14.5 96,81.5 84,81.5 84,12.5 " />
<polygon points="96,14.5 99,16.5 94,19.5 " />
<polygon points="15,77.5 185,77.5 185,81.5 15,81.5 " />
<polygon points="185,77.5 161,79.5 173,67.5 " />
<polygon points="166.3,25.5 154.9,40.5 142.7,54.9 129.5,68.6 115.5,81.8 100.5,94.4 84.7,106.3 68,117.6 50.4,128.2 31.8,138.1 12.4,147.2 11.5,145.6 30,134.8 47.6,123.6 64.3,112.1 80.1,100.2 95.1,87.8 109.2,75 122.3,61.6 134.6,47.8 146,33.5 156.4,18.7 " />
<polygon points="155.9,19.5 166.3,25.5 156.9,18 " />
<polygon points="166.3,25.5 167.6,28.9 161.8,28.5 " />
<polygon points="74.9,104.5 74.9,181.4 62.9,187.4 62.9,98.5 " />
<polygon points="68.9,104.5 151,104.5 151,108.5 68.9,108.5 " />
<polygon points="157,106.5 157,178.4 145,184.4 145,106.5 " />
<polygon points="145,104.5 151,99.5 162,108.5 157,112.5 145,106.5 " />
<polygon points="68.9,136.5 151,136.5 151,140.5 68.9,140.5 " />
<polygon points="68.9,170.4 151,170.4 151,174.4 68.9,174.4 " />
</g>
</svg>
