<svg xmlns="http://www.w3.org/2000/svg" xmlns:xlink="http://www.w3.org/1999/xlink" version="1.1" baseProfile="full" viewBox="0 0 200 200" width="200" height="200">
<g fill="black">
<polygon points="54,39 54,117 42,123 42,33 " />
<polygon points="48,39 154,39 154,43 48,43 " />
<polygon points="160,41 160,111 148,117 148,41 " />
<polygon points="148,39 154,34 165,43 160,47 148,41 " />
<polygon points="48,71 154,71 154,75 48,75 " />
<polygon points="48,101 154,101 154,105 48,105 " />
<polygon points="18,143 184,143 184,147 18,147 " />
<polygon points="184,143 160,145 172,133 " />
<polygon points="127,111 127,186 115,192 115,109 " />
<polygon points="127,111 130,113 127,115 " />
<polygon points="111.3,19.2 109.2,21.5 106.9,23.8 104.6,26.1 102.2,28.3 99.7,30.5 97.1,32.6 94.3,34.7 91.5,36.7 88.5,38.5 85.6,40.6 84.3,39.3 86.6,36.6 88.5,33.6 90.3,30.8 92.2,28.1 93.9,25.4 95.6,22.7 97.2,20.1 98.7,17.5 100.1,14.9 101.4,12.4 " />
<polygon points="101.4,12.4 111.3,19.2 101.9,11.7 " />
<polygon points="111.3,19.2 112.6,22.5 105.4,22.4 " />
<polygon points="108,39.1 106.9,88.1 95,87.8 96,38.8 " />
<polygon points="106.9,88.1 105.9,95.8 104,103.2 101.1,110.1 97.2,116.5 92.5,122.4 86.9,127.8 80.5,132.6 73.3,136.9 65.2,140.7 56.3,143.8 55.6,142.1 63.4,137.3 70.4,132.4 76.5,127.4 81.6,122.3 85.9,117 89.3,111.6 91.9,106 93.7,100.2 94.7,94.1 95,87.8 " />
</g>
</svg>
