<svg xmlns="http://www.w3.org/2000/svg" xmlns:xlink="http://www.w3.org/1999/xlink" version="1.1" baseProfile="full" viewBox="0 0 200 200" width="200" height="200">
<g fill="black">
<polygon points="36,28 155,28 155,32 36,32 " />
<polygon points="158.9,34.5 155.2,37.2 151,40.3 146.4,43.6 141.4,47.2 135.8,51 129.8,55.2 123.3,59.5 116.2,64.1 108.7,68.8 100.5,73.7 99.4,72.2 106.4,65.8 113,59.8 119.3,54.3 125.2,49.1 130.6,44.4 135.6,39.9 140.1,35.8 144.2,32 147.8,28.6 151,25.4 " />
<polygon points="149,28 155,23 166,32 161,36 155,36 " />
<polygon points="106,66 106,145 94,145 94,64 " />
<polygon points="106,66 109,68 106,70 " />
<polygon points="106,145 103.6,148.6 100,151 96.4,148.6 94,145 " />
<polygon points="106,145 105.8,147.5 105.4,150 104.6,152.4 103.3,154.7 101.7,156.7 99.7,158.3 97.4,159.6 95,160.4 92.5,160.8 90,161 90,149 91.2,148.9 92.1,148.7 92.7,148.5 93,148.4 93.2,148.2 93.4,148 93.5,147.7 93.7,147.1 93.9,146.2 94,145 " />
<polygon points="90,155 90,149 70,149 70,152 " />
<polygon points="48.3,72.6 52.1,74.1 56,75.5 59.6,77.2 63.1,79.1 66.4,81.2 69.5,83.5 72.5,85.9 75.3,88.5 77.9,91.3 80.4,94.2 70.3,100.7 68.8,97.9 67.2,95.2 65.4,92.5 63.4,89.8 61.2,87.2 58.8,84.5 56.2,81.9 53.5,79.3 50.6,76.7 47.4,74.2 " />
<polygon points="80.4,94.2 81.1,98.7 78.6,102.5 74.1,103.2 70.3,100.7 " />
<polygon points="42.5,137.4 46,135.3 49.8,133 53.8,130.6 57.9,127.9 62.3,125 66.8,121.9 71.6,118.7 76.5,115.3 81.8,111.8 87.4,108.3 88.5,109.6 84.3,114.7 80,119.4 75.8,123.7 71.6,127.8 67.5,131.6 63.6,135.2 59.8,138.6 56.1,141.7 52.5,144.7 49.1,147.4 " />
<polygon points="49.1,147.4 42.5,137.4 40.8,138.5 " />
<polygon points="49.1,147.4 52.4,148.8 52.4,141.6 " />
<polygon points="152.3,79 149.2,81.5 145.9,84 142.5,86.6 138.9,89.3 135.3,92 131.5,94.7 127.5,97.5 123.4,100.2 119,102.9 114.5,105.6 113.4,104.3 116.8,100.3 120.1,96.4 123.4,92.7 126.6,89.2 129.8,85.8 132.8,82.5 135.8,79.3 138.7,76.2 141.5,73.2 144.1,70.2 " />
<polygon points="144.1,70.2 152.3,79 144.4,70 " />
<polygon points="152.3,79 152.9,82.6 145.9,80.9 " />
<polygon points="114.3,110.7 119.1,112.7 123.8,115 128.2,117.5 132.4,120.2 136.3,123.1 140.1,126.2 143.7,129.5 147.1,132.9 150.3,136.4 153.3,140.1 143.3,146.8 141.2,143.2 138.8,139.6 136.3,136.1 133.6,132.7 130.7,129.3 127.5,125.9 124.2,122.5 120.8,119.2 117.1,115.7 113.3,112.2 " />
<polygon points="153.3,140.1 154.1,144.6 151.6,148.4 147.1,149.3 143.3,146.8 " />
<polygon points="36,62 36,181 24,187 24,60 " />
<polygon points="36,62 39,64 36,66 " />
<polygon points="30,170 170,170 170,174 30,174 " />
<polygon points="176,62 176,178 164,184 164,60 " />
<polygon points="176,62 179,64 176,66 " />
</g>
</svg>
