<svg xmlns="http://www.w3.org/2000/svg" xmlns:xlink="http://www.w3.org/1999/xlink" version="1.1" baseProfile="full" viewBox="0 0 200 200" width="200" height="200">
<g fill="black">
<polygon points="35,32 167,32 167,36 35,36 " />
<polygon points="173,34 172.8,54.5 172.5,73.4 171.9,90.9 171,106.8 169.9,121.2 168.5,134.1 166.9,145.5 165.1,155.4 162.9,163.9 160.4,171.1 149.3,166.4 151.4,160.5 153.3,152.8 155.1,143.5 156.6,132.6 157.9,120.1 159,106 159.9,90.3 160.5,73.1 160.8,54.3 161,34 " />
<polygon points="161,32 167,27 178,36 173,40 167,40 " />
<polygon points="160.4,171.1 157.1,174.2 152.5,174.3 149.3,171 149.3,166.4 " />
<polygon points="160.4,171.1 159.3,173.3 158,175.5 156.4,177.4 154.7,179.2 152.7,180.6 150.6,181.9 148.3,182.8 145.9,183.5 143.5,183.8 141,184 141,172 142.3,171.9 143.5,171.7 144.5,171.4 145.3,171.1 146.1,170.6 146.8,170.1 147.5,169.5 148.1,168.6 148.7,167.6 149.3,166.4 " />
<polygon points="141,178 141,172 121,172 121,175 " />
<polygon points="100.9,34 100.9,34 99.5,58 96.7,80.1 92.5,100.4 86.9,118.7 79.8,135 71.3,149.4 61.3,161.8 49.9,172 37.2,180 23.3,185.8 22.6,184.1 35.3,176.8 46.5,167.9 56.4,157.4 64.9,145.3 72.1,131.4 78.1,115.6 82.7,98 86.1,78.6 88.2,57.2 88.9,34 " />
<polygon points="39.2,71.4 51.1,74.4 62.3,78 72.9,82.2 82.9,86.9 92.3,92.1 101.1,97.8 109.3,103.9 116.8,110.5 123.8,117.5 130,125 120.3,132 115.1,124.9 109.2,118 102.7,111.5 95.5,105.2 87.7,99.2 79.2,93.5 70,88.1 60.2,83 49.7,78 38.6,73.1 " />
<polygon points="130,125 131.1,129.5 128.7,133.4 124.3,134.4 120.3,132 " />
</g>
</svg>
