<svg xmlns="http://www.w3.org/2000/svg" xmlns:xlink="http://www.w3.org/1999/xlink" version="1.1" baseProfile="full" viewBox="0 0 200 200" width="200" height="200">
<g fill="black">
<polygon points="18.3,26.8 183.6,26.8 183.6,30.8 18.3,30.8 " />
<polygon points="183.6,26.8 159.6,28.8 171.6,16.8 " />
<polygon points="80.4,11.2 80.4,43.7 68.4,49.7 68.4,9.2 " />
<polygon points="80.4,11.2 83.4,13.2 80.4,15.2 " />
<polygon points="133.6,11.2 133.6,43.7 121.6,49.7 121.6,9.2 " />
<polygon points="133.6,11.2 136.6,13.2 133.6,15.2 " />
<polygon points="73.3,53.1 69.5,54.7 65.4,56.3 60.8,57.9 55.8,59.4 50.4,60.8 44.5,62.2 38.2,63.6 31.4,64.9 24.2,66 16.5,66.8 16,65.1 23.3,62.3 30,59.7 36.4,57.3 42.3,55 47.7,52.8 52.6,50.6 57.1,48.5 61,46.5 64.5,44.5 67.4,42.7 " />
<polygon points="67.4,42.7 73.3,53.1 75.3,52 " />
<polygon points="75.3,52 75.4,55.3 68.2,52.5 " />
<polygon points="14.6,90.2 77.8,90.2 77.8,94.2 14.6,94.2 " />
<polygon points="77.8,90.2 53.8,92.2 65.8,80.2 " />
<polygon points="53.4,55.5 53.4,182.1 41.4,188.1 41.4,55.5 " />
<polygon points="51,92.2 50.8,93.3 48.7,101.6 46.3,109.7 43.5,117.4 40.5,124.9 37.2,132.1 33.5,139 29.5,145.5 25.2,151.7 20.5,157.5 15.3,162.9 13.9,161.8 17.3,155.4 20.6,148.9 23.8,142.3 26.7,135.6 29.4,128.7 31.8,121.6 34,114.3 35.9,106.8 37.6,99 38.8,92.2 " />
<polygon points="50.3,110.3 53.4,111.3 56.5,112.1 59.5,113.1 62.3,114.2 65,115.5 67.6,117 70.1,118.6 72.5,120.3 74.7,122.2 76.8,124.3 67,131.2 66.1,129.3 64.9,127.3 63.6,125.4 62.2,123.4 60.5,121.5 58.7,119.5 56.7,117.6 54.6,115.6 52.3,113.6 49.6,112 " />
<polygon points="76.8,124.3 77.8,128.7 75.4,132.6 70.9,133.6 67,131.2 " />
<polygon points="118.8,48 115.6,52.4 112.2,56.7 108.5,60.8 104.6,64.7 100.4,68.5 95.9,72.1 91.2,75.5 86.2,78.8 80.9,81.7 75.3,84.3 74.3,82.8 78.8,78.6 83,74.5 87,70.5 90.8,66.5 94.4,62.5 97.7,58.4 100.8,54.4 103.6,50.2 106.2,46.1 108.5,41.8 " />
<polygon points="108.5,41.8 118.8,48 109,41 " />
<polygon points="118.8,48 120.3,51.3 113.1,51.6 " />
<polygon points="107.7,51.3 141.3,51.3 141.3,55.3 107.7,55.3 " />
<polygon points="146.5,56.4 144.8,58.4 143.1,60.4 141.3,62.4 139.5,64.3 137.6,66.3 135.7,68.2 133.8,70.1 131.7,71.9 129.6,73.7 127.8,75.7 126.3,74.6 127.6,72.3 128.5,69.7 129.5,67.1 130.4,64.6 131.4,62.2 132.4,59.8 133.4,57.4 134.3,55 135.2,52.6 136.2,50.3 " />
<polygon points="135.3,51.3 141.3,46.3 152.3,55.3 147.3,59.3 141.3,59.3 " />
<polygon points="100.8,73.2 100.8,92.3 88.8,98.3 88.8,67.2 " />
<polygon points="94.8,73.2 169.2,73.2 169.2,77.2 94.8,77.2 " />
<polygon points="175.2,75.2 175.2,92.3 163.2,98.3 163.2,75.2 " />
<polygon points="163.2,73.2 169.2,68.2 180.2,77.2 175.2,81.2 163.2,75.2 " />
<polygon points="94.8,88.3 122,88.3 122,92.3 94.8,92.3 " />
<polygon points="141.3,88.3 169.2,88.3 169.2,92.3 141.3,92.3 " />
<polygon points="126,73.2 126,171 118,171 118,73.2 " />
<polygon points="126,171 124.4,173.4 122,175 119.6,173.4 118,171 " />
<polygon points="126,171 126.3,172.4 126.7,173.5 127.1,174.3 127.6,174.7 128.1,175 128.5,175.1 129,175.1 129.8,175.2 130.8,175.1 132,175 132,187 129.5,186.7 127.1,186 124.8,185.1 122.7,183.7 121,182 119.6,180.1 118.7,177.9 118.1,175.7 117.9,173.4 118,171 " />
<polygon points="132,175 136.2,176.8 138,181 136.2,185.2 132,187 " />
<polygon points="132,175 184.2,175 184.2,187 132,187 " />
<polygon points="184.2,175 187.8,177.4 190.2,181 187.8,184.6 184.2,187 " />
<polygon points="178.2,176 184.2,150 186.2,150 184.2,176 " />
<polygon points="146.8,73.2 146.8,183 135.8,183 135.8,73.2 " />
<polygon points="77,103.4 104.1,103.4 104.1,107.4 77,107.4 " />
<polygon points="109.1,105.4 109.1,131.8 99.1,136.8 99.1,105.4 " />
<polygon points="99.1,103.4 104.1,98.4 114.1,107.4 109.1,110.4 99.1,105.4 " />
<polygon points="74.8,113.5 122,113.5 122,117.5 74.8,117.5 " />
<polygon points="77,127.8 104.1,127.8 104.1,131.8 77,131.8 " />
<polygon points="77,141.2 104.1,141.2 104.1,145.2 77,145.2 " />
<polygon points="109.1,143.2 109.1,170.7 99.1,175.7 99.1,143.2 " />
<polygon points="99.1,141.2 104.1,136.2 114.1,145.2 109.1,148.2 99.1,143.2 " />
<polygon points="70.5,153 122,153 122,157 70.5,157 " />
<polygon points="77,164.7 104.1,164.7 104.1,168.7 77,168.7 " />
<polygon points="140.6,108.4 175.6,108.4 175.6,112.4 140.6,112.4 " />
<polygon points="181.6,110.4 181.6,164 169.6,170 169.6,110.4 " />
<polygon points="169.6,108.4 175.6,103.4 186.6,112.4 181.6,116.4 169.6,110.4 " />
<polygon points="140.6,155.5 175.6,155.5 175.6,159.5 140.6,159.5 " />
<polygon points="171.7,118.4 169.8,122.7 167.8,126.8 165.7,130.7 163.5,134.4 161.2,137.9 158.9,141.2 156.4,144.3 153.9,147.2 151.1,149.7 148.5,152.2 147.1,151 148.6,147.9 150,144.6 151.4,141.2 152.8,137.8 154.1,134.2 155.5,130.6 156.7,126.7 158,122.8 159.2,118.7 160.3,114.4 " />
<polygon points="160.3,114.4 171.7,118.4 160.9,113 " />
<polygon points="171.7,118.4 173.9,121.3 166.9,123.1 " />
<polygon points="149.1,116.6 151.2,118.7 153.6,120.9 155.8,123.2 158,125.8 160.1,128.4 162.2,131.3 164.2,134.2 166.2,137.4 168.1,140.6 170,144 158.9,148.7 157.8,145.2 156.7,141.8 155.6,138.5 154.5,135.3 153.3,132.2 152.2,129.1 151.1,126.2 150,123.2 148.9,120.3 147.6,117.6 " />
<polygon points="170,144 170,148.5 166.8,151.8 162.2,151.8 158.9,148.7 " />
</g>
</svg>
