<svg xmlns="http://www.w3.org/2000/svg" xmlns:xlink="http://www.w3.org/1999/xlink" version="1.1" baseProfile="full" viewBox="0 0 200 200" width="200" height="200">
<g fill="black">
<polygon points="71.5,36.9 67.7,42.1 63.3,47 58.5,51.7 53.2,56.1 47.4,60.3 41.1,64.2 34.4,67.8 27.2,71.2 19.5,74.2 11.3,76.8 10.6,75.1 17.9,70.8 24.7,66.5 31.1,62.2 36.9,57.9 42.3,53.5 47.1,49.1 51.4,44.6 55.2,40 58.5,35.4 61.3,30.7 " />
<polygon points="61.3,30.7 71.5,36.9 61.8,29.8 " />
<polygon points="71.5,36.9 73,40.2 65.8,40.5 " />
<polygon points="72,23 138,23 138,27 72,27 " />
<polygon points="138,23 114,25 126,13 " />
<polygon points="132.2,25.5 136.1,30.3 140.1,34.8 144.3,39 148.7,42.9 153.5,46.6 158.7,50 164.2,53.1 170.1,55.9 176.4,58.4 183.2,60.7 178.7,73.2 171.5,70 164.8,66.4 158.5,62.5 152.8,58.3 147.6,53.8 142.9,48.9 138.8,43.7 135.3,38.2 132.5,32.4 130.6,26.2 " />
<polygon points="178.7,73.2 183.2,60.7 190.3,63.3 " />
<polygon points="46.5,62.4 46.5,121.2 34.5,127.2 34.5,56.4 " />
<polygon points="40.5,62.4 159.5,62.4 159.5,66.4 40.5,66.4 " />
<polygon points="165.5,64.4 165.5,115.2 153.5,121.2 153.5,64.4 " />
<polygon points="153.5,62.4 159.5,57.4 170.5,66.4 165.5,70.4 153.5,64.4 " />
<polygon points="106,62.4 106,109.2 94,109.2 94,62.4 " />
<polygon points="56.2,71.7 59.3,73.2 62.5,74.5 65.4,76.1 68.3,77.9 70.9,79.8 73.5,81.9 75.8,84.2 78,86.6 80.1,89.1 81.9,91.8 71.1,97.1 70.3,94.6 69.3,92.2 68.2,89.8 66.9,87.4 65.4,85 63.8,82.7 61.9,80.3 59.9,77.9 57.8,75.4 55.3,73.2 " />
<polygon points="81.9,91.8 82.2,96.4 79.2,99.8 74.6,100.1 71.1,97.1 " />
<polygon points="143.1,79 140.8,81.2 138.4,83.5 135.9,85.7 133.3,88 130.5,90.4 127.7,92.7 124.7,95.1 121.6,97.4 118.3,99.7 115,102.2 113.8,100.9 116.2,97.7 118.4,94.3 120.6,91.1 122.7,88.1 124.7,85.1 126.7,82.2 128.6,79.4 130.4,76.7 132.1,74 133.8,71.5 " />
<polygon points="133.8,71.5 143.1,79 134.2,70.9 " />
<polygon points="143.1,79 144.2,82.5 137,81.8 " />
<polygon points="40.5,105.2 159.5,105.2 159.5,109.2 40.5,109.2 " />
<polygon points="60.1,125.2 60.1,182.7 48.1,188.7 48.1,119.2 " />
<polygon points="54.1,125.2 145.9,125.2 145.9,129.2 54.1,129.2 " />
<polygon points="151.9,127.2 151.9,181.7 139.9,187.7 139.9,127.2 " />
<polygon points="139.9,125.2 145.9,120.2 156.9,129.2 151.9,133.2 139.9,127.2 " />
<polygon points="54.1,149.7 145.9,149.7 145.9,153.7 54.1,153.7 " />
<polygon points="54.1,175.7 145.9,175.7 145.9,179.7 54.1,179.7 " />
</g>
</svg>
