<svg xmlns="http://www.w3.org/2000/svg" xmlns:xlink="http://www.w3.org/1999/xlink" version="1.1" baseProfile="full" viewBox="0 0 200 200" width="200" height="200">
<g fill="black">
<polygon points="60.1,25.4 60.1,121.3 48.1,127.3 48.1,19.4 " />
<polygon points="54.1,25.4 145.9,25.4 145.9,29.4 54.1,29.4 " />
<polygon points="151.9,27.4 151.9,118.3 139.9,124.3 139.9,27.4 " />
<polygon points="139.9,25.4 145.9,20.4 156.9,29.4 151.9,33.4 139.9,27.4 " />
<polygon points="54.1,53.7 145.9,53.7 145.9,57.7 54.1,57.7 " />
<polygon points="54.1,80.8 145.9,80.8 145.9,84.8 54.1,84.8 " />
<polygon points="54.1,110.3 145.9,110.3 145.9,114.3 54.1,114.3 " />
<polygon points="15,135 185,135 185,139 15,139 " />
<polygon points="185,135 161,137 173,125 " />
<polygon points="84.1,153.6 78.6,157.7 72.8,161.7 66.9,165.5 60.7,169.3 54.2,172.9 47.6,176.4 40.7,179.7 33.5,182.8 26.1,185.6 18.3,188.2 17.6,186.6 24.4,182.2 31,178 37.5,173.9 43.8,169.8 49.8,165.7 55.6,161.5 61.1,157.3 66.4,153.1 71.5,148.8 76.3,144.4 " />
<polygon points="75.5,145 84.1,153.6 76.5,144.3 " />
<polygon points="84.1,153.6 84.5,157.1 79,155.3 " />
<polygon points="112.2,146.6 119.3,148.2 126,150.2 132.4,152.6 138.5,155.3 144.2,158.3 149.7,161.5 154.9,165 159.7,168.7 164.3,172.6 168.6,176.8 159.4,184.6 156.2,180.6 152.5,176.6 148.6,172.8 144.3,169.1 139.7,165.4 134.7,161.9 129.4,158.5 123.8,155.1 117.8,151.7 111.6,148.3 " />
<polygon points="168.6,176.8 169.9,181.2 167.9,185.3 163.5,186.6 159.4,184.6 " />
</g>
</svg>
