<svg xmlns="http://www.w3.org/2000/svg" xmlns:xlink="http://www.w3.org/1999/xlink" version="1.1" baseProfile="full" viewBox="0 0 200 200" width="200" height="200">
<g fill="black">
<polygon points="57.2,22 53.9,26.4 50.5,30.8 46.9,35.1 43.1,39.4 39.1,43.6 35,47.8 30.6,51.9 26,56 21.2,59.9 16,63.6 14.8,62.3 18.5,57.2 22.1,52.3 25.7,47.5 29.2,42.8 32.6,38.2 35.8,33.6 38.9,29 41.8,24.5 44.5,20 47.1,15.6 " />
<polygon points="46.5,16.4 57.2,22 47.6,14.8 " />
<polygon points="57.2,22 58.6,25.3 52.8,25.2 " />
<polygon points="60.6,53.3 56.8,60.8 52.8,68.3 48.6,75.6 44.1,82.7 39.3,89.7 34.4,96.5 29.1,103.1 23.6,109.5 17.8,115.7 11.5,121.5 10.2,120.4 14.8,113.3 19.4,106.3 23.8,99.3 28.1,92.3 32.2,85.2 36.1,78 39.8,70.8 43.2,63.4 46.5,56 49.6,48.5 " />
<polygon points="49.2,49.4 60.6,53.3 50.1,47.2 " />
<polygon points="60.6,53.3 62.6,56.3 56.8,57 " />
<polygon points="44.5,90 44.5,184 32.5,190 32.5,88 " />
<polygon points="44.5,90 47.5,92 42.5,95 " />
<polygon points="102.2,17 102.2,78.5 90.2,78.5 90.2,15 " />
<polygon points="102.2,17 105.2,19 100.2,22 " />
<polygon points="78,31.4 78,85.5 66,91.5 66,29.4 " />
<polygon points="78,31.4 81,33.4 76,36.4 " />
<polygon points="72,74.5 122.2,74.5 122.2,78.5 72,78.5 " />
<polygon points="128.2,31.4 128.2,78.5 116.2,84.5 116.2,29.4 " />
<polygon points="128.2,31.4 131.2,33.4 126.2,36.4 " />
<polygon points="62,104 132,104 132,108 62,108 " />
<polygon points="132,104 108,106 120,94 " />
<polygon points="89,105 88.4,114.8 87.4,124.1 85.8,133 83.8,141.4 81.3,149.2 78.2,156.5 74.6,163.3 70.5,169.4 65.8,174.9 60.6,179.6 59.3,178.3 62.8,172.6 65.9,166.6 68.7,160.3 71.1,153.7 73.1,146.7 74.7,139.3 75.9,131.4 76.7,123 77,114.2 77,105 " />
<polygon points="113,104 113,160 101,160 101,104 " />
<polygon points="93.1,163.6 96.7,161.2 100.4,158.7 104.2,156.2 108,153.8 111.8,151.3 115.8,148.8 119.8,146.3 123.8,143.9 128.1,141.5 132.4,139.2 133.5,140.7 130.3,144.3 127,147.9 123.7,151.3 120.3,154.6 117,157.8 113.6,161 110.3,164.1 107,167.1 103.7,170.1 100.4,173.1 " />
<polygon points="100.4,173.1 93.1,163.6 91.5,164.8 " />
<polygon points="100.4,173.1 103.8,174.2 103.3,167 " />
<polygon points="157.6,17.7 155.7,27.5 153.6,37.1 151.2,46.3 148.6,55.2 145.7,63.8 142.6,72.1 139.3,80 135.6,87.5 131.6,94.7 127.3,101.4 125.7,100.5 128.2,93.1 130.7,85.5 133.1,77.7 135.4,69.6 137.6,61.4 139.6,52.8 141.4,44 143.1,34.9 144.5,25.6 145.8,15.9 " />
<polygon points="145.6,16.9 157.6,17.7 146.1,13.9 " />
<polygon points="157.6,17.7 160.3,20.1 154.9,22.3 " />
<polygon points="141.7,62.3 188.7,62.3 188.7,66.3 141.7,66.3 " />
<polygon points="188.7,62.3 168.7,64.3 178.7,53.3 " />
<polygon points="176.9,64.8 174.6,83.6 171.5,101 167.5,117.1 162.6,131.8 156.8,145 150.2,156.9 142.6,167.3 134.2,176.1 124.9,183.3 114.8,188.9 114,187.3 122.6,180.3 130.4,172.4 137.4,163.3 143.6,153 149.1,141.5 153.8,128.7 157.8,114.5 160.9,99 163.3,82.1 164.9,63.8 " />
<polygon points="138.9,75.1 141.7,89.5 144.9,102.8 148.5,115.1 152.5,126.4 157.1,136.7 162.2,145.9 167.8,154.1 173.8,161.3 180.4,167.5 187.5,172.8 179.8,183.5 172,176.8 164.9,169.1 158.7,160.4 153.3,150.9 148.6,140.5 144.7,129.2 141.5,117 139.1,104 137.6,90.1 137.1,75.3 " />
<polygon points="179.8,183.5 187.5,172.8 190.7,175.2 " />
</g>
</svg>
