<svg xmlns="http://www.w3.org/2000/svg" xmlns:xlink="http://www.w3.org/1999/xlink" version="1.1" baseProfile="full" viewBox="0 0 200 200" width="200" height="200">
<g fill="black">
<polygon points="163.5,30 153.3,32.2 142.7,34.3 131.8,36.2 120.5,37.9 108.9,39.5 96.9,40.8 84.5,42 71.7,42.9 58.6,43.6 45,43.8 44.9,42.1 58.2,39.8 71.1,37.6 83.6,35.5 95.8,33.3 107.5,31.1 118.9,28.7 129.9,26.3 140.5,23.8 150.7,21.1 160.5,18.4 " />
<polygon points="160.5,18.4 163.5,30 170.9,28.1 " />
<polygon points="170.9,28.1 171.2,31.1 162.8,27.1 " />
<polygon points="51,41 51,99 39,99 39,35 " />
<polygon points="51,99 48.6,102.6 45,105 41.4,102.6 39,99 " />
<polygon points="51,99 50.3,111.3 49,123 46.9,133.9 44.2,144.2 40.7,153.7 36.5,162.4 31.6,170.3 25.9,177.4 19.6,183.5 12.5,188.6 11.4,187.3 16.9,180.9 21.7,174.1 26,166.9 29.7,159.1 32.7,150.7 35.2,141.7 37.1,132.1 38.3,121.7 38.9,110.7 39,99 " />
<polygon points="103,50 103,162 91,162 91,48 " />
<polygon points="103,50 106,52 103,54 " />
<polygon points="51,162.9 57.6,162.1 64.6,161.3 72,160.4 79.7,159.4 87.9,158.2 96.5,157 105.4,155.8 114.8,154.5 124.5,153.2 134.8,152.1 135.1,153.8 125.3,156.9 115.9,159.7 106.7,162.2 97.9,164.5 89.5,166.6 81.4,168.5 73.7,170.3 66.4,171.9 59.4,173.4 52.8,174.7 " />
<polygon points="52.8,174.7 51,162.9 49.1,163.2 " />
<polygon points="52.8,174.7 55.3,177.4 58.3,170.9 " />
<polygon points="112.3,121 117.7,125.2 122.8,129.6 127.4,134.2 131.7,138.8 135.6,143.5 139.2,148.3 142.5,153.2 145.5,158.1 148.2,163 150.5,168.1 139.3,172.2 137.7,167.6 135.9,162.8 133.8,158.1 131.3,153.2 128.6,148.3 125.6,143.3 122.3,138.3 118.7,133.1 115,127.8 111,122.3 " />
<polygon points="150.5,168.1 150.3,172.6 147,175.8 142.4,175.5 139.3,172.2 " />
<polygon points="144.9,30 146.4,50.6 148.4,70 151,88 154.1,104.7 158,120.1 162.5,134.1 167.7,146.7 173.5,158 179.9,168 186.9,176.6 177,185.3 169.6,175 163.1,163.6 157.5,151 152.8,137.3 148.9,122.3 145.9,106.2 143.8,88.9 142.5,70.5 142.2,50.8 143.1,30 " />
<polygon points="177,185.3 186.9,176.6 187.6,177.4 " />
</g>
</svg>
