<svg xmlns="http://www.w3.org/2000/svg" xmlns:xlink="http://www.w3.org/1999/xlink" version="1.1" baseProfile="full" viewBox="0 0 200 200" width="200" height="200">
<g fill="black">
<polygon points="15.1,61.2 75.2,61.2 75.2,65.2 15.1,65.2 " />
<polygon points="81.2,63.9 78.1,82.4 74.2,99.6 69.3,115.8 63.6,130.7 56.9,144.4 49.3,156.9 40.8,168.1 31.4,178 21.1,186.5 9.9,193.5 8.9,192 18.7,183.5 27.6,174.2 35.6,164 42.9,152.8 49.3,140.6 55,127.2 59.8,112.7 63.8,97.1 66.9,80.4 69.3,62.5 " />
<polygon points="69.2,61.2 75.2,56.2 86.2,65.2 81.2,69.2 75.2,69.2 " />
<polygon points="55.5,19.4 31.9,136.9 18.9,140.4 44.1,15.1 " />
<polygon points="55.5,19.4 58.1,22 54.7,23.4 " />
<polygon points="28.5,120.8 35.7,122.2 42.5,124.1 48.9,126.5 55,129.4 60.8,132.6 66.2,136.2 71.3,140.2 76,144.5 80.3,149.2 84.3,154.3 74.2,160.8 71.3,156.2 68,151.7 64.3,147.4 60.3,143.4 55.9,139.5 51.1,135.8 45.9,132.3 40.3,129 34.3,125.7 28,122.5 " />
<polygon points="84.3,154.3 85,158.8 82.5,162.6 78,163.4 74.2,160.8 " />
<polygon points="105.7,29 105.7,184 93.7,190 93.7,23 " />
<polygon points="99.7,29 181.3,29 181.3,33 99.7,33 " />
<polygon points="181.3,29 157.3,31 169.3,19 " />
<polygon points="142.9,29 142.9,76 130.9,76 130.9,29 " />
<polygon points="99.7,72 168.5,72 168.5,76 99.7,76 " />
<polygon points="174.5,74 174.5,131 162.5,137 162.5,74 " />
<polygon points="162.5,72 168.5,67 179.5,76 174.5,80 162.5,74 " />
<polygon points="99.7,121 168.5,121 168.5,125 99.7,125 " />
<polygon points="142.9,121 142.9,172 130.9,172 130.9,121 " />
<polygon points="99.7,168 184.1,168 184.1,172 99.7,172 " />
<polygon points="184.1,168 160.1,170 172.1,158 " />
</g>
</svg>
