<svg xmlns="http://www.w3.org/2000/svg" xmlns:xlink="http://www.w3.org/1999/xlink" version="1.1" baseProfile="full" viewBox="0 0 200 200" width="200" height="200">
<g fill="black">
<polygon points="112,15 112,40 100,40 100,13 " />
<polygon points="112,15 115,17 112,19 " />
<polygon points="38,36 181,36 181,40 38,40 " />
<polygon points="181,36 157,38 169,26 " />
<polygon points="44,36 44,110 32,110 32,30 " />
<polygon points="44,110 41.6,113.6 38,116 34.4,113.6 32,110 " />
<polygon points="44,110 43.4,121.1 42.4,131.5 40.9,141.4 39,150.6 36.5,159.1 33.6,166.9 30.2,174 26.2,180.4 21.7,185.9 16.6,190.6 15.3,189.3 18.6,183.7 21.5,177.7 24.2,171.3 26.5,164.3 28.4,156.8 29.9,148.7 31,140 31.7,130.6 32,120.6 32,110 " />
<polygon points="61,64 157,64 157,68 61,68 " />
<polygon points="163,66 163,120 151,126 151,66 " />
<polygon points="151,64 157,59 168,68 163,72 151,66 " />
<polygon points="49,88 188,88 188,92 49,92 " />
<polygon points="188,88 164,90 176,78 " />
<polygon points="61,112 157,112 157,116 61,116 " />
<polygon points="116,44 116,141 104,141 104,42 " />
<polygon points="116,44 119,46 116,48 " />
<polygon points="75,137 75,185 63,191 63,131 " />
<polygon points="69,137 157,137 157,141 69,141 " />
<polygon points="163,139 163,182 151,188 151,139 " />
<polygon points="151,137 157,132 168,141 163,145 151,139 " />
<polygon points="69,174 157,174 157,178 69,178 " />
</g>
</svg>
