<svg xmlns="http://www.w3.org/2000/svg" xmlns:xlink="http://www.w3.org/1999/xlink" version="1.1" baseProfile="full" viewBox="0 0 200 200" width="200" height="200">
<g fill="black">
<polygon points="24,34 89,34 89,38 24,38 " />
<polygon points="95,36 95,172 83,172 83,36 " />
<polygon points="83,34 89,29 100,38 95,42 83,36 " />
<polygon points="95,172 92.6,175.6 89,178 85.4,175.6 83,172 " />
<polygon points="95,172 94.8,174.5 94.4,177 93.6,179.4 92.3,181.7 90.7,183.7 88.7,185.3 86.4,186.6 84,187.4 81.5,187.8 79,188 79,176 80.2,175.9 81.1,175.7 81.7,175.5 82,175.4 82.2,175.2 82.4,175 82.5,174.7 82.7,174.1 82.9,173.2 83,172 " />
<polygon points="79,182 79,176 59,176 59,179 " />
<polygon points="36.3,54.8 40.4,57 44.3,59.5 47.9,62.4 51.3,65.6 54.4,69.1 57.2,72.9 59.8,76.9 62.1,81.2 64.2,85.7 66,90.5 54.4,93.6 53.4,89.3 52.3,85.2 50.9,81.2 49.3,77.4 47.5,73.7 45.5,70 43.3,66.5 40.8,63.1 38.2,59.6 35.2,56.3 " />
<polygon points="66,90.5 65.3,95 61.7,97.8 57.2,97.2 54.4,93.6 " />
<polygon points="20.6,136 26.7,133.8 32.9,131.4 39.2,128.9 45.6,126.3 52.1,123.5 58.7,120.7 65.4,117.9 72.2,114.9 79.3,112 86.5,109.2 87.4,110.7 81.1,115.4 74.8,119.7 68.4,123.7 62.1,127.5 55.8,131.2 49.6,134.6 43.4,138 37.3,141.2 31.2,144.2 25.2,147.1 " />
<polygon points="25.2,147.1 20.6,136 18.7,136.8 " />
<polygon points="25.2,147.1 28.2,149.1 29.6,142 " />
<polygon points="109,34 170,34 170,38 109,38 " />
<polygon points="176,36 176,172 164,172 164,36 " />
<polygon points="164,34 170,29 181,38 176,42 164,36 " />
<polygon points="176,172 173.6,175.6 170,178 166.4,175.6 164,172 " />
<polygon points="176,172 175.8,174.5 175.4,177 174.6,179.4 173.3,181.7 171.7,183.7 169.7,185.3 167.4,186.6 165,187.4 162.5,187.8 160,188 160,176 161.2,175.9 162.1,175.7 162.7,175.5 163,175.4 163.2,175.2 163.4,175 163.5,174.7 163.7,174.1 163.9,173.2 164,172 " />
<polygon points="160,182 160,176 140,176 140,179 " />
<polygon points="119.3,52.9 123.2,55.3 127,57.9 130.5,60.8 133.7,64 136.8,67.3 139.6,70.9 142.2,74.7 144.6,78.7 146.8,82.9 148.7,87.2 137.3,91 136.2,87 135,83.1 133.5,79.3 131.9,75.6 130,72 128,68.4 125.8,64.8 123.4,61.3 120.9,57.8 118.1,54.3 " />
<polygon points="148.7,87.2 148.3,91.8 144.9,94.8 140.3,94.4 137.3,91 " />
<polygon points="103.6,135 109.3,133 115.1,130.8 121,128.5 127,126.2 133.1,123.8 139.3,121.3 145.6,118.7 152.1,116.1 158.7,113.6 165.5,111.2 166.4,112.7 160.5,117 154.5,120.9 148.6,124.6 142.6,128.1 136.8,131.4 130.9,134.6 125.1,137.7 119.4,140.6 113.8,143.4 108.2,146.1 " />
<polygon points="108.2,146.1 103.6,135 101.7,135.8 " />
<polygon points="108.2,146.1 111.2,148.1 112.6,141 " />
</g>
</svg>
