<svg xmlns="http://www.w3.org/2000/svg" xmlns:xlink="http://www.w3.org/1999/xlink" version="1.1" baseProfile="full" viewBox="0 0 200 200" width="200" height="200">
<g fill="black">
<polygon points="59,22 59,79 47,79 47,16 " />
<polygon points="53,22 147,22 147,26 53,26 " />
<polygon points="153,24 153,79 141,79 141,24 " />
<polygon points="141,22 147,17 158,26 153,30 141,24 " />
<polygon points="104,45 104,79 92,79 92,39 " />
<polygon points="98,45 147,45 147,49 98,49 " />
<polygon points="31.9,64.7 32.7,71.2 33.3,77.3 33.3,82.9 33,88.2 32.3,93.2 31.1,97.8 29.6,102 27.5,105.8 24.9,109.3 21.8,112.3 15,102.4 17,101.2 19,99.5 20.9,97.2 22.7,94.3 24.4,90.9 25.9,86.8 27.2,82.1 28.3,76.9 29.3,71.1 30.1,64.8 " />
<polygon points="21.8,112.3 17.4,113.2 13.5,110.8 12.6,106.3 15,102.4 " />
<polygon points="32,75.6 176,75.6 176,79.6 32,79.6 " />
<polygon points="181.2,80.5 179.5,82.7 177.7,85.1 175.7,87.5 173.5,90.1 171.2,92.8 168.7,95.6 166,98.5 163,101.4 159.8,104.5 156.7,107.8 155.2,106.7 157.5,102.7 159.4,98.8 161.3,95.1 163.1,91.7 164.7,88.4 166.2,85.3 167.6,82.4 168.8,79.7 169.8,77.1 170.7,74.8 " />
<polygon points="170,75.6 176,70.6 187,79.6 182,82.6 170,87.6 " />
<polygon points="63.3,98.5 63.3,182.5 51.3,188.5 51.3,92.5 " />
<polygon points="57.3,98.5 142.6,98.5 142.6,102.5 57.3,102.5 " />
<polygon points="148.6,100.5 148.6,171.7 136.6,171.7 136.6,100.5 " />
<polygon points="136.6,98.5 142.6,93.5 153.6,102.5 148.6,106.5 136.6,100.5 " />
<polygon points="148.6,171.7 146.2,175.3 142.6,177.7 139,175.3 136.6,171.7 " />
<polygon points="148.6,171.7 148.5,174.3 148,176.8 147.2,179.2 146,181.4 144.3,183.5 142.3,185.1 140.1,186.3 137.6,187.1 135.2,187.6 132.6,187.7 132.6,175.7 133.8,175.7 134.7,175.5 135.3,175.3 135.7,175.1 135.8,175 136,174.8 136.2,174.5 136.4,173.9 136.5,173 136.6,171.7 " />
<polygon points="132.6,181.7 132.6,175.7 112.6,175.7 112.6,178.7 " />
<polygon points="57.3,123.4 142.6,123.4 142.6,127.4 57.3,127.4 " />
<polygon points="57.3,148.2 142.6,148.2 142.6,152.2 57.3,152.2 " />
</g>
</svg>
