<svg xmlns="http://www.w3.org/2000/svg" xmlns:xlink="http://www.w3.org/1999/xlink" version="1.1" baseProfile="full" viewBox="0 0 200 200" width="200" height="200">
<g fill="black">
<polygon points="24.3,24.7 27.6,26.5 31,28 34.1,29.7 37,31.4 39.6,33.3 42,35.2 44.2,37.2 46.2,39.3 48,41.6 49.5,44 38.3,48.3 38,46.6 37.4,44.8 36.6,42.8 35.5,40.7 34.2,38.5 32.6,36.2 30.7,33.8 28.5,31.3 26.2,28.6 23.3,26.2 " />
<polygon points="49.5,44 49.3,48.6 46,51.8 41.5,51.6 38.3,48.3 " />
<polygon points="19.2,95.6 24.8,97.5 29.8,100 34.3,103.1 38.3,106.7 41.8,110.9 44.7,115.5 46.9,120.6 48.6,126.1 49.6,131.9 50,138.1 38,137.8 38.3,132.7 38.1,127.9 37.4,123.5 36.2,119.2 34.6,115.2 32.5,111.4 29.8,107.7 26.6,104.2 22.8,100.6 18.5,97.2 " />
<polygon points="50,138.1 48.1,142.3 43.9,143.9 39.7,142 38,137.8 " />
<polygon points="28.8,102.8 30.7,100.3 32.8,96.9 35.2,92.8 37.9,88 40.8,82.5 44,76.3 47.5,69.3 51.3,61.7 55.5,53.5 60.1,44.6 61.8,45.3 59,54.9 56.3,63.8 53.6,71.9 51,79.2 48.6,85.9 46.3,91.9 44.3,97.2 42.4,101.8 40.6,105.7 39.1,109.1 " />
<polygon points="72.8,27.1 72.8,130.5 62.8,135.5 62.8,22.1 " />
<polygon points="67.8,27.1 117.8,27.1 117.8,31.1 67.8,31.1 " />
<polygon points="117.8,27.1 97.8,29.1 107.8,18.1 " />
<polygon points="96.1,27.1 96.1,61.9 85.1,61.9 85.1,27.1 " />
<polygon points="67.8,57.9 110,57.9 110,61.9 67.8,61.9 " />
<polygon points="115.5,59.9 115.5,102.9 104.5,108.4 104.5,59.9 " />
<polygon points="104.5,57.9 110,52.9 120.5,61.9 115.5,65.4 104.5,59.9 " />
<polygon points="67.8,92.9 110,92.9 110,96.9 67.8,96.9 " />
<polygon points="96.1,92.9 96.1,130.5 85.1,130.5 85.1,92.9 " />
<polygon points="67.8,126.5 119.5,126.5 119.5,130.5 67.8,130.5 " />
<polygon points="119.5,126.5 99.5,128.5 109.5,117.5 " />
<polygon points="130,27 170,27 170,31 130,31 " />
<polygon points="176,29 176,71 164,71 164,29 " />
<polygon points="164,27 170,22 181,31 176,35 164,29 " />
<polygon points="176,71 173.6,74.6 170,77 166.4,74.6 164,71 " />
<polygon points="176,71 175.8,73.5 175.4,76 174.6,78.4 173.3,80.7 171.7,82.7 169.7,84.3 167.4,85.6 165,86.4 162.5,86.8 160,87 160,75 161.2,74.9 162.1,74.7 162.7,74.5 163,74.4 163.2,74.2 163.4,74 163.5,73.7 163.7,73.1 163.9,72.2 164,71 " />
<polygon points="160,81 160,75 140,75 140,78 " />
<polygon points="135.5,27 135.5,120 124.5,120 124.5,21.5 " />
<polygon points="135.5,120 133.3,123.3 130,125.5 126.7,123.3 124.5,120 " />
<polygon points="135.5,120 135.6,121.2 135.8,122.2 136,122.8 136.3,123.2 136.5,123.4 136.8,123.5 137.2,123.7 137.8,123.8 138.7,123.9 140,124 140,136 137.4,135.8 134.9,135.3 132.5,134.4 130.3,133.2 128.4,131.5 126.8,129.5 125.7,127.3 124.9,124.9 124.5,122.5 124.5,120 " />
<polygon points="140,124 144.2,125.8 146,130 144.2,134.2 140,136 " />
<polygon points="140,124 179,124 179,136 140,136 " />
<polygon points="179,124 182.6,126.4 185,130 182.6,133.6 179,136 " />
<polygon points="173,125 179,99 181,99 179,125 " />
<polygon points="43.8,144.4 44.1,149.8 44.2,154.9 43.8,159.8 42.8,164.4 41.4,168.7 39.6,172.8 37.2,176.6 34.4,180 31.1,183 27.3,185.6 21.9,174.9 24.8,173.6 27.4,172.1 29.9,170.1 32.2,167.8 34.3,165.1 36.2,161.9 38,158.2 39.5,154.1 41,149.4 42,144.3 " />
<polygon points="27.3,185.6 22.8,185.9 19.3,182.9 19,178.4 21.9,174.9 " />
<polygon points="70.3,145.3 73.2,148 76.1,150.6 78.7,153.5 80.9,156.5 82.8,159.6 84.4,162.9 85.6,166.4 86.5,169.9 87.1,173.6 87.2,177.4 75.3,176.1 75.8,173.5 76.1,170.8 76.2,168.1 76,165.2 75.6,162.4 74.9,159.4 73.9,156.3 72.6,153.1 71.1,149.7 69,146.5 " />
<polygon points="87.2,177.4 85,181.4 80.6,182.7 76.6,180.5 75.3,176.1 " />
<polygon points="108.3,145.1 112.2,147.7 116,150.2 119.4,152.9 122.4,155.8 125.1,158.8 127.5,162 129.6,165.3 131.3,168.8 132.6,172.4 133.6,176.1 121.7,177.4 121.6,174.7 121.3,171.9 120.7,169.1 119.8,166.1 118.5,163.1 116.9,160 115,156.7 112.7,153.4 110.2,149.9 107.2,146.5 " />
<polygon points="133.6,176.1 132.3,180.5 128.3,182.7 123.9,181.4 121.7,177.4 " />
<polygon points="148.3,144.1 153.3,146.8 157.9,149.7 162.2,152.7 166.1,155.8 169.6,159 172.8,162.4 175.6,165.8 178,169.4 180.1,173.1 181.8,177 170.3,180.4 169.6,177.4 168.6,174.3 167.2,171.1 165.4,167.7 163.3,164.3 160.8,160.8 157.9,157.2 154.7,153.4 151.2,149.5 147.2,145.6 " />
<polygon points="181.8,177 181.3,181.5 177.8,184.4 173.3,183.9 170.3,180.4 " />
</g>
</svg>
