<svg xmlns="http://www.w3.org/2000/svg" xmlns:xlink="http://www.w3.org/1999/xlink" version="1.1" baseProfile="full" viewBox="0 0 200 200" width="200" height="200">
<g fill="black">
<polygon points="28,34 170,34 170,38 28,38 " />
<polygon points="170,34 146,36 158,24 " />
<polygon points="59.7,50 48.3,110.8 35.4,114.5 48.2,45.9 " />
<polygon points="59.7,50 62.2,52.6 57,54.2 " />
<polygon points="45,94 181,94 181,98 45,98 " />
<polygon points="181,94 157,96 169,84 " />
<polygon points="114.9,39.1 113.3,60.6 109.9,80.8 104.6,99.6 97.5,116.9 88.5,132.7 77.8,147 65.3,159.6 51,170.7 35,180.1 17.3,187.8 16.6,186.1 33.1,176.8 47.8,166.4 60.8,154.9 71.9,142.1 81.3,128.2 89,113 95,96.5 99.4,78.7 102,59.5 102.9,38.8 " />
<polygon points="102.9,39.8 114.9,39.1 103,36.5 " />
<polygon points="114.9,39.1 117.9,41.1 112.8,44 " />
<polygon points="120,100 120,167 108,167 108,98 " />
<polygon points="120,100 123,102 118,105 " />
<polygon points="120,167 117.6,170.6 114,173 110.4,170.6 108,167 " />
<polygon points="120,167 120,168.2 120.2,169.1 120.4,169.7 120.5,170 120.7,170.2 120.9,170.4 121.2,170.5 121.8,170.7 122.7,170.9 124,171 124,183 121.4,182.8 118.9,182.4 116.5,181.6 114.2,180.3 112.2,178.7 110.6,176.7 109.3,174.4 108.5,172 108.1,169.5 108,167 " />
<polygon points="124,171 128.2,172.8 130,177 128.2,181.2 124,183 " />
<polygon points="124,171 175,171 175,183 124,183 " />
<polygon points="175,171 178.6,173.4 181,177 178.6,180.6 175,183 " />
<polygon points="169,172 175,146 177,146 175,172 " />
</g>
</svg>
