<svg xmlns="http://www.w3.org/2000/svg" xmlns:xlink="http://www.w3.org/1999/xlink" version="1.1" baseProfile="full" viewBox="0 0 200 200" width="200" height="200">
<g fill="black">
<polygon points="15,53 81.5,53 81.5,57 15,57 " />
<polygon points="81.5,53 57.5,55 69.5,43 " />
<polygon points="53.9,16 53.9,171 41.9,171 41.9,14 " />
<polygon points="53.9,16 56.9,18 51.9,21 " />
<polygon points="53.9,171 51.5,174.6 47.9,177 44.3,174.6 41.9,171 " />
<polygon points="53.9,171 53.7,173.5 53.3,176 52.5,178.4 51.2,180.7 49.6,182.7 47.6,184.3 45.3,185.6 42.9,186.4 40.4,186.8 37.9,187 37.9,175 39.1,174.9 40,174.7 40.6,174.5 40.9,174.4 41.1,174.2 41.3,174 41.4,173.7 41.6,173.1 41.8,172.2 41.9,171 " />
<polygon points="37.9,181 37.9,175 17.9,175 17.9,178 " />
<polygon points="14.2,116.1 21,113.4 27.8,110.8 34.5,108.1 41.1,105.4 47.8,102.8 54.4,100.1 61.1,97.5 67.7,94.9 74.4,92.4 81.1,90.1 81.9,91.8 76.1,95.8 70.1,99.7 63.9,103.4 57.7,106.9 51.4,110.4 45.1,113.9 38.6,117.2 32.2,120.5 25.6,123.8 19,127.1 " />
<polygon points="19,127.1 14.2,116.1 12.4,116.8 " />
<polygon points="19,127.1 22.1,129 23.3,121.9 " />
<polygon points="135.8,17.4 131.3,25.5 126.5,33.2 121.1,40.5 115.4,47.6 109.2,54.3 102.7,60.6 95.7,66.5 88.2,72.1 80.3,77.1 71.9,81.7 70.9,80.2 78.1,74.1 84.8,67.9 91.3,61.6 97.3,55.2 102.9,48.6 108.1,41.8 112.9,34.7 117.4,27.5 121.4,20 125,12.3 " />
<polygon points="124.5,13.2 135.8,17.4 125.5,11.1 " />
<polygon points="135.8,17.4 137.7,20.5 131.8,21.1 " />
<polygon points="129.4,20.4 134.3,25.9 139.2,31.2 144.1,36.2 149.1,40.9 154.3,45.2 159.7,49.2 165.4,52.9 171.2,56.2 177.2,59.2 183.5,61.9 178,74 171.4,70.3 165,66.3 159,61.9 153.4,57.2 148.1,52.1 143.1,46.7 138.6,40.9 134.5,34.8 130.9,28.2 127.9,21.3 " />
<polygon points="178,74 183.5,61.9 189.4,64.6 " />
<polygon points="97.8,77 156.5,77 156.5,81 97.8,81 " />
<polygon points="156.5,77 136.5,79 146.5,68 " />
<polygon points="76.8,107 180.1,107 180.1,111 76.8,111 " />
<polygon points="180.1,107 156.1,109 168.1,97 " />
<polygon points="100.4,127 100.4,184 88.4,190 88.4,121 " />
<polygon points="94.4,127 160.5,127 160.5,131 94.4,131 " />
<polygon points="166.5,129 166.5,178 154.5,184 154.5,129 " />
<polygon points="154.5,127 160.5,122 171.5,131 166.5,135 154.5,129 " />
<polygon points="94.4,168 160.5,168 160.5,172 94.4,172 " />
<polygon points="133.5,53 133.5,111 121.5,111 121.5,51 " />
<polygon points="133.5,53 136.5,55 131.5,58 " />
</g>
</svg>
