<svg xmlns="http://www.w3.org/2000/svg" xmlns:xlink="http://www.w3.org/1999/xlink" version="1.1" baseProfile="full" viewBox="0 0 200 200" width="200" height="200">
<g fill="black">
<polygon points="20.3,31.8 22.8,33.3 25.5,34.7 28,36.3 30.4,38.1 32.7,40.2 34.8,42.4 36.7,44.9 38.6,47.5 40.2,50.3 41.7,53.2 30.3,57 29.8,54.4 29.2,51.8 28.5,49.4 27.6,47 26.6,44.6 25.5,42.2 24.2,39.9 22.8,37.6 21.2,35.2 19.3,33.3 " />
<polygon points="41.7,53.2 41.3,57.8 37.9,60.8 33.3,60.4 30.3,57 " />
<polygon points="15.3,120.3 19.1,124.5 22.5,129.1 25.3,134.1 27.8,139.2 29.8,144.6 31.4,150.2 32.6,156 33.4,162 33.8,168.1 33.9,174.4 21.9,173.5 22.5,167.9 22.7,162.5 22.6,157.1 22.3,151.9 21.6,146.7 20.6,141.6 19.3,136.5 17.7,131.5 15.9,126.4 13.8,121.3 " />
<polygon points="33.9,174.4 31.7,178.5 27.4,179.9 23.4,177.8 21.9,173.5 " />
<polygon points="17.9,136.5 20.2,131.8 22.8,126.3 25.5,120.1 28.3,113.1 31.4,105.4 34.6,96.9 38,87.7 41.6,77.7 45.5,67.1 49.7,55.7 51.5,56.2 49.1,68.1 46.7,79.2 44.2,89.6 41.8,99.2 39.4,108 37.1,116.1 34.9,123.5 32.8,130.2 30.7,136.2 28.8,141.4 " />
<polygon points="69.5,17 69.5,75 58.5,75 58.5,15 " />
<polygon points="69.5,17 72.2,19 69.5,21 " />
<polygon points="69.5,75 67.3,78.3 64,80.5 60.7,78.3 58.5,75 " />
<polygon points="69.5,75 69,83.8 68.2,92.4 67,100.6 65.4,108.5 63.5,116.1 61.2,123.3 58.5,130.2 55.3,136.7 51.7,142.8 47.7,148.4 46.2,147.5 48.6,141.2 50.8,134.8 52.8,128.2 54.5,121.4 55.9,114.3 57,107 57.9,99.4 58.4,91.5 58.6,83.4 58.5,75 " />
<polygon points="87.4,22.3 87.4,126.4 78.4,130.9 78.4,17.8 " />
<polygon points="82.9,22.3 128.4,22.3 128.4,26.3 82.9,26.3 " />
<polygon points="128.4,22.3 108.4,24.3 118.4,13.3 " />
<polygon points="109.1,22.3 109.1,57.2 98.1,57.2 98.1,22.3 " />
<polygon points="82.9,53.2 121.3,53.2 121.3,57.2 82.9,57.2 " />
<polygon points="126.8,55.2 126.8,98.5 115.8,104 115.8,55.2 " />
<polygon points="115.8,53.2 121.3,48.2 131.8,57.2 126.8,60.7 115.8,55.2 " />
<polygon points="82.9,88.5 121.3,88.5 121.3,92.5 82.9,92.5 " />
<polygon points="109.1,88.5 109.1,126.4 98.1,126.4 98.1,88.5 " />
<polygon points="82.9,122.4 130,122.4 130,126.4 82.9,126.4 " />
<polygon points="130,122.4 110,124.4 120,113.4 " />
<polygon points="142,23 175,23 175,27 142,27 " />
<polygon points="181,25 181,77 169,83 169,25 " />
<polygon points="169,23 175,18 186,27 181,31 169,25 " />
<polygon points="142,67 175,67 175,71 142,71 " />
<polygon points="147.5,23 147.5,115 136.5,115 136.5,17.5 " />
<polygon points="147.5,115 145.3,118.3 142,120.5 138.7,118.3 136.5,115 " />
<polygon points="147.5,115 147.6,116.2 147.8,117.2 148,117.8 148.3,118.2 148.5,118.4 148.8,118.5 149.2,118.7 149.8,118.8 150.7,118.9 152,119 152,131 149.4,130.8 146.9,130.3 144.5,129.4 142.3,128.2 140.4,126.5 138.8,124.5 137.7,122.3 136.9,119.9 136.5,117.5 136.5,115 " />
<polygon points="152,119 156.2,120.8 158,125 156.2,129.2 152,131 " />
<polygon points="152,119 182,119 182,131 152,131 " />
<polygon points="182,119 185.6,121.4 188,125 185.6,128.6 182,131 " />
<polygon points="176,120 182,94 184,94 182,120 " />
<polygon points="70.5,141.8 70.9,147.2 71.1,152.3 70.8,157.2 70.2,161.8 69.2,166 67.8,170.1 66,173.8 63.7,177.2 61,180.3 57.9,183 51.6,172.7 53.9,171.6 56,170.1 58,168.2 60,165.8 61.8,163 63.5,159.7 65.1,155.9 66.5,151.7 67.8,146.9 68.7,141.7 " />
<polygon points="57.9,183 53.4,183.6 49.6,181 49,176.4 51.6,172.7 " />
<polygon points="92.5,142.9 95.1,145.6 97.6,148.3 99.8,151.2 101.8,154.3 103.4,157.5 104.8,160.8 105.9,164.2 106.7,167.7 107.2,171.4 107.4,175.1 95.5,174 96,171.3 96.3,168.4 96.4,165.6 96.3,162.7 96.1,159.7 95.5,156.7 94.8,153.6 93.9,150.4 92.7,147.1 91.1,143.9 " />
<polygon points="107.4,175.1 105.3,179.1 100.9,180.5 96.9,178.4 95.5,174 " />
<polygon points="124.1,142.7 127.4,145.3 130.7,147.9 133.6,150.7 136.2,153.7 138.6,156.8 140.6,160 142.4,163.3 143.9,166.8 145.1,170.4 145.9,174 134,175.1 134,172.3 133.8,169.4 133.3,166.5 132.6,163.5 131.7,160.4 130.4,157.3 129,154 127.2,150.7 125.3,147.3 122.8,143.9 " />
<polygon points="145.9,174 144.5,178.4 140.4,180.5 136.1,179.1 134,175.1 " />
<polygon points="157.3,141.7 161.5,144.5 165.5,147.4 169.2,150.5 172.5,153.7 175.5,157 178.2,160.4 180.6,163.9 182.7,167.5 184.5,171.2 186,175 174.3,177.9 173.8,174.8 173,171.6 171.9,168.3 170.5,165 168.8,161.6 166.8,158.1 164.6,154.4 162,150.7 159.3,146.9 156.1,143 " />
<polygon points="186,175 185.2,179.6 181.6,182.3 177.1,181.6 174.3,177.9 " />
</g>
</svg>
