<svg xmlns="http://www.w3.org/2000/svg" xmlns:xlink="http://www.w3.org/1999/xlink" version="1.1" baseProfile="full" viewBox="0 0 200 200" width="200" height="200">
<g fill="black">
<polygon points="106,20 106,170 94,170 94,18 " />
<polygon points="106,20 109,22 106,24 " />
<polygon points="106,170 103.6,173.6 100,176 96.4,173.6 94,170 " />
<polygon points="106,170 105.8,172.5 105.4,175 104.6,177.4 103.3,179.7 101.7,181.7 99.7,183.3 97.4,184.6 95,185.4 92.5,185.8 90,186 90,174 91.2,173.9 92.1,173.7 92.7,173.5 93,173.4 93.2,173.2 93.4,173 93.5,172.7 93.7,172.1 93.9,171.2 94,170 " />
<polygon points="90,180 90,174 70,174 70,177 " />
<polygon points="60.5,70.5 57.4,79.8 53.9,88.8 50.1,97.6 45.9,106.1 41.4,114.4 36.5,122.4 31.2,130.2 25.5,137.7 19.3,144.8 12.6,151.5 11.3,150.4 16.3,142.5 21.1,134.6 25.6,126.7 29.9,118.6 33.9,110.5 37.5,102.2 40.9,93.7 43.9,85.1 46.5,76.3 48.9,67.3 " />
<polygon points="48.9,67.3 60.5,70.5 49.4,65.7 " />
<polygon points="60.5,70.5 62.8,73.2 56,75.5 " />
<polygon points="134.3,65 141.3,70.7 147.8,76.8 153.8,83.3 159.3,90.1 164.3,97.2 168.9,104.6 173.1,112.2 176.8,120 180.1,128.1 182.9,136.5 171.4,139.6 169.3,131.7 166.8,124 164,116.4 160.7,108.9 157,101.6 153,94.4 148.5,87.3 143.7,80.3 138.5,73.3 133,66.3 " />
<polygon points="182.9,136.5 182.3,141 178.7,143.8 174.2,143.2 171.4,139.6 " />
</g>
</svg>
