<svg xmlns="http://www.w3.org/2000/svg" xmlns:xlink="http://www.w3.org/1999/xlink" version="1.1" baseProfile="full" viewBox="0 0 200 200" width="200" height="200">
<g fill="black">
<polygon points="158.3,39 147,41.3 135.1,43.6 122.7,45.9 109.9,48.1 96.5,50.4 82.7,52.7 68.3,54.9 53.4,57 38,59 22.1,60.8 21.8,59.1 37.4,55.3 52.5,51.8 67.1,48.4 81.2,45.2 94.9,42.1 108,39 120.7,36 132.8,33.1 144.5,30.2 155.6,27.3 " />
<polygon points="155.6,27.3 158.3,39 166.3,37.2 " />
<polygon points="166.3,37.2 166.6,40.2 158.2,36 " />
<polygon points="38,74 162,74 162,78 38,78 " />
<polygon points="162,74 138,76 150,64 " />
<polygon points="19,104 184,104 184,108 19,108 " />
<polygon points="184,104 160,106 172,94 " />
<polygon points="106,16 106,183 94,189 94,14 " />
<polygon points="106,16 109,18 106,20 " />
<polygon points="101.6,106 100.4,108.4 95.4,118 89.8,127.1 83.4,135.7 76.4,143.7 68.7,151.2 60.3,158.2 51.3,164.5 41.7,170.3 31.3,175.4 20.3,179.8 19.6,178.1 29.5,172 38.8,165.8 47.5,159.2 55.4,152.4 62.7,145.2 69.4,137.6 75.4,129.7 80.7,121.4 85.4,112.6 88.3,106 " />
<polygon points="106.2,106.4 112.1,114.2 118.1,121.6 124.3,128.7 130.8,135.5 137.6,141.8 144.7,147.8 152.3,153.5 160.1,158.7 168.4,163.6 177.1,168.1 170.8,179.8 161.9,174.3 153.5,168.5 145.5,162.2 138,155.5 131.1,148.5 124.6,141.1 118.7,133.2 113.3,125 108.6,116.4 104.6,107.3 " />
<polygon points="170.8,179.8 177.1,168.1 182.1,170.8 " />
</g>
</svg>
