<svg xmlns="http://www.w3.org/2000/svg" xmlns:xlink="http://www.w3.org/1999/xlink" version="1.1" baseProfile="full" viewBox="0 0 200 200" width="200" height="200">
<g fill="black">
<polygon points="13.5,59 81.6,59 81.6,63 13.5,63 " />
<polygon points="81.6,59 57.6,61 69.6,49 " />
<polygon points="54.9,16 54.9,183 42.9,189 42.9,14 " />
<polygon points="54.9,16 57.9,18 52.9,21 " />
<polygon points="52.3,61 52.1,62 49.8,71.8 47.3,81.4 44.4,90.8 41.1,99.9 37.6,108.7 33.7,117.3 29.4,125.6 24.8,133.5 19.7,141.2 14.2,148.4 12.7,147.5 16.4,139.3 20,131.1 23.5,122.8 26.7,114.3 29.6,105.7 32.3,96.9 34.7,88 36.9,78.8 38.7,69.4 40.1,61 " />
<polygon points="51.9,85.6 55.3,86.8 58.7,87.8 61.9,89.1 65,90.6 67.9,92.2 70.8,94.1 73.4,96.1 76,98.3 78.3,100.7 80.6,103.2 70.5,109.7 69.3,107.3 68,105 66.5,102.7 64.9,100.4 63,98.1 61,95.9 58.9,93.6 56.5,91.4 54,89.1 51.1,87.2 " />
<polygon points="80.6,103.2 81.4,107.7 78.8,111.5 74.3,112.2 70.5,109.7 " />
<polygon points="97.2,26.7 97.2,74.2 85.2,80.2 85.2,20.7 " />
<polygon points="91.2,26.7 176.7,26.7 176.7,30.7 91.2,30.7 " />
<polygon points="182.7,28.7 182.7,68.2 170.7,74.2 170.7,28.7 " />
<polygon points="170.7,26.7 176.7,21.7 187.7,30.7 182.7,34.7 170.7,28.7 " />
<polygon points="125.7,26.7 125.7,62.2 113.7,62.2 113.7,26.7 " />
<polygon points="154.2,26.7 154.2,62.2 142.2,62.2 142.2,26.7 " />
<polygon points="91.2,58.2 176.7,58.2 176.7,62.2 91.2,62.2 " />
<polygon points="139,69.2 139,99.1 127,99.1 127,67.2 " />
<polygon points="139,69.2 142,71.2 137,74.2 " />
<polygon points="79,95.1 186.9,95.1 186.9,99.1 79,99.1 " />
<polygon points="186.9,95.1 162.9,97.1 174.9,85.1 " />
<polygon points="126.5,124 168.1,124 168.1,128 126.5,128 " />
<polygon points="174,126.1 173.9,133.7 173.5,140.7 173.1,147.2 172.5,153.1 171.7,158.5 170.8,163.3 169.8,167.6 168.5,171.5 167,174.9 165.2,178 155.5,170.8 156.3,169.4 157.3,167.3 158.2,164.4 159.1,160.8 159.9,156.6 160.5,151.7 161.1,146.2 161.5,140 161.9,133.3 162.1,125.9 " />
<polygon points="162.1,124 168.1,119 179.1,128 174.1,131 162.1,136 " />
<polygon points="165.2,178 161.2,180.3 156.8,179.2 154.5,175.3 155.5,170.8 " />
<polygon points="165.2,178 163.6,179.9 161.9,181.6 160.1,183.2 158.2,184.6 156.1,185.8 153.9,186.8 151.6,187.5 149.3,188 146.9,188.3 144.4,188.4 144.4,176.4 145.9,176.4 147.2,176.2 148.4,175.9 149.6,175.6 150.7,175.1 151.7,174.5 152.7,173.8 153.7,172.9 154.6,172 155.5,170.8 " />
<polygon points="144.4,182.4 144.4,176.4 124.4,176.4 124.4,179.4 " />
<polygon points="134.4,100.3 133.6,113.2 131.8,125.3 129,136.5 125.1,146.8 120.3,156.2 114.4,164.6 107.5,172 99.7,178.3 91,183.5 81.3,187.5 80.6,185.9 89,180.3 96.4,174.1 102.8,167.4 108.3,160.1 112.8,152.1 116.5,143.3 119.3,133.8 121.2,123.5 122.3,112.3 122.4,100.3 " />
<polygon points="122.4,101.3 134.4,100.3 122.4,97.8 " />
<polygon points="134.4,100.3 137.4,102.3 132.4,105.3 " />
</g>
</svg>
