<svg xmlns="http://www.w3.org/2000/svg" xmlns:xlink="http://www.w3.org/1999/xlink" version="1.1" baseProfile="full" viewBox="0 0 200 200" width="200" height="200">
<g fill="black">
<polygon points="61,27 61,107 49,107 49,21 " />
<polygon points="61,107 58.6,110.6 55,113 51.4,110.6 49,107 " />
<polygon points="61,107 60.3,119.1 59,130.4 57,140.9 54.3,150.6 50.9,159.5 46.8,167.5 42,174.6 36.5,180.7 30.3,185.8 23.4,189.7 22.5,188.2 27.8,182.9 32.5,177.2 36.6,170.9 40.1,164 43,156.4 45.4,148.1 47.1,139 48.3,129.1 48.9,118.4 49,107 " />
<polygon points="55,27 151,27 151,31 55,31 " />
<polygon points="157,29 157,173 145,173 145,29 " />
<polygon points="145,27 151,22 162,31 157,35 145,29 " />
<polygon points="157,173 154.6,176.6 151,179 147.4,176.6 145,173 " />
<polygon points="157,173 156.8,175.5 156.4,178 155.6,180.4 154.3,182.7 152.7,184.7 150.7,186.3 148.4,187.6 146,188.4 143.5,188.8 141,189 141,177 142.2,176.9 143.1,176.7 143.7,176.5 144,176.4 144.2,176.2 144.4,176 144.5,175.7 144.7,175.1 144.9,174.2 145,173 " />
<polygon points="141,183 141,177 121,177 121,180 " />
<polygon points="108,27 108,107 96,107 96,27 " />
<polygon points="15,103 187,103 187,107 15,107 " />
<polygon points="187,103 163,105 175,93 " />
</g>
</svg>
