<svg xmlns="http://www.w3.org/2000/svg" xmlns:xlink="http://www.w3.org/1999/xlink" version="1.1" baseProfile="full" viewBox="0 0 200 200" width="200" height="200">
<g fill="black">
<polygon points="29,31 171,31 171,35 29,35 " />
<polygon points="171,31 147,33 159,21 " />
<polygon points="41.3,54.1 45.8,57.5 49.9,61.2 53.7,65.1 57.1,69.1 60.3,73.2 63.2,77.5 65.8,81.8 68.1,86.3 70.2,90.8 71.9,95.4 60.4,98.7 59.4,94.5 58.2,90.3 56.7,86.1 55,81.9 53,77.6 50.8,73.3 48.4,68.9 45.8,64.5 43,60 40,55.3 " />
<polygon points="71.9,95.4 71.3,100 67.8,102.8 63.2,102.2 60.4,98.7 " />
<polygon points="162.6,54.9 159.7,59.1 156.6,63.5 153.3,68.1 149.8,72.8 146.1,77.8 142.2,82.8 138,88.1 133.6,93.5 128.8,98.9 123.7,104.5 122.2,103.4 125.7,96.8 129.2,90.4 132.6,84.4 135.9,78.6 139,73.1 142,67.8 144.9,62.7 147.5,57.8 150,53.2 152.3,48.8 " />
<polygon points="151.8,49.6 162.6,54.9 152.8,47.9 " />
<polygon points="162.6,54.9 164.2,58.1 158.3,58.2 " />
<polygon points="18,114 182,114 182,118 18,118 " />
<polygon points="182,114 158,116 170,104 " />
<polygon points="106,31 106,185 94,191 94,31 " />
</g>
</svg>
