<svg xmlns="http://www.w3.org/2000/svg" xmlns:xlink="http://www.w3.org/1999/xlink" version="1.1" baseProfile="full" viewBox="0 0 200 200" width="200" height="200">
<g fill="black">
<polygon points="79.9,26.4 77.5,46.5 74.1,65.7 69.8,84.1 64.6,101.6 58.4,118.2 51.2,134 43.1,148.9 33.9,162.8 23.8,175.7 12.6,187.6 11.3,186.3 20.8,173.4 29.5,159.8 37.3,145.7 44.3,130.8 50.5,115.2 55.7,98.8 60.1,81.7 63.6,63.7 66.2,45 67.9,25.5 " />
<polygon points="67.9,25.5 79.9,26.4 68.1,23.3 " />
<polygon points="79.9,26.4 82.7,28.6 76.4,32.2 " />
<polygon points="123,11.8 127.4,34.1 132.2,55.1 137.4,74.7 143.1,93 149.4,109.8 156.2,125.3 163.5,139.4 171.4,152.1 179.8,163.5 188.8,173.4 179.1,182.5 169.9,171.1 161.5,158.5 153.8,144.6 146.8,129.5 140.6,113.1 135.1,95.4 130.4,76.5 126.4,56.3 123.3,34.8 121.2,12.1 " />
<polygon points="179.1,182.5 188.8,173.4 189.8,174.6 " />
</g>
</svg>
