<svg xmlns="http://www.w3.org/2000/svg" xmlns:xlink="http://www.w3.org/1999/xlink" version="1.1" baseProfile="full" viewBox="0 0 200 200" width="200" height="200">
<g fill="black">
<polygon points="63,24 63,104 51,104 51,18 " />
<polygon points="63,104 60.6,107.6 57,110 53.4,107.6 51,104 " />
<polygon points="62.9,103.9 62.5,116 61.2,127.5 59,138.1 56.1,147.9 52.3,156.9 47.8,165 42.3,172.2 36.1,178.5 29.1,183.7 21.4,187.7 20.5,186.2 26.8,180.7 32.3,174.7 37.1,168.3 41.2,161.2 44.6,153.5 47.2,145.1 49.2,136 50.5,126.1 51.1,115.5 51,104 " />
<polygon points="57,24 141,24 141,28 57,28 " />
<polygon points="147,26 147,170 135,170 135,26 " />
<polygon points="135,24 141,19 152,28 147,32 135,26 " />
<polygon points="147,170 144.6,173.6 141,176 137.4,173.6 135,170 " />
<polygon points="147,170 146.8,172.5 146.4,175 145.6,177.4 144.3,179.7 142.7,181.7 140.7,183.3 138.4,184.6 136,185.4 133.5,185.8 131,186 131,174 132.2,173.9 133.1,173.7 133.7,173.5 134,173.4 134.2,173.2 134.4,173 134.5,172.7 134.7,172.1 134.9,171.2 135,170 " />
<polygon points="131,180 131,174 111,174 111,177 " />
<polygon points="15,100 185,100 185,104 15,104 " />
<polygon points="185,100 161,102 173,90 " />
<polygon points="85.3,49.9 88.6,52.3 91.9,54.5 94.9,56.9 97.7,59.4 100.2,62 102.4,64.7 104.5,67.5 106.3,70.5 107.8,73.5 109.1,76.7 97.4,79.4 97.1,76.9 96.6,74.4 95.9,71.8 95,69.1 93.8,66.3 92.3,63.4 90.7,60.5 88.8,57.5 86.7,54.3 84.1,51.3 " />
<polygon points="109.1,76.7 108.3,81.2 104.6,83.9 100.1,83.1 97.4,79.4 " />
</g>
</svg>
