<svg xmlns="http://www.w3.org/2000/svg" xmlns:xlink="http://www.w3.org/1999/xlink" version="1.1" baseProfile="full" viewBox="0 0 200 200" width="200" height="200">
<g fill="black">
<polygon points="20.6,22.3 23.1,23.4 25.7,24.2 28.2,25.3 30.5,26.5 32.8,27.9 34.9,29.5 36.9,31.3 38.7,33.2 40.4,35.2 42,37.5 31,42.3 30.6,40.4 30.1,38.6 29.4,36.8 28.5,34.9 27.5,33 26.4,31.2 25,29.3 23.5,27.4 21.8,25.4 19.7,23.9 " />
<polygon points="42,37.5 42,42 38.9,45.4 34.3,45.4 31,42.3 " />
<polygon points="15.5,90.5 19.2,93.7 22.5,97 25.4,100.7 27.9,104.6 30,108.7 31.8,113 33,117.5 33.9,122.1 34.4,126.9 34.4,131.9 22.5,130.7 23.1,126.7 23.4,122.8 23.3,119 23,115.1 22.3,111.3 21.4,107.5 20.1,103.6 18.4,99.7 16.6,95.7 14.2,91.7 " />
<polygon points="34.4,131.9 32.2,135.9 27.9,137.2 23.9,135 22.5,130.7 " />
<polygon points="18.6,101.9 21,98.4 23.5,94.3 26.3,89.6 29.2,84.3 32.2,78.4 35.5,72 38.9,65 42.6,57.4 46.5,49.3 50.8,40.8 52.5,41.4 50.1,50.7 47.6,59.4 45,67.5 42.5,74.9 40,81.8 37.6,88.2 35.3,94 33.1,99.2 30.9,103.9 28.9,108.1 " />
<polygon points="64.5,18 64.5,74 53.5,74 53.5,16 " />
<polygon points="64.5,18 67.2,20 64.5,22 " />
<polygon points="64.5,74 62.3,77.3 59,79.5 55.7,77.3 53.5,74 " />
<polygon points="64.5,74 64,82 63.3,89.8 62.2,97.3 60.7,104.6 59,111.5 56.9,118.2 54.5,124.5 51.6,130.6 48.4,136.2 44.7,141.4 43.2,140.5 45.2,134.7 47.1,128.7 48.7,122.6 50.2,116.3 51.4,109.9 52.4,103.1 53,96.2 53.4,89 53.6,81.6 53.5,74 " />
<polygon points="83.2,21.4 83.2,130.3 74.2,134.8 74.2,16.9 " />
<polygon points="78.7,21.4 127.9,21.4 127.9,25.4 78.7,25.4 " />
<polygon points="127.9,21.4 107.9,23.4 117.9,12.4 " />
<polygon points="106.6,21.4 106.6,57.8 95.6,57.8 95.6,21.4 " />
<polygon points="78.7,53.8 120.2,53.8 120.2,57.8 78.7,57.8 " />
<polygon points="125.7,55.8 125.7,100.8 114.7,106.3 114.7,55.8 " />
<polygon points="114.7,53.8 120.2,48.8 130.7,57.8 125.7,61.3 114.7,55.8 " />
<polygon points="78.7,90.8 120.2,90.8 120.2,94.8 78.7,94.8 " />
<polygon points="106.6,90.8 106.6,130.3 95.6,130.3 95.6,90.8 " />
<polygon points="78.7,126.3 129.6,126.3 129.6,130.3 78.7,130.3 " />
<polygon points="129.6,126.3 109.6,128.3 119.6,117.3 " />
<polygon points="136,22 175,22 175,26 136,26 " />
<polygon points="181,24 181,73 169,79 169,24 " />
<polygon points="169,22 175,17 186,26 181,30 169,24 " />
<polygon points="143,63 175,63 175,67 143,67 " />
<polygon points="148.5,63 148.5,117 137.5,117 137.5,57.5 " />
<polygon points="148.5,117 146.3,120.3 143,122.5 139.7,120.3 137.5,117 " />
<polygon points="148.5,117 148.6,118.2 148.8,119.2 149,119.8 149.3,120.2 149.5,120.4 149.8,120.5 150.2,120.7 150.8,120.8 151.7,120.9 153,121 153,133 150.4,132.8 147.9,132.3 145.5,131.4 143.3,130.2 141.4,128.5 139.8,126.5 138.7,124.3 137.9,121.9 137.5,119.5 137.5,117 " />
<polygon points="153,121 157.2,122.8 159,127 157.2,131.2 153,133 " />
<polygon points="153,121 182,121 182,133 153,133 " />
<polygon points="182,121 185.6,123.4 188,127 185.6,130.6 182,133 " />
<polygon points="176,122 182,96 184,96 182,122 " />
<polygon points="43.8,141 44.2,146.9 44.3,152.5 43.9,157.8 42.9,162.9 41.6,167.6 39.7,171.9 37.4,176 34.6,179.7 31.2,182.9 27.5,185.8 21.7,175.2 24.5,173.8 27.2,172.1 29.7,169.9 32,167.2 34.1,164.1 36.1,160.5 37.9,156.4 39.4,151.7 40.9,146.6 42,140.9 " />
<polygon points="27.5,185.8 22.9,186.2 19.3,183.4 18.9,178.8 21.7,175.2 " />
<polygon points="70.3,142.1 73.3,145.1 76.2,148.1 78.8,151.3 81,154.6 82.9,158.1 84.5,161.8 85.7,165.6 86.5,169.4 87.1,173.4 87.2,177.5 75.3,176.4 75.8,173.3 76.1,170.2 76.1,167.1 75.9,163.9 75.5,160.7 74.7,157.4 73.7,154 72.4,150.5 70.9,146.8 68.9,143.3 " />
<polygon points="87.2,177.5 85,181.5 80.7,182.9 76.7,180.7 75.3,176.4 " />
<polygon points="108.3,141.9 112.3,144.8 116.1,147.6 119.5,150.7 122.6,154 125.3,157.4 127.7,160.9 129.7,164.6 131.4,168.4 132.7,172.3 133.6,176.4 121.7,177.5 121.6,174.4 121.2,171.3 120.6,168 119.6,164.8 118.4,161.4 116.7,157.9 114.8,154.4 112.6,150.8 110.1,147 107.1,143.3 " />
<polygon points="133.6,176.4 132.2,180.7 128.2,182.9 123.9,181.5 121.7,177.5 " />
<polygon points="148.3,140.9 153.4,143.9 158.1,147.1 162.3,150.5 166.2,154 169.8,157.6 172.9,161.4 175.8,165.2 178.2,169.2 180.3,173.3 181.9,177.5 170.4,180.6 169.6,177.2 168.5,173.7 167.1,170.1 165.3,166.4 163.1,162.7 160.6,158.8 157.7,154.9 154.5,150.8 151,146.6 147.2,142.3 " />
<polygon points="181.9,177.5 181.3,182 177.7,184.8 173.2,184.2 170.4,180.6 " />
</g>
</svg>
