<svg xmlns="http://www.w3.org/2000/svg" xmlns:xlink="http://www.w3.org/1999/xlink" version="1.1" baseProfile="full" viewBox="0 0 200 200" width="200" height="200">
<g fill="black">
<polygon points="34,31 173,31 173,35 34,35 " />
<polygon points="173,31 149,33 161,21 " />
<polygon points="75.4,49.6 57.9,111.1 44.7,113.5 64.5,44.3 " />
<polygon points="75.4,49.6 77.8,52.3 74.3,53.4 " />
<polygon points="56,94 181,94 181,98 56,98 " />
<polygon points="181,94 157,96 169,84 " />
<polygon points="139,31 139,172 127,172 127,31 " />
<polygon points="139,172 136.6,175.6 133,178 129.4,175.6 127,172 " />
<polygon points="139,172 138.8,174.5 138.4,177 137.6,179.4 136.3,181.7 134.7,183.7 132.7,185.3 130.4,186.6 128,187.4 125.5,187.8 123,188 123,176 124.2,175.9 125.1,175.7 125.7,175.5 126,175.4 126.2,175.2 126.4,175 126.5,174.7 126.7,174.1 126.9,173.2 127,172 " />
<polygon points="123,182 123,176 103,176 103,179 " />
<polygon points="131.2,96 129,99.2 121.1,110.3 112.8,120.9 103.9,130.8 94.6,140.1 84.7,148.6 74.4,156.6 63.6,163.8 52.4,170.3 40.6,175.9 28.3,180.8 27.6,179.1 38.8,172.6 49.6,165.6 59.9,158.3 69.8,150.5 79.2,142.3 88,133.4 96.5,124.1 104.4,114.2 111.9,103.8 116.8,96 " />
</g>
</svg>
