<svg xmlns="http://www.w3.org/2000/svg" xmlns:xlink="http://www.w3.org/1999/xlink" version="1.1" baseProfile="full" viewBox="0 0 200 200" width="200" height="200">
<g fill="black">
<polygon points="54,62 54,122 42,128 42,56 " />
<polygon points="48,62 156,62 156,66 48,66 " />
<polygon points="162,64 162,116 150,122 150,64 " />
<polygon points="150,62 156,57 167,66 162,70 150,64 " />
<polygon points="48,106 156,106 156,110 48,110 " />
<polygon points="115,112 115,169 103,169 103,110 " />
<polygon points="115,112 118,114 115,116 " />
<polygon points="115,169 112.6,172.6 109,175 105.4,172.6 103,169 " />
<polygon points="115,169 115,170.2 115.2,171.1 115.4,171.7 115.5,172 115.7,172.2 115.9,172.4 116.2,172.5 116.8,172.7 117.7,172.9 119,173 119,185 116.4,184.8 113.9,184.4 111.5,183.6 109.2,182.3 107.2,180.7 105.6,178.7 104.3,176.4 103.5,174 103.1,171.5 103,169 " />
<polygon points="119,173 123.2,174.8 125,179 123.2,183.2 119,185 " />
<polygon points="119,173 180,173 180,185 119,185 " />
<polygon points="180,173 183.6,175.4 186,179 183.6,182.6 180,185 " />
<polygon points="174,174 180,148 182,148 180,174 " />
<polygon points="109,30.2 106.9,85.2 95,84.7 97,29.7 " />
<polygon points="106.9,85.3 104.8,101.5 101.1,116.5 95.8,130.2 88.9,142.7 80.5,153.9 70.5,163.7 59.1,172.1 46.2,179.2 31.9,184.7 16.2,188.8 15.7,187.1 30.5,181.2 43.7,174.4 55.3,166.7 65.4,158.1 73.9,148.5 81,137.9 86.6,126.2 90.8,113.5 93.6,99.6 95,84.6 " />
<polygon points="126.3,122.6 130,124.1 133.7,125.7 137.2,127.6 140.6,129.7 143.9,132.1 147,134.8 149.9,137.6 152.7,140.7 155.3,144 157.8,147.4 147.2,153.2 145.7,149.9 144.1,146.7 142.3,143.6 140.3,140.6 138.2,137.7 136,134.9 133.6,132.1 131,129.4 128.4,126.7 125.4,124.2 " />
<polygon points="157.8,147.4 158.2,152 155.4,155.6 150.8,156 147.2,153.2 " />
<polygon points="160.2,29 146.8,31.4 133.4,33.6 119.9,35.7 106.4,37.5 92.8,39.2 79.2,40.7 65.5,41.9 51.7,42.9 37.9,43.6 24,43.8 23.9,42.1 37.5,39.8 51.1,37.6 64.7,35.4 78.2,33.1 91.6,30.8 104.9,28.4 118.2,25.8 131.5,23.1 144.6,20.3 157.7,17.3 " />
<polygon points="157.7,17.3 160.2,29 168.6,27.3 " />
<polygon points="168.6,27.3 169,30.3 160.4,25.9 " />
</g>
</svg>
