<svg xmlns="http://www.w3.org/2000/svg" xmlns:xlink="http://www.w3.org/1999/xlink" version="1.1" baseProfile="full" viewBox="0 0 200 200" width="200" height="200">
<g fill="black">
<polygon points="47,50 47,130 35,136 35,48 " />
<polygon points="47,50 50,52 47,54 " />
<polygon points="41,114 160,114 160,118 41,118 " />
<polygon points="166,51 166,124 154,130 154,49 " />
<polygon points="166,51 169,53 166,55 " />
<polygon points="107,23 107,102 95,102 95,21 " />
<polygon points="107,23 110,25 107,27 " />
<polygon points="107,102 104.6,105.6 101,108 97.4,105.6 95,102 " />
<polygon points="107,102 106,115.8 103.6,128.6 99.8,140.4 94.6,151 88.1,160.5 80.2,168.8 71,175.7 60.6,181.4 49,185.8 36.2,188.8 35.7,187.1 47.6,182.3 58.1,176.7 67.2,170.4 74.9,163.3 81.3,155.4 86.5,146.6 90.4,136.9 93.1,126.3 94.6,114.7 95,102 " />
</g>
</svg>
