<svg xmlns="http://www.w3.org/2000/svg" xmlns:xlink="http://www.w3.org/1999/xlink" version="1.1" baseProfile="full" viewBox="0 0 200 200" width="200" height="200">
<g fill="black">
<polygon points="61.5,72.9 61.5,97.1 49.5,97.1 49.5,70.9 " />
<polygon points="61.5,72.9 64.5,74.9 61.5,76.9 " />
<polygon points="15.6,93.1 96.4,93.1 96.4,97.1 15.6,97.1 " />
<polygon points="96.4,93.1 72.4,95.1 84.4,83.1 " />
<polygon points="61.4,99.4 59.8,112.5 57.5,124.7 54.3,136.1 50.3,146.5 45.5,156 39.9,164.6 33.5,172.1 26.3,178.6 18.4,183.9 9.7,188.1 8.8,186.5 16.2,180.8 22.7,174.6 28.6,167.8 33.6,160.3 38,152.1 41.7,143.1 44.7,133.3 47,122.6 48.5,111.1 49.4,98.7 " />
<polygon points="49.4,98.7 61.4,99.4 49.5,96.4 " />
<polygon points="61.4,99.4 64.2,101.6 58,105.2 " />
<polygon points="51.3,121.3 93.3,121.3 93.3,125.3 51.3,125.3 " />
<polygon points="99.2,123.5 98.8,130.3 98.2,136.5 97.5,142.2 96.5,147.5 95.3,152.4 93.9,156.8 92.3,160.8 90.4,164.3 88.1,167.4 85.4,170.1 77.8,160.8 79,159.6 80.2,157.9 81.4,155.6 82.6,152.7 83.8,149.2 84.8,145.1 85.6,140.4 86.3,135.1 86.9,129.3 87.3,123 " />
<polygon points="87.3,121.3 93.3,116.3 104.3,125.3 99.3,129.3 93.3,129.3 " />
<polygon points="85.4,170.1 81,171.4 76.9,169.2 75.7,164.8 77.8,160.8 " />
<polygon points="85.4,170.1 83.5,171.5 81.5,172.8 79.5,174 77.4,175 75.3,175.8 73.1,176.5 70.8,177.1 68.5,177.5 66.2,177.7 63.8,177.8 63.8,165.8 65.4,165.7 66.9,165.6 68.4,165.3 69.9,165 71.3,164.5 72.6,164 73.9,163.4 75.2,162.6 76.5,161.8 77.8,160.8 " />
<polygon points="63.8,171.8 63.8,165.8 43.8,165.8 43.8,168.8 " />
<polygon points="24.5,42.7 91.7,42.7 91.7,46.7 24.5,46.7 " />
<polygon points="91.7,42.7 67.7,44.7 79.7,32.7 " />
<polygon points="61.5,17.6 61.5,70.9 49.5,70.9 49.5,15.6 " />
<polygon points="61.5,17.6 64.5,19.6 61.5,21.6 " />
<polygon points="13.5,66.9 101.7,66.9 101.7,70.9 13.5,70.9 " />
<polygon points="101.7,66.9 77.7,68.9 89.7,56.9 " />
<polygon points="138.1,16.2 135.4,26.2 132.3,35.9 128.9,45.2 125.2,54.2 121.1,62.9 116.7,71.2 111.9,79.2 106.8,86.8 101.2,93.9 95.2,100.5 93.8,99.4 98.1,91.7 102.2,83.9 106.2,76 109.9,67.9 113.4,59.5 116.5,50.8 119.4,41.9 122.1,32.8 124.4,23.3 126.4,13.6 " />
<polygon points="126.4,13.6 138.1,16.2 126.8,11.8 " />
<polygon points="138.1,16.2 140.6,18.8 133.9,21.4 " />
<polygon points="117.3,61 187.6,61 187.6,65 117.3,65 " />
<polygon points="187.6,61 163.6,63 175.6,51 " />
<polygon points="167,63.7 163.7,82.7 159.1,100.5 153.3,116.8 146.1,131.7 137.7,145.1 128,157 117,167.4 104.8,176.2 91.3,183.3 76.8,188.8 76.1,187.1 89.6,180 101.7,171.8 112.6,162.5 122.2,152 130.6,140.3 137.9,127.4 143.9,113.1 148.8,97.5 152.5,80.6 155,62.2 " />
<polygon points="112.6,73.8 116.3,88.2 120.6,101.6 125.6,113.9 131.3,125.1 137.9,135.4 145.2,144.6 153.4,152.9 162.3,160.2 172.2,166.5 182.9,172 177.1,183.9 165.6,177.2 155.1,169.5 145.7,160.8 137.3,151.1 130.1,140.5 123.9,129 118.9,116.6 114.9,103.3 112.2,89.1 110.8,74.1 " />
<polygon points="177.1,183.9 182.9,172 188.5,174.7 " />
</g>
</svg>
