<svg xmlns="http://www.w3.org/2000/svg" xmlns:xlink="http://www.w3.org/1999/xlink" version="1.1" baseProfile="full" viewBox="0 0 200 200" width="200" height="200">
<g fill="black">
<polygon points="72.2,24 69.1,30.9 65.5,37.8 61.4,44.4 56.9,50.9 52,57.2 46.7,63.3 40.9,69.3 34.6,75 27.8,80.5 20.5,85.6 19.4,84.3 25.2,77.7 30.8,71.3 36,64.9 40.8,58.5 45.2,52.2 49.2,45.8 52.8,39.3 55.9,32.9 58.6,26.4 61,19.8 " />
<polygon points="61,19.8 72.2,24 61.5,18.4 " />
<polygon points="72.2,24 74.3,26.9 67.3,28.6 " />
<polygon points="60,34 122,34 122,38 60,38 " />
<polygon points="127.2,38.8 125.2,41.7 123,44.7 120.7,47.7 118.3,50.6 115.7,53.5 113,56.4 110.1,59.2 107.1,62 103.9,64.7 100.6,67.5 99.3,66.4 101.5,62.8 103.5,59.1 105.5,55.6 107.4,52.2 109.2,48.9 110.9,45.6 112.5,42.4 114,39.3 115.4,36.2 116.7,33.1 " />
<polygon points="116,34 122,29 133,38 128,42 122,42 " />
<polygon points="57,63 57,138 45,138 45,57 " />
<polygon points="57,138 54.6,141.6 51,144 47.4,141.6 45,138 " />
<polygon points="56.9,138.3 56,145.5 54.4,152.3 52.4,158.7 49.8,164.7 46.7,170.2 43,175.3 38.9,179.8 34.2,183.8 29.1,187.1 23.4,189.7 22.5,188.2 26.8,184 30.6,179.8 33.9,175.5 36.8,170.9 39.2,166.2 41.2,161.1 42.8,155.7 43.9,150 44.7,144 45,137.6 " />
<polygon points="51,63 152,63 152,67 51,67 " />
<polygon points="158,65 158,172 146,172 146,65 " />
<polygon points="146,63 152,58 163,67 158,71 146,65 " />
<polygon points="158,172 155.6,175.6 152,178 148.4,175.6 146,172 " />
<polygon points="158,172 157.8,174.5 157.4,177 156.6,179.4 155.3,181.7 153.7,183.7 151.7,185.3 149.4,186.6 147,187.4 144.5,187.8 142,188 142,176 143.2,175.9 144.1,175.7 144.7,175.5 145,175.4 145.2,175.2 145.4,175 145.5,174.7 145.7,174.1 145.9,173.2 146,172 " />
<polygon points="142,182 142,176 122,176 122,179 " />
<polygon points="51,95 152,95 152,99 51,99 " />
<polygon points="51,128 152,128 152,132 51,132 " />
<polygon points="107,63 107,179 95,185 95,63 " />
</g>
</svg>
