<svg xmlns="http://www.w3.org/2000/svg" xmlns:xlink="http://www.w3.org/1999/xlink" version="1.1" baseProfile="full" viewBox="0 0 200 200" width="200" height="200">
<g fill="black">
<polygon points="39.3,30.8 44.2,33.2 48.7,36 52.9,39 56.8,42.3 60.4,45.8 63.7,49.5 66.7,53.4 69.3,57.5 71.7,61.7 73.7,66.2 62.3,70 61.2,66.1 59.8,62.3 58.1,58.5 56.2,54.7 53.9,51 51.4,47.3 48.5,43.6 45.4,39.9 42,36.1 38.3,32.3 " />
<polygon points="73.7,66.2 73.3,70.8 69.9,73.8 65.3,73.4 62.3,70 " />
<polygon points="159.7,33.7 157.2,37.6 154.5,41.5 151.7,45.6 148.6,49.7 145.4,54 141.9,58.4 138.3,62.8 134.4,67.4 130.2,71.9 125.7,76.5 124.2,75.4 127.1,69.7 130,64.3 132.9,59.1 135.6,54.1 138.3,49.3 140.8,44.7 143.1,40.3 145.3,36 147.3,31.9 149.2,27.9 " />
<polygon points="149.2,27.9 159.7,33.7 149.8,27 " />
<polygon points="159.7,33.7 161.4,36.9 154.2,37.5 " />
<polygon points="25,86 177,86 177,90 25,90 " />
<polygon points="177,86 153,88 165,76 " />
<polygon points="18,125 184,125 184,129 18,129 " />
<polygon points="184,125 160,127 172,115 " />
<polygon points="107,16 107,184 95,190 95,14 " />
<polygon points="107,16 110,18 107,20 " />
</g>
</svg>
