<svg xmlns="http://www.w3.org/2000/svg" xmlns:xlink="http://www.w3.org/1999/xlink" version="1.1" baseProfile="full" viewBox="0 0 200 200" width="200" height="200">
<g fill="black">
<polygon points="27,24 86,24 86,28 27,28 " />
<polygon points="92,26 92,66 80,72 80,26 " />
<polygon points="80,24 86,19 97,28 92,32 80,26 " />
<polygon points="38,56 86,56 86,60 38,60 " />
<polygon points="44.2,56.7 38.2,104.6 25.5,109.1 33,49.3 " />
<polygon points="34,88 89,88 89,92 34,92 " />
<polygon points="94.9,89.9 95.1,102.1 95,113.5 94.9,124 94.5,133.7 94,142.5 93.3,150.5 92.5,157.7 91.5,164 90.3,169.6 88.9,174.5 77.5,170.5 78.7,166.7 79.7,161.9 80.6,156.1 81.4,149.3 82,141.7 82.5,133.1 82.9,123.7 83,113.4 83.1,102.1 83,90 " />
<polygon points="83,88 89,83 100,92 95,96 89,96 " />
<polygon points="88.9,174.5 85.8,177.8 81.3,178.2 77.9,175.1 77.5,170.5 " />
<polygon points="88.9,174.5 87.9,176.8 86.8,179 85.3,181.1 83.7,182.9 81.7,184.5 79.6,185.8 77.4,186.8 75,187.4 72.5,187.8 70,188 70,176 71.3,175.9 72.4,175.7 73.3,175.4 74.1,175.1 74.8,174.7 75.4,174.2 76,173.6 76.5,172.8 77,171.8 77.5,170.5 " />
<polygon points="70,182 70,176 50,176 50,179 " />
<polygon points="77,101.5 73.1,105.6 68.9,109.5 64.4,113.4 59.6,117.2 54.4,121 48.9,124.6 43.1,128.1 36.9,131.6 30.4,134.8 23.4,137.7 22.5,136.2 28.4,131.5 34,127 39.4,122.7 44.4,118.5 49.2,114.3 53.5,110.2 57.6,106.1 61.3,102 64.6,98 67.7,94 " />
<polygon points="67.7,94 77,101.5 68.1,93.4 " />
<polygon points="77,101.5 78.1,104.9 70.9,104.3 " />
<polygon points="80.3,131.2 75.6,137 70.6,142.5 65.3,147.6 59.6,152.5 53.7,157 47.5,161.1 40.9,164.9 34.1,168.4 26.8,171.3 19.3,173.8 18.6,172.1 25.1,167.9 31.4,163.7 37.4,159.4 43.1,155 48.4,150.3 53.4,145.5 58.2,140.6 62.6,135.4 66.7,129.9 70.5,124.3 " />
<polygon points="70.5,124.3 80.3,131.2 70.9,123.6 " />
<polygon points="80.3,131.2 81.6,134.6 74.4,134.4 " />
<polygon points="109,24 169,24 169,28 109,28 " />
<polygon points="175,26 175,66 163,72 163,26 " />
<polygon points="163,24 169,19 180,28 175,32 163,26 " />
<polygon points="120,56 169,56 169,60 120,60 " />
<polygon points="126.1,56.5 121.6,104.4 109.1,109.3 114.7,49.4 " />
<polygon points="117,88 174,88 174,92 117,92 " />
<polygon points="179.9,89.9 180.1,102.1 180,113.5 179.8,124 179.4,133.7 178.8,142.6 178.1,150.6 177.1,157.8 176,164.2 174.7,169.8 173.1,174.7 161.9,170.5 163.1,166.6 164.3,161.8 165.3,156 166.1,149.3 166.9,141.6 167.4,133.1 167.8,123.7 168,113.3 168.1,102.1 168,90 " />
<polygon points="168,88 174,83 185,92 180,96 174,96 " />
<polygon points="173.1,174.7 169.9,178 165.4,178.2 162.1,175 161.9,170.5 " />
<polygon points="173.1,174.7 172.1,177.1 170.9,179.2 169.4,181.2 167.7,183 165.7,184.6 163.6,185.8 161.3,186.8 159,187.4 156.5,187.8 154,188 154,176 155.3,175.9 156.4,175.7 157.4,175.4 158.2,175.1 158.9,174.7 159.6,174.2 160.2,173.5 160.8,172.7 161.4,171.7 161.9,170.5 " />
<polygon points="154,182 154,176 134,176 134,179 " />
<polygon points="159.2,101.3 155.8,105.1 152,108.9 147.8,112.6 143.1,116.4 138,120.2 132.4,124 126.4,127.8 119.9,131.5 112.9,135.2 105.4,138.7 104.5,137.2 110.9,132 116.9,127.1 122.6,122.4 127.8,117.9 132.6,113.6 136.9,109.4 140.8,105.4 144.2,101.5 147.1,97.8 149.5,94.2 " />
<polygon points="149.5,94.2 159.2,101.3 150,93.6 " />
<polygon points="159.2,101.3 160.4,104.7 153.2,104.4 " />
<polygon points="164.4,129.1 160.3,134.3 155.7,139.2 150.6,144 145,148.5 138.8,152.8 132.2,156.9 125,160.8 117.4,164.5 109.1,167.8 100.3,170.8 99.6,169.1 107.5,164.4 114.8,159.7 121.7,155.2 128,150.6 133.8,146 139,141.4 143.7,136.7 147.8,132 151.4,127.3 154.4,122.5 " />
<polygon points="154.4,122.5 164.4,129.1 154.9,121.7 " />
<polygon points="164.4,129.1 165.8,132.4 158.6,132.5 " />
</g>
</svg>
