<svg xmlns="http://www.w3.org/2000/svg" xmlns:xlink="http://www.w3.org/1999/xlink" version="1.1" baseProfile="full" viewBox="0 0 200 200" width="200" height="200">
<g fill="black">
<polygon points="71,32 71,106 59,106 59,26 " />
<polygon points="71,106 68.6,109.6 65,112 61.4,109.6 59,106 " />
<polygon points="71,106 70.2,117.8 68.5,129 65.9,139.3 62.4,148.9 57.9,157.7 52.6,165.6 46.3,172.6 39.2,178.7 31.2,183.8 22.4,187.8 21.5,186.1 29.1,180.6 35.7,174.6 41.4,168.2 46.4,161.3 50.5,153.7 53.7,145.5 56.2,136.7 57.9,127.2 58.8,116.9 59,106 " />
<polygon points="65,32 137,32 137,36 65,36 " />
<polygon points="143,34 143,169 131,169 131,34 " />
<polygon points="131,32 137,27 148,36 143,40 131,34 " />
<polygon points="143,169 140.6,172.6 137,175 133.4,172.6 131,169 " />
<polygon points="143,169 143,170.2 143.2,171.1 143.4,171.7 143.5,172 143.7,172.2 143.9,172.4 144.2,172.5 144.8,172.7 145.7,172.9 147,173 147,185 144.4,184.8 141.9,184.4 139.5,183.6 137.2,182.3 135.2,180.7 133.6,178.7 132.3,176.4 131.5,174 131.1,171.5 131,169 " />
<polygon points="147,173 151.2,174.8 153,179 151.2,183.2 147,185 " />
<polygon points="147,173 181,173 181,185 147,185 " />
<polygon points="181,173 184.6,175.4 187,179 184.6,182.6 181,185 " />
<polygon points="175,174 181,148 183,148 181,174 " />
<polygon points="75,96 128,96 128,100 75,100 " />
<polygon points="128,96 104,98 116,86 " />
</g>
</svg>
