<svg xmlns="http://www.w3.org/2000/svg" xmlns:xlink="http://www.w3.org/1999/xlink" version="1.1" baseProfile="full" viewBox="0 0 200 200" width="200" height="200">
<g fill="black">
<polygon points="54,39 54,117 42,123 42,33 " />
<polygon points="48,39 154,39 154,43 48,43 " />
<polygon points="160,41 160,111 148,117 148,41 " />
<polygon points="148,39 154,34 165,43 160,47 148,41 " />
<polygon points="48,71 154,71 154,75 48,75 " />
<polygon points="48,101 154,101 154,105 48,105 " />
<polygon points="18,143 184,143 184,147 18,147 " />
<polygon points="184,143 160,145 172,133 " />
<polygon points="127,111 127,186 115,192 115,109 " />
<polygon points="127,111 130,113 127,115 " />
<polygon points="111.3,19.2 109.2,21.5 106.9,23.8 104.6,26.1 102.2,28.3 99.7,30.5 97.1,32.6 94.3,34.7 91.5,36.7 88.5,38.5 85.6,40.6 84.3,39.3 86.6,36.6 88.5,33.6 90.3,30.8 92.2,28.1 93.9,25.4 95.6,22.7 97.2,20.1 98.7,17.5 100.1,14.9 101.4,12.4 " />
<polygon points="101.4,12.4 111.3,19.2 101.9,11.7 " />
<polygon points="111.3,19.2 112.6,22.5 105.4,22.4 " />
<polygon points="107,39 107,105 95,105 95,39 " />
<polygon points="84.5,116 82.2,119 79.7,121.9 77.1,124.9 74.4,127.9 71.5,130.9 68.4,133.9 65.3,136.9 61.9,139.8 58.3,142.7 54.6,145.6 53.3,144.3 55.9,140.5 58.3,136.6 60.7,133 63,129.4 65.2,125.9 67.2,122.5 69.2,119.2 71,115.9 72.7,112.7 74.3,109.6 " />
<polygon points="74.3,109.6 84.5,116 74.9,108.8 " />
<polygon points="84.5,116 86,119.3 78.8,119.5 " />
</g>
</svg>
