<svg xmlns="http://www.w3.org/2000/svg" xmlns:xlink="http://www.w3.org/1999/xlink" version="1.1" baseProfile="full" viewBox="0 0 200 200" width="200" height="200">
<g fill="black">
<polygon points="41,41 41,112 29,112 29,35 " />
<polygon points="41,112 38.6,115.6 35,118 31.4,115.6 29,112 " />
<polygon points="41,112 40.4,123 39.4,133.4 37.8,143.1 35.8,152 33.3,160.2 30.2,167.6 26.6,174.2 22.5,180 17.7,184.8 12.5,188.6 11.4,187.3 14.9,182.3 18,177 20.8,171.2 23.1,164.8 25.1,157.7 26.7,150 27.9,141.6 28.7,132.4 29,122.5 29,112 " />
<polygon points="35,41 177,41 177,45 35,45 " />
<polygon points="177,41 153,43 165,31 " />
<polygon points="110,16 110,43 98,43 98,14 " />
<polygon points="110,16 113,18 110,20 " />
<polygon points="46,83 112,83 112,87 46,87 " />
<polygon points="112,83 100,85 106,77 " />
<polygon points="86,51 86,182 74,188 74,49 " />
<polygon points="86,51 89,53 86,55 " />
<polygon points="84.3,103.7 87,105 89.8,106.2 92.6,107.8 95.2,109.6 97.8,111.7 100.2,114.1 102.6,116.6 104.9,119.4 107,122.4 109.1,125.7 98.2,130.8 97.1,127.7 95.9,124.7 94.7,121.9 93.3,119.2 91.9,116.6 90.4,114.1 88.8,111.8 87.2,109.4 85.4,107.1 83.3,105.2 " />
<polygon points="109.1,125.7 109.3,130.2 106.2,133.7 101.7,133.8 98.2,130.8 " />
<polygon points="112,83 179,83 179,87 112,87 " />
<polygon points="179,83 155,85 167,73 " />
<polygon points="147,51 147,182 135,188 135,49 " />
<polygon points="147,51 150,53 147,55 " />
<polygon points="144.1,85 143.8,86.3 141.2,95.3 138.1,104 134.6,112.3 130.6,120.1 126.1,127.6 121.2,134.6 115.8,141.2 109.9,147.2 103.4,152.7 96.5,157.6 95.4,156.3 100.8,150 105.9,143.6 110.6,137.1 114.9,130.3 118.8,123.3 122.3,116 125.3,108.4 128,100.5 130.3,92.2 131.8,85 " />
<polygon points="146.1,85.7 149.3,92.7 152.3,99.4 155.4,105.7 158.6,111.5 161.9,117 165.3,122 168.9,126.6 172.6,130.8 176.4,134.6 180.4,138.1 171.5,147.8 167.3,143.3 163.4,138.3 159.9,133 156.6,127.4 153.7,121.4 151,115.1 148.7,108.4 146.8,101.3 145.3,93.9 144.3,86.1 " />
<polygon points="171.5,147.8 180.4,138.1 182.3,139.8 " />
<polygon points="84.1,85 83.9,85.9 81.6,96.2 78.8,106.1 75.5,115.6 71.5,124.7 67,133.4 61.9,141.6 56.2,149.4 50,156.7 43.1,163.5 35.6,169.6 34.3,168.3 40.3,160.9 45.8,153.3 50.8,145.6 55.4,137.7 59.4,129.5 63,121 66,112.3 68.5,103.2 70.5,93.8 71.8,85 " />
</g>
</svg>
