<svg xmlns="http://www.w3.org/2000/svg" xmlns:xlink="http://www.w3.org/1999/xlink" version="1.1" baseProfile="full" viewBox="0 0 200 200" width="200" height="200">
<g fill="black">
<polygon points="168.9,63 155.1,67 141.1,70.6 126.9,73.7 112.5,76.4 97.9,78.5 83.1,80.1 68.1,81.2 52.9,81.7 37.5,81.6 22,80.9 22,79.1 37.4,77.8 52.6,76.4 67.5,74.6 82.1,72.6 96.6,70.1 110.7,67.2 124.7,63.9 138.4,60.2 151.8,56.1 165.1,51.6 " />
<polygon points="165.1,51.6 168.9,63 174.8,61 " />
<polygon points="174.8,61 175,64.1 166.9,60.5 " />
<polygon points="36.3,88.9 40.2,91.6 43.9,94.3 47.3,97.3 50.5,100.6 53.4,104 56,107.6 58.4,111.3 60.5,115.2 62.4,119.3 64,123.5 52.4,126.6 51.7,122.8 50.7,119.2 49.5,115.5 48.1,111.9 46.5,108.3 44.7,104.7 42.6,101.2 40.3,97.6 37.9,93.9 35.1,90.3 " />
<polygon points="64,123.5 63.3,128.1 59.7,130.9 55.2,130.2 52.4,126.6 " />
<polygon points="88.3,85.1 90.9,87.3 93.7,89.5 96.2,92 98.6,94.7 100.8,97.6 102.9,100.6 104.9,103.8 106.7,107.2 108.4,110.7 109.9,114.4 98.4,117.7 97.7,114.3 96.9,110.9 96.1,107.6 95.1,104.4 94,101.3 92.8,98.2 91.5,95.2 90.2,92.1 88.7,89.1 87,86.3 " />
<polygon points="109.9,114.4 109.3,119 105.8,121.8 101.2,121.3 98.4,117.7 " />
<polygon points="163.4,88.6 161.2,94.4 158.9,100 156.4,105.4 153.8,110.6 150.9,115.6 147.9,120.3 144.7,124.8 141.3,129.1 137.6,133 133.7,136.5 132.2,135.4 134.5,130.7 136.8,126.1 139.1,121.4 141.3,116.7 143.3,111.8 145.3,106.8 147.1,101.6 148.9,96.3 150.5,90.8 151.9,85.2 " />
<polygon points="151.9,85.2 163.4,88.6 152.4,83.6 " />
<polygon points="163.4,88.6 165.7,91.4 158.8,93.5 " />
</g>
</svg>
