<svg xmlns="http://www.w3.org/2000/svg" xmlns:xlink="http://www.w3.org/1999/xlink" version="1.1" baseProfile="full" viewBox="0 0 200 200" width="200" height="200">
<g fill="black">
<polygon points="92.7,23.7 88.6,30.1 84.1,36.2 79.3,41.9 74,47.3 68.5,52.3 62.6,56.9 56.3,61.1 49.7,64.8 42.7,68.1 35.3,70.8 34.6,69.1 40.9,64.7 46.8,60.3 52.5,55.7 57.7,51 62.7,46.1 67.3,40.9 71.5,35.5 75.4,29.9 79,24.1 82.2,18 " />
<polygon points="82.2,18 92.7,23.7 82.7,17 " />
<polygon points="92.7,23.7 94.4,26.9 87.2,27.5 " />
<polygon points="78,35 141,35 141,39 78,39 " />
<polygon points="146,40.2 138.2,50.6 129.3,60.3 119.2,69.2 107.9,77.4 95.6,84.9 82.1,91.6 67.6,97.6 51.9,102.8 35.1,107.3 17.2,110.8 16.7,109.1 34.1,103.6 50.2,97.8 65.1,91.5 78.8,84.8 91.3,77.5 102.6,69.8 112.7,61.5 121.6,52.8 129.3,43.5 135.9,33.7 " />
<polygon points="135,35 141,30 152,39 147,43 141,43 " />
<polygon points="78.3,44.6 82.7,46.4 87,48.1 91,50 94.8,52 98.3,54.1 101.5,56.3 104.6,58.6 107.4,61 109.9,63.5 112.3,66.1 102.3,72.8 101,70.4 99.5,68 97.7,65.5 95.6,62.9 93.2,60.3 90.6,57.6 87.7,54.8 84.5,52 81.2,49.1 77.4,46.2 " />
<polygon points="112.3,66.1 113.1,70.6 110.6,74.4 106.1,75.3 102.3,72.8 " />
<polygon points="61.3,57.8 64.5,59.8 67.8,61.6 70.8,63.5 73.7,65.5 76.3,67.7 78.7,69.9 80.9,72.3 83,74.7 84.8,77.3 86.4,79.9 75.3,84.4 74.7,82.2 74,79.9 73,77.5 71.8,75.1 70.5,72.6 68.9,70.1 67,67.4 65,64.7 62.8,61.9 60.2,59.3 " />
<polygon points="86.4,79.9 86.3,84.5 83.1,87.7 78.5,87.6 75.3,84.4 " />
<polygon points="85.5,96 82.5,100 79.3,103.9 75.8,107.6 72.1,111.1 68.2,114.5 64.2,117.6 59.8,120.5 55.3,123.3 50.5,125.6 45.4,127.7 44.5,126.2 48.4,122.5 52.2,119 55.8,115.4 59.2,111.9 62.4,108.4 65.4,104.8 68.2,101.1 70.8,97.3 73.1,93.5 75.3,89.6 " />
<polygon points="75.3,89.6 85.5,96 75.8,88.8 " />
<polygon points="85.5,96 87,99.2 79.8,99.5 " />
<polygon points="73,103 153,103 153,107 73,107 " />
<polygon points="153,103 129,105 141,93 " />
<polygon points="107,104 107,175 95,175 95,104 " />
<polygon points="34,132 174,132 174,136 34,136 " />
<polygon points="174,132 150,134 162,122 " />
<polygon points="60,145 60,182 48,188 48,143 " />
<polygon points="60,145 63,147 60,149 " />
<polygon points="54,171 152,171 152,175 54,175 " />
<polygon points="158,145 158,179 146,185 146,143 " />
<polygon points="158,145 161,147 158,149 " />
</g>
</svg>
