<svg xmlns="http://www.w3.org/2000/svg" xmlns:xlink="http://www.w3.org/1999/xlink" version="1.1" baseProfile="full" viewBox="0 0 200 200" width="200" height="200">
<g fill="black">
<polygon points="77.5,18.4 74.2,29.1 70.3,39.6 66,49.9 61.2,60 55.9,69.9 50.1,79.6 43.8,89 37,98.2 29.6,107 21.6,115.5 20.3,114.4 26.6,104.7 32.6,95.1 38.3,85.5 43.5,75.8 48.4,66 52.8,56.1 56.7,46.1 60.2,36 63.3,25.8 65.9,15.4 " />
<polygon points="65.9,15.4 77.5,18.4 66.3,13.7 " />
<polygon points="77.5,18.4 79.9,21.1 73.1,23.5 " />
<polygon points="62,53 168,53 168,57 62,57 " />
<polygon points="174,55 173.8,73.5 173.2,90.7 172.3,106.4 171.1,120.7 169.4,133.6 167.4,145.1 165,155.2 162.1,164 158.8,171.5 154.8,177.7 145.3,170.4 148.2,165.9 150.9,159.8 153.4,152 155.6,142.7 157.5,131.8 159.1,119.4 160.4,105.6 161.2,90.2 161.8,73.3 162,55 " />
<polygon points="162,53 168,48 179,57 174,61 168,61 " />
<polygon points="154.8,177.7 150.8,179.9 146.4,178.8 144.2,174.8 145.3,170.4 " />
<polygon points="154.8,177.7 153.2,179.6 151.5,181.3 149.7,182.9 147.7,184.2 145.6,185.4 143.4,186.3 141.2,187 138.8,187.5 136.4,187.9 134,188 134,176 135.4,175.9 136.8,175.7 138,175.4 139.2,175.1 140.3,174.6 141.4,174 142.4,173.3 143.4,172.5 144.4,171.5 145.3,170.4 " />
<polygon points="134,182 134,176 114,176 114,179 " />
<polygon points="47,107 145,107 145,111 47,111 " />
<polygon points="145,107 121,109 133,97 " />
</g>
</svg>
