<svg xmlns="http://www.w3.org/2000/svg" xmlns:xlink="http://www.w3.org/1999/xlink" version="1.1" baseProfile="full" viewBox="0 0 200 200" width="200" height="200">
<g fill="black">
<polygon points="46,34 46,110 34,110 34,28 " />
<polygon points="46,110 43.6,113.6 40,116 36.4,113.6 34,110 " />
<polygon points="46,110 45.4,121.1 44.3,131.5 42.7,141.4 40.6,150.5 38,158.9 34.8,166.7 31.1,173.7 26.8,179.9 22,185.2 16.6,189.6 15.3,188.3 19,182.8 22.3,177 25.3,170.7 27.8,163.9 29.9,156.5 31.6,148.5 32.8,139.8 33.6,130.5 34,120.6 34,110 " />
<polygon points="40,34 172,34 172,38 40,38 " />
<polygon points="172,34 148,36 160,24 " />
<polygon points="74.1,81.7 76,87.1 77.5,92.3 78.5,97.4 79,102.4 79,107.2 78.6,111.9 77.6,116.4 76.1,120.7 74,124.8 71.4,128.7 62.4,120.7 64.7,118.4 66.6,115.8 68.4,112.9 69.8,109.7 71,106 71.8,102 72.4,97.7 72.7,92.9 72.7,87.7 72.3,82.1 " />
<polygon points="71.4,128.7 67.3,130.6 63,129.2 61,125.1 62.4,120.7 " />
<polygon points="159.8,83.6 157,86.4 153.9,89.2 150.7,92.1 147.3,95.1 143.7,98.1 140,101.2 136,104.3 131.8,107.4 127.3,110.5 122.6,113.6 121.3,112.3 124.8,107.9 128.2,103.7 131.6,99.7 134.8,95.9 137.8,92.2 140.8,88.6 143.5,85.2 146.1,82 148.5,78.8 150.8,75.8 " />
<polygon points="150.8,75.8 159.8,83.6 151.1,75.3 " />
<polygon points="159.8,83.6 160.8,87.1 153.6,86.2 " />
<polygon points="117,50.8 116.3,71.9 114.3,91.4 110.8,109.5 105.8,126 99.3,141 91.3,154.4 81.9,166.1 71.1,176.2 58.9,184.4 45.3,190.8 44.6,189.1 56.8,181.2 67.6,172.1 77,161.9 85,150.3 91.6,137.4 97,123.1 101,107.3 103.6,90.1 105,71.3 105,51.1 " />
<polygon points="105,51.1 117,50.8 104.9,48.7 " />
<polygon points="117,50.8 120,52.8 114.1,56.9 " />
<polygon points="115.9,58 117.6,76.7 120.3,93.8 123.9,109.3 128.5,123.1 134.1,135.4 140.8,146.1 148.4,155.2 157.1,162.8 166.7,169 177.4,173.8 172.5,186.1 160.4,179.8 149.6,172 140.3,162.6 132.3,151.8 125.8,139.5 120.6,125.9 116.8,110.9 114.4,94.6 113.5,76.9 114.1,58 " />
<polygon points="172.5,186.1 177.4,173.8 184,176.5 " />
</g>
</svg>
