<svg xmlns="http://www.w3.org/2000/svg" xmlns:xlink="http://www.w3.org/1999/xlink" version="1.1" baseProfile="full" viewBox="0 0 200 200" width="200" height="200">
<g fill="black">
<polygon points="13,30 187,30 187,34 13,34 " />
<polygon points="187,30 163,32 175,20 " />
<polygon points="78,14.3 78,47 66,53 66,12.3 " />
<polygon points="78,14.3 81,16.3 78,18.3 " />
<polygon points="134,14.3 134,47 122,53 122,12.3 " />
<polygon points="134,14.3 137,16.3 134,18.3 " />
<polygon points="43.9,55 43.9,95.5 31.9,101.5 31.9,49 " />
<polygon points="37.9,55 162.1,55 162.1,59 37.9,59 " />
<polygon points="168.1,57 168.1,92.5 156.1,98.5 156.1,57 " />
<polygon points="156.1,55 162.1,50 173.1,59 168.1,63 156.1,57 " />
<polygon points="85.3,55 85.3,88.5 73.3,88.5 73.3,55 " />
<polygon points="126.7,55 126.7,88.5 114.7,88.5 114.7,55 " />
<polygon points="37.9,84.5 162.1,84.5 162.1,88.5 37.9,88.5 " />
<polygon points="41,114 41,135 29,135 29,108 " />
<polygon points="41,135 38.6,138.6 35,141 31.4,138.6 29,135 " />
<polygon points="41,135 40.4,142.9 39.3,150.4 37.7,157.4 35.5,163.9 32.8,169.9 29.6,175.4 25.8,180.2 21.6,184.5 16.7,188 11.4,190.7 10.5,189.2 14.3,185.1 17.6,180.8 20.5,176.3 23,171.6 25.1,166.5 26.7,161 27.9,155.2 28.7,148.9 29,142.1 29,135 " />
<polygon points="35,114 182,114 182,118 35,118 " />
<polygon points="182,114 158,116 170,104 " />
<polygon points="47.2,132.5 52.1,134 56.9,135.7 61.3,137.7 65.6,140 69.6,142.5 73.4,145.2 77,148.1 80.3,151.3 83.5,154.6 86.3,158.2 76.3,164.7 74.4,161.4 72.3,158.2 69.9,155 67.3,151.9 64.4,148.9 61.3,145.9 58,143 54.4,140 50.6,137.1 46.5,134.2 " />
<polygon points="86.3,158.2 87.1,162.7 84.6,166.5 80.1,167.2 76.3,164.7 " />
<polygon points="112,93.4 115.3,113.6 120.9,130.2 128.1,143.3 136.5,153.7 145.4,161.5 154.4,167.2 163,171.1 170.6,173.5 176.5,174.7 180,175 180,187 174.8,186.5 167.6,185.1 158.8,182.3 148.8,177.8 138.3,171.1 127.8,162 118.2,150 109.9,135 103.7,116.5 100.1,94.5 " />
<polygon points="100.1,94.5 112,93.4 99.9,92.3 " />
<polygon points="112,93.4 115.2,95.1 109.6,99.7 " />
<polygon points="180,175 184.2,176.8 186,181 184.2,185.2 180,187 " />
<polygon points="180,176 182,150 180,150 174,176 " />
<polygon points="160,134.5 152.2,143.1 143.9,151.1 135.1,158.3 125.8,164.9 116,170.8 105.7,175.9 95,180.4 83.9,184 72.2,186.9 60.1,188.8 59.8,187.1 71.2,183.2 82.1,179 92.4,174.3 102.3,169.2 111.6,163.5 120.4,157.3 128.7,150.6 136.5,143.3 143.8,135.4 150.6,127 " />
<polygon points="150.6,127 160,134.5 151.1,126.5 " />
<polygon points="160,134.5 161.1,137.9 153.9,137.3 " />
<polygon points="123.3,89.7 126,90.9 128.9,91.9 131.6,93 134.2,94.3 136.7,95.7 139,97.1 141.3,98.7 143.4,100.4 145.4,102.2 147.3,104.1 137.3,110.8 136.5,108.9 135.6,107.1 134.5,105.1 133.2,103.2 131.8,101.2 130.3,99.3 128.5,97.2 126.7,95.2 124.7,93 122.4,91.2 " />
<polygon points="147.3,104.1 148.1,108.6 145.6,112.4 141.1,113.3 137.3,110.8 " />
</g>
</svg>
