<svg xmlns="http://www.w3.org/2000/svg" xmlns:xlink="http://www.w3.org/1999/xlink" version="1.1" baseProfile="full" viewBox="0 0 200 200" width="200" height="200">
<g fill="black">
<polygon points="17,28 85,28 85,32 17,32 " />
<polygon points="91,30 91,172 79,172 79,30 " />
<polygon points="79,28 85,23 96,32 91,36 79,30 " />
<polygon points="91,172 88.6,175.6 85,178 81.4,175.6 79,172 " />
<polygon points="91,172 90.8,174.5 90.4,177 89.6,179.4 88.3,181.7 86.7,183.7 84.7,185.3 82.4,186.6 80,187.4 77.5,187.8 75,188 75,176 76.2,175.9 77.1,175.7 77.7,175.5 78,175.4 78.2,175.2 78.4,175 78.5,174.7 78.7,174.1 78.9,173.2 79,172 " />
<polygon points="75,182 75,176 55,176 55,179 " />
<polygon points="73.2,46 69.7,53.8 65.9,61.5 61.8,68.9 57.3,76.1 52.4,83 47.2,89.7 41.6,96.2 35.7,102.4 29.4,108.2 22.6,113.6 21.3,112.3 26.6,105.6 31.7,98.8 36.5,92.1 41.1,85.3 45.3,78.3 49.3,71.3 52.9,64.1 56.2,56.8 59.3,49.4 62,41.8 " />
<polygon points="61.6,42.7 73.2,46 62.5,40.4 " />
<polygon points="73.2,46 75.3,48.9 69.6,50 " />
<polygon points="80.1,95.2 75.7,103.9 71,112.3 65.8,120.4 60.2,128.3 54.2,136 47.8,143.4 40.9,150.5 33.6,157.2 25.8,163.6 17.5,169.6 16.4,168.3 23.3,160.9 29.8,153.5 36.1,146 42,138.5 47.5,130.9 52.6,123.1 57.3,115.2 61.6,107.1 65.5,98.9 69,90.5 " />
<polygon points="68.6,91.4 80.1,95.2 69.6,89.2 " />
<polygon points="80.1,95.2 82,98.3 76.2,99 " />
<polygon points="101,28 169,28 169,32 101,32 " />
<polygon points="175,30 175,172 163,172 163,30 " />
<polygon points="163,28 169,23 180,32 175,36 163,30 " />
<polygon points="175,172 172.6,175.6 169,178 165.4,175.6 163,172 " />
<polygon points="175,172 174.8,174.5 174.4,177 173.6,179.4 172.3,181.7 170.7,183.7 168.7,185.3 166.4,186.6 164,187.4 161.5,187.8 159,188 159,176 160.2,175.9 161.1,175.7 161.7,175.5 162,175.4 162.2,175.2 162.4,175 162.5,174.7 162.7,174.1 162.9,173.2 163,172 " />
<polygon points="159,182 159,176 139,176 139,179 " />
<polygon points="157.2,46 153.8,53.8 150,61.5 145.9,68.9 141.4,76 136.7,83 131.6,89.7 126.2,96.1 120.4,102.3 114.2,108.1 107.6,113.6 106.3,112.3 111.4,105.6 116.3,98.9 121,92.1 125.4,85.3 129.5,78.4 133.4,71.3 137,64.2 140.3,56.8 143.3,49.4 146,41.8 " />
<polygon points="145.6,42.7 157.2,46 146.5,40.4 " />
<polygon points="157.2,46 159.3,48.9 153.6,50 " />
<polygon points="165,95.3 160.5,104 155.6,112.4 150.3,120.5 144.6,128.4 138.5,136 131.9,143.4 125,150.5 117.7,157.2 109.8,163.6 101.5,169.6 100.4,168.3 107.3,160.9 113.9,153.4 120.2,146 126.1,138.5 131.7,130.8 137,123.1 141.8,115.1 146.3,107 150.4,98.8 154.1,90.4 " />
<polygon points="153.7,91.3 165,95.3 154.6,89.2 " />
<polygon points="165,95.3 166.9,98.4 161.1,99.1 " />
</g>
</svg>
