<svg xmlns="http://www.w3.org/2000/svg" xmlns:xlink="http://www.w3.org/1999/xlink" version="1.1" baseProfile="full" viewBox="0 0 200 200" width="200" height="200">
<g fill="black">
<polygon points="18,63 94,63 94,67 18,67 " />
<polygon points="94,63 70,65 82,53 " />
<polygon points="58.9,19 57.9,92 46,91.9 47,16.9 " />
<polygon points="58.9,19 61.9,21.1 58.9,23 " />
<polygon points="57.9,92 57,107.7 55.2,122.2 52.5,135.5 48.9,147.5 44.3,158.2 38.9,167.6 32.5,175.7 25.2,182.3 17.1,187.3 8.3,190.8 7.6,189.1 15.1,184.1 21.7,178.3 27.4,171.5 32.4,163.6 36.6,154.7 40,144.6 42.7,133.3 44.6,120.7 45.7,106.9 46,91.9 " />
<polygon points="73,91 73,168 61,168 61,89 " />
<polygon points="73,91 76,93 73,95 " />
<polygon points="73,168 70.6,171.6 67,174 63.4,171.6 61,168 " />
<polygon points="73,168 73,169.2 73.2,170.1 73.4,170.7 73.5,171 73.7,171.2 73.9,171.4 74.2,171.5 74.8,171.7 75.7,171.9 77,172 77,184 74.4,183.8 71.9,183.4 69.5,182.6 67.2,181.3 65.2,179.7 63.6,177.7 62.3,175.4 61.5,173 61.1,170.5 61,168 " />
<polygon points="77,172 81.2,173.8 83,178 81.2,182.2 77,184 " />
<polygon points="77,172 179,172 179,184 77,184 " />
<polygon points="179,172 182.6,174.4 185,178 182.6,181.6 179,184 " />
<polygon points="173,173 179,147 181,147 179,173 " />
<polygon points="65.3,24.6 68.7,26 72.2,27.3 75.5,28.9 78.7,30.8 81.8,32.9 84.7,35.2 87.4,37.7 90,40.4 92.5,43.3 94.7,46.4 84.2,52.2 83,49.3 81.5,46.5 80,43.7 78.2,41.1 76.3,38.5 74.3,35.9 72.1,33.4 69.7,30.9 67.2,28.4 64.4,26.2 " />
<polygon points="94.7,46.4 95.2,51 92.4,54.6 87.9,55 84.2,52.2 " />
<polygon points="170.9,37 165.2,42 159.4,46.8 153.2,51.4 146.9,55.8 140.3,60.1 133.5,64.2 126.5,68.1 119.2,71.8 111.6,75.1 103.8,78.1 103,76.5 109.8,71.8 116.5,67.1 123,62.5 129.4,57.9 135.5,53.2 141.3,48.4 147,43.6 152.4,38.6 157.5,33.6 162.5,28.5 " />
<polygon points="162.5,28.5 170.9,37 162.7,28.2 " />
<polygon points="170.9,37 171.6,40.5 164.5,39.1 " />
<polygon points="176.8,75.9 170.7,81.4 164.4,86.6 157.8,91.5 150.9,96.2 143.7,100.7 136.3,105 128.6,108.9 120.6,112.6 112.3,115.8 103.7,118.7 103,117.1 110.7,112.4 118.1,107.8 125.3,103.2 132.3,98.5 139,93.7 145.4,88.7 151.6,83.6 157.4,78.4 163,73 168.3,67.5 " />
<polygon points="168.3,67.5 176.8,75.9 168.6,67.2 " />
<polygon points="176.8,75.9 177.5,79.5 170.5,78.1 " />
<polygon points="183.9,114.8 176.4,121.8 168.6,128.3 160.3,134.5 151.6,140.1 142.5,145.4 133,150.1 123.1,154.4 112.8,158.2 102,161.5 90.8,164.1 90.3,162.3 100.7,157.9 110.8,153.3 120.4,148.5 129.5,143.4 138.2,138.1 146.5,132.4 154.3,126.4 161.7,120.1 168.6,113.5 175.1,106.6 " />
<polygon points="175.1,106.6 183.9,114.8 175.5,106.2 " />
<polygon points="183.9,114.8 184.7,118.3 177.6,117.1 " />
</g>
</svg>
