<svg xmlns="http://www.w3.org/2000/svg" xmlns:xlink="http://www.w3.org/1999/xlink" version="1.1" baseProfile="full" viewBox="0 0 200 200" width="200" height="200">
<g fill="black">
<polygon points="34.3,75.1 38.3,78 42,81.5 45.4,85.3 48.5,89.5 51.5,94 54.2,98.8 56.7,103.8 59,109.1 61.1,114.7 63,120.6 51.4,123.5 50.2,117.9 48.9,112.6 47.4,107.5 45.7,102.6 43.9,97.8 42,93.3 39.9,88.9 37.6,84.7 35.4,80.5 33,76.3 " />
<polygon points="63,120.6 62.3,125.1 58.7,127.9 54.2,127.1 51.4,123.5 " />
<polygon points="80.3,69.2 84.3,73.1 87.9,77.2 91.2,81.5 94.2,85.9 97,90.3 99.5,94.9 101.8,99.5 103.8,104.2 105.6,108.9 107.1,113.7 95.4,116.4 94.6,112 93.6,107.5 92.4,103 91,98.5 89.4,94 87.5,89.4 85.6,84.8 83.4,80.1 81.2,75.3 78.8,70.3 " />
<polygon points="107.1,113.7 106.3,118.2 102.6,120.9 98.1,120.1 95.4,116.4 " />
<polygon points="163.8,74.6 160.8,79.8 157.7,85.1 154.4,90.5 151.1,96.1 147.6,101.9 144,107.8 140.3,113.8 136.3,119.9 132.2,126.1 127.7,132.4 126.2,131.5 128.8,124.3 131.6,117.4 134.4,110.7 137.3,104.2 140.1,98 142.8,91.8 145.5,85.9 148.1,80.1 150.7,74.5 153.2,69.1 " />
<polygon points="153.2,69.1 163.8,74.6 153.7,68 " />
<polygon points="163.8,74.6 165.6,77.8 158.4,78.5 " />
</g>
</svg>
