<svg xmlns="http://www.w3.org/2000/svg" xmlns:xlink="http://www.w3.org/1999/xlink" version="1.1" baseProfile="full" viewBox="0 0 200 200" width="200" height="200">
<g fill="black">
<polygon points="161.4,55 150.5,57.2 139.5,59.3 128.3,61.2 116.9,62.9 105.4,64.4 93.7,65.8 81.8,67 69.7,67.9 57.5,68.6 45,68.8 44.9,67.1 57.1,64.8 69.1,62.6 80.9,60.5 92.6,58.3 104,56.1 115.3,53.7 126.4,51.3 137.3,48.8 148,46.1 158.6,43.4 " />
<polygon points="158.6,43.4 161.4,55 169.1,53.1 " />
<polygon points="169.1,53.1 169.5,56.2 161.1,52 " />
<polygon points="57.4,65.6 55,72.1 52.3,78.3 49.3,84.3 46,90.1 42.5,95.6 38.8,100.8 34.7,105.8 30.3,110.4 25.6,114.7 20.6,118.6 19.3,117.3 22.8,112.2 26.2,107.1 29.4,101.9 32.4,96.7 35.2,91.3 37.8,85.8 40.2,80.1 42.3,74.3 44.2,68.3 45.9,62.2 " />
<polygon points="45.9,62.2 57.4,65.6 46.4,60.6 " />
<polygon points="57.4,65.6 59.7,68.4 52.8,70.5 " />
<polygon points="87.3,71.9 90.7,74.3 94,76.6 97.1,79.1 99.9,81.9 102.5,84.8 104.9,87.8 107,91.1 108.9,94.4 110.6,97.9 112,101.6 100.4,104.5 99.9,101.4 99.2,98.3 98.3,95.2 97.2,92.1 95.9,89 94.4,85.9 92.6,82.8 90.7,79.6 88.6,76.4 86.1,73.3 " />
<polygon points="112,101.6 111.3,106.1 107.7,108.9 103.2,108.1 100.4,104.5 " />
<polygon points="139.3,65.9 144.7,69 149.6,72.3 154.2,75.9 158.4,79.5 162.3,83.2 165.9,86.9 169.2,90.8 172.2,94.7 174.8,98.7 177.2,102.7 166.2,107.7 164.8,104 163,100.3 160.9,96.5 158.6,92.6 155.9,88.7 152.9,84.6 149.6,80.5 146,76.3 142.2,71.9 138.2,67.3 " />
<polygon points="177.2,102.7 177.3,107.3 174.2,110.7 169.6,110.8 166.2,107.7 " />
</g>
</svg>
