<svg xmlns="http://www.w3.org/2000/svg" xmlns:xlink="http://www.w3.org/1999/xlink" version="1.1" baseProfile="full" viewBox="0 0 200 200" width="200" height="200">
<g fill="black">
<polygon points="139.8,21.7 138,24.1 136,26.6 133.9,29.1 131.6,31.6 129.2,34.2 126.7,36.8 123.9,39.5 121,42.1 117.8,44.7 114.6,47.5 113.3,46.4 115.6,42.9 117.5,39.3 119.5,35.9 121.3,32.7 122.9,29.6 124.5,26.7 125.9,23.8 127.1,21.1 128.2,18.5 129.2,16 " />
<polygon points="129.2,16 139.8,21.7 129.7,15 " />
<polygon points="139.8,21.7 141.5,24.9 134.3,25.5 " />
<polygon points="65.2,17.6 68.4,18.9 71.5,20 74.5,21.4 77.2,23 79.8,24.8 82.1,26.9 84.2,29.3 86.1,31.8 87.7,34.6 89,37.6 77.4,40.5 77.2,38.3 76.8,36.2 76.2,34.1 75.3,32 74.2,29.8 72.8,27.7 71.2,25.5 69.3,23.3 67.1,21 64.4,19.2 " />
<polygon points="89,37.6 88.3,42.1 84.7,44.9 80.2,44.1 77.4,40.5 " />
<polygon points="147.9,101.6 145.2,104 142.5,106.4 139.9,108.6 137.2,110.7 134.4,112.7 131.7,114.5 128.9,116.3 126.1,117.8 123.2,119.2 120.5,120.7 119.4,119.2 121.5,117 123.4,114.5 125.3,112.1 127.2,109.6 129.1,107.1 131.1,104.6 133,102 134.9,99.3 136.8,96.6 138.7,93.8 " />
<polygon points="138.7,93.8 147.9,101.6 139.1,93.4 " />
<polygon points="147.9,101.6 148.8,105.1 141.7,104.2 " />
<polygon points="54.2,96.5 57.5,97.6 60.9,98.4 64,99.6 67,100.9 69.8,102.5 72.5,104.3 74.9,106.3 77.2,108.6 79.3,111 81.1,113.7 70.2,118.8 69.6,116.6 68.7,114.5 67.7,112.4 66.4,110.3 64.9,108.2 63.1,106.1 61.1,104.1 58.9,102 56.4,99.9 53.5,98.2 " />
<polygon points="81.1,113.7 81.3,118.3 78.2,121.7 73.7,121.8 70.2,118.8 " />
<polygon points="26,45 179,45 179,49 26,49 " />
<polygon points="179,45 155,47 167,35 " />
<polygon points="40,66 163,66 163,70 40,70 " />
<polygon points="163,66 139,68 151,56 " />
<polygon points="23,88 179,88 179,92 23,92 " />
<polygon points="179,88 155,90 167,78 " />
<polygon points="106,45 106,123 94,123 94,45 " />
<polygon points="16,119 185,119 185,123 16,123 " />
<polygon points="185,119 161,121 173,109 " />
<polygon points="59,139 59,182 47,188 47,133 " />
<polygon points="53,139 151,139 151,143 53,143 " />
<polygon points="157,141 157,179 145,185 145,141 " />
<polygon points="145,139 151,134 162,143 157,147 145,141 " />
<polygon points="53,171 151,171 151,175 53,175 " />
</g>
</svg>
