<svg xmlns="http://www.w3.org/2000/svg" xmlns:xlink="http://www.w3.org/1999/xlink" version="1.1" baseProfile="full" viewBox="0 0 200 200" width="200" height="200">
<g fill="black">
<polygon points="66,28 66,100 54,100 54,22 " />
<polygon points="66,100 63.6,103.6 60,106 56.4,103.6 54,100 " />
<polygon points="66,100 65.2,113.3 63.5,125.6 60.8,137 57.1,147.4 52.4,156.7 46.8,164.9 40.3,172 32.8,177.9 24.4,182.5 15.3,185.8 14.6,184.1 22.6,179.2 29.5,173.7 35.5,167.5 40.7,160.5 45,152.7 48.4,144.1 51,134.5 52.8,124 53.8,112.4 54,100 " />
<polygon points="60,28 136,28 136,32 60,32 " />
<polygon points="142,30 142,162 130,162 130,30 " />
<polygon points="130,28 136,23 147,32 142,36 130,30 " />
<polygon points="142,162 139.6,165.6 136,168 132.4,165.6 130,162 " />
<polygon points="142,162 142,163.2 142.2,164.1 142.4,164.7 142.5,165 142.7,165.2 142.9,165.4 143.2,165.5 143.8,165.7 144.7,165.9 146,166 146,178 143.4,177.8 140.9,177.4 138.5,176.6 136.2,175.3 134.2,173.7 132.6,171.7 131.3,169.4 130.5,167 130.1,164.5 130,162 " />
<polygon points="146,166 150.2,167.8 152,172 150.2,176.2 146,178 " />
<polygon points="146,166 181,166 181,178 146,178 " />
<polygon points="181,166 184.6,168.4 187,172 184.6,175.6 181,178 " />
<polygon points="175,167 181,141 183,141 181,167 " />
<polygon points="75.3,77.7 80.7,79.9 85.9,82.5 90.7,85.5 95.2,88.9 99.5,92.5 103.4,96.4 107.1,100.6 110.4,105.1 113.5,109.8 116.2,114.8 105.2,119.6 103.4,115.1 101.3,110.7 98.9,106.4 96.2,102.3 93.2,98.3 90,94.4 86.5,90.5 82.7,86.8 78.7,83 74.4,79.2 " />
<polygon points="116.2,114.8 116.3,119.3 113.2,122.7 108.6,122.8 105.2,119.6 " />
</g>
</svg>
