<svg xmlns="http://www.w3.org/2000/svg" xmlns:xlink="http://www.w3.org/1999/xlink" version="1.1" baseProfile="full" viewBox="0 0 200 200" width="200" height="200">
<g fill="black">
<polygon points="26,24 85,24 85,28 26,28 " />
<polygon points="91,26 91,68 79,74 79,26 " />
<polygon points="79,24 85,19 96,28 91,32 79,26 " />
<polygon points="37,58 85,58 85,62 37,62 " />
<polygon points="43.1,58.7 38.7,96.6 26.1,101.2 31.9,51.3 " />
<polygon points="33,92 88,92 88,96 33,96 " />
<polygon points="94,94 93.9,105.4 93.6,116.2 93.2,126.1 92.6,135.3 91.9,143.8 90.9,151.4 89.8,158.4 88.6,164.6 87.1,170.1 85.3,175 74.2,170.4 75.6,166.6 76.9,161.9 78,156.3 79.1,149.8 79.9,142.5 80.7,134.4 81.2,125.5 81.6,115.8 81.9,105.3 82,94 " />
<polygon points="82,92 88,87 99,96 94,100 88,100 " />
<polygon points="85.3,175 82,178.2 77.5,178.3 74.3,175 74.2,170.4 " />
<polygon points="85.3,175 84.2,177.3 82.9,179.4 81.4,181.4 79.7,183.1 77.7,184.6 75.6,185.9 73.3,186.8 70.9,187.5 68.5,187.8 66,188 66,176 67.3,175.9 68.5,175.7 69.5,175.4 70.3,175.1 71.1,174.7 71.8,174.1 72.4,173.5 73,172.6 73.7,171.6 74.2,170.4 " />
<polygon points="66,182 66,176 46,176 46,179 " />
<polygon points="37.3,101.7 40.1,103.2 43,104.4 45.8,105.9 48.5,107.5 51,109.3 53.5,111.3 55.7,113.4 57.9,115.6 59.9,118 61.8,120.5 51.2,126.1 50.4,123.8 49.4,121.4 48.2,119.1 47,116.8 45.6,114.5 44,112.2 42.3,109.9 40.5,107.6 38.6,105.3 36.3,103.2 " />
<polygon points="61.8,120.5 62.2,125 59.4,128.6 54.8,129 51.2,126.1 " />
<polygon points="23.7,150 27.9,148.7 32.4,147.3 37,145.8 41.9,144.2 47,142.5 52.4,140.6 58,138.8 63.9,136.8 70.1,135 76.6,133.1 77.3,134.8 71.6,138.4 66.1,141.8 60.6,144.8 55.4,147.6 50.3,150.3 45.5,152.8 40.8,155.1 36.3,157.3 32.1,159.3 28,161.2 " />
<polygon points="28,161.2 23.7,150 21.9,150.7 " />
<polygon points="28,161.2 31,163.3 32.6,156.3 " />
<polygon points="108,24 170,24 170,28 108,28 " />
<polygon points="176,26 176,68 164,74 164,26 " />
<polygon points="164,24 170,19 181,28 176,32 164,26 " />
<polygon points="119,58 170,58 170,62 119,62 " />
<polygon points="125.1,58.5 121.8,96.5 109.3,101.4 113.7,51.5 " />
<polygon points="116,92 173,92 173,96 116,96 " />
<polygon points="179,94 178.9,105.3 178.6,115.9 178.1,125.8 177.5,134.9 176.7,143.3 175.6,151.1 174.4,158.1 173,164.4 171.3,170.1 169.4,175.2 158.4,170.4 159.9,166.4 161.4,161.5 162.6,155.8 163.8,149.3 164.7,142 165.5,133.9 166.1,125.1 166.6,115.4 166.9,105.1 167,94 " />
<polygon points="167,92 173,87 184,96 179,100 173,100 " />
<polygon points="169.4,175.2 166.1,178.3 161.5,178.3 158.4,175 158.4,170.4 " />
<polygon points="169.4,175.2 168.3,177.4 167,179.5 165.5,181.5 163.7,183.2 161.7,184.7 159.6,185.9 157.3,186.8 154.9,187.5 152.5,187.8 150,188 150,176 151.3,175.9 152.5,175.7 153.5,175.4 154.4,175.1 155.2,174.6 155.9,174.1 156.5,173.4 157.2,172.6 157.8,171.6 158.4,170.4 " />
<polygon points="150,182 150,176 130,176 130,179 " />
<polygon points="120.3,102.7 123.3,104.1 126.4,105.3 129.4,106.7 132.3,108.2 135,109.9 137.6,111.7 140.2,113.6 142.6,115.6 144.9,117.8 147.1,120 137.3,127 136.1,124.7 134.7,122.4 133.3,120.1 131.7,117.8 129.9,115.5 128.1,113.3 126.1,111 124,108.7 121.9,106.3 119.3,104.2 " />
<polygon points="147.1,120 148.1,124.5 145.7,128.4 141.2,129.4 137.3,127 " />
<polygon points="103.1,150.9 108.6,149.5 114.2,147.9 119.9,146.2 125.7,144.5 131.7,142.7 137.7,140.8 144,138.8 150.3,136.9 156.9,135 163.6,133.1 164.3,134.8 158.3,138.4 152.4,141.8 146.4,144.9 140.5,147.8 134.7,150.6 129,153.2 123.3,155.7 117.7,158 112.2,160.2 106.7,162.4 " />
<polygon points="106.7,162.4 103.1,150.9 101.2,151.5 " />
<polygon points="106.7,162.4 109.6,164.6 111.5,157.7 " />
</g>
</svg>
