<svg xmlns="http://www.w3.org/2000/svg" xmlns:xlink="http://www.w3.org/1999/xlink" version="1.1" baseProfile="full" viewBox="0 0 200 200" width="200" height="200">
<g fill="black">
<polygon points="64,48 162,48 162,52 64,52 " />
<polygon points="162,48 138,50 150,38 " />
<polygon points="15,124 188,124 188,128 15,128 " />
<polygon points="188,124 164,126 176,114 " />
<polygon points="75.7,17.9 62.7,100.7 49.9,104.8 64.2,14 " />
<polygon points="75.7,17.9 78.4,20.3 75.1,21.8 " />
<polygon points="59,84 142,84 142,88 59,88 " />
<polygon points="147.9,86.1 147.4,99.6 146.6,112.1 145.5,123.6 144.2,134.2 142.6,143.8 140.7,152.6 138.5,160.4 136,167.3 133.1,173.4 129.8,178.6 120.2,171.4 122.6,167.6 124.9,162.7 127.1,156.7 129,149.7 130.8,141.6 132.3,132.4 133.6,122.3 134.6,111.1 135.4,99 136,85.8 " />
<polygon points="136,84 142,79 153,88 148,92 142,92 " />
<polygon points="129.8,178.6 125.8,180.8 121.4,179.8 119.1,175.8 120.2,171.4 " />
<polygon points="129.8,178.6 128.2,180.5 126.5,182.2 124.7,183.8 122.7,185.1 120.6,186.3 118.4,187.3 116.2,188 113.8,188.5 111.4,188.8 109,189 109,177 110.4,176.9 111.8,176.7 113,176.4 114.2,176.1 115.3,175.6 116.3,175 117.3,174.3 118.3,173.5 119.2,172.5 120.2,171.4 " />
<polygon points="109,183 109,177 89,177 89,180 " />
</g>
</svg>
