<svg xmlns="http://www.w3.org/2000/svg" xmlns:xlink="http://www.w3.org/1999/xlink" version="1.1" baseProfile="full" viewBox="0 0 200 200" width="200" height="200">
<g fill="black">
<polygon points="21,38 179,38 179,42 21,42 " />
<polygon points="179,38 155,40 167,28 " />
<polygon points="53,24 52.3,49.4 51,72.7 49.1,93.9 46.4,112.9 43.1,129.8 39.1,144.5 34.3,157 28.8,167.3 22.5,175.3 15.5,180.7 14.4,179.2 19.6,172.9 24.1,164.7 28.2,154.6 31.8,142.4 34.8,128.1 37.2,111.6 39.1,92.9 40.3,72.1 40.9,49.1 41,24 " />
<polygon points="41,25 53,24 41,21.6 " />
<polygon points="53,24 56,26 51,29 " />
<polygon points="78.4,76.5 79.5,83.5 80,90.3 79.9,96.6 79.3,102.5 78.2,108.1 76.5,113.3 74.3,118.1 71.6,122.4 68.3,126.3 64.4,129.7 57.8,119.7 60.7,117.9 63.4,115.6 65.8,112.7 68.1,109.3 70.1,105.4 71.9,100.8 73.4,95.6 74.7,89.9 75.7,83.5 76.6,76.5 " />
<polygon points="64.4,129.7 59.9,130.5 56.1,128 55.3,123.5 57.8,119.7 " />
<polygon points="166.7,85.8 162.9,89.5 159.1,93.1 155.1,96.7 151,100.2 146.8,103.6 142.5,107 138,110.3 133.3,113.4 128.4,116.4 123.3,119.1 122.2,117.7 126.1,113.4 129.9,109.3 133.7,105.3 137.4,101.3 141,97.4 144.6,93.5 148,89.6 151.3,85.7 154.5,81.8 157.6,77.9 " />
<polygon points="157,78.6 166.7,85.8 158,77.4 " />
<polygon points="166.7,85.8 167.6,89.2 161.9,88.2 " />
<polygon points="117.5,50.3 116.5,71.5 114.2,91.1 110.6,108.9 105.6,125 99.2,139.4 91.5,152 82.4,162.7 72,171.5 60.4,178.2 47.6,182.9 47,181.2 58.6,174.9 68.7,167.3 77.6,158.3 85.2,147.8 91.6,135.7 96.8,122 100.8,106.6 103.6,89.6 105.1,70.8 105.5,50.3 " />
<polygon points="105.5,51.3 117.5,50.3 105.5,47.9 " />
<polygon points="117.5,50.3 120.5,52.3 115.5,55.3 " />
<polygon points="115.4,62.2 117.1,79.2 119.6,94.7 122.9,108.9 127.1,121.6 132.3,133 138.3,142.9 145.3,151.5 153.1,158.8 161.9,164.8 171.6,169.7 166.1,181.7 155.1,175.4 145.4,167.7 136.9,158.7 129.7,148.5 123.9,137 119.2,124.3 115.8,110.5 113.7,95.6 112.9,79.4 113.6,62.2 " />
<polygon points="166.1,181.7 171.6,169.7 177.5,172.3 " />
</g>
</svg>
