<svg xmlns="http://www.w3.org/2000/svg" xmlns:xlink="http://www.w3.org/1999/xlink" version="1.1" baseProfile="full" viewBox="0 0 200 200" width="200" height="200">
<g fill="black">
<polygon points="73,27 73,100 61,100 61,21 " />
<polygon points="73,100 70.6,103.6 67,106 63.4,103.6 61,100 " />
<polygon points="73,100 72.2,112.9 70.7,125 68.3,136.3 65.1,146.8 61.1,156.4 56.2,165.1 50.5,172.8 43.9,179.6 36.5,185.2 28.4,189.7 27.5,188.2 34.2,182.3 40.1,175.8 45.2,168.9 49.6,161.3 53.3,153 56.3,144 58.5,134.2 60.1,123.6 60.9,112.2 61,100 " />
<polygon points="67,27 150,27 150,31 67,31 " />
<polygon points="156,29 156,172 144,172 144,29 " />
<polygon points="144,27 150,22 161,31 156,35 144,29 " />
<polygon points="156,172 153.6,175.6 150,178 146.4,175.6 144,172 " />
<polygon points="156,172 155.8,174.5 155.4,177 154.6,179.4 153.3,181.7 151.7,183.7 149.7,185.3 147.4,186.6 145,187.4 142.5,187.8 140,188 140,176 141.2,175.9 142.1,175.7 142.7,175.5 143,175.4 143.2,175.2 143.4,175 143.5,174.7 143.7,174.1 143.9,173.2 144,172 " />
<polygon points="140,182 140,176 120,176 120,179 " />
<polygon points="67,71 138,71 138,75 67,75 " />
<polygon points="138,71 114,73 126,61 " />
<polygon points="67,116 138,116 138,120 67,120 " />
<polygon points="138,116 114,118 126,106 " />
</g>
</svg>
