<svg xmlns="http://www.w3.org/2000/svg" xmlns:xlink="http://www.w3.org/1999/xlink" version="1.1" baseProfile="full" viewBox="0 0 200 200" width="200" height="200">
<g fill="black">
<polygon points="64,37 136,37 136,41 64,41 " />
<polygon points="136,37 112,39 124,27 " />
<polygon points="123.9,39.9 127.1,58.5 130.7,75.8 135,91.8 139.9,106.5 145.5,119.9 151.8,132 158.8,142.8 166.5,152.3 174.8,160.6 183.9,167.6 176,178.3 166.3,169.7 157.5,159.9 149.7,149 142.8,136.8 136.9,123.5 132,109.1 128,93.6 124.9,76.9 123,59 122.1,40 " />
<polygon points="176,178.3 183.9,167.6 187,169.9 " />
<polygon points="79.6,70.2 75.4,86.8 70.7,102.3 65.4,116.7 59.6,129.9 53.1,142 46.1,152.9 38.6,162.5 30.4,171 21.7,178 12.4,183.7 11.5,182.2 19.3,175.1 26.6,167.2 33.4,158.5 39.8,148.7 45.7,137.9 51.1,126.1 56,113.1 60.5,99.1 64.4,84 67.9,67.7 " />
<polygon points="67.9,67.7 79.6,70.2 68.3,65.9 " />
<polygon points="79.6,70.2 82.1,72.7 75.5,75.4 " />
</g>
</svg>
