<svg xmlns="http://www.w3.org/2000/svg" xmlns:xlink="http://www.w3.org/1999/xlink" version="1.1" baseProfile="full" viewBox="0 0 200 200" width="200" height="200">
<g fill="black">
<polygon points="67.2,20.8 64.5,31.1 61.3,41.1 57.7,50.9 53.5,60.4 48.9,69.7 43.8,78.7 38.2,87.4 32.1,95.7 25.4,103.7 18.1,111.3 16.8,110.2 22.4,101.4 27.6,92.7 32.6,83.9 37.1,75 41.3,66 45,56.8 48.2,47.5 51.1,38 53.5,28.3 55.4,18.4 " />
<polygon points="55.4,18.4 67.2,20.8 55.8,16.5 " />
<polygon points="67.2,20.8 69.7,23.4 63,26.1 " />
<polygon points="51.9,47 172.3,47 172.3,51 51.9,51 " />
<polygon points="178.3,49 178.1,68.5 177.6,86.4 176.8,102.8 175.7,117.7 174.3,131 172.5,142.8 170.4,153.1 167.9,162 164.9,169.5 161.4,175.6 151.6,168.7 154.1,164.4 156.5,158.2 158.7,150.3 160.7,140.7 162.4,129.5 163.8,116.6 164.8,102.1 165.6,86 166.1,68.3 166.3,49 " />
<polygon points="166.3,47 172.3,42 183.3,51 178.3,55 172.3,55 " />
<polygon points="161.4,175.6 157.5,178 153.1,177 150.7,173.1 151.6,168.7 " />
<polygon points="161.4,175.6 159.9,177.6 158.3,179.4 156.5,181 154.5,182.4 152.5,183.6 150.3,184.6 148,185.4 145.6,185.9 143.2,186.2 140.8,186.3 140.8,174.3 142.2,174.3 143.5,174.1 144.7,173.8 145.9,173.4 146.9,172.9 147.9,172.4 148.9,171.7 149.8,170.8 150.7,169.8 151.6,168.7 " />
<polygon points="140.8,180.3 140.8,174.3 120.8,174.3 120.8,177.3 " />
<polygon points="64.1,78.3 71.9,79 79.1,80.1 85.9,81.6 92.1,83.4 97.7,85.6 102.9,88 107.6,90.8 111.8,93.9 115.5,97.4 118.6,101.3 108.3,107.5 106.6,104.6 104.4,101.7 101.5,98.8 98,95.9 93.9,93.1 89.1,90.4 83.7,87.8 77.6,85.2 71,82.6 63.8,80 " />
<polygon points="118.6,101.3 119.2,105.8 116.5,109.5 112,110.1 108.3,107.5 " />
<polygon points="45.8,151 54.6,148.1 63.4,145 72.5,141.8 81.7,138.5 91,135 100.5,131.3 110.2,127.6 120.1,123.8 130.2,119.9 140.6,116.1 141.3,117.8 131.8,123.4 122.3,128.7 112.9,133.6 103.6,138.3 94.3,142.8 85.2,147 76.2,151.1 67.3,155 58.6,158.7 49.9,162.2 " />
<polygon points="49.9,162.2 45.8,151 44,151.7 " />
<polygon points="49.9,162.2 52.8,164.4 54.6,157.4 " />
</g>
</svg>
