<svg xmlns="http://www.w3.org/2000/svg" xmlns:xlink="http://www.w3.org/1999/xlink" version="1.1" baseProfile="full" viewBox="0 0 200 200" width="200" height="200">
<g fill="black">
<polygon points="37,22 37,71.4 25,77.4 25,16 " />
<polygon points="31,22 169,22 169,26 31,26 " />
<polygon points="175,24 175,65.4 163,71.4 163,24 " />
<polygon points="163,22 169,17 180,26 175,30 163,24 " />
<polygon points="83,22 83,59.4 71,59.4 71,22 " />
<polygon points="129,22 129,59.4 117,59.4 117,22 " />
<polygon points="31,55.4 169,55.4 169,59.4 31,59.4 " />
<polygon points="56.9,77.1 55.9,93 54.1,108 51.6,121.9 48.4,134.7 44.5,146.6 39.8,157.3 34.3,167 28.2,175.5 21.2,182.7 13.5,188.6 12.4,187.3 18.4,180.1 23.8,172.3 28.6,163.7 32.8,154.2 36.4,143.8 39.4,132.4 41.7,120 43.4,106.6 44.5,92.2 44.9,76.8 " />
<polygon points="44.9,76.8 56.9,77.1 45,74.5 " />
<polygon points="56.9,77.1 59.9,79.2 53.8,83 " />
<polygon points="53.9,95.9 56.3,107.5 58.8,118.4 61.4,128.5 64.4,137.8 67.6,146.4 71.2,154.1 75.1,161.1 79.3,167.2 83.8,172.6 88.5,177.2 79.4,186.7 74.2,180.6 69.5,173.8 65.4,166.4 61.9,158.3 58.8,149.5 56.3,140.1 54.4,130.1 52.9,119.4 52.2,108 52.1,96 " />
<polygon points="79.4,186.7 88.5,177.2 90.1,178.7 " />
<polygon points="132.3,84.6 126.1,88 119.8,91.3 113.4,94.5 106.8,97.5 100.1,100.4 93.2,103.1 86.2,105.7 79.1,108 71.8,110.1 64.3,111.8 63.6,110.1 70.4,106.5 77.1,103 83.6,99.6 90.1,96.2 96.4,92.8 102.6,89.2 108.6,85.7 114.5,82 120.3,78.2 125.9,74.4 " />
<polygon points="125.9,74.4 132.3,84.6 133.4,83.9 " />
<polygon points="133.4,83.9 133.5,87.3 126.5,84.7 " />
<polygon points="108,100 108,182 96,188 96,98 " />
<polygon points="108,100 111,102 108,104 " />
<polygon points="156,77 155.3,92.7 153.8,107.6 151.6,121.4 148.5,134.2 144.7,146 140.1,156.8 134.7,166.6 128.4,175.2 121.4,182.6 113.5,188.6 112.4,187.3 118.6,180 124.1,172 129,163.3 133.2,153.8 136.7,143.4 139.5,132 141.7,119.7 143.1,106.4 143.9,92.2 144,77 " />
<polygon points="144,77 156,77 144,74.6 " />
<polygon points="156,77 159,79 153,83 " />
<polygon points="151.9,94.9 154.3,106.9 156.8,118.1 159.5,128.4 162.5,137.9 165.9,146.6 169.5,154.4 173.5,161.3 177.8,167.4 182.5,172.6 187.3,177 178.6,186.9 173.1,180.9 168.2,174.2 163.9,166.8 160.2,158.6 157.1,149.8 154.5,140.3 152.4,130 151,119.1 150.2,107.4 150.1,95 " />
<polygon points="178.6,186.9 187.3,177 189.4,178.8 " />
</g>
</svg>
