<svg xmlns="http://www.w3.org/2000/svg" xmlns:xlink="http://www.w3.org/1999/xlink" version="1.1" baseProfile="full" viewBox="0 0 200 200" width="200" height="200">
<g fill="black">
<polygon points="16,37 101,37 101,41 16,41 " />
<polygon points="101,37 77,39 89,27 " />
<polygon points="63,19 63,66 51,66 51,17 " />
<polygon points="63,19 66,21 63,23 " />
<polygon points="25,62 94,62 94,66 25,66 " />
<polygon points="94,62 70,64 82,52 " />
<polygon points="23.1,70.7 24.6,74.7 26.1,78.7 27.2,82.5 27.9,86.4 28.3,90.1 28.3,93.8 28,97.4 27.2,101 26.1,104.5 24.6,107.8 14.6,101.1 16.2,99.3 17.5,97.2 18.7,94.9 19.7,92.4 20.6,89.5 21.2,86.4 21.6,83 21.8,79.3 21.8,75.3 21.3,71.2 " />
<polygon points="24.6,107.8 20.8,110.3 16.3,109.4 13.8,105.6 14.6,101.1 " />
<polygon points="24,79 96,79 96,83 24,83 " />
<polygon points="101.7,82.7 100.4,85.3 99.1,88 97.6,90.6 96.1,93.3 94.4,95.9 92.7,98.6 90.9,101.3 88.9,104 86.7,106.6 84.7,109.4 83.2,108.5 84.3,105.4 85.1,102.1 85.9,99 86.7,95.9 87.5,93 88.1,90.1 88.8,87.2 89.3,84.5 89.8,81.8 90.2,79.2 " />
<polygon points="90,79 96,74 107,83 102,87 96,87 " />
<polygon points="80,100.9 75.1,102.4 69.9,103.9 64.6,105.4 59.2,107 53.6,108.5 47.9,110.1 42,111.7 36,113.2 29.7,114.6 23.3,115.8 22.6,114.1 28.4,111 34.2,108.1 39.8,105.5 45.4,102.9 50.8,100.5 56.1,98.2 61.3,96 66.3,93.8 71.2,91.7 76,89.6 " />
<polygon points="76,89.6 80,100.9 85.5,99 " />
<polygon points="85.5,99 85.7,102.1 77.7,98.6 " />
<polygon points="19,124 100,124 100,128 19,128 " />
<polygon points="100,124 76,126 88,114 " />
<polygon points="57.7,129.7 55.3,135.9 52.4,142.1 49,148.1 45.2,153.9 40.9,159.6 36.2,165.2 31,170.6 25.4,175.9 19.2,180.9 12.5,185.6 11.4,184.3 16.6,178.1 21.5,172.2 26.1,166.3 30.2,160.5 34,154.8 37.3,149 40.1,143.3 42.6,137.6 44.6,131.9 46.2,126.2 " />
<polygon points="62,107 62,183 50,189 50,105 " />
<polygon points="62,107 65,109 62,111 " />
<polygon points="59.2,139.4 62.6,140.2 66,140.8 69.4,141.7 72.6,142.7 75.9,144 79,145.4 82.1,146.9 85.1,148.6 88,150.5 90.8,152.5 82.7,161.3 80.7,159 78.7,156.8 76.5,154.7 74.3,152.6 71.9,150.6 69.5,148.6 66.9,146.7 64.3,144.7 61.6,142.7 58.6,141.1 " />
<polygon points="90.8,152.5 92.7,156.7 91.1,161 87,162.8 82.7,161.3 " />
<polygon points="129.4,26.8 129.4,52.7 117.4,52.7 117.4,20.8 " />
<polygon points="129.4,52.7 127,56.3 123.4,58.7 119.8,56.3 117.4,52.7 " />
<polygon points="129.4,52.7 128.8,58.7 127.7,64.5 126,70.1 123.8,75.4 121,80.5 117.7,85.3 113.9,89.8 109.6,94 104.8,97.8 99.3,101.2 98.2,99.7 102.2,95 105.7,90.4 108.8,85.8 111.4,81.2 113.5,76.6 115.2,72 116.4,67.3 117.2,62.5 117.5,57.7 117.4,52.7 " />
<polygon points="123.4,26.8 160,26.8 160,30.8 123.4,30.8 " />
<polygon points="166,28.8 166,73.5 154,73.5 154,28.8 " />
<polygon points="154,26.8 160,21.8 171,30.8 166,34.8 154,28.8 " />
<polygon points="166,73.5 163.6,77.1 160,79.5 156.4,77.1 154,73.5 " />
<polygon points="166,73.5 166.1,74.8 166.2,75.7 166.4,76.3 166.6,76.6 166.7,76.8 166.9,76.9 167.3,77.1 167.9,77.3 168.8,77.5 170,77.5 170,89.5 167.4,89.4 164.9,89 162.5,88.1 160.3,86.9 158.3,85.3 156.6,83.3 155.4,81 154.6,78.6 154.1,76.1 154,73.5 " />
<polygon points="170,77.5 174.2,79.3 176,83.5 174.2,87.7 170,89.5 " />
<polygon points="170,77.5 185.4,77.5 185.4,89.5 170,89.5 " />
<polygon points="185.4,77.5 189,79.9 191.4,83.5 189,87.1 185.4,89.5 " />
<polygon points="179.4,78.5 185.4,52.5 187.4,52.5 185.4,78.5 " />
<polygon points="109.1,103.4 168.7,103.4 168.7,107.4 109.1,107.4 " />
<polygon points="174.5,107 170,120.2 164.6,132.3 158.4,143.4 151.2,153.4 143.2,162.3 134.4,170.1 124.7,176.6 114.2,182 103,186.1 91.1,188.9 90.6,187.1 101.7,182.5 111.8,177.2 121.1,171.1 129.5,164.2 137,156.5 143.8,147.8 149.7,138.3 154.9,127.8 159.3,116.3 163,103.8 " />
<polygon points="162.7,103.4 168.7,98.4 179.7,107.4 174.7,111.4 168.7,111.4 " />
<polygon points="120.5,106.2 124.2,117.1 128.4,127 133.1,135.9 138.4,143.7 144.3,150.6 150.8,156.6 158,161.6 165.9,165.8 174.5,169.1 183.9,171.7 180.7,184.5 170.2,180.9 160.5,176.3 151.8,170.8 144,164.2 137.2,156.8 131.4,148.4 126.7,139.2 122.9,129.1 120.2,118.3 118.7,106.6 " />
<polygon points="180.7,184.5 183.9,171.7 192.4,173.8 " />
</g>
</svg>
