<svg xmlns="http://www.w3.org/2000/svg" xmlns:xlink="http://www.w3.org/1999/xlink" version="1.1" baseProfile="full" viewBox="0 0 200 200" width="200" height="200">
<g fill="black">
<polygon points="49,26 49,116 37,116 37,20 " />
<polygon points="49,116 46.6,119.6 43,122 39.4,119.6 37,116 " />
<polygon points="49,116 48.4,125.6 47.4,134.8 45.9,143.5 44,151.7 41.5,159.4 38.6,166.6 35.1,173.3 31.2,179.4 26.7,184.8 21.6,189.5 20.3,188.4 23.6,182.6 26.6,176.7 29.2,170.5 31.5,163.9 33.4,157 34.9,149.6 36,141.9 36.7,133.7 37,125 37,116 " />
<polygon points="43,26 168,26 168,30 43,30 " />
<polygon points="174,28 174,172 162,172 162,28 " />
<polygon points="162,26 168,21 179,30 174,34 162,28 " />
<polygon points="174,172 171.6,175.6 168,178 164.4,175.6 162,172 " />
<polygon points="174,172 173.8,174.5 173.4,177 172.6,179.4 171.3,181.7 169.7,183.7 167.7,185.3 165.4,186.6 163,187.4 160.5,187.8 158,188 158,176 159.2,175.9 160.1,175.7 160.7,175.5 161,175.4 161.2,175.2 161.4,175 161.5,174.7 161.7,174.1 161.9,173.2 162,172 " />
<polygon points="158,182 158,176 138,176 138,179 " />
<polygon points="63,64 147,64 147,68 63,68 " />
<polygon points="147,64 123,66 135,54 " />
<polygon points="58,89 154,89 154,93 58,93 " />
<polygon points="154,89 130,91 142,79 " />
<polygon points="110,41 110,105 98,111 98,39 " />
<polygon points="110,41 113,43 110,45 " />
<polygon points="83,116 83,164 71,170 71,110 " />
<polygon points="77,116 132,116 132,120 77,120 " />
<polygon points="138,118 138,158 126,164 126,118 " />
<polygon points="126,116 132,111 143,120 138,124 126,118 " />
<polygon points="77,148 132,148 132,152 77,152 " />
</g>
</svg>
