<svg xmlns="http://www.w3.org/2000/svg" xmlns:xlink="http://www.w3.org/1999/xlink" version="1.1" baseProfile="full" viewBox="0 0 200 200" width="200" height="200">
<g fill="black">
<polygon points="16.4,59 77.8,59 77.8,63 16.4,63 " />
<polygon points="83.7,61.7 80.6,79.8 76.6,96.8 71.7,112.6 65.8,127.2 59,140.7 51.2,152.9 42.6,163.9 33,173.6 22.5,181.9 11.1,188.7 10.1,187.2 20.1,178.9 29.2,169.8 37.5,159.7 44.9,148.7 51.5,136.7 57.2,123.6 62.1,109.4 66.2,94.2 69.4,77.7 71.8,60.2 " />
<polygon points="71.8,59 77.8,54 88.8,63 83.8,66 71.8,71 " />
<polygon points="57.5,18.2 33.4,133.2 20.4,136.7 46.2,13.7 " />
<polygon points="57.5,18.2 60.1,20.7 54.8,22.3 " />
<polygon points="30,117.4 37.3,118.7 44.3,120.6 50.9,123 57.1,125.7 62.9,128.9 68.5,132.4 73.6,136.3 78.4,140.5 82.8,145.1 86.8,150.1 76.9,156.8 73.9,152.2 70.6,147.9 66.8,143.7 62.7,139.7 58.2,135.9 53.3,132.3 47.9,128.8 42.2,125.5 36.1,122.3 29.5,119.1 " />
<polygon points="86.8,150.1 87.7,154.6 85.2,158.4 80.7,159.3 76.9,156.8 " />
<polygon points="105,31 105,180 94,185.5 94,25.5 " />
<polygon points="99.5,31 183.3,31 183.3,35 99.5,35 " />
<polygon points="183.3,31 159.3,33 171.3,21 " />
<polygon points="99.5,169 187.8,169 187.8,173 99.5,173 " />
<polygon points="187.8,169 163.8,171 175.8,159 " />
<polygon points="127.5,71 127.5,136 116.5,141.5 116.5,65.5 " />
<polygon points="122,71 171.7,71 171.7,75 122,75 " />
<polygon points="177.7,73 177.7,130 165.7,136 165.7,73 " />
<polygon points="165.7,71 171.7,66 182.7,75 177.7,79 165.7,73 " />
<polygon points="122,120 171.7,120 171.7,124 122,124 " />
<polygon points="150.6,31 150.6,75 138.6,75 138.6,31 " />
<polygon points="150.6,120 150.6,173 138.6,173 138.6,120 " />
</g>
</svg>
