<svg xmlns="http://www.w3.org/2000/svg" xmlns:xlink="http://www.w3.org/1999/xlink" version="1.1" baseProfile="full" viewBox="0 0 200 200" width="200" height="200">
<g fill="black">
<polygon points="61.3,14.8 64.5,16.6 67.7,18.2 70.6,20 73.3,21.9 75.7,24 77.9,26.3 79.9,28.7 81.6,31.2 83.1,34 84.2,36.8 72.5,39.2 72.4,37.3 72.1,35.3 71.6,33.2 70.8,31 69.8,28.7 68.5,26.3 66.9,23.8 65,21.3 62.9,18.6 60.3,16.3 " />
<polygon points="84.2,36.8 83.3,41.3 79.5,43.9 75.1,43 72.5,39.2 " />
<polygon points="144.3,19.2 141.8,22.1 139.3,24.9 136.6,27.7 133.9,30.4 131,33 128.1,35.5 125.1,38 122,40.3 118.8,42.4 115.6,44.6 114.3,43.3 116.7,40.2 118.8,37.1 120.9,34 123,30.9 125.1,27.8 127.1,24.8 129,21.7 130.9,18.6 132.7,15.5 134.4,12.4 " />
<polygon points="134.4,12.4 144.3,19.2 134.9,11.7 " />
<polygon points="144.3,19.2 145.7,22.5 138.5,22.4 " />
<polygon points="28,42 169,42 169,46 28,46 " />
<polygon points="169,42 145,44 157,32 " />
<polygon points="106,42 106,90 94,90 94,42 " />
<polygon points="47,63 159,63 159,67 47,67 " />
<polygon points="159,63 135,65 147,53 " />
<polygon points="22,86 178,86 178,90 22,90 " />
<polygon points="178,86 154,88 166,76 " />
<polygon points="74,108 74,181 62,187 62,102 " />
<polygon points="68,108 147,108 147,112 68,112 " />
<polygon points="153,110 153,178 141,184 141,110 " />
<polygon points="141,108 147,103 158,112 153,116 141,110 " />
<polygon points="68,128 147,128 147,132 68,132 " />
<polygon points="68,170 147,170 147,174 68,174 " />
<polygon points="68,149 147,149 147,153 68,153 " />
<polygon points="86.9,88 85.2,90.8 80.7,97.9 75.6,104.6 70,111.1 63.9,117.1 57.3,122.9 50.1,128.3 42.5,133.3 34.3,137.9 25.6,142.1 16.3,145.8 15.6,144.1 23.8,138.8 31.5,133.3 38.7,127.9 45.4,122.3 51.6,116.5 57.3,110.6 62.4,104.5 67,98.2 71.1,91.7 73.1,88 " />
</g>
</svg>
