<svg xmlns="http://www.w3.org/2000/svg" xmlns:xlink="http://www.w3.org/1999/xlink" version="1.1" baseProfile="full" viewBox="0 0 200 200" width="200" height="200">
<g fill="black">
<polygon points="23,21.5 25.7,22.7 28.5,23.6 31.2,24.7 33.8,26.1 36.2,27.6 38.5,29.3 40.7,31.1 42.7,33.1 44.5,35.3 46.2,37.7 35.2,42.7 34.7,40.7 34.1,38.8 33.2,36.8 32.2,34.8 31,32.9 29.7,30.9 28.1,28.9 26.4,26.9 24.5,24.8 22.1,23.1 " />
<polygon points="46.2,37.7 46.3,42.3 43.2,45.7 38.6,45.8 35.2,42.7 " />
<polygon points="17.4,93.3 21.4,96.6 25,100.1 28.2,104 30.9,108.1 33.1,112.5 35,117 36.3,121.8 37.3,126.7 37.7,131.8 37.7,137 25.8,135.7 26.4,131.5 26.6,127.4 26.6,123.3 26.1,119.3 25.4,115.2 24.2,111.2 22.7,107.1 20.9,103 18.7,98.8 16.1,94.5 " />
<polygon points="37.7,137 35.5,141 31.1,142.3 27.1,140.1 25.8,135.7 " />
<polygon points="21.5,105.3 24.1,101.6 26.9,97.3 29.8,92.4 33,86.8 36.3,80.7 39.9,73.9 43.6,66.5 47.6,58.5 51.9,50 56.5,41 58.2,41.6 55.4,51.4 52.6,60.6 49.7,69.1 46.8,76.9 44.1,84.2 41.4,90.9 38.8,96.9 36.3,102.4 33.9,107.4 31.6,111.8 " />
<polygon points="71,24.9 71,131.8 59,137.8 59,18.9 " />
<polygon points="65,24.9 120.1,24.9 120.1,28.9 65,28.9 " />
<polygon points="120.1,24.9 96.1,26.9 108.1,14.9 " />
<polygon points="96.1,24.9 96.1,60.7 84.1,60.7 84.1,24.9 " />
<polygon points="65,56.7 111.5,56.7 111.5,60.7 65,60.7 " />
<polygon points="117.5,58.7 117.5,103 105.5,109 105.5,58.7 " />
<polygon points="105.5,56.7 111.5,51.7 122.5,60.7 117.5,64.7 105.5,58.7 " />
<polygon points="65,93 111.5,93 111.5,97 65,97 " />
<polygon points="96.1,93 96.1,131.8 84.1,131.8 84.1,93 " />
<polygon points="65,127.8 122,127.8 122,131.8 65,131.8 " />
<polygon points="122,127.8 98,129.8 110,117.8 " />
<polygon points="130,26 172,26 172,30 130,30 " />
<polygon points="178,28 178,80 166,86 166,28 " />
<polygon points="166,26 172,21 183,30 178,34 166,28 " />
<polygon points="136,70 172,70 172,74 136,74 " />
<polygon points="142,70 142,120 130,120 130,64 " />
<polygon points="142,120 139.6,123.6 136,126 132.4,123.6 130,120 " />
<polygon points="142,120 142,121.2 142.2,122.1 142.4,122.7 142.5,123 142.7,123.2 142.9,123.4 143.2,123.5 143.8,123.7 144.7,123.9 146,124 146,136 143.4,135.8 140.9,135.4 138.5,134.6 136.2,133.3 134.2,131.7 132.6,129.7 131.3,127.4 130.5,125 130.1,122.5 130,120 " />
<polygon points="146,124 150.2,125.8 152,130 150.2,134.2 146,136 " />
<polygon points="146,124 179,124 179,136 146,136 " />
<polygon points="179,124 182.6,126.4 185,130 182.6,133.6 179,136 " />
<polygon points="173,125 179,99 181,99 179,125 " />
<polygon points="43.8,146.3 44.1,151.6 44.2,156.6 43.7,161.4 42.8,166 41.4,170.3 39.6,174.3 37.2,178 34.4,181.4 31,184.3 27.3,186.9 22,176.1 24.8,174.9 27.5,173.4 29.9,171.5 32.2,169.3 34.3,166.6 36.2,163.5 38,159.9 39.6,155.8 41,151.3 42,146.2 " />
<polygon points="27.3,186.9 22.7,187.1 19.3,184.2 19,179.6 22,176.1 " />
<polygon points="70.3,147.2 73.2,149.8 76.1,152.4 78.7,155.2 80.9,158.1 82.8,161.2 84.4,164.5 85.6,167.8 86.5,171.4 87.1,175 87.2,178.7 75.3,177.4 75.8,174.9 76.2,172.2 76.2,169.6 76,166.8 75.6,164 74.9,161 73.9,158 72.6,154.8 71.1,151.5 69,148.4 " />
<polygon points="87.2,178.7 85,182.7 80.6,184 76.6,181.8 75.3,177.4 " />
<polygon points="108.3,147 112.2,149.5 115.9,152 119.3,154.6 122.4,157.4 125.1,160.4 127.5,163.5 129.6,166.8 131.3,170.2 132.6,173.7 133.6,177.4 121.7,178.7 121.6,176.1 121.3,173.4 120.7,170.6 119.8,167.7 118.5,164.7 116.9,161.6 115,158.4 112.8,155.1 110.2,151.7 107.2,148.4 " />
<polygon points="133.6,177.4 132.3,181.8 128.3,184 123.9,182.7 121.7,178.7 " />
<polygon points="148.3,146 153.3,148.7 157.9,151.4 162.2,154.4 166,157.4 169.6,160.6 172.7,163.9 175.5,167.3 178,170.8 180.1,174.4 181.8,178.2 170.3,181.7 169.6,178.8 168.6,175.7 167.2,172.5 165.4,169.3 163.3,165.9 160.8,162.4 157.9,158.9 154.7,155.2 151.2,151.4 147.2,147.5 " />
<polygon points="181.8,178.2 181.3,182.8 177.8,185.7 173.3,185.2 170.3,181.7 " />
</g>
</svg>
