<svg xmlns="http://www.w3.org/2000/svg" xmlns:xlink="http://www.w3.org/1999/xlink" version="1.1" baseProfile="full" viewBox="0 0 200 200" width="200" height="200">
<g fill="black">
<polygon points="29,31 171,31 171,35 29,35 " />
<polygon points="171,31 147,33 159,21 " />
<polygon points="127.3,50.9 133,54.2 138.3,57.8 143.2,61.5 147.7,65.4 151.9,69.4 155.6,73.5 159.1,77.7 162.2,82 164.9,86.4 167.3,90.9 156.3,95.5 154.8,91.5 152.9,87.4 150.8,83.3 148.2,79.1 145.4,74.9 142.2,70.6 138.6,66.2 134.7,61.7 130.6,57.1 126.2,52.3 " />
<polygon points="167.3,90.9 167.3,95.4 164.1,98.7 159.5,98.7 156.3,95.5 " />
<polygon points="76,54.3 73.1,59.7 69.8,64.9 66.2,70 62.2,74.9 57.8,79.7 53.1,84.3 48.1,88.7 42.6,93 36.8,97 30.5,100.7 29.4,99.2 34.4,94 39.1,89 43.5,84 47.6,79.1 51.4,74.2 54.8,69.3 57.9,64.3 60.6,59.4 63,54.4 65.1,49.4 " />
<polygon points="64.7,50.3 76,54.3 65.6,48.2 " />
<polygon points="76,54.3 78,57.3 72.2,58.1 " />
<polygon points="18,114 182,114 182,118 18,118 " />
<polygon points="182,114 158,116 170,104 " />
<polygon points="106,31 106,185 94,191 94,31 " />
</g>
</svg>
