<svg xmlns="http://www.w3.org/2000/svg" xmlns:xlink="http://www.w3.org/1999/xlink" version="1.1" baseProfile="full" viewBox="0 0 200 200" width="200" height="200">
<g fill="black">
<polygon points="31,35 169,35 169,39 31,39 " />
<polygon points="175,37 174.8,58.4 174.2,78.2 173.2,96.2 171.9,112.6 170.2,127.3 168,140.3 165.5,151.7 162.5,161.6 158.9,169.8 154.8,176.6 145.2,169.4 148.2,164.4 151.2,157.5 153.9,148.7 156.2,138.1 158.3,125.6 159.9,111.4 161.3,95.4 162.2,77.7 162.8,58.2 163,37 " />
<polygon points="163,35 169,30 180,39 175,43 169,43 " />
<polygon points="154.8,176.6 150.8,178.9 146.4,177.8 144.1,173.8 145.2,169.4 " />
<polygon points="154.8,176.6 153.2,178.5 151.5,180.2 149.7,181.8 147.7,183.2 145.6,184.3 143.4,185.3 141.2,186 138.8,186.5 136.4,186.8 134,187 134,175 135.4,174.9 136.8,174.7 138,174.4 139.2,174.1 140.3,173.6 141.3,173 142.3,172.3 143.3,171.5 144.3,170.5 145.2,169.4 " />
<polygon points="134,181 134,175 114,175 114,178 " />
<polygon points="109.9,37 109.9,37.1 108.5,59.1 105.4,79.8 100.8,99 94.7,116.7 87,132.9 77.7,147.6 66.9,160.6 54.5,172.1 40.7,181.8 25.4,189.7 24.5,188.2 38.5,178.7 51,168.1 61.9,156.3 71.4,143.3 79.4,129 86,113.4 91.2,96.4 94.9,77.9 97.1,58.1 97.9,37 " />
<polygon points="58.8,61 59,68.4 58.7,75.4 57.9,82.1 56.6,88.4 54.9,94.3 52.8,99.9 50.3,105.1 47.3,110 44,114.5 40.1,118.6 32.3,109.4 35.7,106.7 38.8,103.5 41.8,99.8 44.5,95.7 47.1,91.1 49.4,86 51.5,80.5 53.4,74.4 55.2,67.9 57,60.9 " />
<polygon points="40.1,118.6 35.8,119.9 31.7,117.9 30.3,113.5 32.3,109.4 " />
</g>
</svg>
