<svg xmlns="http://www.w3.org/2000/svg" xmlns:xlink="http://www.w3.org/1999/xlink" version="1.1" baseProfile="full" viewBox="0 0 200 200" width="200" height="200">
<g fill="black">
<polygon points="107,14.5 107,40.2 95,40.2 95,12.5 " />
<polygon points="107,14.5 110,16.5 107,18.5 " />
<polygon points="36.2,30.3 37,33.9 37.9,37.5 38.4,40.9 38.5,44.4 38.2,47.7 37.6,51 36.5,54.2 35.1,57.2 33.2,60.2 31,62.9 23.2,53.8 25,52.6 26.7,51.2 28.3,49.6 29.7,47.7 31,45.6 32.1,43.2 33,40.5 33.8,37.4 34.4,34.1 34.4,30.5 " />
<polygon points="31,62.9 26.6,64.2 22.5,62.2 21.2,57.9 23.2,53.8 " />
<polygon points="33.3,36.2 173.3,36.2 173.3,40.2 33.3,40.2 " />
<polygon points="178.3,41.6 176.9,42.9 175.3,44.4 173.5,46 171.6,47.8 169.5,49.7 167.2,51.8 164.7,53.9 162,56.3 159,58.7 156.2,61.5 154.8,60.3 157,57 158.8,53.7 160.5,50.6 162.1,47.7 163.6,45 164.8,42.6 166,40.3 166.9,38.3 167.7,36.5 168.4,34.9 " />
<polygon points="167.3,36.2 173.3,31.2 184.3,40.2 179.3,44.2 173.3,44.2 " />
<polygon points="54.6,51.1 54.3,55.2 53.9,59.2 53.2,63.1 52.2,66.8 50.9,70.4 49.3,73.9 47.4,77.2 45.2,80.3 42.7,83.2 40,86 32.8,76.4 35.2,74.8 37.6,73.1 39.9,71.1 42.1,68.9 44.1,66.5 46.1,63.9 48,61 49.7,57.9 51.5,54.5 52.9,50.8 " />
<polygon points="40,86 35.5,87 31.6,84.8 30.5,80.3 32.8,76.4 " />
<polygon points="78,52 78,69 66,69 66,50 " />
<polygon points="78,52 81,54 78,56 " />
<polygon points="78,69 75.6,72.6 72,75 68.4,72.6 66,69 " />
<polygon points="78,69 78,70.2 78.2,71.1 78.4,71.7 78.5,72 78.7,72.2 78.9,72.4 79.2,72.5 79.8,72.7 80.7,72.9 82,73 82,85 79.4,84.8 76.9,84.4 74.5,83.6 72.2,82.3 70.2,80.7 68.6,78.7 67.3,76.4 66.5,74 66.1,71.5 66,69 " />
<polygon points="82,73 86.2,74.8 88,79 86.2,83.2 82,85 " />
<polygon points="82,73 132,73 132,85 82,85 " />
<polygon points="132,73 135.6,75.4 138,79 135.6,82.6 132,85 " />
<polygon points="126,74 132,48 134,48 132,74 " />
<polygon points="88.2,43.5 91.3,44.6 94.5,45.4 97.5,46.5 100.4,47.8 103,49.3 105.6,51 107.9,52.8 110.1,54.9 112.2,57.1 114,59.6 103.2,65 102.6,63 101.8,61 100.8,59 99.6,57 98.1,55 96.5,53 94.6,50.9 92.5,48.9 90.2,46.8 87.5,45.2 " />
<polygon points="114,59.6 114.2,64.1 111.3,67.6 106.7,67.9 103.2,65 " />
<polygon points="139.2,54.6 142.8,55.9 146.4,57.2 149.8,58.7 153.1,60.4 156.1,62.3 159,64.3 161.7,66.6 164.2,69 166.6,71.6 168.7,74.4 158.2,80.3 157.2,77.8 155.9,75.3 154.5,72.9 152.8,70.5 151,68 148.9,65.6 146.6,63.2 144.2,60.8 141.5,58.4 138.4,56.2 " />
<polygon points="168.7,74.4 169.2,78.9 166.4,82.6 161.9,83.1 158.2,80.3 " />
<polygon points="53,95 53,126 41,126 41,89 " />
<polygon points="47,95 154,95 154,99 47,99 " />
<polygon points="160,97 160,126 148,126 148,97 " />
<polygon points="148,95 154,90 165,99 160,103 148,97 " />
<polygon points="88,95 88,126 76,126 76,95 " />
<polygon points="124,95 124,126 112,126 112,95 " />
<polygon points="17,122 185,122 185,126 17,126 " />
<polygon points="185,122 161,124 173,112 " />
<polygon points="31,139 170,139 170,143 31,143 " />
<polygon points="170,139 146,141 158,129 " />
<polygon points="108,139 108,174 96,174 96,139 " />
<polygon points="108,174 105.6,177.6 102,180 98.4,177.6 96,174 " />
<polygon points="108,174 107.8,176.5 107.4,179 106.6,181.4 105.3,183.7 103.7,185.7 101.7,187.3 99.4,188.6 97,189.4 94.5,189.8 92,190 92,178 93.2,177.9 94.1,177.7 94.7,177.5 95,177.4 95.2,177.2 95.4,177 95.5,176.7 95.7,176.1 95.9,175.2 96,174 " />
<polygon points="92,184 92,178 72,178 72,181 " />
</g>
</svg>
