<svg xmlns="http://www.w3.org/2000/svg" xmlns:xlink="http://www.w3.org/1999/xlink" version="1.1" baseProfile="full" viewBox="0 0 200 200" width="200" height="200">
<g fill="black">
<polygon points="65.2,17.6 68.4,18.9 71.5,20 74.5,21.4 77.2,23 79.8,24.8 82.1,26.9 84.2,29.3 86.1,31.8 87.7,34.6 89,37.6 77.4,40.5 77.2,38.3 76.8,36.2 76.2,34.1 75.3,32 74.2,29.8 72.8,27.7 71.2,25.5 69.3,23.3 67.1,21 64.4,19.2 " />
<polygon points="89,37.6 88.3,42.1 84.7,44.9 80.2,44.1 77.4,40.5 " />
<polygon points="139.8,21.7 138,24.1 136,26.6 133.9,29.1 131.6,31.6 129.2,34.2 126.7,36.8 123.9,39.5 121,42.1 117.8,44.7 114.6,47.5 113.3,46.4 115.6,42.9 117.5,39.3 119.5,35.9 121.3,32.7 122.9,29.6 124.5,26.7 125.9,23.8 127.1,21.1 128.2,18.5 129.2,16 " />
<polygon points="129.2,16 139.8,21.7 129.7,15 " />
<polygon points="139.8,21.7 141.5,24.9 134.3,25.5 " />
<polygon points="26,45 179,45 179,49 26,49 " />
<polygon points="179,45 155,47 167,35 " />
<polygon points="105,45 105,93 93,93 93,45 " />
<polygon points="40,68 162,68 162,72 40,72 " />
<polygon points="162,68 138,70 150,58 " />
<polygon points="23,93 179,93 179,97 23,97 " />
<polygon points="179,93 155,95 167,83 " />
<polygon points="60.3,98.8 63.4,100.6 66.5,102.4 69.4,104.5 72.1,106.9 74.5,109.5 76.7,112.4 78.7,115.4 80.5,118.7 82,122.2 83.2,125.8 71.5,128.2 71.2,125.1 70.7,122.2 70,119.3 69.1,116.5 68,113.7 66.7,110.9 65.2,108.2 63.5,105.5 61.6,102.7 59.2,100.3 " />
<polygon points="83.2,125.8 82.3,130.3 78.5,132.9 74.1,132 71.5,128.2 " />
<polygon points="143.3,101.8 141.8,105 139.9,108.2 137.7,111.4 135.2,114.7 132.5,118 129.4,121.4 126,124.9 122.2,128.4 118,131.9 113.6,135.6 112.3,134.3 115.6,129.7 118.5,125.2 121.2,121 123.6,117.1 125.8,113.3 127.6,109.8 129.2,106.5 130.4,103.4 131.3,100.6 131.9,98 " />
<polygon points="131.9,98 143.3,101.8 132.4,96.5 " />
<polygon points="143.3,101.8 145.5,104.6 138.6,106.5 " />
<polygon points="15,114 186,114 186,118 15,118 " />
<polygon points="186,114 162,116 174,104 " />
<polygon points="58,137 58,184 46,190 46,131 " />
<polygon points="52,137 150,137 150,141 52,141 " />
<polygon points="156,139 156,181 144,187 144,139 " />
<polygon points="144,137 150,132 161,141 156,145 144,139 " />
<polygon points="52,173 150,173 150,177 52,177 " />
</g>
</svg>
