<svg xmlns="http://www.w3.org/2000/svg" xmlns:xlink="http://www.w3.org/1999/xlink" version="1.1" baseProfile="full" viewBox="0 0 200 200" width="200" height="200">
<g fill="black">
<polygon points="69.3,28.8 67,34.3 64.2,39.7 60.9,44.9 57.3,50.1 53.3,55.2 48.8,60.2 44,65.1 38.6,69.8 32.8,74.3 26.5,78.6 25.4,77.3 30.3,71.6 34.8,66 39.1,60.7 43,55.4 46.5,50.2 49.5,45 52.2,39.9 54.5,34.9 56.4,29.9 57.9,25 " />
<polygon points="57.9,25 69.3,28.8 58.4,23.5 " />
<polygon points="69.3,28.8 71.5,31.6 64.6,33.5 " />
<polygon points="129.3,25.7 134,27.7 138.6,30.1 143,32.9 147.2,35.9 151.3,39.2 155.2,42.8 159,46.5 162.6,50.5 166.1,54.8 169.4,59.2 159.3,65.7 156.7,61.3 154,57 151.2,53 148.3,49 145.2,45.2 142.1,41.5 138.8,37.9 135.3,34.4 131.9,30.8 128.3,27.2 " />
<polygon points="169.4,59.2 170.1,63.7 167.6,67.5 163.1,68.2 159.3,65.7 " />
<polygon points="41,78 161,78 161,82 41,82 " />
<polygon points="161,78 137,80 149,68 " />
<polygon points="19,122 181,122 181,126 19,126 " />
<polygon points="181,122 157,124 169,112 " />
<polygon points="106,14 106,184 94,190 94,12 " />
<polygon points="106,14 109,16 106,18 " />
</g>
</svg>
