<svg xmlns="http://www.w3.org/2000/svg" xmlns:xlink="http://www.w3.org/1999/xlink" version="1.1" baseProfile="full" viewBox="0 0 200 200" width="200" height="200">
<g fill="black">
<polygon points="161.7,25 152.2,27.4 142.4,29.7 132.4,31.7 122.2,33.7 111.8,35.4 101.1,37 90.2,38.4 79.1,39.5 67.7,40.4 56.1,40.8 55.8,39.1 67.2,36.6 78.3,34.2 89.1,31.9 99.8,29.5 110.1,27.1 120.3,24.6 130.1,22 139.8,19.3 149.1,16.4 158.3,13.5 " />
<polygon points="158.3,13.5 161.7,25 168.3,23 " />
<polygon points="168.3,23 168.6,26.1 160.4,22.2 " />
<polygon points="79.3,42.8 83.8,45.2 88.1,47.5 92,50.1 95.6,52.9 98.8,55.8 101.7,58.8 104.3,62 106.6,65.4 108.5,68.9 110,72.5 98.4,75.6 97.9,72.8 97.1,70 95.9,67 94.5,64 92.6,60.9 90.5,57.8 87.9,54.5 85.1,51.2 81.9,47.7 78.3,44.3 " />
<polygon points="110,72.5 109.3,77 105.7,79.9 101.2,79.2 98.4,75.6 " />
<polygon points="129.3,39.6 133.9,41.4 138.4,43.2 142.7,45.3 146.6,47.6 150.3,50.2 153.7,52.9 156.9,55.7 159.8,58.8 162.5,62.1 164.9,65.5 154.2,71.1 152.9,68.1 151.3,65.1 149.4,62.1 147.3,59.1 144.9,56.1 142.1,53.2 139.1,50.2 135.8,47.2 132.3,44.2 128.4,41.2 " />
<polygon points="164.9,65.5 165.2,70.1 162.3,73.6 157.8,74 154.2,71.1 " />
<polygon points="63.6,33.1 61.8,39.1 59.5,45 56.7,50.7 53.5,56.4 49.7,62 45.5,67.4 40.8,72.7 35.6,77.9 29.9,82.9 23.6,87.6 22.3,86.3 27.2,80.2 31.6,74.3 35.7,68.6 39.4,63 42.6,57.4 45.3,52 47.6,46.6 49.5,41.2 50.9,35.9 51.9,30.7 " />
<polygon points="51.9,30.7 63.6,33.1 52.3,28.9 " />
<polygon points="63.6,33.1 66.2,35.7 59.5,38.4 " />
<polygon points="19,105 180,105 180,109 19,109 " />
<polygon points="180,105 156,107 168,95 " />
<polygon points="139,79 139,172 127,172 127,77 " />
<polygon points="139,79 142,81 139,83 " />
<polygon points="139,172 136.6,175.6 133,178 129.4,175.6 127,172 " />
<polygon points="139,172 138.8,174.5 138.4,177 137.6,179.4 136.3,181.7 134.7,183.7 132.7,185.3 130.4,186.6 128,187.4 125.5,187.8 123,188 123,176 124.2,175.9 125.1,175.7 125.7,175.5 126,175.4 126.2,175.2 126.4,175 126.5,174.7 126.7,174.1 126.9,173.2 127,172 " />
<polygon points="123,182 123,176 103,176 103,179 " />
<polygon points="49.3,118.6 54,120.3 58.6,122.1 63,124.3 67.2,126.7 71.2,129.3 74.9,132.1 78.5,135.1 81.9,138.2 85.1,141.5 88.1,145.1 78.3,151.9 76.2,148.5 73.9,145.2 71.4,141.9 68.7,138.7 65.8,135.6 62.7,132.5 59.4,129.4 55.9,126.4 52.3,123.3 48.4,120.2 " />
<polygon points="88.1,145.1 89.1,149.5 86.7,153.4 82.2,154.3 78.3,151.9 " />
</g>
</svg>
