<svg xmlns="http://www.w3.org/2000/svg" xmlns:xlink="http://www.w3.org/1999/xlink" version="1.1" baseProfile="full" viewBox="0 0 200 200" width="200" height="200">
<g fill="black">
<polygon points="25,36 179,36 179,40 25,40 " />
<polygon points="179,36 155,38 167,26 " />
<polygon points="108,14 108,63 96,63 96,12 " />
<polygon points="108,14 111,16 108,18 " />
<polygon points="71,59 71,132 59,138 59,53 " />
<polygon points="65,59 149,59 149,63 65,63 " />
<polygon points="155,61 155,132 143,138 143,61 " />
<polygon points="143,59 149,54 160,63 155,67 143,61 " />
<polygon points="65,82 149,82 149,86 65,86 " />
<polygon points="65,105 149,105 149,109 65,109 " />
<polygon points="65,128 149,128 149,132 65,132 " />
<polygon points="38,68 38,163 26,169 26,66 " />
<polygon points="38,68 41,70 38,72 " />
<polygon points="32,147 185,147 185,151 32,151 " />
<polygon points="185,147 161,149 173,137 " />
<polygon points="91,167.7 84.9,170.6 78.6,173.3 72,175.9 65.2,178.3 58.2,180.6 50.9,182.7 43.4,184.6 35.6,186.3 27.5,187.7 19.2,188.8 18.7,187.1 26.5,184.1 34.1,181.2 41.4,178.3 48.5,175.5 55.3,172.6 61.8,169.6 68,166.6 74,163.6 79.7,160.4 85.2,157.2 " />
<polygon points="85.2,157.2 91,167.7 93.2,166.5 " />
<polygon points="93.2,166.5 93.3,169.8 86,167 " />
<polygon points="114.1,161.2 121.5,161.5 128.6,162.2 135.3,163.2 141.7,164.5 147.8,166 153.5,167.8 158.9,169.9 164,172.1 168.8,174.6 173.2,177.4 165.9,186.9 162.5,184.1 158.8,181.5 154.6,178.9 149.9,176.4 144.9,174 139.5,171.7 133.6,169.5 127.4,167.4 120.8,165.2 113.8,163 " />
<polygon points="173.2,177.4 175.4,181.3 174.3,185.8 170.4,188 165.9,186.9 " />
</g>
</svg>
