<svg xmlns="http://www.w3.org/2000/svg" xmlns:xlink="http://www.w3.org/1999/xlink" version="1.1" baseProfile="full" viewBox="0 0 200 200" width="200" height="200">
<g fill="black">
<polygon points="156.5,27.5 148.1,53.4 138.5,77.2 127.6,98.9 115.5,118.6 102.2,136.1 87.6,151.5 71.7,164.8 54.7,175.8 36.5,184.5 17.2,190.8 16.7,189.1 35,181 52,171.2 67.7,159.6 82.2,146.1 95.6,130.8 107.8,113.5 118.8,94.2 128.7,72.9 137.4,49.6 144.9,24.3 " />
<polygon points="144.9,24.3 156.5,27.5 145.4,22.7 " />
<polygon points="156.5,27.5 158.8,30.2 152,32.5 " />
<polygon points="60,27.8 65.1,48.6 71.3,67.9 78.9,85.9 87.8,102.4 98,117.5 109.7,131.2 122.8,143.6 137.3,154.7 153.2,164.4 170.7,172.9 165.2,185 147,175.3 130.4,164.3 115.4,151.8 102.1,138.1 90.5,122.9 80.5,106.5 72.2,88.8 65.7,69.8 61,49.5 58.2,28.1 " />
<polygon points="165.2,185 170.7,172.9 176.6,175.6 " />
<polygon points="29.7,52.8 33.4,49.8 37.1,46.7 40.9,43.5 44.5,40.1 48.2,36.7 51.9,33.2 55.6,29.6 59.4,25.9 63.2,22.1 67.2,18.4 68.7,19.5 66.2,24.4 63.6,29.2 60.7,33.7 57.7,38.1 54.5,42.4 51.3,46.5 48,50.5 44.7,54.4 41.2,58.1 37.7,61.8 " />
<polygon points="37.7,61.8 29.7,52.8 28.2,54.1 " />
<polygon points="37.7,61.8 41.2,62.7 40.2,55.5 " />
</g>
</svg>
