<svg xmlns="http://www.w3.org/2000/svg" xmlns:xlink="http://www.w3.org/1999/xlink" version="1.1" baseProfile="full" viewBox="0 0 200 200" width="200" height="200">
<g fill="black">
<polygon points="76.9,30 76.9,30.1 75.7,52.8 73.4,73.9 69.9,93.5 65.4,111.5 59.7,127.9 52.9,142.7 45,155.9 35.9,167.3 25.7,177 14.5,184.7 13.4,183.2 23.1,174.2 31.8,163.9 39.4,152.4 46.1,139.4 51.7,125 56.4,109 60.1,91.6 62.7,72.6 64.3,52 64.9,30 " />
<polygon points="20,28 135,28 135,32 20,32 " />
<polygon points="140.2,31 125.2,84 112.7,84 128.7,30 " />
<polygon points="129,28 135,23 146,32 141,35 129,40 " />
<polygon points="68,82 161,82 161,86 68,86 " />
<polygon points="166.5,86.2 158.8,102 149.8,116.6 139.5,129.9 128.1,142 115.4,152.8 101.5,162.3 86.4,170.4 70.1,177.3 52.7,182.8 34.2,186.8 33.7,185.1 51.6,179.2 68.1,172.3 83.3,164.6 97.3,155.9 110,146.1 121.5,135.4 131.8,123.5 140.8,110.7 148.7,96.7 155.4,81.7 " />
<polygon points="155,82 161,77 172,86 167,89 155,94 " />
<polygon points="83.1,84.6 89,96.9 95.5,108.3 102.8,118.8 110.9,128.5 119.8,137.3 129.6,145.4 140.3,152.6 152,159.1 164.5,164.8 178.1,169.7 173.8,182.2 159.6,176.3 146.4,169.5 134.3,161.9 123.2,153.4 113.3,144 104.5,133.9 96.8,122.9 90.4,111.1 85.2,98.5 81.4,85.2 " />
<polygon points="173.8,182.2 178.1,169.7 185.4,172.2 " />
</g>
</svg>
