<svg xmlns="http://www.w3.org/2000/svg" xmlns:xlink="http://www.w3.org/1999/xlink" version="1.1" baseProfile="full" viewBox="0 0 200 200" width="200" height="200">
<g fill="black">
<polygon points="38,34 38,98 26,98 26,28 " />
<polygon points="38,98 35.6,101.6 32,104 28.4,101.6 26,98 " />
<polygon points="38,98 37.5,110.5 36.6,122.2 35.3,133.1 33.7,143.1 31.6,152.3 29.1,160.6 26.2,168.1 22.9,174.6 19,180.1 14.6,184.5 13.3,183.4 15.8,178.1 18,172.3 20,165.8 21.8,158.6 23.3,150.6 24.5,141.7 25.3,132 25.9,121.5 26.1,110.2 26,98 " />
<polygon points="32,34 183,34 183,38 32,38 " />
<polygon points="183,34 159,36 171,24 " />
<polygon points="112,15 112,38 100,38 100,13 " />
<polygon points="112,15 115,17 112,19 " />
<polygon points="41.3,70.5 110.6,70.5 110.6,74.5 41.3,74.5 " />
<polygon points="110.6,70.5 86.6,72.5 98.6,60.5 " />
<polygon points="81.8,45.1 81.8,181.9 71.8,186.9 71.8,43.1 " />
<polygon points="81.8,45.1 84.3,47.1 81.8,49.1 " />
<polygon points="103.4,92.7 103.4,152.5 92.4,158 92.4,90.7 " />
<polygon points="103.4,92.7 106.2,94.7 103.4,96.7 " />
<polygon points="62.9,90.2 62.9,119.3 51.9,119.3 51.9,88.2 " />
<polygon points="62.9,90.2 65.6,92.2 62.9,94.2 " />
<polygon points="62.9,119.3 60.7,122.6 57.4,124.8 54.1,122.6 51.9,119.3 " />
<polygon points="62.9,119.3 62.4,127 61.6,134.3 60.4,141.2 58.8,147.7 56.9,153.8 54.5,159.4 51.8,164.6 48.7,169.2 45.1,173.2 41.1,176.6 39.9,175.5 42.3,171.2 44.4,166.7 46.4,161.9 48,156.9 49.4,151.6 50.5,145.9 51.3,139.8 51.8,133.4 52,126.5 51.9,119.3 " />
<polygon points="114.8,70.5 184.1,70.5 184.1,74.5 114.8,74.5 " />
<polygon points="184.1,70.5 160.1,72.5 172.1,60.5 " />
<polygon points="148.6,45.1 148.6,182.8 138.6,187.8 138.6,43.1 " />
<polygon points="148.6,45.1 151.1,47.1 148.6,49.1 " />
<polygon points="168.5,90.2 168.5,155.2 157.5,155.2 157.5,88.2 " />
<polygon points="168.5,90.2 171.2,92.2 168.5,94.2 " />
<polygon points="168.5,155.2 166.3,158.5 163,160.7 159.7,158.5 157.5,155.2 " />
<polygon points="168.5,155.2 168.6,156.5 168.8,157.5 169.1,158.1 169.3,158.5 169.6,158.7 169.8,158.8 170.2,158.9 170.8,159.1 171.8,159.2 173,159.2 173,171.2 170.4,171 168,170.5 165.6,169.7 163.4,168.4 161.4,166.8 159.9,164.8 158.7,162.5 158,160.2 157.6,157.7 157.5,155.2 " />
<polygon points="173,159.2 177.2,161 179,165.2 177.2,169.4 173,171.2 " />
<polygon points="173,159.2 181.6,159.2 181.6,171.2 173,171.2 " />
<polygon points="181.6,159.2 185.2,161.6 187.6,165.2 185.2,168.8 181.6,171.2 " />
<polygon points="175.6,160.2 181.6,134.2 183.6,134.2 181.6,160.2 " />
<polygon points="130.5,91.1 130.5,120.1 119.5,120.1 119.5,89.1 " />
<polygon points="130.5,91.1 133.2,93.1 130.5,95.1 " />
<polygon points="130.5,120.1 128.3,123.4 125,125.6 121.7,123.4 119.5,120.1 " />
<polygon points="130.5,120.1 130,127.9 129.1,135.2 127.8,142 126.1,148.4 124,154.4 121.5,159.8 118.5,164.7 115.1,169.1 111.2,172.8 106.9,175.9 105.8,174.6 108.6,170.5 111.1,166.3 113.2,161.8 115.1,157 116.6,151.9 117.9,146.4 118.8,140.4 119.3,134.1 119.6,127.3 119.5,120.1 " />
</g>
</svg>
