<svg xmlns="http://www.w3.org/2000/svg" xmlns:xlink="http://www.w3.org/1999/xlink" version="1.1" baseProfile="full" viewBox="0 0 200 200" width="200" height="200">
<g fill="black">
<polygon points="20.6,18.9 23.1,20.1 25.7,21 28.2,22.1 30.6,23.4 32.8,24.8 35,26.5 36.9,28.3 38.8,30.2 40.5,32.4 42,34.7 31,39.4 30.6,37.5 30,35.6 29.3,33.7 28.5,31.8 27.5,29.9 26.3,28 25,26 23.5,24.1 21.8,22.1 19.7,20.5 " />
<polygon points="42,34.7 42,39.2 38.9,42.5 34.3,42.5 31,39.4 " />
<polygon points="15.5,88.9 19.2,92.2 22.6,95.7 25.5,99.4 28,103.4 30.1,107.6 31.8,112.1 33.1,116.7 33.9,121.4 34.4,126.3 34.4,131.4 22.5,130.2 23.1,126.1 23.3,122.1 23.3,118.1 23,114.1 22.3,110.2 21.3,106.3 20,102.3 18.4,98.3 16.5,94.2 14.2,90.1 " />
<polygon points="34.4,131.4 32.2,135.4 27.9,136.8 23.9,134.6 22.5,130.2 " />
<polygon points="18.6,100.7 20.9,97.1 23.5,92.9 26.2,88.1 29.1,82.7 32.2,76.6 35.5,70 38.9,62.8 42.6,55 46.5,46.7 50.8,37.9 52.5,38.5 50.1,48 47.6,56.9 45,65.2 42.5,72.9 40,79.9 37.6,86.4 35.3,92.4 33.1,97.7 31,102.5 28.9,106.8 " />
<polygon points="64.5,18 64.5,74 53.5,74 53.5,16 " />
<polygon points="64.5,18 67.2,20 64.5,22 " />
<polygon points="64.5,74 62.3,77.3 59,79.5 55.7,77.3 53.5,74 " />
<polygon points="64.5,74 64,82 63.3,89.8 62.2,97.3 60.7,104.6 59,111.5 56.9,118.2 54.5,124.5 51.6,130.6 48.4,136.2 44.7,141.4 43.2,140.5 45.2,134.7 47.1,128.7 48.7,122.6 50.2,116.3 51.4,109.9 52.4,103.1 53,96.2 53.4,89 53.6,81.6 53.5,74 " />
<polygon points="82.9,21.4 82.9,130.3 73.9,134.8 73.9,16.9 " />
<polygon points="78.4,21.4 126.1,21.4 126.1,25.4 78.4,25.4 " />
<polygon points="126.1,21.4 106.1,23.4 116.1,12.4 " />
<polygon points="105.6,21.4 105.6,57.8 94.6,57.8 94.6,21.4 " />
<polygon points="78.4,53.8 118.7,53.8 118.7,57.8 78.4,57.8 " />
<polygon points="124.2,55.8 124.2,100.8 113.2,106.3 113.2,55.8 " />
<polygon points="113.2,53.8 118.7,48.8 129.2,57.8 124.2,61.3 113.2,55.8 " />
<polygon points="78.4,90.8 118.7,90.8 118.7,94.8 78.4,94.8 " />
<polygon points="105.6,90.8 105.6,130.3 94.6,130.3 94.6,90.8 " />
<polygon points="78.4,126.3 127.8,126.3 127.8,130.3 78.4,130.3 " />
<polygon points="127.8,126.3 107.8,128.3 117.8,117.3 " />
<polygon points="141,22 175,22 175,26 141,26 " />
<polygon points="181,24 181,79 169,85 169,24 " />
<polygon points="169,22 175,17 186,26 181,30 169,24 " />
<polygon points="141,69 175,69 175,73 141,73 " />
<polygon points="146.5,22 146.5,117 135.5,117 135.5,16.5 " />
<polygon points="146.5,117 144.3,120.3 141,122.5 137.7,120.3 135.5,117 " />
<polygon points="146.5,117 146.6,118.2 146.8,119.2 147,119.8 147.3,120.2 147.5,120.4 147.8,120.5 148.2,120.7 148.8,120.8 149.7,120.9 151,121 151,133 148.4,132.8 145.9,132.3 143.5,131.4 141.3,130.2 139.4,128.5 137.8,126.5 136.7,124.3 135.9,121.9 135.5,119.5 135.5,117 " />
<polygon points="151,121 155.2,122.8 157,127 155.2,131.2 151,133 " />
<polygon points="151,121 182,121 182,133 151,133 " />
<polygon points="182,121 185.6,123.4 188,127 185.6,130.6 182,133 " />
<polygon points="176,122 182,96 184,96 182,122 " />
<polygon points="43.8,141 44.2,146.9 44.3,152.5 43.9,157.8 42.9,162.9 41.6,167.6 39.7,171.9 37.4,176 34.6,179.7 31.2,182.9 27.5,185.8 21.7,175.2 24.5,173.8 27.2,172.1 29.7,169.9 32,167.2 34.1,164.1 36.1,160.5 37.9,156.4 39.4,151.7 40.9,146.6 42,140.9 " />
<polygon points="27.5,185.8 22.9,186.2 19.3,183.4 18.9,178.8 21.7,175.2 " />
<polygon points="70.3,142.1 73.3,145.1 76.2,148.1 78.8,151.3 81,154.6 82.9,158.1 84.5,161.8 85.7,165.6 86.5,169.4 87.1,173.4 87.2,177.5 75.3,176.4 75.8,173.3 76.1,170.2 76.1,167.1 75.9,163.9 75.5,160.7 74.7,157.4 73.7,154 72.4,150.5 70.9,146.8 68.9,143.3 " />
<polygon points="87.2,177.5 85,181.5 80.7,182.9 76.7,180.7 75.3,176.4 " />
<polygon points="108.3,141.9 112.3,144.8 116.1,147.6 119.5,150.7 122.6,154 125.3,157.4 127.7,160.9 129.7,164.6 131.4,168.4 132.7,172.3 133.6,176.4 121.7,177.5 121.6,174.4 121.2,171.3 120.6,168 119.6,164.8 118.4,161.4 116.7,157.9 114.8,154.4 112.6,150.8 110.1,147 107.1,143.3 " />
<polygon points="133.6,176.4 132.2,180.7 128.2,182.9 123.9,181.5 121.7,177.5 " />
<polygon points="148.3,140.9 153.4,143.9 158.1,147.1 162.3,150.5 166.2,154 169.8,157.6 172.9,161.4 175.8,165.2 178.2,169.2 180.3,173.3 181.9,177.5 170.4,180.6 169.6,177.2 168.5,173.7 167.1,170.1 165.3,166.4 163.1,162.7 160.6,158.8 157.7,154.9 154.5,150.8 151,146.6 147.2,142.3 " />
<polygon points="181.9,177.5 181.3,182 177.7,184.8 173.2,184.2 170.4,180.6 " />
</g>
</svg>
