<svg xmlns="http://www.w3.org/2000/svg" xmlns:xlink="http://www.w3.org/1999/xlink" version="1.1" baseProfile="full" viewBox="0 0 200 200" width="200" height="200">
<g fill="black">
<polygon points="16,35.3 184,35.3 184,39.3 16,39.3 " />
<polygon points="184,35.3 160,37.3 172,25.3 " />
<polygon points="106,14.7 106,67.1 94,67.1 94,12.7 " />
<polygon points="106,14.7 109,16.7 106,18.7 " />
<polygon points="28,63.1 172,63.1 172,67.1 28,67.1 " />
<polygon points="172,63.1 148,65.1 160,53.1 " />
<polygon points="28.7,74 29.9,79.6 30.9,84.9 31.3,90.1 31.3,95.1 30.9,99.9 30.2,104.5 29,109 27.4,113.2 25.4,117.2 22.9,121 13.8,113.3 16,110.9 18,108.2 19.9,105.2 21.5,101.8 22.9,98.1 24.1,94.1 25.1,89.7 25.9,84.9 26.5,79.7 26.9,74.2 " />
<polygon points="22.9,121 18.9,123 14.5,121.7 12.4,117.6 13.8,113.3 " />
<polygon points="25.7,84.4 178.4,84.4 178.4,88.4 25.7,88.4 " />
<polygon points="183.8,89 182.3,91.2 180.6,93.5 178.7,96.1 176.7,99 174.4,102 171.9,105.4 169.2,108.9 166.3,112.6 163,116.6 159.7,120.8 158.1,119.9 160.3,115 162.3,110.3 164.1,105.9 165.9,101.8 167.5,98.1 168.9,94.6 170.2,91.4 171.3,88.6 172.2,86 173,83.7 " />
<polygon points="172.4,84.4 178.4,79.4 189.4,88.4 184.4,92.4 178.4,92.4 " />
<polygon points="43,107 154,107 154,111 43,111 " />
<polygon points="154,107 130,109 142,97 " />
<polygon points="71.7,131.3 71.7,148.8 59.7,148.8 59.7,125.3 " />
<polygon points="71.7,148.8 69.3,152.4 65.7,154.8 62.1,152.4 59.7,148.8 " />
<polygon points="71.6,149.6 69.8,156.4 66.9,162.6 63,168.2 58.2,173 52.6,177.2 46.1,180.7 38.9,183.5 30.9,185.7 22.1,187.1 12.5,187.9 12.2,186.1 21.3,183.4 29.4,180.5 36.4,177.4 42.5,174 47.6,170.3 51.8,166.4 55,162.2 57.3,157.7 58.9,153 59.7,147.9 " />
<polygon points="65.7,131.3 128.9,131.3 128.9,135.3 65.7,135.3 " />
<polygon points="134.9,133.3 134.9,170.4 122.9,170.4 122.9,133.3 " />
<polygon points="122.9,131.3 128.9,126.3 139.9,135.3 134.9,139.3 122.9,133.3 " />
<polygon points="134.9,170.4 132.5,174 128.9,176.4 125.3,174 122.9,170.4 " />
<polygon points="134.9,170.4 135,171.6 135.1,172.5 135.3,173.1 135.5,173.4 135.7,173.6 135.8,173.8 136.2,174 136.8,174.1 137.7,174.3 138.9,174.4 138.9,186.4 136.4,186.2 133.9,185.8 131.5,185 129.2,183.8 127.2,182.1 125.5,180.1 124.3,177.8 123.5,175.4 123.1,172.9 122.9,170.4 " />
<polygon points="138.9,174.4 143.1,176.2 144.9,180.4 143.1,184.6 138.9,186.4 " />
<polygon points="138.9,174.4 182.2,174.4 182.2,186.4 138.9,186.4 " />
<polygon points="182.2,174.4 185.8,176.8 188.2,180.4 185.8,184 182.2,186.4 " />
<polygon points="176.2,175.4 182.2,149.4 184.2,149.4 182.2,175.4 " />
</g>
</svg>
