<svg xmlns="http://www.w3.org/2000/svg" xmlns:xlink="http://www.w3.org/1999/xlink" version="1.1" baseProfile="full" viewBox="0 0 200 200" width="200" height="200">
<g fill="black">
<polygon points="81.1,32.9 77.2,33.9 73.3,34.9 69.3,35.8 65.2,36.7 61.1,37.4 56.9,38.1 52.6,38.7 48.2,39.2 43.7,39.5 39.1,39.8 38.8,38.1 42.9,36.3 47,34.5 51,32.9 55,31.2 58.8,29.6 62.6,28.1 66.3,26.5 69.9,24.9 73.5,23.3 76.9,21.7 " />
<polygon points="76.9,21.7 81.1,32.9 86.3,31 " />
<polygon points="86.3,31 86.6,34.1 78.6,30.6 " />
<polygon points="45,37 45,108 33,114 33,31 " />
<polygon points="39,66 87,66 87,70 39,70 " />
<polygon points="87,66 67,68 77,57 " />
<polygon points="117,33 159,33 159,37 117,37 " />
<polygon points="165,35 165,105 153,111 153,35 " />
<polygon points="153,33 159,28 170,37 165,41 153,35 " />
<polygon points="118,65 159,65 159,69 118,69 " />
<polygon points="39,97 159,97 159,101 39,101 " />
<polygon points="107,15 107,116 95,122 95,13 " />
<polygon points="107,15 110,17 107,19 " />
<polygon points="29,124 153,124 153,128 29,128 " />
<polygon points="157.1,130.3 145.2,140.6 132.8,150 120,158.4 106.7,165.9 93,172.3 78.8,177.7 64.2,182.2 49.2,185.5 33.8,187.8 18,188.8 17.9,187.1 33.2,184 48,180.3 62.3,175.9 76.1,170.6 89.4,164.6 102.2,157.7 114.6,150 126.4,141.4 137.8,131.9 148.8,121.6 " />
<polygon points="147,124 153,119 164,128 159,132 153,132 " />
<polygon points="60.3,126.2 68.1,134.1 76.5,141.2 85.6,147.8 95.5,153.7 106.4,158.9 118.1,163.6 130.8,167.5 144.5,170.8 159.1,173.4 174.7,175.4 173.2,188.5 157,185.8 141.8,182.3 127.6,178.1 114.4,173.1 102.3,167.4 91.3,160.9 81.3,153.6 72.5,145.6 65,136.8 58.8,127.3 " />
<polygon points="173.2,188.5 174.7,175.4 185,176.7 " />
</g>
</svg>
