<svg xmlns="http://www.w3.org/2000/svg" xmlns:xlink="http://www.w3.org/1999/xlink" version="1.1" baseProfile="full" viewBox="0 0 200 200" width="200" height="200">
<g fill="black">
<polygon points="43,53 43,110 31,110 31,47 " />
<polygon points="43,110 40.6,113.6 37,116 33.4,113.6 31,110 " />
<polygon points="43,110 42.4,121 41.2,131.4 39.5,141.2 37.1,150.4 34.2,159 30.7,167 26.6,174.3 21.9,180.9 16.5,186.7 10.6,191.6 9.3,190.3 13.6,184.2 17.5,177.9 20.8,171.2 23.7,164 26.2,156.4 28.1,148.2 29.6,139.5 30.5,130.2 31,120.4 31,110 " />
<polygon points="37,53 187,53 187,57 37,57 " />
<polygon points="187,53 163,55 175,43 " />
<polygon points="37,94 87,94 87,98 37,98 " />
<polygon points="93,96 92.9,105.3 92.7,113.8 92.4,121.6 91.9,128.7 91.3,135 90.6,140.7 89.7,145.6 88.6,149.9 87.2,153.7 85.5,157 75.5,150.3 76.2,148.9 77.1,146.5 77.9,143.1 78.7,138.8 79.4,133.7 79.9,127.7 80.4,121 80.7,113.4 80.9,105.1 81,96 " />
<polygon points="81,94 87,89 98,98 93,101 81,106 " />
<polygon points="85.5,157 81.7,159.5 77.2,158.6 74.7,154.8 75.5,150.3 " />
<polygon points="85.5,157 84,159 82.4,160.8 80.6,162.5 78.7,163.9 76.7,165.2 74.5,166.2 72.2,167 69.9,167.5 67.4,167.8 65,168 65,156 66.4,155.9 67.7,155.7 68.9,155.4 70,155.1 71,154.6 72,154 72.9,153.3 73.8,152.5 74.7,151.5 75.5,150.3 " />
<polygon points="65,162 65,156 45,156 45,159 " />
<polygon points="119,14.9 121,54.8 125.6,87.6 132.2,114.1 140,134.8 148.6,150.4 157.3,161.7 165.5,169.3 172.6,173.9 178.2,176.2 181.5,177 180.4,188.9 174.6,187.7 167.1,184.5 158.1,178.8 148.4,169.8 138.6,157 129.1,139.8 120.7,117.7 113.8,89.9 109.1,55.9 107,15 " />
<polygon points="107,16 119,14.9 106.9,12.7 " />
<polygon points="119,14.9 122,16.8 117,19.9 " />
<polygon points="181.5,177 185.5,179.1 186.9,183.5 184.8,187.5 180.4,188.9 " />
<polygon points="181,178 183,152 181,152 175,178 " />
<polygon points="173.2,89 166.5,104 158.9,118 150.2,130.8 140.6,142.6 130.1,153.2 118.5,162.7 106.1,171.1 92.7,178.3 78.4,184.2 63.2,188.8 62.7,187.1 76.9,180.7 90.2,173.5 102.5,165.6 113.8,156.8 124.2,147.1 133.6,136.5 142,125 149.6,112.6 156.2,99.2 162,84.8 " />
<polygon points="161.6,85.7 173.2,89 162.5,83.4 " />
<polygon points="173.2,89 175.3,91.9 169.6,93 " />
<polygon points="131.2,19.5 134.5,20.5 137.9,21.4 141.1,22.4 144.1,23.7 146.9,25.2 149.6,26.9 152.1,28.7 154.5,30.7 156.7,33 158.7,35.4 148.3,41.3 147.4,39.3 146.5,37.2 145.3,35.2 143.8,33.1 142.2,31.1 140.3,29.1 138.3,27 136,25 133.4,22.9 130.5,21.2 " />
<polygon points="158.7,35.4 159.2,39.9 156.4,43.6 151.9,44.1 148.3,41.3 " />
</g>
</svg>
