<svg xmlns="http://www.w3.org/2000/svg" xmlns:xlink="http://www.w3.org/1999/xlink" version="1.1" baseProfile="full" viewBox="0 0 200 200" width="200" height="200">
<g fill="black">
<polygon points="106,21 106,59 94,59 94,19 " />
<polygon points="106,21 109,23 104,26 " />
<polygon points="14,55 186,55 186,59 14,59 " />
<polygon points="186,55 162,57 174,45 " />
<polygon points="50,55 50,161 38,161 38,55 " />
<polygon points="50,161 47.6,164.6 44,167 40.4,164.6 38,161 " />
<polygon points="50,161 50,162.2 50.2,163.1 50.4,163.7 50.5,164 50.7,164.2 50.9,164.4 51.2,164.5 51.8,164.7 52.7,164.9 54,165 54,177 51.4,176.8 48.9,176.4 46.5,175.6 44.2,174.3 42.2,172.7 40.6,170.7 39.3,168.4 38.5,166 38.1,163.5 38,161 " />
<polygon points="54,165 58.2,166.8 60,171 58.2,175.2 54,177 " />
<polygon points="54,165 170,165 170,177 54,177 " />
<polygon points="170,165 173.6,167.4 176,171 173.6,174.6 170,177 " />
</g>
</svg>
