<svg xmlns="http://www.w3.org/2000/svg" xmlns:xlink="http://www.w3.org/1999/xlink" version="1.1" baseProfile="full" viewBox="0 0 200 200" width="200" height="200">
<g fill="black">
<polygon points="15.5,70 75.6,70 75.6,74 15.5,74 " />
<polygon points="75.6,70 51.6,72 63.6,60 " />
<polygon points="50.7,24 50.7,142 38.7,142 38.7,22 " />
<polygon points="50.7,24 53.7,26 50.7,28 " />
<polygon points="14.1,149 19,147.3 24.1,145.5 29.6,143.5 35.3,141.4 41.3,139.2 47.6,136.9 54.2,134.5 61.2,132 68.4,129.6 76.1,127.1 76.8,128.8 70,133 63.4,136.9 57,140.5 50.7,143.8 44.8,147 39.1,149.9 33.6,152.7 28.4,155.4 23.4,157.8 18.7,160.1 " />
<polygon points="18.7,160.1 14.1,149 12.3,149.8 " />
<polygon points="18.7,160.1 21.7,162.1 23.1,155.1 " />
<polygon points="92.1,23.4 92.1,66 80.1,72 80.1,17.4 " />
<polygon points="86.1,23.4 177.9,23.4 177.9,27.4 86.1,27.4 " />
<polygon points="183.9,25.4 183.9,63 171.9,69 171.9,25.4 " />
<polygon points="171.9,23.4 177.9,18.4 188.9,27.4 183.9,31.4 171.9,25.4 " />
<polygon points="123.3,23.4 123.3,59 111.3,59 111.3,23.4 " />
<polygon points="152.6,23.4 152.6,59 140.6,59 140.6,23.4 " />
<polygon points="86.1,55 177.9,55 177.9,59 86.1,59 " />
<polygon points="81.6,82.2 182.3,82.2 182.3,86.2 81.6,86.2 " />
<polygon points="182.3,82.2 158.3,84.2 170.3,72.2 " />
<polygon points="138,82.2 138,182.1 126,182.1 126,82.2 " />
<polygon points="132,127.7 175.5,127.7 175.5,131.7 132,131.7 " />
<polygon points="175.5,127.7 155.5,129.7 165.5,118.7 " />
<polygon points="104,116 104,182.1 92,182.1 92,114 " />
<polygon points="104,116 107,118 104,120 " />
<polygon points="74.8,178.1 189.1,178.1 189.1,182.1 74.8,182.1 " />
<polygon points="189.1,178.1 165.1,180.1 177.1,168.1 " />
</g>
</svg>
