<svg xmlns="http://www.w3.org/2000/svg" xmlns:xlink="http://www.w3.org/1999/xlink" version="1.1" baseProfile="full" viewBox="0 0 200 200" width="200" height="200">
<g fill="black">
<polygon points="65,32 172,32 172,36 65,36 " />
<polygon points="172,32 148,34 160,22 " />
<polygon points="71,32 71,96 59,96 59,26 " />
<polygon points="21,92 183,92 183,96 21,96 " />
<polygon points="183,92 159,94 171,82 " />
<polygon points="137,32 137,169 125,169 125,32 " />
<polygon points="137,169 134.6,172.6 131,175 127.4,172.6 125,169 " />
<polygon points="137,169 136.8,171.5 136.4,174 135.6,176.4 134.3,178.7 132.7,180.7 130.7,182.3 128.4,183.6 126,184.4 123.5,184.8 121,185 121,173 122.2,172.9 123.1,172.7 123.7,172.5 124,172.4 124.2,172.2 124.4,172 124.5,171.7 124.7,171.1 124.9,170.2 125,169 " />
<polygon points="121,179 121,173 101,173 101,176 " />
<polygon points="137.7,94 134.8,97.5 125.8,108.3 116.4,118.4 106.3,127.8 95.8,136.6 84.7,144.6 73.1,152 60.9,158.6 48.2,164.5 35,169.6 21.2,173.8 20.7,172.1 33.6,166.1 45.9,159.7 57.7,152.9 69,145.6 79.7,137.8 89.9,129.4 99.5,120.5 108.6,111 117.1,101 122.3,94 " />
</g>
</svg>
