<svg xmlns="http://www.w3.org/2000/svg" xmlns:xlink="http://www.w3.org/1999/xlink" version="1.1" baseProfile="full" viewBox="0 0 200 200" width="200" height="200">
<g fill="black">
<polygon points="57.2,17.6 60.5,18.8 63.8,20.1 66.9,21.9 69.8,24 72.6,26.5 75.1,29.3 77.4,32.4 79.5,35.8 81.3,39.5 82.9,43.5 71.4,46.6 70.7,43.2 69.9,39.9 68.9,36.9 67.7,33.9 66.4,31.2 64.9,28.6 63.1,26 61.2,23.6 59,21.2 56.4,19.2 " />
<polygon points="82.9,43.5 82.3,48 78.7,50.8 74.2,50.2 71.4,46.6 " />
<polygon points="141,21.4 139.2,24.2 137.4,27.1 135.4,30.1 133.4,33.3 131.1,36.6 128.8,39.9 126.3,43.4 123.6,47 120.7,50.6 117.7,54.4 116.2,53.5 117.9,49 119.5,44.7 121.1,40.5 122.6,36.6 124.1,32.8 125.4,29.2 126.7,25.7 128,22.4 129.1,19.3 130.1,16.3 " />
<polygon points="130.1,16.3 141,21.4 130.6,15.2 " />
<polygon points="141,21.4 142.8,24.5 135.7,25.6 " />
<polygon points="23,54 175,54 175,58 23,58 " />
<polygon points="175,54 151,56 163,44 " />
<polygon points="86,54 86,183 74,183 74,54 " />
<polygon points="122,54 122,183 110,183 110,54 " />
<polygon points="15,179 186,179 186,183 15,183 " />
<polygon points="186,179 162,181 174,169 " />
<polygon points="49,83 49,149 37,155 37,81 " />
<polygon points="49,83 52,85 49,87 " />
<polygon points="43,133 80,133 80,137 43,137 " />
<polygon points="116,133 151,133 151,137 116,137 " />
<polygon points="157,83 157,143 145,149 145,81 " />
<polygon points="157,83 160,85 157,87 " />
</g>
</svg>
