<svg xmlns="http://www.w3.org/2000/svg" xmlns:xlink="http://www.w3.org/1999/xlink" version="1.1" baseProfile="full" viewBox="0 0 200 200" width="200" height="200">
<g fill="black">
<polygon points="70.8,24.7 70.8,130.9 58.8,136.9 58.8,18.7 " />
<polygon points="64.8,24.7 119.2,24.7 119.2,28.7 64.8,28.7 " />
<polygon points="119.2,24.7 95.2,26.7 107.2,14.7 " />
<polygon points="95.6,24.7 95.6,60.3 83.6,60.3 83.6,24.7 " />
<polygon points="64.8,56.3 110.7,56.3 110.7,60.3 64.8,60.3 " />
<polygon points="116.2,58.3 116.2,102.4 105.2,107.9 105.2,58.3 " />
<polygon points="105.2,56.3 110.7,51.3 121.2,60.3 116.2,63.8 105.2,58.3 " />
<polygon points="64.8,92.4 110.7,92.4 110.7,96.4 64.8,96.4 " />
<polygon points="95.6,92.4 95.6,130.9 83.6,130.9 83.6,92.4 " />
<polygon points="64.8,126.9 121,126.9 121,130.9 64.8,130.9 " />
<polygon points="121,126.9 97,128.9 109,116.9 " />
<polygon points="134,26 172,26 172,30 134,30 " />
<polygon points="178,28 178,82 166,88 166,28 " />
<polygon points="166,26 172,21 183,30 178,34 166,28 " />
<polygon points="134,72 172,72 172,76 134,76 " />
<polygon points="139.5,26 139.5,120 128.5,120 128.5,20.5 " />
<polygon points="139.5,120 137.3,123.3 134,125.5 130.7,123.3 128.5,120 " />
<polygon points="139.5,120 139.6,121.2 139.8,122.2 140,122.8 140.3,123.2 140.5,123.4 140.8,123.5 141.2,123.7 141.8,123.8 142.7,123.9 144,124 144,136 141.4,135.8 138.9,135.3 136.5,134.4 134.3,133.2 132.4,131.5 130.8,129.5 129.7,127.3 128.9,124.9 128.5,122.5 128.5,120 " />
<polygon points="144,124 148.2,125.8 150,130 148.2,134.2 144,136 " />
<polygon points="144,124 180,124 180,136 144,136 " />
<polygon points="180,124 183.6,126.4 186,130 183.6,133.6 180,136 " />
<polygon points="174,125 180,99 182,99 180,125 " />
<polygon points="43.8,146.3 44.1,151.6 44.2,156.6 43.7,161.4 42.8,166 41.4,170.3 39.6,174.3 37.2,178 34.4,181.4 31,184.3 27.3,186.9 22,176.1 24.8,174.9 27.5,173.4 29.9,171.5 32.2,169.3 34.3,166.6 36.2,163.5 38,159.9 39.6,155.8 41,151.3 42,146.2 " />
<polygon points="27.3,186.9 22.7,187.1 19.3,184.2 19,179.6 22,176.1 " />
<polygon points="70.3,147.2 73.2,149.8 76.1,152.4 78.7,155.2 80.9,158.1 82.8,161.2 84.4,164.5 85.6,167.8 86.5,171.4 87.1,175 87.2,178.7 75.3,177.4 75.8,174.9 76.2,172.2 76.2,169.6 76,166.8 75.6,164 74.9,161 73.9,158 72.6,154.8 71.1,151.5 69,148.4 " />
<polygon points="87.2,178.7 85,182.7 80.6,184 76.6,181.8 75.3,177.4 " />
<polygon points="108.3,147 112.2,149.5 115.9,152 119.3,154.6 122.4,157.4 125.1,160.4 127.5,163.5 129.6,166.8 131.3,170.2 132.6,173.7 133.6,177.4 121.7,178.7 121.6,176.1 121.3,173.4 120.7,170.6 119.8,167.7 118.5,164.7 116.9,161.6 115,158.4 112.8,155.1 110.2,151.7 107.2,148.4 " />
<polygon points="133.6,177.4 132.3,181.8 128.3,184 123.9,182.7 121.7,178.7 " />
<polygon points="148.3,146 153.3,148.7 157.9,151.4 162.2,154.4 166,157.4 169.6,160.6 172.7,163.9 175.5,167.3 178,170.8 180.1,174.4 181.8,178.2 170.3,181.7 169.6,178.8 168.6,175.7 167.2,172.5 165.4,169.3 163.3,165.9 160.8,162.4 157.9,158.9 154.7,155.2 151.2,151.4 147.2,147.5 " />
<polygon points="181.8,178.2 181.3,182.8 177.8,185.7 173.3,185.2 170.3,181.7 " />
<polygon points="22.6,21.7 25.3,22.9 28.1,23.8 30.8,25 33.3,26.3 35.7,27.8 37.9,29.5 40.1,31.4 42,33.5 43.8,35.7 45.5,38 34.5,42.9 34,40.9 33.4,39 32.5,37 31.6,35 30.4,33 29.1,31 27.6,29 25.9,27 24.1,24.9 21.8,23.3 " />
<polygon points="45.5,38 45.5,42.6 42.4,46 37.9,46 34.5,42.9 " />
<polygon points="17.2,93.9 21.1,97.2 24.7,100.8 27.8,104.7 30.5,108.9 32.7,113.2 34.5,117.8 35.8,122.6 36.7,127.5 37.2,132.6 37.2,137.8 25.3,136.6 25.9,132.4 26.1,128.2 26,124.1 25.6,120 24.9,115.9 23.8,111.9 22.3,107.8 20.5,103.6 18.4,99.4 15.9,95.1 " />
<polygon points="37.2,137.8 35,141.8 30.6,143.2 26.6,141 25.3,136.6 " />
<polygon points="21,106.1 23.6,102.4 26.3,98 29.2,93.1 32.3,87.4 35.6,81.2 39.1,74.4 42.8,67 46.7,58.9 50.9,50.4 55.4,41.3 57.1,41.9 54.4,51.8 51.6,60.9 48.8,69.5 46.1,77.4 43.4,84.7 40.8,91.4 38.2,97.5 35.8,103 33.5,108 31.2,112.4 " />
</g>
</svg>
