<svg xmlns="http://www.w3.org/2000/svg" xmlns:xlink="http://www.w3.org/1999/xlink" version="1.1" baseProfile="full" viewBox="0 0 200 200" width="200" height="200">
<g fill="black">
<polygon points="51,24 111,24 111,28 51,28 " />
<polygon points="111,24 87,26 99,14 " />
<polygon points="100.8,27 102.5,49.4 105.5,70 109.9,88.8 115.8,105.8 123.3,121 132.3,134.5 142.7,146.2 154.7,156.3 168.3,164.9 183.5,171.8 178.4,184.1 162.1,175.8 147.6,165.7 134.8,153.9 124,140.5 115.1,125.4 108,108.8 102.9,90.6 99.6,70.9 98.3,49.6 99,26.9 " />
<polygon points="178.4,184.1 183.5,171.8 189.9,174.5 " />
<polygon points="105.9,69.7 102.7,87.5 98,104 92,119.3 84.6,133.2 75.8,145.8 65.7,156.9 54.3,166.6 41.5,174.9 27.5,181.6 12.2,186.8 11.7,185.1 25.9,178.2 38.7,170.4 50.2,161.5 60.3,151.6 69.1,140.6 76.6,128.5 82.8,115.3 87.8,100.8 91.5,85.1 94,68.2 " />
<polygon points="98.9,26.9 100.4,34.1 101.6,41 102.5,47.6 103.1,54 103.6,60 103.9,65.8 104,71.2 103.9,76.4 103.7,81.3 103.4,86 91.5,84 92.4,79.9 93.2,75.4 94,70.6 94.6,65.4 95.1,59.9 95.5,54 95.9,47.8 96.3,41.2 96.7,34.3 97.1,27 " />
<polygon points="103.4,86 100.9,89.8 96.5,90.9 92.6,88.4 91.5,84 " />
</g>
</svg>
