<svg xmlns="http://www.w3.org/2000/svg" xmlns:xlink="http://www.w3.org/1999/xlink" version="1.1" baseProfile="full" viewBox="0 0 200 200" width="200" height="200">
<g fill="black">
<polygon points="101.9,19.5 95.9,30.3 89.2,40.7 82,50.8 74.2,60.5 65.7,69.8 56.7,78.7 47.1,87.1 36.9,95.2 26,102.7 14.5,109.7 13.4,108.2 23.7,99.7 33.5,91 42.7,82.3 51.3,73.3 59.4,64.1 66.9,54.6 73.8,44.9 80.2,35 85.9,24.7 91.1,14.2 " />
<polygon points="91.1,14.2 101.9,19.5 91.7,13.1 " />
<polygon points="101.9,19.5 103.7,22.6 96.6,23.6 " />
<polygon points="95.3,22.3 103.2,31.4 111.1,40.1 119.1,48.1 127.3,55.5 135.6,62.3 144.1,68.5 152.8,74 161.8,78.9 170.9,83.2 180.3,86.8 175.6,99.1 165.6,94.5 156.1,89.2 146.9,83.3 138,76.7 129.6,69.5 121.5,61.6 113.8,53.1 106.6,43.9 99.9,33.9 93.8,23.3 " />
<polygon points="175.6,99.1 180.3,86.8 187.1,89.4 " />
<polygon points="59,87 137,87 137,91 59,91 " />
<polygon points="137,87 113,89 125,77 " />
<polygon points="40,117 160,117 160,121 40,121 " />
<polygon points="160,117 136,119 148,107 " />
<polygon points="108.9,119 108.9,119.1 107.9,128.4 105.9,137.2 102.8,145.3 98.6,152.8 93.5,159.6 87.5,165.6 80.5,170.9 72.6,175.3 63.9,179 54.3,181.8 53.6,180.1 62.3,175.5 69.9,170.7 76.5,165.6 82.2,160.1 86.9,154.3 90.6,148.1 93.5,141.5 95.5,134.5 96.6,126.9 96.9,119 " />
</g>
</svg>
