<svg xmlns="http://www.w3.org/2000/svg" xmlns:xlink="http://www.w3.org/1999/xlink" version="1.1" baseProfile="full" viewBox="0 0 200 200" width="200" height="200">
<g fill="black">
<polygon points="21,57 182,57 182,61 21,61 " />
<polygon points="182,57 158,59 170,47 " />
<polygon points="87,19 87,48 75,48 75,17 " />
<polygon points="87,19 90,21 87,23 " />
<polygon points="87,48 84.6,51.6 81,54 77.4,51.6 75,48 " />
<polygon points="87,48 86,65.1 83.6,81.6 79.8,97.4 74.6,112.4 68,126.8 60.1,140.4 50.8,153.2 40.1,165.3 28,176.4 14.5,186.7 13.4,185.2 25.4,173.6 36.1,161.7 45.5,149.3 53.6,136.5 60.4,123.1 65.9,109.2 70.1,94.8 73,79.8 74.6,64.2 75,48 " />
<polygon points="97,80 97,162 85,162 85,78 " />
<polygon points="97,80 100,82 97,84 " />
<polygon points="97,162 94.6,165.6 91,168 87.4,165.6 85,162 " />
<polygon points="97,162 97,163.2 97.2,164.1 97.4,164.7 97.5,165 97.7,165.2 97.9,165.4 98.2,165.5 98.8,165.7 99.7,165.9 101,166 101,178 98.4,177.8 95.9,177.4 93.5,176.6 91.2,175.3 89.2,173.7 87.6,171.7 86.3,169.4 85.5,167 85.1,164.5 85,162 " />
<polygon points="101,166 105.2,167.8 107,172 105.2,176.2 101,178 " />
<polygon points="101,166 181,166 181,178 101,178 " />
<polygon points="181,166 184.6,168.4 187,172 184.6,175.6 181,178 " />
<polygon points="175,167 181,141 183,141 181,167 " />
<polygon points="108.2,23.5 112.2,24.8 116.2,26 120,27.5 123.5,29.2 126.9,31.1 130.1,33.1 133.2,35.4 136,37.8 138.7,40.3 141.2,43.1 131.3,49.9 129.9,47.3 128.2,44.8 126.4,42.2 124.4,39.8 122.1,37.3 119.6,34.8 116.9,32.4 114,29.9 110.9,27.4 107.5,25.2 " />
<polygon points="141.2,43.1 142.1,47.6 139.6,51.4 135.2,52.3 131.3,49.9 " />
<polygon points="162,76.7 157.8,79.9 153.4,83 148.8,85.9 144,88.8 139.1,91.5 134,94 128.8,96.4 123.3,98.7 117.6,100.6 111.7,102.3 111,100.7 116,97.2 120.8,93.9 125.6,90.7 130.2,87.5 134.6,84.3 138.9,81 142.9,77.8 146.8,74.5 150.5,71.1 154.1,67.7 " />
<polygon points="154.1,67.7 162,76.7 154.2,67.5 " />
<polygon points="162,76.7 162.5,80.3 155.5,78.4 " />
<polygon points="166.4,102.4 161.8,105.9 157.1,109.3 152.1,112.4 147,115.5 141.6,118.3 136,120.9 130.3,123.4 124.3,125.6 118.1,127.5 111.7,129.1 111,127.4 116.6,124 122.1,120.7 127.3,117.5 132.4,114.3 137.3,111 141.9,107.6 146.4,104.2 150.6,100.7 154.6,97.1 158.4,93.5 " />
<polygon points="158.4,93.5 166.4,102.4 158.6,93.3 " />
<polygon points="166.4,102.4 166.9,106 159.9,104.2 " />
<polygon points="171.7,128 166.1,132.6 160.2,136.9 154,140.8 147.5,144.5 140.7,147.8 133.6,150.8 126.2,153.5 118.5,155.8 110.4,157.7 102.1,159 101.6,157.3 109.3,154 116.6,150.7 123.7,147.4 130.4,143.9 136.7,140.3 142.7,136.5 148.4,132.5 153.8,128.3 158.8,123.9 163.4,119.3 " />
<polygon points="163.4,119.3 171.7,128 163.7,119.1 " />
<polygon points="171.7,128 172.3,131.6 165.2,130 " />
</g>
</svg>
