<svg xmlns="http://www.w3.org/2000/svg" xmlns:xlink="http://www.w3.org/1999/xlink" version="1.1" baseProfile="full" viewBox="0 0 200 200" width="200" height="200">
<g fill="black">
<polygon points="40.5,28.9 40.5,77.8 28.5,83.8 28.5,22.9 " />
<polygon points="34.5,28.9 161.4,28.9 161.4,32.9 34.5,32.9 " />
<polygon points="167.4,30.9 167.4,74.8 155.4,80.8 155.4,30.9 " />
<polygon points="155.4,28.9 161.4,23.9 172.4,32.9 167.4,36.9 155.4,30.9 " />
<polygon points="82.8,28.9 82.8,70.8 70.8,70.8 70.8,28.9 " />
<polygon points="125.1,28.9 125.1,70.8 113.1,70.8 113.1,28.9 " />
<polygon points="34.5,66.8 161.4,66.8 161.4,70.8 34.5,70.8 " />
<polygon points="106,80 106,171 94,171 94,78 " />
<polygon points="106,80 109,82 106,84 " />
<polygon points="106,171 103.6,174.6 100,177 96.4,174.6 94,171 " />
<polygon points="106,171 105.8,173.5 105.4,176 104.6,178.4 103.3,180.7 101.7,182.7 99.7,184.3 97.4,185.6 95,186.4 92.5,186.8 90,187 90,175 91.2,174.9 92.1,174.7 92.7,174.5 93,174.4 93.2,174.2 93.4,174 93.5,173.7 93.7,173.1 93.9,172.2 94,171 " />
<polygon points="90,181 90,175 70,175 70,178 " />
<polygon points="34.1,94.3 38.7,94.9 43.3,95.6 47.7,96.8 51.9,98.2 56,100 60,102 63.8,104.3 67.5,106.8 71.1,109.7 74.4,112.7 65.5,120.7 63.1,117.7 60.5,114.8 57.8,112 54.9,109.4 51.9,106.9 48.6,104.6 45.2,102.3 41.6,100.2 37.7,98 33.7,96.1 " />
<polygon points="74.4,112.7 75.9,117.1 73.9,121.2 69.6,122.6 65.5,120.7 " />
<polygon points="26.7,157.3 31.5,154.7 36.9,151.9 42.8,148.7 49.3,145.3 56.3,141.7 63.8,137.8 71.8,133.6 80.4,129.3 89.7,124.8 99.5,120.2 100.4,121.7 91.6,128 83.1,133.9 75.1,139.3 67.6,144.3 60.6,149 54,153.3 48,157.3 42.5,161.1 37.4,164.5 32.9,167.6 " />
<polygon points="32.9,167.6 26.7,157.3 25,158.3 " />
<polygon points="32.9,167.6 36.2,169.1 36.5,161.9 " />
<polygon points="163.8,102.3 160.1,104.8 156.1,107.4 152,110.1 147.6,112.9 143,115.8 138.2,118.7 133.2,121.7 127.9,124.8 122.3,127.8 116.5,130.7 115.4,129.2 120.2,124.7 124.8,120.4 129.3,116.4 133.8,112.6 138,108.9 142.1,105.4 145.9,102.1 149.6,98.9 153.2,95.8 156.5,92.8 " />
<polygon points="156.5,92.8 163.8,102.3 156.5,92.8 " />
<polygon points="163.8,102.3 164.1,105.9 157.3,103.6 " />
<polygon points="102.1,88.7 107.2,100.7 112.7,111.7 118.4,121.6 124.6,130.4 131.3,138.1 138.4,144.8 146,150.5 154.1,155.1 162.6,158.8 171.7,161.6 168.2,174.3 157.9,170.4 148.3,165.5 139.5,159.4 131.5,152.3 124.2,144.3 117.8,135.2 112.1,125.1 107.3,114.1 103.3,102.1 100.4,89.2 " />
<polygon points="168.2,174.3 171.7,161.6 179.9,163.9 " />
</g>
</svg>
