<svg xmlns="http://www.w3.org/2000/svg" xmlns:xlink="http://www.w3.org/1999/xlink" version="1.1" baseProfile="full" viewBox="0 0 200 200" width="200" height="200">
<g fill="black">
<polygon points="37,44 37,183 25,189 25,38 " />
<polygon points="31,44 169,44 169,48 31,48 " />
<polygon points="175,46 175,172 163,172 163,46 " />
<polygon points="163,44 169,39 180,48 175,52 163,46 " />
<polygon points="175,172 172.6,175.6 169,178 165.4,175.6 163,172 " />
<polygon points="175,172 174.8,174.5 174.4,177 173.6,179.4 172.3,181.7 170.7,183.7 168.7,185.3 166.4,186.6 164,187.4 161.5,187.8 159,188 159,176 160.2,175.9 161.1,175.7 161.7,175.5 162,175.4 162.2,175.2 162.4,175 162.5,174.7 162.7,174.1 162.9,173.2 163,172 " />
<polygon points="159,182 159,176 139,176 139,179 " />
<polygon points="106,15 106,79 94,85 94,13 " />
<polygon points="106,15 109,17 106,19 " />
</g>
</svg>
