<svg xmlns="http://www.w3.org/2000/svg" xmlns:xlink="http://www.w3.org/1999/xlink" version="1.1" baseProfile="full" viewBox="0 0 200 200" width="200" height="200">
<g fill="black">
<polygon points="28.2,20.6 32.1,21.8 35.9,23.1 39.5,24.6 43,26.2 46.4,28.1 49.6,30.2 52.7,32.4 55.6,34.7 58.3,37.3 61,40 51.4,47.2 49.7,44.5 47.9,41.9 46,39.3 43.9,36.8 41.6,34.3 39.1,31.8 36.5,29.4 33.7,26.9 30.7,24.4 27.5,22.2 " />
<polygon points="61,40 62,44.4 59.8,48.4 55.3,49.4 51.4,47.2 " />
<polygon points="17.2,56.5 21.1,57.6 24.9,58.6 28.6,60 32.2,61.5 35.7,63.3 39.1,65.2 42.4,67.3 45.5,69.6 48.6,72.1 51.5,74.7 42.5,82.6 40.5,79.9 38.3,77.2 36.1,74.7 33.7,72.2 31.2,69.7 28.5,67.3 25.7,65 22.8,62.6 19.8,60.3 16.5,58.2 " />
<polygon points="51.5,74.7 52.9,79.1 50.9,83.2 46.6,84.6 42.5,82.6 " />
<polygon points="14,105 50,105 50,109 14,109 " />
<polygon points="56,107 56,155 44,161 44,107 " />
<polygon points="44,105 50,100 61,109 56,113 44,107 " />
<polygon points="13.8,173.3 17.6,171.4 21.4,169.6 25.3,167.6 29.2,165.6 33.2,163.6 37.2,161.5 41.4,159.4 45.6,157.3 50,155.3 54.4,153.2 55.5,154.7 52,158.1 48.4,161.5 44.9,164.6 41.3,167.7 37.7,170.6 34.1,173.3 30.5,176 26.9,178.7 23.3,181.2 19.8,183.6 " />
<polygon points="19.8,183.6 13.8,173.3 12.1,174.3 " />
<polygon points="19.8,183.6 23.1,185.2 23.5,178 " />
<polygon points="54.3,152.2 59.5,156.8 64.9,160.7 70.8,164.1 78,166.8 87.1,169 98.6,170.6 113,171.6 130.9,171.9 152.6,171.5 178.7,170.4 179.2,183.5 152.9,184 130.7,183.7 112.3,182.6 97.2,180.8 85,178.1 75.1,174.6 67.2,170.3 61.1,165.3 56.4,159.6 52.8,153.3 " />
<polygon points="179.2,183.5 178.7,170.4 190,169.9 " />
</g>
</svg>
