<svg xmlns="http://www.w3.org/2000/svg" xmlns:xlink="http://www.w3.org/1999/xlink" version="1.1" baseProfile="full" viewBox="0 0 200 200" width="200" height="200">
<g fill="black">
<polygon points="77.5,18.4 74.2,29.1 70.3,39.8 66,50.2 61.2,60.6 55.9,70.8 50.2,80.9 43.9,90.9 37.1,100.7 29.7,110.2 21.7,119.5 20.2,118.4 26.6,108 32.6,97.7 38.2,87.5 43.5,77.3 48.3,67.1 52.7,56.8 56.7,46.5 60.2,36.2 63.3,25.8 65.9,15.4 " />
<polygon points="65.9,15.4 77.5,18.4 66.3,13.7 " />
<polygon points="77.5,18.4 79.9,21.1 73.1,23.5 " />
<polygon points="62,53 168,53 168,57 62,57 " />
<polygon points="173.9,55 173.6,73.6 172.8,90.8 171.7,106.5 170.1,120.9 168.2,133.8 165.9,145.3 163.2,155.5 160,164.4 156.3,171.9 152,178.1 142.8,170.4 145.9,165.9 148.9,159.7 151.7,152 154.2,142.6 156.4,131.8 158.2,119.4 159.7,105.5 160.8,90.1 161.6,73.2 162,54.9 " />
<polygon points="162,53 168,48 179,57 174,61 168,61 " />
<polygon points="152,178.1 147.9,180.2 143.5,178.9 141.5,174.8 142.8,170.4 " />
<polygon points="152,178.1 150.3,180 148.6,181.6 146.7,183.1 144.7,184.4 142.6,185.5 140.4,186.4 138.1,187.1 135.8,187.6 133.4,187.9 131,188 131,176 132.4,175.9 133.8,175.7 135.1,175.4 136.4,175.1 137.5,174.6 138.6,174 139.7,173.3 140.8,172.5 141.8,171.5 142.8,170.4 " />
<polygon points="131,182 131,176 111,176 111,179 " />
<polygon points="71.3,84.6 77.5,87 83.4,89.9 89,93.3 94.3,97.1 99.3,101.2 104,105.6 108.5,110.4 112.6,115.4 116.4,120.8 119.9,126.5 109.2,132 106.6,126.7 103.7,121.5 100.5,116.5 97.1,111.7 93.3,107.1 89.3,102.7 85,98.5 80.4,94.4 75.5,90.3 70.4,86.2 " />
<polygon points="119.9,126.5 120.2,131.1 117.3,134.6 112.8,134.9 109.2,132 " />
</g>
</svg>
