<svg xmlns="http://www.w3.org/2000/svg" xmlns:xlink="http://www.w3.org/1999/xlink" version="1.1" baseProfile="full" viewBox="0 0 200 200" width="200" height="200">
<g fill="black">
<polygon points="17,33 99,33 99,37 17,37 " />
<polygon points="99,33 75,35 87,23 " />
<polygon points="63,15 63,62 51,62 51,13 " />
<polygon points="63,15 66,17 61,20 " />
<polygon points="26,58 93,58 93,62 26,62 " />
<polygon points="93,58 73,60 83,49 " />
<polygon points="24.1,66.7 25.6,70.7 27.1,74.7 28.2,78.5 28.9,82.4 29.3,86.1 29.3,89.8 29,93.4 28.2,97 27.1,100.5 25.6,103.8 15.6,97.1 17.2,95.3 18.5,93.2 19.7,90.9 20.7,88.4 21.6,85.5 22.2,82.4 22.6,79 22.8,75.3 22.8,71.3 22.3,67.2 " />
<polygon points="25.6,103.8 21.8,106.3 17.3,105.4 14.8,101.6 15.6,97.1 " />
<polygon points="25,75 95,75 95,79 25,79 " />
<polygon points="100.7,78.7 99.4,81.3 98.1,84 96.6,86.6 95.1,89.3 93.4,91.9 91.7,94.6 89.9,97.3 87.9,100 85.7,102.6 83.7,105.4 82.2,104.5 83.3,101.4 84.1,98.1 84.9,95 85.7,91.9 86.5,89 87.1,86.1 87.8,83.2 88.3,80.5 88.8,77.8 89.2,75.2 " />
<polygon points="89,75 95,70 106,79 101,82 89,87 " />
<polygon points="33,93 88,93 88,97 33,97 " />
<polygon points="88,93 64,95 76,83 " />
<polygon points="92.6,112.3 87.8,113.1 82.4,113.8 76.3,114.5 69.7,115.2 62.5,115.9 54.6,116.5 46.1,117 37,117.5 27.3,117.8 16.9,117.9 16.7,116.1 26.9,114 36.4,112.2 45.3,110.5 53.6,109 61.3,107.5 68.3,106 74.7,104.6 80.4,103.3 85.4,101.9 89.8,100.6 " />
<polygon points="88.9,100.9 92.6,112.3 100.4,110.4 " />
<polygon points="100.4,110.4 100.7,113.4 93.5,110 " />
<polygon points="14.6,130.2 101.2,130.2 101.2,134.2 14.6,134.2 " />
<polygon points="101.2,130.2 77.2,132.2 89.2,120.2 " />
<polygon points="65.6,110.1 65.6,183.1 53.6,189.1 53.6,110.1 " />
<polygon points="63,132.2 61.6,134.7 58.7,139.7 55.4,144.5 51.7,149 47.6,153.3 43.1,157.4 38.3,161.2 33.1,164.8 27.5,168.1 21.4,171.1 15,173.6 14.1,172.1 19.5,167.8 24.4,163.7 29.1,159.6 33.3,155.5 37.2,151.3 40.7,147.1 43.8,142.8 46.5,138.5 48.8,134.1 49.6,132.2 " />
<polygon points="63,142.3 67.1,142.6 71,142.7 74.8,142.9 78.3,143.3 81.7,143.8 84.9,144.3 87.9,145 90.8,145.7 93.5,146.6 96.1,147.5 89.9,157.9 88.4,156.5 86.5,155.2 84.4,153.8 82,152.4 79.4,151.1 76.5,149.7 73.4,148.3 70.1,146.8 66.5,145.2 62.6,144 " />
<polygon points="96.1,147.5 98.8,151.2 98.2,155.8 94.5,158.5 89.9,157.9 " />
<polygon points="129.7,21.7 129.7,48.3 117.7,48.3 117.7,15.7 " />
<polygon points="129.7,48.3 127.3,51.9 123.7,54.3 120.1,51.9 117.7,48.3 " />
<polygon points="129.7,48.3 129.1,54.4 128.1,60.3 126.5,66 124.3,71.5 121.7,76.7 118.6,81.7 115,86.3 110.9,90.6 106.2,94.6 101,98.1 99.9,96.8 103.5,91.9 106.8,87.2 109.6,82.5 112.1,77.8 114.1,73.1 115.6,68.3 116.8,63.4 117.5,58.5 117.8,53.4 117.7,48.3 " />
<polygon points="123.7,21.7 158.2,21.7 158.2,25.7 123.7,25.7 " />
<polygon points="164.2,23.7 164.2,70 152.2,70 152.2,23.7 " />
<polygon points="152.2,21.7 158.2,16.7 169.2,25.7 164.2,29.7 152.2,23.7 " />
<polygon points="164.2,70 161.8,73.6 158.2,76 154.6,73.6 152.2,70 " />
<polygon points="164.2,70 164.2,71.3 164.2,72.2 164.3,72.9 164.5,73.3 164.6,73.6 164.8,73.9 165.2,74.3 165.9,74.6 166.9,74.9 168.2,75 168.2,85 165.7,85 163.3,84.7 161,84 158.8,82.9 156.8,81.4 155.1,79.5 153.9,77.4 153,75 152.4,72.6 152.2,70 " />
<polygon points="168.2,75 171.7,76.5 173.2,80 171.7,83.5 168.2,85 " />
<polygon points="168.2,75 182.2,75 182.2,85 168.2,85 " />
<polygon points="182.2,75 185.2,77 187.2,80 185.2,83 182.2,85 " />
<polygon points="177.2,76 182.2,58 184.2,58 182.2,76 " />
<polygon points="110.2,100.6 166.5,100.6 166.5,104.6 110.2,104.6 " />
<polygon points="172.3,104 168,117.6 162.9,130.1 157,141.5 150.2,151.8 142.7,161 134.3,169 125.1,175.8 115.2,181.3 104.5,185.6 93.2,188.5 92.7,186.8 103.1,182.1 112.6,176.7 121.3,170.4 129.1,163.4 136.2,155.4 142.6,146.5 148.2,136.7 153.1,125.8 157.2,114 160.6,101.1 " />
<polygon points="160.5,100.6 166.5,95.6 177.5,104.6 172.5,107.6 160.5,112.6 " />
<polygon points="121,103.4 124.6,114.7 128.6,124.9 133,134.1 138.1,142.2 143.7,149.4 149.9,155.5 156.7,160.7 164.1,165 172.2,168.5 180.9,171 177.5,183.8 167.5,180.1 158.4,175.3 150.1,169.6 142.8,162.9 136.4,155.2 131,146.6 126.5,137.2 123,126.9 120.5,115.7 119.2,103.7 " />
<polygon points="177.5,183.8 180.9,171 189.2,173.3 " />
</g>
</svg>
