<svg xmlns="http://www.w3.org/2000/svg" xmlns:xlink="http://www.w3.org/1999/xlink" version="1.1" baseProfile="full" viewBox="0 0 200 200" width="200" height="200">
<g fill="black">
<polygon points="106,18 106,55 94,55 94,16 " />
<polygon points="106,18 109,20 106,22 " />
<polygon points="27,51 174,51 174,55 27,55 " />
<polygon points="174,51 150,53 162,41 " />
<polygon points="35,110 167,110 167,114 35,114 " />
<polygon points="167,110 143,112 155,100 " />
<polygon points="106,58 106,178 94,178 94,56 " />
<polygon points="106,58 109,60 106,62 " />
<polygon points="17,174 184,174 184,178 17,178 " />
<polygon points="184,174 160,176 172,164 " />
</g>
</svg>
