<svg xmlns="http://www.w3.org/2000/svg" xmlns:xlink="http://www.w3.org/1999/xlink" version="1.1" baseProfile="full" viewBox="0 0 200 200" width="200" height="200">
<g fill="black">
<polygon points="20,62 182,62 182,66 20,66 " />
<polygon points="182,62 158,64 170,52 " />
<polygon points="88.9,15.3 86.8,37.5 83.6,58.5 79.3,78.1 73.9,96.5 67.4,113.5 59.7,129.2 50.9,143.6 40.9,156.5 29.8,167.8 17.5,177.6 16.4,176.3 27.1,165.2 36.7,153.1 45.3,140 52.9,125.8 59.5,110.4 65.1,93.7 69.6,75.8 73.1,56.7 75.5,36.3 76.9,14.6 " />
<polygon points="76.9,14.6 88.9,15.3 77,12.4 " />
<polygon points="88.9,15.3 91.8,17.4 85.6,21.1 " />
<polygon points="148.2,89 141.6,103.9 133.7,117.8 124.5,130.6 114.1,142.4 102.4,153.1 89.5,162.7 75.5,171.3 60.3,178.6 43.8,184.8 26.2,189.8 25.7,188.1 42.5,181.3 57.9,173.8 72.2,165.6 85.1,156.6 96.8,146.7 107.3,136.1 116.5,124.6 124.5,112.2 131.3,99 137,84.8 " />
<polygon points="137,84.8 148.2,89 137.5,83.4 " />
<polygon points="148.2,89 150.4,91.9 143.3,93.6 " />
<polygon points="75.1,90.6 81.3,104.5 88.1,117.1 95.8,128.5 104.4,138.6 113.9,147.5 124.3,155.2 135.7,161.7 148.2,167.1 161.6,171.3 176.2,174.5 173.7,187.4 158.2,183.4 143.8,178 130.5,171.4 118.5,163.5 107.7,154.4 98.1,144.1 89.9,132.6 82.9,119.9 77.4,106.1 73.4,91.2 " />
<polygon points="173.7,187.4 176.2,174.5 185.5,176.3 " />
<polygon points="109.3,14.9 113.3,17.5 117.2,20 120.8,22.6 124.2,25.3 127.3,28.1 130.2,30.9 133,33.7 135.5,36.6 137.8,39.5 139.8,42.5 129.2,48.1 128.1,45.3 126.7,42.4 125.1,39.5 123.3,36.4 121.3,33.3 119,30.1 116.6,26.8 114,23.4 111.2,19.8 108.1,16.3 " />
<polygon points="139.8,42.5 140.2,47 137.4,50.6 132.8,51 129.2,48.1 " />
</g>
</svg>
