<svg xmlns="http://www.w3.org/2000/svg" xmlns:xlink="http://www.w3.org/1999/xlink" version="1.1" baseProfile="full" viewBox="0 0 200 200" width="200" height="200">
<g fill="black">
<polygon points="106,14 106,134 94,134 94,12 " />
<polygon points="106,14 109,16 106,18 " />
<polygon points="18,87 188,87 188,91 18,91 " />
<polygon points="188,87 164,89 176,77 " />
<polygon points="56,44 56,184 44,190 44,38 " />
<polygon points="50,44 152,44 152,48 50,48 " />
<polygon points="158,46 158,173 146,173 146,46 " />
<polygon points="146,44 152,39 163,48 158,52 146,46 " />
<polygon points="158,173 155.6,176.6 152,179 148.4,176.6 146,173 " />
<polygon points="158,173 157.8,175.5 157.4,178 156.6,180.4 155.3,182.7 153.7,184.7 151.7,186.3 149.4,187.6 147,188.4 144.5,188.8 142,189 142,177 143.2,176.9 144.1,176.7 144.7,176.5 145,176.4 145.2,176.2 145.4,176 145.5,175.7 145.7,175.1 145.9,174.2 146,173 " />
<polygon points="142,183 142,177 122,177 122,180 " />
<polygon points="17,130 188,130 188,134 17,134 " />
<polygon points="188,130 164,132 176,120 " />
</g>
</svg>
