<svg xmlns="http://www.w3.org/2000/svg" xmlns:xlink="http://www.w3.org/1999/xlink" version="1.1" baseProfile="full" viewBox="0 0 200 200" width="200" height="200">
<g fill="black">
<polygon points="89.2,18.4 87,20.4 84.9,22.4 82.7,24.3 80.5,26 78.2,27.7 75.9,29.3 73.6,30.8 71.2,32.1 68.7,33.3 66.5,34.7 65.4,33.2 67.1,31.4 68.6,29.1 70,27 71.4,24.8 72.9,22.6 74.3,20.4 75.6,18.1 77,15.8 78.3,13.5 79.6,11.2 " />
<polygon points="79,12 89.2,18.4 80,10.5 " />
<polygon points="89.2,18.4 90.4,21.8 84.6,21.2 " />
<polygon points="56,32 56,116 44,122 44,26 " />
<polygon points="50,32 130,32 130,36 50,36 " />
<polygon points="136,34 136,70 124,76 124,34 " />
<polygon points="124,32 130,27 141,36 136,40 124,34 " />
<polygon points="50,49 130,49 130,53 50,53 " />
<polygon points="50,66 130,66 130,70 50,70 " />
<polygon points="50,83 158,83 158,87 50,87 " />
<polygon points="158,83 138,85 148,74 " />
<polygon points="50,100 158,100 158,104 50,104 " />
<polygon points="164,102 163.9,104.9 163.8,107.7 163.7,110.3 163.5,112.7 163.3,114.9 163,116.9 162.6,118.8 162.1,120.6 161.4,122.3 160.5,124 150.5,117.3 150.5,117.3 150.7,116.8 150.9,116 151.2,114.8 151.4,113.3 151.6,111.6 151.7,109.6 151.9,107.3 151.9,104.7 152,102 " />
<polygon points="152,100 158,95 169,104 164,107 152,112 " />
<polygon points="160.5,124 156.7,126.5 152.2,125.6 149.7,121.8 150.5,117.3 " />
<polygon points="160.5,124 159,126 157.4,127.8 155.6,129.5 153.7,130.9 151.7,132.2 149.5,133.2 147.2,134 144.9,134.5 142.4,134.8 140,135 140,123 141.4,122.9 142.7,122.7 143.9,122.4 145,122.1 146,121.6 147,121 147.9,120.3 148.8,119.5 149.7,118.5 150.5,117.3 " />
<polygon points="140,129 140,123 120,123 120,126 " />
<polygon points="18,136 181,136 181,140 18,140 " />
<polygon points="181,136 157,138 169,126 " />
<polygon points="105,113 105,185 93,191 93,111 " />
<polygon points="105,113 108,115 103,118 " />
<polygon points="97.8,144.5 93,149.9 87.5,155 81.3,159.9 74.5,164.5 66.9,168.8 58.6,173 49.6,176.9 39.9,180.5 29.4,183.9 18.2,186.8 17.7,185.1 28.1,180.3 37.8,175.6 46.8,170.9 55.1,166.3 62.5,161.6 69.2,156.8 75.1,152 80.2,147.1 84.5,142.3 88.1,137.4 " />
<polygon points="105.3,138.1 111.2,142.7 117.1,147.1 123.3,151.3 129.7,155.2 136.5,158.9 143.6,162.2 151,165.2 158.8,168 167.1,170.4 175.7,172.6 172.2,185.3 163.3,182.4 154.7,179 146.6,175.4 139,171.3 131.8,166.9 125.1,162.2 118.9,157.1 113.2,151.6 108.2,145.7 103.9,139.3 " />
<polygon points="172.2,185.3 175.7,172.6 184,174.8 " />
</g>
</svg>
