<svg xmlns="http://www.w3.org/2000/svg" xmlns:xlink="http://www.w3.org/1999/xlink" version="1.1" baseProfile="full" viewBox="0 0 200 200" width="200" height="200">
<g fill="black">
<polygon points="106,52 106,83 94,83 94,50 " />
<polygon points="106,52 109,54 106,56 " />
<polygon points="15,79 184,79 184,83 15,83 " />
<polygon points="184,79 160,81 172,69 " />
<polygon points="89.9,81 88.3,83.7 85.5,88.3 82.7,92.8 79.7,97.2 76.7,101.7 73.6,106.2 70.3,110.6 67,114.9 63.4,119.2 59.7,123.4 55.7,127.5 54.2,126.4 56.5,121.3 59,116.3 61.4,111.4 63.9,106.5 66.3,101.7 68.7,97 71,92.3 73.3,87.5 75.5,82.8 76.3,81 " />
<polygon points="29.2,125.9 41.1,124.8 53.2,123.6 65.4,122.4 77.8,121.2 90.4,120 103.1,118.7 116,117.4 129.1,116.2 142.4,115 155.8,114.1 156.1,115.8 142.9,118.8 129.9,121.5 116.9,123.9 104.1,126.2 91.5,128.4 79,130.4 66.7,132.4 54.5,134.3 42.5,136.1 30.6,137.8 " />
<polygon points="30.6,137.8 29.2,125.9 27.3,126.1 " />
<polygon points="30.6,137.8 33,140.5 36.3,134.1 " />
<polygon points="124.3,93.7 130,96.3 135.5,99.3 140.6,102.6 145.6,106.3 150.3,110.2 154.8,114.4 159,118.7 163.1,123.4 166.9,128.2 170.5,133.3 160.3,139.5 157.5,134.6 154.5,129.8 151.3,125.1 147.9,120.6 144.3,116.2 140.4,111.9 136.4,107.7 132.2,103.6 127.8,99.4 123.3,95.2 " />
<polygon points="170.5,133.3 171.2,137.8 168.5,141.5 164,142.2 160.3,139.5 " />
</g>
</svg>
