<svg xmlns="http://www.w3.org/2000/svg" xmlns:xlink="http://www.w3.org/1999/xlink" version="1.1" baseProfile="full" viewBox="0 0 200 200" width="200" height="200">
<g fill="black">
<polygon points="51,54 103,54 103,58 51,58 " />
<polygon points="109,56 109,170 97,170 97,56 " />
<polygon points="97,54 103,49 114,58 109,62 97,56 " />
<polygon points="109,170 106.6,173.6 103,176 99.4,173.6 97,170 " />
<polygon points="109,170 108.8,172.5 108.4,175 107.6,177.4 106.3,179.7 104.7,181.7 102.7,183.3 100.4,184.6 98,185.4 95.5,185.8 93,186 93,174 94.2,173.9 95.1,173.7 95.7,173.5 96,173.4 96.2,173.2 96.4,173 96.5,172.7 96.7,172.1 96.9,171.2 97,170 " />
<polygon points="93,180 93,174 73,174 73,177 " />
<polygon points="26,85 79,85 79,89 26,89 " />
<polygon points="84.9,87.9 82.2,99.3 78.7,110.1 74.3,120.4 68.9,130.1 62.7,139.1 55.6,147.6 47.6,155.4 38.7,162.6 29,169.1 18.4,174.7 17.5,173.2 26.8,165.9 35.3,158.5 43,150.8 49.8,142.7 55.7,134.3 60.8,125.4 65.1,116.2 68.6,106.6 71.2,96.5 73,86 " />
<polygon points="73,85 79,80 90,89 85,93 79,93 " />
<polygon points="174.3,75 170.5,78 166.4,81 162,83.9 157.3,86.7 152.3,89.5 147,92.2 141.3,94.8 135.4,97.3 129,99.6 122.3,101.8 121.6,100.1 127.4,96.2 132.9,92.6 138.1,89 143.1,85.6 147.8,82.3 152.1,79 156.1,75.7 159.8,72.5 163.1,69.4 166.1,66.3 " />
<polygon points="166.1,66.3 174.3,75 166.3,66 " />
<polygon points="174.3,75 174.9,78.6 167.9,76.9 " />
<polygon points="109,58.8 113,73.8 117.5,87.7 122.7,100.5 128.7,112.2 135.4,122.9 142.9,132.5 151.2,141.1 160.3,148.7 170.2,155.4 180.9,161 175,172.9 163.4,165.9 152.9,158 143.4,149 135,139 127.6,128 121.3,116.1 116,103.2 111.9,89.4 108.9,74.7 107.2,59.1 " />
<polygon points="175,172.9 180.9,161 186.3,163.7 " />
<polygon points="45,26 152,26 152,30 45,30 " />
<polygon points="152,26 128,28 140,16 " />
</g>
</svg>
