<svg xmlns="http://www.w3.org/2000/svg" xmlns:xlink="http://www.w3.org/1999/xlink" version="1.1" baseProfile="full" viewBox="0 0 200 200" width="200" height="200">
<g fill="black">
<polygon points="129.3,40.5 135.1,41.8 140.6,43.5 145.9,45.6 150.8,48.1 155.5,50.8 159.9,53.7 164,56.9 167.8,60.4 171.4,64.1 174.7,68.1 164.7,74.8 162.4,71.2 159.9,67.6 157,64.2 153.9,60.8 150.4,57.6 146.7,54.4 142.6,51.3 138.2,48.3 133.6,45.3 128.6,42.1 " />
<polygon points="174.7,68.1 175.5,72.6 173,76.4 168.5,77.3 164.7,74.8 " />
<polygon points="67.6,46.9 64.2,51.6 60.6,56.1 56.8,60.5 52.8,64.7 48.5,68.8 43.9,72.8 39.2,76.6 34.1,80.2 28.8,83.6 23.2,86.7 22.1,85.2 26.4,80.6 30.7,76.1 34.7,71.7 38.6,67.4 42.3,63 45.8,58.6 49,54.2 52,49.7 54.8,45.2 57.4,40.7 " />
<polygon points="57.4,40.7 67.6,46.9 57.9,39.8 " />
<polygon points="67.6,46.9 69.1,50.2 61.9,50.5 " />
<polygon points="49.2,73 154.6,73 154.6,77 49.2,77 " />
<polygon points="154.6,73 130.6,75 142.6,63 " />
<polygon points="15.7,103 186.1,103 186.1,107 15.7,107 " />
<polygon points="186.1,103 162.1,105 174.1,93 " />
<polygon points="106,39.5 100.7,55.5 94.6,70.5 87.7,84.6 80,97.6 71.5,109.7 62.2,120.7 52.2,130.7 41.3,139.5 29.6,147.3 17.1,153.7 16.3,152.2 27.5,144.1 37.9,135.4 47.6,126 56.5,115.7 64.7,104.7 72.1,92.8 78.8,80 84.7,66.4 89.9,51.8 94.4,36.3 " />
<polygon points="94.4,36.3 106,39.5 94.8,34.7 " />
<polygon points="106,39.5 108.3,42.2 101.5,44.5 " />
<polygon points="110.6,75.3 117.8,84.5 124.9,93 131.8,100.9 138.7,107.9 145.6,114.3 152.6,119.9 159.6,124.7 166.5,128.8 173.5,132.1 180.6,134.8 175.9,147.1 168.1,143.4 160.5,138.9 153.2,133.7 146.1,127.7 139.2,121 132.6,113.6 126.2,105.4 120.1,96.5 114.3,86.8 109,76.3 " />
<polygon points="175.9,147.1 180.6,134.8 187.5,137.3 " />
</g>
</svg>
