<svg xmlns="http://www.w3.org/2000/svg" xmlns:xlink="http://www.w3.org/1999/xlink" version="1.1" baseProfile="full" viewBox="0 0 200 200" width="200" height="200">
<g fill="black">
<polygon points="27,27 173,27 173,31 27,31 " />
<polygon points="173,27 149,29 161,17 " />
<polygon points="106.3,29 76,115.1 62.6,116.8 93.6,29 " />
<polygon points="75,98 125,98 125,102 75,102 " />
<polygon points="130.3,101 106.3,171 93.6,171 118.6,100 " />
<polygon points="119,98 125,93 136,102 131,105 119,110 " />
<polygon points="16,169 184,169 184,173 16,173 " />
<polygon points="184,169 160,171 172,159 " />
</g>
</svg>
