<svg xmlns="http://www.w3.org/2000/svg" xmlns:xlink="http://www.w3.org/1999/xlink" version="1.1" baseProfile="full" viewBox="0 0 200 200" width="200" height="200">
<g fill="black">
<polygon points="20,26 184,26 184,30 20,30 " />
<polygon points="184,26 160,28 172,16 " />
<polygon points="46,53 46,125 34,131 34,47 " />
<polygon points="40,53 163,53 163,57 40,57 " />
<polygon points="169,55 169,119 157,125 157,55 " />
<polygon points="157,53 163,48 174,57 169,61 157,55 " />
<polygon points="90,26 90,56 78,56 78,26 " />
<polygon points="90,56 87.6,59.6 84,62 80.4,59.6 78,56 " />
<polygon points="90,56 89.2,62.9 87.6,69.5 85,75.6 81.7,81.3 77.5,86.4 72.5,91 66.8,95.1 60.4,98.6 53.2,101.5 45.3,103.8 44.6,102.1 51.5,98.1 57.6,94 62.9,89.8 67.3,85.5 70.9,81 73.8,76.4 75.8,71.6 77.2,66.7 77.9,61.5 78,56 " />
<polygon points="122,26 122,79 110,79 110,26 " />
<polygon points="122,79 119.6,82.6 116,85 112.4,82.6 110,79 " />
<polygon points="122,79 122,80.2 122.2,81.1 122.4,81.7 122.5,82 122.7,82.2 122.9,82.4 123.2,82.5 123.8,82.7 124.7,82.9 126,83 126,95 123.4,94.8 120.9,94.4 118.5,93.6 116.2,92.3 114.2,90.7 112.6,88.7 111.3,86.4 110.5,84 110.1,81.5 110,79 " />
<polygon points="126,83 130.2,84.8 132,89 130.2,93.2 126,95 " />
<polygon points="126,83 148,83 148,95 126,95 " />
<polygon points="148,83 151.6,85.4 154,89 151.6,92.6 148,95 " />
<polygon points="142,84 148,58 150,58 148,84 " />
<polygon points="40,109 163,109 163,113 40,113 " />
<polygon points="39,146 168,146 168,150 39,150 " />
<polygon points="168,146 144,148 156,136 " />
<polygon points="107,119 107,184 95,184 95,117 " />
<polygon points="107,119 110,121 107,123 " />
<polygon points="18,180 184,180 184,184 18,184 " />
<polygon points="184,180 160,182 172,170 " />
</g>
</svg>
