<svg xmlns="http://www.w3.org/2000/svg" xmlns:xlink="http://www.w3.org/1999/xlink" version="1.1" baseProfile="full" viewBox="0 0 200 200" width="200" height="200">
<g fill="black">
<polygon points="24.3,24.6 28.8,26.4 33.1,28.2 37.2,30.3 41.1,32.7 44.8,35.2 48.2,37.9 51.4,40.7 54.4,43.8 57.1,47 59.6,50.3 49.3,56.4 47.7,53.3 46,50.2 44,47.2 41.8,44.2 39.3,41.2 36.6,38.2 33.7,35.2 30.5,32.2 27.1,29.2 23.4,26.2 " />
<polygon points="59.6,50.3 60.2,54.9 57.5,58.5 52.9,59.1 49.3,56.4 " />
<polygon points="14,91 50,91 50,95 14,95 " />
<polygon points="56,93 56,152 44,158 44,93 " />
<polygon points="44,91 50,86 61,95 56,99 44,93 " />
<polygon points="13.4,173.4 17.2,171.2 21.1,168.9 25,166.6 28.9,164.3 33,161.9 37.1,159.5 41.2,157.1 45.5,154.8 49.9,152.5 54.4,150.2 55.5,151.7 52,155.4 48.6,158.9 45,162.3 41.4,165.5 37.8,168.7 34.3,171.8 30.7,174.8 27.2,177.7 23.7,180.5 20.2,183.3 " />
<polygon points="20.2,183.3 13.4,173.4 11.7,174.6 " />
<polygon points="20.2,183.3 23.5,184.7 23.4,177.5 " />
<polygon points="54.3,149.3 59.6,154.7 65,159.3 71,163.1 78.1,166.2 87.2,168.7 98.6,170.4 113.1,171.5 130.9,171.9 152.6,171.5 178.7,170.4 179.2,183.5 152.9,184 130.7,183.7 112.3,182.5 97.2,180.6 84.9,177.7 74.9,173.9 67.1,169.2 61,163.7 56.3,157.3 52.7,150.3 " />
<polygon points="179.2,183.5 178.7,170.4 190,169.9 " />
</g>
</svg>
