<svg xmlns="http://www.w3.org/2000/svg" xmlns:xlink="http://www.w3.org/1999/xlink" version="1.1" baseProfile="full" viewBox="0 0 200 200" width="200" height="200">
<g fill="black">
<polygon points="43,53 43,110 31,110 31,47 " />
<polygon points="43,110 40.6,113.6 37,116 33.4,113.6 31,110 " />
<polygon points="43,110 42.4,121 41.2,131.4 39.5,141.2 37.1,150.4 34.2,159 30.7,167 26.6,174.3 21.9,180.9 16.5,186.7 10.6,191.6 9.3,190.3 13.6,184.2 17.5,177.9 20.8,171.2 23.7,164 26.2,156.4 28.1,148.2 29.6,139.5 30.5,130.2 31,120.4 31,110 " />
<polygon points="37,53 187,53 187,57 37,57 " />
<polygon points="187,53 163,55 175,43 " />
<polygon points="131.2,19.5 134.5,20.5 137.9,21.4 141.1,22.4 144.1,23.7 146.9,25.2 149.6,26.9 152.1,28.7 154.5,30.7 156.7,33 158.7,35.4 148.3,41.3 147.4,39.3 146.5,37.2 145.3,35.2 143.8,33.1 142.2,31.1 140.3,29.1 138.3,27 136,25 133.4,22.9 130.5,21.2 " />
<polygon points="158.7,35.4 159.2,39.9 156.4,43.6 151.9,44.1 148.3,41.3 " />
<polygon points="119,14.9 121,54.8 125.6,87.6 132.2,114.1 140,134.8 148.6,150.4 157.3,161.7 165.5,169.3 172.6,173.9 178.2,176.2 181.5,177 180.4,188.9 174.6,187.7 167.1,184.5 158.1,178.8 148.4,169.8 138.6,157 129.1,139.8 120.7,117.7 113.8,89.9 109.1,55.9 107,15 " />
<polygon points="107,15 119,14.9 106.9,12.7 " />
<polygon points="119,14.9 122,16.8 116,20.9 " />
<polygon points="181.5,177 185.5,179.1 186.9,183.5 184.8,187.5 180.4,188.9 " />
<polygon points="181.4,178 185.7,152.3 183.8,152.1 175.4,177.4 " />
<polygon points="37,93 100,93 100,97 37,97 " />
<polygon points="100,93 76,95 88,83 " />
<polygon points="90,95 89.9,104.3 89.6,113 89.2,120.9 88.7,128.2 88,134.8 87.1,140.8 86,146.1 84.7,150.8 83.2,155 81.3,158.6 71.1,152.3 72.2,150.2 73.3,147.2 74.3,143.4 75.3,138.7 76.1,133.3 76.7,127.1 77.3,120.2 77.6,112.5 77.9,104.1 78,95 " />
<polygon points="81.3,158.6 77.6,161.2 73.1,160.5 70.4,156.8 71.1,152.3 " />
<polygon points="81.3,158.6 79.9,160.7 78.3,162.6 76.6,164.3 74.7,165.8 72.7,167.1 70.5,168.1 68.2,168.9 65.9,169.5 63.4,169.8 61,170 61,158 62.4,157.9 63.7,157.7 64.8,157.4 65.9,157.1 66.8,156.6 67.8,156 68.6,155.3 69.5,154.5 70.3,153.5 71.1,152.3 " />
<polygon points="61,164 61,158 41,158 41,161 " />
<polygon points="173.2,89 166.5,104 158.9,118 150.2,130.8 140.6,142.6 130.1,153.2 118.5,162.7 106.1,171.1 92.7,178.3 78.4,184.2 63.2,188.8 62.7,187.1 76.9,180.7 90.2,173.5 102.5,165.6 113.8,156.8 124.2,147.1 133.6,136.5 142,125 149.6,112.6 156.2,99.2 162,84.8 " />
<polygon points="162,84.8 173.2,89 162.5,83.4 " />
<polygon points="173.2,89 175.3,91.9 168.3,93.6 " />
</g>
</svg>
