<svg xmlns="http://www.w3.org/2000/svg" xmlns:xlink="http://www.w3.org/1999/xlink" version="1.1" baseProfile="full" viewBox="0 0 200 200" width="200" height="200">
<g fill="black">
<polygon points="106,17 106,134 94,134 94,15 " />
<polygon points="106,17 109,19 106,21 " />
<polygon points="50,89 151,89 151,93 50,93 " />
<polygon points="56,47 56,182 44,188 44,41 " />
<polygon points="50,47 151,47 151,51 50,51 " />
<polygon points="157,49 157,171 145,171 145,49 " />
<polygon points="145,47 151,42 162,51 157,55 145,49 " />
<polygon points="157,171 154.6,174.6 151,177 147.4,174.6 145,171 " />
<polygon points="157,171 156.8,173.5 156.4,176 155.6,178.4 154.3,180.7 152.7,182.7 150.7,184.3 148.4,185.6 146,186.4 143.5,186.8 141,187 141,175 142.2,174.9 143.1,174.7 143.7,174.5 144,174.4 144.2,174.2 144.4,174 144.5,173.7 144.7,173.1 144.9,172.2 145,171 " />
<polygon points="141,181 141,175 121,175 121,178 " />
<polygon points="16,130 187,130 187,134 16,134 " />
<polygon points="187,130 163,132 175,120 " />
</g>
</svg>
