<svg xmlns="http://www.w3.org/2000/svg" xmlns:xlink="http://www.w3.org/1999/xlink" version="1.1" baseProfile="full" viewBox="0 0 200 200" width="200" height="200">
<g fill="black">
<polygon points="18,37 182,37 182,41 18,41 " />
<polygon points="182,37 158,39 170,27 " />
<polygon points="106,16 106,98 94,104 94,14 " />
<polygon points="106,16 109,18 106,20 " />
<polygon points="105.2,66.9 100.2,74.1 94.4,81 87.8,87.5 80.4,93.7 72.2,99.6 63.2,105.2 53.5,110.4 42.9,115.3 31.5,119.8 19.3,123.8 18.6,122.1 30,116.3 40.5,110.5 50.3,104.7 59.2,98.8 67.2,92.8 74.4,86.6 80.7,80.4 86.2,74 90.9,67.5 94.7,61 " />
<polygon points="103.3,65.2 109.4,70.8 115.6,76.1 122,81.1 128.7,85.7 135.6,90 142.9,93.9 150.6,97.4 158.6,100.5 167,103.2 175.7,105.6 172.2,118.3 162.9,115.1 154.1,111.4 145.8,107.3 138,102.8 130.6,97.8 123.7,92.4 117.3,86.6 111.5,80.3 106.3,73.6 101.8,66.3 " />
<polygon points="172.2,118.3 175.7,105.6 183.8,107.9 " />
<polygon points="60.8,44.6 59.4,52 57.5,58.9 55.1,65.5 52.2,71.5 48.8,77.1 44.9,82.2 40.5,86.8 35.6,90.8 30.2,94.1 24.4,96.7 23.5,95.2 28,91 32,86.7 35.6,82.3 38.8,77.7 41.5,72.8 43.8,67.6 45.7,62 47.2,56.2 48.2,49.9 48.9,43.3 " />
<polygon points="48.9,43.3 60.8,44.6 49.1,41.2 " />
<polygon points="60.8,44.6 63.6,46.9 57.2,50.2 " />
<polygon points="54.3,62.7 57.1,64.2 60.1,65.2 62.8,66.4 65.3,67.6 67.6,68.9 69.7,70.3 71.7,71.8 73.4,73.3 75,75 76.4,76.9 65.3,81.4 65.3,80.4 65,79.1 64.5,77.7 63.7,76.1 62.7,74.3 61.3,72.5 59.8,70.5 57.9,68.4 55.9,66.1 53.3,64.2 " />
<polygon points="76.4,76.9 76.3,81.5 73.1,84.7 68.5,84.6 65.3,81.4 " />
<polygon points="154.7,44.8 153.2,51.5 151.3,57.7 148.9,63.4 146.1,68.6 142.9,73.3 139.3,77.4 135.3,80.8 131,83.6 126.3,85.6 121.3,86.8 120.6,85.1 124.5,82.2 127.9,79.2 130.9,76 133.5,72.5 135.9,68.6 137.9,64.4 139.6,59.7 141,54.6 142.1,49.1 142.9,43.1 " />
<polygon points="142.9,43.1 154.7,44.8 143.2,41.1 " />
<polygon points="154.7,44.8 157.4,47.2 150.9,50.3 " />
<polygon points="147.3,62.6 150.2,63.9 153.3,64.9 156.3,66.1 159.1,67.5 161.8,69.1 164.3,70.8 166.8,72.7 169.1,74.7 171.3,76.9 173.4,79.2 163.3,85.7 162.3,83.5 161.1,81.3 159.8,79.1 158.4,76.9 156.8,74.8 155,72.6 153.1,70.5 151.1,68.3 148.9,66.1 146.4,64.2 " />
<polygon points="173.4,79.2 174.1,83.7 171.6,87.5 167.1,88.2 163.3,85.7 " />
<polygon points="92.3,106.9 89.2,114 85.8,120.7 82.1,127 78.1,133 73.8,138.7 69.2,143.9 64.3,148.8 59,153.3 53.4,157.3 47.5,160.7 46.4,159.2 51,154.3 55.3,149.4 59.4,144.4 63.3,139.1 66.9,133.7 70.3,128 73.3,122.1 76.1,116 78.7,109.5 81,102.9 " />
<polygon points="81,102.9 92.3,106.9 81.5,101.4 " />
<polygon points="92.3,106.9 94.4,109.8 87.4,111.6 " />
<polygon points="83,118 133,118 133,122 83,122 " />
<polygon points="138.5,122.3 132.3,134.1 125,144.7 116.4,154.2 106.7,162.6 96,169.8 84.1,175.8 71.1,180.7 57.1,184.3 42.1,186.7 26,187.8 25.9,186.1 41.5,183 55.8,179.1 68.9,174.5 80.8,169 91.4,162.6 100.9,155.4 109.2,147.3 116.4,138.3 122.4,128.4 127.4,117.6 " />
<polygon points="127,118 133,113 144,122 139,126 133,126 " />
<polygon points="72.1,132.3 81.5,133.7 90.7,135.9 99.7,138.7 108.5,142.1 117,146 125.3,150.5 133.3,155.5 141.2,161 148.7,167.1 156.1,173.6 147.6,182.1 141.1,175.5 134.4,169.4 127.5,163.7 120.3,158.3 112.8,153.4 105.1,148.9 97.2,144.8 89,140.9 80.5,137.4 71.7,134.1 " />
<polygon points="156.1,173.6 157.8,177.8 156.1,182.1 151.8,183.8 147.6,182.1 " />
</g>
</svg>
