<svg xmlns="http://www.w3.org/2000/svg" xmlns:xlink="http://www.w3.org/1999/xlink" version="1.1" baseProfile="full" viewBox="0 0 200 200" width="200" height="200">
<g fill="black">
<polygon points="62,16 62,41 50,41 50,14 " />
<polygon points="62,16 65,18 62,20 " />
<polygon points="19,37 102,37 102,41 19,41 " />
<polygon points="102,37 78,39 90,27 " />
<polygon points="30.3,44.2 32,46.2 34,48 35.9,50.1 37.6,52.4 39.2,54.8 40.7,57.4 42,60.1 43.3,62.9 44.4,65.9 45.4,69 33.5,71 33.4,68.2 33.3,65.4 33,62.7 32.7,60.1 32.2,57.5 31.8,55 31.2,52.5 30.6,50 29.9,47.5 28.8,45.3 " />
<polygon points="45.4,69 44.3,73.4 40.4,75.9 36,74.8 33.5,71 " />
<polygon points="86.1,48.2 84.6,50.8 83,53.4 81.4,56.1 79.7,58.9 77.9,61.7 76.1,64.7 74.1,67.7 72,70.8 69.8,74 67.8,77.3 66.1,76.6 67.2,72.8 68.1,69.1 69,65.5 69.9,62 70.8,58.6 71.7,55.4 72.6,52.2 73.4,49.2 74.3,46.3 75,43.5 " />
<polygon points="75,43.5 86.1,48.2 75.6,42.2 " />
<polygon points="86.1,48.2 88,51.3 81,52.6 " />
<polygon points="14,78 102,78 102,82 14,82 " />
<polygon points="102,78 78,80 90,68 " />
<polygon points="37,96 37,180 25,186 25,90 " />
<polygon points="31,96 82,96 82,100 31,100 " />
<polygon points="88,98 88,165 76,165 76,98 " />
<polygon points="76,96 82,91 93,100 88,104 76,98 " />
<polygon points="88,165 85.6,168.6 82,171 78.4,168.6 76,165 " />
<polygon points="88,165 87.8,167.5 87.4,170 86.6,172.4 85.3,174.7 83.7,176.7 81.7,178.3 79.4,179.6 77,180.4 74.5,180.8 72,181 72,169 73.2,168.9 74.1,168.7 74.7,168.5 75,168.4 75.2,168.2 75.4,168 75.5,167.7 75.7,167.1 75.9,166.2 76,165 " />
<polygon points="72,175 72,169 52,169 52,172 " />
<polygon points="34,119 82,119 82,123 34,123 " />
<polygon points="34,140 82,140 82,144 34,144 " />
<polygon points="116,34 176,34 176,38 116,38 " />
<polygon points="176,34 152,36 164,24 " />
<polygon points="122,16 122,68 110,74 110,14 " />
<polygon points="122,16 125,18 122,20 " />
<polygon points="116,57 162,57 162,61 116,61 " />
<polygon points="168,59 168,92 156,98 156,59 " />
<polygon points="156,57 162,52 173,61 168,65 156,59 " />
<polygon points="113,84 162,84 162,88 113,88 " />
<polygon points="119,84 119,167 107,167 107,78 " />
<polygon points="119,167 116.6,170.6 113,173 109.4,170.6 107,167 " />
<polygon points="119,167 119,168.2 119.2,169.1 119.4,169.7 119.5,170 119.7,170.2 119.9,170.4 120.2,170.5 120.8,170.7 121.7,170.9 123,171 123,183 120.4,182.8 117.9,182.4 115.5,181.6 113.2,180.3 111.2,178.7 109.6,176.7 108.3,174.4 107.5,172 107.1,169.5 107,167 " />
<polygon points="123,171 127.2,172.8 129,177 127.2,181.2 123,183 " />
<polygon points="123,171 181,171 181,183 123,183 " />
<polygon points="181,171 184.6,173.4 187,177 184.6,180.6 181,183 " />
<polygon points="175,172 181,146 183,146 181,172 " />
<polygon points="113,111 170,111 170,115 113,115 " />
<polygon points="170,111 146,113 158,101 " />
<polygon points="113,130 169,130 169,134 113,134 " />
<polygon points="169,130 145,132 157,120 " />
<polygon points="113,150 171,150 171,154 113,154 " />
<polygon points="171,150 147,152 159,140 " />
</g>
</svg>
