<svg xmlns="http://www.w3.org/2000/svg" xmlns:xlink="http://www.w3.org/1999/xlink" version="1.1" baseProfile="full" viewBox="0 0 200 200" width="200" height="200">
<g fill="black">
<polygon points="107.1,68.1 103,77.2 98.6,85.8 94,93.9 89.2,101.6 84.1,108.8 78.9,115.5 73.4,121.7 67.8,127.3 61.8,132.3 55.5,136.6 54.4,135.3 59.1,129.6 63.8,123.7 68.4,117.5 72.8,111 77.1,104.1 81.2,96.8 85.1,89.1 88.9,81.1 92.6,72.6 96,63.6 " />
<polygon points="96,63.6 107.1,68.1 96.5,62.3 " />
<polygon points="107.1,68.1 109.2,71.1 102.1,72.6 " />
<polygon points="48.4,53 48.4,177.7 36.4,183.7 36.4,47 " />
<polygon points="42.4,53 157.3,53 157.3,57 42.4,57 " />
<polygon points="163.3,55 163.3,171.7 151.3,177.7 151.3,55 " />
<polygon points="151.3,53 157.3,48 168.3,57 163.3,61 151.3,55 " />
<polygon points="42.4,161.7 157.3,161.7 157.3,165.7 42.4,165.7 " />
<polygon points="141.5,87.2 136.2,98 130.2,107.9 123.4,116.9 115.8,125.1 107.5,132.4 98.4,138.8 88.6,144.3 78.2,148.8 67,152.4 55.2,154.8 54.7,153.1 65.8,148.8 76,143.9 85.4,138.6 94.1,132.6 101.9,126 109.1,118.7 115.5,110.7 121.1,102.1 126.1,92.8 130.4,82.7 " />
<polygon points="130,83 136,78 147,87 142,91 136,91 " />
<polygon points="95,83 136,83 136,87 95,87 " />
<polygon points="62.2,83.6 70.7,86.7 78.9,90.6 86.8,95.3 94.5,100.6 101.9,106.6 109.1,113.1 116.1,120.3 122.8,128 129.2,136.3 135.4,145.2 125.3,151.6 119.9,142.8 114.3,134.6 108.4,126.8 102.4,119.5 96.1,112.8 89.6,106.5 82.9,100.6 76,95.1 68.8,90 61.5,85.2 " />
<polygon points="135.4,145.2 136.1,149.7 133.5,153.5 129,154.2 125.3,151.6 " />
<polygon points="106.5,22 104.2,24.9 101.8,28 99.3,31.2 96.6,34.6 93.7,38 90.7,41.5 87.5,45.2 84.1,48.9 80.5,52.6 76.7,56.5 75.2,55.4 77.7,50.6 80,46 82.4,41.6 84.7,37.4 86.9,33.3 89,29.5 91,25.8 92.9,22.2 94.7,18.8 96.3,15.6 " />
<polygon points="96.3,15.6 106.5,22 96.9,14.8 " />
<polygon points="106.5,22 108,25.3 100.8,25.5 " />
</g>
</svg>
