<svg xmlns="http://www.w3.org/2000/svg" xmlns:xlink="http://www.w3.org/1999/xlink" version="1.1" baseProfile="full" viewBox="0 0 200 200" width="200" height="200">
<g fill="black">
<polygon points="44,34 170,34 170,38 44,38 " />
<polygon points="170,34 146,36 158,24 " />
<polygon points="18,101 178,101 178,105 18,105 " />
<polygon points="178,101 154,103 166,91 " />
<polygon points="114.7,41 109.5,65 103.3,87.1 96,107.1 87.8,125 78.5,140.9 68.2,154.8 56.9,166.4 44.6,175.9 31.3,183 17.2,187.8 16.7,186.1 29.6,179.6 41.5,171.5 52.3,161.7 62.3,150 71.3,136.4 79.4,120.9 86.7,103.4 93,83.9 98.4,62.4 102.9,38.9 " />
<polygon points="102.9,38.9 114.7,41 103.2,37 " />
<polygon points="114.7,41 117.3,43.5 110.7,46.4 " />
<polygon points="120,107 120,167 108,167 108,105 " />
<polygon points="120,107 123,109 120,111 " />
<polygon points="120,167 117.6,170.6 114,173 110.4,170.6 108,167 " />
<polygon points="120,167 120,168.2 120.2,169.1 120.4,169.7 120.5,170 120.7,170.2 120.9,170.4 121.2,170.5 121.8,170.7 122.7,170.9 124,171 124,183 121.4,182.8 118.9,182.4 116.5,181.6 114.2,180.3 112.2,178.7 110.6,176.7 109.3,174.4 108.5,172 108.1,169.5 108,167 " />
<polygon points="124,171 128.2,172.8 130,177 128.2,181.2 124,183 " />
<polygon points="124,171 175,171 175,183 124,183 " />
<polygon points="175,171 178.6,173.4 181,177 178.6,180.6 175,183 " />
<polygon points="169,172 175,146 177,146 175,172 " />
<polygon points="50,34 50,105 38,105 38,28 " />
</g>
</svg>
