<svg xmlns="http://www.w3.org/2000/svg" xmlns:xlink="http://www.w3.org/1999/xlink" version="1.1" baseProfile="full" viewBox="0 0 200 200" width="200" height="200">
<g fill="black">
<polygon points="107,15 107,42 95,42 95,13 " />
<polygon points="107,15 110,17 107,19 " />
<polygon points="23,38 179,38 179,42 23,42 " />
<polygon points="179,38 155,40 167,28 " />
<polygon points="107.6,46.9 105.4,49.7 103.1,52.5 100.6,55.4 98,58.3 95.2,61.1 92.3,64 89.1,66.9 85.8,69.8 82.2,72.6 78.6,75.6 77.3,74.3 79.9,70.5 82.3,66.7 84.6,63.1 86.8,59.6 88.9,56.2 90.9,52.9 92.7,49.7 94.4,46.6 95.9,43.6 97.3,40.7 " />
<polygon points="97.3,40.7 107.6,46.9 97.8,39.8 " />
<polygon points="107.6,46.9 109.1,50.2 101.9,50.5 " />
<polygon points="66.3,63.7 69.5,65.3 72.7,66.7 75.8,68.2 78.7,69.9 81.4,71.7 84,73.6 86.4,75.6 88.7,77.8 90.7,80 92.7,82.4 82.3,88.3 81.4,86.2 80.4,84 79.1,81.7 77.7,79.5 76.2,77.2 74.4,74.8 72.4,72.5 70.3,70 68,67.5 65.3,65.2 " />
<polygon points="92.7,82.4 93.2,86.9 90.4,90.6 85.9,91.1 82.3,88.3 " />
<polygon points="128.3,63.2 124.2,68.4 119.9,73.7 115.4,79 110.8,84.5 105.9,90.1 100.8,95.7 95.4,101.4 89.8,107.1 83.9,112.8 77.6,118.5 76.3,117.4 81,110.4 85.7,103.6 90.4,97.2 94.9,90.9 99.2,84.8 103.4,78.8 107.5,73 111.3,67.3 115,61.7 118.5,56.3 " />
<polygon points="118.5,56.3 128.3,63.2 119,55.6 " />
<polygon points="128.3,63.2 129.6,66.6 122.4,66.4 " />
<polygon points="64,114.9 69.8,114.2 75.9,113.5 82,112.7 88.3,112 94.7,111.2 101.2,110.5 107.9,109.7 114.7,109 121.6,108.5 128.8,108.1 129.1,109.8 122.4,112.2 115.7,114.3 109.1,116.2 102.6,117.9 96.2,119.6 89.9,121.1 83.8,122.6 77.7,124.1 71.8,125.4 65.9,126.7 " />
<polygon points="65.9,126.7 64,114.9 62,115.2 " />
<polygon points="65.9,126.7 68.4,129.3 71.3,122.8 " />
<polygon points="115.3,85.2 118.4,88.5 121.4,91.7 124.2,95 126.7,98.3 129,101.7 131.1,105 132.9,108.5 134.6,111.9 136,115.3 137.2,118.8 125.5,121.3 125.1,118.2 124.6,115.1 123.9,111.9 123,108.6 121.9,105.2 120.6,101.6 119.2,98 117.6,94.2 115.9,90.2 113.8,86.3 " />
<polygon points="137.2,118.8 136.3,123.3 132.6,125.9 128.1,125 125.5,121.3 " />
<polygon points="27.3,55.7 30.5,57 33.8,58.2 37,59.7 40.1,61.3 43,63.1 45.8,65 48.5,67 51.1,69.2 53.6,71.5 56,74 46.3,81.1 44.9,78.6 43.4,76.1 41.7,73.7 39.9,71.3 38,68.9 35.9,66.5 33.7,64.2 31.5,61.8 29.1,59.3 26.4,57.2 " />
<polygon points="56,74 57,78.4 54.7,82.4 50.3,83.4 46.3,81.1 " />
<polygon points="21.9,114.2 25.1,112.7 28.7,111 32.6,109 36.8,106.9 41.4,104.5 46.3,101.9 51.5,99.2 57.1,96.2 63.1,93.3 69.5,90.2 70.4,91.7 65.1,96.4 60,100.7 55.1,104.7 50.4,108.3 45.9,111.7 41.8,114.8 37.9,117.6 34.2,120.2 30.9,122.6 27.8,124.7 " />
<polygon points="27.8,124.7 21.9,114.2 20.1,115.2 " />
<polygon points="27.8,124.7 31,126.3 31.5,119.1 " />
<polygon points="173.3,63 170.4,65.2 167.3,67.3 164.1,69.6 160.7,71.8 157,74.1 153.2,76.4 149.1,78.8 144.8,81.1 140.2,83.4 135.5,85.7 134.4,84.2 138.3,80.6 141.9,77.1 145.5,73.8 148.8,70.6 152,67.6 155,64.7 157.9,61.9 160.5,59.3 162.9,56.7 165.1,54.2 " />
<polygon points="165.1,54.2 173.3,63 165.4,54 " />
<polygon points="173.3,63 173.9,66.6 166.8,64.9 " />
<polygon points="137.2,91.5 141.8,92.6 146.4,93.9 150.7,95.4 154.8,97.2 158.7,99.1 162.5,101.3 166.1,103.6 169.5,106.2 172.7,108.9 175.7,111.8 166.4,119.4 164.4,116.6 162.2,113.8 159.7,111.1 157.1,108.4 154.2,105.8 151.1,103.2 147.8,100.7 144.3,98.2 140.5,95.6 136.6,93.2 " />
<polygon points="175.7,111.8 177,116.2 174.9,120.3 170.5,121.5 166.4,119.4 " />
<polygon points="17,143 184,143 184,147 17,147 " />
<polygon points="184,143 160,145 172,133 " />
<polygon points="107,124 107,185 95,191 95,122 " />
<polygon points="107,124 110,126 107,128 " />
</g>
</svg>
