<svg xmlns="http://www.w3.org/2000/svg" xmlns:xlink="http://www.w3.org/1999/xlink" version="1.1" baseProfile="full" viewBox="0 0 200 200" width="200" height="200">
<g fill="black">
<polygon points="108,15 108,47 96,47 96,13 " />
<polygon points="108,15 111,17 108,19 " />
<polygon points="37,43 184,43 184,47 37,47 " />
<polygon points="184,43 160,45 172,33 " />
<polygon points="43,43 43,102 31,102 31,37 " />
<polygon points="43,102 40.6,105.6 37,108 33.4,105.6 31,102 " />
<polygon points="43,102 42.4,113.5 41.2,124.5 39.5,135 37.2,144.8 34.3,154 30.8,162.5 26.7,170.4 21.9,177.6 16.6,184 10.6,189.6 9.3,188.3 13.6,181.7 17.4,174.8 20.8,167.5 23.7,159.7 26.1,151.4 28.1,142.7 29.6,133.3 30.5,123.4 31,113 31,102 " />
</g>
</svg>
