<svg xmlns="http://www.w3.org/2000/svg" xmlns:xlink="http://www.w3.org/1999/xlink" version="1.1" baseProfile="full" viewBox="0 0 200 200" width="200" height="200">
<g fill="black">
<polygon points="13.5,59 81.6,59 81.6,63 13.5,63 " />
<polygon points="81.6,59 57.6,61 69.6,49 " />
<polygon points="54.9,16 54.9,183 42.9,189 42.9,14 " />
<polygon points="54.9,16 57.9,18 52.9,21 " />
<polygon points="52.3,61 52.1,62 49.8,71.8 47.3,81.4 44.4,90.8 41.1,99.9 37.6,108.7 33.7,117.3 29.4,125.6 24.8,133.5 19.7,141.2 14.2,148.4 12.7,147.5 16.4,139.3 20,131.1 23.5,122.8 26.7,114.3 29.6,105.7 32.3,96.9 34.7,88 36.9,78.8 38.7,69.4 40.1,61 " />
<polygon points="51.9,85.6 55.3,86.8 58.7,87.8 61.9,89.1 65,90.6 67.9,92.2 70.8,94.1 73.4,96.1 76,98.3 78.3,100.7 80.6,103.2 70.5,109.7 69.3,107.3 68,105 66.5,102.7 64.9,100.4 63,98.1 61,95.9 58.9,93.6 56.5,91.4 54,89.1 51.1,87.2 " />
<polygon points="80.6,103.2 81.4,107.7 78.8,111.5 74.3,112.2 70.5,109.7 " />
<polygon points="95.6,27.2 95.6,77.3 83.6,83.3 83.6,21.2 " />
<polygon points="89.6,27.2 176.3,27.2 176.3,31.2 89.6,31.2 " />
<polygon points="182.3,29.2 182.3,71.3 170.3,77.3 170.3,29.2 " />
<polygon points="170.3,27.2 176.3,22.2 187.3,31.2 182.3,35.2 170.3,29.2 " />
<polygon points="124.4,27.2 124.4,35.6 113.4,35.6 113.4,27.2 " />
<polygon points="124.4,35.6 122.2,38.9 118.9,41.1 115.6,38.9 113.4,35.6 " />
<polygon points="124.4,35.6 123.7,39.3 122.3,42.7 120.3,45.7 117.8,48.2 114.9,50.4 111.5,52.2 107.8,53.6 103.6,54.8 99,55.6 94.1,56.6 93.7,54.9 98.3,53.2 102.2,51.1 105.6,49.1 108.3,47 110.5,44.9 112,42.9 113,40.9 113.5,39.1 113.6,37.4 113.4,35.6 " />
<polygon points="147,27.2 147,41 136,41 136,27.2 " />
<polygon points="147,41 144.8,44.3 141.5,46.5 138.2,44.3 136,41 " />
<polygon points="147,41 146.9,42.3 146.8,43.4 146.9,44.2 147,44.8 147.2,45.3 147.5,45.8 148,46.3 148.8,46.8 150,47.2 151.5,47.5 151.5,54.5 149.2,54.6 146.9,54.4 144.8,53.9 142.7,53 140.8,51.7 139.2,50 137.9,48 136.9,45.8 136.3,43.5 136,41 " />
<polygon points="151.5,47.5 153.9,48.5 155,51 153.9,53.4 151.5,54.5 " />
<polygon points="151.5,47.5 165.3,47.5 165.3,54.5 151.5,54.5 " />
<polygon points="165.3,47.5 167.4,48.9 168.8,51 167.4,53.1 165.3,54.5 " />
<polygon points="161.8,48.5 165.3,42.5 167.3,42.5 165.3,48.5 " />
<polygon points="89.6,61.3 176.3,61.3 176.3,65.3 89.6,65.3 " />
<polygon points="139,69.2 139,99.1 127,99.1 127,67.2 " />
<polygon points="139,69.2 142,71.2 137,74.2 " />
<polygon points="79,95.1 186.9,95.1 186.9,99.1 79,99.1 " />
<polygon points="186.9,95.1 162.9,97.1 174.9,85.1 " />
<polygon points="126.5,124 168.1,124 168.1,128 126.5,128 " />
<polygon points="174,126.1 173.9,133.7 173.5,140.7 173.1,147.2 172.5,153.1 171.7,158.5 170.8,163.3 169.8,167.6 168.5,171.5 167,174.9 165.2,178 155.5,170.8 156.3,169.4 157.3,167.3 158.2,164.4 159.1,160.8 159.9,156.6 160.5,151.7 161.1,146.2 161.5,140 161.9,133.3 162.1,125.9 " />
<polygon points="162.1,124 168.1,119 179.1,128 174.1,131 162.1,136 " />
<polygon points="165.2,178 161.2,180.3 156.8,179.2 154.5,175.3 155.5,170.8 " />
<polygon points="165.2,178 163.6,179.9 161.9,181.6 160.1,183.2 158.2,184.6 156.1,185.8 153.9,186.8 151.6,187.5 149.3,188 146.9,188.3 144.4,188.4 144.4,176.4 145.9,176.4 147.2,176.2 148.4,175.9 149.6,175.6 150.7,175.1 151.7,174.5 152.7,173.8 153.7,172.9 154.6,172 155.5,170.8 " />
<polygon points="144.4,182.4 144.4,176.4 124.4,176.4 124.4,179.4 " />
<polygon points="134.4,100.3 133.6,113.2 131.8,125.3 129,136.5 125.1,146.8 120.3,156.2 114.4,164.6 107.5,172 99.7,178.3 91,183.5 81.3,187.5 80.6,185.9 89,180.3 96.4,174.1 102.8,167.4 108.3,160.1 112.8,152.1 116.5,143.3 119.3,133.8 121.2,123.5 122.3,112.3 122.4,100.3 " />
<polygon points="122.4,101.3 134.4,100.3 122.4,97.8 " />
<polygon points="134.4,100.3 137.4,102.3 132.4,105.3 " />
</g>
</svg>
