<svg xmlns="http://www.w3.org/2000/svg" xmlns:xlink="http://www.w3.org/1999/xlink" version="1.1" baseProfile="full" viewBox="0 0 200 200" width="200" height="200">
<g fill="black">
<polygon points="106,63 106,121 94,127 94,61 " />
<polygon points="106,63 109,65 106,67 " />
<polygon points="32.3,75.8 37.8,78.5 42.9,81.5 47.6,84.8 52,88.2 56,91.8 59.7,95.5 63.1,99.4 66.2,103.4 68.9,107.5 71.3,111.8 60.3,116.6 58.8,112.8 57,109 54.9,105.2 52.5,101.4 49.7,97.5 46.6,93.6 43.2,89.7 39.5,85.7 35.5,81.5 31.3,77.3 " />
<polygon points="71.3,111.8 71.3,116.4 68.1,119.7 63.6,119.7 60.3,116.6 " />
<polygon points="168.7,78.7 165.2,84.2 161.6,89.5 157.9,94.5 154.1,99.3 150.2,103.8 146.1,108 142,112 137.7,115.6 133.2,118.8 128.5,121.6 127.4,120.3 130.6,116 133.9,111.8 137.1,107.5 140.3,103.1 143.5,98.5 146.6,93.8 149.6,88.9 152.5,83.8 155.4,78.4 158.2,72.9 " />
<polygon points="158.2,72.9 168.7,78.7 158.8,71.9 " />
<polygon points="168.7,78.7 170.4,81.9 163.2,82.5 " />
</g>
</svg>
