<svg xmlns="http://www.w3.org/2000/svg" xmlns:xlink="http://www.w3.org/1999/xlink" version="1.1" baseProfile="full" viewBox="0 0 200 200" width="200" height="200">
<g fill="black">
<polygon points="108,19 108,58 96,58 96,17 " />
<polygon points="108,19 111,21 108,23 " />
<polygon points="38,54 180,54 180,58 38,58 " />
<polygon points="180,54 156,56 168,44 " />
<polygon points="44,54 44,164 32,164 32,48 " />
<polygon points="44,164 41.6,167.6 38,170 34.4,167.6 32,164 " />
<polygon points="44,164 44,165.2 44.2,166.1 44.4,166.7 44.5,167 44.7,167.2 44.9,167.4 45.2,167.5 45.8,167.7 46.7,167.9 48,168 48,180 45.4,179.8 42.9,179.4 40.5,178.6 38.2,177.3 36.2,175.7 34.6,173.7 33.3,171.4 32.5,169 32.1,166.5 32,164 " />
<polygon points="48,168 52.2,169.8 54,174 52.2,178.2 48,180 " />
<polygon points="48,168 173,168 173,180 48,180 " />
<polygon points="173,168 176.6,170.4 179,174 176.6,177.6 173,180 " />
</g>
</svg>
