<svg xmlns="http://www.w3.org/2000/svg" xmlns:xlink="http://www.w3.org/1999/xlink" version="1.1" baseProfile="full" viewBox="0 0 200 200" width="200" height="200">
<g fill="black">
<polygon points="28,48 91.5,48 91.5,52 28,52 " />
<polygon points="91.5,48 67.5,50 79.5,38 " />
<polygon points="34,48 34,101 22,101 22,42 " />
<polygon points="12,97 96,97 96,101 12,101 " />
<polygon points="96,97 72,99 84,87 " />
<polygon points="60.5,18 60.5,52 48.5,52 48.5,16 " />
<polygon points="60.5,18 63.5,20 60.5,22 " />
<polygon points="60.5,52 58.1,55.6 54.5,58 50.9,55.6 48.5,52 " />
<polygon points="60.4,52 59.4,72.5 57.6,91.5 54.9,109 51.4,125 47,139.5 41.7,152.4 35.6,163.8 28.6,173.6 20.7,181.5 12,187.7 10.9,186.2 18,178.9 24.3,170.3 29.9,160.6 34.8,149.5 38.9,136.9 42.3,122.9 45,107.4 46.9,90.4 48.1,71.9 48.5,51.9 " />
<polygon points="62.5,109 62.5,165 50.5,165 50.5,107 " />
<polygon points="62.5,109 65.5,111 62.5,113 " />
<polygon points="62.5,165 60.1,168.6 56.5,171 52.9,168.6 50.5,165 " />
<polygon points="62.5,165 62.5,166.2 62.7,167.1 62.9,167.7 63,168 63.2,168.2 63.4,168.4 63.7,168.5 64.3,168.7 65.2,168.9 66.5,169 66.5,181 63.9,180.8 61.4,180.4 59,179.6 56.7,178.3 54.7,176.7 53.1,174.7 51.8,172.4 51,170 50.6,167.5 50.5,165 " />
<polygon points="66.5,169 70.7,170.8 72.5,175 70.7,179.2 66.5,181 " />
<polygon points="66.5,169 93,169 93,181 66.5,181 " />
<polygon points="93,169 96.6,171.4 99,175 96.6,178.6 93,181 " />
<polygon points="87,170 93,144 95,144 93,170 " />
<polygon points="113.4,48 180.7,48 180.7,52 113.4,52 " />
<polygon points="180.7,48 156.7,50 168.7,38 " />
<polygon points="119.4,48 119.4,101 107.4,101 107.4,42 " />
<polygon points="96.4,97 185.5,97 185.5,101 96.4,101 " />
<polygon points="185.5,97 161.5,99 173.5,87 " />
<polygon points="147.5,18 147.5,52 135.5,52 135.5,16 " />
<polygon points="147.5,18 150.5,20 147.5,22 " />
<polygon points="147.5,52 145.1,55.6 141.5,58 137.9,55.6 135.5,52 " />
<polygon points="147.5,52 146.4,72.5 144.5,91.5 141.7,109.1 137.9,125.1 133.3,139.6 127.8,152.5 121.3,163.9 113.9,173.6 105.6,181.6 96.4,187.7 95.4,186.2 103,178.8 109.7,170.3 115.7,160.5 120.8,149.4 125.3,136.8 128.9,122.8 131.8,107.3 133.8,90.4 135.1,71.9 135.5,51.9 " />
<polygon points="149.6,109 149.6,165 137.6,165 137.6,107 " />
<polygon points="149.6,109 152.6,111 149.6,113 " />
<polygon points="149.6,165 147.2,168.6 143.6,171 140,168.6 137.6,165 " />
<polygon points="149.6,165 149.7,166.2 149.8,167.1 150,167.7 150.2,168 150.3,168.2 150.5,168.4 150.9,168.5 151.5,168.7 152.4,168.9 153.6,169 153.6,181 151,180.8 148.5,180.4 146.1,179.6 143.9,178.3 141.9,176.7 140.2,174.7 139,172.4 138.2,170 137.7,167.5 137.6,165 " />
<polygon points="153.6,169 157.8,170.8 159.6,175 157.8,179.2 153.6,181 " />
<polygon points="153.6,169 182.3,169 182.3,181 153.6,181 " />
<polygon points="182.3,169 185.9,171.4 188.3,175 185.9,178.6 182.3,181 " />
<polygon points="176.3,170 182.3,144 184.3,144 182.3,170 " />
</g>
</svg>
