<svg xmlns="http://www.w3.org/2000/svg" xmlns:xlink="http://www.w3.org/1999/xlink" version="1.1" baseProfile="full" viewBox="0 0 200 200" width="200" height="200">
<g fill="black">
<polygon points="54.3,14.9 58.2,17.3 61.9,19.9 65.4,22.7 68.6,25.8 71.5,29.1 74.3,32.6 76.8,36.3 79,40.1 81,44.1 82.8,48.3 71.3,51.8 70.4,48.1 69.3,44.4 68,40.8 66.5,37.2 64.8,33.7 62.9,30.2 60.8,26.7 58.4,23.2 55.9,19.7 53.1,16.3 " />
<polygon points="82.8,48.3 82.3,52.9 78.8,55.8 74.3,55.3 71.3,51.8 " />
<polygon points="147.7,20.7 145.1,24.9 142.3,29.1 139.4,33.3 136.3,37.5 133.1,41.7 129.8,46 126.4,50.2 122.7,54.4 118.8,58.5 114.7,62.5 113.2,61.4 115.8,56.3 118.3,51.3 120.9,46.5 123.5,41.7 126,37.1 128.4,32.6 130.8,28.1 133,23.6 135.2,19.3 137.2,15 " />
<polygon points="136.7,15.8 147.7,20.7 137.7,14 " />
<polygon points="147.7,20.7 149.4,23.9 143.6,24.1 " />
<polygon points="18,60 182,60 182,64 18,64 " />
<polygon points="182,60 158,62 170,50 " />
<polygon points="86,60 86,177 74,177 74,60 " />
<polygon points="126,60 126,177 114,177 114,60 " />
<polygon points="29.3,84.2 33.9,88.8 38,93.7 41.8,99 45.1,104.5 48.2,110.3 50.9,116.3 53.3,122.4 55.3,128.8 57.1,135.4 58.5,142.2 46.6,143.8 45.9,137.5 44.9,131.3 43.6,125.3 42.1,119.3 40.3,113.5 38.3,107.8 36,102.1 33.4,96.5 30.7,90.9 27.8,85.3 " />
<polygon points="58.5,142.2 57.3,146.6 53.4,148.9 49,147.7 46.6,143.8 " />
<polygon points="173.2,90.1 170.3,96.5 167.2,102.8 164.1,109.2 160.8,115.5 157.4,121.8 153.9,128 150.2,134.2 146.3,140.4 142.2,146.5 137.7,152.4 136.2,151.5 138.8,144.6 141.6,137.9 144.3,131.2 147.1,124.7 149.8,118.1 152.4,111.6 154.9,105.1 157.4,98.6 159.7,92.1 162,85.7 " />
<polygon points="161.6,86.6 173.2,90.1 162.5,84.3 " />
<polygon points="173.2,90.1 175.2,93 169.5,94 " />
<polygon points="15,173 185,173 185,177 15,177 " />
<polygon points="185,173 161,175 173,163 " />
</g>
</svg>
