<svg xmlns="http://www.w3.org/2000/svg" xmlns:xlink="http://www.w3.org/1999/xlink" version="1.1" baseProfile="full" viewBox="0 0 200 200" width="200" height="200">
<g fill="black">
<polygon points="17,28 183,28 183,32 17,32 " />
<polygon points="183,28 159,30 171,18 " />
<polygon points="91.1,30 83.2,71.9 70.3,75.6 78.8,30 " />
<polygon points="79,60 105,60 105,64 79,64 " />
<polygon points="110.9,61.6 111.6,75.7 112.1,88.5 112.4,100.2 112.5,110.6 112.4,119.9 112,128 111.4,135 110.6,140.8 109.5,145.7 107.9,149.9 97.3,144.3 98,142.4 98.8,138.8 99.5,133.7 100,127.3 100.4,119.6 100.5,110.6 100.4,100.4 100.1,88.9 99.7,76.2 99,62.3 " />
<polygon points="99,60 105,55 116,64 111,67 99,72 " />
<polygon points="107.9,149.9 104.4,152.8 99.8,152.4 96.9,148.9 97.3,144.3 " />
<polygon points="107.9,149.9 106.6,152 105.2,154 103.6,155.9 101.7,157.5 99.7,158.9 97.6,160 95.3,160.9 92.9,161.5 90.5,161.8 88,162 88,150 89.3,149.9 90.6,149.7 91.7,149.4 92.6,149.1 93.5,148.6 94.3,148 95.1,147.4 95.8,146.5 96.6,145.5 97.3,144.3 " />
<polygon points="88,156 88,150 68,150 68,153 " />
<polygon points="49.3,75.7 53.1,77.3 57,79 60.6,80.8 64,82.9 67.2,85.1 70.3,87.4 73.1,89.9 75.8,92.6 78.3,95.4 80.6,98.3 70.3,104.4 69,101.7 67.5,98.9 65.8,96.2 63.9,93.5 61.8,90.8 59.6,88.1 57.1,85.4 54.4,82.7 51.6,79.8 48.4,77.2 " />
<polygon points="80.6,98.3 81.2,102.9 78.5,106.5 73.9,107.1 70.3,104.4 " />
<polygon points="42.9,137.2 47.4,135 52,132.5 56.8,129.9 61.7,127.1 66.7,124.1 71.9,121 77.2,117.7 82.7,114.2 88.4,110.8 94.4,107.3 95.5,108.6 90.8,113.7 86,118.5 81.2,122.9 76.4,127.1 71.6,131 66.9,134.8 62.3,138.3 57.7,141.6 53.2,144.8 48.8,147.7 " />
<polygon points="48.8,147.7 42.9,137.2 41.1,138.2 " />
<polygon points="48.8,147.7 52,149.3 52.5,142.1 " />
<polygon points="152.3,83 149.3,85.3 146.2,87.6 142.9,89.9 139.6,92.2 136.1,94.5 132.5,96.8 128.7,99.1 124.8,101.3 120.7,103.5 116.5,105.7 115.4,104.2 118.7,100.9 121.9,97.5 125,94.3 128,91.2 131,88.2 133.8,85.3 136.6,82.4 139.2,79.7 141.7,76.9 144.1,74.2 " />
<polygon points="143.4,74.9 152.3,83 144.4,74 " />
<polygon points="152.3,83 152.9,86.6 147.3,85 " />
<polygon points="115.3,112.7 120.3,114.9 125,117.2 129.5,119.7 133.7,122.4 137.7,125.1 141.4,127.9 144.9,130.8 148.2,133.8 151.2,136.9 154.1,140 144.3,147 142.4,144 140.2,140.9 137.8,137.7 135.2,134.6 132.2,131.3 129.1,128.1 125.7,124.8 122.1,121.4 118.3,117.8 114.3,114.2 " />
<polygon points="154.1,140 155.1,144.5 152.7,148.4 148.2,149.4 144.3,147 " />
<polygon points="35.9,57.7 35.9,181.2 23.9,187.2 23.9,55.7 " />
<polygon points="35.9,57.7 38.9,59.7 33.9,62.7 " />
<polygon points="29.9,170.2 170,170.2 170,174.2 29.9,174.2 " />
<polygon points="176,57.7 176,178.2 164,184.2 164,55.7 " />
<polygon points="176,57.7 179,59.7 174,62.7 " />
</g>
</svg>
