<svg xmlns="http://www.w3.org/2000/svg" xmlns:xlink="http://www.w3.org/1999/xlink" version="1.1" baseProfile="full" viewBox="0 0 200 200" width="200" height="200">
<g fill="black">
<polygon points="66.9,15.4 62.5,23.5 57.9,31.1 53,38.2 47.9,44.8 42.6,50.9 37,56.5 31.2,61.5 25.2,65.9 18.9,69.7 12.4,72.7 11.5,71.2 16.8,66.6 21.8,61.7 26.8,56.7 31.5,51.2 36.1,45.4 40.5,39.3 44.7,32.7 48.7,25.6 52.5,18.2 56.1,10.3 " />
<polygon points="56.1,10.3 66.9,15.4 56.6,9.1 " />
<polygon points="66.9,15.4 68.8,18.5 61.6,19.6 " />
<polygon points="54,25 116,25 116,29 54,29 " />
<polygon points="120.9,30.4 118.6,32.9 116.3,35.3 113.8,37.8 111.3,40.2 108.6,42.5 105.8,44.9 102.9,47.1 99.9,49.3 96.7,51.4 93.6,53.6 92.3,52.3 94.7,49.3 96.8,46.2 98.9,43.2 100.9,40.2 102.8,37.4 104.6,34.5 106.4,31.7 108,29 109.6,26.2 111,23.5 " />
<polygon points="110,25 116,20 127,29 122,33 116,33 " />
<polygon points="51,51 51,75 39,81 39,45 " />
<polygon points="45,51 153,51 153,55 45,55 " />
<polygon points="159,53 159,77 147,83 147,53 " />
<polygon points="147,51 153,46 164,55 159,59 147,53 " />
<polygon points="45,71 83,71 83,75 45,75 " />
<polygon points="115,71 153,71 153,75 115,75 " />
<polygon points="89,51 89,172 77,172 77,51 " />
<polygon points="89,172 86.6,175.6 83,178 79.4,175.6 77,172 " />
<polygon points="89,172 89,173.2 89.2,174.1 89.4,174.7 89.5,175 89.7,175.2 89.9,175.4 90.2,175.5 90.8,175.7 91.7,175.9 93,176 93,188 90.4,187.8 87.9,187.4 85.5,186.6 83.2,185.3 81.2,183.7 79.6,181.7 78.3,179.4 77.5,177 77.1,174.5 77,172 " />
<polygon points="93,176 97.2,177.8 99,182 97.2,186.2 93,188 " />
<polygon points="93,176 183,176 183,188 93,188 " />
<polygon points="183,176 186.6,178.4 189,182 186.6,185.6 183,188 " />
<polygon points="177,177 183,151 185,151 183,177 " />
<polygon points="121,51 121,163 109,169 109,51 " />
<polygon points="19,103 166,103 166,107 19,107 " />
<polygon points="172,105 172,159 160,165 160,105 " />
<polygon points="160,103 166,98 177,107 172,111 160,105 " />
<polygon points="19,151 166,151 166,155 19,155 " />
<polygon points="19,89 58,89 58,93 19,93 " />
<polygon points="64,91 64,123 52,129 52,91 " />
<polygon points="52,89 58,84 69,93 64,97 52,91 " />
<polygon points="19,119 58,119 58,123 19,123 " />
<polygon points="19,136 58,136 58,140 19,140 " />
<polygon points="64,138 64,173 52,179 52,138 " />
<polygon points="52,136 58,131 69,140 64,144 52,138 " />
<polygon points="19,165 58,165 58,169 19,169 " />
<polygon points="156.9,116.5 154.3,120.7 151.7,124.7 148.9,128.5 146.1,132.1 143.1,135.6 140.1,138.8 136.9,141.9 133.6,144.7 130.1,147.3 126.6,149.6 125.3,148.3 127.7,144.9 130,141.4 132.2,137.9 134.4,134.4 136.5,130.8 138.6,127.1 140.6,123.3 142.5,119.3 144.4,115.3 146.1,111.2 " />
<polygon points="146.1,111.2 156.9,116.5 146.7,110.1 " />
<polygon points="156.9,116.5 158.7,119.7 151.5,120.6 " />
<polygon points="127.3,114.9 130.3,116.6 133.4,118.3 136.4,120.3 139.2,122.5 142,124.9 144.7,127.5 147.3,130.2 149.8,133.1 152.3,136.2 154.6,139.3 144.3,145.4 142.7,142.1 141.2,139 139.5,135.9 137.8,132.9 136,130 134.2,127.1 132.3,124.3 130.4,121.6 128.4,118.8 126.2,116.3 " />
<polygon points="154.6,139.3 155.2,143.9 152.5,147.5 147.9,148.1 144.3,145.4 " />
</g>
</svg>
