<svg xmlns="http://www.w3.org/2000/svg" xmlns:xlink="http://www.w3.org/1999/xlink" version="1.1" baseProfile="full" viewBox="0 0 200 200" width="200" height="200">
<g fill="black">
<polygon points="81,15 81,110 69,110 69,13 " />
<polygon points="81,15 84,17 81,19 " />
<polygon points="81,110 78.6,113.6 75,116 71.4,113.6 69,110 " />
<polygon points="81,110 80.1,122.7 78.3,134.4 75.3,145 71.3,154.6 66.3,163 60.1,170.2 53,176.2 44.9,180.8 35.9,184 26.1,185.8 25.8,184.1 34.6,180.4 42.3,176.1 48.9,171 54.5,165.1 59.1,158.4 62.9,150.7 65.7,142.1 67.7,132.5 68.8,121.7 69,110 " />
<polygon points="19,47 75,47 75,51 19,51 " />
<polygon points="19,88 75,88 75,92 19,92 " />
<polygon points="14.7,129.9 24.3,128.2 33.6,126.5 42.7,124.9 51.7,123.2 60.4,121.5 69,119.9 77.4,118.3 85.7,116.7 93.7,115.3 101.7,114.1 102.2,115.8 94.8,119 87,121.9 79.1,124.6 70.9,127.2 62.4,129.8 53.8,132.2 44.9,134.7 35.9,137 26.6,139.3 17.1,141.6 " />
<polygon points="17.1,141.6 14.7,129.9 12.8,130.3 " />
<polygon points="17.1,141.6 19.7,144.2 22.4,137.5 " />
<polygon points="133,15 133,181 121,187 121,13 " />
<polygon points="133,15 136,17 133,19 " />
<polygon points="127,47 188,47 188,51 127,51 " />
<polygon points="188,47 164,49 176,37 " />
<polygon points="127,88 178,88 178,92 127,92 " />
<polygon points="178,88 154,90 166,78 " />
<polygon points="127,131 188,131 188,135 127,135 " />
<polygon points="188,131 164,133 176,121 " />
</g>
</svg>
