<svg xmlns="http://www.w3.org/2000/svg" xmlns:xlink="http://www.w3.org/1999/xlink" version="1.1" baseProfile="full" viewBox="0 0 200 200" width="200" height="200">
<g fill="black">
<polygon points="16.2,59 72.5,59 72.5,63 16.2,63 " />
<polygon points="78.4,61.6 75.6,79.7 71.9,96.7 67.3,112.5 61.9,127.1 55.6,140.6 48.5,152.8 40.5,163.8 31.6,173.5 21.9,181.8 11.4,188.7 10.4,187.2 19.4,178.9 27.7,169.8 35.2,159.9 42,148.9 48,136.8 53.2,123.8 57.7,109.6 61.4,94.3 64.3,77.8 66.5,60.3 " />
<polygon points="66.5,59 72.5,54 83.5,63 78.5,67 72.5,67 " />
<polygon points="54.4,18.1 32.3,133.1 19.4,136.8 43,13.8 " />
<polygon points="54.4,18.1 57,20.6 53.7,22 " />
<polygon points="28.8,117.4 35.6,118.8 42,120.7 48,123 53.8,125.8 59.2,129 64.3,132.5 69.1,136.4 73.5,140.7 77.6,145.3 81.3,150.2 71.1,156.6 68.4,152 65.3,147.7 62,143.5 58.3,139.6 54.2,135.8 49.7,132.2 44.9,128.8 39.7,125.5 34.2,122.3 28.3,119.1 " />
<polygon points="81.3,150.2 82,154.8 79.3,158.5 74.8,159.2 71.1,156.6 " />
<polygon points="100.3,32.1 100.3,181.8 89.3,187.3 89.3,26.6 " />
<polygon points="94.8,32.1 183.2,32.1 183.2,36.1 94.8,36.1 " />
<polygon points="183.2,32.1 159.2,34.1 171.2,22.1 " />
<polygon points="94.8,170.8 188,170.8 188,174.8 94.8,174.8 " />
<polygon points="188,170.8 164,172.8 176,160.8 " />
<polygon points="142.4,72.3 171,72.3 171,76.3 142.4,76.3 " />
<polygon points="177,74.3 177,131.6 165,137.6 165,74.3 " />
<polygon points="165,72.3 171,67.3 182,76.3 177,80.3 165,74.3 " />
<polygon points="142.4,121.6 171,121.6 171,125.6 142.4,125.6 " />
<polygon points="147.9,32.1 147.9,88.3 136.9,93.8 136.9,32.1 " />
<polygon points="147.9,121.6 147.9,174.8 136.9,174.8 136.9,116.1 " />
<polygon points="123.1,67.3 123.1,135.4 114.1,139.9 114.1,65.3 " />
<polygon points="123.1,67.3 125.3,69.3 123.1,71.3 " />
</g>
</svg>
