<svg xmlns="http://www.w3.org/2000/svg" xmlns:xlink="http://www.w3.org/1999/xlink" version="1.1" baseProfile="full" viewBox="0 0 200 200" width="200" height="200">
<g fill="black">
<polygon points="15.5,70 75.6,70 75.6,74 15.5,74 " />
<polygon points="75.6,70 51.6,72 63.6,60 " />
<polygon points="50.7,24 50.7,142 38.7,142 38.7,22 " />
<polygon points="50.7,24 53.7,26 50.7,28 " />
<polygon points="14.1,149 19,147.3 24.1,145.5 29.6,143.5 35.3,141.4 41.3,139.2 47.6,136.9 54.2,134.5 61.2,132 68.4,129.6 76.1,127.1 76.8,128.8 70,133 63.4,136.9 57,140.5 50.7,143.8 44.8,147 39.1,149.9 33.6,152.7 28.4,155.4 23.4,157.8 18.7,160.1 " />
<polygon points="18.7,160.1 14.1,149 12.3,149.8 " />
<polygon points="18.7,160.1 21.7,162.1 23.1,155.1 " />
<polygon points="91.8,27.3 91.8,76.8 79.8,82.8 79.8,21.3 " />
<polygon points="85.8,27.3 174.1,27.3 174.1,31.3 85.8,31.3 " />
<polygon points="180.1,29.3 180.1,73.8 168.1,79.8 168.1,29.3 " />
<polygon points="168.1,27.3 174.1,22.3 185.1,31.3 180.1,35.3 168.1,29.3 " />
<polygon points="121.2,27.3 121.2,69.8 109.2,69.8 109.2,27.3 " />
<polygon points="150.7,27.3 150.7,69.8 138.7,69.8 138.7,27.3 " />
<polygon points="85.8,65.8 174.1,65.8 174.1,69.8 85.8,69.8 " />
<polygon points="78,95 183,95 183,99 78,99 " />
<polygon points="183,95 159,97 171,85 " />
<polygon points="135,95 135,173 123,173 123,95 " />
<polygon points="129,130 176,130 176,134 129,134 " />
<polygon points="176,130 156,132 166,121 " />
<polygon points="94,122 94,180 82,186 82,120 " />
<polygon points="94,122 97,124 94,126 " />
<polygon points="88,169 189,169 189,173 88,173 " />
<polygon points="189,169 165,171 177,159 " />
</g>
</svg>
