<svg xmlns="http://www.w3.org/2000/svg" xmlns:xlink="http://www.w3.org/1999/xlink" version="1.1" baseProfile="full" viewBox="0 0 200 200" width="200" height="200">
<g fill="black">
<polygon points="18,29 182,29 182,33 18,33 " />
<polygon points="182,29 158,31 170,19 " />
<polygon points="81.2,30.1 74.9,63 62,66.6 69.4,27.9 " />
<polygon points="70,55 102,55 102,59 70,59 " />
<polygon points="107.9,56.6 108.6,71.9 108.9,86 108.8,98.9 108.4,110.5 107.7,121 106.6,130.3 105.1,138.5 103.2,145.5 100.8,151.6 97.8,156.6 88.2,149.4 90,146.3 91.8,141.8 93.4,135.9 94.7,128.6 95.7,119.9 96.4,109.9 96.8,98.7 96.9,86.1 96.6,72.3 96,57.3 " />
<polygon points="96,55 102,50 113,59 108,63 102,63 " />
<polygon points="97.8,156.6 93.8,158.9 89.4,157.8 87.1,153.8 88.2,149.4 " />
<polygon points="97.8,156.6 96.2,158.5 94.5,160.2 92.7,161.8 90.7,163.2 88.6,164.3 86.4,165.3 84.2,166 81.8,166.5 79.4,166.8 77,167 77,155 78.4,154.9 79.8,154.7 81,154.4 82.2,154.1 83.3,153.6 84.3,153 85.4,152.3 86.3,151.5 87.3,150.5 88.2,149.4 " />
<polygon points="77,161 77,155 57,155 57,158 " />
<polygon points="39,79 39,145 27,151 27,73 " />
<polygon points="33,79 69,79 69,83 33,83 " />
<polygon points="75,81 75,139 63,145 63,81 " />
<polygon points="63,79 69,74 80,83 75,87 63,81 " />
<polygon points="33,129 69,129 69,133 33,133 " />
<polygon points="111,70 162,70 162,74 111,74 " />
<polygon points="167.9,72.8 165.3,85.4 161.9,97.2 157.7,108.3 152.6,118.5 146.8,128 140.1,136.6 132.6,144.3 124.3,151.1 115.2,157 105.4,161.7 104.5,160.2 113.1,153.8 120.9,147 127.9,139.7 134.1,131.9 139.6,123.4 144.4,114.3 148.4,104.6 151.7,94.1 154.2,83 156,71.1 " />
<polygon points="156,70 162,65 173,74 168,78 162,78 " />
<polygon points="122,72.8 126,84.5 130,95.3 134.4,105.1 139,113.9 143.9,121.7 149.2,128.5 154.9,134.2 160.8,139 167,142.9 173.6,145.9 168.3,158 160.6,153.7 153.5,148.3 147,142 141.2,134.8 136.1,126.7 131.5,117.7 127.7,107.9 124.4,97.2 121.9,85.6 120.3,73.1 " />
<polygon points="168.3,158 173.6,145.9 179.8,148.6 " />
<polygon points="14,175 186,175 186,179 14,179 " />
<polygon points="186,175 162,177 174,165 " />
</g>
</svg>
