<svg xmlns="http://www.w3.org/2000/svg" xmlns:xlink="http://www.w3.org/1999/xlink" version="1.1" baseProfile="full" viewBox="0 0 200 200" width="200" height="200">
<g fill="black">
<polygon points="60,44 180,44 180,48 60,48 " />
<polygon points="180,44 156,46 168,34 " />
<polygon points="72.6,13.1 56.2,97.8 43.2,101.4 61.3,8.8 " />
<polygon points="72.6,13.1 75.2,15.6 71.9,17 " />
<polygon points="53,81 167,81 167,85 53,85 " />
<polygon points="172.9,83.3 171.9,98.1 170.5,111.7 168.8,124.2 166.6,135.6 164,145.9 160.9,155 157.4,163.1 153.4,170.1 148.8,176.1 143.6,180.8 136.4,171.2 140,167.9 143.4,163.5 146.7,157.8 149.7,150.8 152.4,142.5 154.9,133 156.9,122.3 158.6,110.3 160,97.1 161,82.6 " />
<polygon points="161,81 167,76 178,85 173,89 167,89 " />
<polygon points="143.6,180.8 139.1,181.9 135.2,179.6 134.1,175.1 136.4,171.2 " />
<polygon points="143.6,180.8 141.6,182.2 139.6,183.4 137.6,184.4 135.5,185.4 133.3,186.2 131.1,186.8 128.9,187.3 126.6,187.7 124.3,187.9 122,188 122,176 123.6,175.9 125.1,175.8 126.7,175.5 128.1,175.2 129.6,174.8 131,174.2 132.4,173.6 133.7,172.9 135.1,172.1 136.4,171.2 " />
<polygon points="122,182 122,176 102,176 102,179 " />
<polygon points="12,127 136,127 136,131 12,131 " />
<polygon points="136,127 112,129 124,117 " />
</g>
</svg>
