<svg xmlns="http://www.w3.org/2000/svg" xmlns:xlink="http://www.w3.org/1999/xlink" version="1.1" baseProfile="full" viewBox="0 0 200 200" width="200" height="200">
<g fill="black">
<polygon points="150.3,30 142.1,31.5 133.4,32.8 124.3,34.1 114.8,35.3 104.8,36.5 94.4,37.5 83.5,38.4 72.1,39.1 60.3,39.6 48,39.8 47.9,38.1 59.9,35.8 71.5,33.8 82.7,31.8 93.4,29.9 103.6,28.1 113.3,26.2 122.6,24.2 131.5,22.3 139.8,20.3 147.7,18.3 " />
<polygon points="147.7,18.3 150.3,30 158.4,28.2 " />
<polygon points="158.4,28.2 158.7,31.2 150.3,27 " />
<polygon points="54,18 54,46 42,46 42,16 " />
<polygon points="54,18 57,20 54,22 " />
<polygon points="54,46 51.6,49.6 48,52 44.4,49.6 42,46 " />
<polygon points="54,46 54,47.2 54.2,48.1 54.4,48.7 54.5,49 54.7,49.2 54.9,49.4 55.2,49.5 55.8,49.7 56.7,49.9 58,50 58,62 55.4,61.8 52.9,61.4 50.5,60.6 48.2,59.3 46.2,57.7 44.6,55.7 43.3,53.4 42.5,51 42.1,48.5 42,46 " />
<polygon points="58,50 62.2,51.8 64,56 62.2,60.2 58,62 " />
<polygon points="58,50 170,50 170,62 58,62 " />
<polygon points="170,50 173.6,52.4 176,56 173.6,59.6 170,62 " />
<polygon points="164,51 170,25 172,25 170,51 " />
<polygon points="75,72 75,156 63,156 63,66 " />
<polygon points="69,72 149,72 149,76 69,76 " />
<polygon points="155,74 155,156 143,156 143,74 " />
<polygon points="143,72 149,67 160,76 155,80 143,74 " />
<polygon points="69,92 149,92 149,96 69,96 " />
<polygon points="69,112 149,112 149,116 69,116 " />
<polygon points="69,132 149,132 149,136 69,136 " />
<polygon points="43,75 43,156 31,156 31,73 " />
<polygon points="43,75 46,77 43,79 " />
<polygon points="18,152 187,152 187,156 18,156 " />
<polygon points="187,152 163,154 175,142 " />
<polygon points="92,168.7 85.9,171.6 79.6,174.3 73,176.9 66.2,179.3 59.2,181.6 51.9,183.7 44.4,185.6 36.6,187.3 28.5,188.7 20.2,189.8 19.7,188.1 27.5,185.1 35.1,182.2 42.4,179.3 49.5,176.5 56.3,173.6 62.8,170.6 69,167.6 75,164.6 80.7,161.4 86.2,158.2 " />
<polygon points="86.2,158.2 92,168.7 94.2,167.5 " />
<polygon points="94.2,167.5 94.3,170.8 87,168 " />
<polygon points="116.1,162.2 123.5,162.5 130.6,163.2 137.3,164.2 143.7,165.5 149.8,167 155.5,168.8 160.9,170.9 166,173.1 170.8,175.6 175.2,178.4 167.9,187.9 164.5,185.1 160.8,182.5 156.6,179.9 151.9,177.4 146.9,175 141.5,172.7 135.6,170.5 129.4,168.4 122.8,166.2 115.8,164 " />
<polygon points="175.2,178.4 177.4,182.3 176.3,186.8 172.4,189 167.9,187.9 " />
</g>
</svg>
