<svg xmlns="http://www.w3.org/2000/svg" xmlns:xlink="http://www.w3.org/1999/xlink" version="1.1" baseProfile="full" viewBox="0 0 200 200" width="200" height="200">
<g fill="black">
<polygon points="32,40.3 137,40.3 137,44.3 32,44.3 " />
<polygon points="137,40.3 113,42.3 125,30.3 " />
<polygon points="96,14.1 96,79 84,79 84,12.1 " />
<polygon points="96,14.1 99,16.1 94,19.1 " />
<polygon points="15,75 185,75 185,79 15,79 " />
<polygon points="185,75 161,77 173,65 " />
<polygon points="166.3,24.9 154.9,39.4 142.6,53.4 129.4,66.7 115.4,79.4 100.5,91.6 84.6,103.1 67.9,114.1 50.3,124.3 31.8,133.9 12.3,142.7 11.6,141.1 30,130.6 47.6,119.7 64.3,108.6 80.2,97 95.1,85 109.2,72.5 122.4,59.6 134.6,46.2 146,32.3 156.5,18 " />
<polygon points="155.9,18.8 166.3,24.9 157,17.3 " />
<polygon points="166.3,24.9 167.5,28.3 161.7,27.8 " />
<polygon points="74.9,107 74.9,181.9 62.9,187.9 62.9,101 " />
<polygon points="68.9,107 151,107 151,111 68.9,111 " />
<polygon points="157,109 157,178.9 145,184.9 145,109 " />
<polygon points="145,107 151,102 162,111 157,115 145,109 " />
<polygon points="68.9,138 151,138 151,142 68.9,142 " />
<polygon points="68.9,170.9 151,170.9 151,174.9 68.9,174.9 " />
<polygon points="118.3,80.7 121,81.9 123.9,82.9 126.6,84.1 129.2,85.5 131.6,87 133.9,88.6 136.1,90.4 138.2,92.3 140.1,94.3 141.8,96.5 131.2,102.2 130.6,100.2 129.8,98.3 128.9,96.3 127.8,94.4 126.5,92.3 125,90.3 123.4,88.3 121.6,86.2 119.7,84 117.4,82.2 " />
<polygon points="141.8,96.5 142.2,101 139.4,104.6 134.8,105 131.2,102.2 " />
</g>
</svg>
