<svg xmlns="http://www.w3.org/2000/svg" xmlns:xlink="http://www.w3.org/1999/xlink" version="1.1" baseProfile="full" viewBox="0 0 200 200" width="200" height="200">
<g fill="black">
<polygon points="76.9,30 76.9,30.1 75.7,52.8 73.4,73.9 69.9,93.5 65.4,111.5 59.7,127.9 52.9,142.7 45,155.9 35.9,167.3 25.7,177 14.5,184.7 13.4,183.2 23.1,174.2 31.8,163.9 39.4,152.4 46.1,139.4 51.7,125 56.4,109 60.1,91.6 62.7,72.6 64.3,52 64.9,30 " />
<polygon points="20,28 134,28 134,32 20,32 " />
<polygon points="139.2,31 120.5,93.1 107.3,95.2 127.7,30 " />
<polygon points="128,28 134,23 145,32 140,35 128,40 " />
<polygon points="119,76 161,76 161,80 119,80 " />
<polygon points="166.6,80.1 159,96.8 150.2,112.3 140.1,126.4 128.6,139.2 115.9,150.7 102,160.8 86.9,169.5 70.5,176.7 52.9,182.5 34.2,186.8 33.7,185.1 51.7,178.9 68.4,171.8 83.7,163.7 97.7,154.5 110.5,144.2 121.9,132.8 132.1,120.3 141.1,106.7 148.8,91.8 155.3,75.8 " />
<polygon points="155,76 161,71 172,80 167,83 155,88 " />
<polygon points="75.9,30.9 78.6,51.9 82.8,71.3 88.7,89 96.3,105 105.5,119.5 116.5,132.5 129.2,143.9 143.7,154 160,162.6 178.2,169.7 173.7,182.2 154.6,173.8 137.4,163.9 122.2,152.5 109,139.4 97.9,124.9 88.8,108.9 81.9,91.4 77.1,72.6 74.5,52.5 74.1,31 " />
<polygon points="173.7,182.2 178.2,169.7 185.3,172.3 " />
</g>
</svg>
