<svg xmlns="http://www.w3.org/2000/svg" xmlns:xlink="http://www.w3.org/1999/xlink" version="1.1" baseProfile="full" viewBox="0 0 200 200" width="200" height="200">
<g fill="black">
<polygon points="107,15 107,42 95,42 95,13 " />
<polygon points="107,15 110,17 107,19 " />
<polygon points="23,38 179,38 179,42 23,42 " />
<polygon points="179,38 155,40 167,28 " />
<polygon points="107.6,46.9 105.4,49.7 103.1,52.5 100.6,55.4 98,58.3 95.2,61.1 92.3,64 89.1,66.9 85.8,69.8 82.2,72.6 78.6,75.6 77.3,74.3 79.9,70.5 82.3,66.7 84.6,63.1 86.8,59.6 88.9,56.2 90.9,52.9 92.7,49.7 94.4,46.6 95.9,43.6 97.3,40.7 " />
<polygon points="97.3,40.7 107.6,46.9 97.8,39.8 " />
<polygon points="107.6,46.9 109.1,50.2 101.9,50.5 " />
<polygon points="66.3,63.7 69.5,65.3 72.7,66.7 75.8,68.2 78.7,69.9 81.4,71.7 84,73.6 86.4,75.6 88.7,77.8 90.7,80 92.7,82.4 82.3,88.3 81.4,86.2 80.4,84 79.1,81.7 77.7,79.5 76.2,77.2 74.4,74.8 72.4,72.5 70.3,70 68,67.5 65.3,65.2 " />
<polygon points="92.7,82.4 93.2,86.9 90.4,90.6 85.9,91.1 82.3,88.3 " />
<polygon points="128.3,63.2 124.2,68.4 119.9,73.7 115.4,79 110.8,84.5 105.9,90.1 100.8,95.7 95.4,101.4 89.8,107.1 83.9,112.8 77.6,118.5 76.3,117.4 81,110.4 85.7,103.6 90.4,97.2 94.9,90.9 99.2,84.8 103.4,78.8 107.5,73 111.3,67.3 115,61.7 118.5,56.3 " />
<polygon points="118.5,56.3 128.3,63.2 119,55.6 " />
<polygon points="128.3,63.2 129.6,66.6 122.4,66.4 " />
<polygon points="64,114.9 69.8,114.2 75.9,113.5 82,112.7 88.3,112 94.7,111.2 101.2,110.5 107.9,109.7 114.7,109 121.6,108.5 128.8,108.1 129.1,109.8 122.4,112.2 115.7,114.3 109.1,116.2 102.6,117.9 96.2,119.6 89.9,121.1 83.8,122.6 77.7,124.1 71.8,125.4 65.9,126.7 " />
<polygon points="65.9,126.7 64,114.9 62,115.2 " />
<polygon points="65.9,126.7 68.4,129.3 71.3,122.8 " />
<polygon points="115.3,85.2 118.4,88.5 121.4,91.7 124.2,95 126.7,98.3 129,101.7 131.1,105 132.9,108.5 134.6,111.9 136,115.3 137.2,118.8 125.5,121.3 125.1,118.2 124.6,115.1 123.9,111.9 123,108.6 121.9,105.2 120.6,101.6 119.2,98 117.6,94.2 115.9,90.2 113.8,86.3 " />
<polygon points="137.2,118.8 136.3,123.3 132.6,125.9 128.1,125 125.5,121.3 " />
<polygon points="61.2,58.3 58.5,61.2 55.6,64.1 52.5,67 49,69.9 45.3,72.7 41.4,75.6 37.1,78.5 32.6,81.3 27.7,84 22.5,86.7 21.4,85.2 25.6,81.1 29.4,77.2 33.1,73.5 36.6,70 39.8,66.6 42.7,63.3 45.3,60.1 47.7,57 49.7,54 51.5,51.2 " />
<polygon points="51.5,51.2 61.2,58.3 52,50.6 " />
<polygon points="61.2,58.3 62.4,61.7 55.2,61.4 " />
<polygon points="63.9,95.5 60.7,98.8 57.3,102.1 53.5,105.4 49.4,108.7 45.1,112.1 40.4,115.5 35.5,118.9 30.2,122.2 24.5,125.5 18.5,128.7 17.4,127.2 22.3,122.5 26.9,118 31.4,113.7 35.6,109.6 39.5,105.7 43.1,101.9 46.5,98.2 49.5,94.6 52.2,91.2 54.7,87.9 " />
<polygon points="54.7,87.9 63.9,95.5 55.1,87.4 " />
<polygon points="63.9,95.5 65,99 57.8,98.3 " />
<polygon points="137.2,55.6 141.5,57 145.6,58.3 149.5,59.9 153.3,61.7 156.8,63.5 160.2,65.5 163.3,67.7 166.3,69.9 169.1,72.3 171.8,74.9 162.4,82.4 160.8,79.9 158.9,77.4 156.9,74.9 154.6,72.4 152.1,69.9 149.4,67.4 146.5,64.9 143.4,62.3 140.1,59.7 136.5,57.2 " />
<polygon points="171.8,74.9 173,79.3 170.8,83.3 166.4,84.5 162.4,82.4 " />
<polygon points="135.2,88.5 139.8,89.8 144.2,91.3 148.5,93.1 152.6,95.2 156.7,97.4 160.5,99.9 164.2,102.6 167.8,105.5 171.3,108.5 174.6,111.8 165.4,119.5 163,116.2 160.4,113 157.6,109.9 154.8,106.9 151.7,104 148.6,101.2 145.3,98.4 141.8,95.6 138.2,92.9 134.5,90.2 " />
<polygon points="174.6,111.8 175.9,116.2 173.9,120.2 169.5,121.6 165.4,119.5 " />
<polygon points="17,143 184,143 184,147 17,147 " />
<polygon points="184,143 160,145 172,133 " />
<polygon points="107,124 107,185 95,191 95,122 " />
<polygon points="107,124 110,126 107,128 " />
</g>
</svg>
