<svg xmlns="http://www.w3.org/2000/svg" xmlns:xlink="http://www.w3.org/1999/xlink" version="1.1" baseProfile="full" viewBox="0 0 200 200" width="200" height="200">
<g fill="black">
<polygon points="84,26 84,97 72,97 72,20 " />
<polygon points="84,97 81.6,100.6 78,103 74.4,100.6 72,97 " />
<polygon points="84,97 83.2,110.1 81.6,122.5 79.2,134.1 75.8,144.8 71.6,154.7 66.5,163.7 60.5,171.7 53.6,178.8 45.9,184.8 37.4,189.7 36.5,188.2 43.5,181.9 49.8,175.1 55.2,167.8 59.9,159.8 63.8,151.2 67,141.9 69.4,131.8 71,121 71.9,109.4 72,97 " />
<polygon points="78,26 130,26 130,30 78,30 " />
<polygon points="136,28 136,172 124,172 124,28 " />
<polygon points="124,26 130,21 141,30 136,34 124,28 " />
<polygon points="136,172 133.6,175.6 130,178 126.4,175.6 124,172 " />
<polygon points="136,172 135.8,174.5 135.4,177 134.6,179.4 133.3,181.7 131.7,183.7 129.7,185.3 127.4,186.6 125,187.4 122.5,187.8 120,188 120,176 121.2,175.9 122.1,175.7 122.7,175.5 123,175.4 123.2,175.2 123.4,175 123.5,174.7 123.7,174.1 123.9,173.2 124,172 " />
<polygon points="120,182 120,176 100,176 100,179 " />
<polygon points="89.3,58.7 92.9,60.4 96.5,61.9 99.8,63.4 103,65.1 105.9,66.8 108.7,68.5 111.2,70.3 113.7,72.1 115.9,74 118,75.9 108.4,83.2 107.3,81.2 106.1,79.2 104.6,77.1 102.9,74.9 101,72.7 98.9,70.3 96.6,67.9 94.1,65.4 91.4,62.7 88.3,60.2 " />
<polygon points="118,75.9 119,80.4 116.8,84.3 112.3,85.4 108.4,83.2 " />
<polygon points="88.3,103.7 92.1,105.4 95.9,106.9 99.4,108.5 102.8,110.3 106,112.2 109,114.2 111.8,116.3 114.4,118.4 116.8,120.7 119.1,123 109.3,130 108.1,127.7 106.6,125.4 105,123.1 103.1,120.7 101,118.2 98.7,115.7 96.2,113.1 93.5,110.5 90.6,107.8 87.4,105.2 " />
<polygon points="119.1,123 120.1,127.5 117.7,131.4 113.2,132.4 109.3,130 " />
</g>
</svg>
