<svg xmlns="http://www.w3.org/2000/svg" xmlns:xlink="http://www.w3.org/1999/xlink" version="1.1" baseProfile="full" viewBox="0 0 200 200" width="200" height="200">
<g fill="black">
<polygon points="60.6,22.2 57.1,26.6 53.5,30.9 49.6,35.2 45.6,39.5 41.4,43.7 36.9,47.9 32.3,52 27.5,56.1 22.3,59.9 16.9,63.6 15.7,62.3 19.7,57.2 23.7,52.2 27.6,47.4 31.4,42.7 35,38.1 38.5,33.5 41.8,28.9 44.9,24.4 47.9,19.9 50.7,15.4 " />
<polygon points="50.1,16.2 60.6,22.2 51.2,14.7 " />
<polygon points="60.6,22.2 61.9,25.5 56.1,25.2 " />
<polygon points="64.2,53.4 60.2,61 55.9,68.4 51.4,75.7 46.6,82.8 41.6,89.8 36.3,96.6 30.7,103.2 24.9,109.6 18.7,115.7 12.1,121.6 10.8,120.3 15.8,113.2 20.7,106.2 25.5,99.2 30.2,92.2 34.6,85.1 38.8,77.9 42.8,70.6 46.5,63.3 50,55.8 53.4,48.3 " />
<polygon points="52.9,49.2 64.2,53.4 53.9,47.2 " />
<polygon points="64.2,53.4 66.1,56.5 60.3,57.1 " />
<polygon points="47.1,90 47.1,184 35.1,190 35.1,88 " />
<polygon points="47.1,90 50.1,92 45.1,95 " />
<polygon points="104.5,18 104.5,72 92.5,72 92.5,16 " />
<polygon points="104.5,18 107.5,20 102.5,23 " />
<polygon points="79.6,35 79.6,79 67.6,85 67.6,33 " />
<polygon points="79.6,35 82.6,37 77.6,40 " />
<polygon points="73.6,68 123.3,68 123.3,72 73.6,72 " />
<polygon points="129.3,35 129.3,76 117.3,82 117.3,33 " />
<polygon points="129.3,35 132.3,37 127.3,40 " />
<polygon points="60.7,93 135.3,93 135.3,97 60.7,97 " />
<polygon points="135.3,93 115.3,95 125.3,84 " />
<polygon points="87.6,112 87.6,136 75.6,136 75.6,106 " />
<polygon points="87.6,136 85.1,139.6 81.6,142 78,139.6 75.6,136 " />
<polygon points="87.6,136 87,142.7 85.9,149.1 84.3,155.2 82.1,161 79.4,166.5 76.2,171.6 72.5,176.3 68.3,180.6 63.5,184.4 58.2,187.7 57.1,186.2 60.9,181.6 64.3,177.1 67.2,172.4 69.7,167.7 71.7,162.9 73.4,157.9 74.5,152.7 75.3,147.4 75.6,141.8 75.6,136 " />
<polygon points="81.6,112 112.4,112 112.4,116 81.6,116 " />
<polygon points="118.4,114 118.4,162 106.4,162 106.4,114 " />
<polygon points="106.4,112 112.4,107 123.4,116 118.4,120 106.4,114 " />
<polygon points="100.9,161.4 104.6,159.2 108.4,156.8 112.3,154.3 116.3,151.7 120.4,149 124.6,146.2 128.8,143.3 133.2,140.3 137.8,137.3 142.6,134.3 143.8,135.6 140.4,140.1 136.8,144.3 133.1,148.3 129.4,152 125.7,155.6 122,159 118.4,162.3 114.8,165.5 111.2,168.5 107.7,171.3 " />
<polygon points="107.7,171.3 100.9,161.4 99.2,162.6 " />
<polygon points="107.7,171.3 111,172.7 110.9,165.5 " />
<polygon points="158,19.7 156,31.2 153.8,42.2 151.5,52.7 148.9,62.7 146.1,72.3 143,81.4 139.8,89.9 136.2,98 132.4,105.5 128.1,112.3 126.5,111.6 128.9,104 131.2,96.1 133.5,87.8 135.8,79.2 137.9,70.1 139.8,60.6 141.6,50.7 143.3,40.3 144.8,29.4 146.1,18.1 " />
<polygon points="146,19.1 158,19.7 146.4,16.1 " />
<polygon points="158,19.7 160.7,22.1 155.4,24.4 " />
<polygon points="145.2,55 189,55 189,59 145.2,59 " />
<polygon points="189,55 169,57 179,46 " />
<polygon points="181.1,57.2 179.2,78.2 176.1,97.5 171.7,115.2 166.2,131.2 159.5,145.6 151.5,158.3 142.3,169.3 131.9,178.4 120.4,185.6 107.8,190.8 107.1,189.1 118.4,182.3 128.5,174.2 137.4,164.9 145.2,154.1 151.9,141.8 157.5,128 162.1,112.6 165.5,95.5 167.8,76.9 169.1,56.7 " />
<polygon points="143.2,73.9 145.9,90.1 148.7,105 152,118.6 155.7,130.9 159.8,141.8 164.4,151.4 169.4,159.6 174.8,166.5 180.6,172.1 186.7,176.4 179.4,187.5 172.1,181.4 165.7,174 160.1,165.5 155.2,155.9 151.1,145.1 147.7,133.2 144.9,120.1 142.9,105.9 141.7,90.6 141.4,74 " />
<polygon points="179.4,187.5 186.7,176.4 190.5,178.9 " />
</g>
</svg>
