<svg xmlns="http://www.w3.org/2000/svg" xmlns:xlink="http://www.w3.org/1999/xlink" version="1.1" baseProfile="full" viewBox="0 0 200 200" width="200" height="200">
<g fill="black">
<polygon points="105.8,82.2 102,95.9 96.8,109 90.5,121.3 82.8,132.9 73.9,143.7 63.8,153.8 52.5,163 40,171.5 26.3,179.1 11.3,185.8 10.6,184.1 24.4,175.8 37,167 48.4,157.9 58.6,148.3 67.5,138.2 75.2,127.6 81.7,116.4 87,104.8 91.1,92.5 94.1,79.7 " />
<polygon points="55,11.1 65.3,14.6 75.7,25.1 86.2,40.7 97.3,59.9 109.2,81.5 122.2,104.1 136.6,126.5 152.5,147.1 170,164.8 189.2,178.2 182.7,189.7 161.7,174.2 143.4,154.7 127.4,132.6 113.4,109.3 101,85.9 89.9,63.8 79.9,44.2 70.9,28.5 62.7,17.8 54.9,12.9 " />
<polygon points="182.7,189.7 189.2,178.2 193.9,180.9 " />
</g>
</svg>
