<svg xmlns="http://www.w3.org/2000/svg" xmlns:xlink="http://www.w3.org/1999/xlink" version="1.1" baseProfile="full" viewBox="0 0 200 200" width="200" height="200">
<g fill="black">
<polygon points="111,14 111,51 99,51 99,12 " />
<polygon points="111,14 114,16 109,19 " />
<polygon points="105,27 170,27 170,31 105,31 " />
<polygon points="170,27 146,29 158,17 " />
<polygon points="41,48 41,111 29,111 29,42 " />
<polygon points="41,111 38.6,114.6 35,117 31.4,114.6 29,111 " />
<polygon points="41,111 40.4,121.3 39.4,131.1 37.8,140.2 35.8,148.8 33.3,156.7 30.2,164 26.6,170.6 22.5,176.4 17.8,181.5 12.6,185.6 11.3,184.3 14.9,179 18,173.5 20.8,167.5 23.2,161.1 25.1,154.2 26.7,146.7 27.9,138.7 28.7,130 29,120.8 29,111 " />
<polygon points="35,48 176,48 176,52 35,52 " />
<polygon points="180.7,53.6 178.9,55.2 177.1,56.9 175.2,58.6 173.2,60.3 171.1,62.1 169,63.9 166.7,65.7 164.4,67.5 161.9,69.4 159.6,71.5 158.3,70.4 160,67.8 161.3,65 162.6,62.4 164,59.8 165.3,57.3 166.6,55 167.8,52.7 169,50.5 170.1,48.3 171.2,46.3 " />
<polygon points="170,48 176,43 187,52 182,55 170,60 " />
<polygon points="55,70 158,70 158,74 55,74 " />
<polygon points="158,70 138,72 148,61 " />
<polygon points="111,47 111,96 99,96 99,47 " />
<polygon points="47,92 169,92 169,96 47,96 " />
<polygon points="169,92 145,94 157,82 " />
</g>
</svg>
