<svg xmlns="http://www.w3.org/2000/svg" xmlns:xlink="http://www.w3.org/1999/xlink" version="1.1" baseProfile="full" viewBox="0 0 200 200" width="200" height="200">
<g fill="black">
<polygon points="162.4,64 157.6,68.1 152.6,72.2 147.4,76.2 142.1,80.2 136.7,84.2 131.1,88.1 125.2,91.9 119.2,95.7 113,99.3 106.5,102.7 105.4,101.2 110.8,96.2 116,91.4 121.3,86.7 126.4,82.1 131.4,77.6 136.2,73.1 140.9,68.6 145.4,64.1 149.8,59.7 154.1,55.3 " />
<polygon points="153.4,56 162.4,64 154.3,55.1 " />
<polygon points="162.4,64 163,67.5 157.4,66 " />
<polygon points="75.2,61.4 85,77.7 94.7,92.8 104.4,106.8 114.1,119.6 123.9,131.2 133.8,141.6 143.7,150.7 153.8,158.7 163.9,165.5 174,171.1 167.9,182.8 157,176 146.5,168 136.3,158.9 126.4,148.6 116.7,137.2 107.4,124.6 98.4,110.8 89.7,95.8 81.4,79.7 73.6,62.2 " />
<polygon points="167.9,182.8 174,171.1 179.1,173.8 " />
<polygon points="159,27.9 146.6,31.9 134,35.6 121,39.1 107.7,42.3 94.2,45.2 80.3,47.8 66.2,50.1 51.8,52.1 37.1,53.7 22.1,54.8 21.8,53.1 36.5,50 50.9,46.8 65,43.7 78.8,40.4 92.2,36.9 105.4,33.3 118.3,29.4 130.8,25.4 143,21.1 155,16.6 " />
<polygon points="154,17 159,27.9 164.5,26 " />
<polygon points="164.5,26 164.7,29.1 158,26.2 " />
<polygon points="70,52 70,180 58,186 58,50 " />
<polygon points="70,52 73,54 68,57 " />
</g>
</svg>
