<svg xmlns="http://www.w3.org/2000/svg" xmlns:xlink="http://www.w3.org/1999/xlink" version="1.1" baseProfile="full" viewBox="0 0 200 200" width="200" height="200">
<g fill="black">
<polygon points="29,23 170,23 170,27 29,27 " />
<polygon points="170,23 146,25 158,13 " />
<polygon points="66,32 66,102 54,108 54,30 " />
<polygon points="66,32 69,34 64,37 " />
<polygon points="17,64 95,64 95,68 17,68 " />
<polygon points="95,64 71,66 83,54 " />
<polygon points="30,109 170,109 170,113 30,113 " />
<polygon points="170,109 146,111 158,99 " />
<polygon points="106,23 106,183 94,189 94,23 " />
<polygon points="20,145 183,145 183,149 20,149 " />
<polygon points="183,145 159,147 171,135 " />
<polygon points="147,32 147,102 135,108 135,30 " />
<polygon points="147,32 150,34 145,37 " />
<polygon points="107,64 185,64 185,68 107,68 " />
<polygon points="185,64 161,66 173,54 " />
</g>
</svg>
