<svg xmlns="http://www.w3.org/2000/svg" xmlns:xlink="http://www.w3.org/1999/xlink" version="1.1" baseProfile="full" viewBox="0 0 200 200" width="200" height="200">
<g fill="black">
<polygon points="78.1,75.2 75.2,80.7 72.1,86.1 68.7,91.3 65,96.3 61,101.2 56.7,105.9 52.2,110.5 47.3,114.8 42.1,118.9 36.5,122.6 35.4,121.3 39.5,116.1 43.5,111.1 47.3,106.1 50.9,101.1 54.2,96.1 57.3,91.1 60.1,86 62.7,80.9 65,75.7 67,70.5 " />
<polygon points="67,70.5 78.1,75.2 67.6,69.2 " />
<polygon points="78.1,75.2 80,78.3 73,79.6 " />
<polygon points="58,92 165,92 165,96 58,96 " />
<polygon points="165,92 141,94 153,82 " />
<polygon points="24,126 184,126 184,130 24,130 " />
<polygon points="184,126 160,128 172,116 " />
<polygon points="106,92 106,123 94,123 94,92 " />
<polygon points="106,123 103.6,126.6 100,129 96.4,126.6 94,123 " />
<polygon points="105.9,123.7 103.5,134.2 99.5,143.9 93.9,152.7 86.8,160.6 78.3,167.6 68.4,173.6 57.1,178.8 44.5,183.1 30.5,186.4 15.1,188.8 14.8,187.1 29.5,182.8 42.8,178 54.4,172.8 64.6,167.1 73.1,160.8 80.1,154.1 85.7,146.9 89.8,139.2 92.5,131 94,122.2 " />
<polygon points="105.1,126.6 108.7,132.5 112.9,138 117.6,143.2 123.1,148.2 129.4,153 136.6,157.6 144.6,161.9 153.5,166.1 163.4,170 174.1,173.7 169.8,186.2 158.7,181.6 148.5,176.8 139.2,171.6 131,166.1 123.6,160.4 117.3,154.3 112.1,147.9 107.9,141.2 105,134.3 103.4,127.2 " />
<polygon points="169.8,186.2 174.1,173.7 181.3,176.2 " />
<polygon points="51,26 136,26 136,30 51,30 " />
<polygon points="142,28 142,67 130,67 130,28 " />
<polygon points="130,26 136,21 147,30 142,34 130,28 " />
<polygon points="25,63 184,63 184,67 25,67 " />
<polygon points="184,63 160,65 172,53 " />
</g>
</svg>
