<svg xmlns="http://www.w3.org/2000/svg" xmlns:xlink="http://www.w3.org/1999/xlink" version="1.1" baseProfile="full" viewBox="0 0 200 200" width="200" height="200">
<g fill="black">
<polygon points="151.1,29 141.5,30.5 131.7,32 121.7,33.5 111.4,34.9 101,36.4 90.3,37.9 79.3,39.3 68.2,40.6 56.8,41.8 45.1,42.8 44.8,41.1 56.1,38.1 67.2,35.4 78.2,32.8 88.9,30.4 99.5,28.1 109.8,25.8 119.9,23.6 129.8,21.4 139.4,19.3 148.9,17.2 " />
<polygon points="148.9,17.2 151.1,29 159.9,27.4 " />
<polygon points="159.9,27.4 160.3,30.4 151.7,25.9 " />
<polygon points="51,39 51,171 39,171 39,37 " />
<polygon points="51,39 54,41 51,43 " />
<polygon points="18.1,167.9 30.2,166.4 41.9,165 53.3,163.6 64.5,162.3 75.3,161 85.8,159.7 96,158.6 105.9,157.5 115.5,156.7 124.8,156.1 125.1,157.8 116.1,160.4 106.8,162.8 97,165.1 87,167.2 76.6,169.4 65.9,171.5 54.9,173.5 43.5,175.6 31.8,177.7 19.8,179.7 " />
<polygon points="19.8,179.7 18.1,167.9 16.1,168.2 " />
<polygon points="19.8,179.7 22.2,182.4 25.3,175.9 " />
<polygon points="162.4,64 157.6,68.1 152.6,72.2 147.4,76.2 142.1,80.2 136.7,84.2 131.1,88.1 125.2,91.9 119.2,95.7 113,99.3 106.5,102.7 105.4,101.2 110.8,96.2 116,91.4 121.3,86.7 126.4,82.1 131.4,77.6 136.2,73.1 140.9,68.6 145.4,64.1 149.8,59.7 154.1,55.3 " />
<polygon points="154.1,55.3 162.4,64 154.3,55.1 " />
<polygon points="162.4,64 163,67.5 156,66 " />
<polygon points="75.2,61.4 85,77.7 94.7,92.8 104.4,106.8 114.1,119.6 123.9,131.2 133.8,141.6 143.7,150.7 153.8,158.7 163.9,165.5 174,171.1 167.9,182.8 157,176 146.5,168 136.3,158.9 126.4,148.6 116.7,137.2 107.4,124.6 98.4,110.8 89.7,95.8 81.4,79.7 73.6,62.2 " />
<polygon points="167.9,182.8 174,171.1 179.1,173.8 " />
</g>
</svg>
