<svg xmlns="http://www.w3.org/2000/svg" xmlns:xlink="http://www.w3.org/1999/xlink" version="1.1" baseProfile="full" viewBox="0 0 200 200" width="200" height="200">
<g fill="black">
<polygon points="140,25.9 128.9,29.4 117.5,32.7 105.9,36 94,39.2 81.9,42.4 69.5,45.4 56.8,48.3 43.9,51 30.7,53.6 17.2,55.8 16.7,54.1 29.8,49.9 42.6,45.8 55.1,41.9 67.5,38.1 79.5,34.2 91.4,30.3 102.9,26.4 114.2,22.5 125.3,18.6 136,14.6 " />
<polygon points="135.1,14.9 140,25.9 145.7,24 " />
<polygon points="145.7,24 145.9,27.1 139.1,24.1 " />
<polygon points="39.3,54.6 43.6,56.5 47.8,58.1 51.7,59.9 55.3,61.7 58.5,63.6 61.5,65.6 64.3,67.7 66.7,69.8 68.9,72.1 70.8,74.5 60.2,80.2 59.6,78.4 58.6,76.4 57.3,74.3 55.6,72.1 53.6,69.7 51.2,67.2 48.5,64.6 45.5,61.9 42.2,59 38.4,56.2 " />
<polygon points="70.8,74.5 71.2,79 68.4,82.6 63.8,83 60.2,80.2 " />
<polygon points="76.2,43.6 80.4,45.1 84.4,46.4 88,47.9 91.5,49.6 94.6,51.4 97.5,53.4 100.1,55.5 102.4,57.7 104.5,60.2 106.3,62.8 95.3,67.6 94.8,65.7 94,63.8 92.9,61.7 91.5,59.6 89.7,57.3 87.5,55 85,52.6 82.2,50.1 79.1,47.5 75.5,45.2 " />
<polygon points="106.3,62.8 106.3,67.4 103.1,70.7 98.6,70.7 95.3,67.6 " />
<polygon points="174.9,53.7 162.7,59.7 149.8,65.6 136.3,71.3 122.2,76.8 107.5,82 92.1,87.1 76.1,92 59.5,96.6 42.2,100.9 24.2,104.8 23.7,103.1 41.1,97.3 57.9,91.5 74.1,85.7 89.6,80 104.5,74.1 118.7,68.1 132.3,62.1 145.3,55.9 157.6,49.6 169.2,43.2 " />
<polygon points="168.3,43.6 174.9,53.7 177.3,52.4 " />
<polygon points="177.3,52.4 177.4,55.8 171.5,53.3 " />
<polygon points="20,108 185,108 185,112 20,112 " />
<polygon points="185,108 161,110 173,98 " />
<polygon points="144,83 144,173 132,173 132,81 " />
<polygon points="144,83 147,85 142,88 " />
<polygon points="144,173 141.6,176.6 138,179 134.4,176.6 132,173 " />
<polygon points="144,173 143.8,175.5 143.4,178 142.6,180.4 141.3,182.7 139.7,184.7 137.7,186.3 135.4,187.6 133,188.4 130.5,188.8 128,189 128,177 129.2,176.9 130.1,176.7 130.7,176.5 131,176.4 131.2,176.2 131.4,176 131.5,175.7 131.7,175.1 131.9,174.2 132,173 " />
<polygon points="128,183 128,177 108,177 108,180 " />
<polygon points="52.3,119.7 57.4,121.7 62.2,123.9 66.7,126.3 70.9,128.9 74.8,131.6 78.4,134.5 81.7,137.5 84.8,140.7 87.5,144 89.9,147.5 79.2,153.1 77.9,150.1 76.2,147 74.2,144 71.9,140.8 69.3,137.7 66.3,134.5 63.1,131.3 59.5,128 55.6,124.6 51.4,121.2 " />
<polygon points="89.9,147.5 90.2,152.1 87.3,155.6 82.8,156 79.2,153.1 " />
</g>
</svg>
