<svg xmlns="http://www.w3.org/2000/svg" xmlns:xlink="http://www.w3.org/1999/xlink" version="1.1" baseProfile="full" viewBox="0 0 200 200" width="200" height="200">
<g fill="black">
<polygon points="103.2,23.1 97.5,24 91.7,25 85.8,25.9 79.9,26.7 73.9,27.5 67.8,28.2 61.6,28.8 55.3,29.4 49,29.7 42.5,29.8 42.2,28 48.3,26 54.4,24.1 60.4,22.4 66.4,20.7 72.2,19.2 78.1,17.6 83.8,16 89.4,14.5 95,12.9 100.5,11.4 " />
<polygon points="100.5,11.4 103.2,23.1 111.2,21.3 " />
<polygon points="111.2,21.3 111.6,24.3 103.1,20 " />
<polygon points="48.4,27.5 48.4,115.5 36.4,121.5 36.4,25.5 " />
<polygon points="48.4,27.5 51.4,29.5 48.4,31.5 " />
<polygon points="42.4,62.6 96.1,62.6 96.1,66.6 42.4,66.6 " />
<polygon points="96.1,62.6 72.1,64.6 84.1,52.6 " />
<polygon points="42.4,99.5 159.5,99.5 159.5,103.5 42.4,103.5 " />
<polygon points="165.5,28.9 165.5,109.5 153.5,115.5 153.5,28.9 " />
<polygon points="153.5,26.9 159.5,21.9 170.5,30.9 165.5,34.9 153.5,28.9 " />
<polygon points="111.5,26.9 159.5,26.9 159.5,30.9 111.5,30.9 " />
<polygon points="108.6,62.6 159.5,62.6 159.5,66.6 108.6,66.6 " />
<polygon points="33,138.5 169.9,138.5 169.9,142.5 33,142.5 " />
<polygon points="169.9,138.5 145.9,140.5 157.9,128.5 " />
<polygon points="107.5,110.3 107.5,184.1 95.5,184.1 95.5,108.3 " />
<polygon points="107.5,110.3 110.5,112.3 107.5,114.3 " />
<polygon points="21,180.1 181.9,180.1 181.9,184.1 21,184.1 " />
<polygon points="181.9,180.1 157.9,182.1 169.9,170.1 " />
</g>
</svg>
