<svg xmlns="http://www.w3.org/2000/svg" xmlns:xlink="http://www.w3.org/1999/xlink" version="1.1" baseProfile="full" viewBox="0 0 200 200" width="200" height="200">
<g fill="black">
<polygon points="111.8,21.6 105.4,32.4 98.4,42.8 90.9,52.7 82.8,62.2 74.2,71.3 65,80 55.2,88.2 44.9,95.9 34,103.1 22.4,109.7 21.5,108.2 31.8,100 41.6,91.7 50.9,83.2 59.7,74.5 68,65.5 75.7,56.2 82.9,46.6 89.5,36.8 95.6,26.6 101.2,16 " />
<polygon points="100.7,16.9 111.8,21.6 101.7,15 " />
<polygon points="111.8,21.6 113.5,24.8 107.7,25.1 " />
<polygon points="89,48 172,48 172,52 89,52 " />
<polygon points="177.3,52.7 166.3,72 154.2,90 141,106.6 126.8,121.8 111.5,135.7 95.1,148.1 77.7,159 59.2,168.5 39.7,176.4 19.2,182.8 18.7,181.1 38.3,172.9 56.8,163.7 74.3,153.4 90.6,141.9 105.9,129.2 120.2,115.3 133.3,100.2 145.4,83.8 156.5,66.2 166.6,47.2 " />
<polygon points="166,48 172,43 183,52 178,55 166,60 " />
<polygon points="73.2,67.6 79.3,69.4 85,71.5 90.3,73.8 95.3,76.2 99.9,78.8 104.2,81.4 108.1,84.1 111.7,86.9 115,89.9 117.9,92.9 108.4,100.2 106.5,97.4 104.2,94.6 101.5,91.7 98.5,88.7 95,85.7 91.2,82.6 87.1,79.4 82.5,76.2 77.7,72.8 72.5,69.2 " />
<polygon points="117.9,92.9 119,97.4 116.8,101.3 112.3,102.5 108.4,100.2 " />
<polygon points="46.2,90.6 51.6,92.3 56.8,94.4 61.6,96.7 66.2,99.2 70.6,101.9 74.7,104.8 78.6,107.8 82.3,111 85.7,114.4 89,117.9 79.4,125.2 77,121.7 74.5,118.4 71.7,115.1 68.7,111.8 65.4,108.5 61.8,105.3 58.1,102.1 54.1,98.9 49.9,95.6 45.4,92.2 " />
<polygon points="89,118 90,122.4 87.8,126.4 83.3,127.4 79.4,125.2 " />
</g>
</svg>
