<svg xmlns="http://www.w3.org/2000/svg" xmlns:xlink="http://www.w3.org/1999/xlink" version="1.1" baseProfile="full" viewBox="0 0 200 200" width="200" height="200">
<g fill="black">
<polygon points="26,21 167,21 167,25 26,25 " />
<polygon points="173,23 173,108 161,114 161,23 " />
<polygon points="161,21 167,16 178,25 173,29 161,23 " />
<polygon points="35,98 167,98 167,102 35,102 " />
<polygon points="41,98 41,184 29,190 29,92 " />
<polygon points="35,177 177,177 177,181 35,181 " />
<polygon points="177,177 153,179 165,167 " />
<polygon points="48,40.3 139.9,40.3 139.9,44.3 48,44.3 " />
<polygon points="139.9,40.3 115.9,42.3 127.9,30.3 " />
<polygon points="100,40.3 100,82.4 88,82.4 88,40.3 " />
<polygon points="41,78.4 146.9,78.4 146.9,82.4 41,82.4 " />
<polygon points="146.9,78.4 122.9,80.4 134.9,68.4 " />
<polygon points="61,120.3 152.9,120.3 152.9,124.3 61,124.3 " />
<polygon points="152.9,120.3 128.9,122.3 140.9,110.3 " />
<polygon points="113,120.3 113,162.4 101,162.4 101,120.3 " />
<polygon points="54,158.4 159.9,158.4 159.9,162.4 54,162.4 " />
<polygon points="159.9,158.4 135.9,160.4 147.9,148.4 " />
</g>
</svg>
