<svg xmlns="http://www.w3.org/2000/svg" xmlns:xlink="http://www.w3.org/1999/xlink" version="1.1" baseProfile="full" viewBox="0 0 200 200" width="200" height="200">
<g fill="black">
<polygon points="151.8,30 144.2,31.9 135.6,33.8 126.1,35.7 115.5,37.6 104,39.4 91.5,41.3 77.9,43.1 63.3,44.9 47.7,46.4 31.1,47.8 30.8,46.1 47.2,42.7 62.5,39.6 76.8,36.6 90.1,33.8 102.4,31.1 113.7,28.5 123.9,25.9 133,23.4 141.2,20.9 148.2,18.5 " />
<polygon points="148.2,18.5 151.8,30 158.1,28 " />
<polygon points="158.1,28 158.3,31.1 150.2,27.3 " />
<polygon points="106,34 106,181 94,187 94,32 " />
<polygon points="106,34 109,36 106,38 " />
<polygon points="57,60 56.3,75.4 54.8,90.1 52.7,104 49.7,117.2 46,129.4 41.5,140.9 36.3,151.5 30.2,161.2 23.3,169.9 15.6,177.6 14.3,176.3 20.3,167.6 25.6,158.4 30.4,148.6 34.5,138.1 37.9,127 40.7,115.1 42.8,102.4 44.2,89 44.9,74.9 45,60 " />
<polygon points="45,60 57,60 45,57.6 " />
<polygon points="57,60 60,62 54,66 " />
<polygon points="47.3,110.7 52.1,112.9 56.6,115.6 60.9,119 64.9,122.9 68.7,127.2 72.2,132 75.5,137.2 78.5,142.8 81.3,148.9 83.8,155.3 72.3,158.9 70.6,152.8 68.6,147.1 66.5,141.8 64.2,136.7 61.7,132 59,127.6 56.1,123.5 53,119.6 49.8,115.9 46.3,112.2 " />
<polygon points="83.8,155.3 83.3,159.8 79.8,162.8 75.3,162.4 72.3,158.9 " />
<polygon points="150,51 149.3,68.6 148.1,85 146.3,100.2 143.9,114.3 140.8,127.2 137.1,138.9 132.8,149.3 127.7,158.5 122,166.3 115.6,172.6 114.3,171.3 118.9,164.1 123,155.9 126.7,146.8 129.9,136.6 132.6,125.2 134.7,112.7 136.4,99 137.4,84.2 138,68.2 138,51 " />
<polygon points="138,51 150,51 138,48.6 " />
<polygon points="150,51 153,53 147,57 " />
<polygon points="147.8,64 148.8,78.5 150.4,92 152.6,104.6 155.5,116.2 159.1,126.9 163.5,136.7 168.6,145.5 174.4,153.5 180.9,160.6 188.2,166.9 179.7,177 171.9,169.3 165,160.6 159.1,151.2 154.2,141 150.3,130 147.4,118.2 145.4,105.7 144.5,92.5 144.7,78.6 146,63.9 " />
<polygon points="179.7,177 188.2,166.9 190.6,168.9 " />
</g>
</svg>
