<svg xmlns="http://www.w3.org/2000/svg" xmlns:xlink="http://www.w3.org/1999/xlink" version="1.1" baseProfile="full" viewBox="0 0 200 200" width="200" height="200">
<g fill="black">
<polygon points="18,42 182,42 182,46 18,46 " />
<polygon points="182,42 158,44 170,32 " />
<polygon points="54,70 54,145 42,151 42,64 " />
<polygon points="48,69 153,69 153,73 48,73 " />
<polygon points="159,72 159,135 147,141 147,72 " />
<polygon points="147,70 153,65 164,74 159,78 147,72 " />
<polygon points="48,99 153,99 153,103 48,103 " />
<polygon points="48,129 153,129 153,133 48,133 " />
<polygon points="106,15 106,172 94,172 94,13 " />
<polygon points="106,15 109,17 104,20 " />
<polygon points="28.3,171.9 40.7,170.8 53.2,169.7 65.7,168.6 78.2,167.5 90.7,166.5 103.3,165.4 115.8,164.4 128.5,163.4 141.1,162.7 153.8,162.1 154.1,163.8 141.6,166.4 129.1,168.8 116.6,170.9 104.2,172.9 91.7,174.9 79.3,176.8 66.8,178.6 54.4,180.4 42,182.1 29.6,183.8 " />
<polygon points="29.6,183.8 28.3,171.9 26.3,172.1 " />
<polygon points="29.6,183.8 31.9,186.6 35.2,180.2 " />
<polygon points="133.3,143.7 137.5,145.1 141.6,147.1 145.6,149.6 149.5,152.5 153.4,155.8 157.1,159.4 160.8,163.4 164.5,167.7 168,172.3 171.5,177.3 161.3,183.5 158.5,178.6 155.7,173.9 152.9,169.5 150.1,165.4 147.2,161.6 144.3,158 141.3,154.6 138.3,151.4 135.4,148.3 132.4,145.2 " />
<polygon points="171.5,177.3 172.2,181.8 169.5,185.5 165,186.2 161.3,183.5 " />
</g>
</svg>
