<svg xmlns="http://www.w3.org/2000/svg" xmlns:xlink="http://www.w3.org/1999/xlink" version="1.1" baseProfile="full" viewBox="0 0 200 200" width="200" height="200">
<g fill="black">
<polygon points="106,40 106,175 94,175 94,40 " />
<polygon points="100,99 172,99 172,103 100,103 " />
<polygon points="172,99 148,101 160,89 " />
<polygon points="56,87 56,175 44,175 44,85 " />
<polygon points="56,87 59,89 56,91 " />
<polygon points="16,171 184,171 184,175 16,175 " />
<polygon points="184,171 160,173 172,161 " />
<polygon points="160.8,30 150.4,32.8 139.3,35.5 127.6,38.1 115.2,40.6 102,42.9 88.2,45.1 73.8,47.2 58.6,49 42.7,50.6 26.1,51.8 25.8,50.1 42.1,46.8 57.7,43.7 72.7,40.7 86.9,37.7 100.4,34.6 113.2,31.5 125.3,28.4 136.6,25.2 147.3,21.9 157.2,18.5 " />
<polygon points="157.2,18.5 160.8,30 167,28 " />
<polygon points="167,28 167.3,31.1 159.1,27.4 " />
</g>
</svg>
