<svg xmlns="http://www.w3.org/2000/svg" xmlns:xlink="http://www.w3.org/1999/xlink" version="1.1" baseProfile="full" viewBox="0 0 200 200" width="200" height="200">
<g fill="black">
<polygon points="102.6,20.8 96.2,26.6 89.4,32.2 82.2,37.6 74.5,42.7 66.3,47.7 57.7,52.5 48.6,57 39,61.3 28.9,65.2 18.3,68.8 17.6,67.1 27.3,61.8 36.6,56.5 45.5,51.2 53.8,45.9 61.7,40.6 69.2,35.1 76.1,29.6 82.5,24 88.5,18.3 93.9,12.5 " />
<polygon points="93.2,13.2 102.6,20.8 94.2,12.2 " />
<polygon points="102.6,20.8 103.3,24.4 97.7,23 " />
<polygon points="82,33 162,33 162,37 82,37 " />
<polygon points="166.4,38.9 155.7,49.5 143.9,59.3 131.1,68.4 117.2,76.6 102.3,84 86.4,90.7 69.4,96.5 51.3,101.5 32.2,105.6 12.1,108.8 11.8,107.1 31.4,102 49.9,96.4 67.2,90.3 83.5,83.6 98.6,76.4 112.6,68.5 125.5,60 137.2,51 147.9,41.3 157.5,31 " />
<polygon points="156,33 162,28 173,37 168,40 156,45 " />
<polygon points="68.1,45.3 73.7,45.7 79.1,46.2 84,46.8 88.7,47.6 93.1,48.5 97.2,49.5 100.9,50.5 104.5,51.7 107.7,52.9 110.7,54.3 104.2,64.4 102.2,62.8 99.9,61.2 97.2,59.6 94,57.9 90.5,56.2 86.7,54.5 82.5,52.7 77.9,50.9 73,48.9 67.7,47 " />
<polygon points="110.7,54.3 113.2,58.1 112.5,62.6 108.7,65.1 104.2,64.4 " />
<polygon points="40.2,57.4 45.1,58.1 49.8,58.8 54.3,59.7 58.6,60.7 62.7,61.9 66.6,63.2 70.2,64.6 73.7,66 77,67.6 80.1,69.3 73,79 70.8,77.1 68.4,75.1 65.7,73.2 62.7,71.2 59.5,69.3 56,67.3 52.3,65.3 48.3,63.2 44.1,61.1 39.7,59.1 " />
<polygon points="80.1,69.3 82.4,73.3 81.4,77.7 77.4,80 73,79 " />
<polygon points="16,114 187,114 187,118 16,118 " />
<polygon points="187,114 163,116 175,104 " />
<polygon points="140,88 140,173 128,173 128,86 " />
<polygon points="140,88 143,90 138,93 " />
<polygon points="140,173 137.6,176.6 134,179 130.4,176.6 128,173 " />
<polygon points="140,173 139.8,175.5 139.4,178 138.6,180.4 137.3,182.7 135.7,184.7 133.7,186.3 131.4,187.6 129,188.4 126.5,188.8 124,189 124,177 125.2,176.9 126.1,176.7 126.7,176.5 127,176.4 127.2,176.2 127.4,176 127.5,175.7 127.7,175.1 127.9,174.2 128,173 " />
<polygon points="124,183 124,177 104,177 104,180 " />
<polygon points="47.2,126.6 52.7,128.4 57.8,130.4 62.5,132.5 66.9,134.8 70.9,137.2 74.5,139.8 77.9,142.5 80.9,145.3 83.6,148.3 85.8,151.5 75.2,157.1 74.1,154.6 72.6,152 70.8,149.2 68.5,146.4 65.8,143.6 62.7,140.7 59.2,137.7 55.3,134.6 51.1,131.4 46.5,128.2 " />
<polygon points="85.8,151.5 86.2,156 83.4,159.6 78.8,160 75.2,157.1 " />
</g>
</svg>
