<svg xmlns="http://www.w3.org/2000/svg" xmlns:xlink="http://www.w3.org/1999/xlink" version="1.1" baseProfile="full" viewBox="0 0 200 200" width="200" height="200">
<g fill="black">
<polygon points="22,47 178,47 178,51 22,51 " />
<polygon points="178,47 154,49 166,37 " />
<polygon points="101,13 101,98 89,98 89,11 " />
<polygon points="101,13 104,15 99,18 " />
<polygon points="40,94 157,94 157,98 40,98 " />
<polygon points="157,94 133,96 145,84 " />
<polygon points="41.9,110.9 43.1,118.4 43.8,125.8 43.9,132.9 43.5,139.9 42.8,146.7 41.6,153.3 39.9,159.7 37.9,165.8 35.5,171.8 32.6,177.5 22.4,171.3 25.4,166.6 28.1,161.6 30.5,156.3 32.6,150.8 34.5,144.9 36,138.8 37.3,132.3 38.4,125.5 39.3,118.4 40.1,111 " />
<polygon points="32.6,177.5 28.9,180.2 24.4,179.5 21.7,175.8 22.4,171.3 " />
<polygon points="40,126 163,126 163,130 40,130 " />
<polygon points="168.9,128.9 167.6,134.3 166.1,139.7 164.4,145.1 162.4,150.6 160.2,156.1 157.7,161.6 155,167.1 152,172.6 148.5,178 144.7,183.4 143.2,182.5 145.1,176.4 147.1,170.4 148.9,164.6 150.6,158.9 152.2,153.3 153.5,147.9 154.7,142.5 155.7,137.3 156.5,132.1 157,127 " />
<polygon points="157,126 163,121 174,130 169,133 157,138 " />
</g>
</svg>
