<svg xmlns="http://www.w3.org/2000/svg" xmlns:xlink="http://www.w3.org/1999/xlink" version="1.1" baseProfile="full" viewBox="0 0 200 200" width="200" height="200">
<g fill="black">
<polygon points="55,93.9 55,165.8 43,165.8 43,91.9 " />
<polygon points="55,93.9 58,95.9 53,98.9 " />
<polygon points="18.7,173.6 26,171.1 33.1,168.7 40.1,166.3 47.1,164 53.9,161.7 60.6,159.5 67.2,157.4 73.7,155.4 80.2,153.6 86.6,151.9 87.3,153.6 81.6,157.1 75.7,160.3 69.6,163.5 63.4,166.6 57,169.6 50.5,172.7 43.8,175.7 37,178.7 30.1,181.8 23,184.8 " />
<polygon points="23,184.8 18.7,173.6 16.9,174.3 " />
<polygon points="23,184.8 26,186.9 27.6,179.8 " />
<polygon points="106,91.3 106,167.4 94,167.4 94,89.3 " />
<polygon points="106,91.3 109,93.3 104,96.3 " />
<polygon points="72.8,171.5 79.4,169.4 86,167.3 92.8,165.3 99.6,163.2 106.5,161.2 113.5,159.1 120.6,157.2 127.8,155.2 135.2,153.5 142.7,151.9 143.2,153.6 136.4,157.1 129.6,160.3 122.8,163.4 116.1,166.3 109.4,169.2 102.7,172 96.2,174.7 89.7,177.4 83.3,180.1 77,182.7 " />
<polygon points="77,182.7 72.8,171.5 70.9,172.2 " />
<polygon points="77,182.7 79.9,184.9 81.6,177.9 " />
<polygon points="155,91.2 155.6,107 156.9,121.1 158.7,133.5 161,144.1 163.8,153 167,160 170.6,165.2 174.2,168.6 178,170.6 182.3,171.5 181.6,183.4 174.1,182 167.2,178.4 161.4,172.9 156.6,165.8 152.6,157.3 149.4,147.2 146.9,135.6 145,122.5 143.7,107.8 143,91.4 " />
<polygon points="143,92.4 155,91.2 142.9,89.1 " />
<polygon points="155,91.2 158,93.1 153.1,96.2 " />
<polygon points="182.3,171.5 186.4,173.5 187.9,177.8 185.9,181.9 181.6,183.4 " />
<polygon points="182,172.5 184,146.5 182,146.5 176,172.5 " />
<polygon points="100,106.7 141,106.7 141,110.7 100,110.7 " />
<polygon points="141,106.7 121,108.7 131,97.7 " />
<polygon points="100,125.6 140,125.6 140,129.6 100,129.6 " />
<polygon points="140,125.6 120,127.6 130,116.6 " />
<polygon points="49,106.7 87,106.7 87,110.7 49,110.7 " />
<polygon points="87,106.7 67,108.7 77,97.7 " />
<polygon points="49,125.6 87,125.6 87,129.6 49,129.6 " />
<polygon points="87,125.6 67,127.6 77,116.6 " />
</g>
</svg>
