<svg xmlns="http://www.w3.org/2000/svg" xmlns:xlink="http://www.w3.org/1999/xlink" version="1.1" baseProfile="full" viewBox="0 0 200 200" width="200" height="200">
<g fill="black">
<polygon points="41,50 147,50 147,54 41,54 " />
<polygon points="153,52 153,112 141,118 141,52 " />
<polygon points="141,50 147,45 158,54 153,58 141,52 " />
<polygon points="25,77 175,77 175,81 25,81 " />
<polygon points="175,77 155,79 165,68 " />
<polygon points="42,104 147,104 147,108 42,108 " />
<polygon points="105,26 105,166 93,166 93,24 " />
<polygon points="105,26 108,28 105,30 " />
<polygon points="46,134 147,134 147,138 46,138 " />
<polygon points="147,134 123,136 135,124 " />
<polygon points="27,162 170,162 170,166 27,166 " />
<polygon points="170,162 146,164 158,152 " />
</g>
</svg>
