<svg xmlns="http://www.w3.org/2000/svg" xmlns:xlink="http://www.w3.org/1999/xlink" version="1.1" baseProfile="full" viewBox="0 0 200 200" width="200" height="200">
<g fill="black">
<polygon points="35,53 35,182 23,188 23,47 " />
<polygon points="29,53 171,53 171,57 29,57 " />
<polygon points="177,55 177,172 165,172 165,55 " />
<polygon points="165,53 171,48 182,57 177,61 165,55 " />
<polygon points="177,172 174.6,175.6 171,178 167.4,175.6 165,172 " />
<polygon points="177,172 176.8,174.5 176.4,177 175.6,179.4 174.3,181.7 172.7,183.7 170.7,185.3 168.4,186.6 166,187.4 163.5,187.8 161,188 161,176 162.2,175.9 163.1,175.7 163.7,175.5 164,175.4 164.2,175.2 164.4,175 164.5,174.7 164.7,174.1 164.9,173.2 165,172 " />
<polygon points="161,182 161,176 141,176 141,179 " />
<polygon points="106,17 106,179 94,185 94,15 " />
<polygon points="106,17 109,19 106,21 " />
<polygon points="85,68.3 81.6,74.7 77.9,80.8 74,86.5 69.8,91.9 65.4,96.9 60.7,101.5 55.8,105.8 50.6,109.6 45.2,112.9 39.4,115.7 38.5,114.2 42.9,109.9 47.2,105.5 51.3,101 55.1,96.4 58.8,91.5 62.3,86.4 65.6,81 68.6,75.4 71.4,69.5 74.1,63.4 " />
<polygon points="74.1,63.4 85,68.3 74.6,62.2 " />
<polygon points="85,68.3 86.9,71.4 79.8,72.6 " />
<polygon points="42.2,75.5 47.9,76.8 53.3,78.5 58.4,80.5 63.2,82.8 67.7,85.3 72,88 75.9,90.9 79.6,94.1 83,97.5 86.1,101.1 76.3,107.9 74.2,104.6 71.8,101.4 69.1,98.3 66.1,95.1 62.8,92.1 59.2,89.1 55.2,86.1 50.9,83.2 46.4,80.2 41.6,77.2 " />
<polygon points="86.1,101.1 87.1,105.5 84.7,109.4 80.2,110.3 76.3,107.9 " />
<polygon points="85.1,121.1 82,127.4 78.5,133.4 74.7,139 70.6,144.3 66.1,149.2 61.2,153.8 56,157.9 50.5,161.7 44.6,165 38.4,167.7 37.5,166.2 42.5,161.8 47.3,157.5 51.7,153 55.8,148.4 59.6,143.7 63.1,138.7 66.3,133.5 69.2,128.1 71.8,122.5 74,116.6 " />
<polygon points="74,116.6 85.1,121.1 74.5,115.3 " />
<polygon points="85.1,121.1 87.2,124.1 80.1,125.6 " />
<polygon points="45.2,124.6 50.7,126.3 55.8,128.5 60.6,131.1 65.2,133.9 69.4,137 73.5,140.4 77.2,144.1 80.7,148 83.9,152.1 86.8,156.5 76.2,162.2 74.3,158.2 72,154.3 69.5,150.5 66.7,146.8 63.7,143.3 60.4,139.8 56.8,136.4 52.9,133 48.8,129.6 44.4,126.2 " />
<polygon points="86.8,156.5 87.2,161 84.4,164.6 79.8,165 76.2,162.2 " />
<polygon points="156.9,68.5 153.3,74.8 149.6,80.8 145.6,86.5 141.5,91.8 137.1,96.8 132.6,101.5 127.9,105.7 123,109.5 117.9,112.9 112.5,115.7 111.4,114.2 115.5,109.9 119.4,105.5 123.3,101.1 127,96.4 130.5,91.5 134,86.4 137.2,81 140.3,75.3 143.3,69.4 146.1,63.2 " />
<polygon points="146.1,63.2 156.9,68.5 146.7,62.1 " />
<polygon points="156.9,68.5 158.7,71.6 151.6,72.6 " />
<polygon points="114.2,75.5 119.5,76.9 124.6,78.6 129.5,80.6 134.1,82.8 138.5,85.3 142.6,88 146.5,91 150.2,94.1 153.7,97.4 157,101 147.3,108.2 145.1,104.8 142.5,101.5 139.8,98.3 136.8,95.1 133.5,92.1 130,89.1 126.2,86.1 122.2,83.2 118,80.2 113.5,77.2 " />
<polygon points="157,101 158,105.4 155.7,109.4 151.3,110.4 147.3,108.2 " />
<polygon points="157,121.4 153.5,127.6 149.9,133.5 146,139 141.9,144.2 137.6,149.1 133.1,153.7 128.3,157.8 123.3,161.6 118,164.9 112.5,167.7 111.4,166.2 115.7,161.9 119.8,157.6 123.7,153.1 127.5,148.5 131.1,143.7 134.5,138.7 137.7,133.5 140.7,128 143.5,122.3 146.1,116.3 " />
<polygon points="146.1,116.3 157,121.4 146.6,115.1 " />
<polygon points="157,121.4 158.8,124.5 151.7,125.6 " />
<polygon points="116.3,126.6 121.3,128.4 126,130.4 130.6,132.7 134.9,135.1 139.1,137.7 143,140.5 146.7,143.4 150.3,146.4 153.6,149.6 156.8,152.9 147.4,160.3 145.1,157 142.6,153.8 139.9,150.6 137,147.4 133.8,144.2 130.5,141.1 127,137.9 123.3,134.8 119.5,131.5 115.4,128.2 " />
<polygon points="156.8,152.9 158,157.3 155.8,161.3 151.4,162.5 147.4,160.3 " />
</g>
</svg>
