<svg xmlns="http://www.w3.org/2000/svg" xmlns:xlink="http://www.w3.org/1999/xlink" version="1.1" baseProfile="full" viewBox="0 0 200 200" width="200" height="200">
<g fill="black">
<polygon points="35,53 35,182 23,188 23,47 " />
<polygon points="29,53 171,53 171,57 29,57 " />
<polygon points="177,55 177,172 165,172 165,55 " />
<polygon points="165,53 171,48 182,57 177,61 165,55 " />
<polygon points="177,172 174.6,175.6 171,178 167.4,175.6 165,172 " />
<polygon points="177,172 176.8,174.5 176.4,177 175.6,179.4 174.3,181.7 172.7,183.7 170.7,185.3 168.4,186.6 166,187.4 163.5,187.8 161,188 161,176 162.2,175.9 163.1,175.7 163.7,175.5 164,175.4 164.2,175.2 164.4,175 164.5,174.7 164.7,174.1 164.9,173.2 165,172 " />
<polygon points="161,182 161,176 141,176 141,179 " />
<polygon points="106,17 106,179 94,185 94,15 " />
<polygon points="106,17 109,19 104,22 " />
<polygon points="139.9,63.2 138.9,71.2 137.5,78.6 135.5,85.6 133,92.1 130,98.1 126.5,103.5 122.5,108.3 117.9,112.5 112.9,116 107.4,118.7 106.5,117.2 110.5,113 114.1,108.7 117.3,104.2 120,99.5 122.4,94.3 124.3,88.8 125.8,82.9 126.9,76.6 127.6,69.9 127.9,62.6 " />
<polygon points="127.9,63.6 139.9,63.2 128,60.4 " />
<polygon points="139.9,63.2 142.8,65.4 137.6,68.1 " />
<polygon points="133.1,79.7 135,82.9 137.1,86 139.3,88.9 141.6,91.8 144.1,94.6 146.8,97.3 149.8,100 153,102.7 156.4,105.2 160,107.8 151.9,118.1 148.2,114.6 144.9,111 141.9,107.3 139.2,103.6 136.9,99.8 135,95.9 133.4,92 132.3,88.1 131.6,84.1 131.3,80.1 " />
<polygon points="151.9,118.1 160,107.8 162.8,109.9 " />
<polygon points="73,62.8 72.5,71.2 71.3,79.1 69.4,86.4 66.8,93 63.4,99.1 59.3,104.4 54.5,109 49,112.8 42.9,115.7 36.3,117.8 35.6,116.1 41.1,112.4 45.8,108.5 49.9,104.3 53.3,99.7 56,94.8 58.2,89.5 59.7,83.7 60.7,77.4 61.2,70.5 61,63.1 " />
<polygon points="61,64.1 73,62.8 60.9,60.8 " />
<polygon points="73,62.8 76,64.7 71.1,67.9 " />
<polygon points="65.2,84.5 68.4,85.6 71.6,86.3 74.6,87.3 77.6,88.4 80.4,89.6 83.1,91 85.6,92.5 88.1,94.2 90.4,95.9 92.6,97.8 83.4,105.5 82.3,103.6 80.9,101.6 79.5,99.7 77.8,97.7 76,95.8 74.1,93.9 71.9,91.9 69.7,89.9 67.3,87.8 64.5,86.2 " />
<polygon points="92.6,97.8 93.9,102.2 91.9,106.3 87.5,107.6 83.4,105.5 " />
<polygon points="139.9,119.2 138.9,127.3 137.5,134.9 135.5,142 133,148.6 130,154.6 126.5,160 122.4,164.8 117.9,168.9 112.9,172.2 107.4,174.7 106.5,173.2 110.6,169.2 114.1,165 117.3,160.6 120.1,155.9 122.4,150.8 124.3,145.3 125.8,139.4 126.9,133 127.6,126.1 127.9,118.7 " />
<polygon points="127.9,119.7 139.9,119.2 128,116.4 " />
<polygon points="139.9,119.2 142.8,121.4 137.7,124.1 " />
<polygon points="133.1,136.7 135,139.9 137.1,143 139.3,145.9 141.6,148.8 144.1,151.6 146.8,154.3 149.8,157 153,159.7 156.4,162.2 160,164.8 151.9,175.1 148.2,171.6 144.9,168 141.9,164.3 139.2,160.6 136.9,156.8 135,152.9 133.4,149 132.3,145.1 131.6,141.1 131.3,137.1 " />
<polygon points="151.9,175.1 160,164.8 162.8,166.9 " />
<polygon points="73,119.8 72.5,128.2 71.3,136.1 69.4,143.4 66.8,150 63.4,156.1 59.3,161.4 54.5,166 49,169.8 42.9,172.7 36.3,174.8 35.6,173.1 41.1,169.4 45.8,165.5 49.9,161.3 53.3,156.7 56,151.8 58.2,146.5 59.7,140.7 60.7,134.4 61.2,127.5 61,120.1 " />
<polygon points="61,121.1 73,119.8 60.9,117.8 " />
<polygon points="73,119.8 76,121.7 71.1,124.9 " />
<polygon points="65.2,141.5 68.4,142.6 71.6,143.3 74.6,144.3 77.6,145.4 80.4,146.6 83.1,148 85.6,149.5 88.1,151.2 90.4,152.9 92.6,154.8 83.4,162.5 82.3,160.6 80.9,158.6 79.5,156.7 77.8,154.7 76,152.8 74.1,150.9 71.9,148.9 69.7,146.9 67.3,144.8 64.5,143.2 " />
<polygon points="92.6,154.8 93.9,159.2 91.9,163.3 87.5,164.6 83.4,162.5 " />
</g>
</svg>
