<svg xmlns="http://www.w3.org/2000/svg" xmlns:xlink="http://www.w3.org/1999/xlink" version="1.1" baseProfile="full" viewBox="0 0 200 200" width="200" height="200">
<g fill="black">
<polygon points="122,27 122,119 110,119 110,21 " />
<polygon points="122,119 119.6,122.6 116,125 112.4,122.6 110,119 " />
<polygon points="122,119 121.3,129.2 120.1,138.8 118.3,147.8 115.8,156.1 112.6,163.8 108.9,170.8 104.4,177 99.4,182.5 93.7,187.1 87.5,190.7 86.4,189.2 91.2,184.2 95.4,178.9 99,173.3 102.2,167.2 104.8,160.6 106.9,153.5 108.4,145.7 109.5,137.4 110,128.5 110,119 " />
<polygon points="116,27 153,27 153,31 116,31 " />
<polygon points="159,29 159,171 147,171 147,29 " />
<polygon points="147,27 153,22 164,31 159,35 147,29 " />
<polygon points="159,171 156.6,174.6 153,177 149.4,174.6 147,171 " />
<polygon points="159,171 158.8,173.5 158.4,176 157.6,178.4 156.3,180.7 154.7,182.7 152.7,184.3 150.4,185.6 148,186.4 145.5,186.8 143,187 143,175 144.2,174.9 145.1,174.7 145.7,174.5 146,174.4 146.2,174.2 146.4,174 146.5,173.7 146.7,173.1 146.9,172.2 147,171 " />
<polygon points="143,181 143,175 123,175 123,178 " />
<polygon points="48,27 48,119 36,119 36,21 " />
<polygon points="48,119 45.6,122.6 42,125 38.4,122.6 36,119 " />
<polygon points="48,119 47.3,129.2 46.1,138.8 44.3,147.8 41.8,156.1 38.6,163.8 34.9,170.8 30.4,177 25.4,182.5 19.7,187.1 13.5,190.7 12.4,189.2 17.2,184.2 21.4,178.9 25,173.3 28.2,167.2 30.8,160.6 32.9,153.5 34.4,145.7 35.5,137.4 36,128.5 36,119 " />
<polygon points="42,27 79,27 79,31 42,31 " />
<polygon points="85,29 85,171 73,171 73,29 " />
<polygon points="73,27 79,22 90,31 85,35 73,29 " />
<polygon points="85,171 82.6,174.6 79,177 75.4,174.6 73,171 " />
<polygon points="85,171 84.8,173.5 84.4,176 83.6,178.4 82.3,180.7 80.7,182.7 78.7,184.3 76.4,185.6 74,186.4 71.5,186.8 69,187 69,175 70.2,174.9 71.1,174.7 71.7,174.5 72,174.4 72.2,174.2 72.4,174 72.5,173.7 72.7,173.1 72.9,172.2 73,171 " />
<polygon points="69,181 69,175 49,175 49,178 " />
<polygon points="17,110 185,110 185,114 17,114 " />
<polygon points="185,110 161,112 173,100 " />
<polygon points="17,69 185,69 185,73 17,73 " />
<polygon points="185,69 161,71 173,59 " />
</g>
</svg>
