<svg xmlns="http://www.w3.org/2000/svg" xmlns:xlink="http://www.w3.org/1999/xlink" version="1.1" baseProfile="full" viewBox="0 0 200 200" width="200" height="200">
<g fill="black">
<polygon points="35.6,29 35.6,173 23.6,179 23.6,23 " />
<polygon points="29.6,29 101.7,29 101.7,33 29.6,33 " />
<polygon points="101.7,29 77.7,31 89.7,19 " />
<polygon points="68.5,29 68.5,76 56.5,76 56.5,29 " />
<polygon points="29.6,72 90.4,72 90.4,76 29.6,76 " />
<polygon points="96.4,74 96.4,125 84.4,131 84.4,74 " />
<polygon points="84.4,72 90.4,67 101.4,76 96.4,80 84.4,74 " />
<polygon points="29.6,121 90.4,121 90.4,125 29.6,125 " />
<polygon points="68.5,121 68.5,172 56.5,172 56.5,121 " />
<polygon points="29.6,168 104.1,168 104.1,172 29.6,172 " />
<polygon points="104.1,168 80.1,170 92.1,158 " />
<polygon points="133.8,18.7 131.7,32.5 129.4,45.9 126.7,58.7 123.9,71.2 120.7,83.2 117.3,94.7 113.7,105.8 109.7,116.4 105.3,126.4 100.6,135.9 98.9,135.2 101.8,125.1 104.6,114.6 107.4,103.9 110,92.7 112.5,81.2 114.8,69.3 116.9,56.9 118.8,44.1 120.5,30.9 121.9,17.3 " />
<polygon points="122.2,15.2 133.8,18.7 121.8,18.3 " />
<polygon points="133.8,18.7 136.6,21.1 131.3,23.5 " />
<polygon points="116.9,77.6 182.6,77.6 182.6,81.6 116.9,81.6 " />
<polygon points="182.6,77.6 158.6,79.6 170.6,67.6 " />
<polygon points="133.2,101.5 138,104.8 142.4,108.5 146.5,112.6 150.2,117.1 153.6,121.9 156.6,127.1 159.3,132.4 161.7,138.1 163.8,144 165.5,150.2 153.7,152.6 152.8,146.9 151.5,141.4 150,136.1 148.2,131 146.1,126 143.8,121.2 141.2,116.6 138.3,112 135.3,107.4 132,102.9 " />
<polygon points="165.5,150.2 164.6,154.7 160.8,157.3 156.3,156.3 153.7,152.6 " />
</g>
</svg>
