<svg xmlns="http://www.w3.org/2000/svg" xmlns:xlink="http://www.w3.org/1999/xlink" version="1.1" baseProfile="full" viewBox="0 0 200 200" width="200" height="200">
<g fill="black">
<polygon points="19,26 80,26 80,30 19,30 " />
<polygon points="85.2,29 75.3,61 62.6,61 73.6,28 " />
<polygon points="74,26 80,21 91,30 86,33 74,38 " />
<polygon points="13,59 113,59 113,63 13,63 " />
<polygon points="113,59 89,61 101,49 " />
<polygon points="41,59 41,161 29,161 29,59 " />
<polygon points="35,89 84,89 84,93 35,93 " />
<polygon points="35,119 84,119 84,123 35,123 " />
<polygon points="14,156.9 22,156 30.4,155 39.1,154 48.1,152.9 57.5,151.7 67.2,150.5 77.3,149.3 87.8,148.1 98.6,147 109.8,146.1 110.1,147.8 99.2,150.8 88.7,153.4 78.4,155.8 68.5,158 58.9,160.1 49.6,162 40.7,163.9 32.1,165.6 23.8,167.2 15.8,168.7 " />
<polygon points="15.8,168.7 14,156.9 12.1,157.2 " />
<polygon points="15.8,168.7 18.3,171.4 21.3,164.9 " />
<polygon points="90,59 90,183 78,189 78,59 " />
</g>
</svg>
