<svg xmlns="http://www.w3.org/2000/svg" xmlns:xlink="http://www.w3.org/1999/xlink" version="1.1" baseProfile="full" viewBox="0 0 200 200" width="200" height="200">
<g fill="black">
<polygon points="29,23 170,23 170,27 29,27 " />
<polygon points="170,23 146,25 158,13 " />
<polygon points="66,23 66,113 54,113 54,23 " />
<polygon points="145,23 145,113 133,113 133,23 " />
<polygon points="17,64 185,64 185,68 17,68 " />
<polygon points="185,64 161,66 173,54 " />
<polygon points="30,109 170,109 170,113 30,113 " />
<polygon points="170,109 146,111 158,99 " />
<polygon points="106,23 106,183 94,189 94,23 " />
<polygon points="20,145 183,145 183,149 20,149 " />
<polygon points="183,145 159,147 171,135 " />
</g>
</svg>
