<svg xmlns="http://www.w3.org/2000/svg" xmlns:xlink="http://www.w3.org/1999/xlink" version="1.1" baseProfile="full" viewBox="0 0 200 200" width="200" height="200">
<g fill="black">
<polygon points="79.1,33.9 75.3,35 71.4,36.1 67.4,37.2 63.3,38.4 59,39.6 54.6,40.9 50,42.2 45.3,43.4 40.4,44.6 35.3,45.8 34.6,44.1 39,41.4 43.4,38.7 47.6,36.3 51.8,34.1 55.9,31.9 60,29.9 63.9,28 67.7,26.1 71.4,24.4 74.9,22.7 " />
<polygon points="74,23 79.1,33.9 84.3,32 " />
<polygon points="84.3,32 84.6,35.1 77.9,32.2 " />
<polygon points="41,40 41,143 29,149 29,38 " />
<polygon points="41,40 44,42 39,45 " />
<polygon points="35,81 78,81 78,85 35,85 " />
<polygon points="78,81 58,83 68,72 " />
<polygon points="35,127 161,127 161,131 35,131 " />
<polygon points="118,39 162,39 162,43 118,43 " />
<polygon points="168,41 168,137 156,143 156,41 " />
<polygon points="156,39 162,34 173,43 168,47 156,41 " />
<polygon points="118,81 166,81 166,85 118,85 " />
<polygon points="105,18 105,168 93,168 93,16 " />
<polygon points="105,18 108,20 103,23 " />
<polygon points="105,168 102.6,171.6 99,174 95.4,171.6 93,168 " />
<polygon points="105,168 105,169.2 105.2,170.1 105.4,170.7 105.5,171 105.7,171.2 105.9,171.4 106.2,171.5 106.8,171.7 107.7,171.9 109,172 109,184 106.4,183.8 103.9,183.4 101.5,182.6 99.2,181.3 97.2,179.7 95.6,177.7 94.3,175.4 93.5,173 93.1,170.5 93,168 " />
<polygon points="109,172 113.2,173.8 115,178 113.2,182.2 109,184 " />
<polygon points="109,172 184,172 184,184 109,184 " />
<polygon points="184,172 187.6,174.4 190,178 187.6,181.6 184,184 " />
<polygon points="178,173 184,147 186,147 184,173 " />
</g>
</svg>
