<svg xmlns="http://www.w3.org/2000/svg" xmlns:xlink="http://www.w3.org/1999/xlink" version="1.1" baseProfile="full" viewBox="0 0 200 200" width="200" height="200">
<g fill="black">
<polygon points="26,17 162,17 162,21 26,21 " />
<polygon points="168,19 168,78 156,84 156,19 " />
<polygon points="156,17 162,12 173,21 168,25 156,19 " />
<polygon points="36,68 162,68 162,72 36,72 " />
<polygon points="42.2,69 30.5,137.8 17.7,141.7 31.4,61.1 " />
<polygon points="27,121 176,121 176,125 27,125 " />
<polygon points="181.9,123.5 180.8,132.3 179.2,140.6 177.1,148.2 174.5,155.2 171.2,161.6 167.4,167.3 163,172.4 158,176.7 152.5,180.2 146.4,183 142.2,171.8 146.7,169.7 150.8,167.1 154.5,163.9 157.9,160 160.9,155.6 163.5,150.4 165.7,144.5 167.6,137.8 169,130.5 170,122.4 " />
<polygon points="170,121 176,116 187,125 182,129 176,129 " />
<polygon points="146.4,183 141.9,182.8 138.7,179.5 138.9,175 142.2,171.8 " />
<polygon points="146.4,183 144.3,183.8 142.3,184.4 140.1,185 138,185.5 135.9,186 133.7,186.3 131.5,186.6 129.4,186.8 127.2,186.9 125,187 125,175 126.7,174.9 128.5,174.8 130.2,174.7 132,174.4 133.7,174.2 135.4,173.8 137.1,173.4 138.8,172.9 140.5,172.4 142.2,171.8 " />
<polygon points="125,181 125,175 105,175 105,178 " />
<polygon points="47,32 124,32 124,36 47,36 " />
<polygon points="130,34 130,55 118,61 118,34 " />
<polygon points="118,32 124,27 135,36 130,40 118,34 " />
<polygon points="47,51 124,51 124,55 47,55 " />
<polygon points="65,85 151,85 151,89 65,89 " />
<polygon points="151,85 127,87 139,75 " />
<polygon points="71,85 71,108 59,114 59,79 " />
<polygon points="65,104 157,104 157,108 65,108 " />
<polygon points="157,104 133,106 145,94 " />
</g>
</svg>
