<svg xmlns="http://www.w3.org/2000/svg" xmlns:xlink="http://www.w3.org/1999/xlink" version="1.1" baseProfile="full" viewBox="0 0 200 200" width="200" height="200">
<g fill="black">
<polygon points="48,21 48,157 36,157 36,19 " />
<polygon points="48,21 51,23 48,25 " />
<polygon points="10.2,179.5 17.6,174.5 24.8,169.6 31.9,164.7 38.9,159.9 45.8,155.2 52.6,150.5 59.4,146 66,141.5 72.7,137.3 79.4,133.2 80.5,134.7 75.1,140.3 69.4,145.8 63.4,151.2 57.3,156.5 51,161.9 44.5,167.3 37.9,172.8 31.2,178.2 24.3,183.7 17.3,189.2 " />
<polygon points="17.3,189.2 10.2,179.5 8.6,180.7 " />
<polygon points="17.3,189.2 20.7,190.5 20.4,183.2 " />
<polygon points="99,16 99,160 87,160 87,14 " />
<polygon points="99,16 102,18 99,20 " />
<polygon points="64.3,175.5 71,171.2 77.7,166.9 84.6,162.6 91.5,158.3 98.5,154.1 105.6,149.8 112.9,145.5 120.2,141.3 127.7,137.2 135.5,133.2 136.4,134.7 129.8,140.3 123.2,145.7 116.5,150.9 109.9,156 103.3,161.1 96.7,166 90.3,170.9 83.8,175.8 77.5,180.6 71.2,185.3 " />
<polygon points="71.2,185.3 64.3,175.5 62.7,176.6 " />
<polygon points="71.2,185.3 74.6,186.6 74.4,179.4 " />
<polygon points="148,15.9 148.6,46.6 149.9,74 151.7,98.3 154.1,119.3 157.1,137 160.6,151.4 164.5,162.4 168.6,169.9 172.4,173.8 175.5,175 174.4,186.9 165.7,183.7 158.9,176.9 153.5,167.3 149,154.8 145.3,139.4 142.3,120.9 139.8,99.4 137.9,74.7 136.7,47 136,16 " />
<polygon points="136,16 148,15.9 135.9,13.7 " />
<polygon points="148,15.9 151,17.8 145,21.9 " />
<polygon points="175.5,175 179.5,177.2 180.9,181.5 178.7,185.5 174.4,186.9 " />
<polygon points="175.4,176 179.9,150.3 177.9,150.1 169.5,175.4 " />
<polygon points="107.3,22.1 111,24.9 114.5,27.9 117.7,31.2 120.8,34.8 123.7,38.6 126.4,42.5 129,46.7 131.4,51 133.6,55.5 135.6,60.2 124.3,64.1 123,59.6 121.6,55.2 120,51 118.4,46.8 116.6,42.8 114.6,38.8 112.6,34.9 110.5,31 108.3,27.1 106,23.3 " />
<polygon points="135.6,60.2 135.3,64.7 131.9,67.8 127.4,67.5 124.3,64.1 " />
<polygon points="106.3,70.3 109.8,73.6 113,77.3 116.1,81.2 119,85.2 121.8,89.5 124.5,93.9 127.1,98.4 129.7,103.1 132.1,108 134.4,113 123.3,117.4 121.6,112.4 119.8,107.5 118,102.7 116.2,98 114.3,93.4 112.4,88.9 110.4,84.5 108.5,80.1 106.6,75.7 104.8,71.3 " />
<polygon points="134.4,113 134.3,117.5 131,120.7 126.5,120.6 123.3,117.4 " />
<polygon points="55.3,22.1 58.8,24.9 62.2,28 65.3,31.3 68.3,34.8 71.2,38.6 73.9,42.5 76.5,46.6 78.9,50.9 81.3,55.4 83.5,60 72.3,64.3 70.8,59.8 69.2,55.4 67.6,51.1 65.9,46.9 64,42.8 62.1,38.8 60.1,34.9 58.1,31 56.1,27.1 53.9,23.3 " />
<polygon points="83.5,60 83.3,64.6 80,67.8 75.5,67.6 72.3,64.3 " />
<polygon points="53.2,70.3 56.6,73.7 59.8,77.3 62.8,81.2 65.8,85.2 68.7,89.4 71.6,93.8 74.5,98.3 77.3,102.9 80.1,107.7 83,112.6 72.2,118 70,112.9 67.8,107.9 65.6,103 63.4,98.2 61.3,93.6 59.2,89 57.2,84.5 55.2,80.1 53.4,75.7 51.7,71.3 " />
<polygon points="83,112.6 83.2,117.1 80.3,120.6 75.7,120.9 72.2,118 " />
</g>
</svg>
