<svg xmlns="http://www.w3.org/2000/svg" xmlns:xlink="http://www.w3.org/1999/xlink" version="1.1" baseProfile="full" viewBox="0 0 200 200" width="200" height="200">
<g fill="black">
<polygon points="71,39 129,39 129,43 71,43 " />
<polygon points="135,41 135,99 123,105 123,41 " />
<polygon points="123,39 129,34 140,43 135,47 123,41 " />
<polygon points="71,65 129,65 129,69 71,69 " />
<polygon points="71,91 129,91 129,95 71,95 " />
<polygon points="77,39 77,178 65,184 65,33 " />
<polygon points="71,120 142,120 142,124 71,124 " />
<polygon points="142,120 118,122 130,110 " />
<polygon points="71,149 142,149 142,153 71,153 " />
<polygon points="142,149 118,151 130,139 " />
</g>
</svg>
