<svg xmlns="http://www.w3.org/2000/svg" xmlns:xlink="http://www.w3.org/1999/xlink" version="1.1" baseProfile="full" viewBox="0 0 200 200" width="200" height="200">
<g fill="black">
<polygon points="51.2,26.6 51.2,99.7 39.2,105.7 39.2,20.6 " />
<polygon points="45.2,26.6 154.9,26.6 154.9,30.6 45.2,30.6 " />
<polygon points="160.9,28.6 160.9,96.7 148.9,102.7 148.9,28.6 " />
<polygon points="148.9,26.6 154.9,21.6 165.9,30.6 160.9,34.6 148.9,28.6 " />
<polygon points="106,26.6 106,92.7 94,92.7 94,26.6 " />
<polygon points="45.2,57.2 154.9,57.2 154.9,61.2 45.2,61.2 " />
<polygon points="45.2,88.7 154.9,88.7 154.9,92.7 45.2,92.7 " />
<polygon points="51,118 51,182 39,182 39,112 " />
<polygon points="45,118 155,118 155,122 45,122 " />
<polygon points="161,120 161,182 149,182 149,120 " />
<polygon points="149,118 155,113 166,122 161,126 149,120 " />
<polygon points="88,118 88,182 76,182 76,118 " />
<polygon points="124,118 124,182 112,182 112,118 " />
<polygon points="12,178 188,178 188,182 12,182 " />
<polygon points="188,178 164,180 176,168 " />
</g>
</svg>
