<svg xmlns="http://www.w3.org/2000/svg" xmlns:xlink="http://www.w3.org/1999/xlink" version="1.1" baseProfile="full" viewBox="0 0 200 200" width="200" height="200">
<g fill="black">
<polygon points="103.1,22.1 97.4,23 91.6,23.9 85.8,24.7 79.8,25.5 73.8,26.2 67.7,26.8 61.6,27.4 55.3,27.9 49,28.1 42.5,28.2 42.2,26.4 48.3,24.4 54.4,22.6 60.4,20.9 66.4,19.4 72.3,17.8 78.1,16.3 83.8,14.8 89.5,13.4 95.1,11.9 100.6,10.4 " />
<polygon points="99.6,10.6 103.1,22.1 111.4,20.4 " />
<polygon points="111.4,20.4 111.8,23.4 104.5,19.8 " />
<polygon points="48.4,26 48.4,109.6 36.4,115.6 36.4,24 " />
<polygon points="48.4,26 51.4,28 46.4,31 " />
<polygon points="42.4,58.9 96.1,58.9 96.1,62.9 42.4,62.9 " />
<polygon points="96.1,58.9 72.1,60.9 84.1,48.9 " />
<polygon points="42.4,93.6 159.5,93.6 159.5,97.6 42.4,97.6 " />
<polygon points="165.5,27.3 165.5,103.6 153.5,109.6 153.5,27.3 " />
<polygon points="153.5,25.3 159.5,20.3 170.5,29.3 165.5,33.3 153.5,27.3 " />
<polygon points="111.5,25.3 159.5,25.3 159.5,29.3 111.5,29.3 " />
<polygon points="108.6,58.9 159.5,58.9 159.5,62.9 108.6,62.9 " />
<polygon points="34.2,128.5 165.8,128.5 165.8,132.5 34.2,132.5 " />
<polygon points="165.8,128.5 141.8,130.5 153.8,118.5 " />
<polygon points="106,128.5 106,181.8 94,181.8 94,128.5 " />
<polygon points="19.1,177.8 180.8,177.8 180.8,181.8 19.1,181.8 " />
<polygon points="180.8,177.8 156.8,179.8 168.8,167.8 " />
</g>
</svg>
