<svg xmlns="http://www.w3.org/2000/svg" xmlns:xlink="http://www.w3.org/1999/xlink" version="1.1" baseProfile="full" viewBox="0 0 200 200" width="200" height="200">
<g fill="black">
<polygon points="93.4,22.7 88.9,34.2 83.8,44.9 78.1,54.8 71.8,63.8 64.8,72 57.3,79.2 49.1,85.6 40.4,91.1 31.1,95.5 21.3,98.8 20.6,97.1 29.4,92.1 37.5,86.5 45.1,80.4 52,73.8 58.4,66.4 64.2,58.4 69.5,49.7 74.2,40.2 78.3,30 81.9,19.1 " />
<polygon points="81.6,20 93.4,22.7 82.4,17.5 " />
<polygon points="93.4,22.7 95.6,25.6 89.9,26.9 " />
<polygon points="82,42 160,42 160,46 82,46 " />
<polygon points="165.9,44.8 161.7,62.9 155.3,80 146.6,96.2 135.6,111.3 122.5,125.5 107.1,138.6 89.7,150.7 70,161.8 48.2,171.9 24.3,180.8 23.6,179.1 46.7,168.4 67.5,157.1 86,145.2 102.4,132.7 116.5,119.5 128.3,105.6 137.9,91 145.4,75.7 150.8,59.8 154,43.1 " />
<polygon points="154,42 160,37 171,46 166,49 154,54 " />
<polygon points="70.2,59.5 75.6,60.8 80.9,62.4 86,64.4 91,66.6 95.8,68.9 100.6,71.5 105.3,74.2 109.8,77.2 114.3,80.2 118.6,83.4 110.8,92.5 107.1,89.1 103.3,85.7 99.5,82.4 95.5,79.3 91.4,76.2 87.2,73.1 82.9,70.2 78.5,67.2 74,64.3 69.5,61.2 " />
<polygon points="118.6,83.4 120.6,87.6 119.2,91.9 115.1,93.9 110.8,92.5 " />
<polygon points="37.8,122.9 46.7,121.3 55.5,119.6 64.3,117.8 73,115.8 81.7,113.6 90.3,111.3 98.9,108.8 107.4,106.3 116,103.7 124.6,101.1 125.3,102.8 117.4,107.2 109.4,111.3 101.1,115 92.7,118.5 84.2,121.7 75.6,124.7 66.9,127.5 58,130.1 49.1,132.5 40.1,134.6 " />
<polygon points="40.1,134.6 37.8,122.9 35.8,123.3 " />
<polygon points="40.1,134.6 42.6,137.2 45.4,130.6 " />
</g>
</svg>
