<svg xmlns="http://www.w3.org/2000/svg" xmlns:xlink="http://www.w3.org/1999/xlink" version="1.1" baseProfile="full" viewBox="0 0 200 200" width="200" height="200">
<g fill="black">
<polygon points="57,26 147,26 147,30 57,30 " />
<polygon points="153,28 153,110 141,116 141,28 " />
<polygon points="141,26 147,21 158,30 153,34 141,28 " />
<polygon points="57,61 147,61 147,65 57,65 " />
<polygon points="57,100 147,100 147,104 57,104 " />
<polygon points="63,26 63,174 51,174 51,20 " />
<polygon points="39.2,172.9 50.7,169.9 61.8,166.9 72.6,163.9 83,161 93.1,158.1 102.8,155.3 112.2,152.5 121.3,149.9 130.1,147.4 138.6,145.1 139.3,146.8 131.5,150.9 123.2,154.9 114.4,158.7 105.3,162.5 95.8,166.2 85.9,169.8 75.6,173.5 65,177.1 54,180.8 42.6,184.4 " />
<polygon points="42.6,184.4 39.2,172.9 37.3,173.5 " />
<polygon points="42.6,184.4 45.3,186.8 47.5,179.9 " />
<polygon points="99.3,118.7 106.5,121.9 113.5,125.6 120.2,129.7 126.7,134.2 132.9,139.1 138.8,144.3 144.5,149.8 150,155.6 155.2,161.7 160.2,168.1 150.3,174.9 146.1,168.5 141.7,162.4 137.1,156.5 132.2,150.8 127.1,145.3 121.8,140 116.2,134.9 110.5,130 104.5,125.1 98.4,120.2 " />
<polygon points="160.2,168.1 161.1,172.6 158.6,176.4 154.2,177.3 150.3,174.9 " />
</g>
</svg>
