<svg xmlns="http://www.w3.org/2000/svg" xmlns:xlink="http://www.w3.org/1999/xlink" version="1.1" baseProfile="full" viewBox="0 0 200 200" width="200" height="200">
<g fill="black">
<polygon points="39,39 39,158 27,164 27,37 " />
<polygon points="39,39 42,41 39,43 " />
<polygon points="33,142 81,142 81,146 33,146 " />
<polygon points="119,142 168,142 168,146 119,146 " />
<polygon points="174,39 174,152 162,158 162,37 " />
<polygon points="174,39 177,41 174,43 " />
<polygon points="87,13 87,189 75,189 75,11 " />
<polygon points="87,13 90,15 87,17 " />
<polygon points="125,13 125,189 113,189 113,11 " />
<polygon points="125,13 128,15 125,17 " />
<polygon points="12,185 188,185 188,189 12,189 " />
<polygon points="188,185 164,187 176,175 " />
</g>
</svg>
