<svg xmlns="http://www.w3.org/2000/svg" xmlns:xlink="http://www.w3.org/1999/xlink" version="1.1" baseProfile="full" viewBox="0 0 200 200" width="200" height="200">
<g fill="black">
<polygon points="48,95 48,170 36,170 36,93 " />
<polygon points="48,95 51,97 46,100 " />
<polygon points="11.6,179 18.9,176.4 26,173.8 33.1,171.3 40,168.8 46.8,166.4 53.5,164.1 60.1,161.9 66.7,159.7 73.1,157.8 79.6,156.1 80.3,157.8 74.6,161.3 68.8,164.7 62.7,167.9 56.5,171.1 50.1,174.3 43.5,177.4 36.9,180.6 30.1,183.8 23.2,186.9 16.1,190.1 " />
<polygon points="16.1,190.1 11.6,179 9.8,179.8 " />
<polygon points="16.1,190.1 19.1,192.2 20.6,185.1 " />
<polygon points="99,93 99,172 87,172 87,91 " />
<polygon points="99,93 102,95 97,98 " />
<polygon points="65.8,176 72.4,173.9 79,171.8 85.8,169.8 92.6,167.7 99.5,165.6 106.5,163.6 113.6,161.5 120.8,159.6 128.1,157.8 135.6,156.1 136.3,157.8 129.4,161.3 122.6,164.6 115.8,167.7 109.1,170.7 102.4,173.6 95.8,176.4 89.2,179.2 82.7,181.9 76.3,184.6 69.9,187.2 " />
<polygon points="69.9,187.2 65.8,176 64,176.7 " />
<polygon points="69.9,187.2 72.8,189.4 74.6,182.4 " />
<polygon points="148,92.8 148.6,109.3 149.9,124 151.7,136.9 154,147.9 156.8,157.1 160.1,164.4 163.6,169.7 167.2,173.2 171,175.2 175.1,176 174.8,187.9 167.1,186.6 160.2,182.9 154.3,177.3 149.5,170.1 145.6,161.3 142.4,150.9 139.9,138.9 138,125.3 136.7,110 136,93.1 " />
<polygon points="136,94.1 148,92.8 135.9,90.7 " />
<polygon points="148,92.8 151,94.7 146.1,97.9 " />
<polygon points="175.1,176 179.3,177.9 180.9,182.1 179,186.3 174.8,187.9 " />
<polygon points="175,177 177,151 175,151 169,177 " />
<polygon points="107.3,94.7 110.5,96.3 113.8,97.7 116.9,99.2 119.8,100.9 122.6,102.7 125.2,104.6 127.7,106.6 130.1,108.7 132.3,110.9 134.4,113.2 124.3,119.7 123.2,117.4 122,115.2 120.7,112.9 119.1,110.6 117.4,108.2 115.5,105.9 113.5,103.5 111.3,101 109,98.5 106.3,96.2 " />
<polygon points="134.4,113.2 135.1,117.7 132.6,121.5 128.1,122.2 124.3,119.7 " />
<polygon points="106.3,121.9 109.2,123.6 112.3,125.2 115.2,127 118,128.8 120.7,130.8 123.3,132.9 125.9,135 128.3,137.3 130.7,139.6 133,142 123.3,149.1 121.9,146.5 120.3,143.9 118.7,141.3 117,138.8 115.2,136.2 113.4,133.6 111.4,131 109.5,128.4 107.5,125.7 105.2,123.3 " />
<polygon points="133,142 134,146.4 131.7,150.4 127.3,151.4 123.3,149.1 " />
<polygon points="55.3,94.8 58.3,96.3 61.5,97.7 64.5,99.2 67.3,100.9 70.1,102.7 72.7,104.6 75.2,106.6 77.6,108.6 79.9,110.8 82.1,113 72.3,120 71.1,117.7 69.7,115.3 68.2,113 66.6,110.6 64.9,108.3 63,105.9 61,103.5 58.9,101 56.8,98.5 54.3,96.3 " />
<polygon points="82.1,113 83.1,117.5 80.7,121.4 76.2,122.4 72.3,120 " />
<polygon points="53.3,121.9 56.1,123.6 59,125.2 61.9,127 64.8,128.8 67.6,130.8 70.3,132.8 73.1,134.9 75.8,137.1 78.6,139.3 81.3,141.7 72.5,149.9 70.4,147.1 68.4,144.4 66.3,141.7 64.3,139 62.2,136.4 60.2,133.7 58.1,131.1 56.2,128.5 54.2,125.7 52.1,123.3 " />
<polygon points="81.3,141.7 82.8,146 81,150.1 76.7,151.7 72.5,149.9 " />
</g>
</svg>
