<svg xmlns="http://www.w3.org/2000/svg" xmlns:xlink="http://www.w3.org/1999/xlink" version="1.1" baseProfile="full" viewBox="0 0 200 200" width="200" height="200">
<g fill="black">
<polygon points="19,26 106,26 106,30 19,30 " />
<polygon points="106,26 82,28 94,16 " />
<polygon points="66,26 66,62 54,62 54,26 " />
<polygon points="13,59.2 113,59.2 113,63.2 13,63.2 " />
<polygon points="113,59.2 89,61.2 101,49.2 " />
<polygon points="41,59.2 41,161 29,161 29,59.2 " />
<polygon points="35,89.4 84,89.4 84,93.4 35,93.4 " />
<polygon points="35,119.6 84,119.6 84,123.6 35,123.6 " />
<polygon points="13.9,156.9 20,156.1 26.2,155.2 32.7,154.2 39.4,153.2 46.3,152 53.3,150.9 60.6,149.6 68.1,148.4 75.8,147.3 83.7,146.2 84.2,147.9 76.7,150.9 69.4,153.6 62.1,156 55.1,158.2 48.1,160.3 41.4,162.2 34.8,164 28.4,165.7 22.1,167.3 16,168.7 " />
<polygon points="16,168.7 13.9,156.9 11.9,157.2 " />
<polygon points="16,168.7 18.5,171.3 21.4,164.7 " />
<polygon points="90,59.2 90,183.8 78,189.8 78,59.2 " />
</g>
</svg>
