<svg xmlns="http://www.w3.org/2000/svg" xmlns:xlink="http://www.w3.org/1999/xlink" version="1.1" baseProfile="full" viewBox="0 0 200 200" width="200" height="200">
<g fill="black">
<polygon points="112,17 112,48 100,48 100,15 " />
<polygon points="112,17 115,19 112,21 " />
<polygon points="51,44 164,44 164,48 51,48 " />
<polygon points="170,46 170,117 158,123 158,46 " />
<polygon points="158,44 164,39 175,48 170,52 158,46 " />
<polygon points="51,75 164,75 164,79 51,79 " />
<polygon points="51,107 164,107 164,111 51,111 " />
<polygon points="51,44 51,171 39,171 39,38 " />
<polygon points="16.1,173.9 24.1,171.8 32.8,169.6 42.3,167.4 52.6,165.1 63.7,162.8 75.5,160.4 88.1,158 101.5,155.6 115.7,153.3 130.8,151.1 131.1,152.8 116.5,157 102.7,160.8 89.6,164.4 77.3,167.8 65.7,171 54.9,174.1 44.9,177.1 35.7,180 27.3,182.7 19.7,185.4 " />
<polygon points="19.7,185.4 16.1,173.9 14.2,174.5 " />
<polygon points="19.7,185.4 22.5,187.6 24.5,180.7 " />
<polygon points="94.2,128.6 104.2,132.1 113.6,135.9 122.3,139.7 130.5,143.5 138,147.4 145.1,151.2 151.6,155.1 157.5,158.9 162.9,162.7 167.8,166.5 159.7,175.4 155.7,171.5 151.1,167.5 145.9,163.4 140.1,159.1 133.7,154.7 126.7,150.2 119.2,145.5 111.2,140.7 102.6,135.6 93.5,130.2 " />
<polygon points="167.8,166.5 169.7,170.7 168.2,175 164,176.9 159.7,175.4 " />
</g>
</svg>
