<svg xmlns="http://www.w3.org/2000/svg" xmlns:xlink="http://www.w3.org/1999/xlink" version="1.1" baseProfile="full" viewBox="0 0 200 200" width="200" height="200">
<g fill="black">
<polygon points="89.7,26.8 85.5,28.5 81,30.1 76.2,31.7 71.2,33.3 65.9,34.8 60.3,36.3 54.5,37.6 48.4,38.9 41.9,40 35.2,40.8 34.7,39.1 40.9,36.3 46.8,33.8 52.5,31.4 57.9,29.1 63.1,26.8 67.9,24.6 72.5,22.4 76.7,20.3 80.7,18.1 84.4,16 " />
<polygon points="84.4,16 89.7,26.8 92.7,25.3 " />
<polygon points="92.7,25.3 92.9,28.5 85.4,25.6 " />
<polygon points="41,38 41,95 29,95 29,32 " />
<polygon points="13.9,96 19.5,94.3 25.4,92.4 31.6,90.4 38,88.2 44.8,85.9 51.9,83.5 59.3,81 67.1,78.3 75.1,75.7 83.6,73.1 84.3,74.8 76.6,79.2 69.2,83.3 61.9,87 54.8,90.5 48,93.8 41.5,96.9 35.2,99.7 29.2,102.4 23.4,104.9 17.9,107.3 " />
<polygon points="17.9,107.3 13.9,96 12,96.6 " />
<polygon points="17.9,107.3 20.8,109.4 22.6,102.4 " />
<polygon points="59.3,48.7 64.5,50.9 69.4,53.5 73.9,56.3 78,59.5 81.8,62.9 85.3,66.5 88.4,70.3 91.2,74.4 93.6,78.7 95.7,83.2 84.3,87 83.2,83.2 81.8,79.4 80,75.7 77.9,72 75.5,68.4 72.8,64.8 69.7,61.2 66.2,57.6 62.5,53.9 58.3,50.2 " />
<polygon points="95.7,83.2 95.3,87.8 91.9,90.8 87.3,90.4 84.3,87 " />
<polygon points="101,29 172,29 172,33 101,33 " />
<polygon points="177.9,30.8 178.1,39.4 178,47.5 177.8,55 177.4,62 176.8,68.4 176,74.2 175,79.6 173.9,84.4 172.5,88.8 170.8,92.7 160.1,87.3 161.2,84.6 162.3,81.2 163.3,77.1 164.2,72.4 164.9,67.1 165.4,61.1 165.8,54.5 166,47.3 166.1,39.5 166,31.1 " />
<polygon points="166,29 172,24 183,33 178,37 172,37 " />
<polygon points="170.8,92.7 167.3,95.6 162.7,95.4 159.8,91.9 160.1,87.3 " />
<polygon points="170.8,92.7 169.6,94.9 168.1,96.9 166.5,98.8 164.7,100.4 162.7,101.8 160.6,103 158.3,103.9 155.9,104.5 153.5,104.8 151,105 151,93 152.3,92.9 153.5,92.7 154.6,92.4 155.6,92.1 156.4,91.6 157.2,91.1 158,90.4 158.7,89.5 159.4,88.5 160.1,87.3 " />
<polygon points="151,99 151,93 131,93 131,96 " />
<polygon points="138.9,31 138.9,31.3 137.3,43.6 134.7,55 131.1,65.5 126.5,75.1 121,83.8 114.4,91.5 107,98.2 98.6,103.9 89.4,108.4 79.3,111.8 78.6,110.1 87.6,105 95.6,99.4 102.6,93.3 108.7,86.5 113.9,79.1 118.2,70.9 121.7,62 124.3,52.4 126.1,41.9 126.9,31 " />
</g>
</svg>
