<svg xmlns="http://www.w3.org/2000/svg" xmlns:xlink="http://www.w3.org/1999/xlink" version="1.1" baseProfile="full" viewBox="0 0 200 200" width="200" height="200">
<g fill="black">
<polygon points="47,30 47,132 35,138 35,24 " />
<polygon points="41,30 151,30 151,34 41,34 " />
<polygon points="157,32 157,126 145,132 145,32 " />
<polygon points="145,30 151,25 162,34 157,38 145,32 " />
<polygon points="41,71 151,71 151,75 41,75 " />
<polygon points="41,116 151,116 151,120 41,120 " />
<polygon points="101,30 101,165 89,165 89,30 " />
<polygon points="101,165 98.6,168.6 95,171 91.4,168.6 89,165 " />
<polygon points="101,165 101,166.2 101.2,167.1 101.4,167.7 101.5,168 101.7,168.2 101.9,168.4 102.2,168.5 102.8,168.7 103.7,168.9 105,169 105,181 102.4,180.8 99.9,180.4 97.5,179.6 95.2,178.3 93.2,176.7 91.6,174.7 90.3,172.4 89.5,170 89.1,167.5 89,165 " />
<polygon points="105,169 109.2,170.8 111,175 109.2,179.2 105,181 " />
<polygon points="105,169 172,169 172,181 105,181 " />
<polygon points="172,169 175.6,171.4 178,175 175.6,178.6 172,181 " />
<polygon points="166,170 172,144 174,144 172,170 " />
</g>
</svg>
