<svg xmlns="http://www.w3.org/2000/svg" xmlns:xlink="http://www.w3.org/1999/xlink" version="1.1" baseProfile="full" viewBox="0 0 200 200" width="200" height="200">
<g fill="black">
<polygon points="35,23.8 164.9,23.8 164.9,27.8 35,27.8 " />
<polygon points="164.9,23.8 140.9,25.8 152.9,13.8 " />
<polygon points="106,23.8 106,63.8 94,63.8 94,23.8 " />
<polygon points="23.4,59.8 177.4,59.8 177.4,63.8 23.4,63.8 " />
<polygon points="177.4,59.8 153.4,61.8 165.4,49.8 " />
<polygon points="71.7,76.5 69.1,82.5 66.1,88.2 62.7,93.8 59,99.1 55,104.3 50.6,109.2 45.8,113.9 40.7,118.3 35.1,122.4 29.1,126.2 28,124.8 32.6,119.6 36.9,114.5 41,109.4 44.7,104.4 48.1,99.2 51.2,94.1 54,88.8 56.5,83.5 58.6,78.1 60.4,72.5 " />
<polygon points="60.9,71.1 71.7,76.5 60,73.5 " />
<polygon points="71.7,76.5 73.8,79.4 68.1,80.6 " />
<polygon points="52.7,93.5 166.1,93.5 166.1,97.5 52.7,97.5 " />
<polygon points="166.1,93.5 142.1,95.5 154.1,83.5 " />
<polygon points="20.2,128.8 181.9,128.8 181.9,132.8 20.2,132.8 " />
<polygon points="181.9,128.8 157.9,130.8 169.9,118.8 " />
<polygon points="103.9,93.5 103.9,126.1 91.9,126.1 91.9,93.5 " />
<polygon points="103.9,126.1 101.5,129.7 97.9,132.1 94.3,129.7 91.9,126.1 " />
<polygon points="103.8,126.9 101.6,136 97.8,144.6 92.6,152.5 86.1,159.7 78.2,166.2 69,172 58.5,177.2 46.8,181.8 33.7,185.7 19.3,188.8 18.9,187.1 32.5,182.1 44.8,176.8 55.6,171.4 65,165.6 72.9,159.5 79.4,153.2 84.5,146.6 88.2,139.8 90.7,132.8 91.9,125.4 " />
<polygon points="103.3,130 107.7,136.1 112.6,141.8 117.9,147.1 123.9,152 130.6,156.6 138,160.9 146.1,164.7 155,168.3 164.7,171.5 175.2,174.3 171.7,187 160.7,183.3 150.6,179.2 141.3,174.7 132.8,169.7 125.2,164.2 118.5,158.4 112.7,152.1 107.8,145.4 104.1,138.2 101.6,130.7 " />
<polygon points="171.7,187 175.2,174.3 183.4,176.5 " />
</g>
</svg>
