<svg xmlns="http://www.w3.org/2000/svg" xmlns:xlink="http://www.w3.org/1999/xlink" version="1.1" baseProfile="full" viewBox="0 0 200 200" width="200" height="200">
<g fill="black">
<polygon points="39,77 158,77 158,81 39,81 " />
<polygon points="164,79 164,136 152,142 152,79 " />
<polygon points="152,77 158,72 169,81 164,85 152,79 " />
<polygon points="31,102 158,102 158,106 31,106 " />
<polygon points="39,126 158,126 158,130 39,130 " />
<polygon points="85,56 85,130 73,130 73,56 " />
<polygon points="125,56 125,130 113,130 113,56 " />
<polygon points="54,56 146,56 146,60 54,60 " />
<polygon points="146,56 122,58 134,46 " />
<polygon points="78.3,136.9 75.5,143.1 72.1,149.2 68.4,155 64.1,160.6 59.4,165.9 54.2,171 48.5,175.9 42.3,180.5 35.7,184.8 28.5,188.7 27.4,187.2 33.4,181.8 38.9,176.4 44,171.1 48.7,165.8 52.9,160.5 56.6,155.1 59.9,149.6 62.7,144.1 65,138.5 67,132.9 " />
<polygon points="66.6,133.8 78.3,136.9 67.5,131.4 " />
<polygon points="78.3,136.9 80.4,139.8 74.7,140.9 " />
<polygon points="63.3,152.7 67.5,154.5 71.6,156.1 75.5,157.9 79.1,159.7 82.6,161.6 85.8,163.6 88.8,165.5 91.6,167.6 94.2,169.6 96.6,171.8 87.4,179.5 86,177.4 84.3,175.1 82.4,172.8 80.2,170.4 77.8,167.9 75.2,165.3 72.3,162.7 69.2,159.9 66,157 62.4,154.2 " />
<polygon points="96.6,171.8 97.9,176.2 95.9,180.2 91.5,181.6 87.4,179.5 " />
<polygon points="143.5,137.5 141.2,143.7 138.2,149.6 134.7,155.4 130.6,160.9 125.9,166.2 120.6,171.3 114.7,176.1 108.2,180.6 101.1,184.8 93.4,188.7 92.5,187.2 99,181.7 104.9,176.4 110.3,171.1 115.2,165.9 119.4,160.7 123.1,155.4 126.1,150.2 128.6,144.9 130.5,139.7 131.9,134.4 " />
<polygon points="131.6,135.3 143.5,137.5 132.3,132.7 " />
<polygon points="143.5,137.5 145.9,140.2 140.3,141.8 " />
<polygon points="132.3,151.6 136.4,153.2 140.5,154.8 144.4,156.7 148.2,158.9 151.8,161.1 155.3,163.6 158.6,166.2 161.8,168.9 164.9,171.8 167.8,174.9 158.4,182.3 156.3,179.2 154.1,176.1 151.7,173.1 149.3,170.2 146.6,167.3 143.8,164.5 140.9,161.7 137.9,158.8 134.8,156 131.4,153.2 " />
<polygon points="167.8,174.9 169,179.3 166.8,183.3 162.4,184.5 158.4,182.3 " />
<polygon points="79,23 142,23 142,27 79,27 " />
<polygon points="142,23 118,25 130,13 " />
<polygon points="134.2,25.4 138.7,30.4 143.1,35.3 147.5,40.1 152.2,44.7 157.1,49.1 162.2,53.3 167.6,57.3 173.2,61.2 179.1,64.8 185.3,68.3 178.6,79.6 172.3,75.3 166.3,70.7 160.7,65.9 155.4,60.9 150.5,55.7 146,50.3 141.9,44.7 138.3,38.8 135.1,32.7 132.7,26.3 " />
<polygon points="178.6,79.6 185.3,68.3 189.7,70.9 " />
<polygon points="70.5,24.4 68.1,31.1 65,37.7 61.1,44.1 56.5,50.4 51.1,56.7 45.1,62.8 38.3,68.7 30.8,74.6 22.5,80.3 13.5,85.7 12.4,84.2 20.2,77.2 27.4,70.5 33.8,63.9 39.6,57.5 44.6,51.2 48.9,45 52.5,39 55.3,33 57.4,27.2 58.9,21.5 " />
<polygon points="58.6,22.4 70.5,24.4 59.3,19.7 " />
<polygon points="70.5,24.4 73,27 67.4,28.7 " />
</g>
</svg>
