<svg xmlns="http://www.w3.org/2000/svg" xmlns:xlink="http://www.w3.org/1999/xlink" version="1.1" baseProfile="full" viewBox="0 0 200 200" width="200" height="200">
<g fill="black">
<polygon points="105.7,21.7 99.3,29.2 92.4,36.5 84.7,43.6 76.5,50.4 67.6,57 58.1,63.3 48,69.4 37.2,75.2 25.7,80.7 13.6,85.8 12.8,84.2 23.9,77.4 34.5,70.6 44.5,63.9 53.8,57.1 62.5,50.2 70.5,43.3 77.9,36.2 84.6,29.1 90.7,21.9 96.1,14.6 " />
<polygon points="95.5,15.4 105.7,21.7 96.5,13.9 " />
<polygon points="105.7,21.7 106.9,25.1 101.1,24.5 " />
<polygon points="98.8,23.1 107.3,29.5 115.7,35.6 124,41.4 132.3,46.9 140.5,51.9 148.7,56.5 157,60.7 165.3,64.4 173.6,67.7 181.9,70.6 177.4,83 168.7,79.3 160.2,75.1 151.8,70.4 143.5,65.3 135.4,59.7 127.4,53.7 119.6,47.2 111.9,40.2 104.6,32.6 97.5,24.4 " />
<polygon points="177.4,83 181.9,70.6 188.9,73.2 " />
<polygon points="71,60 127,60 127,64 71,64 " />
<polygon points="127,60 107,62 117,51 " />
<polygon points="53,76 53,118 41,124 41,70 " />
<polygon points="47,76 148,76 148,80 47,80 " />
<polygon points="154,78 154,118 142,124 142,78 " />
<polygon points="142,76 148,71 159,80 154,84 142,78 " />
<polygon points="50,94 146,94 146,98 50,98 " />
<polygon points="103,76 103,118 91,118 91,76 " />
<polygon points="47,114 148,114 148,118 47,118 " />
<polygon points="61.9,129.2 61.9,179.7 49.9,185.7 49.9,123.2 " />
<polygon points="55.9,129.2 138,129.2 138,133.2 55.9,133.2 " />
<polygon points="144,131.2 144,176.7 132,182.7 132,131.2 " />
<polygon points="132,129.2 138,124.2 149,133.2 144,137.2 132,131.2 " />
<polygon points="55.9,148.4 138,148.4 138,152.4 55.9,152.4 " />
<polygon points="55.9,168.7 138,168.7 138,172.7 55.9,172.7 " />
</g>
</svg>
