<svg xmlns="http://www.w3.org/2000/svg" xmlns:xlink="http://www.w3.org/1999/xlink" version="1.1" baseProfile="full" viewBox="0 0 200 200" width="200" height="200">
<g fill="black">
<polygon points="168,24.5 154.3,26.4 140.4,28 126.3,29.4 112,30.5 97.5,31.3 82.8,31.9 67.9,32.2 52.8,32.2 37.5,31.7 22,30.9 22,29.1 37.4,27.9 52.6,26.8 67.6,25.6 82.4,24.3 96.9,22.9 111.2,21.2 125.2,19.4 139,17.4 152.6,15.1 166,12.7 " />
<polygon points="177.2,23 168,24.5 165,12.9 " />
<polygon points="177.2,23 177.6,25.9 170.1,22.1 " />
<polygon points="36.2,34 39.7,35.3 43.1,36.2 46.3,37.3 49.3,38.5 52.1,39.8 54.7,41.2 57,42.8 59.2,44.5 61.1,46.4 62.9,48.5 52.2,54.1 51.9,52.7 51.2,51.1 50.3,49.4 49.1,47.6 47.6,45.7 45.8,43.8 43.6,41.8 41.3,39.7 38.6,37.5 35.5,35.7 " />
<polygon points="62.9,48.5 63.2,53.1 60.3,56.6 55.8,57 52.2,54.1 " />
<polygon points="88.3,32.1 90.6,33.2 93,33.9 95.4,34.7 97.6,35.6 99.7,36.7 101.7,37.9 103.6,39.2 105.4,40.6 107.1,42.2 108.7,43.9 98.3,49.8 97.9,48.4 97.4,46.9 96.7,45.3 95.9,43.7 94.9,42.1 93.8,40.4 92.5,38.7 91,37 89.4,35.1 87.4,33.7 " />
<polygon points="108.7,43.9 109.2,48.4 106.4,52.1 101.9,52.6 98.3,49.8 " />
<polygon points="162.6,36.9 160.3,39.7 157.9,42.4 155.4,45 152.7,47.4 149.8,49.7 146.8,51.8 143.7,53.8 140.4,55.5 136.9,57.1 133.4,58.7 132.5,57.2 135.3,54.7 137.7,52 140.1,49.4 142.3,46.8 144.3,44.1 146.2,41.5 148,38.8 149.6,36.2 151,33.5 152.3,30.7 " />
<polygon points="152.8,29.8 162.6,36.9 151.8,31.6 " />
<polygon points="162.6,36.9 164.1,40.2 158.3,40.2 " />
<polygon points="34.4,53.8 34.9,58.3 35.5,62.6 35.5,66.7 35.2,70.5 34.5,74.2 33.4,77.7 31.7,80.9 29.7,83.9 27.1,86.5 24.1,88.7 18.7,78 20.7,77.3 22.5,76.4 24.2,75.1 25.9,73.4 27.4,71.3 28.8,68.7 30.1,65.7 31.2,62.2 32.2,58.3 32.6,53.9 " />
<polygon points="24.1,88.7 19.5,89 16,86 15.8,81.5 18.7,78 " />
<polygon points="34.5,60.6 176.3,60.6 176.3,64.6 34.5,64.6 " />
<polygon points="181.1,66.2 179.4,67.7 177.6,69.3 175.6,70.9 173.5,72.6 171.2,74.3 168.7,76.1 166.1,78 163.2,79.9 160.2,81.8 157.2,84.1 156,82.7 158.4,79.9 160.4,77 162.3,74.2 164.1,71.6 165.7,69.1 167.2,66.8 168.5,64.6 169.7,62.6 170.7,60.7 171.5,59 " />
<polygon points="170.3,60.6 176.3,55.6 187.3,64.6 182.3,67.6 170.3,72.6 " />
<polygon points="46.1,80.4 46.7,83.5 47.6,86.5 48.1,89.5 48.1,92.4 47.8,95.3 47.1,98.1 45.9,100.9 44.3,103.5 42.3,105.8 39.9,108 33.8,97.7 35.5,97 37,96.3 38.4,95.3 39.7,94.2 41,92.7 42,91 43,88.9 43.8,86.5 44.4,83.7 44.3,80.7 " />
<polygon points="39.9,108 35.4,108.6 31.7,105.9 31.1,101.3 33.8,97.7 " />
<polygon points="75.4,83 75.4,104 63.4,104 63.4,81 " />
<polygon points="75.4,83 78.4,85 73.4,88 " />
<polygon points="75.4,104 73,107.6 69.4,110 65.8,107.6 63.4,104 " />
<polygon points="75.4,104 75.3,105.2 75.4,106.1 75.5,106.8 75.6,107.2 75.7,107.6 75.9,107.9 76.3,108.2 77,108.5 78,108.8 79.4,109 79.4,119 76.9,118.9 74.5,118.6 72.2,117.9 70,116.8 68,115.3 66.3,113.5 65,111.3 64.1,109 63.6,106.5 63.4,104 " />
<polygon points="79.4,109 82.9,110.5 84.4,114 82.9,117.5 79.4,119 " />
<polygon points="79.4,109 145,109 145,119 79.4,119 " />
<polygon points="145,109 148,111 150,114 148,117 145,119 " />
<polygon points="140,110 145,92 147,92 145,110 " />
<polygon points="75,70 78.4,70.4 81.7,70.5 84.9,70.8 88,71.3 90.9,72.1 93.6,73 96.2,74.2 98.7,75.6 101,77.3 103.1,79.2 93.3,86.2 92.7,84.8 91.8,83.3 90.6,81.7 89.2,80.2 87.5,78.7 85.5,77.2 83.2,75.7 80.7,74.3 77.9,72.8 74.7,71.8 " />
<polygon points="103.1,79.2 104.1,83.7 101.7,87.6 97.2,88.6 93.3,86.2 " />
<polygon points="152.6,80.8 155.7,82.3 158.8,83.4 161.8,84.8 164.4,86.3 166.9,88 169.1,89.9 171.1,92 172.8,94.3 174.3,96.8 175.5,99.4 163.7,101.8 163.7,100.2 163.5,98.6 163.1,96.9 162.4,95 161.4,93 160.1,91 158.5,88.9 156.6,86.7 154.4,84.4 151.7,82.4 " />
<polygon points="175.5,99.4 174.5,103.9 170.7,106.5 166.3,105.5 163.7,101.8 " />
<polygon points="143.6,80 135.1,86.1 125.9,91.7 115.9,96.9 105,101.5 93.3,105.7 80.9,109.4 67.6,112.6 53.4,115.3 38.5,117.4 22.7,118.8 22.4,117.1 37.8,113.6 52.3,110 65.9,106.2 78.6,102.1 90.4,97.7 101.3,93 111.3,87.9 120.4,82.5 128.6,76.8 135.8,70.8 " />
<polygon points="136,70.7 143.6,80 135,71.5 " />
<polygon points="143.6,80 144,83.6 138.5,81.7 " />
<polygon points="89.3,125.9 84.7,131.3 79.6,136.5 74.2,141.4 68.3,145.9 62,150.2 55.3,154.2 48.2,157.8 40.7,161.1 32.7,164 24.3,166.4 23.6,164.7 31.2,160.5 38.3,156.3 45,152.1 51.3,147.8 57.1,143.3 62.5,138.7 67.4,134 71.8,129.1 75.9,124.1 79.5,118.9 " />
<polygon points="80,118.2 89.3,125.9 78.9,119.7 " />
<polygon points="89.3,125.9 90.5,129.2 84.7,128.8 " />
<polygon points="75,133.2 140,133.2 140,137.2 75,137.2 " />
<polygon points="144.4,139.2 135.3,147.7 125.4,155.4 114.5,162.3 102.9,168.5 90.4,173.9 77,178.5 62.8,182.3 47.7,185.4 31.8,187.6 15.1,188.8 14.8,187.1 31.2,183.8 46.6,180.1 61,176 74.5,171.3 87,166 98.6,160.2 109.3,153.8 118.9,146.8 127.7,139.2 135.5,131.1 " />
<polygon points="134,133.2 140,128.2 151,137.2 146,140.2 134,145.2 " />
<polygon points="75.2,137.1 81.7,143.7 88.6,149.7 96.3,155.1 104.7,159.8 114,163.9 124.2,167.4 135.3,170.2 147.3,172.4 160.4,174 174.4,175 173.5,188.1 158.9,186.5 145.2,184.1 132.6,180.9 120.9,177.1 110.2,172.4 100.6,167.1 92,160.9 84.6,154.1 78.5,146.4 73.7,138.1 " />
<polygon points="173.5,188.1 174.4,175 185.4,175.7 " />
</g>
</svg>
