<svg xmlns="http://www.w3.org/2000/svg" xmlns:xlink="http://www.w3.org/1999/xlink" version="1.1" baseProfile="full" viewBox="0 0 200 200" width="200" height="200">
<g fill="black">
<polygon points="156.5,27.5 148.1,53.4 138.5,77.1 127.5,98.8 115.4,118.3 101.9,135.7 87.2,150.8 71.2,163.8 54,174.5 35.7,182.9 16.2,188.8 15.7,187.1 34.2,179.4 51.4,169.9 67.3,158.6 81.9,145.4 95.4,130.2 107.6,113.1 118.7,94 128.6,72.8 137.4,49.6 144.9,24.3 " />
<polygon points="144.6,25.3 156.5,27.5 145.4,22.7 " />
<polygon points="156.5,27.5 158.8,30.2 153.2,31.8 " />
<polygon points="56,21.8 61.9,43.7 68.9,64.1 77.2,83 86.9,100.3 98,116.2 110.5,130.6 124.3,143.5 139.6,155 156.4,165.2 174.6,173.9 169.3,186 150.3,176.1 132.8,164.7 117.1,151.8 102.9,137.5 90.5,121.7 79.7,104.5 70.7,86 63.4,66 57.8,44.7 54.2,22.1 " />
<polygon points="169.3,186 174.6,173.9 180.7,176.6 " />
</g>
</svg>
