<svg xmlns="http://www.w3.org/2000/svg" xmlns:xlink="http://www.w3.org/1999/xlink" version="1.1" baseProfile="full" viewBox="0 0 200 200" width="200" height="200">
<g fill="black">
<polygon points="19,25 186,25 186,29 19,29 " />
<polygon points="186,25 162,27 174,15 " />
<polygon points="47,46 47,82 35,88 35,40 " />
<polygon points="41,46 162,46 162,50 41,50 " />
<polygon points="168,48 168,79 156,85 156,48 " />
<polygon points="156,46 162,41 173,50 168,54 156,48 " />
<polygon points="87,25 87,75 75,75 75,25 " />
<polygon points="128,25 128,75 116,75 116,25 " />
<polygon points="41,71 162,71 162,75 41,75 " />
<polygon points="19,98 184,98 184,102 19,102 " />
<polygon points="184,98 160,100 172,88 " />
<polygon points="104.6,80.9 98.7,89.6 92.1,98 84.8,106.2 76.8,114.1 68.2,121.8 58.8,129.2 48.8,136.4 38.1,143.2 26.6,149.7 14.4,155.7 13.5,154.2 24.6,146.4 35.1,138.8 44.9,131.1 54,123.3 62.5,115.5 70.2,107.6 77.3,99.5 83.6,91.4 89.3,83.1 94.3,74.8 " />
<polygon points="93.8,75.6 104.6,80.9 94.8,73.9 " />
<polygon points="104.6,80.9 106.2,84.1 100.3,84.2 " />
<polygon points="126.3,100 132.1,103.6 137.8,107.2 143.3,110.7 148.8,114.1 154.2,117.2 159.7,120.2 165.1,122.9 170.6,125.5 176.1,127.8 181.5,129.9 176.4,142 170.7,139.1 165.1,135.9 159.7,132.5 154.3,128.9 149.1,125 143.9,120.9 138.9,116.5 134,111.8 129.4,106.8 125.1,101.3 " />
<polygon points="176.4,142 181.5,129.9 187.8,132.6 " />
<polygon points="68,122 132,122 132,126 68,126 " />
<polygon points="138,124 138,157 126,163 126,124 " />
<polygon points="126,122 132,117 143,126 138,130 126,124 " />
<polygon points="74,122 74,171 62,171 62,116 " />
<polygon points="74,171 71.6,174.6 68,177 64.4,174.6 62,171 " />
<polygon points="74,171 74,172.2 74.2,173.1 74.4,173.7 74.5,174 74.7,174.2 74.9,174.4 75.2,174.5 75.8,174.7 76.7,174.9 78,175 78,187 75.4,186.8 72.9,186.4 70.5,185.6 68.2,184.3 66.2,182.7 64.6,180.7 63.3,178.4 62.5,176 62.1,173.5 62,171 " />
<polygon points="78,175 82.2,176.8 84,181 82.2,185.2 78,187 " />
<polygon points="78,175 159,175 159,187 78,187 " />
<polygon points="159,175 162.6,177.4 165,181 162.6,184.6 159,187 " />
<polygon points="153,176 159,150 161,150 159,176 " />
<polygon points="66,149 132,149 132,153 66,153 " />
</g>
</svg>
