<svg xmlns="http://www.w3.org/2000/svg" xmlns:xlink="http://www.w3.org/1999/xlink" version="1.1" baseProfile="full" viewBox="0 0 200 200" width="200" height="200">
<g fill="black">
<polygon points="17.3,27 181.6,27 181.6,31 17.3,31 " />
<polygon points="181.6,27 157.6,29 169.6,17 " />
<polygon points="52,50 52,163 40,169 40,44 " />
<polygon points="46,50 154,50 154,54 46,54 " />
<polygon points="160,52 160,160 148,166 148,52 " />
<polygon points="148,50 154,45 165,54 160,58 148,52 " />
<polygon points="77,75 119,75 119,79 77,79 " />
<polygon points="125,77 125,119 113,125 113,77 " />
<polygon points="113,75 119,70 130,79 125,83 113,77 " />
<polygon points="81,109 119,109 119,113 81,113 " />
<polygon points="83,75 83,135 71,135 71,69 " />
<polygon points="83,135 80.6,138.6 77,141 73.4,138.6 71,135 " />
<polygon points="83,135 83,136.2 83.2,137.1 83.4,137.7 83.5,138 83.7,138.2 83.9,138.4 84.2,138.5 84.8,138.7 85.7,138.9 87,139 87,151 84.4,150.8 81.9,150.4 79.5,149.6 77.2,148.3 75.2,146.7 73.6,144.7 72.3,142.4 71.5,140 71.1,137.5 71,135 " />
<polygon points="87,139 91.2,140.8 93,145 91.2,149.2 87,151 " />
<polygon points="87,139 133,139 133,151 87,151 " />
<polygon points="133,139 136.6,141.4 139,145 136.6,148.6 133,151 " />
<polygon points="127,140 133,114 135,114 133,140 " />
<polygon points="16,177 185,177 185,181 16,181 " />
<polygon points="185,177 161,179 173,167 " />
</g>
</svg>
