<svg xmlns="http://www.w3.org/2000/svg" xmlns:xlink="http://www.w3.org/1999/xlink" version="1.1" baseProfile="full" viewBox="0 0 200 200" width="200" height="200">
<g fill="black">
<polygon points="14.7,35.8 95.1,35.8 95.1,39.8 14.7,39.8 " />
<polygon points="95.1,35.8 71.1,37.8 83.1,25.8 " />
<polygon points="68.7,14.2 68.7,58.4 56.7,64.4 56.7,12.2 " />
<polygon points="68.7,14.2 71.7,16.2 66.7,19.2 " />
<polygon points="104.9,35.8 185.2,35.8 185.2,39.8 104.9,39.8 " />
<polygon points="185.2,35.8 161.2,37.8 173.2,25.8 " />
<polygon points="143.2,14.2 143.2,58.4 131.2,64.4 131.2,12.2 " />
<polygon points="143.2,14.2 146.2,16.2 141.2,19.2 " />
<polygon points="66.2,73 63.9,76.4 61.4,79.8 58.8,83.3 56.1,86.7 53.2,90.2 50.1,93.7 46.8,97.1 43.4,100.5 39.6,103.9 35.7,107.3 34.4,106.1 37,101.7 39.4,97.4 41.9,93.3 44.2,89.3 46.4,85.4 48.5,81.6 50.5,77.9 52.4,74.3 54.1,70.7 55.6,67.3 " />
<polygon points="56.2,66.3 66.2,73 55.1,68.1 " />
<polygon points="66.2,73 67.9,76.2 62,76.4 " />
<polygon points="18.8,99.1 23.2,100.6 27.5,102.2 31.6,104 35.5,106.1 39.2,108.3 42.8,110.7 46.2,113.2 49.4,115.9 52.5,118.7 55.4,121.7 45.9,129.1 43.9,126.1 41.8,123.2 39.5,120.3 36.9,117.4 34.2,114.6 31.3,111.8 28.3,109.1 25,106.3 21.6,103.4 18,100.7 " />
<polygon points="55.4,121.7 56.5,126.1 54.3,130.1 49.9,131.3 45.9,129.1 " />
<polygon points="86.9,102.1 82.7,110.2 78.1,118.1 73.1,125.9 67.8,133.5 62,140.9 55.8,148.2 49.3,155.3 42.3,162.1 34.8,168.7 26.9,175 25.7,173.7 32.2,166 38.4,158.5 44.3,151 49.9,143.4 55.2,135.9 60.1,128.3 64.6,120.6 68.8,112.9 72.5,105.1 76,97.2 " />
<polygon points="76.5,96 86.9,102.1 75.6,98.1 " />
<polygon points="86.9,102.1 88.8,105.2 83,105.9 " />
<polygon points="17.4,169.7 24.9,168.6 32.3,167.5 39.5,166.5 46.6,165.4 53.4,164.4 60.1,163.4 66.7,162.5 73.1,161.6 79.4,161 85.5,160.5 86,162.3 80.3,164.7 74.3,166.9 68.1,168.9 61.8,170.8 55.2,172.7 48.4,174.5 41.5,176.3 34.4,178.1 27.1,179.8 19.6,181.5 " />
<polygon points="15.4,170.1 17.4,169.7 19.6,181.5 " />
<polygon points="24.9,177.5 22.1,184.1 19.6,181.5 " />
<polygon points="69.5,139.8 72.7,142.1 75.9,144.3 78.9,146.8 81.7,149.5 84.3,152.3 86.8,155.3 89.1,158.4 91.3,161.7 93.4,165 95.2,168.5 84.1,173 83.1,169.6 82,166.4 80.7,163.1 79.3,159.9 77.8,156.8 76.2,153.6 74.4,150.5 72.5,147.4 70.6,144.2 68.3,141.1 " />
<polygon points="95.2,168.5 95.1,173.1 91.9,176.3 87.3,176.2 84.1,173 " />
<polygon points="148.1,70.9 145.1,75.4 142,79.8 138.8,84.2 135.5,88.4 132.1,92.6 128.6,96.7 124.9,100.7 121.1,104.5 117.1,108.1 112.9,111.6 111.5,110.4 114.2,105.7 117,101.1 119.7,96.6 122.5,92.2 125.2,87.7 127.8,83.2 130.4,78.7 132.9,74.1 135.3,69.6 137.7,64.9 " />
<polygon points="138.2,64 148.1,70.9 137.2,65.8 " />
<polygon points="148.1,70.9 149.7,74.2 143.9,74.3 " />
<polygon points="95,97 100,98.8 104.9,100.8 109.4,103.1 113.8,105.7 117.9,108.4 121.7,111.3 125.4,114.4 128.8,117.6 132,121 135,124.6 125,131.3 123,127.9 120.7,124.6 118.2,121.2 115.5,118 112.5,114.7 109.2,111.5 105.8,108.3 102.1,105.1 98.2,101.9 94.1,98.6 " />
<polygon points="135,124.6 135.9,129.1 133.4,132.9 128.9,133.8 125,131.3 " />
<polygon points="175.3,95.5 168.9,105.4 162.4,115 155.9,124.2 149.4,133 142.8,141.4 136.2,149.5 129.5,157.1 122.8,164.3 116,171 109,177.1 107.6,175.9 113.1,168.4 118.7,160.8 124.4,153 130.2,144.8 136,136.4 141.8,127.7 147.6,118.6 153.4,109.2 159.2,99.4 165,89.3 " />
<polygon points="165.6,88.4 175.3,95.5 164.5,90.2 " />
<polygon points="175.3,95.5 176.9,98.8 171,98.8 " />
<polygon points="91.8,174 100.2,173 108.6,172 116.9,171 125.3,169.9 133.6,168.9 142,167.8 150.3,166.7 158.6,165.7 167,164.8 175.4,164.1 175.8,165.9 167.8,168.6 159.7,171 151.5,173.2 143.4,175.3 135.1,177.2 126.9,179.1 118.6,180.9 110.3,182.6 102,184.3 93.6,185.9 " />
<polygon points="89.8,174.3 91.8,174 93.6,185.9 " />
<polygon points="99.1,182 96,188.6 93.6,185.9 " />
<polygon points="156.4,135.7 160.7,139.4 164.6,143.3 168.2,147.3 171.5,151.5 174.6,155.7 177.4,160 179.9,164.3 182.3,168.7 184.4,173.1 186.2,177.6 174.8,181.2 173.7,177.1 172.4,172.8 170.9,168.6 169.1,164.3 167.2,159.9 165.1,155.5 162.8,151 160.3,146.4 157.7,141.7 155,136.8 " />
<polygon points="186.2,177.6 185.8,182.1 182.3,185.1 177.8,184.7 174.8,181.2 " />
</g>
</svg>
