<svg xmlns="http://www.w3.org/2000/svg" xmlns:xlink="http://www.w3.org/1999/xlink" version="1.1" baseProfile="full" viewBox="0 0 200 200" width="200" height="200">
<g fill="black">
<polygon points="40,21 162,21 162,25 40,25 " />
<polygon points="46,21 46,70 34,76 34,15 " />
<polygon points="40,54 80,54 80,58 40,58 " />
<polygon points="168,23 168,62 156,68 156,23 " />
<polygon points="156,21 162,16 173,25 168,29 156,23 " />
<polygon points="120,54 162,54 162,58 120,58 " />
<polygon points="41,85 41,142 29,148 29,79 " />
<polygon points="120,83 165,83 165,87 120,87 " />
<polygon points="171,85 171,136 159,142 159,85 " />
<polygon points="159,83 165,78 176,87 171,91 159,85 " />
<polygon points="35,126 81,126 81,130 35,130 " />
<polygon points="19,175 183,175 183,179 19,179 " />
<polygon points="183,175 159,177 171,165 " />
<polygon points="86,56 86,95 74,101 74,56 " />
<polygon points="74,54 80,49 91,58 86,62 74,56 " />
<polygon points="126,54 126,91 114,97 114,48 " />
<polygon points="35,85 80,85 80,89 35,89 " />
<polygon points="87,128 87,179 75,179 75,128 " />
<polygon points="75,126 81,121 92,130 87,134 75,128 " />
<polygon points="126,126 126,179 114,179 114,120 " />
<polygon points="120,126 165,126 165,130 120,130 " />
</g>
</svg>
