<svg xmlns="http://www.w3.org/2000/svg" xmlns:xlink="http://www.w3.org/1999/xlink" version="1.1" baseProfile="full" viewBox="0 0 200 200" width="200" height="200">
<g fill="black">
<polygon points="25,26 177,26 177,30 25,30 " />
<polygon points="177,26 153,28 165,16 " />
<polygon points="59,48 59,83 47,89 47,42 " />
<polygon points="53,48 148,48 148,52 53,52 " />
<polygon points="154,50 154,82 142,88 142,50 " />
<polygon points="142,48 148,43 159,52 154,56 142,50 " />
<polygon points="53,76 148,76 148,80 53,80 " />
<polygon points="37,98 37,181 25,187 25,92 " />
<polygon points="31,98 170,98 170,102 31,102 " />
<polygon points="176,100 176,169 164,169 164,100 " />
<polygon points="164,98 170,93 181,102 176,106 164,100 " />
<polygon points="176,169 173.6,172.6 170,175 166.4,172.6 164,169 " />
<polygon points="176,169 175.8,171.5 175.4,174 174.6,176.4 173.3,178.7 171.7,180.7 169.7,182.3 167.4,183.6 165,184.4 162.5,184.8 160,185 160,173 161.2,172.9 162.1,172.7 162.7,172.5 163,172.4 163.2,172.2 163.4,172 163.5,171.7 163.7,171.1 163.9,170.2 164,169 " />
<polygon points="160,179 160,173 140,173 140,176 " />
<polygon points="46,151 154,151 154,155 46,155 " />
<polygon points="154,151 130,153 142,141 " />
<polygon points="107,151 107,178 95,184 95,151 " />
<polygon points="145.6,112.4 137.5,117.5 128.9,122.2 119.9,126.5 110.4,130.5 100.5,134.1 90.1,137.3 79.3,140.1 68,142.5 56.3,144.5 44.1,145.8 43.8,144.1 55.5,140.7 66.7,137.3 77.5,133.8 87.7,130.1 97.5,126.1 106.7,121.9 115.5,117.5 123.7,112.8 131.4,107.8 138.7,102.6 " />
<polygon points="138.7,102.6 145.6,112.4 145.8,112.3 " />
<polygon points="145.8,112.3 145.9,115.9 139.1,113.4 " />
<polygon points="53.1,107.3 63.8,108.9 74,110.9 83.8,113 93.2,115.4 102.2,117.9 110.7,120.5 118.9,123.3 126.7,126.2 134,129.1 141,132.2 135.5,142.9 129.2,139.4 122.4,136 115.2,132.6 107.5,129.3 99.4,125.9 90.9,122.6 81.9,119.3 72.6,116 62.8,112.6 52.7,109.1 " />
<polygon points="141,132.2 143.9,135.8 143.6,140.3 140.1,143.2 135.5,142.9 " />
</g>
</svg>
