<svg xmlns="http://www.w3.org/2000/svg" xmlns:xlink="http://www.w3.org/1999/xlink" version="1.1" baseProfile="full" viewBox="0 0 200 200" width="200" height="200">
<g fill="black">
<polygon points="25,36 179,36 179,40 25,40 " />
<polygon points="179,36 155,38 167,26 " />
<polygon points="111.6,18.2 110.1,23.4 108.5,28.4 106.9,33.2 105.2,37.9 103.4,42.4 101.5,46.8 99.6,51 97.5,55 95.2,58.7 92.8,62.3 91.1,61.6 91.9,57.4 92.6,53.2 93.5,48.9 94.5,44.5 95.4,40 96.3,35.4 97.3,30.6 98.2,25.7 99,20.8 99.9,15.6 " />
<polygon points="99.9,15.6 111.6,18.2 100.3,13.8 " />
<polygon points="111.6,18.2 114.1,20.8 107.4,23.4 " />
<polygon points="66,60 66,152 54,152 54,54 " />
<polygon points="60,60 144,60 144,64 60,64 " />
<polygon points="150,62 150,153 138,153 138,62 " />
<polygon points="138,60 144,55 155,64 150,68 138,62 " />
<polygon points="60,82 144,82 144,86 60,86 " />
<polygon points="60,104 144,104 144,108 60,108 " />
<polygon points="60,126 144,126 144,130 60,130 " />
<polygon points="17,149 187,149 187,153 17,153 " />
<polygon points="187,149 163,151 175,139 " />
<polygon points="90.1,167.7 84.2,170.5 78.1,173.3 71.8,175.8 65.3,178.3 58.5,180.5 51.5,182.6 44.3,184.6 36.9,186.3 29.1,187.7 21.2,188.8 20.7,187.1 28.1,184.1 35.3,181.2 42.3,178.3 49,175.5 55.5,172.6 61.7,169.7 67.7,166.7 73.4,163.6 78.9,160.5 84.1,157.2 " />
<polygon points="84.1,157.2 90.1,167.7 92,166.6 " />
<polygon points="92,166.6 92.1,169.9 84.9,167.1 " />
<polygon points="114.1,161.2 121.5,161.5 128.6,162.2 135.3,163.2 141.7,164.5 147.8,166 153.5,167.8 158.9,169.9 164,172.1 168.8,174.6 173.2,177.4 165.9,186.9 162.5,184.1 158.8,181.5 154.6,178.9 149.9,176.4 144.9,174 139.5,171.7 133.6,169.5 127.4,167.4 120.8,165.2 113.8,163 " />
<polygon points="173.2,177.4 175.4,181.3 174.3,185.8 170.4,188 165.9,186.9 " />
</g>
</svg>
