<svg xmlns="http://www.w3.org/2000/svg" xmlns:xlink="http://www.w3.org/1999/xlink" version="1.1" baseProfile="full" viewBox="0 0 200 200" width="200" height="200">
<g fill="black">
<polygon points="13,35 186,35 186,39 13,39 " />
<polygon points="186,35 162,37 174,25 " />
<polygon points="76,14 76,57 64,63 64,12 " />
<polygon points="76,14 79,16 76,18 " />
<polygon points="136,14 136,57 124,63 124,12 " />
<polygon points="136,14 139,16 136,18 " />
<polygon points="49,61 49,121 37,127 37,59 " />
<polygon points="49,61 52,63 49,65 " />
<polygon points="64,127 64,149 52,149 52,125 " />
<polygon points="64,127 67,129 64,131 " />
<polygon points="64,149 61.6,152.6 58,155 54.4,152.6 52,149 " />
<polygon points="63.9,149.1 62.9,156.1 60.6,162.5 57.3,168.3 52.9,173.5 47.6,178 41.5,181.8 34.4,185 26.5,187.6 17.8,189.6 8.1,190.8 7.8,189.1 16.8,185.9 24.7,182.6 31.6,179.1 37.5,175.4 42.3,171.4 46,167.3 48.8,163 50.6,158.5 51.7,153.8 52,148.8 " />
<polygon points="105,127 105,182 93,188 93,125 " />
<polygon points="105,127 108,129 105,131 " />
<polygon points="148,127 148,172 136,172 136,125 " />
<polygon points="148,127 151,129 148,131 " />
<polygon points="148,172 145.6,175.6 142,178 138.4,175.6 136,172 " />
<polygon points="148,172 148,173.2 148.2,174.1 148.4,174.7 148.5,175 148.7,175.2 148.9,175.4 149.2,175.5 149.8,175.7 150.7,175.9 152,176 152,188 149.4,187.8 146.9,187.4 144.5,186.6 142.2,185.3 140.2,183.7 138.6,181.7 137.3,179.4 136.5,177 136.1,174.5 136,172 " />
<polygon points="152,176 156.2,177.8 158,182 156.2,186.2 152,188 " />
<polygon points="152,176 182,176 182,188 152,188 " />
<polygon points="182,176 185.6,178.4 188,182 185.6,185.6 182,188 " />
<polygon points="176,177 182,151 184,151 182,177 " />
<polygon points="108.5,55.4 105.8,63.2 102.5,70.6 98.4,77.4 93.8,83.7 88.5,89.5 82.7,94.8 76.2,99.5 69.2,103.6 61.5,107 53.3,109.8 52.6,108.1 59.8,103.7 66.3,99 72.2,94.2 77.6,89.2 82.2,83.8 86.3,78.2 89.8,72.3 92.7,66 95.1,59.4 96.9,52.4 " />
<polygon points="96.9,52.4 108.5,55.4 97.3,50.7 " />
<polygon points="108.5,55.4 110.9,58.1 104.1,60.5 " />
<polygon points="96.3,74.8 102.3,77.8 108,80.7 113.4,83.6 118.6,86.2 123.5,88.6 128.2,90.7 132.8,92.6 137.1,94.2 141.2,95.6 145.1,96.7 140.8,109.2 136.5,107.2 132.2,105 127.8,102.5 123.4,99.7 118.8,96.6 114.2,93.3 109.4,89.6 104.7,85.6 99.9,81.2 95.2,76.3 " />
<polygon points="140.8,109.2 145.1,96.7 152.3,99.2 " />
<polygon points="43,114 174,114 174,118 43,118 " />
<polygon points="174,114 150,116 162,104 " />
</g>
</svg>
