<svg xmlns="http://www.w3.org/2000/svg" xmlns:xlink="http://www.w3.org/1999/xlink" version="1.1" baseProfile="full" viewBox="0 0 200 200" width="200" height="200">
<g fill="black">
<polygon points="163.9,25 150.2,26.8 136.4,28.5 122.6,30.1 108.8,31.5 94.9,32.7 81,33.8 67.1,34.7 53.1,35.4 39.1,35.8 25,35.8 24.9,34.1 38.8,32 52.6,30 66.5,28.2 80.2,26.2 94,24.3 107.7,22.2 121.3,20.1 134.9,17.9 148.5,15.6 162,13.2 " />
<polygon points="162,13.2 163.9,25 173.4,23.5 " />
<polygon points="173.4,23.5 173.8,26.5 165.1,21.8 " />
<polygon points="15,56 185,56 185,60 15,60 " />
<polygon points="185,56 161,58 173,46 " />
<polygon points="79.9,77 75.6,78 71.3,78.9 67,79.7 62.6,80.4 58.1,81 53.6,81.5 49.1,81.9 44.4,82.1 39.8,82 35.1,81.8 34.8,80.1 39.3,78.6 43.6,77.1 47.9,75.8 52.1,74.4 56.3,73 60.4,71.6 64.4,70.2 68.4,68.7 72.3,67.2 76.1,65.6 " />
<polygon points="76.1,65.6 79.9,77 85.8,75 " />
<polygon points="85.8,75 86.1,78.1 78,74.4 " />
<polygon points="41,79 41,152 29,158 29,73 " />
<polygon points="35,107 86,107 86,111 35,111 " />
<polygon points="86,107 62,109 74,97 " />
<polygon points="117,79 164,79 164,83 117,83 " />
<polygon points="170,81 170,146 158,152 158,81 " />
<polygon points="158,79 164,74 175,83 170,87 158,81 " />
<polygon points="119,105 164,105 164,109 119,109 " />
<polygon points="35,136 164,136 164,140 35,140 " />
<polygon points="106,28 106,182 94,188 94,28 " />
</g>
</svg>
