<svg xmlns="http://www.w3.org/2000/svg" xmlns:xlink="http://www.w3.org/1999/xlink" version="1.1" baseProfile="full" viewBox="0 0 200 200" width="200" height="200">
<g fill="black">
<polygon points="66,26 66,151 54,157 54,20 " />
<polygon points="60,26 140,26 140,30 60,30 " />
<polygon points="146,28 146,180 134,180 134,28 " />
<polygon points="134,26 140,21 151,30 146,34 134,28 " />
<polygon points="60,71 140,71 140,75 60,75 " />
<polygon points="60,116 140,116 140,120 60,120 " />
<polygon points="106,130 106,180 94,180 94,128 " />
<polygon points="106,130 109,132 106,134 " />
<polygon points="17,176 183,176 183,180 17,180 " />
<polygon points="183,176 159,178 171,166 " />
</g>
</svg>
