<svg xmlns="http://www.w3.org/2000/svg" xmlns:xlink="http://www.w3.org/1999/xlink" version="1.1" baseProfile="full" viewBox="0 0 200 200" width="200" height="200">
<g fill="black">
<polygon points="81.4,38.9 77.6,40.1 73.7,41.4 69.7,42.7 65.6,44.1 61.4,45.6 57.1,47 52.6,48.5 48,50 43.2,51.4 38.3,52.8 37.6,51.1 41.8,48.2 45.9,45.4 50,42.8 54,40.4 58,38 61.9,35.8 65.7,33.7 69.5,31.6 73.1,29.7 76.7,27.8 " />
<polygon points="85.7,37.1 81.4,38.9 75.8,28.2 " />
<polygon points="85.7,37.1 85.9,40.2 79.4,37.5 " />
<polygon points="44,50 44,133 32,139 32,44 " />
<polygon points="34,80 79,80 79,84 34,84 " />
<polygon points="79,80 59,82 69,71 " />
<polygon points="118,46 162,46 162,50 118,50 " />
<polygon points="168,48 168,127 156,133 156,48 " />
<polygon points="156,46 162,41 173,50 168,54 156,48 " />
<polygon points="118,79 162,79 162,83 118,83 " />
<polygon points="38,117 162,117 162,121 38,121 " />
<polygon points="107,15 107,103 95,103 95,13 " />
<polygon points="107,15 110,17 105,20 " />
<polygon points="107,103 104.6,106.6 101,109 97.4,106.6 95,103 " />
<polygon points="106.9,103.1 105.6,114.8 102.7,125.9 98.1,136.3 92,146.1 84.3,155 75.2,163.3 64.7,170.8 52.7,177.6 39.2,183.6 24.3,188.8 23.6,187.1 37.6,180.2 50,172.9 60.9,165.4 70.3,157.6 78.1,149.4 84.3,140.8 89.1,131.9 92.4,122.7 94.4,113 95,102.8 " />
<polygon points="105.9,102.9 107.9,113.1 110.9,122.5 114.9,131.2 120,139.2 126.2,146.6 133.7,153.5 142.4,159.8 152.3,165.6 163.6,171 176.2,175.8 171.7,188.1 158.4,182.4 146.5,175.9 136,168.9 126.9,161.1 119.2,152.8 113,143.8 108.3,134.3 105.2,124.2 103.8,113.8 104.1,103 " />
<polygon points="171.7,188.1 176.2,175.8 183.2,178.3 " />
</g>
</svg>
