<svg xmlns="http://www.w3.org/2000/svg" xmlns:xlink="http://www.w3.org/1999/xlink" version="1.1" baseProfile="full" viewBox="0 0 200 200" width="200" height="200">
<g fill="black">
<polygon points="25.9,23 84.1,23 84.1,27 25.9,27 " />
<polygon points="90.1,25 90.1,76 78.1,82 78.1,25 " />
<polygon points="78.1,23 84.1,18 95.1,27 90.1,31 78.1,25 " />
<polygon points="25.9,44 84.1,44 84.1,48 25.9,48 " />
<polygon points="25.9,66 84.1,66 84.1,70 25.9,70 " />
<polygon points="105.8,23 166.8,23 166.8,27 105.8,27 " />
<polygon points="172.8,25 172.8,76 160.8,82 160.8,25 " />
<polygon points="160.8,23 166.8,18 177.8,27 172.8,31 160.8,25 " />
<polygon points="105.8,44 166.8,44 166.8,48 105.8,48 " />
<polygon points="105.8,66 166.8,66 166.8,70 105.8,70 " />
<polygon points="65.9,82.7 61.5,89.9 56.9,96.9 52.2,103.4 47.3,109.6 42.2,115.4 37,120.8 31.6,125.7 26,130.2 20.2,134.2 14.2,137.7 13.1,136.2 17.8,131.3 22.4,126.3 26.9,121.1 31.4,115.7 35.7,110 39.9,104 43.9,97.7 47.9,91.1 51.7,84.2 55.3,77 " />
<polygon points="54.9,77.9 65.9,82.7 55.9,76 " />
<polygon points="65.9,82.7 67.6,85.8 61.8,86.1 " />
<polygon points="56.3,102 56.3,183 44.3,189 44.3,96 " />
<polygon points="125.9,84.6 123.2,87.1 120.4,89.5 117.6,91.8 114.6,94 111.6,96.1 108.5,98 105.4,99.9 102.1,101.6 98.8,103.1 95.5,104.7 94.5,103.2 97.1,100.7 99.5,98 101.8,95.4 104.2,92.8 106.5,90.2 108.7,87.6 110.8,84.9 112.9,82.2 114.9,79.5 116.9,76.8 " />
<polygon points="116.2,77.5 125.9,84.6 117.3,76.3 " />
<polygon points="125.9,84.6 126.9,88.1 121.1,87.1 " />
<polygon points="109.1,102 109.1,176 97.1,176 97.1,102 " />
<polygon points="50.3,102 168.1,102 168.1,106 50.3,106 " />
<polygon points="168.1,102 144.1,104 156.1,92 " />
<polygon points="50.3,125 165.4,125 165.4,129 50.3,129 " />
<polygon points="165.4,125 145.4,127 155.4,116 " />
<polygon points="50.3,149 165.4,149 165.4,153 50.3,153 " />
<polygon points="165.4,149 145.4,151 155.4,140 " />
<polygon points="50.3,172 183,172 183,176 50.3,176 " />
<polygon points="183,172 159,174 171,162 " />
</g>
</svg>
