<svg xmlns="http://www.w3.org/2000/svg" xmlns:xlink="http://www.w3.org/1999/xlink" version="1.1" baseProfile="full" viewBox="0 0 200 200" width="200" height="200">
<g fill="black">
<polygon points="33,37 167,37 167,41 33,41 " />
<polygon points="167,37 143,39 155,27 " />
<polygon points="111.6,19.2 110.3,23.7 108.9,28.2 107.3,32.8 105.7,37.4 104,42.1 102.1,46.9 100.1,51.7 97.9,56.5 95.5,61.4 92.8,66.2 91.1,65.7 91.9,60.2 92.8,54.9 93.8,49.7 94.8,44.7 95.8,39.8 96.8,35 97.6,30.2 98.4,25.6 99.2,21.1 99.9,16.7 " />
<polygon points="99.9,16.7 111.6,19.2 100.3,14.8 " />
<polygon points="111.6,19.2 114.1,21.8 107.4,24.4 " />
<polygon points="76,64 76,178 64,178 64,58 " />
<polygon points="70,64 140,64 140,68 70,68 " />
<polygon points="146,66 146,178 134,178 134,66 " />
<polygon points="134,64 140,59 151,68 146,72 134,66 " />
<polygon points="70,99 140,99 140,103 70,103 " />
<polygon points="70,134 140,134 140,138 70,138 " />
<polygon points="111,134 111,178 99,178 99,134 " />
<polygon points="46,91 46,178 34,178 34,89 " />
<polygon points="46,91 49,93 46,95 " />
<polygon points="18,174 182,174 182,178 18,178 " />
<polygon points="182,174 158,176 170,164 " />
</g>
</svg>
