<svg xmlns="http://www.w3.org/2000/svg" xmlns:xlink="http://www.w3.org/1999/xlink" version="1.1" baseProfile="full" viewBox="0 0 200 200" width="200" height="200">
<g fill="black">
<polygon points="21,57 182,57 182,61 21,61 " />
<polygon points="182,57 158,59 170,47 " />
<polygon points="87,19 87,48 75,48 75,17 " />
<polygon points="87,19 90,21 85,24 " />
<polygon points="87,48 84.6,51.6 81,54 77.4,51.6 75,48 " />
<polygon points="87,48 86,65.1 83.6,81.6 79.8,97.4 74.6,112.4 68,126.8 60.1,140.4 50.8,153.2 40.1,165.3 28,176.4 14.5,186.7 13.4,185.2 25.4,173.6 36.1,161.7 45.5,149.3 53.6,136.5 60.4,123.1 65.9,109.2 70.1,94.8 73,79.8 74.6,64.2 75,48 " />
<polygon points="102,57 102,162 90,162 90,57 " />
<polygon points="102,162 99.6,165.6 96,168 92.4,165.6 90,162 " />
<polygon points="102,162 102,163.2 102.2,164.1 102.4,164.7 102.5,165 102.7,165.2 102.9,165.4 103.2,165.5 103.8,165.7 104.7,165.9 106,166 106,178 103.4,177.8 100.9,177.4 98.5,176.6 96.2,175.3 94.2,173.7 92.6,171.7 91.3,169.4 90.5,167 90.1,164.5 90,162 " />
<polygon points="106,166 110.2,167.8 112,172 110.2,176.2 106,178 " />
<polygon points="106,166 181,166 181,178 106,178 " />
<polygon points="181,166 184.6,168.4 187,172 184.6,175.6 181,178 " />
<polygon points="175,167 181,141 183,141 181,167 " />
<polygon points="108.2,23.5 112.2,24.8 116.2,26 120,27.5 123.5,29.2 126.9,31.1 130.1,33.1 133.2,35.4 136,37.8 138.7,40.3 141.2,43.1 131.3,49.9 129.9,47.3 128.2,44.8 126.4,42.2 124.4,39.8 122.1,37.3 119.6,34.8 116.9,32.4 114,29.9 110.9,27.4 107.5,25.2 " />
<polygon points="141.2,43.1 142.1,47.6 139.6,51.4 135.2,52.3 131.3,49.9 " />
<polygon points="172.9,76.8 168.3,80 163.5,83.1 158.6,86 153.5,88.8 148.2,91.5 142.7,94.1 137,96.5 131.1,98.7 124.9,100.6 118.6,102.3 117.9,100.6 123.4,97.2 128.8,93.8 134,90.6 139.1,87.4 143.9,84.2 148.6,80.9 153.1,77.6 157.4,74.3 161.5,70.9 165.3,67.5 " />
<polygon points="164.6,68.1 172.9,76.8 165.4,67.4 " />
<polygon points="172.9,76.8 173.2,80.4 167.7,78.4 " />
<polygon points="177.7,102.5 172.8,106 167.6,109.4 162.2,112.5 156.7,115.5 150.9,118.4 144.9,121 138.6,123.4 132.2,125.6 125.5,127.5 118.5,129.1 117.9,127.4 124.1,124 130.1,120.7 135.9,117.5 141.5,114.2 146.8,110.9 151.9,107.5 156.8,104.1 161.5,100.6 165.9,97 170.1,93.3 " />
<polygon points="169.3,93.9 177.7,102.5 170.2,93.2 " />
<polygon points="177.7,102.5 178.1,106.1 172.6,104.2 " />
<polygon points="183.4,128.2 177.4,132.7 171,137 164.3,140.9 157.2,144.5 149.9,147.9 142.2,150.9 134.2,153.5 125.8,155.8 117.1,157.7 108.1,159 107.7,157.3 116.1,154 124.2,150.7 131.9,147.4 139.2,143.9 146.2,140.2 152.8,136.4 159,132.3 164.9,128.1 170.4,123.7 175.5,119.1 " />
<polygon points="174.8,119.8 183.4,128.2 175.7,119 " />
<polygon points="183.4,128.2 183.9,131.8 178.3,130 " />
</g>
</svg>
