<svg xmlns="http://www.w3.org/2000/svg" xmlns:xlink="http://www.w3.org/1999/xlink" version="1.1" baseProfile="full" viewBox="0 0 200 200" width="200" height="200">
<g fill="black">
<polygon points="20,70 184,70 184,74 20,74 " />
<polygon points="184,70 160,72 172,60 " />
<polygon points="105.4,29.7 100.7,43 95.9,56.1 91.1,69.1 86.1,81.8 81.1,94.4 76,106.8 70.7,119 65.3,131 59.7,142.8 53.8,154.3 52.1,153.6 56.2,141.3 60.3,129 64.6,116.6 68.9,104.1 73.1,91.5 77.4,78.7 81.6,65.7 85.8,52.7 89.9,39.4 93.9,26.1 " />
<polygon points="93.9,26.1 105.4,29.7 94.4,24.5 " />
<polygon points="105.4,29.7 107.6,32.6 100.6,34.5 " />
<polygon points="28,151.9 39,150.4 50.4,148.8 62.1,147.2 74.2,145.5 86.7,143.7 99.6,141.9 112.8,140.1 126.4,138.3 140.4,136.6 154.8,135.1 155.1,136.8 141.1,140.4 127.3,143.6 113.9,146.6 100.9,149.4 88.2,152.1 75.8,154.6 63.8,157.1 52.2,159.4 40.9,161.6 29.9,163.7 " />
<polygon points="29.9,163.7 28,151.9 26,152.2 " />
<polygon points="29.9,163.7 32.4,166.3 35.3,159.8 " />
<polygon points="128.3,97.2 134.4,103.4 140.2,109.8 145.6,116.3 150.8,122.8 155.6,129.4 160.2,136.1 164.5,142.7 168.6,149.3 172.5,156 176.1,162.7 165.2,167.8 162.3,161.1 159.2,154.4 155.8,147.7 152.3,140.9 148.5,134 144.5,127.1 140.3,120.1 135.9,113 131.4,105.7 126.9,98.3 " />
<polygon points="176.1,162.7 176.3,167.2 173.2,170.7 168.7,170.8 165.2,167.8 " />
</g>
</svg>
