<svg xmlns="http://www.w3.org/2000/svg" xmlns:xlink="http://www.w3.org/1999/xlink" version="1.1" baseProfile="full" viewBox="0 0 200 200" width="200" height="200">
<g fill="black">
<polygon points="29.7,26.8 155.1,26.8 155.1,30.8 29.7,30.8 " />
<polygon points="158.9,33.4 153.8,37.1 148.6,40.9 143.2,44.7 137.7,48.6 131.9,52.4 126.1,56.2 120,60 113.7,63.8 107.2,67.4 100.5,70.9 99.4,69.4 105.1,64.3 110.6,59.4 116.1,54.7 121.6,50.1 126.9,45.6 132,41.2 137,36.8 141.9,32.5 146.6,28.3 151.2,24.1 " />
<polygon points="149.1,26.8 155.1,21.8 166.1,30.8 161.1,33.8 149.1,38.8 " />
<polygon points="106,67.6 106,152.9 94,152.9 94,65.6 " />
<polygon points="106,67.6 109,69.6 104,72.6 " />
<polygon points="106,152.9 103.6,156.5 100,158.9 96.4,156.5 94,152.9 " />
<polygon points="106,152.9 105.8,155.4 105.4,157.9 104.6,160.3 103.3,162.6 101.7,164.6 99.7,166.2 97.4,167.5 95,168.3 92.5,168.7 90,168.9 90,156.9 91.2,156.8 92.1,156.6 92.7,156.4 93,156.3 93.2,156.1 93.4,155.9 93.5,155.6 93.7,155 93.9,154.1 94,152.9 " />
<polygon points="90,162.9 90,156.9 70,156.9 70,159.9 " />
<polygon points="38.2,74.1 38.2,146.8 26.2,152.8 26.2,68.1 " />
<polygon points="32.2,74.1 71.7,74.1 71.7,78.1 32.2,78.1 " />
<polygon points="77.7,76.1 77.7,140.8 65.7,146.8 65.7,76.1 " />
<polygon points="65.7,74.1 71.7,69.1 82.7,78.1 77.7,82.1 65.7,76.1 " />
<polygon points="32.2,130.8 71.7,130.8 71.7,134.8 32.2,134.8 " />
<polygon points="119,73 169,73 169,77 119,77 " />
<polygon points="174.9,75.8 172.5,86.8 169.2,97.2 165.2,107 160.2,116.2 154.5,124.8 147.9,132.8 140.5,140.1 132.3,146.8 123.2,152.6 113.4,157.7 112.5,156.2 121.1,149.5 128.8,142.6 135.8,135.5 142,128 147.4,120.1 152.1,111.7 155.9,103 159.1,93.8 161.4,84.2 163,74.1 " />
<polygon points="163,73 169,68 180,77 175,80 163,85 " />
<polygon points="125.1,82.6 129.7,91 134.4,99 139.2,106.6 144.2,113.6 149.5,120.1 155.1,126.1 160.9,131.6 167.1,136.7 173.6,141.2 180.4,145.3 173.5,156.6 166.3,151.4 159.5,145.7 153.3,139.6 147.4,132.9 142.1,125.8 137.2,118.2 132.9,110.2 129.1,101.7 125.9,92.7 123.4,83.2 " />
<polygon points="173.5,156.6 180.4,145.3 184.6,147.9 " />
<polygon points="18,177 182,177 182,181 18,181 " />
<polygon points="182,177 158,179 170,167 " />
</g>
</svg>
