<svg xmlns="http://www.w3.org/2000/svg" xmlns:xlink="http://www.w3.org/1999/xlink" version="1.1" baseProfile="full" viewBox="0 0 200 200" width="200" height="200">
<g fill="black">
<polygon points="39,58 39,179 27,185 27,52 " />
<polygon points="33,58 171,58 171,62 33,62 " />
<polygon points="177,60 177,169 165,169 165,60 " />
<polygon points="165,58 171,53 182,62 177,66 165,60 " />
<polygon points="177,169 174.6,172.6 171,175 167.4,172.6 165,169 " />
<polygon points="177,169 176.8,171.5 176.4,174 175.6,176.4 174.3,178.7 172.7,180.7 170.7,182.3 168.4,183.6 166,184.4 163.5,184.8 161,185 161,173 162.2,172.9 163.1,172.7 163.7,172.5 164,172.4 164.2,172.2 164.4,172 164.5,171.7 164.7,171.1 164.9,170.2 165,169 " />
<polygon points="161,179 161,173 141,173 141,176 " />
<polygon points="107,18 107,117 95,117 95,16 " />
<polygon points="107,18 110,20 107,22 " />
<polygon points="48.1,121.9 57.4,120.8 66.8,119.7 76.3,118.6 86,117.5 95.8,116.5 105.7,115.4 115.8,114.4 126,113.5 136.3,112.7 146.8,112.1 147.1,113.8 136.9,116.4 126.8,118.8 116.8,120.9 106.9,122.9 97.1,124.9 87.4,126.7 77.8,128.6 68.4,130.3 59,132.1 49.8,133.7 " />
<polygon points="49.8,133.7 48.1,121.9 46.1,122.2 " />
<polygon points="49.8,133.7 52.2,136.4 55.3,129.9 " />
<polygon points="132.3,84.2 136.5,88.6 140.2,93.2 143.6,98 146.6,103 149.2,108.1 151.5,113.3 153.6,118.7 155.2,124.2 156.6,129.7 157.6,135.4 145.7,136.6 145.3,131.5 144.7,126.4 143.9,121.3 142.7,116.3 141.3,111.2 139.7,106.1 137.7,101 135.6,95.9 133.3,90.7 130.8,85.3 " />
<polygon points="157.6,135.4 156.2,139.7 152.2,141.9 147.9,140.6 145.7,136.6 " />
</g>
</svg>
