<svg xmlns="http://www.w3.org/2000/svg" xmlns:xlink="http://www.w3.org/1999/xlink" version="1.1" baseProfile="full" viewBox="0 0 200 200" width="200" height="200">
<g fill="black">
<polygon points="52,28.5 52,99.1 40,105.1 40,22.5 " />
<polygon points="46,28.5 151.9,28.5 151.9,32.5 46,32.5 " />
<polygon points="157.9,30.5 157.9,93.1 145.9,99.1 145.9,30.5 " />
<polygon points="145.9,28.5 151.9,23.5 162.9,32.5 157.9,36.5 145.9,30.5 " />
<polygon points="105,28.5 105,87.1 93,87.1 93,28.5 " />
<polygon points="46,55.4 151.9,55.4 151.9,59.4 46,59.4 " />
<polygon points="46,83.1 151.9,83.1 151.9,87.1 46,87.1 " />
<polygon points="108,114 171,114 171,118 108,118 " />
<polygon points="171,114 147,116 159,104 " />
<polygon points="71,95 71,151 59,151 59,93 " />
<polygon points="71,95 74,97 71,99 " />
<polygon points="138,95 138,151 126,151 126,93 " />
<polygon points="138,95 141,97 138,99 " />
<polygon points="16,147 182,147 182,151 16,151 " />
<polygon points="182,147 158,149 170,137 " />
<polygon points="83.9,165.3 79.6,168.1 75.1,170.8 70.2,173.4 65,175.9 59.4,178.4 53.5,180.8 47.3,183 40.7,185.2 33.7,187.1 26.3,188.8 25.6,187.1 32.3,183.6 38.6,180.2 44.6,177 50.3,173.9 55.6,170.8 60.5,167.8 65.1,164.8 69.2,161.8 73,158.8 76.4,155.9 " />
<polygon points="76.4,155.9 83.9,165.3 76.5,155.8 " />
<polygon points="83.9,165.3 84.2,168.9 77.3,166.6 " />
<polygon points="115.1,158.3 120.6,158.6 125.9,159.4 131.1,160.6 136.1,162.1 141.1,164 145.9,166.1 150.5,168.5 155.1,171.3 159.5,174.2 163.8,177.5 155.7,186.4 152.3,183.1 148.8,179.9 145.1,177 141.2,174.2 137.2,171.5 133,169.1 128.7,166.7 124.2,164.5 119.6,162.3 114.7,160 " />
<polygon points="163.8,177.5 165.7,181.6 164.2,186 160,187.9 155.7,186.4 " />
<polygon points="30,115 95,115 95,119 30,119 " />
<polygon points="95,115 75,117 85,106 " />
</g>
</svg>
