<svg xmlns="http://www.w3.org/2000/svg" xmlns:xlink="http://www.w3.org/1999/xlink" version="1.1" baseProfile="full" viewBox="0 0 200 200" width="200" height="200">
<g fill="black">
<polygon points="99.3,19.3 97,21.4 94.6,23.6 92.2,25.6 89.7,27.6 87,29.4 84.3,31.3 81.5,33 78.5,34.6 75.4,36 72.5,37.7 71.4,36.2 73.8,33.9 75.9,31.3 77.9,28.8 79.9,26.3 81.8,23.9 83.6,21.5 85.3,19.1 86.9,16.7 88.4,14.3 89.8,11.9 " />
<polygon points="90.2,11.3 99.3,19.3 89.2,12.7 " />
<polygon points="99.3,19.3 100.4,22.7 94.6,22 " />
<polygon points="50,34.9 50,112.7 38,118.7 38,28.9 " />
<polygon points="44,34.9 156,34.9 156,38.9 44,38.9 " />
<polygon points="162,36.9 162,112.7 150,118.7 150,36.9 " />
<polygon points="150,34.9 156,29.9 167,38.9 162,42.9 150,36.9 " />
<polygon points="61.5,45.1 64.8,46.4 68.1,47.4 71.2,48.6 74,49.8 76.6,51.1 79,52.6 81.2,54.1 83.2,55.8 84.9,57.8 86.4,59.9 75.3,64.4 75.2,63.3 74.9,61.9 74.2,60.4 73.2,58.7 71.9,56.9 70.3,54.9 68.4,52.9 66.2,50.8 63.7,48.6 60.7,46.7 " />
<polygon points="86.4,59.9 86.4,64.4 83.2,67.7 78.6,67.6 75.3,64.4 " />
<polygon points="138.6,50.1 136.5,51.8 134.4,53.5 132.1,55.3 129.6,57 127.1,58.9 124.3,60.7 121.4,62.6 118.3,64.5 115,66.3 111.7,68.5 110.6,67.1 113.2,64.3 115.5,61.3 117.7,58.5 119.8,55.8 121.8,53.3 123.6,50.9 125.3,48.6 126.9,46.4 128.2,44.3 129.5,42.3 " />
<polygon points="129.9,41.8 138.6,50.1 128.8,43 " />
<polygon points="138.6,50.1 139.5,53.6 133.8,52.6 " />
<polygon points="54,69.4 145.9,69.4 145.9,73.4 54,73.4 " />
<polygon points="145.9,69.4 121.9,71.4 133.9,59.4 " />
<polygon points="106,44 106,107.4 94,113.4 94,42 " />
<polygon points="106,44 109,46 104,49 " />
<polygon points="104.1,71.4 101.6,74.7 98.5,78.6 95.1,82.3 91.4,85.9 87.4,89.4 83.1,92.6 78.4,95.7 73.5,98.7 68.3,101.4 62.7,103.8 56.7,105.9 55.9,104.3 60.8,100.5 65.4,96.8 69.8,93.2 73.9,89.7 77.6,86.1 81.1,82.6 84.2,79 86.9,75.4 89.4,71.8 89.5,71.4 " />
<polygon points="102.9,76.1 108.3,77.3 113.4,78.5 118.2,79.9 122.6,81.7 126.8,83.6 130.6,85.7 134.1,88.1 137.3,90.7 140.2,93.5 142.7,96.6 132.5,102.8 131.2,100.4 129.6,97.9 127.6,95.4 125.2,92.9 122.4,90.4 119.2,87.9 115.5,85.4 111.5,82.9 107.1,80.3 102.3,77.9 " />
<polygon points="142.7,96.6 143.4,101.1 140.7,104.8 136.2,105.5 132.5,102.8 " />
<polygon points="18,123.7 182,123.7 182,127.7 18,127.7 " />
<polygon points="182,123.7 158,125.7 170,113.7 " />
<polygon points="76.3,125.7 67,152.9 53.7,154.7 63.6,125.7 " />
<polygon points="63,144.2 142,144.2 142,148.2 63,148.2 " />
<polygon points="147.9,146.4 147.6,152.7 146.8,158.5 145.6,163.9 144,168.7 141.9,173.2 139.3,177.1 136.1,180.4 132.5,183.2 128.3,185.1 123.9,186.3 121.7,174.5 124.2,173.9 126.3,172.9 128.1,171.5 129.9,169.7 131.4,167.3 132.8,164.3 134,160.7 135,156.4 135.6,151.6 136,146 " />
<polygon points="136,144.2 142,139.2 153,148.2 148,151.2 136,156.2 " />
<polygon points="123.9,186.3 119.4,185.3 116.9,181.5 117.9,177.1 121.7,174.5 " />
<polygon points="123.9,186.3 121.8,186.7 119.7,187 117.6,187.3 115.5,187.6 113.5,187.8 111.4,187.9 109.3,188.1 107.2,188.2 105.1,188.2 103,188.3 103,176.3 104.8,176.2 106.7,176.2 108.6,176.1 110.5,176 112.4,175.8 114.2,175.6 116.1,175.4 118,175.2 119.8,174.9 121.7,174.5 " />
<polygon points="83,179.3 83,176.3 103,176.3 103,182.3 " />
</g>
</svg>
