<svg xmlns="http://www.w3.org/2000/svg" xmlns:xlink="http://www.w3.org/1999/xlink" version="1.1" baseProfile="full" viewBox="0 0 200 200" width="200" height="200">
<g fill="black">
<polygon points="107.7,21.8 101.8,24.2 95.8,26.7 89.7,29.1 83.5,31.4 77.1,33.7 70.7,36 64.1,38.1 57.3,40.2 50.4,42.1 43.3,43.8 42.6,42.1 49,38.6 55.3,35.2 61.6,32.1 67.7,29 73.8,25.9 79.8,22.9 85.6,19.9 91.3,16.9 96.9,13.9 102.4,11 " />
<polygon points="102.4,11 107.7,21.8 110.9,20.2 " />
<polygon points="110.9,20.2 111.1,23.5 103.6,20.4 " />
<polygon points="159.7,21.8 153.8,24.2 147.8,26.7 141.7,29.1 135.5,31.4 129.1,33.7 122.7,36 116.1,38.1 109.3,40.2 102.4,42.1 95.3,43.8 94.6,42.1 101,38.6 107.3,35.2 113.6,32.1 119.7,29 125.8,25.9 131.8,22.9 137.6,19.9 143.3,16.9 148.9,13.9 154.4,11 " />
<polygon points="154.4,11 159.7,21.8 162.9,20.2 " />
<polygon points="162.9,20.2 163.1,23.5 155.6,20.4 " />
<polygon points="31,51 179,51 179,55 31,55 " />
<polygon points="179,51 155,53 167,41 " />
<polygon points="41,74 151,74 151,78 41,78 " />
<polygon points="157,76 157,138 145,144 145,76 " />
<polygon points="145,74 151,69 162,78 157,82 145,76 " />
<polygon points="16,102 186,102 186,106 16,106 " />
<polygon points="186,102 162,104 174,92 " />
<polygon points="41,128 151,128 151,132 41,132 " />
<polygon points="86,35 86,184 74,190 74,33 " />
<polygon points="86,35 89,37 86,39 " />
<polygon points="126,35 126,184 114,190 114,33 " />
<polygon points="126,35 129,37 126,39 " />
<polygon points="82.2,134.9 77.3,142.3 72.1,149.2 66.6,155.6 60.6,161.6 54.3,167.1 47.6,172.1 40.6,176.7 33.2,180.7 25.4,184 17.3,186.8 16.6,185.1 23.7,180.7 30.5,176 36.9,171.2 42.9,166.2 48.6,160.8 53.9,155.1 58.9,149.1 63.5,142.7 67.8,136 71.7,129 " />
<polygon points="125.2,130.5 129.1,135.9 133.2,141 137.5,145.8 142,150.3 146.9,154.5 152.2,158.3 157.9,161.9 164,165.2 170.5,168.1 177.4,170.8 172.5,183.1 165.1,179.4 158.2,175.4 151.8,171.1 146,166.4 140.7,161.4 135.9,156 131.8,150.3 128.3,144.3 125.5,137.9 123.5,131.2 " />
<polygon points="172.5,183.1 177.4,170.8 183.9,173.5 " />
</g>
</svg>
