<svg xmlns="http://www.w3.org/2000/svg" xmlns:xlink="http://www.w3.org/1999/xlink" version="1.1" baseProfile="full" viewBox="0 0 200 200" width="200" height="200">
<g fill="black">
<polygon points="20,32 178,32 178,36 20,36 " />
<polygon points="178,32 154,34 166,22 " />
<polygon points="78.2,32.9 60.7,144.7 47.9,148.8 66.3,31 " />
<polygon points="65,70 142,70 142,74 65,74 " />
<polygon points="147.9,72.6 135.7,179.6 123.8,178.3 136,71.3 " />
<polygon points="136,70 142,65 153,74 148,78 136,72 " />
<polygon points="57,128 134,128 134,132 57,132 " />
<polygon points="18,175 185,175 185,179 18,179 " />
<polygon points="185,175 161,177 173,165 " />
<polygon points="83.3,83.6 87.5,85.3 91.6,87 95.4,88.9 99,91.2 102.2,93.6 105.3,96.3 108,99.1 110.5,102.2 112.7,105.5 114.5,109.1 103.3,113.2 102.5,110.4 101.4,107.5 100.1,104.7 98.5,101.9 96.6,99.1 94.4,96.3 91.9,93.5 89,90.7 86,87.9 82.4,85.2 " />
<polygon points="114.5,109.1 114.3,113.6 111,116.8 106.4,116.5 103.3,113.2 " />
</g>
</svg>
