<svg xmlns="http://www.w3.org/2000/svg" xmlns:xlink="http://www.w3.org/1999/xlink" version="1.1" baseProfile="full" viewBox="0 0 200 200" width="200" height="200">
<g fill="black">
<polygon points="78.5,23 75.8,26.6 72.9,30.3 69.8,33.9 66.6,37.6 63.1,41.3 59.5,45 55.7,48.8 51.6,52.5 47.3,56.1 42.6,59.6 41.3,58.3 44.5,53.5 47.6,48.9 50.7,44.5 53.7,40.2 56.5,36 59.2,31.9 61.7,28 64.1,24.1 66.3,20.3 68.3,16.6 " />
<polygon points="68.3,16.6 78.5,23 68.9,15.8 " />
<polygon points="78.5,23 80,26.3 72.7,26.5 " />
<polygon points="41.6,57.3 140.9,57.3 140.9,61.3 41.6,61.3 " />
<polygon points="145,63.8 62.9,138.8 54.8,129.9 136.9,54.9 " />
<polygon points="134.9,57.3 140.9,52.3 151.9,61.3 146.9,65.3 134.9,59.3 " />
<polygon points="62.9,138.8 55.4,146.1 50.1,152.4 47.1,157.5 46,160.9 46.2,162.5 47.2,163.9 50.3,165.7 55.9,167.3 64.1,168.4 74.5,168.8 74.5,180.8 63.1,180.4 53.5,179.1 45.6,176.7 39.2,172.8 35,166.9 34.1,159.6 36.2,152.5 40.4,145.4 46.6,138 54.8,129.9 " />
<polygon points="74.5,168.8 78.7,170.6 80.5,174.8 78.7,179 74.5,180.8 " />
<polygon points="74.5,168.8 167,168.8 167,180.8 74.5,180.8 " />
<polygon points="167,168.8 170.6,171.2 173,174.8 170.6,178.4 167,180.8 " />
<polygon points="161,169.8 167,143.8 169,143.8 167,169.8 " />
</g>
</svg>
