<svg xmlns="http://www.w3.org/2000/svg" xmlns:xlink="http://www.w3.org/1999/xlink" version="1.1" baseProfile="full" viewBox="0 0 200 200" width="200" height="200">
<g fill="black">
<polygon points="136.2,16.4 139.4,17 142.7,17.8 146,18.9 149.2,20.5 152.2,22.5 155.2,24.9 158.1,27.5 160.8,30.6 163.4,33.9 165.9,37.5 155.2,43.1 153.8,39.6 152.2,36.4 150.5,33.5 148.8,30.7 146.9,28.2 145,25.8 142.9,23.6 140.7,21.6 138.3,19.6 135.6,18.1 " />
<polygon points="165.9,37.5 166.2,42.1 163.3,45.6 158.8,46 155.2,43.1 " />
<polygon points="19.8,56 181,56 181,60 19.8,60 " />
<polygon points="181,56 157,58 169,46 " />
<polygon points="119.4,17 119.4,77 107.4,77 107.4,15 " />
<polygon points="119.4,17 122.4,19 119.4,21 " />
<polygon points="119.4,77 117,80.6 113.4,83 109.8,80.6 107.4,77 " />
<polygon points="119.4,77 118.1,94.9 114.9,111.4 109.8,126.5 102.7,140.1 93.8,152.2 82.9,162.6 70.3,171.4 55.9,178.6 39.8,184.1 22,187.8 21.6,186.1 38.6,180.4 53.7,173.7 66.7,165.9 77.9,156.9 87.2,146.7 94.7,135.4 100.5,122.8 104.5,108.9 106.8,93.6 107.4,77 " />
<polygon points="46.1,99.5 48.3,98.2 50.6,96.6 53.1,94.7 55.5,92.4 58.1,89.7 60.7,86.8 63.3,83.4 66.1,79.8 69,75.9 71.8,71.6 73.4,72.3 71.8,77.3 70.2,82 68.5,86.5 66.6,90.6 64.6,94.4 62.5,97.9 60.3,101.2 58,104.2 55.5,106.9 52.9,109.3 " />
<polygon points="52.9,109.3 46.1,99.5 44.5,100.6 " />
<polygon points="52.9,109.3 56.3,110.6 56.2,103.4 " />
<polygon points="67.7,82.8 72.4,99.2 78.3,113.7 85.6,126.5 94.4,137.5 104.5,146.9 116.1,154.7 129.2,160.9 144,165.6 160.4,168.7 178.5,170.4 177.6,183.5 158.4,181.1 140.8,177 124.9,171.1 110.8,163.4 98.5,154 88,142.9 79.5,130.3 72.9,116 68.3,100.3 65.9,83.1 " />
<polygon points="177.6,183.5 178.5,170.4 189.5,171 " />
</g>
</svg>
