<svg xmlns="http://www.w3.org/2000/svg" xmlns:xlink="http://www.w3.org/1999/xlink" version="1.1" baseProfile="full" viewBox="0 0 200 200" width="200" height="200">
<g fill="black">
<polygon points="78.4,43.7 74.4,54.2 70,64.2 65.1,73.9 59.8,83.2 54,92.2 47.7,100.8 40.9,108.9 33.7,116.7 25.9,123.9 17.6,130.6 16.3,129.3 23.2,121.3 29.6,113.1 35.8,104.9 41.5,96.4 46.8,87.7 51.7,78.7 56.1,69.5 60.2,59.9 63.8,50.2 66.9,40.1 " />
<polygon points="66.9,40.1 78.4,43.7 67.4,38.5 " />
<polygon points="78.4,43.7 80.6,46.6 73.7,48.5 " />
<polygon points="51,86 181,86 181,90 51,90 " />
<polygon points="181,86 157,88 169,76 " />
</g>
</svg>
