<svg xmlns="http://www.w3.org/2000/svg" xmlns:xlink="http://www.w3.org/1999/xlink" version="1.1" baseProfile="full" viewBox="0 0 200 200" width="200" height="200">
<g fill="black">
<polygon points="78.1,21.3 74.2,29.5 69.7,37.4 64.8,45 59.5,52.3 53.7,59.3 47.4,66 40.6,72.3 33.4,78.2 25.7,83.7 17.5,88.7 16.4,87.3 23.3,80.7 29.9,74.2 36,67.6 41.8,60.9 47.1,54 51.9,46.9 56.3,39.7 60.3,32.2 63.9,24.6 67,16.8 " />
<polygon points="67.6,15.5 78.1,21.3 66.6,17.7 " />
<polygon points="78.1,21.3 80.1,24.3 74.4,25.2 " />
<polygon points="51,53 181,53 181,57 51,57 " />
<polygon points="181,53 157,55 169,43 " />
</g>
</svg>
