<svg xmlns="http://www.w3.org/2000/svg" xmlns:xlink="http://www.w3.org/1999/xlink" version="1.1" baseProfile="full" viewBox="0 0 200 200" width="200" height="200">
<g fill="black">
<polygon points="48,91 48,136 36,136 36,85 " />
<polygon points="48,136 45.6,139.6 42,142 38.4,139.6 36,136 " />
<polygon points="48,136 47.3,143.6 46,150.8 44.1,157.4 41.4,163.6 38.1,169.1 34.1,174.1 29.5,178.4 24.3,181.9 18.6,184.8 12.3,186.8 11.6,185.1 16.7,181.5 21.2,177.6 25,173.6 28.2,169.3 30.8,164.8 32.9,159.8 34.4,154.5 35.5,148.8 36,142.6 36,136 " />
<polygon points="42,91 152,91 152,95 42,95 " />
<polygon points="158,94 158,93 158.1,109.4 158.7,124 159.8,136.9 161.3,148 163.4,157.2 165.9,164.5 168.8,169.8 171.9,173.2 175.2,175.2 179.2,176 178.7,187.9 171,186.4 164.3,182.5 158.9,176.7 154.9,169.3 151.8,160.4 149.5,150.1 147.8,138.2 146.8,124.7 146.1,109.7 146,93 " />
<polygon points="146,91 152,86 163,95 158,98 146,103 " />
<polygon points="179.2,176 183.3,178 184.9,182.2 182.9,186.3 178.7,187.9 " />
<polygon points="179,177 181,151 179,151 173,177 " />
<polygon points="42,116 152,116 152,120 42,120 " />
<polygon points="42,141 153,141 153,145 42,145 " />
<polygon points="103,91 103,177 91,183 91,91 " />
</g>
</svg>
