<svg xmlns="http://www.w3.org/2000/svg" xmlns:xlink="http://www.w3.org/1999/xlink" version="1.1" baseProfile="full" viewBox="0 0 200 200" width="200" height="200">
<g fill="black">
<polygon points="76,34 76,84 64,84 64,32 " />
<polygon points="76,34 79,36 76,38 " />
<polygon points="76,84 73.6,87.6 70,90 66.4,87.6 64,84 " />
<polygon points="75.9,83.5 76,98.1 74.6,111.8 71.9,124.8 67.7,136.8 62.2,148 55.3,158.2 47,167.4 37.4,175.6 26.5,182.7 14.4,188.7 13.5,187.2 24.4,179.6 34,171.5 42.2,162.9 49.1,153.7 54.7,143.9 59,133.5 62.1,122.3 64,110.5 64.6,97.8 64,84.4 " />
<polygon points="58,20 127,20 127,24 58,24 " />
<polygon points="133,22 133,166 121,166 121,22 " />
<polygon points="121,20 127,15 138,24 133,28 121,22 " />
<polygon points="133,166 130.6,169.6 127,172 123.4,169.6 121,166 " />
<polygon points="133,166 133,167.2 133.2,168.1 133.4,168.7 133.5,169 133.7,169.2 133.9,169.4 134.2,169.5 134.8,169.7 135.7,169.9 137,170 137,182 134.4,181.8 131.9,181.4 129.5,180.6 127.2,179.3 125.2,177.7 123.6,175.7 122.3,173.4 121.5,171 121.1,168.5 121,166 " />
<polygon points="137,170 141.2,171.8 143,176 141.2,180.2 137,182 " />
<polygon points="137,170 178,170 178,182 137,182 " />
<polygon points="178,170 181.6,172.4 184,176 181.6,179.6 178,182 " />
<polygon points="172,171 178,145 180,145 178,171 " />
<polygon points="82.3,115.6 86.7,117.5 90.9,119.3 94.9,121.5 98.5,123.8 101.8,126.4 104.9,129.1 107.6,132.1 110,135.3 112,138.7 113.8,142.3 102.3,145.9 101.7,143.1 100.8,140.3 99.5,137.5 98,134.7 96.1,131.8 93.8,129 91.2,126.1 88.3,123.1 85.1,120.1 81.4,117.2 " />
<polygon points="113.8,142.3 113.3,146.8 109.9,149.8 105.3,149.4 102.3,145.9 " />
</g>
</svg>
