<svg xmlns="http://www.w3.org/2000/svg" xmlns:xlink="http://www.w3.org/1999/xlink" version="1.1" baseProfile="full" viewBox="0 0 200 200" width="200" height="200">
<g fill="black">
<polygon points="21,65 184,65 184,69 21,69 " />
<polygon points="184,65 160,67 172,55 " />
<polygon points="112.8,14.6 109.1,40.2 104.2,64 98,86.1 90.6,106.4 82,124.8 72.1,141.5 61,156.3 48.7,169.1 35.1,180 20.4,188.7 19.5,187.2 32.8,177 44.9,165.3 55.9,152.2 65.7,137.4 74.4,121.1 81.9,103 88.4,83.2 93.7,61.6 97.9,38.4 100.9,13.3 " />
<polygon points="100.9,13.3 112.8,14.6 101.1,11.2 " />
<polygon points="112.8,14.6 115.6,16.9 109.2,20.2 " />
</g>
</svg>
