<svg xmlns="http://www.w3.org/2000/svg" xmlns:xlink="http://www.w3.org/1999/xlink" version="1.1" baseProfile="full" viewBox="0 0 200 200" width="200" height="200">
<g fill="black">
<polygon points="56,23 56,181 44,187 44,21 " />
<polygon points="56,23 59,25 56,27 " />
<polygon points="106,23 106,174 94,174 94,21 " />
<polygon points="106,23 109,25 106,27 " />
<polygon points="156,23 156,174 144,174 144,21 " />
<polygon points="156,23 159,25 156,27 " />
<polygon points="19,73 186,73 186,77 19,77 " />
<polygon points="186,73 162,75 174,63 " />
<polygon points="50,170 182,170 182,174 50,174 " />
<polygon points="182,170 158,172 170,160 " />
</g>
</svg>
