<svg xmlns="http://www.w3.org/2000/svg" xmlns:xlink="http://www.w3.org/1999/xlink" version="1.1" baseProfile="full" viewBox="0 0 200 200" width="200" height="200">
<g fill="black">
<polygon points="26,21 167,21 167,25 26,25 " />
<polygon points="173,23 173,106 161,112 161,23 " />
<polygon points="161,21 167,16 178,25 173,29 161,23 " />
<polygon points="35,96 167,96 167,100 35,100 " />
<polygon points="41,96 41,184 29,190 29,90 " />
<polygon points="35,177 177,177 177,181 35,181 " />
<polygon points="177,177 153,179 165,167 " />
<polygon points="44,41 136,41 136,45 44,45 " />
<polygon points="142,43 142,80 130,86 130,43 " />
<polygon points="130,41 136,36 147,45 142,49 130,43 " />
<polygon points="44,74 136,74 136,78 44,78 " />
<polygon points="65,121 156,121 156,125 65,125 " />
<polygon points="156,121 132,123 144,111 " />
<polygon points="71,121 71,161 59,167 59,115 " />
<polygon points="65,154 156,154 156,158 65,158 " />
<polygon points="156,154 132,156 144,144 " />
</g>
</svg>
