<svg xmlns="http://www.w3.org/2000/svg" xmlns:xlink="http://www.w3.org/1999/xlink" version="1.1" baseProfile="full" viewBox="0 0 200 200" width="200" height="200">
<g fill="black">
<polygon points="105.8,25.9 97.2,28.2 88.4,30.2 79.5,31.9 70.4,33.3 61.3,34.4 52,35.2 42.6,35.6 33.1,35.7 23.4,35.3 13.7,34.5 13.7,32.7 23.3,31.5 32.8,30.3 42,29.1 51.1,27.6 60,26 68.8,24.2 77.4,22.1 85.8,19.8 94.1,17.2 102.2,14.5 " />
<polygon points="112,23.9 105.8,25.9 101.2,14.8 " />
<polygon points="112,23.9 112.2,27 105.4,23.9 " />
<polygon points="23.2,38.9 25.4,40.5 27.9,41.8 30.1,43.4 32.2,45 34.2,46.8 36,48.8 37.7,50.8 39.3,53 40.6,55.2 41.8,57.6 30.2,60.8 30.1,58.9 29.8,57 29.4,55 28.9,53 28.2,51 27.3,48.9 26.3,46.7 25.1,44.5 23.8,42.2 22,40.2 " />
<polygon points="41.8,57.6 41.2,62.2 37.6,65 33.1,64.4 30.2,60.8 " />
<polygon points="55.7,36.6 57.2,38 59,39 60.7,40.3 62.4,41.6 63.9,43.1 65.4,44.7 66.8,46.4 68.1,48.2 69.3,50.1 70.5,52.2 59,55.6 58.9,53.8 58.7,52 58.4,50.3 58.1,48.5 57.8,46.7 57.3,44.9 56.8,43.1 56.2,41.3 55.5,39.4 54.4,37.9 " />
<polygon points="70.5,52.2 69.9,56.7 66.4,59.6 61.9,59.1 59,55.6 " />
<polygon points="104.1,39.9 102.6,43.3 100.9,46.5 99.2,49.7 97.3,52.7 95.3,55.5 93.2,58.2 91,60.8 88.6,63.1 86.1,65.3 83.8,67.4 82.4,66.3 83.9,63.6 85.1,60.7 86.3,57.8 87.4,54.9 88.5,51.9 89.5,48.9 90.4,45.8 91.2,42.7 92,39.5 92.7,36.3 " />
<polygon points="93.2,34.7 104.1,39.9 92.4,37.2 " />
<polygon points="104.1,39.9 106.4,42.7 100.7,44 " />
<polygon points="65.3,66.4 63,69.7 60.6,72.9 58.1,76 55.5,79 52.8,81.9 50,84.6 47.1,87.2 44,89.6 40.8,91.7 37.6,93.9 36.3,92.6 38.6,89.6 40.7,86.4 42.7,83.3 44.7,80.2 46.6,77 48.4,73.9 50.1,70.6 51.7,67.4 53.2,64.1 54.7,60.7 " />
<polygon points="55.2,59.7 65.3,66.4 54.2,61.6 " />
<polygon points="65.3,66.4 67,69.5 61.2,69.8 " />
<polygon points="21.7,84.2 26.1,85.8 30.3,87.2 34.2,88.8 38,90.5 41.5,92.3 44.8,94.1 47.9,96.1 50.8,98.1 53.5,100.2 56.1,102.4 47,110.2 45.5,108 43.7,105.8 41.7,103.5 39.5,101.1 37,98.7 34.2,96.3 31.2,93.7 28.1,91.1 24.7,88.4 20.9,85.8 " />
<polygon points="56.1,102.4 57.4,106.7 55.4,110.8 51.1,112.2 47,110.2 " />
<polygon points="89.8,85.5 85.3,91.9 80.6,98.1 75.7,104.1 70.5,109.8 65,115.4 59.3,120.6 53.4,125.7 47.1,130.4 40.6,134.8 33.7,138.9 32.6,137.4 38.2,131.9 43.6,126.4 48.9,120.9 53.9,115.3 58.8,109.6 63.4,103.8 67.8,97.9 72,91.8 75.9,85.6 79.6,79.2 " />
<polygon points="80.1,78.4 89.8,85.5 79.1,80.1 " />
<polygon points="89.8,85.5 91.3,88.8 85.5,88.7 " />
<polygon points="15.4,134.6 24.1,133.5 32.6,132.5 41.1,131.6 49.4,130.7 57.5,129.8 65.6,129.1 73.5,128.4 81.3,127.9 88.9,127.6 96.5,127.6 96.8,129.3 89.5,131.4 82,133.2 74.4,134.9 66.7,136.6 58.8,138.2 50.8,139.8 42.6,141.5 34.3,143.1 25.9,144.8 17.3,146.5 " />
<polygon points="13.4,134.9 15.4,134.6 17.3,146.5 " />
<polygon points="22.8,142.5 19.8,149.1 17.3,146.5 " />
<polygon points="82.7,109.1 86.2,111.7 89.7,114.4 92.9,117.2 95.9,120.1 98.7,123.2 101.4,126.4 103.9,129.7 106.2,133.1 108.4,136.6 110.5,140.1 99.5,144.9 98.3,141.5 97,138.1 95.5,134.6 93.9,131.2 92.1,127.8 90.2,124.4 88.2,121 86.1,117.5 83.9,113.9 81.5,110.4 " />
<polygon points="110.5,140.1 110.5,144.7 107.4,148 102.8,148.1 99.5,144.9 " />
<polygon points="28.6,149.6 28.9,154.5 29.3,159.1 29.3,163.4 29.1,167.5 28.7,171.3 27.9,174.8 26.9,178.2 25.6,181.2 23.8,184.1 21.7,186.6 14.2,177.3 15.5,176.5 17,175.4 18.4,173.7 19.8,171.6 21.2,169.1 22.5,166 23.8,162.5 24.9,158.6 26.1,154.3 26.8,149.5 " />
<polygon points="21.7,186.6 17.3,187.9 13.3,185.7 12,181.3 14.2,177.3 " />
<polygon points="43.9,150.7 45.7,153.2 47.7,155.7 49.4,158.3 50.9,161.1 52.2,164 53.3,166.9 54.2,170 54.9,173.1 55.4,176.3 55.7,179.5 43.7,178.8 44.2,176.2 44.6,173.6 44.8,171 44.9,168.4 44.9,165.7 44.7,163 44.4,160.2 43.9,157.3 43.4,154.4 42.3,151.5 " />
<polygon points="55.7,179.5 53.6,183.6 49.3,185.1 45.3,183.1 43.7,178.8 " />
<polygon points="65.8,150.5 68.1,153 70.6,155.4 72.8,157.9 74.8,160.6 76.6,163.4 78.2,166.3 79.5,169.3 80.7,172.3 81.6,175.5 82.3,178.8 70.4,179.5 70.5,177 70.5,174.3 70.3,171.7 70,169 69.5,166.2 68.9,163.4 68,160.5 67.1,157.6 66,154.5 64.4,151.6 " />
<polygon points="82.3,178.8 80.8,183.1 76.7,185.1 72.4,183.6 70.4,179.5 " />
<polygon points="88.8,149.6 91.8,152.3 94.8,154.9 97.5,157.7 99.9,160.6 102.2,163.6 104.2,166.7 106,169.9 107.6,173.1 108.9,176.4 110.1,179.8 98.3,182 98,179.2 97.6,176.3 97,173.3 96.2,170.3 95.3,167.2 94.1,164.1 92.7,160.9 91.2,157.5 89.5,154.1 87.4,150.7 " />
<polygon points="110.1,179.8 109.1,184.2 105.3,186.8 100.8,185.8 98.3,182 " />
<polygon points="131.4,15.4 131.4,169.2 119.4,169.2 119.4,13.4 " />
<polygon points="131.4,15.4 134.4,17.4 129.4,20.4 " />
<polygon points="131.4,169.2 129,172.8 125.4,175.2 121.8,172.8 119.4,169.2 " />
<polygon points="131.4,169.2 131.5,170.4 131.6,171.3 131.8,171.9 132,172.3 132.2,172.5 132.3,172.6 132.7,172.8 133.3,173 134.2,173.1 135.4,173.2 135.4,185.2 132.9,185.1 130.4,184.6 128,183.8 125.7,182.6 123.7,180.9 122,178.9 120.8,176.7 120,174.3 119.6,171.8 119.4,169.2 " />
<polygon points="135.4,173.2 139.6,175 141.4,179.2 139.6,183.4 135.4,185.2 " />
<polygon points="135.4,173.2 183,173.2 183,185.2 135.4,185.2 " />
<polygon points="183,173.2 186.6,175.6 189,179.2 186.6,182.8 183,185.2 " />
<polygon points="177,174.2 183,148.2 185,148.2 183,174.2 " />
</g>
</svg>
