<svg xmlns="http://www.w3.org/2000/svg" xmlns:xlink="http://www.w3.org/1999/xlink" version="1.1" baseProfile="full" viewBox="0 0 200 200" width="200" height="200">
<g fill="black">
<polygon points="24,30 174,30 174,34 24,34 " />
<polygon points="178.9,35.3 174.9,40.7 171,45.8 167.1,50.7 163.3,55.4 159.6,59.9 156,64.2 152.4,68.2 148.9,72 145.3,75.4 141.7,78.5 140.2,77.4 142.3,73.1 144.6,68.7 147.2,64.3 149.9,59.7 152.8,55 155.8,50.1 158.9,45 162.1,39.7 165.5,34.2 169,28.6 " />
<polygon points="168,30 174,25 185,34 180,38 174,38 " />
<polygon points="109,30 109,170 97,170 97,30 " />
<polygon points="109,170 106.6,173.6 103,176 99.4,173.6 97,170 " />
<polygon points="109,170 108.8,172.5 108.4,175 107.6,177.4 106.3,179.7 104.7,181.7 102.7,183.3 100.4,184.6 98,185.4 95.5,185.8 93,186 93,174 94.2,173.9 95.1,173.7 95.7,173.5 96,173.4 96.2,173.2 96.4,173 96.5,172.7 96.7,172.1 96.9,171.2 97,170 " />
<polygon points="93,180 93,174 73,174 73,177 " />
</g>
</svg>
