<svg xmlns="http://www.w3.org/2000/svg" xmlns:xlink="http://www.w3.org/1999/xlink" version="1.1" baseProfile="full" viewBox="0 0 200 200" width="200" height="200">
<g fill="black">
<polygon points="17.3,30 181.6,30 181.6,34 17.3,34 " />
<polygon points="181.6,30 157.6,32 169.6,20 " />
<polygon points="52,53 52,184 40,184 40,47 " />
<polygon points="46,53 154,53 154,57 46,57 " />
<polygon points="160,55 160,156 148,162 148,55 " />
<polygon points="148,53 154,48 165,57 160,61 148,55 " />
<polygon points="83,78 83,138 71,138 71,72 " />
<polygon points="83,138 80.6,141.6 77,144 73.4,141.6 71,138 " />
<polygon points="83,138 83,139.2 83.2,140.1 83.4,140.7 83.5,141 83.7,141.2 83.9,141.4 84.2,141.5 84.8,141.7 85.7,141.9 87,142 87,154 84.4,153.8 81.9,153.4 79.5,152.6 77.2,151.3 75.2,149.7 73.6,147.7 72.3,145.4 71.5,143 71.1,140.5 71,138 " />
<polygon points="87,142 91.2,143.8 93,148 91.2,152.2 87,154 " />
<polygon points="87,142 154,142 154,154 87,154 " />
<polygon points="154,142 157.6,144.4 160,148 157.6,151.6 154,154 " />
<polygon points="77,78 124,78 124,82 77,82 " />
<polygon points="130,80 130,122 118,128 118,80 " />
<polygon points="118,78 124,73 135,82 130,86 118,80 " />
<polygon points="81,112 124,112 124,116 81,116 " />
<polygon points="16,180 185,180 185,184 16,184 " />
<polygon points="185,180 161,182 173,170 " />
</g>
</svg>
