<svg xmlns="http://www.w3.org/2000/svg" xmlns:xlink="http://www.w3.org/1999/xlink" version="1.1" baseProfile="full" viewBox="0 0 200 200" width="200" height="200">
<g fill="black">
<polygon points="106.5,20 99.2,30.6 91.3,40.7 83,50.1 74.2,58.9 64.9,67.1 55.1,74.6 44.9,81.5 34.2,87.7 23,93.1 11.3,97.8 10.6,96.1 21.2,89.8 31.4,83.1 41.2,76.1 50.4,68.7 59.3,60.7 67.6,52.3 75.5,43.4 82.9,34 89.8,24.1 96.3,13.6 " />
<polygon points="95.8,14.5 106.5,20 96.8,12.8 " />
<polygon points="106.5,20 108,23.2 102.2,23.2 " />
<polygon points="99.3,19.2 107.2,27.4 115,35.2 122.8,42.5 130.7,49.3 138.8,55.5 147,61.3 155.4,66.4 163.9,71.1 172.6,75.2 181.5,78.8 176.4,91.1 167.1,86.5 158.1,81.4 149.4,75.8 141,69.5 132.9,62.8 125.1,55.5 117.7,47.6 110.6,39.1 103.9,30 97.8,20.3 " />
<polygon points="176.4,91.1 181.5,78.8 187.9,81.5 " />
</g>
</svg>
