<svg xmlns="http://www.w3.org/2000/svg" xmlns:xlink="http://www.w3.org/1999/xlink" version="1.1" baseProfile="full" viewBox="0 0 200 200" width="200" height="200">
<g fill="black">
<polygon points="39,29 39,178 27,184 27,23 " />
<polygon points="33,29 167,29 167,33 33,33 " />
<polygon points="173,31 173,168 161,168 161,31 " />
<polygon points="161,29 167,24 178,33 173,37 161,31 " />
<polygon points="173,168 170.6,171.6 167,174 163.4,171.6 161,168 " />
<polygon points="173,168 172.8,170.5 172.4,173 171.6,175.4 170.3,177.7 168.7,179.7 166.7,181.3 164.4,182.6 162,183.4 159.5,183.8 157,184 157,172 158.2,171.9 159.1,171.7 159.7,171.5 160,171.4 160.2,171.2 160.4,171 160.5,170.7 160.7,170.1 160.9,169.2 161,168 " />
<polygon points="157,178 157,172 137,172 137,175 " />
<polygon points="84,29 84,168 72,174 72,29 " />
<polygon points="128,29 128,168 116,174 116,29 " />
<polygon points="33,98 167,98 167,102 33,102 " />
</g>
</svg>
