<svg xmlns="http://www.w3.org/2000/svg" xmlns:xlink="http://www.w3.org/1999/xlink" version="1.1" baseProfile="full" viewBox="0 0 200 200" width="200" height="200">
<g fill="black">
<polygon points="48,24 48,181 36,187 36,18 " />
<polygon points="42,24 159,24 159,28 42,28 " />
<polygon points="165,26 165,172 153,172 153,26 " />
<polygon points="153,24 159,19 170,28 165,32 153,26 " />
<polygon points="165,172 162.6,175.6 159,178 155.4,175.6 153,172 " />
<polygon points="165,172 164.8,174.5 164.4,177 163.6,179.4 162.3,181.7 160.7,183.7 158.7,185.3 156.4,186.6 154,187.4 151.5,187.8 149,188 149,176 150.2,175.9 151.1,175.7 151.7,175.5 152,175.4 152.2,175.2 152.4,175 152.5,174.7 152.7,174.1 152.9,173.2 153,172 " />
<polygon points="149,182 149,176 129,176 129,179 " />
<polygon points="42,67 159,67 159,71 42,71 " />
<polygon points="18,110 187,110 187,114 18,114 " />
<polygon points="187,110 167,112 177,101 " />
<polygon points="86,24 86,172 74,178 74,24 " />
<polygon points="126,24 126,172 114,178 114,24 " />
</g>
</svg>
