<svg xmlns="http://www.w3.org/2000/svg" xmlns:xlink="http://www.w3.org/1999/xlink" version="1.1" baseProfile="full" viewBox="0 0 200 200" width="200" height="200">
<g fill="black">
<polygon points="36,88 150,88 150,92 36,92 " />
<polygon points="156,90 156,143 144,149 144,90 " />
<polygon points="144,88 150,83 161,92 156,96 144,90 " />
<polygon points="38,139 150,139 150,143 38,143 " />
<polygon points="17,113 186,113 186,117 17,117 " />
<polygon points="186,113 162,115 174,103 " />
<polygon points="84,63 84,143 72,143 72,63 " />
<polygon points="122,63 122,143 110,143 110,63 " />
<polygon points="50,63 150,63 150,67 50,67 " />
<polygon points="150,63 126,65 138,53 " />
<polygon points="43.8,151.9 44,156.2 44,160.4 43.5,164.5 42.6,168.3 41.2,172 39.3,175.4 36.9,178.6 34,181.5 30.7,184 27,186.2 22.5,175 25.3,174.1 27.9,173 30.3,171.6 32.6,169.9 34.6,167.9 36.5,165.5 38.2,162.7 39.7,159.5 41.2,155.9 42,151.8 " />
<polygon points="27,186.2 22.4,186.1 19.2,182.8 19.3,178.3 22.5,175 " />
<polygon points="70.3,152.3 73.1,154.5 75.9,156.4 78.4,158.6 80.7,160.9 82.6,163.4 84.2,166 85.5,168.8 86.5,171.8 87.1,174.8 87.3,178 75.4,176.5 75.9,174.7 76.3,172.9 76.4,170.9 76.3,168.8 75.9,166.6 75.2,164.2 74.2,161.7 72.9,159 71.3,156.2 69.1,153.7 " />
<polygon points="87.3,178 85,182 80.6,183.2 76.6,180.9 75.4,176.5 " />
<polygon points="108.3,152.1 112,154.2 115.7,156 119.1,158.1 122.1,160.2 124.8,162.5 127.2,165 129.3,167.6 131.1,170.4 132.5,173.4 133.5,176.5 121.6,178 121.7,176.2 121.4,174.2 120.9,172.1 120,169.8 118.8,167.4 117.3,164.8 115.3,162.1 113.1,159.3 110.5,156.4 107.3,153.6 " />
<polygon points="133.5,176.5 132.3,180.9 128.3,183.2 123.9,182 121.6,178 " />
<polygon points="148.3,151.3 153.1,153.5 157.7,155.6 161.8,157.8 165.7,160.2 169.2,162.6 172.3,165.2 175.1,167.9 177.6,170.7 179.8,173.7 181.5,176.8 170.3,181 169.7,178.8 168.8,176.4 167.5,173.9 165.8,171.2 163.7,168.4 161.2,165.5 158.3,162.5 155,159.4 151.4,156.1 147.4,152.9 " />
<polygon points="181.5,176.8 181.3,181.4 178,184.5 173.4,184.3 170.3,181 " />
<polygon points="66.8,21.5 133.1,21.5 133.1,25.5 66.8,25.5 " />
<polygon points="133.1,21.5 109.1,23.5 121.1,11.5 " />
<polygon points="122.2,24.2 125.1,29 128.3,33.4 131.8,37.3 136,41 140.7,44.3 146.1,47.3 152.3,50.1 159.1,52.5 166.7,54.7 175.1,56.6 172,69.4 163.1,66.7 155,63.6 147.6,60.1 141,56.1 135.2,51.8 130.3,47 126.2,41.9 123.2,36.4 121.2,30.6 120.5,24.6 " />
<polygon points="172,69.4 175.1,56.6 183.8,58.6 " />
<polygon points="80.5,36.1 76.5,41.2 71.9,45.8 66.9,50 61.4,53.7 55.5,57 49.1,59.9 42.3,62.4 35,64.4 27.3,65.9 19.2,66.8 18.8,65.1 26.4,62.2 33.4,59.3 39.8,56.3 45.8,53.1 51.2,49.7 56.1,46.1 60.4,42.3 64.3,38.3 67.6,34 70.5,29.6 " />
<polygon points="70.5,29.6 80.5,36.1 71,28.8 " />
<polygon points="80.5,36.1 81.9,39.4 74.7,39.5 " />
</g>
</svg>
