<svg xmlns="http://www.w3.org/2000/svg" xmlns:xlink="http://www.w3.org/1999/xlink" version="1.1" baseProfile="full" viewBox="0 0 200 200" width="200" height="200">
<g fill="black">
<path d="M 182.0 147.0 L 184.0 147.0 L 182.0 172.0 L 185.6 174.4 L 188.0 178.0 L 185.6 181.6 L 182.0 184.0 L 144.0 184.0 L 141.4 183.9 L 138.9 183.5 L 136.5 182.6 L 134.2 181.4 L 132.2 179.8 L 130.6 177.8 L 129.3 175.5 L 128.5 173.1 L 128.1 170.6 L 128.0 168.0 L 128.0 85.7 L 87.5666666984558 85.7 L 86.9 95.7 L 84.5 111.1 L 80.6 125.3 L 75.3 138.4 L 68.6 150.2 L 60.4 160.8 L 50.8 170.1 L 40.0 178.0 L 27.8 184.5 L 14.3 189.5 L 13.6 187.9 L 26.0 181.1 L 36.9 173.6 L 46.4 165.2 L 54.6 156.0 L 61.3 145.8 L 66.8 134.6 L 71.0 122.4 L 74.0 109.1 L 75.6 94.7 L 75.83225803375244 85.7 L 27.0 85.7 L 27.0 81.7 L 75.93548383712769 81.7 L 76.0 79.2 L 76.0 38.2 L 88.0 40.2 L 91.0 42.2 L 88.0 44.0 L 88.0 79.2 L 87.83333330154419 81.7 L 128.0 81.7 L 134.0 76.7 L 145.0 85.7 L 140.0 89.7 L 140.0 169.3 L 140.2 170.2 L 140.5 171.1 L 140.7 171.3 L 140.9 171.4 L 141.2 171.6 L 141.8 171.8 L 142.7 172.0 L 176.0 172.0 Z M 13.6 65.7 L 12.5 61.3 L 14.7 57.3 L 16.8 55.9 L 18.8 53.9 L 20.7 51.3 L 22.6 48.0 L 24.2 44.1 L 25.7 39.6 L 27.0 34.4 L 28.2 28.6 L 29.2 22.2 L 30.1 15.2 L 31.9 15.2 L 32.9 22.3 L 33.28636360168457 27.4 L 170.0 27.4 L 170.54857139587403 26.94285717010498 L 170.6 26.8 L 170.67526378631592 26.837280178070067 L 176.0 22.4 L 187.0 31.4 L 182.0 34.4 L 178.79815664291382 35.734101390838624 L 177.8 37.1 L 175.8 39.9 L 173.7 42.7 L 171.3 45.7 L 168.8 48.8 L 166.1 52.0 L 163.1 55.4 L 159.9 58.8 L 156.7 62.4 L 155.2 61.4 L 157.4 57.1 L 159.3 52.8 L 161.2 48.8 L 162.9 45.1 L 164.6 41.5 L 166.1 38.2 L 167.4 35.0 L 168.6 32.1 L 168.875 31.4 L 33.44032258987427 31.4 L 33.5 35.1 L 33.1 40.9 L 32.4 46.3 L 31.2 51.2 L 29.7 55.8 L 27.6 59.9 L 25.1 63.7 L 22.0 66.9 L 17.5 68.0 Z " />
</g>
</svg>
