<svg xmlns="http://www.w3.org/2000/svg" xmlns:xlink="http://www.w3.org/1999/xlink" version="1.1" baseProfile="full" viewBox="0 0 200 200" width="200" height="200">
<g fill="black">
<polygon points="37,27 162,27 162,31 37,31 " />
<polygon points="162,27 138,29 150,17 " />
<polygon points="16,77 184,77 184,81 16,81 " />
<polygon points="184,77 160,79 172,67 " />
<polygon points="107,27 107,171 95,171 95,27 " />
<polygon points="48.1,100.1 48.1,183.8 36.1,189.8 36.1,98.1 " />
<polygon points="48.1,100.1 51.1,102.1 48.1,104.1 " />
<polygon points="42.1,167.8 161.8,167.8 161.8,171.8 42.1,171.8 " />
<polygon points="167.8,100.1 167.8,177.8 155.8,183.8 155.8,98.1 " />
<polygon points="167.8,100.1 170.8,102.1 167.8,104.1 " />
</g>
</svg>
