<svg xmlns="http://www.w3.org/2000/svg" xmlns:xlink="http://www.w3.org/1999/xlink" version="1.1" baseProfile="full" viewBox="0 0 200 200" width="200" height="200">
<g fill="black">
<polygon points="38,31 38,184 26,190 26,29 " />
<polygon points="38,31 41,33 38,35 " />
<polygon points="32,168 168,168 168,172 32,172 " />
<polygon points="174,31 174,178 162,184 162,29 " />
<polygon points="174,31 177,33 174,35 " />
<polygon points="138.2,35.5 130.7,42.5 123.1,48.9 115.3,54.5 107.2,59.5 98.9,63.7 90.4,67.3 81.8,70.1 72.9,72.1 63.9,73.3 54.8,73.7 54.6,71.9 63.3,69.6 71.6,66.9 79.6,63.9 87.4,60.3 95,56.2 102.3,51.6 109.4,46.4 116.3,40.6 122.9,34.3 129.4,27.3 " />
<polygon points="129.4,27.3 138.2,35.5 129.7,27 " />
<polygon points="138.2,35.5 139,39 131.9,37.9 " />
<polygon points="45.4,103 155.2,103 155.2,107 45.4,107 " />
<polygon points="155.2,103 131.2,105 143.2,93 " />
<polygon points="105.6,20.2 105.6,155.6 93.6,161.6 93.6,18.2 " />
<polygon points="105.6,20.2 108.6,22.2 105.6,24.2 " />
</g>
</svg>
