<svg xmlns="http://www.w3.org/2000/svg" xmlns:xlink="http://www.w3.org/1999/xlink" version="1.1" baseProfile="full" viewBox="0 0 200 200" width="200" height="200">
<g fill="black">
<polygon points="162,48.2 149.5,57.7 136.6,66.6 123.2,74.9 109.4,82.6 95.1,89.7 80.4,96.1 65.3,101.9 49.7,107 33.7,111.3 17.2,114.8 16.7,113.1 32.6,107.6 48,101.9 62.9,95.7 77.4,89.1 91.4,82.1 104.9,74.5 118,66.4 130.5,57.8 142.7,48.6 154.3,39 " />
<polygon points="154.3,39 162,48.2 154.5,38.9 " />
<polygon points="162,48.2 162.4,51.8 155.5,49.7 " />
<polygon points="64,26 64,161 52,161 52,24 " />
<polygon points="64,26 67,28 64,30 " />
<polygon points="64,161 61.6,164.6 58,167 54.4,164.6 52,161 " />
<polygon points="64,161 64,162.2 64.2,163.1 64.4,163.7 64.5,164 64.7,164.2 64.9,164.4 65.2,164.5 65.8,164.7 66.7,164.9 68,165 68,177 65.4,176.8 62.9,176.4 60.5,175.6 58.2,174.3 56.2,172.7 54.6,170.7 53.3,168.4 52.5,166 52.1,163.5 52,161 " />
<polygon points="68,165 72.2,166.8 74,171 72.2,175.2 68,177 " />
<polygon points="68,165 169,165 169,177 68,177 " />
<polygon points="169,165 172.6,167.4 175,171 172.6,174.6 169,177 " />
<polygon points="163,166 169,140 171,140 169,166 " />
</g>
</svg>
