<svg xmlns="http://www.w3.org/2000/svg" xmlns:xlink="http://www.w3.org/1999/xlink" version="1.1" baseProfile="full" viewBox="0 0 200 200" width="200" height="200">
<g fill="black">
<polygon points="99,35 171,35 171,39 99,39 " />
<polygon points="171,35 147,37 159,25 " />
<polygon points="105,14 105,61 93,61 93,12 " />
<polygon points="105,14 108,16 103,19 " />
<polygon points="55.1,57.9 55.1,114.1 43.1,120.1 43.1,51.9 " />
<polygon points="49.1,57.9 146.8,57.9 146.8,61.9 49.1,61.9 " />
<polygon points="152.8,59.9 152.8,116.1 140.8,122.1 140.8,59.9 " />
<polygon points="140.8,57.9 146.8,52.9 157.8,61.9 152.8,65.9 140.8,59.9 " />
<polygon points="49.1,83.2 146.8,83.2 146.8,87.2 49.1,87.2 " />
<polygon points="49.1,110.1 146.8,110.1 146.8,114.1 49.1,114.1 " />
<polygon points="156.1,140.9 145.1,142.6 134.1,144.2 122.9,145.6 111.7,146.9 100.4,148 89.1,148.9 77.7,149.7 66.1,150.3 54.5,150.5 42.9,150.4 42.7,148.6 54.2,146.7 65.6,144.9 77,143.2 88.2,141.4 99.4,139.6 110.4,137.7 121.4,135.7 132.3,133.6 143.1,131.4 153.8,129.2 " />
<polygon points="152.9,129.3 156.1,140.9 164.9,139.3 " />
<polygon points="164.9,139.3 165.3,142.3 157.8,138.6 " />
<polygon points="48.8,120.8 48.8,168.1 36.8,168.1 36.8,118.8 " />
<polygon points="48.8,120.8 51.8,122.8 46.8,125.8 " />
<polygon points="48.8,168.1 46.4,171.7 42.8,174.1 39.2,171.7 36.8,168.1 " />
<polygon points="48.8,168.1 48.9,169.3 49,170.2 49.2,170.8 49.4,171.2 49.5,171.4 49.7,171.5 50.1,171.7 50.7,171.9 51.6,172 52.8,172.1 52.8,184.1 50.2,184 47.8,183.5 45.3,182.7 43.1,181.5 41.1,179.8 39.4,177.8 38.2,175.6 37.4,173.2 36.9,170.7 36.8,168.1 " />
<polygon points="52.8,172.1 57,173.9 58.8,178.1 57,182.3 52.8,184.1 " />
<polygon points="52.8,172.1 160.1,172.1 160.1,184.1 52.8,184.1 " />
<polygon points="160.1,172.1 163.7,174.5 166.1,178.1 163.7,181.7 160.1,184.1 " />
<polygon points="154.1,173.1 160.1,147.1 162.1,147.1 160.1,173.1 " />
</g>
</svg>
