<svg xmlns="http://www.w3.org/2000/svg" xmlns:xlink="http://www.w3.org/1999/xlink" version="1.1" baseProfile="full" viewBox="0 0 200 200" width="200" height="200">
<g fill="black">
<polygon points="11.7,133.9 94.2,133.9 94.2,137.9 11.7,137.9 " />
<polygon points="94.2,133.9 70.2,135.9 82.2,123.9 " />
<polygon points="59,94.6 59,185.5 47,191.5 47,92.6 " />
<polygon points="59,94.6 62,96.6 59,98.6 " />
<polygon points="101.9,133.9 187,133.9 187,137.9 101.9,137.9 " />
<polygon points="187,133.9 163,135.9 175,123.9 " />
<polygon points="150.5,94.6 150.5,185.5 138.5,191.5 138.5,92.6 " />
<polygon points="150.5,94.6 153.5,96.6 150.5,98.6 " />
<polygon points="40,53.9 162.9,53.9 162.9,57.9 40,57.9 " />
<polygon points="162.9,53.9 138.9,55.9 150.9,43.9 " />
<polygon points="107.5,14.6 107.5,105.5 95.5,111.5 95.5,12.6 " />
<polygon points="107.5,14.6 110.5,16.6 107.5,18.6 " />
</g>
</svg>
