<svg xmlns="http://www.w3.org/2000/svg" xmlns:xlink="http://www.w3.org/1999/xlink" version="1.1" baseProfile="full" viewBox="0 0 200 200" width="200" height="200">
<g fill="black">
<polygon points="66,41 153,41 153,45 66,45 " />
<polygon points="159,43 158.8,48.9 158.4,54.6 157.6,60 156.6,65.2 155.2,70 153.5,74.6 151.4,79 149,83 146.3,86.7 143.3,90.1 134.8,81.6 137,79.2 139,76.4 140.8,73.4 142.4,70 143.8,66.3 144.9,62.3 145.8,58 146.4,53.3 146.8,48.3 147,43 " />
<polygon points="147,41 153,36 164,45 159,48 147,53 " />
<polygon points="143.3,90.1 139,91.8 134.8,90.1 133.1,85.9 134.8,81.6 " />
<polygon points="143.3,90.1 141.5,91.8 139.6,93.3 137.7,94.6 135.6,95.7 133.5,96.7 131.3,97.5 129,98.2 126.7,98.6 124.4,98.9 122,99 122,87 123.5,86.9 124.9,86.7 126.3,86.5 127.7,86.1 128.9,85.6 130.1,85.1 131.3,84.4 132.5,83.6 133.7,82.7 134.8,81.6 " />
<polygon points="122,93 122,87 102,87 102,90 " />
<polygon points="77.7,20.8 75.3,33.1 72.1,44.7 68.2,55.4 63.6,65.3 58.3,74.4 52.3,82.6 45.6,89.9 38.2,96.2 30.1,101.5 21.4,105.7 20.5,104.2 27.9,98.4 34.7,92.2 40.8,85.4 46.2,78 51,70 55.2,61.3 58.8,51.9 61.8,41.7 64.1,30.8 65.9,19.1 " />
<polygon points="65.7,20.1 77.7,20.8 66.2,17.1 " />
<polygon points="77.7,20.8 80.4,23.2 75.1,25.5 " />
<polygon points="43,107 148,107 148,111 43,111 " />
<polygon points="153,112.2 145.3,122.6 136.4,132.2 126.4,141.2 115.3,149.4 103.1,156.8 89.9,163.6 75.6,169.6 60.2,174.8 43.7,179.3 26.2,182.8 25.7,181.1 42.7,175.6 58.4,169.8 73,163.5 86.5,156.8 98.8,149.6 109.9,141.8 119.8,133.5 128.6,124.8 136.3,115.5 142.9,105.7 " />
<polygon points="142,107 148,102 159,111 154,114 142,119 " />
<polygon points="64.2,110.5 71.1,120.1 78.8,128.9 87.4,136.9 97.1,144 107.9,150.4 119.8,156 133,160.7 147.4,164.8 163,168 179.8,170.4 178.1,183.5 160.6,180.3 144.3,176.2 129.3,171.2 115.6,165.3 103.2,158.5 92.2,150.8 82.5,142.2 74.3,132.7 67.6,122.4 62.6,111.2 " />
<polygon points="178.1,183.5 179.8,170.4 189.9,171.8 " />
</g>
</svg>
