<svg xmlns="http://www.w3.org/2000/svg" xmlns:xlink="http://www.w3.org/1999/xlink" version="1.1" baseProfile="full" viewBox="0 0 200 200" width="200" height="200">
<g fill="black">
<polygon points="68,19 68,184 56,190 56,13 " />
<polygon points="62,19 131,19 131,23 62,23 " />
<polygon points="137,21 137,56 125,56 125,21 " />
<polygon points="125,19 131,14 142,23 137,27 125,21 " />
<polygon points="137,56 134.6,59.6 131,62 127.4,59.6 125,56 " />
<polygon points="137,56 136.8,58.5 136.4,61 135.6,63.4 134.3,65.7 132.7,67.7 130.7,69.3 128.4,70.6 126,71.4 123.5,71.8 121,72 121,60 122.2,59.9 123.1,59.7 123.7,59.5 124,59.4 124.2,59.2 124.4,59 124.5,58.7 124.7,58.1 124.9,57.2 125,56 " />
<polygon points="121,66 121,60 101,60 101,63 " />
<polygon points="62,84 136,84 136,88 62,88 " />
<polygon points="141.8,87.3 137.5,102.4 132.7,116.2 127.2,128.9 121.1,140.3 114.5,150.6 107.2,159.5 99.3,167.2 90.8,173.5 81.8,178.4 72.3,181.8 71.6,180.1 80,175.1 87.6,169.2 94.8,162.5 101.4,154.7 107.4,145.8 113,135.9 118,124.8 122.6,112.6 126.6,99.2 130.1,84.6 " />
<polygon points="130,84 136,79 147,88 142,92 136,92 " />
<polygon points="80,86.8 84.3,99.7 89,111.7 94.2,122.6 99.9,132.5 106.3,141.5 113.3,149.4 120.9,156.4 129.1,162.5 138,167.6 147.5,171.9 142.4,184 131.9,178.6 122.3,172.1 113.5,164.6 105.7,156.2 98.7,146.9 92.7,136.7 87.6,125.6 83.4,113.7 80.3,100.8 78.3,87.1 " />
<polygon points="142.4,184 147.5,171.9 153.8,174.5 " />
</g>
</svg>
