<svg xmlns="http://www.w3.org/2000/svg" xmlns:xlink="http://www.w3.org/1999/xlink" version="1.1" baseProfile="full" viewBox="0 0 200 200" width="200" height="200">
<g fill="black">
<polygon points="57,27 57,88 45,94 45,21 " />
<polygon points="51,27 151,27 151,31 51,31 " />
<polygon points="157,29 157,82 145,88 145,29 " />
<polygon points="145,27 151,22 162,31 157,35 145,29 " />
<polygon points="51,72 151,72 151,76 51,76 " />
<polygon points="99.9,78.2 98.1,94.4 94.8,109.4 90.2,123.3 84.1,136 76.7,147.4 67.8,157.6 57.6,166.4 46.1,174 33.3,180.1 19.2,184.8 18.7,183.1 31.7,176.7 43.2,169.4 53.4,161.4 62.2,152.4 69.7,142.5 75.9,131.6 80.8,119.7 84.4,106.8 86.8,92.8 87.9,77.7 " />
<polygon points="87.9,77.7 99.9,78.2 88,75.4 " />
<polygon points="99.9,78.2 102.8,80.4 96.6,84.1 " />
<polygon points="89,109 166,109 166,113 89,113 " />
<polygon points="171.9,111.3 171.2,121.5 170.1,130.9 168.7,139.6 167,147.5 165,154.7 162.6,161.1 159.8,166.8 156.6,171.8 152.9,176.1 148.6,179.5 142,169.5 144.5,167.4 147,164.6 149.3,161 151.6,156.4 153.6,151 155.4,144.6 156.9,137.4 158.2,129.3 159.2,120.4 160,110.6 " />
<polygon points="160,109 166,104 177,113 172,117 166,117 " />
<polygon points="148.6,179.5 144.1,180.3 140.3,177.8 139.5,173.3 142,169.5 " />
<polygon points="148.6,179.5 146.6,180.7 144.6,181.8 142.5,182.8 140.4,183.6 138.3,184.3 136.1,184.9 133.8,185.4 131.6,185.7 129.3,185.9 127,186 127,174 128.6,173.9 130.2,173.8 131.8,173.5 133.3,173.2 134.8,172.8 136.3,172.3 137.8,171.8 139.2,171.1 140.6,170.3 142,169.5 " />
<polygon points="127,180 127,174 107,174 107,177 " />
</g>
</svg>
