<svg xmlns="http://www.w3.org/2000/svg" xmlns:xlink="http://www.w3.org/1999/xlink" version="1.1" baseProfile="full" viewBox="0 0 200 200" width="200" height="200">
<g fill="black">
<polygon points="30,34.2 170,34.2 170,38.2 30,38.2 " />
<polygon points="170,34.2 146,36.2 158,24.2 " />
<polygon points="106,14.4 106,69.4 94,69.4 94,12.4 " />
<polygon points="106,14.4 109,16.4 104,19.4 " />
<polygon points="14,65.4 186,65.4 186,69.4 14,69.4 " />
<polygon points="186,65.4 162,67.4 174,55.4 " />
<polygon points="95.4,73.9 92.4,77.6 89.3,81.2 86.1,84.9 82.6,88.5 79,92.1 75.2,95.7 71.2,99.3 66.9,102.8 62.4,106.2 57.6,109.4 56.3,108.1 59.7,103.4 63.1,99 66.4,94.7 69.6,90.6 72.6,86.5 75.5,82.5 78.2,78.6 80.8,74.7 83.2,70.9 85.4,67.2 " />
<polygon points="84.9,68 95.4,73.9 85.9,66.5 " />
<polygon points="95.4,73.9 96.7,77.3 90.9,77 " />
<polygon points="26.7,103.9 37.4,103.8 48.6,103.7 60.3,103.4 72.6,103.1 85.4,102.7 98.8,102.3 112.7,101.8 127.2,101.3 142.3,100.9 157.9,100.7 158,102.4 142.6,104.7 127.6,106.7 113.2,108.4 99.3,109.8 86,111.2 73.1,112.4 60.8,113.4 49.1,114.4 37.9,115.2 27.2,115.9 " />
<polygon points="27.2,115.9 26.7,103.9 24.7,104 " />
<polygon points="27.2,115.9 29.3,118.8 33,112.7 " />
<polygon points="124.2,77.8 130.4,79.9 136.3,82.3 141.9,85 147.2,87.9 152.2,90.9 157,94.2 161.6,97.6 165.8,101.1 169.9,104.8 173.6,108.6 164.4,116.3 161.5,112.5 158.3,108.7 154.9,105 151.1,101.4 147.1,97.7 142.9,94.1 138.4,90.5 133.6,86.9 128.6,83.2 123.4,79.4 " />
<polygon points="173.6,108.6 174.9,113 172.9,117.1 168.5,118.4 164.4,116.3 " />
<polygon points="111.9,118.5 103.8,124.2 95.3,129.7 86.4,135 77,140.1 67.2,144.9 56.9,149.5 46.2,153.8 35,157.8 23.4,161.5 11.2,164.7 10.7,163 22.1,157.9 33,152.8 43.6,147.8 53.7,142.6 63.3,137.3 72.5,132 81.2,126.5 89.4,120.8 97.2,115 104.4,109.1 " />
<polygon points="103.6,109.7 111.9,118.5 104.5,109 " />
<polygon points="111.9,118.5 112.2,122.1 106.7,120 " />
<polygon points="71,141.4 71,178.6 59,178.6 59,141.4 " />
<polygon points="36.9,176.3 46,175.1 55,173.8 64.1,172.5 73.3,171.2 82.4,169.9 91.6,168.6 100.8,167.3 110.1,166 119.4,164.9 128.8,164 129.1,165.7 120.1,168.6 111.1,171.3 102.1,173.7 93,176 84,178.2 75,180.4 65.9,182.4 56.9,184.4 47.9,186.3 38.9,188.1 " />
<polygon points="38.9,188.1 36.9,176.3 35,176.7 " />
<polygon points="38.9,188.1 41.4,190.8 44.4,184.2 " />
<polygon points="166.6,125.8 163.9,128.1 161.1,130.4 158.1,132.8 154.9,135.3 151.5,137.8 147.9,140.4 144.2,143 140.2,145.6 135.9,148.2 131.5,150.9 130.4,149.5 133.8,145.7 137,141.9 140.2,138.4 143.2,135 146,131.8 148.7,128.7 151.3,125.7 153.7,122.9 155.9,120.2 157.9,117.6 " />
<polygon points="157.2,118.3 166.6,125.8 158.2,117.2 " />
<polygon points="166.6,125.8 167.4,129.3 161.7,128.1 " />
<polygon points="104.2,120.4 110.7,128 117.2,135.1 123.9,141.7 130.9,147.8 138.2,153.4 145.9,158.4 153.8,162.9 162.2,166.8 170.9,170.3 180,173.2 175.9,185.8 166.2,181.9 157,177.5 148.3,172.4 140.1,166.8 132.4,160.7 125.3,154 118.7,146.7 112.6,138.8 107.3,130.4 102.7,121.3 " />
<polygon points="175.9,185.8 180,173.2 187.5,175.6 " />
</g>
</svg>
