<svg xmlns="http://www.w3.org/2000/svg" xmlns:xlink="http://www.w3.org/1999/xlink" version="1.1" baseProfile="full" viewBox="0 0 200 200" width="200" height="200">
<g fill="black">
<polygon points="162.4,38 152,40 140.9,41.8 129.2,43.4 116.8,44.8 103.7,46 89.9,46.9 75.5,47.6 60.3,48.1 44.5,48.2 28,47.8 27.9,46.1 44.3,44.4 60,42.7 75,41.1 89.2,39.4 102.7,37.5 115.6,35.6 127.7,33.5 139,31.3 149.7,28.9 159.6,26.3 " />
<polygon points="159.6,26.3 162.4,38 170.2,36.2 " />
<polygon points="170.2,36.2 170.5,39.2 162.1,35 " />
<polygon points="36,103 168,103 168,107 36,107 " />
<polygon points="168,103 144,105 156,93 " />
<polygon points="106,40 106,172 94,172 94,40 " />
<polygon points="22,168 181,168 181,172 22,172 " />
<polygon points="181,168 157,170 169,158 " />
</g>
</svg>
