<svg xmlns="http://www.w3.org/2000/svg" xmlns:xlink="http://www.w3.org/1999/xlink" version="1.1" baseProfile="full" viewBox="0 0 200 200" width="200" height="200">
<g fill="black">
<polygon points="28,35.7 172,35.7 172,39.7 28,39.7 " />
<polygon points="172,35.7 148,37.7 160,25.7 " />
<polygon points="106,15.1 106,72.3 94,72.3 94,13.1 " />
<polygon points="106,15.1 109,17.1 104,20.1 " />
<polygon points="15,68.3 185,68.3 185,72.3 15,72.3 " />
<polygon points="185,68.3 161,70.3 173,58.3 " />
<polygon points="117.2,88.2 109.8,96.4 101.9,104.3 93.6,112 84.8,119.3 75.7,126.3 66.1,133 56.1,139.3 45.7,145.3 34.8,150.8 23.5,155.9 22.7,154.3 33,147.5 42.9,140.7 52.5,133.9 61.7,126.8 70.4,119.6 78.8,112.2 86.7,104.6 94.2,96.8 101.3,88.8 108,80.5 " />
<polygon points="107.3,81.3 117.2,88.2 108.4,80 " />
<polygon points="117.2,88.2 118.3,91.6 112.5,90.8 " />
<polygon points="78.8,124.2 78.8,175 66.8,175 66.8,124.2 " />
<polygon points="46.4,175.1 54.8,173.3 63.1,171.4 71.5,169.4 79.9,167.4 88.4,165.4 96.8,163.3 105.4,161.3 113.9,159.3 122.6,157.4 131.4,155.6 131.9,157.3 123.8,161 115.5,164.4 107.3,167.6 99,170.6 90.7,173.5 82.5,176.3 74.2,179.1 66,181.7 57.7,184.3 49.5,186.8 " />
<polygon points="49.5,186.8 46.4,175.1 44.5,175.6 " />
<polygon points="49.5,186.8 52.2,189.2 54.5,182.3 " />
<polygon points="167.5,98.6 165,102 162.3,105.4 159.5,109 156.5,112.7 153.3,116.5 150,120.4 146.4,124.3 142.6,128.3 138.6,132.4 134.2,136.4 132.8,135.3 135.6,130.1 138.4,125.1 141.2,120.4 143.9,115.9 146.5,111.6 148.9,107.4 151.2,103.4 153.4,99.5 155.4,95.8 157.3,92.3 " />
<polygon points="156.8,93.1 167.5,98.6 157.8,91.4 " />
<polygon points="167.5,98.6 169,101.9 163.2,101.8 " />
<polygon points="108.9,93.8 115.1,105.1 121.3,115.6 127.6,125.3 134.2,134.2 141.1,142.4 148.2,149.7 155.6,156.2 163.3,162 171.4,166.9 179.7,171.2 173.8,183 164.8,177.6 156.3,171.5 148.3,164.5 140.9,156.8 133.9,148.3 127.4,139.1 121.5,129.1 116.1,118.3 111.3,106.8 107.2,94.5 " />
<polygon points="173.8,183 179.7,171.2 185.1,173.9 " />
<polygon points="78.8,79.7 75.1,83.3 71.2,86.8 67.1,90.3 62.8,93.8 58.3,97.3 53.7,100.8 48.8,104.2 43.6,107.5 38.2,110.7 32.5,113.7 31.4,112.2 35.9,107.6 40.3,103.3 44.6,99.1 48.8,95 52.7,91 56.5,87 60.1,83.1 63.6,79.2 66.8,75.4 69.8,71.7 " />
<polygon points="69.1,72.4 78.8,79.7 70.2,71.3 " />
<polygon points="78.8,79.7 79.7,83.2 73.9,82.1 " />
<polygon points="30.7,106.9 35.3,107 40,107.1 44.8,107.2 49.6,107.4 54.4,107.5 59.4,107.6 64.4,107.8 69.5,108.1 74.6,108.5 79.9,109.1 80,110.8 74.9,112.2 69.9,113.4 64.8,114.3 59.9,115.1 55,115.9 50.1,116.6 45.3,117.2 40.5,117.8 35.8,118.4 31.2,118.9 " />
<polygon points="31.2,118.9 30.7,106.9 28.7,107 " />
<polygon points="31.2,118.9 33.3,121.8 37.1,115.7 " />
</g>
</svg>
