<svg xmlns="http://www.w3.org/2000/svg" xmlns:xlink="http://www.w3.org/1999/xlink" version="1.1" baseProfile="full" viewBox="0 0 200 200" width="200" height="200">
<g fill="black">
<polygon points="17,34.6 183,34.6 183,38.6 17,38.6 " />
<polygon points="183,34.6 159,36.6 171,24.6 " />
<polygon points="102.7,18.4 97,27.4 90.4,35.9 83.2,44 75.2,51.6 66.5,58.7 57.1,65.4 47,71.6 36.2,77.3 24.6,82.4 12.3,86.9 11.6,85.2 23,79 33.6,72.6 43.5,66 52.7,59.3 61.1,52.2 68.8,44.9 75.8,37.2 82,29.3 87.4,21.1 92.2,12.6 " />
<polygon points="91.7,13.5 102.7,18.4 92.7,11.6 " />
<polygon points="102.7,18.4 104.4,21.5 98.6,21.8 " />
<polygon points="118.3,36.7 124.4,41.3 130.5,45.8 136.6,50 142.7,53.9 148.9,57.6 155.3,61 161.7,64 168.4,66.8 175.1,69.3 182.1,71.4 177.8,83.9 170.6,80.9 163.5,77.5 156.7,73.8 150.1,69.8 143.8,65.4 137.8,60.7 132,55.6 126.6,50.2 121.5,44.3 117,38 " />
<polygon points="177.8,83.9 182.1,71.4 189.4,73.9 " />
<polygon points="84.2,83.9 80.6,84.9 76.9,85.8 73.2,86.6 69.6,87.4 65.9,88.1 62.1,88.6 58.4,89.1 54.7,89.4 50.9,89.6 47.1,89.8 46.8,88.1 50.2,86.7 53.6,85.1 56.9,83.5 60.3,82 63.6,80.5 66.9,79 70.2,77.5 73.4,75.9 76.6,74.3 79.8,72.7 " />
<polygon points="78.9,73.1 84.2,83.9 89.1,82 " />
<polygon points="89.1,82 89.3,85.1 82.7,82.3 " />
<polygon points="53,87 53,172 41,178 41,81 " />
<polygon points="47,118 86,118 86,122 47,122 " />
<polygon points="86,118 66,120 76,109 " />
<polygon points="47,156 89,156 89,160 47,160 " />
<polygon points="89,156 69,158 79,147 " />
<polygon points="116,86 153,86 153,90 116,90 " />
<polygon points="159,88 159,162 147,168 147,88 " />
<polygon points="147,86 153,81 164,90 159,94 147,88 " />
<polygon points="117,118 153,118 153,122 117,122 " />
<polygon points="116,156 153,156 153,160 116,160 " />
<polygon points="108,58.8 108,171 96,171 96,56.8 " />
<polygon points="108,58.8 111,60.8 106,63.8 " />
<polygon points="108,171 105.6,174.6 102,177 98.4,174.6 96,171 " />
<polygon points="108,171 108,172.2 108,173.1 108.1,173.8 108.2,174.2 108.4,174.6 108.6,174.9 109,175.2 109.7,175.5 110.7,175.8 112,176 112,186 109.5,185.9 107.1,185.6 104.8,184.9 102.6,183.8 100.6,182.3 98.9,180.5 97.7,178.3 96.8,176 96.2,173.5 96,171 " />
<polygon points="112,176 115.5,177.5 117,181 115.5,184.5 112,186 " />
<polygon points="112,176 179.3,176 179.3,186 112,186 " />
<polygon points="179.3,176 182.3,178 184.3,181 182.3,184 179.3,186 " />
<polygon points="174.3,177 179.3,159 181.3,159 179.3,177 " />
</g>
</svg>
