<svg xmlns="http://www.w3.org/2000/svg" xmlns:xlink="http://www.w3.org/1999/xlink" version="1.1" baseProfile="full" viewBox="0 0 200 200" width="200" height="200">
<g fill="black">
<polygon points="22,42 180,42 180,46 22,46 " />
<polygon points="180,42 156,44 168,32 " />
<polygon points="105,16 105,88 93,88 93,14 " />
<polygon points="105,16 108,18 105,20 " />
<polygon points="105,88 102.6,91.6 99,94 95.4,91.6 93,88 " />
<polygon points="104.9,87.8 104.2,104.4 101.6,119.6 97.1,133.5 90.8,146 82.7,156.9 72.9,166.3 61.3,174.1 48.2,180.3 33.4,184.9 17.1,187.8 16.8,186.1 32.3,181.3 46,175.4 57.9,168.5 67.9,160.6 76.2,151.5 82.8,141.3 87.7,129.9 91.1,117.3 92.8,103.4 93,88.1 " />
<polygon points="100,94.8 103.4,107.9 107.7,119.8 112.7,130.3 118.6,139.7 125.5,147.9 133.3,154.9 142,160.9 151.7,165.8 162.5,169.6 174.3,172.5 171.6,185.4 158.5,181.5 146.7,176.5 136,170.2 126.6,162.7 118.5,154 111.7,144.3 106.2,133.5 102.1,121.7 99.4,108.8 98.2,95.1 " />
<polygon points="171.6,185.4 174.3,172.5 183.3,174.4 " />
<polygon points="69.1,54.3 66.5,58.9 63.6,63.4 60.2,67.8 56.6,72.1 52.5,76.3 48.1,80.3 43.3,84.2 38.1,87.9 32.5,91.4 26.5,94.7 25.4,93.2 30.2,88.4 34.7,83.8 38.9,79.3 42.7,74.9 46.2,70.6 49.3,66.3 52,62 54.4,57.8 56.4,53.6 58,49.5 " />
<polygon points="58,49.5 69.1,54.3 58.6,48.2 " />
<polygon points="69.1,54.3 71,57.3 63.9,58.6 " />
<polygon points="53.2,68.6 57,69.9 60.7,71.1 64.2,72.4 67.5,74 70.7,75.7 73.6,77.5 76.3,79.4 78.9,81.5 81.2,83.8 83.4,86.2 73.3,92.7 72.3,90.5 71,88.4 69.6,86.2 67.8,84 65.9,81.7 63.7,79.4 61.3,77.1 58.6,74.8 55.7,72.3 52.5,70.2 " />
<polygon points="83.4,86.2 84.1,90.7 81.6,94.5 77.1,95.2 73.3,92.7 " />
<polygon points="69.1,96.3 66.5,100.9 63.6,105.4 60.2,109.8 56.6,114.1 52.5,118.3 48.1,122.3 43.3,126.2 38.1,129.9 32.5,133.4 26.5,136.7 25.4,135.2 30.2,130.4 34.7,125.8 38.9,121.3 42.7,116.9 46.2,112.6 49.3,108.3 52,104 54.4,99.8 56.4,95.6 58,91.5 " />
<polygon points="58,91.5 69.1,96.3 58.6,90.2 " />
<polygon points="69.1,96.3 71,99.3 63.9,100.6 " />
<polygon points="53.2,110.6 57,111.9 60.7,113.1 64.2,114.4 67.5,116 70.7,117.7 73.6,119.5 76.3,121.4 78.9,123.5 81.2,125.8 83.4,128.2 73.3,134.7 72.3,132.5 71,130.4 69.6,128.2 67.8,126 65.9,123.7 63.7,121.4 61.3,119.1 58.6,116.8 55.7,114.3 52.5,112.2 " />
<polygon points="83.4,128.2 84.1,132.7 81.6,136.5 77.1,137.2 73.3,134.7 " />
<polygon points="156.1,54.3 153.5,58.9 150.5,63.5 147.1,67.9 143.4,72.3 139.3,76.5 134.7,80.6 129.8,84.7 124.5,88.6 118.7,92.2 112.5,95.7 111.4,94.2 116.4,89.2 121,84.5 125.4,79.8 129.4,75.3 132.9,70.8 136.1,66.5 138.9,62.1 141.4,57.8 143.4,53.6 145,49.5 " />
<polygon points="145,49.5 156.1,54.3 145.6,48.2 " />
<polygon points="156.1,54.3 158,57.3 150.9,58.6 " />
<polygon points="140.2,68.6 144,69.9 147.7,71.1 151.2,72.4 154.5,74 157.7,75.7 160.6,77.5 163.3,79.4 165.9,81.5 168.2,83.8 170.4,86.2 160.3,92.7 159.3,90.5 158,88.4 156.6,86.2 154.8,84 152.9,81.7 150.7,79.4 148.3,77.1 145.6,74.8 142.7,72.3 139.5,70.2 " />
<polygon points="170.4,86.2 171.1,90.7 168.6,94.5 164.1,95.2 160.3,92.7 " />
<polygon points="156.1,96.3 153.6,100.8 150.8,105.3 147.7,109.5 144.3,113.7 140.6,117.7 136.6,121.5 132.4,125.1 127.8,128.6 122.8,131.8 117.5,134.7 116.4,133.2 120.4,128.8 124.2,124.6 127.8,120.4 131.1,116.3 134.1,112.2 136.9,108.1 139.3,104 141.5,99.8 143.4,95.7 145,91.5 " />
<polygon points="145,91.5 156.1,96.3 145.6,90.2 " />
<polygon points="156.1,96.3 158,99.3 150.9,100.6 " />
<polygon points="140.2,110.6 144,111.9 147.7,113.1 151.2,114.4 154.5,116 157.7,117.7 160.6,119.5 163.3,121.4 165.9,123.5 168.2,125.8 170.4,128.2 160.3,134.7 159.3,132.5 158,130.4 156.6,128.2 154.8,126 152.9,123.7 150.7,121.4 148.3,119.1 145.6,116.8 142.7,114.3 139.5,112.2 " />
<polygon points="170.4,128.2 171.1,132.7 168.6,136.5 164.1,137.2 160.3,134.7 " />
</g>
</svg>
