<svg xmlns="http://www.w3.org/2000/svg" xmlns:xlink="http://www.w3.org/1999/xlink" version="1.1" baseProfile="full" viewBox="0 0 200 200" width="200" height="200">
<g fill="black">
<polygon points="56,33 56,58 44,64 44,27 " />
<polygon points="50,33 150,33 150,37 50,37 " />
<polygon points="156,35 156,58 144,64 144,35 " />
<polygon points="144,33 150,28 161,37 156,41 144,35 " />
<polygon points="19,69 186,69 186,73 19,73 " />
<polygon points="186,69 166,71 176,60 " />
<polygon points="56,85 56,114 44,120 44,79 " />
<polygon points="50,85 150,85 150,89 50,89 " />
<polygon points="156,87 156,113 144,119 144,87 " />
<polygon points="144,85 150,80 161,89 156,93 144,87 " />
<polygon points="50,107 150,107 150,111 50,111 " />
<polygon points="19,131 182,131 182,135 19,135 " />
<polygon points="182,131 158,133 170,121 " />
<polygon points="141,133 139.2,135.8 132.4,146 124.3,155.2 115,163.2 104.6,170.2 93,176 80.4,180.8 66.7,184.5 51.9,187.1 36,188.6 19,188.8 18.9,187.1 35.6,184.8 50.9,181.8 65,178.1 77.8,173.7 89.4,168.4 99.6,162.3 108.7,155.4 116.5,147.8 123.2,139.3 126.9,133 " />
<polygon points="99.5,117 69.6,163.7 56.3,162.2 90.4,108.9 " />
<polygon points="99.5,117 100.9,120.3 95.6,120.9 " />
<polygon points="66,152.1 76.3,152.3 86.3,153.1 96.1,154.4 105.7,156.3 115.1,158.5 124.2,161.2 133.2,164.4 141.8,167.9 150.3,171.9 158.5,176.3 152.3,186.5 144.9,181.9 137.2,177.6 129.2,173.6 121,170 112.5,166.6 103.8,163.6 94.7,160.9 85.4,158.4 75.8,156.1 65.9,153.9 " />
<polygon points="158.5,176.3 161.2,180 160.5,184.5 156.8,187.2 152.3,186.5 " />
<polygon points="106,16 106,111 94,111 94,14 " />
<polygon points="106,16 109,18 104,21 " />
<polygon points="50,54 150,54 150,58 50,58 " />
</g>
</svg>
