<svg xmlns="http://www.w3.org/2000/svg" xmlns:xlink="http://www.w3.org/1999/xlink" version="1.1" baseProfile="full" viewBox="0 0 200 200" width="200" height="200">
<g fill="black">
<polygon points="171.8,22.3 160.9,29.8 149.1,37 136.4,43.8 122.9,50.3 108.4,56.5 93.2,62.3 77,67.8 60,73 42,77.6 23.2,81.8 22.7,80.1 41,74 58.3,67.9 74.8,61.6 90.4,55.3 105.1,48.7 118.8,41.9 131.6,35 143.5,27.8 154.5,20.4 164.5,12.8 " />
<polygon points="164.5,12.8 171.8,22.3 164.6,12.8 " />
<polygon points="171.8,22.3 172,25.9 165.2,23.6 " />
<polygon points="47.2,24.4 60.3,27.3 72.9,30.7 85.1,34.5 96.8,38.7 108.1,43.2 119,48.1 129.4,53.2 139.4,58.6 149,64.3 158.1,70.3 151,80 142.6,73.8 133.8,67.8 124.5,62 114.8,56.3 104.5,50.9 93.9,45.7 82.7,40.7 71.1,35.7 59.1,30.9 46.7,26.1 " />
<polygon points="158.1,70.3 160.4,74.3 159.4,78.7 155.4,81 151,80 " />
<polygon points="15,87 186,87 186,91 15,91 " />
<polygon points="186,87 162,89 174,77 " />
<polygon points="88.8,73.6 84.2,81.4 78.9,89 73,96.6 66.5,104 59.4,111.3 51.7,118.5 43.4,125.6 34.4,132.5 24.8,139.2 14.5,145.7 13.4,144.2 22.5,136.2 31,128.4 39,120.7 46.4,113.1 53.2,105.5 59.4,98 65,90.5 70,83 74.4,75.5 78.2,68.1 " />
<polygon points="78.2,68.1 88.8,73.6 78.7,67 " />
<polygon points="88.8,73.6 90.6,76.7 83.4,77.5 " />
<polygon points="62.4,108 148.2,108 148.2,112 62.4,112 " />
<polygon points="151.4,115.1 147.8,116.8 144.3,118.5 140.6,120.2 136.8,121.9 132.9,123.5 129,125.1 124.9,126.6 120.7,128.1 116.4,129.4 112,130.8 111.3,129.1 115,126.5 118.5,123.8 122.1,121.3 125.6,118.8 129,116.4 132.4,114 135.7,111.7 138.9,109.4 142,107.1 145,104.8 " />
<polygon points="142.2,108 148.2,103 159.2,112 154.2,116 148.2,116 " />
<polygon points="116,127 116,173 104,173 104,125 " />
<polygon points="116,127 119,129 116,131 " />
<polygon points="116,173 113.6,176.6 110,179 106.4,176.6 104,173 " />
<polygon points="116,173 115.8,175.5 115.4,178 114.6,180.4 113.3,182.7 111.7,184.7 109.7,186.3 107.4,187.6 105,188.4 102.5,188.8 100,189 100,177 101.2,176.9 102.1,176.7 102.7,176.5 103,176.4 103.2,176.2 103.4,176 103.5,175.7 103.7,175.1 103.9,174.2 104,173 " />
<polygon points="100,183 100,177 80,177 80,180 " />
<polygon points="36,142 184.8,142 184.8,146 36,146 " />
<polygon points="184.8,142 160.8,144 172.8,132 " />
</g>
</svg>
