<svg xmlns="http://www.w3.org/2000/svg" xmlns:xlink="http://www.w3.org/1999/xlink" version="1.1" baseProfile="full" viewBox="0 0 200 200" width="200" height="200">
<g fill="black">
<polygon points="141.3,23.6 133.2,27.9 124.3,32.1 114.7,36.2 104.2,40.2 92.9,44.1 80.9,47.8 67.9,51.4 54.2,54.8 39.6,58 24.2,60.8 23.7,59.1 38.7,54.3 52.7,49.6 66,45.1 78.5,40.6 90,36.1 100.8,31.6 110.6,27.1 119.6,22.5 127.7,17.9 134.9,13.4 " />
<polygon points="134.9,13.4 141.3,23.6 142.5,22.8 " />
<polygon points="142.5,22.8 142.7,26.2 135.6,23.6 " />
<polygon points="51.1,20.3 62.6,21.8 74,23.7 85.4,26 96.8,28.6 108.2,31.4 119.6,34.5 131,37.9 142.5,41.4 153.9,45.2 165.3,49.3 161,60.5 149.9,55.9 138.9,51.6 127.8,47.4 116.8,43.4 105.8,39.5 94.7,35.9 83.7,32.3 72.7,28.9 61.7,25.5 50.7,22 " />
<polygon points="165.3,49.3 168.6,52.5 168.7,57 165.5,60.3 161,60.5 " />
<polygon points="147.2,65.6 137.5,70.7 127.1,75.6 115.8,80.4 103.8,84.9 90.9,89.3 77.2,93.5 62.7,97.5 47.4,101.3 31.2,104.7 14.2,107.8 13.7,106.1 30.3,101 46,96.1 60.8,91.2 74.9,86.3 88.1,81.3 100.4,76.3 111.8,71.2 122.4,66 132.2,60.7 141,55.3 " />
<polygon points="141,55.3 147.2,65.6 148.7,64.7 " />
<polygon points="148.7,64.7 148.9,68.1 141.7,65.4 " />
<polygon points="46.1,61.3 58.3,63 70.6,65.3 83.1,68 95.9,71.2 108.8,74.7 121.9,78.5 135.2,82.7 148.8,87.2 162.5,92.1 176.4,97.3 171.9,108.4 158.4,102.7 145,97.3 131.9,92.2 118.9,87.3 106.2,82.8 93.7,78.4 81.4,74.4 69.3,70.5 57.4,66.7 45.7,63 " />
<polygon points="176.4,97.3 179.6,100.5 179.7,105.1 176.5,108.3 171.9,108.4 " />
<polygon points="44,108 145,108 145,112 44,112 " />
<polygon points="147.7,115.3 143.7,117 139.5,118.7 135.3,120.4 130.9,122.1 126.5,123.7 121.9,125.3 117.2,126.9 112.4,128.3 107.4,129.6 102.3,130.8 101.6,129.1 106,126.3 110.3,123.6 114.6,121 118.8,118.6 122.9,116.2 127,113.8 130.9,111.5 134.8,109.2 138.5,106.9 142.2,104.6 " />
<polygon points="139,108 145,103 156,112 151,116 145,116 " />
<polygon points="106,127 106,173 94,173 94,125 " />
<polygon points="106,127 109,129 106,131 " />
<polygon points="106,173 103.6,176.6 100,179 96.4,176.6 94,173 " />
<polygon points="106,173 105.8,175.5 105.4,178 104.6,180.4 103.3,182.7 101.7,184.7 99.7,186.3 97.4,187.6 95,188.4 92.5,188.8 90,189 90,177 91.2,176.9 92.1,176.7 92.7,176.5 93,176.4 93.2,176.2 93.4,176 93.5,175.7 93.7,175.1 93.9,174.2 94,173 " />
<polygon points="90,183 90,177 70,177 70,180 " />
<polygon points="13,142 188,142 188,146 13,146 " />
<polygon points="188,142 164,144 176,132 " />
</g>
</svg>
