<svg xmlns="http://www.w3.org/2000/svg" xmlns:xlink="http://www.w3.org/1999/xlink" version="1.1" baseProfile="full" viewBox="0 0 200 200" width="200" height="200">
<g fill="black">
<polygon points="106,15 106,55 94,61 94,13 " />
<polygon points="106,15 109,17 106,19 " />
<polygon points="76.2,31.3 72.3,35.8 68,40.1 63.4,44.2 58.4,48.2 53.2,52 47.5,55.6 41.6,59 35.2,62.3 28.5,65.2 21.4,67.8 20.5,66.1 26.7,61.8 32.5,57.6 38,53.5 43.1,49.4 47.9,45.3 52.4,41.2 56.5,37 60.2,32.7 63.5,28.5 66.5,24.2 " />
<polygon points="66.5,24.2 76.2,31.3 67,23.6 " />
<polygon points="76.2,31.3 77.4,34.7 70.2,34.4 " />
<polygon points="121.2,26.5 128.1,28.4 134.8,30.7 141.2,33.3 147.3,36.1 153.2,39.2 158.8,42.5 164.2,46 169.4,49.6 174.4,53.5 179.1,57.6 170.6,66.1 166.7,61.9 162.6,57.9 158.2,53.9 153.5,50.1 148.6,46.3 143.5,42.7 138.1,39.1 132.4,35.5 126.6,31.9 120.5,28.2 " />
<polygon points="179.1,57.6 180.8,61.8 179.1,66.1 174.8,67.8 170.6,66.1 " />
<polygon points="93.6,61.6 91.5,63.1 89.2,64.7 86.9,66.2 84.5,67.7 82,69.3 79.3,70.8 76.5,72.3 73.6,73.8 70.5,75.2 67.5,76.9 66.4,75.4 68.9,73.1 71.1,70.5 73.2,68.1 75.2,65.7 77.1,63.5 78.9,61.3 80.6,59.2 82.2,57.1 83.6,55.1 84.9,53.2 " />
<polygon points="84.9,53.2 93.6,61.6 85.3,52.9 " />
<polygon points="93.6,61.6 94.3,65.1 87.2,63.8 " />
<polygon points="53,74.2 53,141.6 41,147.6 41,68.2 " />
<polygon points="47,74.2 154,74.2 154,78.2 47,78.2 " />
<polygon points="160,76.2 160,133.6 148,139.6 148,76.2 " />
<polygon points="148,74.2 154,69.2 165,78.2 160,82.2 148,76.2 " />
<polygon points="47,98.7 154,98.7 154,102.7 47,102.7 " />
<polygon points="47,125.6 154,125.6 154,129.6 47,129.6 " />
<polygon points="107,125.6 107,172.3 95,172.3 95,125.6 " />
<polygon points="107,172.3 104.6,175.9 101,178.3 97.4,175.9 95,172.3 " />
<polygon points="107,172.3 106.8,174.8 106.4,177.3 105.6,179.7 104.3,182 102.7,184 100.7,185.7 98.4,186.9 96,187.7 93.5,188.1 91,188.3 91,176.3 92.2,176.2 93.1,176 93.7,175.9 94,175.7 94.2,175.5 94.4,175.3 94.5,175 94.7,174.4 94.9,173.5 95,172.3 " />
<polygon points="91,182.3 91,176.3 71,176.3 71,179.3 " />
<polygon points="75.1,151 69.8,155 64.2,158.7 58.5,162.4 52.5,165.8 46.4,169 40,172 33.4,174.9 26.6,177.4 19.6,179.7 12.3,181.6 11.6,179.9 18.1,176.2 24.4,172.6 30.5,169 36.4,165.3 42.1,161.7 47.6,157.9 52.9,154 57.9,150.1 62.7,146 67.3,141.9 " />
<polygon points="67.3,141.9 75.1,151 67.4,141.7 " />
<polygon points="75.1,151 75.5,154.6 68.6,152.6 " />
<polygon points="125.2,144.5 132.8,146.3 140.1,148.4 146.9,150.7 153.4,153.2 159.6,155.9 165.5,158.7 171,161.6 176.2,164.7 181.1,167.9 185.6,171.2 177.8,180.3 174.1,176.9 170,173.5 165.6,170.1 160.8,166.7 155.6,163.4 150.1,160 144.2,156.7 138,153.3 131.4,149.8 124.6,146.2 " />
<polygon points="185.6,171.2 187.6,175.3 186.2,179.7 182.1,181.7 177.8,180.3 " />
</g>
</svg>
