<svg xmlns="http://www.w3.org/2000/svg" xmlns:xlink="http://www.w3.org/1999/xlink" version="1.1" baseProfile="full" viewBox="0 0 200 200" width="200" height="200">
<g fill="black">
<polygon points="106,16.8 106,53.1 94,53.1 94,14.8 " />
<polygon points="106,16.8 109,18.8 104,21.8 " />
<polygon points="106,53.1 103.6,56.7 100,59.1 96.4,56.7 94,53.1 " />
<polygon points="106,53.1 105.8,55.6 105.4,58.1 104.6,60.5 103.3,62.8 101.7,64.8 99.7,66.5 97.4,67.7 95,68.5 92.5,68.9 90,69.1 90,57.1 91.2,57 92.1,56.9 92.7,56.7 93,56.5 93.2,56.3 93.4,56.1 93.5,55.8 93.7,55.2 93.9,54.3 94,53.1 " />
<polygon points="90,63.1 90,57.1 70,57.1 70,60.1 " />
<polygon points="60.4,36.2 57.7,39.6 54.5,43 51,46.4 47.1,49.7 42.9,53.1 38.2,56.4 33.2,59.8 27.7,63.1 21.8,66.2 15.4,69.3 14.5,67.7 19.7,63.1 24.6,58.7 29.2,54.5 33.4,50.6 37.3,46.7 40.7,43 43.7,39.5 46.4,36 48.6,32.8 50.4,29.7 " />
<polygon points="49.8,30.5 60.4,36.2 50.9,28.9 " />
<polygon points="60.4,36.2 61.9,39.5 56.1,39.3 " />
<polygon points="136.2,27.7 142.4,29.3 148.3,31.1 153.7,33.1 158.8,35.2 163.5,37.5 167.8,39.9 171.8,42.4 175.5,45.1 178.8,47.9 181.8,50.8 172.4,58.3 170.5,55.7 168.3,53 165.6,50.3 162.5,47.5 159,44.6 155,41.8 150.7,38.8 146,35.8 141,32.7 135.5,29.4 " />
<polygon points="181.8,50.8 183,55.2 180.8,59.2 176.4,60.4 172.4,58.3 " />
<polygon points="152.5,55.6 144.7,62 135.5,67.8 124.9,72.9 113,77.4 99.7,81.3 85,84.6 68.9,87.4 51.4,89.6 32.4,91.1 12,91.9 11.9,90.1 32,87.3 50.6,84.3 67.7,80.9 83.3,77.2 97.3,73.1 109.8,68.6 120.7,63.8 130.1,58.5 137.8,53 144,47.2 " />
<polygon points="143.3,47.9 152.5,55.6 144.3,46.9 " />
<polygon points="152.5,55.6 153.3,59.1 147.6,57.8 " />
<polygon points="49,93.5 49,142.3 37,148.3 37,87.5 " />
<polygon points="43,93.5 157,93.5 157,97.5 43,97.5 " />
<polygon points="163,95.5 163,139.4 151,145.4 151,95.5 " />
<polygon points="151,93.5 157,88.5 168,97.5 163,101.5 151,95.5 " />
<polygon points="43,111.8 157,111.8 157,115.8 43,115.8 " />
<polygon points="43,133.4 157,133.4 157,137.4 43,137.4 " />
<polygon points="108,135.5 108,172.6 96,172.6 96,135.5 " />
<polygon points="108,172.6 105.6,176.2 102,178.6 98.4,176.2 96,172.6 " />
<polygon points="108,172.6 107.8,175.2 107.4,177.7 106.6,180.1 105.3,182.3 103.7,184.3 101.7,186 99.4,187.2 97,188 94.5,188.5 92,188.6 92,176.6 93.2,176.5 94.1,176.4 94.7,176.2 95,176 95.2,175.9 95.4,175.7 95.5,175.3 95.7,174.7 95.9,173.8 96,172.6 " />
<polygon points="92,182.6 92,176.6 72,176.6 72,179.6 " />
<polygon points="68.9,158 63.7,161.6 58.4,165 53.1,168.1 47.7,171 42.3,173.6 36.8,176 31.2,178 25.6,179.7 20,181 14.2,181.9 13.7,180.2 18.7,177.4 23.6,174.7 28.6,172 33.4,169.2 38.2,166.2 43,163 47.7,159.7 52.3,156.2 56.9,152.5 61.4,148.6 " />
<polygon points="60.6,149.2 68.9,158 61.5,148.5 " />
<polygon points="68.9,158 69.2,161.6 63.8,159.5 " />
<polygon points="129.1,153.1 135.6,153.6 141.8,154.5 147.6,155.7 153.1,157.1 158.3,158.7 163.2,160.5 167.8,162.6 172.1,164.8 176,167.2 179.7,169.8 171.7,178.8 169.1,176.2 166.2,173.7 162.8,171.3 159.1,168.9 154.9,166.5 150.4,164.2 145.5,161.9 140.3,159.6 134.7,157.3 128.7,154.8 " />
<polygon points="179.7,169.8 181.6,174 180.2,178.3 176,180.2 171.7,178.8 " />
</g>
</svg>
