<svg xmlns="http://www.w3.org/2000/svg" xmlns:xlink="http://www.w3.org/1999/xlink" version="1.1" baseProfile="full" viewBox="0 0 200 200" width="200" height="200">
<g fill="black">
<polygon points="106,15 106,77 94,77 94,13 " />
<polygon points="106,15 109,17 106,19 " />
<polygon points="76.1,31.4 72.2,35.7 68,39.9 63.4,43.9 58.5,47.9 53.2,51.7 47.6,55.5 41.6,59.1 35.3,62.5 28.5,65.8 21.4,68.7 20.5,67.2 26.6,62.5 32.4,58 37.9,53.6 43.1,49.3 47.9,45.1 52.4,40.8 56.5,36.6 60.2,32.4 63.6,28.2 66.6,24.1 " />
<polygon points="66.6,24.1 76.1,31.4 67,23.5 " />
<polygon points="76.1,31.4 77.2,34.8 70,34.3 " />
<polygon points="120.2,26.5 127.1,28.4 133.8,30.6 140.1,33.2 146.1,35.9 151.9,38.9 157.5,42.1 162.7,45.5 167.8,49 172.5,52.7 177.1,56.6 168.6,65.1 164.9,61.1 160.9,57.3 156.7,53.5 152.2,49.8 147.4,46.1 142.3,42.5 137,39 131.4,35.4 125.6,31.8 119.5,28.2 " />
<polygon points="177.1,56.6 178.8,60.8 177.1,65.1 172.8,66.8 168.6,65.1 " />
<polygon points="48.7,74 48.7,135.7 36.7,141.7 36.7,68 " />
<polygon points="42.7,74 157.2,74 157.2,78 42.7,78 " />
<polygon points="163.2,76 163.2,127.7 151.2,133.7 151.2,76 " />
<polygon points="151.2,74 157.2,69 168.2,78 163.2,82 151.2,76 " />
<polygon points="42.7,96.2 157.2,96.2 157.2,100.2 42.7,100.2 " />
<polygon points="42.7,119.7 157.2,119.7 157.2,123.7 42.7,123.7 " />
<polygon points="106,120 106,172 94,172 94,120 " />
<polygon points="106,172 103.6,175.6 100,178 96.4,175.6 94,172 " />
<polygon points="106,172 105.8,174.5 105.4,177 104.6,179.4 103.3,181.7 101.7,183.7 99.7,185.3 97.4,186.6 95,187.4 92.5,187.8 90,188 90,176 91.2,175.9 92.1,175.7 92.7,175.5 93,175.4 93.2,175.2 93.4,175 93.5,174.7 93.7,174.1 93.9,173.2 94,172 " />
<polygon points="90,182 90,176 70,176 70,179 " />
<polygon points="72.3,145.1 67.3,149 62.2,152.7 56.8,156.3 51.2,159.6 45.5,162.8 39.5,165.7 33.3,168.4 26.9,170.9 20.2,173 13.3,174.8 12.6,173.1 18.7,169.5 24.6,166 30.3,162.6 35.8,159.1 41.1,155.5 46.1,151.8 51,148.1 55.6,144.2 60,140.3 64.2,136.2 " />
<polygon points="64.2,136.2 72.3,145.1 64.4,136 " />
<polygon points="72.3,145.1 72.8,148.6 65.8,146.9 " />
<polygon points="124.2,138.4 130.3,139.5 136.4,141.1 142.4,143 148.3,145.3 154.1,147.8 159.9,150.7 165.6,153.7 171.2,157 176.8,160.6 182.3,164.4 174.9,173.8 170.1,169.8 165.2,165.9 160.2,162.2 155.2,158.7 150.1,155.3 144.9,152.1 139.7,149 134.4,146 129,143.1 123.6,140.1 " />
<polygon points="182.3,164.4 184.5,168.4 183.3,172.8 179.3,175 174.9,173.8 " />
</g>
</svg>
