<svg xmlns="http://www.w3.org/2000/svg" xmlns:xlink="http://www.w3.org/1999/xlink" version="1.1" baseProfile="full" viewBox="0 0 200 200" width="200" height="200">
<g fill="black">
<polygon points="22,62 180,62 180,66 22,66 " />
<polygon points="180,62 156,64 168,52 " />
<polygon points="101,19 101,57 89,57 89,17 " />
<polygon points="101,19 104,21 101,23 " />
<polygon points="101,57 98.6,60.6 95,63 91.4,60.6 89,57 " />
<polygon points="101,57 99.8,78.2 97.1,97.7 92.7,115.5 86.6,131.6 78.8,145.9 69.4,158.4 58.4,169 45.8,177.6 31.7,184.2 16.2,188.8 15.7,187.1 30.2,180.8 43,173.1 54.1,164 63.6,153.5 71.6,141.5 78,127.9 83,112.7 86.5,95.8 88.5,77.2 89,57 " />
<polygon points="91,97 123,97 123,101 91,101 " />
<polygon points="129,99 129,168 117,168 117,99 " />
<polygon points="117,97 123,92 134,101 129,105 117,99 " />
<polygon points="129,168 126.6,171.6 123,174 119.4,171.6 117,168 " />
<polygon points="129,168 129,169.2 129.2,170.1 129.4,170.7 129.5,171 129.7,171.2 129.9,171.4 130.2,171.5 130.8,171.7 131.7,171.9 133,172 133,184 130.4,183.8 127.9,183.4 125.5,182.6 123.2,181.3 121.2,179.7 119.6,177.7 118.3,175.4 117.5,173 117.1,170.5 117,168 " />
<polygon points="133,172 137.2,173.8 139,178 137.2,182.2 133,184 " />
<polygon points="133,172 178,172 178,184 133,184 " />
<polygon points="178,172 181.6,174.4 184,178 181.6,181.6 178,184 " />
<polygon points="172,173 178,147 180,147 178,173 " />
</g>
</svg>
