<svg xmlns="http://www.w3.org/2000/svg" xmlns:xlink="http://www.w3.org/1999/xlink" version="1.1" baseProfile="full" viewBox="0 0 200 200" width="200" height="200">
<g fill="black">
<polygon points="41,32 158,32 158,36 41,36 " />
<polygon points="164,34 164,90 152,96 152,34 " />
<polygon points="152,32 158,27 169,36 164,40 152,34 " />
<polygon points="51,80 158,80 158,84 51,84 " />
<polygon points="57,80 57,101 45,101 45,74 " />
<polygon points="57,101 54.6,104.6 51,107 47.4,104.6 45,101 " />
<polygon points="56.9,101 56.1,113.4 54.6,125 52.4,135.8 49.5,145.8 45.9,155 41.6,163.4 36.6,170.9 30.9,177.6 24.5,183.2 17.5,187.7 16.4,186.2 21.9,180.4 26.8,174.1 31.1,167.3 34.9,159.9 38,151.9 40.6,143.2 42.6,133.7 44,123.5 44.8,112.6 45,100.9 " />
</g>
</svg>
