<svg xmlns="http://www.w3.org/2000/svg" xmlns:xlink="http://www.w3.org/1999/xlink" version="1.1" baseProfile="full" viewBox="0 0 200 200" width="200" height="200">
<g fill="black">
<polygon points="106,16.7 106,69.4 94,69.4 94,14.7 " />
<polygon points="106,16.7 109,18.7 106,20.7 " />
<polygon points="43.9,30.8 43.9,76.4 31.9,82.4 31.9,28.8 " />
<polygon points="43.9,30.8 46.9,32.8 43.9,34.8 " />
<polygon points="37.9,65.4 162,65.4 162,69.4 37.9,69.4 " />
<polygon points="168,30.8 168,73.4 156,79.4 156,28.8 " />
<polygon points="168,30.8 171,32.8 168,34.8 " />
<polygon points="14,90.5 186.9,90.5 186.9,94.5 14,94.5 " />
<polygon points="186.9,90.5 162.9,92.5 174.9,80.5 " />
<polygon points="76,109.9 76,132.7 64,132.7 64,103.9 " />
<polygon points="76,132.7 73.6,136.3 70,138.7 66.4,136.3 64,132.7 " />
<polygon points="75.9,133.2 74.3,141.8 71.8,149.8 68.4,157 64.2,163.5 59.1,169.2 53.1,174.1 46.5,178.2 39.1,181.4 30.9,183.6 22.1,185 21.8,183.3 29.8,180 36.8,176.5 43,172.5 48.4,168.2 52.8,163.4 56.5,158.2 59.5,152.5 61.7,146.3 63.2,139.5 64,132.1 " />
<polygon points="70,109.9 127,109.9 127,113.9 70,113.9 " />
<polygon points="133,111.9 133,165.2 121,165.2 121,111.9 " />
<polygon points="121,109.9 127,104.9 138,113.9 133,117.9 121,111.9 " />
<polygon points="133,165.2 130.6,168.8 127,171.2 123.4,168.8 121,165.2 " />
<polygon points="133,165.2 133,166.5 133.2,167.4 133.4,168 133.5,168.3 133.7,168.5 133.9,168.6 134.2,168.8 134.8,169 135.7,169.2 137,169.2 137,181.2 134.4,181.1 131.9,180.7 129.5,179.8 127.2,178.6 125.2,177 123.6,175 122.3,172.7 121.5,170.3 121.1,167.8 121,165.2 " />
<polygon points="137,169.2 141.2,171 143,175.2 141.2,179.4 137,181.2 " />
<polygon points="137,169.2 175,169.2 175,181.2 137,181.2 " />
<polygon points="175,169.2 178.6,171.6 181,175.2 178.6,178.8 175,181.2 " />
<polygon points="169,170.2 175,144.2 177,144.2 175,170.2 " />
</g>
</svg>
