<svg xmlns="http://www.w3.org/2000/svg" xmlns:xlink="http://www.w3.org/1999/xlink" version="1.1" baseProfile="full" viewBox="0 0 200 200" width="200" height="200">
<g fill="black">
<polygon points="106,17.3 106,71.7 94,71.7 94,15.3 " />
<polygon points="106,17.3 109,19.3 104,22.3 " />
<polygon points="43.9,31.8 43.9,78.7 31.9,84.7 31.9,29.8 " />
<polygon points="43.9,31.8 46.9,33.8 41.9,36.8 " />
<polygon points="37.9,67.7 162,67.7 162,71.7 37.9,71.7 " />
<polygon points="168,31.8 168,75.7 156,81.7 156,29.8 " />
<polygon points="168,31.8 171,33.8 166,36.8 " />
<polygon points="22,92.5 179,92.5 179,96.5 22,96.5 " />
<polygon points="179,92.5 155,94.5 167,82.5 " />
<polygon points="78,97.4 78,136.1 66,136.1 66,95.4 " />
<polygon points="78,97.4 81,99.4 76,102.4 " />
<polygon points="78,136.1 75.6,139.7 72,142.1 68.4,139.7 66,136.1 " />
<polygon points="78,136.1 77.1,143.9 75.1,151.2 72,158 67.9,164.3 62.8,169.9 56.7,174.9 49.7,179.3 41.8,183 33,186.2 23.2,188.6 22.7,186.9 31.6,182.6 39.4,178.3 46.2,173.7 51.9,169 56.6,164.1 60.3,158.9 63,153.6 64.9,148.1 65.8,142.3 66,136.1 " />
<polygon points="128,92.5 128,171.5 116,171.5 116,92.5 " />
<polygon points="128,171.5 125.6,175.1 122,177.5 118.4,175.1 116,171.5 " />
<polygon points="128,171.5 128,172.7 128.2,173.6 128.4,174.2 128.5,174.5 128.7,174.7 128.9,174.9 129.2,175 129.8,175.2 130.7,175.4 132,175.5 132,187.5 129.4,187.3 126.9,186.9 124.5,186.1 122.2,184.9 120.2,183.2 118.6,181.2 117.3,178.9 116.5,176.5 116.1,174 116,171.5 " />
<polygon points="132,175.5 136.2,177.3 138,181.5 136.2,185.7 132,187.5 " />
<polygon points="132,175.5 175,175.5 175,187.5 132,187.5 " />
<polygon points="175,175.5 178.6,177.9 181,181.5 178.6,185.1 175,187.5 " />
<polygon points="169,176.5 175,150.5 177,150.5 175,176.5 " />
</g>
</svg>
