<svg xmlns="http://www.w3.org/2000/svg" xmlns:xlink="http://www.w3.org/1999/xlink" version="1.1" baseProfile="full" viewBox="0 0 200 200" width="200" height="200">
<g fill="black">
<polygon points="42,26 144,26 144,30 42,30 " />
<polygon points="149,31.2 140,43.4 130,54.8 119,65.2 107.1,74.8 94.3,83.5 80.5,91.3 65.8,98.1 50.2,104.1 33.6,109 16.2,112.8 15.7,111.1 32.5,105.3 48.3,99 63.1,92.2 76.8,84.6 89.6,76.4 101.4,67.5 112.2,57.9 122.1,47.5 131,36.5 138.9,24.7 " />
<polygon points="138,26 144,21 155,30 150,34 144,34 " />
<polygon points="105.2,70.4 114,72.3 122.5,74.5 130.7,77 138.5,79.8 146.1,82.8 153.5,85.9 160.5,89.3 167.3,92.8 173.8,96.5 180,100.3 173,110.1 167.5,106 161.7,102 155.6,98 149.2,94.2 142.5,90.4 135.5,86.7 128.2,83.1 120.6,79.5 112.7,75.9 104.6,72.1 " />
<polygon points="180,100.3 182.4,104.2 181.4,108.7 177.5,111.1 173,110.1 " />
<polygon points="33,123 167,123 167,127 33,127 " />
<polygon points="167,123 143,125 155,113 " />
<polygon points="106,123 106,179 94,179 94,123 " />
<polygon points="18,175 182,175 182,179 18,179 " />
<polygon points="182,175 158,177 170,165 " />
</g>
</svg>
