<svg xmlns="http://www.w3.org/2000/svg" xmlns:xlink="http://www.w3.org/1999/xlink" version="1.1" baseProfile="full" viewBox="0 0 200 200" width="200" height="200">
<g fill="black">
<polygon points="138.5,61.8 131.5,70.7 123.5,78.9 114.3,86.2 104,92.8 92.7,98.7 80.3,103.7 66.9,108.1 52.4,111.6 36.8,114.4 20.1,116.2 19.8,114.5 36,110.7 51,106.4 64.8,101.8 77.5,96.7 88.9,91.1 99.2,84.9 108.2,78.3 116.1,71.1 122.8,63.5 128.4,55.3 " />
<polygon points="127.8,56.2 138.5,61.8 128.9,54.5 " />
<polygon points="138.5,61.8 139.9,65.1 134.1,65 " />
<polygon points="64.2,56.9 71.3,64.7 79.1,71.7 87.7,78.1 97.3,83.8 107.8,88.8 119.4,93.2 132.1,96.9 145.8,100 160.7,102.3 176.6,104 175.3,117.1 158.8,114.7 143.3,111.5 129,107.5 115.9,102.8 103.8,97.3 93,91 83.4,83.9 75.1,76 68.1,67.3 62.7,57.9 " />
<polygon points="175.3,117.1 176.6,104 187.2,105 " />
<polygon points="145.6,20.6 136.2,26.4 126.3,31.7 115.9,36.6 104.9,41.1 93.5,45.2 81.5,48.9 68.9,52.1 55.9,54.8 42.2,57 28.1,58.6 27.8,56.9 41.5,53.3 54.6,49.6 67.2,45.8 79.1,41.7 90.5,37.3 101.3,32.6 111.6,27.6 121.2,22.3 130.2,16.7 138.7,10.8 " />
<polygon points="137.9,11.4 145.6,20.6 145.9,20.4 " />
<polygon points="145.9,20.4 146,24 140.6,21.7 " />
<polygon points="51.1,17.5 63.6,19.2 75.6,21.3 87.2,23.7 98.3,26.5 109.1,29.4 119.5,32.6 129.5,36 139.1,39.6 148.3,43.4 157,47.4 151.5,58.1 143.4,53.7 134.8,49.5 125.8,45.3 116.3,41.3 106.4,37.5 96.1,33.7 85.4,30.1 74.3,26.5 62.7,22.9 50.7,19.2 " />
<polygon points="157,47.4 159.9,51 159.6,55.5 156.1,58.4 151.5,58.1 " />
<polygon points="108,115 108,184 96,190 96,113 " />
<polygon points="108,115 111,117 106,120 " />
<polygon points="50,130 50,176 38,182 38,124 " />
<polygon points="44,130 162,130 162,134 44,134 " />
<polygon points="168,132 168,164 156,164 156,132 " />
<polygon points="156,130 162,125 173,134 168,138 156,132 " />
<polygon points="168,164 165.6,167.6 162,170 158.4,167.6 156,164 " />
<polygon points="168,164 167.8,166.5 167.4,169 166.6,171.4 165.3,173.7 163.7,175.7 161.7,177.3 159.4,178.6 157,179.4 154.5,179.8 152,180 152,168 153.2,167.9 154.1,167.7 154.7,167.5 155,167.4 155.2,167.2 155.4,167 155.5,166.7 155.7,166.1 155.9,165.2 156,164 " />
<polygon points="152,174 152,168 132,168 132,171 " />
</g>
</svg>
