<svg xmlns="http://www.w3.org/2000/svg" xmlns:xlink="http://www.w3.org/1999/xlink" version="1.1" baseProfile="full" viewBox="0 0 200 200" width="200" height="200">
<g fill="black">
<polygon points="152.2,27 141.6,28.8 130.8,30.5 119.9,32.1 108.8,33.5 97.5,34.7 86.2,35.8 74.6,36.7 62.9,37.4 51,37.8 39,37.8 38.9,36.1 50.7,34 62.3,32 73.9,30.2 85.2,28.3 96.4,26.3 107.4,24.3 118.2,22.2 128.9,20 139.4,17.7 149.8,15.3 " />
<polygon points="149.8,15.3 152.2,27 160.6,25.3 " />
<polygon points="160.6,25.3 161,28.3 152.5,23.9 " />
<polygon points="17,51 185,51 185,55 17,55 " />
<polygon points="185,51 161,53 173,41 " />
<polygon points="56,70 56,143 44,149 44,64 " />
<polygon points="50,70 150,70 150,74 50,74 " />
<polygon points="156,72 156,137 144,143 144,72 " />
<polygon points="144,70 150,65 161,74 156,78 144,72 " />
<polygon points="50,127 150,127 150,131 50,131 " />
<polygon points="50,98 150,98 150,102 50,102 " />
<polygon points="107,26 107,182 95,188 95,26 " />
</g>
</svg>
