<svg xmlns="http://www.w3.org/2000/svg" xmlns:xlink="http://www.w3.org/1999/xlink" version="1.1" baseProfile="full" viewBox="0 0 200 200" width="200" height="200">
<g fill="black">
<polygon points="111,14 111,39 99,39 99,12 " />
<polygon points="111,14 114,16 109,19 " />
<polygon points="34,35 188,35 188,39 34,39 " />
<polygon points="188,35 164,37 176,25 " />
<polygon points="40,35 40,96 28,96 28,29 " />
<polygon points="40,96 37.6,99.6 34,102 30.4,99.6 28,96 " />
<polygon points="40,96 39.4,109.1 38.4,121.4 37,132.9 35,143.5 32.6,153.2 29.6,162 26.2,169.9 22.2,176.9 17.7,182.8 12.6,187.6 11.3,186.3 14.6,180.6 17.5,174.4 20.1,167.4 22.4,159.7 24.3,151.2 25.9,141.9 27,131.7 27.7,120.6 28,108.7 28,96 " />
<polygon points="34,64 169,64 169,68 34,68 " />
<polygon points="175,66 175,102 163,108 163,66 " />
<polygon points="163,64 169,59 180,68 175,72 163,66 " />
<polygon points="34,94 169,94 169,98 34,98 " />
<polygon points="87,42 87,98 75,98 75,40 " />
<polygon points="87,42 90,44 85,47 " />
<polygon points="134,42 134,98 122,98 122,40 " />
<polygon points="134,42 137,44 132,47 " />
<polygon points="96.8,106.4 92.4,112.6 87.6,118.5 82.4,124.1 76.9,129.4 70.9,134.5 64.6,139.2 57.9,143.7 50.9,147.8 43.4,151.4 35.4,154.7 34.6,153.1 41.5,148.2 48,143.3 54.1,138.3 59.9,133.3 65.3,128.2 70.3,122.9 74.9,117.4 79.2,111.8 83.1,106.1 86.6,100.1 " />
<polygon points="86.1,101 96.8,106.4 87.1,99.3 " />
<polygon points="96.8,106.4 98.3,109.6 92.5,109.6 " />
<polygon points="79.9,118.6 173.2,118.6 173.2,122.6 79.9,122.6 " />
<polygon points="179.2,120.6 179.1,128.2 178.9,135.4 178.6,142.1 178.1,148.3 177.4,154 176.6,159.2 175.7,164 174.5,168.3 173.2,172.3 171.6,175.8 161,170.3 162,167.9 163,164.9 164,161.3 164.8,157.2 165.5,152.4 166.1,147.1 166.6,141.3 166.9,134.9 167.1,128 167.2,120.6 " />
<polygon points="167.2,118.6 173.2,113.6 184.2,122.6 179.2,125.6 167.2,130.6 " />
<polygon points="171.6,175.8 168.1,178.7 163.6,178.4 160.7,174.9 161,170.3 " />
<polygon points="171.6,175.8 170.4,178 169,180 167.3,181.8 165.5,183.4 163.5,184.8 161.4,186 159.1,186.9 156.7,187.5 154.3,187.8 151.8,188 151.8,176 153.1,175.9 154.4,175.7 155.4,175.4 156.4,175.1 157.3,174.6 158.1,174 158.8,173.4 159.6,172.5 160.3,171.5 161,170.3 " />
<polygon points="151.8,182 151.8,176 131.8,176 131.8,179 " />
<polygon points="68.5,138.2 69.2,143.7 69.7,148.9 69.7,153.9 69.3,158.6 68.5,163 67.2,167.1 65.5,171 63.3,174.6 60.7,177.8 57.5,180.7 51,170.6 53.2,169.3 55.3,167.7 57.3,165.7 59.2,163.2 60.9,160.3 62.5,156.9 63.8,152.9 65,148.5 66.1,143.6 66.7,138.3 " />
<polygon points="57.5,180.7 53,181.4 49.2,178.9 48.4,174.4 51,170.6 " />
<polygon points="85.6,137.2 87.7,140.5 89.9,143.7 91.8,146.9 93.4,150.1 94.7,153.2 95.7,156.4 96.5,159.5 97,162.7 97.2,165.8 97,169 85.3,166.2 86,164.4 86.6,162.3 87,160 87.2,157.5 87.2,154.8 87,151.9 86.6,148.7 86,145.3 85.3,141.7 84,138 " />
<polygon points="97,169 94.3,172.6 89.8,173.4 86.1,170.7 85.3,166.2 " />
<polygon points="105,135.1 107.7,137.1 110.6,138.9 113.1,140.9 115.5,143.2 117.7,145.6 119.7,148.2 121.5,151 123.1,153.9 124.5,157 125.7,160.2 113.9,162.5 113.7,159.9 113.4,157.3 112.8,154.7 112.1,152.1 111.2,149.5 110.2,146.9 108.9,144.3 107.5,141.7 105.9,138.9 103.8,136.5 " />
<polygon points="125.7,160.2 124.7,164.6 121,167.2 116.5,166.3 113.9,162.5 " />
<polygon points="126.1,131.2 129.4,132.6 132.7,133.8 135.8,135.2 138.7,136.8 141.5,138.6 144,140.6 146.3,142.8 148.5,145.2 150.4,147.7 152.1,150.4 141,154.9 140.4,152.8 139.7,150.6 138.7,148.4 137.6,146.2 136.1,144 134.5,141.8 132.6,139.5 130.4,137.2 128.1,134.8 125.3,132.8 " />
<polygon points="152.1,150.4 152,155 148.8,158.2 144.2,158.1 141,154.9 " />
</g>
</svg>
