<svg xmlns="http://www.w3.org/2000/svg" xmlns:xlink="http://www.w3.org/1999/xlink" version="1.1" baseProfile="full" viewBox="0 0 200 200" width="200" height="200">
<g fill="black">
<polygon points="20,18 162,18 162,22 20,22 " />
<polygon points="168,20 168,77 156,83 156,20 " />
<polygon points="156,18 162,13 173,22 168,26 156,20 " />
<polygon points="34,67 162,67 162,71 34,71 " />
<polygon points="40.2,67.7 32.1,130.6 19.5,135 29,60.3 " />
<polygon points="28,114 174,114 174,118 28,118 " />
<polygon points="179.9,116.5 179.1,123.3 178,130 176.6,136.5 174.9,142.8 172.8,149 170.4,155 167.7,160.9 164.7,166.5 161.3,172.1 157.7,177.4 148,170.3 151.3,165.5 154.3,160.6 157,155.5 159.4,150.3 161.5,144.9 163.4,139.3 165,133.6 166.3,127.7 167.3,121.6 168,115.4 " />
<polygon points="168,114 174,109 185,118 180,122 174,122 " />
<polygon points="157.7,177.4 153.8,179.7 149.3,178.7 147,174.8 148,170.3 " />
<polygon points="157.7,177.4 156.2,179.3 154.5,181.1 152.7,182.7 150.7,184.1 148.6,185.3 146.5,186.3 144.2,187 141.8,187.5 139.4,187.8 137,188 137,176 138.4,175.9 139.7,175.7 141,175.4 142.1,175.1 143.2,174.6 144.2,174 145.2,173.3 146.1,172.5 147.1,171.5 148,170.3 " />
<polygon points="137,182 137,176 117,176 117,179 " />
<polygon points="40.2,29.3 133.7,29.3 133.7,33.3 40.2,33.3 " />
<polygon points="133.7,29.3 109.7,31.3 121.7,19.3 " />
<polygon points="93,29.3 93,55.9 81,55.9 81,29.3 " />
<polygon points="33.2,51.9 140.7,51.9 140.7,55.9 33.2,55.9 " />
<polygon points="140.7,51.9 116.7,53.9 128.7,41.9 " />
<polygon points="55.2,79.3 148.7,79.3 148.7,83.3 55.2,83.3 " />
<polygon points="148.7,79.3 124.7,81.3 136.7,69.3 " />
<polygon points="108,79.3 108,105.9 96,105.9 96,79.3 " />
<polygon points="48.2,101.9 155.7,101.9 155.7,105.9 48.2,105.9 " />
<polygon points="155.7,101.9 131.7,103.9 143.7,91.9 " />
</g>
</svg>
