<svg xmlns="http://www.w3.org/2000/svg" xmlns:xlink="http://www.w3.org/1999/xlink" version="1.1" baseProfile="full" viewBox="0 0 200 200" width="200" height="200">
<g fill="black">
<polygon points="49.7,25.3 49.7,112.8 37.7,118.8 37.7,19.3 " />
<polygon points="43.7,25.3 160.2,25.3 160.2,29.3 43.7,29.3 " />
<polygon points="166.2,27.3 166.2,106.8 154.2,112.8 154.2,27.3 " />
<polygon points="154.2,25.3 160.2,20.3 171.2,29.3 166.2,33.3 154.2,27.3 " />
<polygon points="108,25.3 108,100.8 96,100.8 96,25.3 " />
<polygon points="43.7,60.5 160.2,60.5 160.2,64.5 43.7,64.5 " />
<polygon points="43.7,96.8 160.2,96.8 160.2,100.8 43.7,100.8 " />
<polygon points="80.4,108.3 80.4,131.5 68.4,131.5 68.4,106.3 " />
<polygon points="80.4,108.3 83.4,110.3 80.4,112.3 " />
<polygon points="80.4,131.5 78,135.1 74.4,137.5 70.8,135.1 68.4,131.5 " />
<polygon points="80.4,132 78.9,141.3 76.6,149.9 73.5,157.8 69.7,164.9 65.1,171.2 59.7,176.7 53.7,181.3 47,185 39.7,187.7 31.8,189.4 31.3,187.7 38.2,184.2 44.4,180.4 49.7,176.1 54.3,171.4 58.3,166.1 61.5,160.3 64.2,154 66.2,147 67.6,139.3 68.4,130.9 " />
<polygon points="138.6,107.4 138.6,182.1 126.6,188.1 126.6,105.4 " />
<polygon points="138.6,107.4 141.6,109.4 138.6,111.4 " />
<polygon points="16.3,139 188.7,139 188.7,143 16.3,143 " />
<polygon points="188.7,139 164.7,141 176.7,129 " />
</g>
</svg>
