<svg xmlns="http://www.w3.org/2000/svg" xmlns:xlink="http://www.w3.org/1999/xlink" version="1.1" baseProfile="full" viewBox="0 0 200 200" width="200" height="200">
<g fill="black">
<polygon points="21,38 180,38 180,42 21,42 " />
<polygon points="180,38 156,40 168,28 " />
<polygon points="105,16 105,67 93,67 93,14 " />
<polygon points="105,16 108,18 103,21 " />
<polygon points="42,63 42,112 30,118 30,57 " />
<polygon points="36,63 158,63 158,67 36,67 " />
<polygon points="164,65 164,106 152,112 152,65 " />
<polygon points="152,63 158,58 169,67 164,71 152,65 " />
<polygon points="83,63 83,100 71,100 71,63 " />
<polygon points="125,63 125,100 113,100 113,63 " />
<polygon points="36,96 158,96 158,100 36,100 " />
<polygon points="37.7,137.1 37.7,141.7 37.6,146.2 37.1,150.6 36.4,154.9 35.4,158.9 34.1,162.8 32.6,166.6 30.8,170.2 28.7,173.6 26.4,176.9 17.6,168.7 19.9,166.6 22.1,164.3 24.1,161.7 26.1,158.9 28,155.9 29.8,152.6 31.4,149 33,145.2 34.6,141.2 35.9,136.8 " />
<polygon points="26.4,176.9 22.2,178.7 17.9,177.1 16.1,173 17.6,168.7 " />
<polygon points="67,125 67,167 55,167 55,123 " />
<polygon points="67,125 70,127 65,130 " />
<polygon points="67,167 64.6,170.6 61,173 57.4,170.6 55,167 " />
<polygon points="67,167 67,168.2 67.2,169.1 67.4,169.7 67.5,170 67.7,170.2 67.9,170.4 68.2,170.5 68.8,170.7 69.7,170.9 71,171 71,183 68.4,182.8 65.9,182.4 63.5,181.6 61.2,180.3 59.2,178.7 57.6,176.7 56.3,174.4 55.5,172 55.1,169.5 55,167 " />
<polygon points="71,171 75.2,172.8 77,177 75.2,181.2 71,183 " />
<polygon points="71,171 149,171 149,183 71,183 " />
<polygon points="149,171 152.6,173.4 155,177 152.6,180.6 149,183 " />
<polygon points="143,172 149,146 151,146 149,172 " />
<polygon points="81.2,114.5 86.7,116 91.9,117.6 96.7,119.6 101.1,121.8 105.1,124.2 108.6,126.9 111.8,129.8 114.6,133 116.9,136.5 118.8,140.3 107.3,143.9 106.7,141.3 105.7,138.7 104.2,136 102.3,133.2 99.9,130.4 97,127.6 93.6,124.8 89.7,121.9 85.4,119 80.6,116.2 " />
<polygon points="118.8,140.3 118.3,144.8 114.9,147.8 110.3,147.4 107.3,143.9 " />
<polygon points="143.3,128.7 148.1,130.8 152.6,133.2 156.8,136 160.7,139.1 164.2,142.5 167.4,146.2 170.3,150.1 172.9,154.3 175.1,158.8 176.9,163.4 165.4,166.7 164.4,162.7 163.2,158.8 161.7,155 159.9,151.3 157.7,147.7 155.3,144.1 152.5,140.6 149.4,137.2 146.1,133.7 142.3,130.2 " />
<polygon points="176.9,163.4 176.3,168 172.8,170.8 168.2,170.2 165.4,166.7 " />
</g>
</svg>
