<svg xmlns="http://www.w3.org/2000/svg" xmlns:xlink="http://www.w3.org/1999/xlink" version="1.1" baseProfile="full" viewBox="0 0 200 200" width="200" height="200">
<g fill="black">
<polygon points="29,39 176,39 176,43 29,43 " />
<polygon points="176,39 152,41 164,29 " />
<polygon points="49,63 49,100 37,106 37,57 " />
<polygon points="43,63 157,63 157,67 43,67 " />
<polygon points="163,65 163,99 151,105 151,65 " />
<polygon points="151,63 157,58 168,67 163,71 151,65 " />
<polygon points="107,18 107,67 95,67 95,16 " />
<polygon points="107,18 110,20 107,22 " />
<polygon points="43,93 157,93 157,97 43,97 " />
<polygon points="87,63 87,97 75,97 75,63 " />
<polygon points="126,63 126,97 114,97 114,63 " />
<polygon points="33,114 170,114 170,118 33,118 " />
<polygon points="170,114 146,116 158,104 " />
<polygon points="43.7,135 43.7,140.1 43.6,144.9 43.2,149.6 42.4,154.1 41.4,158.4 40.2,162.5 38.6,166.4 36.8,170.1 34.7,173.6 32.4,176.9 23.6,168.7 25.9,166.6 28,164.2 30.1,161.6 32.1,158.7 33.9,155.4 35.7,151.9 37.4,148.1 39,144 40.6,139.6 41.9,134.8 " />
<polygon points="32.4,176.9 28.2,178.7 23.9,177.1 22.1,173 23.6,168.7 " />
<polygon points="72,131 72,169 60,169 60,129 " />
<polygon points="72,131 75,133 72,135 " />
<polygon points="72,169 69.6,172.6 66,175 62.4,172.6 60,169 " />
<polygon points="72,169 72,170.2 72.2,171.1 72.4,171.7 72.5,172 72.7,172.2 72.9,172.4 73.2,172.5 73.8,172.7 74.7,172.9 76,173 76,185 73.4,184.8 70.9,184.4 68.5,183.6 66.2,182.3 64.2,180.7 62.6,178.7 61.3,176.4 60.5,174 60.1,171.5 60,169 " />
<polygon points="76,173 80.2,174.8 82,179 80.2,183.2 76,185 " />
<polygon points="76,173 149,173 149,185 76,185 " />
<polygon points="149,173 152.6,175.4 155,179 152.6,182.6 149,185 " />
<polygon points="143,174 149,148 151,148 149,174 " />
<polygon points="85.2,127.5 90.6,128.8 95.6,130.3 100.3,132.2 104.6,134.5 108.6,137 112.2,139.8 115.5,143 118.3,146.4 120.7,150.2 122.7,154.2 111.3,158 110.5,154.9 109.3,151.9 107.7,149 105.7,146 103.3,143.2 100.4,140.3 97.1,137.5 93.4,134.7 89.2,131.8 84.6,129.1 " />
<polygon points="122.7,154.2 122.3,158.8 118.9,161.8 114.3,161.4 111.3,158 " />
<polygon points="144.3,127.7 149.1,129.8 153.7,132.3 157.9,135.2 161.8,138.5 165.3,142.1 168.5,146 171.4,150.2 174,154.7 176.2,159.5 178,164.5 166.4,167.6 165.4,163.2 164.2,158.9 162.6,154.9 160.8,150.9 158.6,147.1 156.2,143.4 153.4,139.8 150.4,136.3 147,132.7 143.3,129.2 " />
<polygon points="178,164.5 177.3,169.1 173.7,171.9 169.2,171.2 166.4,167.6 " />
</g>
</svg>
