<svg xmlns="http://www.w3.org/2000/svg" xmlns:xlink="http://www.w3.org/1999/xlink" version="1.1" baseProfile="full" viewBox="0 0 200 200" width="200" height="200">
<g fill="black">
<polygon points="107,14.5 107,34.4 95,34.4 95,12.5 " />
<polygon points="107,14.5 110,16.5 105,19.5 " />
<polygon points="32,30.4 185,30.4 185,34.4 32,34.4 " />
<polygon points="185,30.4 161,32.4 173,20.4 " />
<polygon points="38,30.4 38,41.2 26,41.2 26,24.4 " />
<polygon points="38,41.2 35.6,44.8 32,47.2 28.4,44.8 26,41.2 " />
<polygon points="38,41.2 37.8,42.5 37.7,43.5 37.7,44.3 37.7,44.9 37.8,45.4 38,45.9 38.5,46.4 39.3,46.9 40.5,47.4 42,47.7 42,54.7 39.6,54.9 37.4,54.7 35.2,54.2 33.1,53.4 31.1,52.1 29.4,50.4 28,48.4 27,46.2 26.3,43.8 26,41.2 " />
<polygon points="42,47.7 44.4,48.8 45.5,51.2 44.4,53.7 42,54.7 " />
<polygon points="42,47.7 173,47.7 173,54.7 42,54.7 " />
<polygon points="173,47.7 175.1,49.1 176.5,51.2 175.1,53.3 173,54.7 " />
<polygon points="50,67 50,88.8 38,94.8 38,61 " />
<polygon points="44,67 162,67 162,71 44,71 " />
<polygon points="168,69 168,88.8 156,94.8 156,69 " />
<polygon points="156,67 162,62 173,71 168,75 156,69 " />
<polygon points="44,84.8 162,84.8 162,88.8 44,88.8 " />
<polygon points="36.9,101.7 36.9,150.8 24.9,150.8 24.9,95.7 " />
<polygon points="36.9,150.8 34.5,154.4 30.9,156.8 27.3,154.4 24.9,150.8 " />
<polygon points="36.9,150.9 36.2,156.5 35.2,161.6 33.8,166.4 32,170.7 29.9,174.6 27.5,178.1 24.7,181 21.5,183.4 18.1,185.1 14.6,186.3 13.8,184.7 16.4,182.5 18.4,179.9 20.1,177.2 21.6,174.3 22.8,171.2 23.7,167.8 24.4,164 24.8,159.9 25,155.4 24.9,150.6 " />
<polygon points="30.9,101.7 67.1,101.7 67.1,105.7 30.9,105.7 " />
<polygon points="73.1,103.7 73.1,171.6 61.1,171.6 61.1,103.7 " />
<polygon points="61.1,101.7 67.1,96.7 78.1,105.7 73.1,109.7 61.1,103.7 " />
<polygon points="73.1,171.6 70.7,175.2 67.1,177.6 63.5,175.2 61.1,171.6 " />
<polygon points="73.1,171.6 73,174.2 72.5,176.7 71.7,179.1 70.5,181.3 68.9,183.4 66.9,185 64.6,186.2 62.2,187 59.7,187.5 57.1,187.6 57.1,175.6 58.4,175.6 59.3,175.4 59.9,175.2 60.2,175 60.4,174.9 60.5,174.7 60.7,174.4 60.9,173.8 61.1,172.9 61.1,171.6 " />
<polygon points="57.1,181.6 57.1,175.6 37.1,175.6 37.1,178.6 " />
<polygon points="30.9,121.8 67.1,121.8 67.1,125.8 30.9,125.8 " />
<polygon points="30.9,142.9 67.1,142.9 67.1,146.9 30.9,146.9 " />
<polygon points="140.5,101.7 140.5,142.5 128.5,142.5 128.5,95.7 " />
<polygon points="140.5,142.5 138.1,146.1 134.5,148.5 130.9,146.1 128.5,142.5 " />
<polygon points="140.5,142.5 140,149.1 138.9,155.3 137.4,161 135.4,166.3 132.9,171 129.9,175.2 126.4,178.8 122.5,181.8 118.2,184.1 113.5,185.6 112.8,184 116.2,181 119.2,177.9 121.7,174.6 123.7,171.1 125.4,167.2 126.8,163.1 127.8,158.6 128.4,153.6 128.6,148.3 128.5,142.5 " />
<polygon points="134.5,101.7 165,101.7 165,105.7 134.5,105.7 " />
<polygon points="171,103.7 171,169.2 159,169.2 159,103.7 " />
<polygon points="159,101.7 165,96.7 176,105.7 171,109.7 159,103.7 " />
<polygon points="171,169.2 168.6,172.8 165,175.2 161.4,172.8 159,169.2 " />
<polygon points="171,169.2 171.1,170.4 171.2,171.3 171.4,171.9 171.6,172.3 171.8,172.5 171.9,172.6 172.3,172.8 172.9,173 173.8,173.1 175,173.2 175,185.2 172.4,185.1 170,184.6 167.5,183.8 165.3,182.6 163.3,180.9 161.6,178.9 160.4,176.7 159.6,174.3 159.1,171.8 159,169.2 " />
<polygon points="175,173.2 179.2,175 181,179.2 179.2,183.4 175,185.2 " />
<polygon points="175,173.2 185.8,173.2 185.8,185.2 175,185.2 " />
<polygon points="185.8,173.2 189.4,175.6 191.8,179.2 189.4,182.8 185.8,185.2 " />
<polygon points="179.8,174.2 185.8,148.2 187.8,148.2 185.8,174.2 " />
<polygon points="143.8,123.1 145.4,124.4 147.4,125.4 149.3,126.6 151,127.9 152.6,129.3 154.1,130.8 155.5,132.5 156.8,134.2 158,136.1 159.1,138.1 147.5,141.1 147.5,139.6 147.4,138 147.3,136.4 147,134.8 146.6,133.1 146.1,131.4 145.5,129.7 144.8,127.8 143.9,125.9 142.6,124.4 " />
<polygon points="159.1,138.1 158.4,142.6 154.8,145.4 150.3,144.7 147.5,141.1 " />
</g>
</svg>
