<svg xmlns="http://www.w3.org/2000/svg" xmlns:xlink="http://www.w3.org/1999/xlink" version="1.1" baseProfile="full" viewBox="0 0 200 200" width="200" height="200">
<g fill="black">
<polygon points="170.8,22.5 158.3,31.1 145.2,39.3 131.6,47.1 117.5,54.4 102.8,61.3 87.6,67.7 71.9,73.7 55.5,79.2 38.7,84.1 21.2,88.4 20.7,86.7 37.5,80.5 53.7,74.2 69.4,67.6 84.6,60.8 99.2,53.6 113.2,46.2 126.6,38.4 139.5,30.2 151.8,21.7 163.5,12.9 " />
<polygon points="162.7,13.5 170.8,22.5 163.6,12.9 " />
<polygon points="170.8,22.5 171,26.1 165.6,23.9 " />
<polygon points="37.2,23.9 51.7,27.6 65.7,31.7 79.1,36.2 92.1,41 104.6,46.1 116.6,51.3 128.1,56.9 139.2,62.6 149.7,68.6 159.8,74.8 153.1,84.7 143.7,78.3 133.8,71.9 123.4,65.7 112.5,59.7 101,53.8 89.1,48 76.7,42.3 63.8,36.8 50.5,31.2 36.6,25.6 " />
<polygon points="159.8,74.8 162.3,78.7 161.4,83.1 157.6,85.6 153.1,84.7 " />
<polygon points="120.2,78.9 124,80 127.7,80.9 131.2,81.9 134.6,83 137.8,84.2 140.8,85.4 143.7,86.7 146.4,88.1 149,89.5 151.5,90.9 143.8,100.1 142.2,98.4 140.4,96.6 138.5,94.7 136.3,92.8 134,90.9 131.4,88.9 128.7,86.9 125.9,84.7 122.8,82.5 119.5,80.5 " />
<polygon points="151.5,90.9 153.6,95 152.3,99.4 148.2,101.4 143.8,100.1 " />
<polygon points="18,106.7 182,106.7 182,110.7 18,110.7 " />
<polygon points="182,106.7 158,108.7 170,96.7 " />
<polygon points="106,80.3 106,183.2 94,189.2 94,78.3 " />
<polygon points="106,80.3 109,82.3 104,85.3 " />
<polygon points="103.2,108.7 101.1,111.8 95.1,120.5 88.5,128.7 81.3,136.3 73.5,143.4 65.1,149.9 56.1,155.8 46.5,161.2 36.3,165.9 25.6,170 14.3,173.3 13.6,171.6 24.1,166.5 34,161.1 43.2,155.5 51.8,149.5 59.8,143.2 67.2,136.4 74,129.3 80.2,121.8 85.8,113.9 88.9,108.7 " />
<polygon points="106.3,109 112.7,116.1 119.1,122.8 125.8,129.1 132.7,135 140,140.4 147.5,145.3 155.4,149.8 163.6,153.9 172.2,157.5 181.2,160.6 176.7,173 167.3,169 158.3,164.4 149.8,159.3 141.8,153.8 134.2,147.7 127.2,141.2 120.6,134.2 114.7,126.7 109.3,118.6 104.7,110 " />
<polygon points="176.7,173 181.2,160.6 188.3,163.2 " />
</g>
</svg>
