<svg xmlns="http://www.w3.org/2000/svg" xmlns:xlink="http://www.w3.org/1999/xlink" version="1.1" baseProfile="full" viewBox="0 0 200 200" width="200" height="200">
<g fill="black">
<polygon points="170.8,22.5 158.3,31.1 145.2,39.3 131.6,47.1 117.5,54.4 102.8,61.3 87.6,67.7 71.9,73.7 55.5,79.2 38.7,84.1 21.2,88.4 20.7,86.7 37.5,80.5 53.7,74.2 69.4,67.6 84.6,60.8 99.2,53.6 113.2,46.2 126.6,38.4 139.5,30.2 151.8,21.7 163.5,12.9 " />
<polygon points="163.6,12.9 170.8,22.5 162.7,13.5 " />
<polygon points="170.8,22.5 171,26.1 165.6,23.9 " />
<polygon points="37.2,23.9 51.7,27.6 65.7,31.7 79.1,36.2 92.1,41 104.6,46.1 116.6,51.3 128.1,56.9 139.2,62.6 149.7,68.6 159.8,74.8 153.1,84.7 143.7,78.3 133.8,71.9 123.4,65.7 112.5,59.7 101,53.8 89.1,48 76.7,42.3 63.8,36.8 50.5,31.2 36.6,25.6 " />
<polygon points="159.8,74.8 162.3,78.7 161.4,83.1 157.6,85.6 153.1,84.7 " />
<polygon points="23,108.6 176,108.6 176,112.6 23,112.6 " />
<polygon points="176,108.6 152,110.6 164,98.6 " />
<polygon points="106,82.8 106,183.8 94,189.8 94,80.8 " />
<polygon points="106,82.8 109,84.8 104,87.8 " />
<polygon points="66,122.2 66,142.5 54,142.5 54,120.2 " />
<polygon points="66,122.2 69,124.2 64,127.2 " />
<polygon points="66,142.5 63.6,146.1 60,148.5 56.4,146.1 54,142.5 " />
<polygon points="66,142.5 65.2,148.9 63.7,154.9 61.3,160.5 58.1,165.6 54.1,170.1 49.5,174.1 44.1,177.4 38.1,180.2 31.5,182.4 24.2,183.9 23.7,182.2 30.1,178.9 35.7,175.5 40.5,172 44.5,168.3 47.8,164.5 50.3,160.5 52.1,156.4 53.3,152 53.9,147.4 54,142.5 " />
<polygon points="144,122.2 144,161.2 132,161.2 132,120.2 " />
<polygon points="144,122.2 147,124.2 142,127.2 " />
<polygon points="144,161.2 141.6,164.8 138,167.2 134.4,164.8 132,161.2 " />
<polygon points="144,161.2 144,162.4 144.2,163.3 144.4,163.9 144.5,164.3 144.7,164.5 144.9,164.6 145.2,164.8 145.8,165 146.7,165.1 148,165.2 148,177.2 145.4,177.1 142.9,176.6 140.5,175.8 138.2,174.6 136.2,172.9 134.6,170.9 133.3,168.7 132.5,166.3 132.1,163.8 132,161.2 " />
<polygon points="148,165.2 152.2,167 154,171.2 152.2,175.4 148,177.2 " />
<polygon points="148,165.2 174,165.2 174,177.2 148,177.2 " />
<polygon points="174,165.2 177.6,167.6 180,171.2 177.6,174.8 174,177.2 " />
<polygon points="168,166.2 174,140.2 176,140.2 174,166.2 " />
<polygon points="118.1,84.9 122.7,85.6 127.1,86.1 131.1,86.7 134.8,87.6 138.3,88.6 141.4,89.8 144.3,91.1 147,92.7 149.4,94.5 151.5,96.7 141.3,103.1 140.9,101.8 140,100.4 138.7,98.8 137,97.2 134.8,95.5 132.2,93.7 129.2,91.9 125.8,90.1 122,88.2 117.7,86.7 " />
<polygon points="151.5,96.7 152.2,101.3 149.5,105 145,105.7 141.3,103.1 " />
</g>
</svg>
