<svg xmlns="http://www.w3.org/2000/svg" xmlns:xlink="http://www.w3.org/1999/xlink" version="1.1" baseProfile="full" viewBox="0 0 200 200" width="200" height="200">
<g fill="black">
<polygon points="23,61 176,61 176,65 23,65 " />
<polygon points="176,61 152,63 164,51 " />
<polygon points="106,18 106,182 94,188 94,16 " />
<polygon points="106,18 109,20 106,22 " />
<polygon points="66,81 66,114 54,114 54,79 " />
<polygon points="66,81 69,83 66,85 " />
<polygon points="66,114 63.6,117.6 60,120 56.4,117.6 54,114 " />
<polygon points="66,114 65.3,123.5 63.8,132.5 61.5,140.9 58.5,148.7 54.7,155.8 50.1,162.1 44.7,167.8 38.6,172.7 31.8,176.7 24.4,179.8 23.5,178.1 29.8,173.5 35.2,168.5 39.9,163.3 43.9,157.7 47.2,151.6 49.9,145.2 51.9,138.2 53.2,130.7 53.9,122.6 54,114 " />
<polygon points="144,81 144,150 132,150 132,79 " />
<polygon points="144,81 147,83 144,85 " />
<polygon points="144,150 141.6,153.6 138,156 134.4,153.6 132,150 " />
<polygon points="144,150 144,151.2 144.2,152.1 144.4,152.7 144.5,153 144.7,153.2 144.9,153.4 145.2,153.5 145.8,153.7 146.7,153.9 148,154 148,166 145.4,165.8 142.9,165.4 140.5,164.6 138.2,163.3 136.2,161.7 134.6,159.7 133.3,157.4 132.5,155 132.1,152.5 132,150 " />
<polygon points="148,154 152.2,155.8 154,160 152.2,164.2 148,166 " />
<polygon points="148,154 174,154 174,166 148,166 " />
<polygon points="174,154 177.6,156.4 180,160 177.6,163.6 174,166 " />
<polygon points="168,155 174,129 176,129 174,155 " />
</g>
</svg>
