<svg xmlns="http://www.w3.org/2000/svg" xmlns:xlink="http://www.w3.org/1999/xlink" version="1.1" baseProfile="full" viewBox="0 0 200 200" width="200" height="200">
<g fill="black">
<polygon points="17,49 99,49 99,53 17,53 " />
<polygon points="99,49 75,51 87,39 " />
<polygon points="64.5,18 64.5,182.2 53.5,187.7 53.5,16 " />
<polygon points="64.5,18 67.2,20 64.5,22 " />
<polygon points="90,75 90,147 78,153 78,73 " />
<polygon points="90,75 93,77 90,79 " />
<polygon points="41.5,72 41.5,107 30.5,107 30.5,70 " />
<polygon points="41.5,72 44.2,74 41.5,76 " />
<polygon points="41.5,107 39.3,110.3 36,112.5 32.7,110.3 30.5,107 " />
<polygon points="41.5,107 41,116.1 40,124.9 38.7,133.1 36.9,140.8 34.7,148 32,154.7 28.9,160.9 25.3,166.5 21.1,171.3 16.6,175.5 15.3,174.4 18.4,169.3 21,163.9 23.4,158.3 25.5,152.3 27.2,145.9 28.6,139 29.6,131.7 30.3,123.9 30.5,115.7 30.5,107 " />
<polygon points="104,49 186,49 186,53 104,53 " />
<polygon points="186,49 162,51 174,39 " />
<polygon points="143,18 143,183.5 133,188.5 133,16 " />
<polygon points="143,18 145.5,20 143,22 " />
<polygon points="166.5,72 166.5,152 155.5,152 155.5,70 " />
<polygon points="166.5,72 169.2,74 166.5,76 " />
<polygon points="166.5,152 164.3,155.3 161,157.5 157.7,155.3 155.5,152 " />
<polygon points="166.5,152 166.6,153.2 166.8,154.2 167,154.8 167.3,155.2 167.5,155.4 167.8,155.5 168.2,155.7 168.8,155.8 169.7,155.9 171,156 171,168 168.4,167.8 165.9,167.3 163.5,166.4 161.3,165.2 159.4,163.5 157.8,161.5 156.7,159.3 155.9,156.9 155.5,154.5 155.5,152 " />
<polygon points="171,156 175.2,157.8 177,162 175.2,166.2 171,168 " />
<polygon points="171,156 183,156 183,168 171,168 " />
<polygon points="183,156 186.6,158.4 189,162 186.6,165.6 183,168 " />
<polygon points="177,157 183,131 185,131 183,157 " />
<polygon points="121.5,73 121.5,108 110.5,108 110.5,71 " />
<polygon points="121.5,73 124.2,75 121.5,77 " />
<polygon points="121.5,108 119.3,111.3 116,113.5 112.7,111.3 110.5,108 " />
<polygon points="121.5,108 120.9,117.2 120,125.8 118.5,134 116.6,141.6 114.1,148.7 111.2,155.2 107.8,161.1 103.9,166.3 99.4,170.8 94.5,174.6 93.4,173.3 96.8,168.5 99.9,163.5 102.5,158.2 104.8,152.4 106.8,146.2 108.3,139.6 109.4,132.4 110.2,124.8 110.5,116.6 110.5,108 " />
</g>
</svg>
