<svg xmlns="http://www.w3.org/2000/svg" xmlns:xlink="http://www.w3.org/1999/xlink" version="1.1" baseProfile="full" viewBox="0 0 200 200" width="200" height="200">
<g fill="black">
<polygon points="100.3,34.3 170.8,34.3 170.8,38.3 100.3,38.3 " />
<polygon points="176.8,37 173,60 168,81.3 161.6,101 154,119 145.2,135.2 135,149.7 123.5,162.4 110.8,173.2 96.9,182.1 81.8,189 81.1,187.4 94.9,178.9 107.5,169 118.8,157.8 128.9,145.1 137.8,130.9 145.6,115.1 152.2,97.7 157.6,78.6 161.8,57.9 164.9,35.6 " />
<polygon points="164.8,34.3 170.8,29.3 181.8,38.3 176.8,41.3 164.8,46.3 " />
<polygon points="116.8,37.2 120.3,57.8 124.2,76.9 128.8,94.5 134.2,110.6 140.3,125.1 147.1,138 154.7,149.5 163,159.4 172.1,167.8 181.8,174.8 174.5,185.8 163.9,177.3 154.2,167.2 145.7,155.8 138.2,143 131.7,128.8 126.2,113.2 121.8,96.3 118.4,78 116.1,58.4 115.1,37.3 " />
<polygon points="174.5,185.8 181.8,174.8 185.6,177.3 " />
<polygon points="14,30 99,30 99,34 14,34 " />
<polygon points="99,30 75,32 87,20 " />
<polygon points="61,32 60.9,32.9 58.5,44.6 55.6,55.9 52.3,66.7 48.4,76.9 44.1,86.6 39.2,95.8 33.9,104.5 28,112.5 21.6,119.9 14.6,126.6 13.3,125.3 18.6,117.5 23.6,109.5 28.3,101.1 32.5,92.4 36.3,83.3 39.7,73.7 42.7,63.7 45.2,53.3 47.3,42.4 48.8,32 " />
<polygon points="46,69 84,69 84,73 46,73 " />
<polygon points="89.9,71.6 87,88.8 83.1,104.9 78.2,119.8 72.2,133.5 65.1,146.1 57,157.5 47.8,167.6 37.7,176.4 26.5,183.8 14.4,189.7 13.5,188.2 24.4,180.6 34.2,172.3 43.1,163.1 50.9,152.9 57.8,141.8 63.7,129.6 68.7,116.4 72.8,102.1 75.9,86.8 78,70.3 " />
<polygon points="78,69 84,64 95,73 90,76 78,81 " />
<polygon points="33.2,99.5 37,100.7 40.7,101.9 44.2,103.4 47.4,105.2 50.5,107.4 53.3,109.8 55.8,112.5 58.1,115.5 60.1,118.8 61.8,122.3 50.3,125.9 49.7,123.1 48.9,120.4 47.8,117.8 46.5,115.3 44.9,112.8 43.1,110.3 40.9,107.9 38.5,105.6 35.7,103.2 32.5,101.2 " />
<polygon points="61.8,122.3 61.3,126.8 57.9,129.8 53.3,129.4 50.3,125.9 " />
</g>
</svg>
