<svg xmlns="http://www.w3.org/2000/svg" xmlns:xlink="http://www.w3.org/1999/xlink" version="1.1" baseProfile="full" viewBox="0 0 200 200" width="200" height="200">
<g fill="black">
<polygon points="106,20 106,122 94,128 94,18 " />
<polygon points="106,20 109,22 106,24 " />
<polygon points="66.3,52.9 63,60.7 59.5,68.4 55.6,76 51.5,83.3 47,90.6 42.3,97.6 37.2,104.5 31.7,111.1 25.9,117.5 19.6,123.5 18.3,122.4 22.9,115.1 27.4,107.9 31.7,100.8 35.8,93.6 39.7,86.3 43.3,79 46.6,71.6 49.7,64.1 52.4,56.6 55,48.9 " />
<polygon points="55,48.9 66.3,52.9 55.5,47.5 " />
<polygon points="66.3,52.9 68.5,55.8 61.5,57.5 " />
<polygon points="176.7,69.7 165.7,87.8 153.5,104.5 140.4,119.8 126.3,133.5 111.2,145.8 95.1,156.5 78,165.8 60,173.4 41,179.5 21.2,183.8 20.7,182.1 39.9,175.8 58,168.5 75,159.9 91,150.1 106,139.1 120,126.7 133,113 145,98 156.1,81.7 166.2,64 " />
<polygon points="166.2,64 176.7,69.7 166.7,63 " />
<polygon points="176.7,69.7 178.4,72.9 171.2,73.5 " />
</g>
</svg>
