<svg xmlns="http://www.w3.org/2000/svg" xmlns:xlink="http://www.w3.org/1999/xlink" version="1.1" baseProfile="full" viewBox="0 0 200 200" width="200" height="200">
<g fill="black">
<polygon points="69.6,16 69.6,81 57.6,81 57.6,14 " />
<polygon points="69.6,16 72.6,18 69.6,20 " />
<polygon points="63.6,44 104.9,44 104.9,48 63.6,48 " />
<polygon points="104.9,44 84.9,46 94.9,35 " />
<polygon points="47.2,64.5 45.8,73 44.1,81.1 41.9,88.8 39.4,96.1 36.5,103 33.1,109.5 29.4,115.6 25.2,121.1 20.5,126.1 15.4,130.6 14.1,129.3 17.6,123.8 20.7,118.1 23.7,112.3 26.3,106.2 28.6,99.9 30.6,93.2 32.2,86.3 33.6,79 34.6,71.3 35.2,63.4 " />
<polygon points="35.2,63.4 47.2,64.5 35.4,61.2 " />
<polygon points="47.2,64.5 50,66.8 43.6,70.2 " />
<polygon points="40.2,79 89,79 89,83 40.2,83 " />
<polygon points="94.9,81.8 91.7,97.5 87.4,112.2 82,125.8 75.6,138.4 68.1,149.9 59.6,160.2 50,169.5 39.4,177.5 27.8,184.3 15.2,189.8 14.4,188.1 25.8,181 36.2,173.2 45.5,164.6 53.8,155.3 61.1,145 67.4,133.9 72.8,121.9 77.2,108.9 80.6,95 83.1,80.1 " />
<polygon points="83,79 89,74 100,83 95,87 89,87 " />
<polygon points="34.1,102.7 38,104.4 41.8,106.1 45.3,108 48.5,110.1 51.5,112.5 54.3,115 56.9,117.8 59.2,120.7 61.2,123.8 62.9,127.1 51.6,131.1 50.9,128.4 50,125.8 48.9,123.1 47.5,120.4 45.8,117.8 43.9,115.1 41.6,112.4 39.1,109.6 36.4,106.8 33.2,104.2 " />
<polygon points="62.9,127.1 62.6,131.7 59.2,134.8 54.7,134.5 51.6,131.1 " />
<polygon points="100.3,34.3 170.8,34.3 170.8,38.3 100.3,38.3 " />
<polygon points="176.8,37 173,60 168,81.3 161.6,101 154,119 145.2,135.2 135,149.7 123.5,162.4 110.8,173.2 96.9,182.1 81.8,189 81.1,187.4 94.9,178.9 107.5,169 118.8,157.8 128.9,145.1 137.8,130.9 145.6,115.1 152.2,97.7 157.6,78.6 161.8,57.9 164.9,35.6 " />
<polygon points="164.8,34.3 170.8,29.3 181.8,38.3 176.8,42.3 170.8,42.3 " />
<polygon points="116.8,37.2 120.3,57.8 124.2,76.9 128.8,94.5 134.2,110.6 140.3,125.1 147.1,138 154.7,149.5 163,159.4 172.1,167.8 181.8,174.8 174.5,185.8 163.9,177.3 154.2,167.2 145.7,155.8 138.2,143 131.7,128.8 126.2,113.2 121.8,96.3 118.4,78 116.1,58.4 115.1,37.3 " />
<polygon points="174.5,185.8 181.8,174.8 185.6,177.3 " />
</g>
</svg>
