<svg xmlns="http://www.w3.org/2000/svg" xmlns:xlink="http://www.w3.org/1999/xlink" version="1.1" baseProfile="full" viewBox="0 0 200 200" width="200" height="200">
<g fill="black">
<polygon points="15,33 99,33 99,37 15,37 " />
<polygon points="99,33 75,35 87,23 " />
<polygon points="34,53 34,107 22,113 22,47 " />
<polygon points="28,53 85,53 85,57 28,57 " />
<polygon points="91,55 91,106 79,112 79,55 " />
<polygon points="79,53 85,48 96,57 91,61 79,55 " />
<polygon points="28,75 85,75 85,79 28,79 " />
<polygon points="28,100 85,100 85,104 28,104 " />
<polygon points="13,124 104,124 104,128 13,128 " />
<polygon points="104,124 80,126 92,114 " />
<polygon points="63,15 63,170 51,170 51,13 " />
<polygon points="63,15 66,17 61,20 " />
<polygon points="32,136.2 32,182.8 20,188.8 20,134.2 " />
<polygon points="32,136.2 35,138.2 30,141.2 " />
<polygon points="26,166.8 85.9,166.8 85.9,170.8 26,170.8 " />
<polygon points="91.9,136.2 91.9,170.8 79.9,176.8 79.9,134.2 " />
<polygon points="91.9,136.2 94.9,138.2 89.9,141.2 " />
<polygon points="127.9,26 127.9,52 115.9,52 115.9,20 " />
<polygon points="127.9,52 125.5,55.6 121.9,58 118.3,55.6 115.9,52 " />
<polygon points="127.9,52 127.3,58 126.2,63.8 124.5,69.4 122.3,74.8 119.6,79.9 116.4,84.7 112.6,89.2 108.4,93.4 103.6,97.2 98.2,100.6 97.1,99.3 101,94.5 104.4,89.8 107.4,85.2 109.9,80.7 112,76 113.7,71.4 114.8,66.7 115.6,61.9 115.9,57 115.9,52 " />
<polygon points="121.9,26 157.7,26 157.7,30 121.9,30 " />
<polygon points="163.7,28 163.7,73 151.7,73 151.7,28 " />
<polygon points="151.7,26 157.7,21 168.7,30 163.7,34 151.7,28 " />
<polygon points="163.7,73 161.3,76.6 157.7,79 154.1,76.6 151.7,73 " />
<polygon points="163.7,73 163.7,74.2 163.8,75.1 163.9,75.8 164,76.2 164.1,76.6 164.3,76.9 164.7,77.2 165.4,77.5 166.4,77.8 167.7,78 167.7,88 165.3,87.9 162.9,87.6 160.5,86.9 158.3,85.8 156.3,84.3 154.7,82.5 153.4,80.3 152.5,78 152,75.5 151.7,73 " />
<polygon points="167.7,78 171.2,79.5 172.7,83 171.2,86.5 167.7,88 " />
<polygon points="167.7,78 182.7,78 182.7,88 167.7,88 " />
<polygon points="182.7,78 185.7,80 187.7,83 185.7,86 182.7,88 " />
<polygon points="177.7,79 182.7,61 184.7,61 182.7,79 " />
<polygon points="107.8,103 166.3,103 166.3,107 107.8,107 " />
<polygon points="172.1,106.5 167.7,119.7 162.4,131.9 156.2,143.1 149.2,153.1 141.4,162.1 132.7,169.9 123.2,176.5 112.9,181.9 101.9,186 90.1,188.8 89.6,187.1 100.5,182.5 110.4,177.1 119.5,171 127.7,164.1 135.1,156.3 141.7,147.6 147.6,138 152.6,127.5 157,115.9 160.5,103.4 " />
<polygon points="160.3,103 166.3,98 177.3,107 172.3,110 160.3,115 " />
<polygon points="119,105.8 122.7,116.7 126.8,126.7 131.4,135.6 136.6,143.5 142.4,150.4 148.8,156.4 155.9,161.5 163.6,165.7 172,169 181.2,171.6 177.9,184.3 167.6,180.7 158.2,176.1 149.6,170.5 142,164 135.3,156.5 129.6,148.1 124.9,138.8 121.3,128.7 118.7,117.8 117.2,106.1 " />
<polygon points="177.9,184.3 181.2,171.6 189.7,173.7 " />
</g>
</svg>
