<svg xmlns="http://www.w3.org/2000/svg" xmlns:xlink="http://www.w3.org/1999/xlink" version="1.1" baseProfile="full" viewBox="0 0 200 200" width="200" height="200">
<g fill="black">
<polygon points="15,48 103,48 103,52 15,52 " />
<polygon points="103,48 79,50 91,38 " />
<polygon points="64,16 64,87 52,87 52,14 " />
<polygon points="64,16 67,18 64,20 " />
<polygon points="25,83 97,83 97,87 25,87 " />
<polygon points="97,83 73,85 85,73 " />
<polygon points="24,99.8 25.1,103.9 26.3,107.8 27.1,111.7 27.6,115.4 27.8,119.1 27.6,122.7 27.1,126.2 26.3,129.6 25.1,132.9 23.6,136 13.8,129 15.3,127.3 16.7,125.4 18,123.3 19.1,120.8 20.1,118.1 20.9,115 21.5,111.7 22,108.1 22.4,104.2 22.2,100.1 " />
<polygon points="23.6,136 19.7,138.4 15.2,137.4 12.8,133.5 13.8,129 " />
<polygon points="24,110 90,110 90,114 24,114 " />
<polygon points="95.5,114.2 94.3,116.1 93,118 91.7,120.1 90.3,122.2 88.9,124.4 87.4,126.6 85.8,128.9 84.1,131.3 82.3,133.7 80.8,136.3 79.1,135.6 80,132.7 80.5,129.7 81,126.9 81.5,124.2 82,121.5 82.5,119 83,116.5 83.5,114.2 84,111.9 84.4,109.7 " />
<polygon points="84,110 90,105 101,114 96,118 90,118 " />
<polygon points="19,170 97,170 97,174 19,174 " />
<polygon points="97,170 73,172 85,160 " />
<polygon points="126.4,26 126.4,52 114.4,52 114.4,20 " />
<polygon points="126.4,52 124,55.6 120.4,58 116.8,55.6 114.4,52 " />
<polygon points="126.4,52 125.8,58 124.7,63.8 123,69.4 120.8,74.8 118.1,79.9 114.8,84.7 111.1,89.2 106.8,93.4 102,97.2 96.6,100.6 95.5,99.3 99.4,94.5 102.8,89.8 105.8,85.2 108.4,80.6 110.5,76 112.2,71.4 113.4,66.7 114.1,61.9 114.5,57 114.4,52 " />
<polygon points="120.4,26 156.5,26 156.5,30 120.4,30 " />
<polygon points="162.5,28 162.5,73 150.5,73 150.5,28 " />
<polygon points="150.5,26 156.5,21 167.5,30 162.5,34 150.5,28 " />
<polygon points="162.5,73 160.1,76.6 156.5,79 152.9,76.6 150.5,73 " />
<polygon points="162.5,73 162.5,74.2 162.7,75.1 162.9,75.7 163.1,76 163.2,76.2 163.4,76.4 163.7,76.5 164.3,76.7 165.2,76.9 166.5,77 166.5,89 163.9,88.8 161.4,88.4 159,87.6 156.8,86.3 154.7,84.7 153.1,82.7 151.9,80.4 151.1,78 150.6,75.5 150.5,73 " />
<polygon points="166.5,77 170.7,78.8 172.5,83 170.7,87.2 166.5,89 " />
<polygon points="166.5,77 181.6,77 181.6,89 166.5,89 " />
<polygon points="181.6,77 185.2,79.4 187.6,83 185.2,86.6 181.6,89 " />
<polygon points="175.6,78 181.6,52 183.6,52 181.6,78 " />
<polygon points="106.2,103 165.1,103 165.1,107 106.2,107 " />
<polygon points="170.9,106.5 166.5,119.8 161.1,132 154.9,143.1 147.9,153.1 140,162.1 131.2,169.9 121.7,176.5 111.3,181.9 100.2,186 88.4,188.8 88,187.1 98.9,182.5 108.9,177.1 118,171 126.3,164.1 133.7,156.3 140.4,147.6 146.3,138 151.4,127.5 155.7,115.9 159.3,103.4 " />
<polygon points="159.1,103 165.1,98 176.1,107 171.1,111 165.1,111 " />
<polygon points="117.5,105.8 121.2,116.7 125.3,126.7 130,135.6 135.2,143.5 141,150.4 147.5,156.4 154.6,161.5 162.4,165.7 170.9,169 180.1,171.6 176.8,184.3 166.5,180.8 157,176.2 148.3,170.6 140.7,164 134,156.5 128.2,148.1 123.5,138.8 119.8,128.7 117.2,117.8 115.7,106.1 " />
<polygon points="176.8,184.3 180.1,171.6 188.6,173.7 " />
</g>
</svg>
