<svg xmlns="http://www.w3.org/2000/svg" xmlns:xlink="http://www.w3.org/1999/xlink" version="1.1" baseProfile="full" viewBox="0 0 200 200" width="200" height="200">
<g fill="black">
<polygon points="106,16.6 106,53.6 94,53.6 94,14.6 " />
<polygon points="106,16.6 109,18.6 104,21.6 " />
<polygon points="15,49.6 185,49.6 185,53.6 15,53.6 " />
<polygon points="185,49.6 161,51.6 173,39.6 " />
<polygon points="106,61.8 106,171.9 94,171.9 94,59.8 " />
<polygon points="106,61.8 109,63.8 104,66.8 " />
<polygon points="106,171.9 103.6,175.5 100,177.9 96.4,175.5 94,171.9 " />
<polygon points="106,171.9 105.8,174.5 105.4,177 104.6,179.4 103.3,181.6 101.7,183.6 99.7,185.3 97.4,186.5 95,187.3 92.5,187.8 90,187.9 90,175.9 91.2,175.8 92.1,175.7 92.7,175.5 93,175.3 93.2,175.2 93.4,175 93.5,174.6 93.7,174 93.9,173.1 94,171.9 " />
<polygon points="70,178.9 70,175.9 90,175.9 90,181.9 " />
<polygon points="18,98.7 73,98.7 73,102.7 18,102.7 " />
<polygon points="78.8,101.8 76.2,111.7 72.7,121.1 68.2,129.8 62.9,138 56.7,145.5 49.7,152.3 41.8,158.5 33.1,164 23.6,168.7 13.3,172.6 12.6,170.9 21.8,165.3 30.2,159.5 37.7,153.3 44.4,146.9 50.2,140 55.2,132.8 59.3,125.1 62.7,117.1 65.3,108.6 67.1,99.6 " />
<polygon points="67,98.7 73,93.7 84,102.7 79,105.7 67,110.7 " />
<polygon points="174.7,96 170.7,98.4 166.5,100.8 162,103.3 157.1,105.8 151.8,108.3 146.3,110.9 140.4,113.6 134.1,116.2 127.4,118.7 120.3,121.1 119.6,119.5 125.7,115.3 131.6,111.4 137.3,107.7 142.6,104.3 147.6,101 152.3,97.8 156.7,94.7 160.7,91.8 164.3,89 167.6,86.3 " />
<polygon points="174.7,96 174.7,96 166.8,86.9 " />
<polygon points="174.7,96 174.8,99.6 169.5,97.3 " />
<polygon points="105.9,69.7 109.1,83.8 113.1,96.7 118.1,108.5 124.1,119.1 131.2,128.7 139.3,137.3 148.5,144.9 158.9,151.5 170.4,157.1 183.1,161.9 178.8,174.4 165.1,168.5 152.8,161.6 141.8,153.6 132.1,144.5 123.8,134.4 116.9,123.4 111.5,111.3 107.5,98.4 105,84.6 104.1,69.9 " />
<polygon points="178.8,174.4 183.1,161.9 190.4,164.4 " />
</g>
</svg>
