<svg xmlns="http://www.w3.org/2000/svg" xmlns:xlink="http://www.w3.org/1999/xlink" version="1.1" baseProfile="full" viewBox="0 0 200 200" width="200" height="200">
<g fill="black">
<polygon points="54.2,14.8 57.4,16.1 60.7,17 63.7,18.1 66.5,19.2 69.2,20.5 71.6,21.8 73.9,23.2 76.1,24.7 78,26.3 79.8,28 69.8,34.6 69.3,33.2 68.5,31.7 67.5,30 66.2,28.2 64.7,26.4 62.9,24.5 60.9,22.5 58.7,20.4 56.3,18.2 53.4,16.4 " />
<polygon points="79.8,28 80.6,32.5 78.1,36.4 73.6,37.2 69.8,34.6 " />
<polygon points="146.5,20.7 144,21.9 141.2,23.2 138.3,24.6 135.1,26.1 131.7,27.6 128.1,29.2 124.2,30.9 120.1,32.6 115.7,34.3 111.2,36.3 110.3,34.7 114.2,31.7 117.8,28.7 121.2,25.9 124.5,23.3 127.6,20.8 130.5,18.5 133.1,16.4 135.6,14.3 137.9,12.4 139.9,10.7 " />
<polygon points="139.9,10.7 146.5,20.7 147.3,20.2 " />
<polygon points="147.3,20.2 147.5,23.7 140.5,21.1 " />
<polygon points="29.4,36.3 169.5,36.3 169.5,40.3 29.4,40.3 " />
<polygon points="169.5,36.3 145.5,38.3 157.5,26.3 " />
<polygon points="35.3,64.3 162.7,64.3 162.7,68.3 35.3,68.3 " />
<polygon points="162.7,64.3 138.7,66.3 150.7,54.3 " />
<polygon points="21.6,96.2 178.4,96.2 178.4,100.2 21.6,100.2 " />
<polygon points="178.4,96.2 154.4,98.2 166.4,86.2 " />
<polygon points="106,36.3 106,100.2 94,100.2 94,36.3 " />
<polygon points="105.5,98.6 105.5,172.8 93.5,172.8 93.5,96.6 " />
<polygon points="105.5,98.6 108.5,100.6 105.5,102.6 " />
<polygon points="105.5,172.8 103.1,176.4 99.5,178.8 95.9,176.4 93.5,172.8 " />
<polygon points="105.5,172.8 105.3,175.3 104.9,177.8 104.1,180.2 102.8,182.5 101.2,184.5 99.2,186.2 96.9,187.4 94.5,188.2 92,188.6 89.5,188.8 89.5,176.8 90.7,176.7 91.6,176.5 92.2,176.4 92.5,176.2 92.7,176 92.9,175.8 93,175.5 93.2,174.9 93.4,174 93.5,172.8 " />
<polygon points="89.5,182.8 89.5,176.8 69.5,176.8 69.5,179.8 " />
<polygon points="22,123.7 73.9,123.7 73.9,127.7 22,127.7 " />
<polygon points="79.8,127.1 77.1,134.3 73.7,141.1 69.3,147.4 64.2,153.2 58.3,158.4 51.7,163.1 44.2,167.3 36.1,171 27.2,174 17.5,176.5 17,174.8 25.8,170.5 33.8,166.2 40.9,161.7 47.2,157 52.7,152 57.3,146.9 61.2,141.6 64.2,136 66.5,130.3 68.1,124.2 " />
<polygon points="67.9,123.7 73.9,118.7 84.9,127.7 79.9,131.7 73.9,131.7 " />
<polygon points="169.5,124.3 165.8,125.8 161.8,127.4 157.6,129 153,130.7 148.1,132.4 142.9,134 137.4,135.7 131.5,137.4 125.3,138.9 118.7,140.3 118,138.6 124,135.3 129.6,132.3 135,129.6 140.1,127 144.8,124.5 149.3,122.2 153.4,119.9 157.2,117.8 160.6,115.7 163.8,113.7 " />
<polygon points="163.8,113.7 169.5,124.3 171.9,123 " />
<polygon points="171.9,123 172,126.3 164.7,123.4 " />
<polygon points="105.2,104.1 108.2,113.7 112,122.5 116.6,130.4 122.2,137.6 128.7,144.1 136.3,149.9 144.9,155 154.7,159.5 165.6,163.4 177.6,166.7 174.3,179.5 161.5,175.3 149.9,170.3 139.4,164.6 130.2,158.1 122.2,150.8 115.6,142.8 110.4,134.1 106.5,124.7 104.2,114.8 103.4,104.3 " />
<polygon points="174.3,179.5 177.6,166.7 186.1,168.9 " />
</g>
</svg>
