<svg xmlns="http://www.w3.org/2000/svg" xmlns:xlink="http://www.w3.org/1999/xlink" version="1.1" baseProfile="full" viewBox="0 0 200 200" width="200" height="200">
<g fill="black">
<polygon points="32.6,26.7 32.6,140 20.6,146 20.6,20.7 " />
<polygon points="26.6,26.7 98.7,26.7 98.7,30.7 26.6,30.7 " />
<polygon points="98.7,26.7 74.7,28.7 86.7,16.7 " />
<polygon points="65.5,26.7 65.5,60.8 53.5,60.8 53.5,26.7 " />
<polygon points="26.6,56.8 87.4,56.8 87.4,60.8 26.6,60.8 " />
<polygon points="93.4,58.8 93.4,101.1 81.4,107.1 81.4,58.8 " />
<polygon points="81.4,56.8 87.4,51.8 98.4,60.8 93.4,64.8 81.4,58.8 " />
<polygon points="26.6,91.1 87.4,91.1 87.4,95.1 26.6,95.1 " />
<polygon points="65.5,91.1 65.5,128 53.5,128 53.5,91.1 " />
<polygon points="26.6,124 101.1,124 101.1,128 26.6,128 " />
<polygon points="101.1,124 77.1,126 89.1,114 " />
<polygon points="115.3,24.7 170.1,24.7 170.1,28.7 115.3,28.7 " />
<polygon points="176.1,26.7 176.1,78.1 164.1,84.1 164.1,26.7 " />
<polygon points="164.1,24.7 170.1,19.7 181.1,28.7 176.1,32.7 164.1,26.7 " />
<polygon points="115.3,68.1 170.1,68.1 170.1,72.1 115.3,72.1 " />
<polygon points="121.3,24.7 121.3,115.3 109.3,115.3 109.3,18.7 " />
<polygon points="121.3,115.3 118.9,118.9 115.3,121.3 111.7,118.9 109.3,115.3 " />
<polygon points="121.3,115.3 121.4,116.6 121.5,117.5 121.7,118.1 121.9,118.4 122,118.6 122.2,118.7 122.6,118.9 123.2,119.1 124.1,119.3 125.3,119.3 125.3,131.3 122.7,131.2 120.2,130.7 117.8,129.9 115.6,128.7 113.6,127.1 111.9,125 110.7,122.8 109.9,120.4 109.4,117.9 109.3,115.3 " />
<polygon points="125.3,119.3 129.5,121.1 131.3,125.3 129.5,129.5 125.3,131.3 " />
<polygon points="125.3,119.3 180.6,119.3 180.6,131.3 125.3,131.3 " />
<polygon points="180.6,119.3 184.2,121.7 186.6,125.3 184.2,128.9 180.6,131.3 " />
<polygon points="174.6,120.3 180.6,94.3 182.6,94.3 180.6,120.3 " />
<polygon points="43.8,146.3 44.1,151.6 44.2,156.6 43.7,161.4 42.8,166 41.4,170.3 39.6,174.3 37.2,178 34.4,181.4 31,184.3 27.3,186.9 22,176.1 24.8,174.9 27.5,173.4 29.9,171.5 32.2,169.3 34.3,166.6 36.2,163.5 38,159.9 39.6,155.8 41,151.3 42,146.2 " />
<polygon points="27.3,186.9 22.7,187.1 19.3,184.2 19,179.6 22,176.1 " />
<polygon points="70.3,147.2 73.2,149.8 76.1,152.4 78.7,155.2 80.9,158.1 82.8,161.2 84.4,164.5 85.6,167.8 86.5,171.4 87.1,175 87.2,178.7 75.3,177.4 75.8,174.9 76.2,172.2 76.2,169.6 76,166.8 75.6,164 74.9,161 73.9,158 72.6,154.8 71.1,151.5 69,148.4 " />
<polygon points="87.2,178.7 85,182.7 80.6,184 76.6,181.8 75.3,177.4 " />
<polygon points="108.3,147 112.2,149.5 115.9,152 119.3,154.6 122.4,157.4 125.1,160.4 127.5,163.5 129.6,166.8 131.3,170.2 132.6,173.7 133.6,177.4 121.7,178.7 121.6,176.1 121.3,173.4 120.7,170.6 119.8,167.7 118.5,164.7 116.9,161.6 115,158.4 112.8,155.1 110.2,151.7 107.2,148.4 " />
<polygon points="133.6,177.4 132.3,181.8 128.3,184 123.9,182.7 121.7,178.7 " />
<polygon points="148.3,146 153.3,148.7 157.9,151.4 162.2,154.4 166,157.4 169.6,160.6 172.7,163.9 175.5,167.3 178,170.8 180.1,174.4 181.8,178.2 170.3,181.7 169.6,178.8 168.6,175.7 167.2,172.5 165.4,169.3 163.3,165.9 160.8,162.4 157.9,158.9 154.7,155.2 151.2,151.4 147.2,147.5 " />
<polygon points="181.8,178.2 181.3,182.8 177.8,185.7 173.3,185.2 170.3,181.7 " />
</g>
</svg>
