<svg xmlns="http://www.w3.org/2000/svg" xmlns:xlink="http://www.w3.org/1999/xlink" version="1.1" baseProfile="full" viewBox="0 0 200 200" width="200" height="200">
<g fill="black">
<polygon points="154.5,23.4 143.4,24.8 132.1,26.1 120.4,27.2 108.3,28.3 95.9,29.3 83.1,30.1 70,30.8 56.6,31.4 42.7,31.7 28.6,31.7 28.4,29.9 42.5,27.9 56.1,26 69.4,24.3 82.4,22.6 95,20.9 107.2,19.1 119.1,17.3 130.6,15.4 141.8,13.5 152.6,11.6 " />
<polygon points="151.6,11.7 154.5,23.4 163.9,21.9 " />
<polygon points="163.9,21.9 164.3,24.9 156.8,21 " />
<polygon points="14.9,40.6 186,40.6 186,44.6 14.9,44.6 " />
<polygon points="186,40.6 162,42.6 174,30.6 " />
<polygon points="49.2,58 49.2,105.3 37.2,111.3 37.2,52 " />
<polygon points="43.2,58 158.7,58 158.7,62 43.2,62 " />
<polygon points="164.7,60 164.7,104.3 152.7,110.3 152.7,60 " />
<polygon points="152.7,58 158.7,53 169.7,62 164.7,66 152.7,60 " />
<polygon points="43.2,78.5 158.7,78.5 158.7,82.5 43.2,82.5 " />
<polygon points="43.2,98.3 158.7,98.3 158.7,102.3 43.2,102.3 " />
<polygon points="107,23.2 107,143.4 95,143.4 95,23.2 " />
<polygon points="31.7,120.4 174.5,120.4 174.5,124.4 31.7,124.4 " />
<polygon points="174.5,120.4 154.5,122.4 164.5,111.4 " />
<polygon points="12.8,139.4 188.1,139.4 188.1,143.4 12.8,143.4 " />
<polygon points="188.1,139.4 164.1,141.4 176.1,129.4 " />
<polygon points="39.2,148.5 39.5,153.7 39.5,158.7 39,163.4 37.9,167.9 36.3,172.1 34.2,176.1 31.6,179.8 28.5,183.1 24.9,186 20.9,188.5 16,177.5 19.2,176.3 22,174.8 24.7,172.9 27.1,170.7 29.4,168.1 31.4,165.1 33.3,161.7 34.9,157.7 36.4,153.3 37.5,148.4 " />
<polygon points="20.9,188.5 16.3,188.5 13,185.4 12.9,180.9 16,177.5 " />
<polygon points="67.8,149.3 70.9,151.8 74,154.3 76.7,157 79,159.9 81.1,162.9 82.8,166.1 84.1,169.4 85,172.9 85.6,176.5 85.7,180.2 73.8,178.8 74.4,176.3 74.7,173.9 74.7,171.3 74.5,168.6 74,165.9 73.2,163 72.1,160 70.6,156.9 68.9,153.7 66.6,150.5 " />
<polygon points="85.7,180.2 83.5,184.1 79.1,185.4 75.1,183.2 73.8,178.8 " />
<polygon points="108.8,149.1 113,151.5 117,153.9 120.6,156.4 123.8,159.2 126.7,162 129.3,165.1 131.5,168.3 133.3,171.6 134.8,175.1 135.8,178.8 123.9,180.2 123.8,177.7 123.5,175.1 122.8,172.4 121.8,169.6 120.4,166.7 118.6,163.6 116.5,160.5 114,157.2 111.2,153.8 107.8,150.5 " />
<polygon points="135.8,178.8 134.5,183.2 130.5,185.4 126.2,184.1 123.9,180.2 " />
<polygon points="152,148.1 157.4,150.7 162.3,153.3 166.8,156.2 171,159.1 174.7,162.2 178.1,165.4 181.1,168.7 183.8,172.1 186,175.7 187.8,179.4 176.5,183.3 175.7,180.4 174.6,177.5 173,174.4 171.1,171.2 168.7,167.9 166,164.4 162.8,160.9 159.3,157.3 155.4,153.5 151.1,149.6 " />
<polygon points="187.8,179.4 187.5,184 184.1,187 179.5,186.7 176.5,183.3 " />
</g>
</svg>
