<svg xmlns="http://www.w3.org/2000/svg" xmlns:xlink="http://www.w3.org/1999/xlink" version="1.1" baseProfile="full" viewBox="0 0 200 200" width="200" height="200">
<g fill="black">
<polygon points="19,56 183,56 183,60 19,60 " />
<polygon points="183,56 159,58 171,46 " />
<polygon points="49,87 49,183 37,189 37,81 " />
<polygon points="43,87 157,87 157,91 43,91 " />
<polygon points="163,89 163,177 151,183 151,89 " />
<polygon points="151,87 157,82 168,91 163,95 151,89 " />
<polygon points="106,16 106,171 94,171 94,14 " />
<polygon points="106,16 109,18 104,21 " />
<polygon points="43,124 157,124 157,128 43,128 " />
<polygon points="43,167 157,167 157,171 43,171 " />
<polygon points="119.2,13.5 123,14.6 126.8,15.7 130.4,17 133.8,18.6 137.1,20.3 140.3,22.3 143.3,24.5 146.1,26.8 148.7,29.4 151.2,32.1 141.3,38.9 139.9,36.3 138.3,33.8 136.5,31.3 134.5,28.9 132.4,26.5 130,24.2 127.5,21.9 124.7,19.6 121.8,17.2 118.5,15.2 " />
<polygon points="151.2,32.1 152.1,36.6 149.6,40.4 145.2,41.3 141.3,38.9 " />
</g>
</svg>
