<svg xmlns="http://www.w3.org/2000/svg" xmlns:xlink="http://www.w3.org/1999/xlink" version="1.1" baseProfile="full" viewBox="0 0 200 200" width="200" height="200">
<g fill="black">
<polygon points="55,24 55,107 43,113 43,18 " />
<polygon points="49,24 151,24 151,28 49,28 " />
<polygon points="157,26 157,101 145,107 145,26 " />
<polygon points="145,24 151,19 162,28 157,32 145,26 " />
<polygon points="49,59 151,59 151,63 49,63 " />
<polygon points="49,91 151,91 151,95 49,95 " />
<polygon points="23,138 175,138 175,142 23,142 " />
<polygon points="175,138 151,140 163,128 " />
<polygon points="117,103 117,183 105,189 105,101 " />
<polygon points="117,103 120,105 117,107 " />
<polygon points="107,24 107,95 95,95 95,24 " />
<polygon points="80.3,109.3 78,111.8 75.5,114.5 72.8,117.4 70,120.4 67,123.5 63.8,126.7 60.4,130 56.7,133.5 52.8,136.9 48.6,140.5 47.3,139.4 50.2,134.7 52.9,130.3 55.6,126.1 58.2,122.1 60.6,118.3 62.9,114.8 65,111.4 67,108.2 68.8,105.1 70.5,102.3 " />
<polygon points="70.5,102.3 80.3,109.3 71,101.6 " />
<polygon points="80.3,109.3 81.5,112.6 74.3,112.4 " />
</g>
</svg>
