<svg xmlns="http://www.w3.org/2000/svg" xmlns:xlink="http://www.w3.org/1999/xlink" version="1.1" baseProfile="full" viewBox="0 0 200 200" width="200" height="200">
<g fill="black">
<polygon points="20,49 182,49 182,53 20,53 " />
<polygon points="182,49 158,51 170,39 " />
<polygon points="53,79 53,181 41,187 41,73 " />
<polygon points="47,79 153,79 153,83 47,83 " />
<polygon points="159,81 159,175 147,181 147,81 " />
<polygon points="147,79 153,74 164,83 159,87 147,81 " />
<polygon points="47,165 153,165 153,169 47,169 " />
<polygon points="47,120 153,120 153,124 47,124 " />
<polygon points="106,17 106,169 94,169 94,15 " />
<polygon points="106,17 109,19 106,21 " />
</g>
</svg>
