<svg xmlns="http://www.w3.org/2000/svg" xmlns:xlink="http://www.w3.org/1999/xlink" version="1.1" baseProfile="full" viewBox="0 0 200 200" width="200" height="200">
<g fill="black">
<polygon points="35.1,38.6 36.7,42.3 38.3,45.8 39.6,49.3 40.4,52.7 40.8,56.2 40.8,59.6 40.4,63 39.6,66.3 38.2,69.5 36.5,72.5 27.3,64.8 28.8,63.4 30.2,61.8 31.4,60 32.4,57.9 33.2,55.6 33.8,52.9 34.2,49.9 34.3,46.6 34.2,43 33.4,39.2 " />
<polygon points="36.5,72.5 32.4,74.6 28,73.2 26,69.2 27.3,64.8 " />
<polygon points="36,46 172,46 172,50 36,50 " />
<polygon points="177.1,51 175.4,53.2 173.5,55.5 171.7,57.8 169.7,60.2 167.7,62.7 165.7,65.1 163.5,67.6 161.3,70.2 158.9,72.7 156.7,75.4 155.2,74.5 156.6,71.3 157.7,68 158.8,64.8 160,61.7 161.2,58.7 162.3,55.8 163.5,53 164.6,50.2 165.7,47.5 166.8,44.9 " />
<polygon points="166,46 172,41 183,50 178,53 166,58 " />
<polygon points="37,29 169,29 169,33 37,33 " />
<polygon points="169,29 149,31 159,20 " />
<polygon points="107,15 107,50 95,50 95,13 " />
<polygon points="107,15 110,17 105,20 " />
<polygon points="64.9,58.8 64.9,97 52.9,103 52.9,52.8 " />
<polygon points="58.9,58.8 144,58.8 144,62.8 58.9,62.8 " />
<polygon points="150,60.8 150,94 138,100 138,60.8 " />
<polygon points="138,58.8 144,53.8 155,62.8 150,66.8 138,60.8 " />
<polygon points="107.5,58.8 107.5,94 95.5,94 95.5,58.8 " />
<polygon points="58.9,74.2 144,74.2 144,78.2 58.9,78.2 " />
<polygon points="58.9,90 144,90 144,94 58.9,94 " />
<polygon points="101.5,103.6 97.7,105.8 93.7,108 89.4,110.1 84.9,112.3 80.3,114.4 75.4,116.5 70.2,118.5 64.9,120.4 59.2,122.2 53.3,123.8 52.6,122.1 57.6,118.8 62.6,115.6 67.3,112.6 71.9,109.7 76.2,106.9 80.4,104.2 84.3,101.5 88,98.8 91.5,96.2 94.7,93.7 " />
<polygon points="93.9,94.3 101.5,103.6 101.9,103.3 " />
<polygon points="101.9,103.3 102.1,106.8 96.6,104.5 " />
<polygon points="29.5,120.2 39.9,119.7 50.8,119.2 62.2,118.7 73.9,118.2 86.1,117.7 98.8,117.2 111.9,116.8 125.4,116.4 139.4,116.2 153.9,116.3 154,118 139.7,120 125.8,121.8 112.4,123.3 99.3,124.8 86.8,126.1 74.6,127.4 62.9,128.7 51.6,129.9 40.8,131.1 30.4,132.2 " />
<polygon points="30.4,132.2 29.5,120.2 27.5,120.4 " />
<polygon points="30.4,132.2 32.7,135 36.2,128.7 " />
<polygon points="123.2,102.5 129.4,103.5 135.3,104.9 140.8,106.5 146.1,108.3 151.1,110.3 155.8,112.4 160.2,114.6 164.4,117.1 168.2,119.6 171.8,122.3 163.7,131.1 161,128.4 158.1,125.7 154.8,123.1 151.1,120.4 147.2,117.8 142.9,115.2 138.3,112.5 133.3,109.9 128.1,107.1 122.6,104.2 " />
<polygon points="171.8,122.3 173.7,126.5 172.1,130.8 168,132.7 163.7,131.1 " />
<polygon points="106.1,128.5 106.1,176.5 94.1,176.5 94.1,126.5 " />
<polygon points="106.1,128.5 109.1,130.5 104.1,133.5 " />
<polygon points="100.1,148 167.3,148 167.3,152 100.1,152 " />
<polygon points="167.3,148 143.3,150 155.3,138 " />
<polygon points="53.4,147.6 52.1,153.4 50.1,158.8 47.5,163.7 44.2,168.2 40.3,172.1 35.9,175.5 31,178.4 25.5,180.8 19.6,182.5 13.2,183.6 12.6,181.9 18.2,178.9 23.2,176 27.5,172.9 31.2,169.6 34.2,166.2 36.7,162.7 38.6,158.9 40.1,155 41,150.8 41.5,146.2 " />
<polygon points="41.4,147.2 53.4,147.6 41.7,144.1 " />
<polygon points="53.4,147.6 56.2,149.9 50.8,152.3 " />
<polygon points="46.7,158.6 51,161.4 56.8,164 64.7,166.4 74.6,168.5 86.7,170.3 101,171.7 117.5,172.8 136.1,173.4 156.9,173.7 179.9,173.6 179.9,186.8 156.7,186.2 135.6,185.2 116.7,183.8 99.9,181.9 85.3,179.5 72.8,176.6 62.4,173.3 54.2,169.3 48.4,164.7 45.2,159.5 " />
<polygon points="179.9,186.8 179.9,173.6 191.7,173.6 " />
</g>
</svg>
