<svg xmlns="http://www.w3.org/2000/svg" xmlns:xlink="http://www.w3.org/1999/xlink" version="1.1" baseProfile="full" viewBox="0 0 200 200" width="200" height="200">
<g fill="black">
<polygon points="64.9,76.7 64.9,115 52.9,121 52.9,70.7 " />
<polygon points="58.9,76.7 144,76.7 144,80.7 58.9,80.7 " />
<polygon points="150,78.7 150,108 138,114 138,78.7 " />
<polygon points="138,76.7 144,71.7 155,80.7 150,84.7 138,78.7 " />
<polygon points="107.5,76.7 107.5,108 95.5,108 95.5,76.7 " />
<polygon points="58.9,90.2 144,90.2 144,94.2 58.9,94.2 " />
<polygon points="58.9,104 144,104 144,108 58.9,108 " />
<polygon points="96.8,115.9 94.8,118 92.6,120 90.4,122 88.1,124 85.7,125.9 83.2,127.7 80.5,129.5 77.7,131.3 74.8,132.9 72,134.7 70.9,133.4 73.1,130.9 75,128.2 76.8,125.6 78.5,123.1 80.2,120.7 81.7,118.3 83.2,115.9 84.6,113.5 85.8,111.2 87,109 " />
<polygon points="87.4,108.3 96.8,115.9 86.4,109.8 " />
<polygon points="96.8,115.9 98.1,119.2 92.3,118.8 " />
<polygon points="46.7,130 55.4,130 64.3,130 73.3,129.9 82.5,129.7 91.9,129.5 101.4,129.4 111.1,129.2 120.9,129 130.9,129 141.1,129.1 141.3,130.9 131.2,132.7 121.3,134.3 111.5,135.7 101.9,136.9 92.4,138 83.1,139 73.9,139.9 64.8,140.7 55.9,141.4 47.2,142 " />
<polygon points="44.7,130.1 46.7,130 47.2,142 " />
<polygon points="53,138.8 49.3,145 47.2,142 " />
<polygon points="116.2,117.2 120.6,118.1 125,119 129.2,120.1 133.2,121.4 137,122.9 140.6,124.5 144.1,126.2 147.5,128 150.6,130.1 153.6,132.2 145.4,141 143.4,138.7 141.2,136.5 138.7,134.2 136,132 133.2,129.8 130.1,127.6 126.8,125.5 123.3,123.3 119.6,121 115.6,118.9 " />
<polygon points="153.6,132.2 155.4,136.4 153.9,140.7 149.7,142.5 145.4,141 " />
<polygon points="99.5,151.2 164.8,151.2 164.8,155.2 99.5,155.2 " />
<polygon points="164.8,151.2 140.8,153.2 152.8,141.2 " />
<polygon points="105.5,136.6 105.5,174.4 93.5,174.4 93.5,134.6 " />
<polygon points="105.5,136.6 108.5,138.6 103.5,141.6 " />
<polygon points="54,151.8 52.6,156.6 50.5,161 47.7,165 44.4,168.5 40.4,171.5 36,174 31,176.1 25.6,177.7 19.6,178.9 13.2,179.7 12.8,177.9 18.7,175.6 23.8,173 28.3,170.5 32.1,167.8 35.3,165 37.8,162.2 39.6,159.3 41,156.4 41.8,153.3 42.1,150.1 " />
<polygon points="42.4,148.1 54,151.8 42,151.1 " />
<polygon points="54,151.8 56.7,154.2 51.3,156.5 " />
<polygon points="47.5,159.8 51.5,161.7 57,163.4 64.6,165.1 74.3,166.5 86.1,167.8 100,168.8 116.1,169.5 134.2,169.9 154.5,170 176.8,169.8 176.8,183 154.3,182.5 133.8,181.7 115.4,180.5 99.2,178.9 85,177 72.9,174.8 62.8,172.1 54.9,168.9 49.2,165.2 46.1,160.9 " />
<polygon points="176.8,183 176.8,169.8 188.7,169.8 " />
<polygon points="33.1,28.8 170.8,28.8 170.8,32.8 33.1,32.8 " />
<polygon points="170.8,28.8 146.8,30.8 158.8,18.8 " />
<polygon points="108,16.3 108,51 96,51 96,14.3 " />
<polygon points="108,16.3 111,18.3 106,21.3 " />
<polygon points="42.9,47 161,47 161,51 42.9,51 " />
<polygon points="161,47 141,49 151,38 " />
<polygon points="34.4,56.5 34.9,60.5 35.4,64.2 35.5,67.9 35.1,71.3 34.4,74.6 33.2,77.8 31.5,80.7 29.4,83.4 26.8,85.8 23.9,87.8 19.1,76.8 21,76.3 22.8,75.5 24.5,74.5 26.1,73.2 27.6,71.5 29,69.3 30.2,66.8 31.3,63.8 32.3,60.4 32.6,56.6 " />
<polygon points="23.9,87.8 19.3,87.8 16,84.7 15.9,80.1 19.1,76.8 " />
<polygon points="34.5,62.1 176.3,62.1 176.3,66.1 34.5,66.1 " />
<polygon points="180.9,68 179.2,69.3 177.3,70.6 175.4,72 173.2,73.4 171,74.8 168.5,76.3 165.9,77.9 163.1,79.5 160.1,81.1 157.2,83.1 156,81.7 158.5,79.2 160.5,76.5 162.4,74 164.2,71.6 165.9,69.4 167.4,67.3 168.7,65.3 169.9,63.5 170.9,61.8 171.8,60.2 " />
<polygon points="170.3,62.1 176.3,57.1 187.3,66.1 182.3,69.1 170.3,74.1 " />
</g>
</svg>
