<svg xmlns="http://www.w3.org/2000/svg" xmlns:xlink="http://www.w3.org/1999/xlink" version="1.1" baseProfile="full" viewBox="0 0 200 200" width="200" height="200">
<g fill="black">
<polygon points="57,26 57,104.4 45,110.4 45,20 " />
<polygon points="51,26 149.7,26 149.7,30 51,30 " />
<polygon points="155.7,28 155.7,101.4 143.7,107.4 143.7,28 " />
<polygon points="143.7,26 149.7,21 160.7,30 155.7,34 143.7,28 " />
<polygon points="51,93.4 149.7,93.4 149.7,97.4 51,97.4 " />
<polygon points="108.8,36.6 108,43.9 106.4,50.8 104,57.4 100.7,63.5 96.6,69.1 91.7,74.2 86,78.8 79.7,82.8 72.6,86.3 64.7,89.2 64,87.5 70.7,83 76.7,78.4 81.8,73.7 86.2,69 89.7,64 92.5,58.9 94.6,53.7 96,48.2 96.7,42.5 96.8,36.6 " />
<polygon points="96.8,36.6 108.8,36.6 96.8,34.2 " />
<polygon points="108.8,36.6 111.8,38.6 105.8,42.6 " />
<polygon points="98.4,58.8 103.3,60.2 108,61.7 112.5,63.4 116.6,65.3 120.5,67.3 124.2,69.5 127.7,71.8 130.9,74.3 133.8,76.9 136.5,79.6 127,86.9 125.3,84.3 123.4,81.7 121.2,79.1 118.7,76.5 115.9,73.9 112.8,71.3 109.5,68.6 105.8,65.9 101.9,63.2 97.7,60.5 " />
<polygon points="136.5,79.6 137.6,84.1 135.4,88 130.9,89.1 127,86.9 " />
<polygon points="51,118 51,182 39,182 39,112 " />
<polygon points="45,118 155,118 155,122 45,122 " />
<polygon points="161,120 161,182 149,182 149,120 " />
<polygon points="149,118 155,113 166,122 161,126 149,120 " />
<polygon points="88,118 88,182 76,182 76,118 " />
<polygon points="124,118 124,182 112,182 112,118 " />
<polygon points="12,178 188,178 188,182 12,182 " />
<polygon points="188,178 164,180 176,168 " />
</g>
</svg>
