<svg xmlns="http://www.w3.org/2000/svg" xmlns:xlink="http://www.w3.org/1999/xlink" version="1.1" baseProfile="full" viewBox="0 0 200 200" width="200" height="200">
<g fill="black">
<polygon points="51,118 51,182 39,182 39,112 " />
<polygon points="45,118 155,118 155,122 45,122 " />
<polygon points="161,120 161,182 149,182 149,120 " />
<polygon points="149,118 155,113 166,122 161,126 149,120 " />
<polygon points="88,118 88,182 76,182 76,118 " />
<polygon points="124,118 124,182 112,182 112,118 " />
<polygon points="12,178 188,178 188,182 12,182 " />
<polygon points="188,178 164,180 176,168 " />
<polygon points="57.6,99.5 146.4,99.5 146.4,103.5 57.6,103.5 " />
<polygon points="146.4,99.5 122.4,101.5 134.4,89.5 " />
<polygon points="20.3,40.8 182.7,40.8 182.7,44.8 20.3,44.8 " />
<polygon points="182.7,40.8 158.7,42.8 170.7,30.8 " />
<polygon points="104.4,14.9 104.4,30.4 92.4,30.4 92.4,12.9 " />
<polygon points="104.4,14.9 107.4,16.9 104.4,18.9 " />
<polygon points="104.4,30.4 102,34 98.4,36.4 94.8,34 92.4,30.4 " />
<polygon points="104.4,30.4 103.2,42.8 100.3,54.5 95.5,65.2 89,74.9 80.9,83.7 71.1,91.4 59.8,98.1 46.9,103.8 32.4,108.4 16.4,112 16,110.3 31.2,104.8 44.7,98.8 56.5,92.3 66.6,85.3 74.9,77.6 81.5,69.4 86.6,60.6 90,51.2 92,41.2 92.4,30.4 " />
<polygon points="104.7,43.3 110.3,51.4 116,59 122.2,66 128.9,72.6 136.1,78.6 143.8,84.2 152.2,89.2 161.1,93.7 170.6,97.8 180.8,101.4 176.4,113.8 165.7,109.3 155.7,104.3 146.4,98.6 137.9,92.5 130,85.7 122.9,78.5 116.6,70.6 111.2,62.3 106.6,53.4 103.1,44 " />
<polygon points="176.4,113.8 180.8,101.4 188,103.9 " />
</g>
</svg>
