<svg xmlns="http://www.w3.org/2000/svg" xmlns:xlink="http://www.w3.org/1999/xlink" version="1.1" baseProfile="full" viewBox="0 0 200 200" width="200" height="200">
<g fill="black">
<polygon points="40.5,28.9 40.5,82.8 28.5,88.8 28.5,22.9 " />
<polygon points="34.5,28.9 161.4,28.9 161.4,32.9 34.5,32.9 " />
<polygon points="167.4,30.9 167.4,74.8 155.4,80.8 155.4,30.9 " />
<polygon points="155.4,28.9 161.4,23.9 172.4,32.9 167.4,36.9 155.4,30.9 " />
<polygon points="82.8,28.9 82.8,70.8 70.8,70.8 70.8,28.9 " />
<polygon points="125.1,28.9 125.1,70.8 113.1,70.8 113.1,28.9 " />
<polygon points="34.5,66.8 161.4,66.8 161.4,70.8 34.5,70.8 " />
<polygon points="107,81.4 107,169.3 95,169.3 95,79.4 " />
<polygon points="107,81.4 110,83.4 107,85.4 " />
<polygon points="107,169.3 104.6,172.9 101,175.3 97.4,172.9 95,169.3 " />
<polygon points="107,169.3 106.8,171.8 106.4,174.3 105.6,176.7 104.3,179 102.7,181 100.7,182.6 98.4,183.9 96,184.7 93.5,185.1 91,185.3 91,173.3 92.2,173.2 93.1,173 93.7,172.8 94,172.7 94.2,172.5 94.4,172.3 94.5,172 94.7,171.4 94.9,170.5 95,169.3 " />
<polygon points="91,179.3 91,173.3 71,173.3 71,176.3 " />
<polygon points="28,108.3 77,108.3 77,112.3 28,112.3 " />
<polygon points="82.9,111.1 80.7,119.7 77.6,127.7 73.4,135.3 68.2,142.3 62,148.8 54.9,154.8 46.9,160.3 38,165.2 28.1,169.5 17.3,173.2 16.6,171.5 26.4,166.1 35.3,160.5 43.2,154.9 50,149 55.9,143 60.8,136.7 64.7,130.2 67.7,123.5 69.8,116.6 71,109.4 " />
<polygon points="71,108.3 77,103.3 88,112.3 83,116.3 77,116.3 " />
<polygon points="171.4,102.6 167.3,106 163.1,109.4 158.6,112.7 153.9,116 149.1,119.3 144,122.5 138.7,125.6 133.2,128.6 127.5,131.4 121.4,134 120.5,132.5 125.4,128.2 130.3,124.1 135,120.2 139.6,116.3 144,112.5 148.2,108.7 152.2,105 156,101.3 159.6,97.6 163.1,94 " />
<polygon points="163.1,94 171.4,102.6 163.3,93.7 " />
<polygon points="171.4,102.6 172.1,106.2 165,104.6 " />
<polygon points="106.1,97.2 110.3,107.4 115.1,116.8 120.3,125.4 126.3,133.1 132.9,140 140.2,146.2 148.2,151.7 157,156.4 166.5,160.4 176.9,163.7 173,176.4 161.8,172 151.5,166.9 142.1,160.9 133.6,154.1 126.1,146.5 119.6,138.2 114.2,129.1 109.7,119.3 106.4,108.8 104.3,97.6 " />
<polygon points="173,176.4 176.9,163.7 184.6,166.1 " />
</g>
</svg>
