<svg xmlns="http://www.w3.org/2000/svg" xmlns:xlink="http://www.w3.org/1999/xlink" version="1.1" baseProfile="full" viewBox="0 0 200 200" width="200" height="200">
<g fill="black">
<polygon points="101,14 101,43 89,43 89,12 " />
<polygon points="101,14 104,16 99,19 " />
<polygon points="95,26 160,26 160,30 95,30 " />
<polygon points="160,26 140,28 150,17 " />
<polygon points="44,39 44,111 32,111 32,33 " />
<polygon points="44,111 41.6,114.6 38,117 34.4,114.6 32,111 " />
<polygon points="44,111 43.4,121.3 42.5,131 41.1,140.1 39.3,148.7 37,156.6 34.3,163.8 31.1,170.4 27.5,176.3 23.3,181.4 18.6,185.6 17.3,184.3 20.2,179.1 22.8,173.6 25.2,167.7 27.2,161.3 28.9,154.3 30.2,146.8 31.2,138.8 31.8,130.1 32.1,120.8 32,111 " />
<polygon points="38,39 170,39 170,43 38,43 " />
<polygon points="174.9,44.4 173,46.3 171.1,48.1 169.1,49.8 167,51.4 164.9,53 162.7,54.5 160.5,55.8 158.1,57.1 155.7,58.2 153.5,59.7 152.4,58.2 154.2,56.4 155.5,54.2 156.9,52.1 158.2,50 159.5,47.9 160.7,45.8 161.9,43.8 163,41.7 164.1,39.6 165,37.5 " />
<polygon points="164,39 170,34 181,43 176,46 164,51 " />
<polygon points="54,53 153,53 153,57 54,57 " />
<polygon points="153,53 133,55 143,44 " />
<polygon points="91.2,67.3 88.9,69.5 86.4,71.7 83.5,73.8 80.4,75.9 76.9,77.9 73.1,79.9 68.9,81.9 64.4,83.9 59.5,85.8 54.4,87.7 53.5,86.2 58,83 62.1,79.8 65.8,76.9 69.2,74.1 72.2,71.4 74.9,68.9 77.1,66.4 79,64.2 80.5,62.1 81.5,60.2 " />
<polygon points="80.9,61 91.2,67.3 82,59.6 " />
<polygon points="91.2,67.3 92.5,70.7 86.7,70.2 " />
<polygon points="125.2,62.4 129.2,63.1 133.2,63.6 136.9,64.4 140.4,65.3 143.7,66.3 146.8,67.5 149.7,68.8 152.5,70.3 155,71.9 157.4,73.7 148.5,81.8 147.4,80.1 146,78.4 144.4,76.7 142.4,74.9 140.2,73.1 137.6,71.3 134.8,69.5 131.7,67.6 128.4,65.7 124.7,64.1 " />
<polygon points="157.4,73.7 158.9,78 157,82.2 152.6,83.7 148.5,81.8 " />
<polygon points="115.5,78.9 110.2,83.5 104.5,87.8 98.4,92 92,95.9 85.1,99.6 78,103 70.4,106.2 62.4,109.1 54,111.6 45.2,113.8 44.7,112.1 52.7,108.1 60.3,104.2 67.6,100.2 74.4,96.3 80.9,92.2 86.9,88.1 92.6,83.8 97.8,79.4 102.6,75 107,70.4 " />
<polygon points="106.3,71.1 115.5,78.9 107.3,70.1 " />
<polygon points="115.5,78.9 116.2,82.4 110.5,81 " />
<polygon points="111.3,75.9 116.6,78.5 121.8,81.2 127.3,83.9 132.9,86.4 138.7,88.9 144.8,91.3 151.2,93.6 157.8,95.7 164.7,97.7 171.8,99.6 168.1,112.3 160.7,109.6 153.7,106.8 147,103.8 140.6,100.6 134.6,97.3 128.9,93.8 123.5,90 118.6,86.1 114.1,81.9 110.1,77.3 " />
<polygon points="168.1,112.3 171.8,99.6 179.7,102 " />
<polygon points="82.9,106.7 82.9,181.4 70.9,187.4 70.9,100.7 " />
<polygon points="76.9,106.7 145,106.7 145,110.7 76.9,110.7 " />
<polygon points="151,108.7 151,175.4 139,181.4 139,108.7 " />
<polygon points="139,106.7 145,101.7 156,110.7 151,114.7 139,108.7 " />
<polygon points="76.9,126.3 145,126.3 145,130.3 76.9,130.3 " />
<polygon points="76.9,145 145,145 145,149 76.9,149 " />
<polygon points="76.9,165.4 145,165.4 145,169.4 76.9,169.4 " />
</g>
</svg>
