<svg xmlns="http://www.w3.org/2000/svg" xmlns:xlink="http://www.w3.org/1999/xlink" version="1.1" baseProfile="full" viewBox="0 0 200 200" width="200" height="200">
<g fill="black">
<polygon points="22.9,29 186,29 186,33 22.9,33 " />
<polygon points="186,29 162,31 174,19 " />
<polygon points="105.2,13.8 105.2,56 93.2,56 93.2,11.8 " />
<polygon points="105.2,13.8 108.2,15.8 103.2,18.8 " />
<polygon points="41.8,52 164,52 164,56 41.8,56 " />
<polygon points="164,52 144,54 154,43 " />
<polygon points="43.8,61.7 44.5,65.4 45.1,69 45.3,72.7 44.9,76.4 44.1,80 42.8,83.5 41,87 38.8,90.3 36.2,93.5 33.2,96.6 25.8,87.1 28.6,85.3 31.1,83.3 33.3,81.3 35.3,79.1 37,76.8 38.5,74.3 39.8,71.6 40.9,68.7 41.7,65.4 42,61.9 " />
<polygon points="33.2,96.6 28.7,97.7 24.7,95.5 23.6,91.1 25.8,87.1 " />
<polygon points="41.8,67.7 170.3,67.7 170.3,71.7 41.8,71.7 " />
<polygon points="176,71.5 174.5,74.4 172.8,77.1 170.9,79.8 168.7,82.5 166.3,85.1 163.7,87.6 160.9,90.1 157.8,92.5 154.4,94.8 151,97.3 149.8,96 152.5,92.8 154.7,89.5 156.7,86.4 158.5,83.4 160.1,80.5 161.5,77.7 162.6,75 163.5,72.5 164.1,70.1 164.6,67.8 " />
<polygon points="164.3,67.7 170.3,62.7 181.3,71.7 176.3,74.7 164.3,79.7 " />
<polygon points="58.5,87.3 145.2,87.3 145.2,91.3 58.5,91.3 " />
<polygon points="145.2,87.3 121.2,89.3 133.2,77.3 " />
<polygon points="154.7,111.1 143.8,112.2 132.6,113.4 121.1,114.5 109.4,115.6 97.5,116.7 85.3,117.7 72.9,118.8 60.2,119.7 47.3,120.4 34.1,121 33.8,119.2 46.8,116.7 59.5,114.4 72.1,112.2 84.4,110.2 96.4,108.3 108.3,106.4 119.8,104.5 131.2,102.7 142.3,101 153.2,99.2 " />
<polygon points="152.2,99.3 154.7,111.1 164.8,109.8 " />
<polygon points="164.8,109.8 165.2,112.8 157.6,108.7 " />
<polygon points="24,132.7 186,132.7 186,136.7 24,136.7 " />
<polygon points="186,132.7 162,134.7 174,122.7 " />
<polygon points="109,114.4 109,184.7 97,190.7 97,112.4 " />
<polygon points="109,114.4 112,116.4 107,119.4 " />
<polygon points="105.3,139.3 99.3,144.8 92.6,150 85.4,154.9 77.6,159.5 69.2,163.9 60.2,167.9 50.6,171.7 40.5,175.1 29.6,178.2 18.2,180.8 17.7,179 28.4,174.6 38.6,170.1 48.1,165.7 57,161.1 65.2,156.4 72.8,151.6 79.7,146.7 86,141.6 91.6,136.4 96.6,131.1 " />
<polygon points="109.3,134.8 115.1,139 121,143.2 127,147.2 133.2,150.9 139.8,154.5 146.6,157.9 153.7,161 161.1,163.9 168.9,166.5 177,168.9 172.9,181.5 164.6,178.3 156.6,174.8 149,171 141.8,166.9 135,162.5 128.6,157.9 122.6,152.9 117.1,147.7 112.2,142 108,136 " />
<polygon points="172.9,181.5 177,168.9 184.5,171.4 " />
</g>
</svg>
