<svg xmlns="http://www.w3.org/2000/svg" xmlns:xlink="http://www.w3.org/1999/xlink" version="1.1" baseProfile="full" viewBox="0 0 200 200" width="200" height="200">
<g fill="black">
<polygon points="22,29 186,29 186,33 22,33 " />
<polygon points="186,29 162,31 174,19 " />
<polygon points="105,13 105,56 93,56 93,11 " />
<polygon points="105,13 108,15 103,18 " />
<polygon points="41,52 164,52 164,56 41,56 " />
<polygon points="164,52 144,54 154,43 " />
<polygon points="42.9,60.9 43.6,64.6 44.3,68.4 44.4,72.1 44.1,75.8 43.4,79.5 42.2,83 40.5,86.5 38.4,89.8 35.9,92.9 33,95.9 25.7,86.4 28.3,84.7 30.6,82.9 32.7,80.9 34.6,78.8 36.3,76.5 37.7,73.9 39,71.1 40,68.1 40.9,64.7 41.2,61 " />
<polygon points="33,95.9 28.5,97 24.6,94.8 23.4,90.3 25.7,86.4 " />
<polygon points="41,67 170,67 170,71 41,71 " />
<polygon points="175.7,70.7 174.2,73.6 172.6,76.5 170.6,79.2 168.5,81.9 166.1,84.5 163.4,87 160.6,89.5 157.4,91.9 154,94.2 150.5,96.6 149.4,95.3 152.1,92.1 154.3,88.9 156.4,85.8 158.2,82.8 159.8,79.9 161.2,77.1 162.3,74.5 163.2,71.9 163.8,69.5 164.2,67.2 " />
<polygon points="164,67 170,62 181,71 176,74 164,79 " />
<polygon points="145.8,94 136.1,95.4 126.3,96.8 116.2,98.2 105.9,99.6 95.3,101 84.6,102.3 73.7,103.6 62.5,104.9 51,105.9 39.4,106.8 39.1,105 50.4,102.2 61.6,99.6 72.6,97.2 83.4,94.9 93.9,92.6 104.3,90.5 114.5,88.3 124.4,86.3 134.1,84.2 143.7,82.2 " />
<polygon points="142.7,82.4 145.8,94 154.8,92.4 " />
<polygon points="154.8,92.4 155.2,95.4 147.7,91.6 " />
<polygon points="30.4,121.3 173,121.3 173,125.3 30.4,125.3 " />
<polygon points="173,121.3 149,123.3 161,111.3 " />
<polygon points="106,98.9 106,183.5 94,189.5 94,96.9 " />
<polygon points="106,98.9 109,100.9 104,103.9 " />
<polygon points="103.1,127.3 97.8,133.9 91.9,140.2 85.4,146.2 78.5,151.8 71,157.1 63,162 54.4,166.7 45.3,170.9 35.7,174.7 25.5,178 24.8,176.4 34.1,171.3 42.9,166.1 51.2,161 58.9,155.7 66,150.2 72.6,144.6 78.6,138.8 84,132.9 88.9,126.8 93.3,120.5 " />
<polygon points="105.7,123.6 111,129 116.3,134.1 121.8,139 127.4,143.7 133.2,148.1 139.2,152.1 145.5,155.9 152.1,159.4 158.9,162.6 165.9,165.6 160.7,177.7 153.3,173.9 146.2,169.7 139.6,165.2 133.2,160.4 127.3,155.3 121.7,149.9 116.6,144.1 111.9,138 107.7,131.5 104.2,124.6 " />
<polygon points="160.7,177.7 165.9,165.6 172.1,168.3 " />
</g>
</svg>
