<svg xmlns="http://www.w3.org/2000/svg" xmlns:xlink="http://www.w3.org/1999/xlink" version="1.1" baseProfile="full" viewBox="0 0 200 200" width="200" height="200">
<g fill="black">
<polygon points="76.6,28.6 72.5,30.6 68,32.5 63,34.4 57.6,36.3 51.6,38.1 45.2,39.8 38.3,41.5 31,43.1 23,44.6 14.6,45.8 14.1,44.1 22,40.9 29.4,38 36.4,35.3 42.8,32.6 48.7,30.1 54.1,27.6 59,25.2 63.3,22.8 67.1,20.6 70.3,18.4 " />
<polygon points="70.3,18.4 76.6,28.6 78,27.8 " />
<polygon points="78,27.8 78.1,31.2 71,28.5 " />
<polygon points="12.6,74 81.5,74 81.5,78 12.6,78 " />
<polygon points="81.5,74 57.5,76 69.5,64 " />
<polygon points="54.4,33 54.4,183 42.4,189 42.4,33 " />
<polygon points="51.8,76 51.6,77 49.3,86.8 46.7,96.3 43.8,105.5 40.5,114.3 36.9,122.8 32.9,130.9 28.6,138.7 24,146.1 18.9,153 13.3,159.5 11.9,158.4 15.7,151 19.3,143.4 22.8,135.7 26,127.8 29,119.6 31.7,111.2 34.2,102.5 36.3,93.6 38.2,84.4 39.6,76 " />
<polygon points="51.5,97.6 54.9,98.7 58.3,99.8 61.5,101.1 64.7,102.6 67.6,104.2 70.5,106.1 73.2,108.1 75.7,110.3 78.1,112.6 80.4,115.1 70.4,121.7 69.2,119.4 67.8,117 66.3,114.7 64.6,112.4 62.8,110.1 60.7,107.9 58.5,105.7 56.1,103.4 53.6,101.1 50.7,99.2 " />
<polygon points="80.4,115.1 81.2,119.6 78.7,123.5 74.2,124.3 70.4,121.7 " />
<polygon points="78,38 186,38 186,42 78,42 " />
<polygon points="186,38 162,40 174,28 " />
<polygon points="131,16 130.1,24.9 128.3,33.4 125.5,41.6 121.7,49.4 117,56.8 111.3,63.7 104.7,70.2 97.2,76.2 88.8,81.8 79.4,86.7 78.5,85.2 86.6,78.7 93.8,72.1 100.1,65.6 105.5,58.9 109.9,52.1 113.4,45.2 116.1,38.2 117.9,31 118.8,23.6 119,16 " />
<polygon points="119,16 131,16 119,13.6 " />
<polygon points="131,16 134,18 128,22 " />
<polygon points="146,44 146,62 134,62 134,42 " />
<polygon points="146,44 149,46 146,48 " />
<polygon points="146,62 143.6,65.6 140,68 136.4,65.6 134,62 " />
<polygon points="146,62 146,63.2 146.2,64.1 146.4,64.7 146.5,65 146.7,65.2 146.9,65.4 147.2,65.5 147.8,65.7 148.7,65.9 150,66 150,78 147.4,77.8 144.9,77.4 142.5,76.6 140.2,75.3 138.2,73.7 136.6,71.7 135.3,69.4 134.5,67 134.1,64.5 134,62 " />
<polygon points="150,66 154.2,67.8 156,72 154.2,76.2 150,78 " />
<polygon points="150,66 181,66 181,78 150,78 " />
<polygon points="181,66 184.6,68.4 187,72 184.6,75.6 181,78 " />
<polygon points="175,67 181,41 183,41 181,67 " />
<polygon points="145.2,15.4 147.4,16 149.8,16.2 152.1,16.6 154.4,17.2 156.5,18 158.6,18.9 160.6,19.9 162.6,21.1 164.4,22.5 166.1,24.1 156.3,30.9 155.8,29.5 155.2,28.1 154.4,26.7 153.5,25.3 152.5,23.9 151.3,22.4 149.9,21 148.3,19.6 146.7,18.1 144.6,17.1 " />
<polygon points="166.1,24.1 167.1,28.5 164.7,32.4 160.2,33.3 156.3,30.9 " />
<polygon points="130,75 130,118 118,118 118,73 " />
<polygon points="130,75 133,77 130,79 " />
<polygon points="124,94 177,94 177,98 124,98 " />
<polygon points="177,94 153,96 165,84 " />
<polygon points="85,114 187,114 187,118 85,118 " />
<polygon points="187,114 163,116 175,104 " />
<polygon points="101.5,131.7 101.5,184.2 89.5,190.2 89.5,125.7 " />
<polygon points="95.5,131.7 167.4,131.7 167.4,135.7 95.5,135.7 " />
<polygon points="173.4,133.7 173.4,181.2 161.4,187.2 161.4,133.7 " />
<polygon points="161.4,131.7 167.4,126.7 178.4,135.7 173.4,139.7 161.4,133.7 " />
<polygon points="95.5,151.8 167.4,151.8 167.4,155.8 95.5,155.8 " />
<polygon points="95.5,173.2 167.4,173.2 167.4,177.2 95.5,177.2 " />
</g>
</svg>
