<svg xmlns="http://www.w3.org/2000/svg" xmlns:xlink="http://www.w3.org/1999/xlink" version="1.1" baseProfile="full" viewBox="0 0 200 200" width="200" height="200">
<g fill="black">
<polygon points="54.5,17.1 52.2,24.2 49.4,31 46.3,37.6 42.7,44 38.8,50.2 34.4,56.1 29.6,61.8 24.4,67.1 18.7,72.1 12.6,76.7 11.3,75.4 16,69.5 20.4,63.6 24.4,57.7 28.1,51.8 31.5,45.8 34.5,39.7 37.2,33.5 39.4,27.2 41.3,20.7 42.9,14.1 " />
<polygon points="42.6,15.1 54.5,17.1 43.3,12.4 " />
<polygon points="54.5,17.1 56.9,19.8 51.4,21.5 " />
<polygon points="42,36 106,36 106,40 42,40 " />
<polygon points="106,36 82,38 94,26 " />
<polygon points="49.3,37.7 53.3,39.5 57.2,41.1 60.9,43 64.3,45.2 67.4,47.4 70.3,49.9 73,52.5 75.4,55.4 77.5,58.4 79.4,61.5 68.3,66 67.5,63.5 66.5,60.9 65.2,58.3 63.7,55.6 61.9,53 59.7,50.3 57.3,47.5 54.7,44.8 51.7,41.9 48.4,39.3 " />
<polygon points="79.4,61.5 79.3,66.1 76.1,69.3 71.5,69.2 68.3,66 " />
<polygon points="133.5,17.1 131.2,24 128.4,30.6 125.2,37 121.7,43 117.7,48.8 113.3,54.3 108.5,59.4 103.3,64.2 97.6,68.5 91.5,72.4 90.4,71 95.1,65.7 99.5,60.4 103.5,55.1 107.2,49.7 110.6,44.1 113.6,38.5 116.2,32.6 118.4,26.6 120.3,20.5 121.9,14.1 " />
<polygon points="121.6,15.1 133.5,17.1 122.3,12.4 " />
<polygon points="133.5,17.1 135.9,19.8 130.3,21.5 " />
<polygon points="120,36 186,36 186,40 120,40 " />
<polygon points="186,36 162,38 174,26 " />
<polygon points="128.3,37.7 132.3,39.5 136.2,41.1 139.9,43 143.3,45.2 146.4,47.4 149.3,49.9 152,52.5 154.4,55.4 156.5,58.4 158.4,61.5 147.3,66 146.5,63.5 145.5,60.9 144.2,58.3 142.7,55.6 140.9,53 138.7,50.3 136.3,47.5 133.7,44.8 130.7,41.9 127.4,39.3 " />
<polygon points="158.4,61.5 158.3,66.1 155.1,69.3 150.5,69.2 147.3,66 " />
<polygon points="17,95 88,95 88,99 17,99 " />
<polygon points="88,95 64,97 76,85 " />
<polygon points="57,95 57,157 45,157 45,95 " />
<polygon points="15.1,162.9 20.7,161.4 26.6,159.8 32.7,158 39.2,156.1 46,154.1 53.1,152 60.5,149.8 68.2,147.5 76.2,145.3 84.6,143.1 85.3,144.8 77.6,148.8 70.1,152.6 62.8,156 55.7,159.1 48.9,162.1 42.3,164.9 36,167.5 30,170 24.2,172.2 18.7,174.4 " />
<polygon points="18.7,174.4 15.1,162.9 13.2,163.5 " />
<polygon points="18.7,174.4 21.6,176.6 23.5,169.7 " />
<polygon points="106,86 106,128 94,128 94,80 " />
<polygon points="106,128 103.6,131.6 100,134 96.4,131.6 94,128 " />
<polygon points="106,128 105.1,137.3 103.2,146.1 100.2,154.1 96.1,161.5 91,168.1 84.9,173.9 77.8,178.9 69.9,183.1 61,186.4 51.2,188.8 50.7,187.1 59.5,182.9 67.3,178.4 74.1,173.6 79.7,168.4 84.4,162.8 88.1,156.8 90.9,150.4 92.8,143.4 93.8,136 94,128 " />
<polygon points="100,86 152,86 152,90 100,90 " />
<polygon points="158,88 158,166 146,166 146,88 " />
<polygon points="146,86 152,81 163,90 158,94 146,88 " />
<polygon points="158,166 155.6,169.6 152,172 148.4,169.6 146,166 " />
<polygon points="158,166 158,167.2 158.2,168.1 158.4,168.7 158.5,169 158.7,169.2 158.9,169.4 159.2,169.5 159.8,169.7 160.7,169.9 162,170 162,182 159.4,181.8 156.9,181.4 154.5,180.6 152.2,179.3 150.2,177.7 148.6,175.7 147.3,173.4 146.5,171 146.1,168.5 146,166 " />
<polygon points="162,170 166.2,171.8 168,176 166.2,180.2 162,182 " />
<polygon points="162,170 182,170 182,182 162,182 " />
<polygon points="182,170 185.6,172.4 188,176 185.6,179.6 182,182 " />
<polygon points="176,171 182,145 184,145 182,171 " />
</g>
</svg>
