<svg xmlns="http://www.w3.org/2000/svg" xmlns:xlink="http://www.w3.org/1999/xlink" version="1.1" baseProfile="full" viewBox="0 0 200 200" width="200" height="200">
<g fill="black">
<polygon points="39,32 39,183 27,189 27,26 " />
<polygon points="33,32 170,32 170,36 33,36 " />
<polygon points="176,34 176,172 164,172 164,34 " />
<polygon points="164,32 170,27 181,36 176,40 164,34 " />
<polygon points="176,172 173.6,175.6 170,178 166.4,175.6 164,172 " />
<polygon points="176,172 175.8,174.5 175.4,177 174.6,179.4 173.3,181.7 171.7,183.7 169.7,185.3 167.4,186.6 165,187.4 162.5,187.8 160,188 160,176 161.2,175.9 162.1,175.7 162.7,175.5 163,175.4 163.2,175.2 163.4,175 163.5,174.7 163.7,174.1 163.9,173.2 164,172 " />
<polygon points="160,182 160,176 140,176 140,179 " />
<polygon points="50,58 89,58 89,62 50,62 " />
<polygon points="94.9,60.8 92.3,74.8 89.2,88.2 85.5,100.8 81.3,112.7 76.6,123.8 71.3,134.2 65.5,143.9 59.2,152.7 52.2,160.6 44.6,167.6 43.3,166.3 49.2,158.2 54.7,149.6 59.9,140.5 64.6,130.9 68.8,120.6 72.6,109.6 75.9,98 78.7,85.7 81.1,72.8 83,59.1 " />
<polygon points="83,58 89,53 100,62 95,65 83,70 " />
<polygon points="51.3,79 58.3,84.4 64.7,90 70.5,95.9 75.8,101.9 80.7,108.1 85.1,114.3 89,120.7 92.5,127.2 95.4,133.7 97.9,140.4 86.4,143.7 84.7,137.6 82.6,131.4 80.1,125.2 77.1,119 73.6,112.7 69.8,106.4 65.4,100.1 60.7,93.6 55.5,87 50.1,80.3 " />
<polygon points="97.9,140.4 97.3,145 93.8,147.8 89.2,147.3 86.4,143.7 " />
<polygon points="107,58 144,58 144,62 107,62 " />
<polygon points="149.9,60.7 147.4,75.2 144.3,89 140.5,102.1 136,114.5 130.8,126.2 125,137.1 118.4,147.3 111.2,156.6 103.2,165.1 94.6,172.6 93.3,171.3 100.4,162.5 106.9,153.4 112.9,143.7 118.3,133.5 123.1,122.7 127.3,111.3 130.9,99.3 133.8,86.6 136.2,73.2 138,59.2 " />
<polygon points="138,58 144,53 155,62 150,65 138,70 " />
<polygon points="105.3,79 112.5,84.4 119.1,90.2 125.1,96.3 130.7,102.6 135.7,109.1 140.3,115.8 144.4,122.7 148.1,129.8 151.2,137 153.9,144.4 142.4,147.7 140.5,140.8 138.2,133.9 135.5,127.2 132.3,120.4 128.6,113.7 124.5,107.1 120,100.4 115.1,93.8 109.8,87.1 104.1,80.3 " />
<polygon points="153.9,144.4 153.3,149 149.8,151.8 145.2,151.2 142.4,147.7 " />
</g>
</svg>
