<svg xmlns="http://www.w3.org/2000/svg" xmlns:xlink="http://www.w3.org/1999/xlink" version="1.1" baseProfile="full" viewBox="0 0 200 200" width="200" height="200">
<g fill="black">
<polygon points="70.5,17.4 68.2,24.4 65.4,31.3 62.3,38 58.8,44.6 54.8,51.1 50.5,57.4 45.7,63.5 40.5,69.4 34.8,75.1 28.6,80.6 27.3,79.3 31.9,72.7 36.3,66.1 40.3,59.7 44.1,53.3 47.5,46.8 50.5,40.4 53.1,33.9 55.4,27.5 57.3,21 58.9,14.4 " />
<polygon points="58.9,14.4 70.5,17.4 59.3,12.7 " />
<polygon points="70.5,17.4 72.9,20.1 66.1,22.5 " />
<polygon points="53,42 169,42 169,46 53,46 " />
<polygon points="169,42 145,44 157,32 " />
<polygon points="20,86 184,86 184,90 20,90 " />
<polygon points="184,86 160,88 172,76 " />
<polygon points="109,42 109,181 97,181 97,42 " />
<polygon points="103,126 173,126 173,130 103,130 " />
<polygon points="173,126 149,128 161,116 " />
<polygon points="56,109 56,185 44,191 44,107 " />
<polygon points="56,109 59,111 56,113 " />
<polygon points="50,177 184,177 184,181 50,181 " />
<polygon points="184,177 160,179 172,167 " />
</g>
</svg>
