<svg xmlns="http://www.w3.org/2000/svg" xmlns:xlink="http://www.w3.org/1999/xlink" version="1.1" baseProfile="full" viewBox="0 0 200 200" width="200" height="200">
<g fill="black">
<polygon points="53.3,23.9 56.9,26.4 60.4,28.8 63.7,31.4 66.8,34.2 69.6,37.1 72.2,40.1 74.6,43.2 76.8,46.4 78.8,49.7 80.5,53.1 69.3,57.2 68.5,54.2 67.4,51.1 66.2,48 64.8,44.9 63.2,41.7 61.4,38.6 59.3,35.3 57.1,32 54.8,28.6 52.1,25.3 " />
<polygon points="80.5,53.1 80.3,57.6 77,60.8 72.4,60.5 69.3,57.2 " />
<polygon points="148.9,28.6 146.2,31.2 143.3,34 140.3,36.9 136.9,40 133.4,43.3 129.6,46.7 125.6,50.3 121.3,54 116.6,57.7 111.6,61.6 110.3,60.3 113.9,55.2 117.4,50.3 120.8,45.8 124.1,41.5 127.2,37.5 130.1,33.7 132.8,30.2 135.3,26.8 137.6,23.7 139.7,20.8 " />
<polygon points="139.7,20.8 148.9,28.6 140.1,20.4 " />
<polygon points="148.9,28.6 149.8,32.1 142.7,31.2 " />
<polygon points="28,64 171,64 171,68 28,68 " />
<polygon points="171,64 147,66 159,54 " />
<polygon points="34,115 164,115 164,119 34,119 " />
<polygon points="164,115 140,117 152,105 " />
<polygon points="20,173 180,173 180,177 20,177 " />
<polygon points="180,173 156,175 168,163 " />
<polygon points="106,64 106,177 94,177 94,64 " />
</g>
</svg>
