<svg xmlns="http://www.w3.org/2000/svg" xmlns:xlink="http://www.w3.org/1999/xlink" version="1.1" baseProfile="full" viewBox="0 0 200 200" width="200" height="200">
<g fill="black">
<polygon points="50,62 50,82 38,88 38,56 " />
<polygon points="44,62 162,62 162,66 44,66 " />
<polygon points="168,64 168,82 156,88 156,64 " />
<polygon points="156,62 162,57 173,66 168,70 156,64 " />
<polygon points="44,78 162,78 162,82 44,82 " />
<polygon points="36.5,95.6 36.5,148 24.5,148 24.5,89.6 " />
<polygon points="36.5,148 34.1,151.6 30.5,154 26.9,151.6 24.5,148 " />
<polygon points="36.5,148.1 35.9,154 34.8,159.5 33.4,164.6 31.7,169.2 29.5,173.4 27,177.1 24.2,180.2 21,182.8 17.4,184.7 13.8,186 13,184.4 15.6,182 17.7,179.3 19.5,176.5 21,173.4 22.2,170 23.2,166.3 23.9,162.3 24.4,157.9 24.6,153 24.5,147.8 " />
<polygon points="30.5,95.6 67.8,95.6 67.8,99.6 30.5,99.6 " />
<polygon points="73.8,97.6 73.8,171 61.8,171 61.8,97.6 " />
<polygon points="61.8,95.6 67.8,90.6 78.8,99.6 73.8,103.6 61.8,97.6 " />
<polygon points="73.8,171 71.4,174.6 67.8,177 64.2,174.6 61.8,171 " />
<polygon points="73.8,171 73.6,173.6 73.2,176.1 72.4,178.5 71.2,180.8 69.5,182.8 67.5,184.4 65.2,185.6 62.8,186.4 60.3,186.9 57.8,187 57.8,175 59,175 59.9,174.8 60.5,174.6 60.9,174.4 61,174.3 61.2,174.1 61.4,173.8 61.6,173.2 61.7,172.3 61.8,171 " />
<polygon points="57.8,181 57.8,175 37.8,175 37.8,178 " />
<polygon points="30.5,117.1 67.8,117.1 67.8,121.1 30.5,121.1 " />
<polygon points="30.5,139.7 67.8,139.7 67.8,143.7 30.5,143.7 " />
<polygon points="122.9,96.1 169.8,96.1 169.8,100.1 122.9,100.1 " />
<polygon points="175.8,98.3 175.6,113.3 175.8,126.7 176.4,138.5 177.4,148.7 178.8,157.2 180.4,163.9 182.3,168.9 184.2,171.9 185.6,173.2 186.6,173.5 185.5,185.5 179.6,183.6 174.9,179.5 171.5,174.1 169,167.4 167,159.5 165.5,150.1 164.5,139.4 163.8,127.1 163.6,113.3 163.8,97.9 " />
<polygon points="163.8,96.1 169.8,91.1 180.8,100.1 175.8,103.1 163.8,108.1 " />
<polygon points="186.6,173.5 190.6,175.7 192,180 189.8,184.1 185.5,185.5 " />
<polygon points="186,174.5 188,148.5 186,148.5 180,174.5 " />
<polygon points="122.9,134.6 165,134.6 165,138.6 122.9,138.6 " />
<polygon points="165,134.6 149,136.6 157,127.6 " />
<polygon points="148.3,106.3 148.3,179.3 136.3,185.3 136.3,104.3 " />
<polygon points="148.3,106.3 151.3,108.3 146.3,111.3 " />
<polygon points="47,16.1 47,51.5 35,57.5 35,14.1 " />
<polygon points="47,16.1 50,18.1 45,21.1 " />
<polygon points="41,47.5 164.1,47.5 164.1,51.5 41,51.5 " />
<polygon points="164.1,47.5 144.1,49.5 154.1,38.5 " />
<polygon points="106.9,17.6 102.6,21.5 97.9,25.2 93,28.6 87.8,31.7 82.3,34.6 76.6,37.2 70.7,39.5 64.5,41.5 57.9,43.1 51.2,44.2 50.6,42.5 56.7,39.5 62.5,36.5 68,33.5 73.2,30.5 78.1,27.3 82.7,24 87,20.5 91,16.9 94.8,13.2 98.2,9.3 " />
<polygon points="97.5,10.1 106.9,17.6 98.5,9 " />
<polygon points="106.9,17.6 107.8,21.1 102.1,19.8 " />
<polygon points="102.3,13.8 107,16.2 111.5,18.6 116,20.9 120.5,23 125,25 129.7,26.8 134.4,28.5 139.3,30 144.2,31.3 149.3,32.4 145.8,45.2 140.4,43.2 135.2,41.1 130.2,38.7 125.3,36.1 120.7,33.3 116.2,30.2 112,26.9 108,23.3 104.3,19.5 101.1,15.2 " />
<polygon points="145.8,45.2 149.3,32.4 157.5,34.7 " />
</g>
</svg>
