<svg xmlns="http://www.w3.org/2000/svg" xmlns:xlink="http://www.w3.org/1999/xlink" version="1.1" baseProfile="full" viewBox="0 0 200 200" width="200" height="200">
<g fill="black">
<polygon points="50,62 50,82 38,88 38,56 " />
<polygon points="44,62 162,62 162,66 44,66 " />
<polygon points="168,64 168,82 156,88 156,64 " />
<polygon points="156,62 162,57 173,66 168,70 156,64 " />
<polygon points="44,78 162,78 162,82 44,82 " />
<polygon points="35.4,95.6 35.4,148 23.4,148 23.4,89.6 " />
<polygon points="35.4,148 33,151.6 29.4,154 25.8,151.6 23.4,148 " />
<polygon points="35.4,148.1 34.7,154 33.7,159.5 32.3,164.6 30.5,169.2 28.4,173.4 25.9,177.1 23.1,180.2 19.9,182.8 16.4,184.7 12.8,186 11.9,184.4 14.5,182 16.6,179.3 18.4,176.5 19.9,173.4 21.1,170 22,166.3 22.8,162.3 23.2,157.9 23.4,153 23.4,147.8 " />
<polygon points="29.4,95.6 66.4,95.6 66.4,99.6 29.4,99.6 " />
<polygon points="72.4,97.6 72.4,171 60.4,171 60.4,97.6 " />
<polygon points="60.4,95.6 66.4,90.6 77.4,99.6 72.4,103.6 60.4,97.6 " />
<polygon points="72.4,171 70,174.6 66.4,177 62.8,174.6 60.4,171 " />
<polygon points="72.4,171 72.2,173.6 71.8,176.1 71,178.5 69.8,180.8 68.1,182.8 66.1,184.4 63.8,185.6 61.4,186.4 58.9,186.9 56.4,187 56.4,175 57.6,175 58.5,174.8 59.1,174.6 59.4,174.4 59.6,174.3 59.8,174.1 60,173.8 60.1,173.2 60.3,172.3 60.4,171 " />
<polygon points="56.4,181 56.4,175 36.4,175 36.4,178 " />
<polygon points="29.4,117.1 66.4,117.1 66.4,121.1 29.4,121.1 " />
<polygon points="29.4,139.7 66.4,139.7 66.4,143.7 29.4,143.7 " />
<polygon points="123.1,97.1 172.3,97.1 172.3,101.1 123.1,101.1 " />
<polygon points="178.3,99.4 177.7,114.5 177.6,128 177.8,139.9 178.4,150 179.4,158.4 180.8,165.1 182.4,169.8 183.9,172.6 184.8,173.4 185,173.5 185,185.5 179,183.9 174.4,179.9 171.3,174.6 169.2,168.1 167.6,160.3 166.5,151.1 165.8,140.3 165.6,128.1 165.8,114.2 166.3,98.8 " />
<polygon points="166.3,97.1 172.3,92.1 183.3,101.1 178.3,104.1 166.3,109.1 " />
<polygon points="185,173.5 189.2,175.3 191,179.5 189.2,183.7 185,185.5 " />
<polygon points="185,174.5 187,148.5 185,148.5 179,174.5 " />
<polygon points="125.1,125.5 164.4,125.5 164.4,129.5 125.1,129.5 " />
<polygon points="164.4,125.5 152.4,127.5 158.4,119.5 " />
<polygon points="123.1,150.2 166.4,150.2 166.4,154.2 123.1,154.2 " />
<polygon points="166.4,150.2 154.4,152.2 160.4,144.2 " />
<polygon points="151.1,105.4 150.7,118.7 150.2,130.4 149.4,140.6 148.3,149.6 146.6,157.4 144.2,164.3 141.1,170.2 137.1,175.3 132.1,179.4 126.3,182.8 125.3,181.3 129.6,176.6 132.8,171.9 135.3,167.1 137,161.8 138.3,155.7 139,148.5 139.4,140 139.5,130.1 139.3,118.6 139.1,105.4 " />
<polygon points="139.1,106.4 151.1,105.4 139.1,103 " />
<polygon points="151.1,105.4 154.1,107.4 149.1,110.4 " />
<polygon points="47,16.1 47,51.5 35,57.5 35,14.1 " />
<polygon points="47,16.1 50,18.1 45,21.1 " />
<polygon points="41,47.5 164.1,47.5 164.1,51.5 41,51.5 " />
<polygon points="164.1,47.5 144.1,49.5 154.1,38.5 " />
<polygon points="106.9,17.6 102.6,21.5 97.9,25.2 93,28.6 87.8,31.7 82.3,34.6 76.6,37.2 70.7,39.5 64.5,41.5 57.9,43.1 51.2,44.2 50.6,42.5 56.7,39.5 62.5,36.5 68,33.5 73.2,30.5 78.1,27.3 82.7,24 87,20.5 91,16.9 94.8,13.2 98.2,9.3 " />
<polygon points="97.5,10.1 106.9,17.6 98.5,9 " />
<polygon points="106.9,17.6 107.8,21.1 102.1,19.8 " />
<polygon points="102.3,13.8 107,16.2 111.5,18.6 116,20.9 120.5,23 125,25 129.7,26.8 134.4,28.5 139.3,30 144.2,31.3 149.3,32.4 145.8,45.2 140.4,43.2 135.2,41.1 130.2,38.7 125.3,36.1 120.7,33.3 116.2,30.2 112,26.9 108,23.3 104.3,19.5 101.1,15.2 " />
<polygon points="145.8,45.2 149.3,32.4 157.5,34.7 " />
</g>
</svg>
