<svg xmlns="http://www.w3.org/2000/svg" xmlns:xlink="http://www.w3.org/1999/xlink" version="1.1" baseProfile="full" viewBox="0 0 200 200" width="200" height="200">
<g fill="black">
<polygon points="44,33 44,182 32,188 32,27 " />
<polygon points="38,33 168,33 168,37 38,37 " />
<polygon points="168,33 144,35 156,23 " />
<polygon points="38,171 175,171 175,175 38,175 " />
<polygon points="175,171 151,173 163,161 " />
<polygon points="108,73 150,73 150,77 108,77 " />
<polygon points="156,75 156,132 144,138 144,75 " />
<polygon points="144,73 150,68 161,77 156,81 144,75 " />
<polygon points="108,122 150,122 150,126 108,126 " />
<polygon points="114,33 114,89 102,95 102,33 " />
<polygon points="114,122 114,175 102,175 102,116 " />
<polygon points="79,68 79,135 67,141 67,66 " />
<polygon points="79,68 82,70 79,72 " />
</g>
</svg>
