<svg xmlns="http://www.w3.org/2000/svg" xmlns:xlink="http://www.w3.org/1999/xlink" version="1.1" baseProfile="full" viewBox="0 0 200 200" width="200" height="200">
<g fill="black">
<polygon points="72.9,23.7 69.7,25 66.4,26.1 62.9,27.2 59.3,28.3 55.7,29.3 51.8,30.2 47.9,31 43.8,31.7 39.5,32.2 35.2,32.8 34.7,31.1 38.6,29.3 42.4,27.3 46,25.5 49.5,23.6 52.8,21.9 56,20.1 59,18.4 61.9,16.6 64.7,14.9 67.2,13.1 " />
<polygon points="67.2,13.1 72.9,23.7 75.4,22.4 " />
<polygon points="75.4,22.4 75.5,25.7 68.2,22.8 " />
<polygon points="40.9,29.8 43,101.8 31,102.1 28.7,24.1 " />
<polygon points="34,50 75,50 75,54 34,54 " />
<polygon points="75,50 55,52 65,41 " />
<polygon points="34,74 75,74 75,78 34,78 " />
<polygon points="75,74 55,76 65,65 " />
<polygon points="133,26 166,26 166,30 133,30 " />
<polygon points="171.9,28.2 168.9,102.2 156.9,101.7 160,27.7 " />
<polygon points="160,26 166,21 177,30 172,34 160,28 " />
<polygon points="131,50 164,50 164,54 131,54 " />
<polygon points="131,74 164,74 164,78 131,78 " />
<polygon points="89,29 128,29 128,33 89,33 " />
<polygon points="128,29 108,31 118,20 " />
<polygon points="95,15 95,54 83,60 83,13 " />
<polygon points="95,15 98,17 95,19 " />
<polygon points="89,50 116,50 116,54 89,54 " />
<polygon points="122,52 122,102 110,102 110,52 " />
<polygon points="110,50 116,45 127,54 122,58 110,52 " />
<polygon points="95,68 95,102 83,102 83,66 " />
<polygon points="95,68 98,70 95,72 " />
<polygon points="14,98 187,98 187,102 14,102 " />
<polygon points="187,98 171,100 179,91 " />
<polygon points="73.6,100 70.8,103.5 66.1,109.2 61.2,114.7 56,120.1 50.5,125.3 44.9,130.3 38.9,135.1 32.8,139.7 26.3,144 19.5,148 12.4,151.7 11.5,150.2 17.3,144.9 23,139.7 28.6,134.6 33.9,129.4 39,124.1 43.9,118.8 48.6,113.3 53,107.8 57.2,102.2 58.6,100 " />
<polygon points="137.3,100.2 142.5,104.5 147.4,108.6 152.2,112.6 156.9,116.4 161.6,119.8 166.3,123 171,125.9 175.6,128.6 180.3,131 184.9,133 179,144.9 174.1,141.9 169.3,138.6 164.6,135 160,131.1 155.6,127 151.3,122.5 147.1,117.7 143.1,112.7 139.3,107.2 135.9,101.3 " />
<polygon points="179,144.9 184.9,133 190.3,135.7 " />
<polygon points="58,125 147,125 147,129 58,129 " />
<polygon points="147,125 123,127 135,115 " />
<polygon points="49,145 155,145 155,149 49,149 " />
<polygon points="155,145 131,147 143,135 " />
<polygon points="21,166 181,166 181,170 21,170 " />
<polygon points="181,166 157,168 169,156 " />
<polygon points="107,109 107,185 95,191 95,107 " />
<polygon points="107,109 110,111 107,113 " />
</g>
</svg>
