<svg xmlns="http://www.w3.org/2000/svg" xmlns:xlink="http://www.w3.org/1999/xlink" version="1.1" baseProfile="full" viewBox="0 0 200 200" width="200" height="200">
<g fill="black">
<polygon points="102.3,34.9 96.4,36.9 90.4,38.8 84.3,40.6 78,42.3 71.7,43.9 65.2,45.3 58.6,46.5 51.9,47.6 45.1,48.4 38.1,48.8 37.8,47.1 44.3,44.7 50.7,42.4 57,40.2 63.2,38 69.3,35.7 75.2,33.5 81,31.1 86.7,28.8 92.3,26.3 97.7,23.8 " />
<polygon points="97.7,23.8 102.3,34.9 106.8,33 " />
<polygon points="106.8,33 106.9,36.2 99.2,32.9 " />
<polygon points="44,46 44,180 32,186 32,40 " />
<polygon points="38,102 95,102 95,106 38,106 " />
<polygon points="95,102 71,104 83,92 " />
<polygon points="38,169 99,169 99,173 38,173 " />
<polygon points="99,169 75,171 87,159 " />
<polygon points="110,45 164,45 164,49 110,49 " />
<polygon points="170,47 170,177 158,183 158,47 " />
<polygon points="158,45 164,40 175,49 170,53 158,47 " />
<polygon points="112,101 164,101 164,105 112,105 " />
<polygon points="110,169 164,169 164,173 110,173 " />
</g>
</svg>
