<svg xmlns="http://www.w3.org/2000/svg" xmlns:xlink="http://www.w3.org/1999/xlink" version="1.1" baseProfile="full" viewBox="0 0 200 200" width="200" height="200">
<g fill="black">
<polygon points="106,14 106,189 94,195 94,12 " />
<polygon points="106,14 109,16 106,18 " />
<polygon points="81.5,46.8 77.8,48.1 74,49.4 70,50.6 65.8,51.9 61.5,53.1 57,54.4 52.4,55.6 47.5,56.8 42.5,57.8 37.3,58.8 36.6,57.1 41.3,54.5 45.8,52 50.1,49.7 54.4,47.6 58.5,45.5 62.4,43.4 66.2,41.5 69.8,39.5 73.3,37.7 76.6,35.9 " />
<polygon points="76.6,35.9 81.5,46.8 85.4,45.1 " />
<polygon points="85.4,45.1 85.6,48.3 77.9,45.1 " />
<polygon points="43,53 43,157 31,163 31,51 " />
<polygon points="43,53 46,55 43,57 " />
<polygon points="37,96 80,96 80,100 37,100 " />
<polygon points="80,96 60,98 70,87 " />
<polygon points="37,141 82,141 82,145 37,145 " />
<polygon points="82,141 62,143 72,132 " />
<polygon points="168,55 168,151 156,157 156,55 " />
<polygon points="156,53 162,48 173,57 168,61 156,55 " />
<polygon points="119,53 162,53 162,57 119,57 " />
<polygon points="119,96 166,96 166,100 119,100 " />
<polygon points="120,141 162,141 162,145 120,145 " />
</g>
</svg>
