<svg xmlns="http://www.w3.org/2000/svg" xmlns:xlink="http://www.w3.org/1999/xlink" version="1.1" baseProfile="full" viewBox="0 0 200 200" width="200" height="200">
<g fill="black">
<polygon points="22,36 178,36 178,40 22,40 " />
<polygon points="178,36 154,38 166,26 " />
<polygon points="79,17 79,57 67,63 67,15 " />
<polygon points="79,17 82,19 77,22 " />
<polygon points="134,17 134,57 122,63 122,15 " />
<polygon points="134,17 137,19 132,22 " />
<polygon points="51,71 51,112 39,118 39,65 " />
<polygon points="45,71 155,71 155,75 45,75 " />
<polygon points="161,73 161,109 149,115 149,73 " />
<polygon points="149,71 155,66 166,75 161,79 149,73 " />
<polygon points="45,101 155,101 155,105 45,105 " />
<polygon points="30,128 170,128 170,132 30,132 " />
<polygon points="170,128 146,130 158,118 " />
<polygon points="106,71 106,182 94,182 94,71 " />
<polygon points="40,153 160,153 160,157 40,157 " />
<polygon points="160,153 136,155 148,143 " />
<polygon points="20,178 180,178 180,182 20,182 " />
<polygon points="180,178 156,180 168,168 " />
</g>
</svg>
