<svg xmlns="http://www.w3.org/2000/svg" xmlns:xlink="http://www.w3.org/1999/xlink" version="1.1" baseProfile="full" viewBox="0 0 200 200" width="200" height="200">
<g fill="black">
<polygon points="13,32 187,32 187,36 13,36 " />
<polygon points="187,32 163,34 175,22 " />
<polygon points="78,14.3 78,50.8 66,56.8 66,12.3 " />
<polygon points="78,14.3 81,16.3 76,19.3 " />
<polygon points="134,14.3 134,50.8 122,56.8 122,12.3 " />
<polygon points="134,14.3 137,16.3 132,19.3 " />
<polygon points="50,61 50,97 38,103 38,55 " />
<polygon points="44,61 156,61 156,65 44,65 " />
<polygon points="162,63 162,96 150,102 150,63 " />
<polygon points="150,61 156,56 167,65 162,69 150,63 " />
<polygon points="44,90 156,90 156,94 44,94 " />
<polygon points="30,112 170,112 170,116 30,116 " />
<polygon points="170,112 150,114 160,103 " />
<polygon points="18,135 182,135 182,139 18,139 " />
<polygon points="182,135 158,137 170,125 " />
<polygon points="106,61 106,110 94,110 94,61 " />
<polygon points="106,110 103.6,113.6 100,116 96.4,113.6 94,110 " />
<polygon points="106,110 104.7,123.2 101.6,135.4 96.6,146.4 89.8,156.1 81.2,164.4 71,171.4 59.1,177 45.7,181.3 30.7,184.3 14.1,185.8 13.8,184.1 29.9,180.5 44.1,176.2 56.5,171 67,164.9 75.7,158 82.6,150.2 87.8,141.6 91.4,132.1 93.5,121.6 94,110 " />
<polygon points="105.3,137.3 110.7,142.7 116.3,147.7 122.2,152.2 128.5,156.4 135.2,160.1 142.4,163.4 150,166.3 158.2,168.8 166.9,170.8 176.1,172.5 173.8,185.4 163.9,183 154.7,180.1 146,176.6 137.9,172.7 130.5,168.2 123.7,163.2 117.5,157.8 112.1,151.8 107.4,145.3 103.8,138.3 " />
<polygon points="173.8,185.4 176.1,172.5 185.6,174.2 " />
</g>
</svg>
