<svg xmlns="http://www.w3.org/2000/svg" xmlns:xlink="http://www.w3.org/1999/xlink" version="1.1" baseProfile="full" viewBox="0 0 200 200" width="200" height="200">
<g fill="black">
<polygon points="13,31 187,31 187,35 13,35 " />
<polygon points="187,31 163,33 175,21 " />
<polygon points="75,14 75,56 63,62 63,12 " />
<polygon points="75,14 78,16 73,19 " />
<polygon points="137,14 137,56 125,62 125,12 " />
<polygon points="137,14 140,16 135,19 " />
<polygon points="69,52 131,52 131,56 69,56 " />
<polygon points="50,69 50,102 38,108 38,63 " />
<polygon points="44,69 156,69 156,73 44,73 " />
<polygon points="162,71 162,101 150,107 150,71 " />
<polygon points="150,69 156,64 167,73 162,77 150,71 " />
<polygon points="44,95 156,95 156,99 44,99 " />
<polygon points="30,115 170,115 170,119 30,119 " />
<polygon points="170,115 150,117 160,106 " />
<polygon points="18,136 182,136 182,140 18,140 " />
<polygon points="182,136 158,138 170,126 " />
<polygon points="106,52 106,112 94,112 94,52 " />
<polygon points="106,112 103.6,115.6 100,118 96.4,115.6 94,112 " />
<polygon points="106,112 104.7,124.9 101.6,136.7 96.6,147.4 89.8,156.8 81.2,164.9 71,171.7 59.1,177.2 45.7,181.4 30.7,184.3 14.1,185.8 13.8,184.1 29.9,180.6 44.1,176.3 56.5,171.2 67,165.2 75.7,158.5 82.6,150.9 87.8,142.6 91.4,133.4 93.5,123.2 94,112 " />
<polygon points="105.3,138.3 110.7,143.4 116.3,148.3 122.2,152.7 128.4,156.7 135.2,160.4 142.3,163.6 150,166.4 158.2,168.8 166.9,170.8 176.1,172.5 173.8,185.4 163.9,183 154.7,180.1 146.1,176.7 138,172.8 130.5,168.5 123.7,163.6 117.6,158.3 112.1,152.5 107.5,146.1 103.8,139.3 " />
<polygon points="173.8,185.4 176.1,172.5 185.6,174.2 " />
</g>
</svg>
