<svg xmlns="http://www.w3.org/2000/svg" xmlns:xlink="http://www.w3.org/1999/xlink" version="1.1" baseProfile="full" viewBox="0 0 200 200" width="200" height="200">
<g fill="black">
<polygon points="109.1,19.7 104.5,25.2 99.6,30.8 94.6,36.3 89.3,41.8 83.9,47.2 78.3,52.6 72.5,57.9 66.5,63.1 60.2,68.2 53.6,73.1 52.3,71.7 57.6,65.4 62.7,59.3 67.8,53.3 72.8,47.4 77.7,41.5 82.4,35.7 86.9,29.8 91.3,24 95.5,18.2 99.6,12.4 " />
<polygon points="99,13.2 109.1,19.7 100,11.8 " />
<polygon points="109.1,19.7 110.3,23.1 104.5,22.4 " />
<polygon points="28.5,68.1 39.5,67.6 50.9,67.1 62.7,66.6 74.8,66.1 87.4,65.6 100.3,65.1 113.6,64.6 127.3,64.2 141.4,63.9 155.9,63.9 156,65.6 141.7,67.7 127.7,69.5 114.1,71.1 100.9,72.6 88,74 75.5,75.4 63.4,76.6 51.7,77.8 40.4,79 29.4,80.1 " />
<polygon points="29.4,80.1 28.5,68.1 26.5,68.3 " />
<polygon points="29.4,80.1 31.6,83 35.2,76.7 " />
<polygon points="125.2,46.4 131.6,48.6 137.6,50.9 143.2,53.4 148.5,56 153.5,58.7 158.1,61.3 162.5,64 166.6,66.7 170.4,69.5 173.9,72.3 165.6,81 162.9,78.1 159.9,75.1 156.5,72.1 152.8,69 148.8,65.8 144.5,62.5 139.9,59.1 135,55.6 129.8,51.9 124.4,48 " />
<polygon points="173.9,72.3 175.7,76.5 174.1,80.8 169.9,82.6 165.6,81 " />
<polygon points="49,104.6 49,151.4 37,157.4 37,98.6 " />
<polygon points="43,104.6 157.1,104.6 157.1,108.6 43,108.6 " />
<polygon points="163.1,106.6 163.1,141.4 151.1,147.4 151.1,106.6 " />
<polygon points="151.1,104.6 157.1,99.6 168.1,108.6 163.1,112.6 151.1,106.6 " />
<polygon points="43,135.4 157.1,135.4 157.1,139.4 43,139.4 " />
<polygon points="104.6,78.8 104.6,175.8 92.6,175.8 92.6,76.8 " />
<polygon points="104.6,78.8 107.6,80.8 102.6,83.8 " />
<polygon points="26,173.5 39.6,172.9 53.1,172.3 66.5,171.7 79.7,171 92.8,170.4 105.9,169.7 118.8,169.1 131.6,168.5 144.3,168.1 157,167.8 157.1,169.6 144.7,171.9 132.1,173.9 119.4,175.6 106.5,177.3 93.5,178.8 80.4,180.3 67.2,181.7 53.9,183 40.4,184.3 26.8,185.5 " />
<polygon points="26.8,185.5 26,173.5 24,173.7 " />
<polygon points="26.8,185.5 29,188.4 32.6,182.1 " />
<polygon points="133,151.2 138.5,153.6 143.7,156.2 148.5,158.9 153,161.6 157.2,164.4 161.2,167.2 164.9,170 168.3,172.8 171.5,175.7 174.4,178.6 165.1,186.2 163.1,183.3 160.7,180.3 158.1,177.3 155.1,174.1 151.9,170.9 148.4,167.5 144.7,164.1 140.7,160.5 136.5,156.7 132.1,152.7 " />
<polygon points="174.4,178.6 175.7,183 173.6,187 169.2,188.3 165.1,186.2 " />
</g>
</svg>
