<svg xmlns="http://www.w3.org/2000/svg" xmlns:xlink="http://www.w3.org/1999/xlink" version="1.1" baseProfile="full" viewBox="0 0 200 200" width="200" height="200">
<g fill="black">
<polygon points="109.5,15 109.5,49 97.5,49 97.5,13 " />
<polygon points="109.5,15 112.5,17 107.5,20 " />
<polygon points="109.5,49 107.1,52.6 103.5,55 99.9,52.6 97.5,49 " />
<polygon points="109.4,49.5 107.3,56.3 103.2,62.2 97.4,67.3 90.1,71.6 81.4,75.4 71,78.7 59.1,81.7 45.6,84.2 30.4,86.3 13.6,87.8 13.3,86.1 29.8,82.5 44.5,79 57.5,75.3 68.7,71.5 78,67.5 85.6,63.5 91.2,59.3 94.9,55.3 96.9,51.7 97.5,48.4 " />
<polygon points="39.5,27 39.5,64 27.5,70 27.5,25 " />
<polygon points="39.5,27 42.5,29 37.5,32 " />
<polygon points="33.5,53 173.5,53 173.5,57 33.5,57 " />
<polygon points="179.5,27 179.5,61 167.5,67 167.5,25 " />
<polygon points="179.5,27 182.5,29 177.5,32 " />
<polygon points="51.4,100.1 51.4,148.8 39.4,154.8 39.4,94.1 " />
<polygon points="45.4,100.1 160.6,100.1 160.6,104.1 45.4,104.1 " />
<polygon points="166.6,102.1 166.6,140.8 154.6,146.8 154.6,102.1 " />
<polygon points="154.6,100.1 160.6,95.1 171.6,104.1 166.6,108.1 154.6,102.1 " />
<polygon points="45.4,132.8 160.6,132.8 160.6,136.8 45.4,136.8 " />
<polygon points="107.5,72.5 107.5,175.5 95.5,175.5 95.5,70.5 " />
<polygon points="107.5,72.5 110.5,74.5 105.5,77.5 " />
<polygon points="28.2,173.6 42,172.9 55.6,172.2 69.1,171.6 82.5,170.8 95.7,170.1 108.9,169.4 121.9,168.7 134.9,168 147.7,167.5 160.5,167.2 160.7,169 148.1,171.3 135.4,173.4 122.6,175.2 109.6,177 96.5,178.6 83.2,180.1 69.9,181.6 56.4,183 42.8,184.3 29,185.5 " />
<polygon points="29,185.5 28.2,173.6 26.2,173.7 " />
<polygon points="29,185.5 31.2,188.4 34.8,182.1 " />
<polygon points="136.3,149.5 141.9,152.1 147.2,154.9 152,157.8 156.6,160.7 160.9,163.7 164.9,166.7 168.7,169.8 172.1,172.8 175.3,175.9 178.3,179 168.8,186.4 166.7,183.3 164.3,180.2 161.6,176.9 158.6,173.6 155.4,170.1 151.8,166.6 148.1,163 144,159.2 139.8,155.2 135.3,151 " />
<polygon points="178.3,179 179.4,183.4 177.2,187.4 172.8,188.6 168.8,186.4 " />
</g>
</svg>
