<svg xmlns="http://www.w3.org/2000/svg" xmlns:xlink="http://www.w3.org/1999/xlink" version="1.1" baseProfile="full" viewBox="0 0 200 200" width="200" height="200">
<g fill="black">
<polygon points="111.2,94.3 104.8,101.9 98.1,109.2 90.9,116.1 83.3,122.8 75.2,129.2 66.8,135.2 57.9,141 48.5,146.3 38.7,151.3 28.4,155.7 27.5,154.2 36.8,148 45.7,141.8 54.2,135.5 62.2,129.2 69.9,122.6 77.1,115.9 83.8,109 90.2,101.9 96.1,94.6 101.5,87.2 " />
<polygon points="102,86.6 111.2,94.3 100.9,88 " />
<polygon points="111.2,94.3 112.4,97.7 106.6,97.2 " />
<polygon points="105.3,94.1 112.8,100 120.1,105.7 127.4,111.1 134.6,116.2 141.8,120.8 149,125 156.3,128.8 163.5,132.2 170.9,135.2 178.2,137.8 173.7,150.1 165.9,146.7 158.3,142.8 150.9,138.5 143.6,133.7 136.5,128.5 129.5,122.8 122.7,116.7 116.2,110.1 109.9,103 104,95.3 " />
<polygon points="173.7,150.1 178.2,137.8 185.2,140.3 " />
<polygon points="86.2,84.3 83,88 79.6,91.5 75.9,95.1 72.1,98.6 68,102 63.6,105.4 59,108.6 54.2,111.8 49,114.9 43.5,117.7 42.4,116.2 46.7,111.8 50.8,107.6 54.8,103.6 58.6,99.7 62.1,95.8 65.5,92 68.6,88.2 71.5,84.5 74.1,80.8 76.5,77.2 " />
<polygon points="77,76.6 86.2,84.3 75.9,78 " />
<polygon points="86.2,84.3 87.4,87.7 81.6,87.2 " />
<polygon points="123.2,79.5 127.9,80.9 132.3,82.3 136.6,84.1 140.5,86.1 144.3,88.3 147.8,90.7 151.1,93.3 154.1,96.1 157,99.1 159.5,102.3 149.3,108.5 147.8,105.7 146.1,102.8 144.1,100 141.8,97.3 139.3,94.6 136.5,91.9 133.4,89.2 130.1,86.5 126.5,83.8 122.5,81.2 " />
<polygon points="159.5,102.3 160.2,106.8 157.5,110.5 153,111.2 149.3,108.5 " />
<polygon points="77,137 77,182 65,188 65,131 " />
<polygon points="71,137 138,137 138,141 71,141 " />
<polygon points="144,139 144,181 132,187 132,139 " />
<polygon points="132,137 138,132 149,141 144,145 132,139 " />
<polygon points="71,175 138,175 138,179 71,179 " />
<polygon points="99,32 174,32 174,36 99,36 " />
<polygon points="174,32 150,34 162,22 " />
<polygon points="105,17 105,55 93,55 93,15 " />
<polygon points="105,17 108,19 103,22 " />
<polygon points="37,51 173,51 173,55 37,55 " />
<polygon points="178.3,55.6 176.7,57.9 175,60.2 173.2,62.5 171.3,64.7 169.4,66.9 167.4,69.1 165.3,71.2 163.1,73.3 160.8,75.3 158.7,77.5 157.2,76.4 158.7,73.8 159.8,71 160.9,68.3 162,65.6 163,63 164,60.4 165,57.8 165.9,55.3 166.8,52.8 167.6,50.3 " />
<polygon points="167,51 173,46 184,55 179,58 167,63 " />
<polygon points="43,51 43,99 31,99 31,45 " />
<polygon points="43,99 40.6,102.6 37,105 33.4,102.6 31,99 " />
<polygon points="43,99 42.4,110.9 41.3,122.1 39.8,132.7 37.7,142.6 35,151.8 31.9,160.3 28.2,168.1 23.9,175.2 19.1,181.3 13.6,186.5 12.3,185.4 16,179.1 19.3,172.5 22.2,165.4 24.7,157.8 26.9,149.6 28.6,140.7 29.8,131.3 30.6,121.1 31,110.4 31,99 " />
<polygon points="55,67 151,67 151,71 55,71 " />
<polygon points="151,67 127,69 139,57 " />
</g>
</svg>
