<svg xmlns="http://www.w3.org/2000/svg" xmlns:xlink="http://www.w3.org/1999/xlink" version="1.1" baseProfile="full" viewBox="0 0 200 200" width="200" height="200">
<g fill="black">
<polygon points="105,15 105,58 93,58 93,13 " />
<polygon points="105,15 108,17 103,20 " />
<polygon points="99,31 172,31 172,35 99,35 " />
<polygon points="172,31 148,33 160,21 " />
<polygon points="31.9,46.9 32.5,52.1 33,57.1 33.1,61.7 32.8,66.1 32.1,70.2 30.9,74.1 29.3,77.7 27.2,81 24.6,83.9 21.5,86.5 15.6,76 17.6,75.1 19.5,73.9 21.3,72.3 23,70.2 24.7,67.6 26.1,64.4 27.4,60.8 28.6,56.7 29.6,52.1 30.1,47 " />
<polygon points="21.5,86.5 17,86.9 13.3,84.2 12.8,79.6 15.6,76 " />
<polygon points="32,55.2 176,55.2 176,59.2 32,59.2 " />
<polygon points="180.9,60.5 179.2,62.3 177.4,64.1 175.4,66.1 173.2,68.1 170.9,70.1 168.4,72.3 165.7,74.6 162.8,76.8 159.7,79.2 156.6,81.8 155.3,80.6 157.7,77.4 159.7,74 161.6,70.9 163.4,68 165,65.3 166.5,62.7 167.9,60.2 169.1,57.9 170.1,55.8 171,53.9 " />
<polygon points="170,55.2 176,50.2 187,59.2 182,62.2 170,67.2 " />
<polygon points="80.1,77.4 76.5,81.4 72.7,85.4 68.6,89.2 64.2,93.1 59.6,96.8 54.8,100.5 49.7,104 44.3,107.4 38.5,110.7 32.5,113.7 31.4,112.2 36.3,107.6 41,103.2 45.6,98.9 49.9,94.7 54,90.5 57.8,86.4 61.4,82.3 64.7,78.2 67.8,74.1 70.6,70.1 " />
<polygon points="71,69.5 80.1,77.4 70,70.9 " />
<polygon points="80.1,77.4 81.3,80.8 75.5,80.1 " />
<polygon points="121.2,72.5 126.7,73.9 131.8,75.6 136.7,77.5 141.2,79.7 145.5,82.1 149.5,84.7 153.2,87.5 156.5,90.5 159.6,93.8 162.4,97.2 152.3,103.6 150.6,100.6 148.6,97.6 146.2,94.6 143.6,91.7 140.6,88.7 137.2,85.8 133.5,82.9 129.5,80.1 125.2,77.1 120.5,74.2 " />
<polygon points="162.4,97.2 163.1,101.7 160.6,105.5 156,106.2 152.3,103.6 " />
<polygon points="108.1,90.4 101.1,98.5 93.6,106.4 85.5,113.9 77,121 67.9,127.8 58.2,134.2 48.1,140.3 37.4,145.9 26.2,151.1 14.3,155.8 13.6,154.1 24.4,147.7 34.8,141.2 44.6,134.7 53.9,128 62.7,121 71,113.9 78.7,106.5 85.8,98.9 92.5,91.1 98.6,83.1 " />
<polygon points="99,82.5 108.1,90.4 98,83.9 " />
<polygon points="108.1,90.4 109.3,93.8 103.5,93.1 " />
<polygon points="101.3,90 109.8,96.6 118,102.8 126.1,108.7 134.1,114.2 142,119.3 149.9,123.9 157.8,128 165.6,131.7 173.5,135 181.3,137.8 176.6,150.1 168.5,146.5 160.4,142.3 152.4,137.7 144.5,132.6 136.8,127 129.1,120.9 121.5,114.4 114.1,107.3 106.9,99.6 100,91.3 " />
<polygon points="176.6,150.1 181.3,137.8 188.2,140.4 " />
<polygon points="69,137 69,182 57,188 57,131 " />
<polygon points="63,137 139,137 139,141 63,141 " />
<polygon points="145,139 145,181 133,187 133,139 " />
<polygon points="133,137 139,132 150,141 145,145 133,139 " />
<polygon points="63,175 139,175 139,179 63,179 " />
</g>
</svg>
