<svg xmlns="http://www.w3.org/2000/svg" xmlns:xlink="http://www.w3.org/1999/xlink" version="1.1" baseProfile="full" viewBox="0 0 200 200" width="200" height="200">
<g fill="black">
<polygon points="107.3,19.2 100.2,28.5 92.5,37.2 84.4,45.4 75.8,53.1 66.7,60.2 57.2,66.8 47.2,72.8 36.7,78.1 25.7,82.8 14.3,86.8 13.6,85.1 24.1,79.4 34.1,73.4 43.7,67.2 52.8,60.6 61.4,53.6 69.6,46.2 77.2,38.4 84.4,30.1 91.2,21.5 97.4,12.4 " />
<polygon points="96.9,13.2 107.3,19.2 97.9,11.7 " />
<polygon points="107.3,19.2 108.7,22.5 102.8,22.2 " />
<polygon points="101.3,21.2 108.6,28.2 115.8,34.8 123.1,40.9 130.6,46.6 138.3,51.8 146.2,56.6 154.3,60.8 162.6,64.6 171.2,67.9 180,70.7 175.9,83.2 166.6,79.5 157.6,75.3 149,70.5 140.8,65.3 132.9,59.4 125.4,53.1 118.3,46.3 111.6,38.9 105.4,30.9 99.9,22.3 " />
<polygon points="175.9,83.2 180,70.7 187.5,73.1 " />
<polygon points="107.6,58.9 100.7,68.8 93.2,78.1 85.1,86.8 76.5,94.8 67.2,102.2 57.4,109 47,115 36,120.4 24.4,125 12.3,128.8 11.6,127.1 22.9,121.5 33.5,115.6 43.6,109.4 53.1,102.7 61.9,95.6 70.2,88 77.8,79.9 84.9,71.3 91.4,62.3 97.3,52.7 " />
<polygon points="96.8,53.5 107.6,58.9 97.8,51.8 " />
<polygon points="107.6,58.9 109.1,62.2 103.3,62.2 " />
<polygon points="101.2,60.3 107.9,67.7 114.7,74.7 121.7,81.3 129.1,87.3 136.9,92.9 145,98 153.6,102.6 162.6,106.8 172.1,110.5 182,113.7 177.9,126.2 167.5,122.1 157.6,117.5 148.3,112.3 139.5,106.6 131.3,100.4 123.7,93.7 116.6,86.4 110.2,78.6 104.6,70.2 99.7,61.3 " />
<polygon points="177.9,126.2 182,113.7 189.5,116.1 " />
<polygon points="61.9,118.6 61.9,180.3 49.9,186.3 49.9,112.6 " />
<polygon points="55.9,118.6 144,118.6 144,122.6 55.9,122.6 " />
<polygon points="150,120.6 150,177.3 138,183.3 138,120.6 " />
<polygon points="138,118.6 144,113.6 155,122.6 150,126.6 138,120.6 " />
<polygon points="55.9,169.3 144,169.3 144,173.3 55.9,173.3 " />
</g>
</svg>
