<svg xmlns="http://www.w3.org/2000/svg" xmlns:xlink="http://www.w3.org/1999/xlink" version="1.1" baseProfile="full" viewBox="0 0 200 200" width="200" height="200">
<g fill="black">
<polygon points="73.6,18.8 70.1,23.9 66.2,28.9 62,33.6 57.4,38.1 52.5,42.5 47.2,46.6 41.6,50.6 35.6,54.3 29.2,57.7 22.4,60.7 21.5,59.2 27.1,54.5 32.5,49.9 37.6,45.4 42.3,40.9 46.7,36.3 50.7,31.7 54.3,27.1 57.7,22.4 60.6,17.6 63.3,12.8 " />
<polygon points="63.3,12.8 73.6,18.8 63.8,11.9 " />
<polygon points="73.6,18.8 75.2,22 68.1,22.5 " />
<polygon points="57,28 125,28 125,32 57,32 " />
<polygon points="130,33.1 128.5,34.7 126.8,36.4 124.9,38.1 123,39.8 120.8,41.6 118.5,43.5 116,45.4 113.3,47.3 110.4,49.3 107.6,51.6 106.3,50.3 108.6,47.5 110.4,44.6 112.1,41.8 113.7,39.2 115.1,36.8 116.4,34.5 117.5,32.3 118.5,30.3 119.3,28.5 119.9,26.8 " />
<polygon points="119,28 125,23 136,32 131,36 125,36 " />
<polygon points="53,47 53,80 41,86 41,41 " />
<polygon points="47,47 169,47 169,51 47,51 " />
<polygon points="175,49 175,80 163,86 163,49 " />
<polygon points="163,47 169,42 180,51 175,55 163,49 " />
<polygon points="112.3,54.2 108.4,58.7 104.1,62.9 99.4,66.6 94.4,69.9 88.9,72.8 83.1,75.4 76.9,77.4 70.3,79.1 63.4,80.2 56.1,80.8 55.8,79.1 62.5,76.6 68.7,74 74.5,71.3 79.8,68.5 84.7,65.5 89.1,62.2 93.1,58.8 96.6,55.2 99.7,51.4 102.5,47.3 " />
<polygon points="102.5,47.3 112.3,54.2 102.9,46.6 " />
<polygon points="112.3,54.2 113.6,57.6 106.4,57.4 " />
<polygon points="104.2,61.4 108.7,62.1 113.2,62.8 117.6,63.6 121.7,64.6 125.8,65.7 129.7,66.9 133.5,68.1 137.2,69.4 140.8,70.8 144.2,72.2 138.4,82.7 135.6,80.8 132.6,78.9 129.5,77 126.2,75.1 122.8,73.1 119.2,71.2 115.5,69.2 111.7,67.2 107.8,65.1 103.6,63.1 " />
<polygon points="144.2,72.2 147,75.9 146.6,80.4 143,83.2 138.4,82.7 " />
<polygon points="129.5,88.2 119.2,92.3 108.8,96 98.5,99.4 88.1,102.5 77.6,105.3 67.2,107.7 56.7,109.7 46.2,111.3 35.6,112.5 25.1,113.1 24.8,111.3 35,108.7 45.1,106.1 55.2,103.3 65.3,100.3 75.3,97.1 85.2,93.7 95.2,89.9 105,86 114.8,81.7 124.6,77.2 " />
<polygon points="124.6,77.2 129.5,88.2 133.4,86.5 " />
<polygon points="133.4,86.5 133.6,89.7 125.9,86.5 " />
<polygon points="82.3,98.2 92.8,107.8 101.5,117.2 108.3,126.3 113.2,135.1 116.3,143.8 117.5,152.4 116.4,160.8 113.2,168.7 107.9,175.8 100.6,182.2 93.8,172.4 99.8,167.8 104.1,163 106.9,157.8 108.2,152.1 108,145.5 106.2,138 102.6,129.6 97.2,120.4 90,110.4 81,99.5 " />
<polygon points="100.6,182.2 96.1,183.1 92.2,180.7 91.3,176.2 93.8,172.4 " />
<polygon points="100.6,182.2 98.6,183.5 96.6,184.6 94.6,185.7 92.4,186.5 90.3,187.3 88.1,187.9 85.9,188.4 83.6,188.7 81.3,188.9 79,189 79,177 80.6,176.9 82.2,176.8 83.7,176.6 85.2,176.2 86.7,175.8 88.2,175.3 89.6,174.7 91,174 92.4,173.2 93.8,172.4 " />
<polygon points="79,183 79,177 59,177 59,180 " />
<polygon points="100.2,120.9 93.1,124.9 85.9,128.5 78.5,131.9 70.9,134.8 63.2,137.4 55.3,139.6 47.2,141.5 39,142.9 30.6,143.8 22.1,144.2 21.8,142.4 29.9,140.1 37.8,137.7 45.5,135.1 53,132.4 60.2,129.4 67.3,126.2 74.2,122.8 80.9,119.1 87.4,115.1 93.7,110.8 " />
<polygon points="112.3,145.2 105,149.5 97.3,153.5 89.1,157.1 80.4,160.3 71.3,163.2 61.8,165.7 51.8,167.9 41.3,169.6 30.4,170.9 19.1,171.7 18.8,169.9 29.8,167.2 40.2,164.4 50.2,161.5 59.7,158.4 68.6,155.2 77,151.7 84.9,147.9 92.3,144 99.2,139.7 105.6,135.3 " />
<polygon points="172.7,105.2 167.7,107.3 162.7,109.3 157.7,111.2 152.7,113.1 147.7,114.8 142.6,116.5 137.6,118.1 132.6,119.5 127.4,120.7 122.3,121.6 121.6,119.9 126.1,117.1 130.6,114.5 135.1,112 139.7,109.5 144.3,107.1 148.9,104.6 153.5,102.1 158.1,99.6 162.8,97 167.4,94.4 " />
<polygon points="167.4,94.4 172.7,105.2 175.9,103.7 " />
<polygon points="175.9,103.7 176,106.9 168.5,103.9 " />
<polygon points="107.1,91.6 112.1,102.2 117.4,112.1 123.1,121.2 129.4,129.5 136.2,137.1 143.6,143.9 151.6,150 160.2,155.4 169.5,160 179.4,164 174.5,176.3 163.9,171.3 154.1,165.4 145,158.8 136.8,151.4 129.3,143.3 122.7,134.5 117,124.9 112.1,114.7 108.2,103.7 105.4,92.1 " />
<polygon points="174.5,176.3 179.4,164 186,166.6 " />
</g>
</svg>
