<svg xmlns="http://www.w3.org/2000/svg" xmlns:xlink="http://www.w3.org/1999/xlink" version="1.1" baseProfile="full" viewBox="0 0 200 200" width="200" height="200">
<g fill="black">
<path d="M 85 188 L 85 182 L 65 179 L 65 176 L 85 176 L 86.4 175.9 L 87.6 175.7 L 89.8 175.1 L 90.7 174.6 L 91.6 174 L 92.4 173.3 L 93.2 172.5 L 94 171.5 L 94.8 170.3 L 101.7 157.5 L 106.8 144.9 L 110.3 132.5 L 112.1 120 L 112.1 107.6 L 111.7 104.8 L 109 108.8 L 100.4 119.4 L 91.4 128.9 L 81.9 137.5 L 71.9 144.9 L 61.6 151.2 L 50.8 156.4 L 39.6 160.5 L 28 163.3 L 16.1 164.8 L 15.8 163.1 L 27 159.6 L 37.7 155.4 L 48 150.5 L 57.7 144.7 L 67 138 L 75.8 130.4 L 84.2 122 L 92.1 112.5 L 99.7 102.1 L 106.8 90.8 L 109.8 92.7 L 107.2 82.7 L 102.8 71.9 L 97.6 78.2 L 90.2 86.3 L 82.5 93.6 L 74.6 100.2 L 66.5 106.1 L 58 111.3 L 49.4 115.7 L 40.5 119.3 L 31.5 122 L 22.2 123.8 L 21.7 122.1 L 30.2 118.4 L 38.4 114.4 L 46.3 109.9 L 54 104.9 L 61.4 99.3 L 68.6 93.1 L 75.6 86.4 L 82.3 79 L 88.8 71 L 95.1 62.4 L 99.9 65.9 L 95.4 57.3 L 88.9 47.3 L 85.9 50.5 L 78.8 57.1 L 71.3 63.2 L 63.3 68.8 L 55 73.9 L 46.2 78.5 L 37 82.5 L 27.3 85.8 L 26.6 84.1 L 35.3 79 L 43.6 73.8 L 51.4 68.4 L 58.9 62.7 L 65.9 56.6 L 72.4 50.3 L 78.5 43.6 L 84.2 36.6 L 89.5 29.3 L 94.3 21.6 L 94.9 20.8 L 104.5 28 L 105.9 31.3 L 102.2 31.2 L 98.7 36 L 92.5 43.5 L 90.5 45.7 L 98.5 55.2 L 106.9 67.6 L 113.3 80.4 L 114.2 83.1 L 114.3 83 L 118.1 78.7 L 121.8 74.5 L 125.4 70.1 L 128.9 65.6 L 132.2 61 L 135.4 56.2 L 138.5 51.3 L 141.4 46.1 L 144.2 40.8 L 144.8 39.9 L 154.7 46.8 L 156.3 50 L 152.5 50.1 L 151.1 52.2 L 147.4 57.3 L 143.5 62.2 L 139.5 66.8 L 135.3 71.2 L 130.9 75.3 L 126.4 79.2 L 123.9 81.1 L 128.7 90 L 134.1 99.8 L 139.6 109 L 145.2 117.6 L 150.9 125.5 L 156.8 132.8 L 162.8 139.5 L 169 145.5 L 175.4 150.9 L 181.9 155.6 L 185 157.9 L 174 166.3 L 167.2 160.4 L 160.7 153.9 L 154.5 146.8 L 148.7 139.1 L 143.2 130.8 L 138 121.9 L 133.2 112.5 L 128.8 102.4 L 124.8 91.6 L 122.1 82.4 L 121.6 82.8 L 116.7 85.9 L 115.5 86.6 L 117.9 93.4 L 120.6 106.8 L 121.3 120.4 L 120.2 134.2 L 117.1 148.2 L 112 162.2 L 105.2 176.3 L 103.8 178.4 L 102.3 180.3 L 100.6 182.1 L 98.7 183.7 L 96.7 185 L 94.5 186.1 L 92.3 186.9 L 89.9 187.5 L 87.4 187.8 Z " />
</g>
</svg>
