<svg xmlns="http://www.w3.org/2000/svg" xmlns:xlink="http://www.w3.org/1999/xlink" version="1.1" baseProfile="full" viewBox="0 0 200 200" width="200" height="200">
<g fill="black">
<polygon points="17,31 184,31 184,35 17,35 " />
<polygon points="184,31 164,33 174,22 " />
<polygon points="106,15 106,51 94,51 94,13 " />
<polygon points="106,15 109,17 104,20 " />
<polygon points="36,47 166,47 166,51 36,51 " />
<polygon points="166,47 150,49 158,40 " />
<polygon points="40,61 40,91 28,97 28,55 " />
<polygon points="34,61 167,61 167,65 34,65 " />
<polygon points="173,63 173,90 161,96 161,63 " />
<polygon points="161,61 167,56 178,65 173,69 161,63 " />
<polygon points="96.8,63 92.6,66.8 89.7,69.4 86.6,71.7 83.1,73.8 79.3,75.6 75.3,77.3 70.9,78.8 66.2,80.2 61.2,81.3 55.8,82.1 50.2,82.8 49.7,81.1 54.9,78.9 59.7,76.6 64.1,74.4 68,72.3 71.6,70.1 74.8,67.9 77.6,65.6 79.9,63.4 80.2,63 " />
<polygon points="120,61 120,65 108,65 108,61 " />
<polygon points="120,65 117.6,68.6 114,71 110.4,68.6 108,65 " />
<polygon points="120,65 119.8,66.2 119.7,67.2 119.7,68 119.7,68.6 119.8,69.1 120,69.6 120.5,70.1 121.3,70.7 122.5,71.1 124,71.5 124,78.5 121.6,78.6 119.4,78.4 117.2,78 115.1,77.1 113.1,75.8 111.4,74.1 110,72.1 109,69.9 108.3,67.5 108,65 " />
<polygon points="124,71.5 126.4,72.5 127.5,75 126.4,77.4 124,78.5 " />
<polygon points="124,71.5 149,71.5 149,78.5 124,78.5 " />
<polygon points="149,71.5 151.1,72.9 152.5,75 151.1,77.1 149,78.5 " />
<polygon points="145.5,72.5 149,66.5 151,66.5 149,72.5 " />
<polygon points="34,84 167,84 167,88 34,88 " />
<polygon points="56,98 56,159.8 44,165.8 44,92 " />
<polygon points="50,98 150,98 150,102 50,102 " />
<polygon points="156,100 156,156.8 144,162.8 144,100 " />
<polygon points="144,98 150,93 161,102 156,106 144,100 " />
<polygon points="50,116.3 150,116.3 150,120.3 50,120.3 " />
<polygon points="50,134.5 150,134.5 150,138.5 50,138.5 " />
<polygon points="50,152.8 150,152.8 150,156.8 50,156.8 " />
<polygon points="84,170.5 79.3,172.6 74.2,174.6 68.6,176.6 62.5,178.6 55.9,180.5 48.8,182.4 41.2,184.2 33,185.9 24.4,187.5 15.2,188.9 14.7,187.1 23.4,183.8 31.6,180.8 39.3,177.9 46.5,175.2 53.1,172.5 59.2,169.9 64.8,167.3 69.8,164.8 74.3,162.4 78.2,160 " />
<polygon points="77.3,160.5 84,170.5 86.2,169.3 " />
<polygon points="86.2,169.3 86.3,172.6 80.4,170.2 " />
<polygon points="111.1,164 120,164.5 128.3,165.4 136.1,166.5 143.4,167.8 150.1,169.2 156.2,170.8 161.9,172.6 167.1,174.5 171.7,176.6 175.9,178.9 169.1,188.7 166.1,186.4 162.4,184.2 158.1,181.9 153.2,179.6 147.6,177.3 141.4,175.1 134.6,172.9 127.3,170.6 119.3,168.3 110.8,165.8 " />
<polygon points="175.9,178.9 178.3,182.7 177.4,187.2 173.5,189.6 169.1,188.7 " />
</g>
</svg>
