<svg xmlns="http://www.w3.org/2000/svg" xmlns:xlink="http://www.w3.org/1999/xlink" version="1.1" baseProfile="full" viewBox="0 0 200 200" width="200" height="200">
<g fill="black">
<polygon points="35,46 165,46 165,50 35,50 " />
<polygon points="165,46 141,48 153,36 " />
<polygon points="18,85 182,85 182,89 18,89 " />
<polygon points="182,85 158,87 170,75 " />
<polygon points="87,14 87,77 75,77 75,12 " />
<polygon points="87,14 90,16 85,19 " />
<polygon points="87,77 84.6,80.6 81,83 77.4,80.6 75,77 " />
<polygon points="87,77 86.1,92.1 84.3,106.4 81.5,119.9 77.7,132.5 72.8,144.1 67,154.9 60.1,164.7 52.2,173.5 43.3,181.2 33.5,187.7 32.4,186.2 40.8,178.3 48.2,169.9 54.8,160.8 60.4,151.2 65.1,140.8 68.8,129.6 71.7,117.7 73.7,104.9 74.8,91.4 75,77 " />
<polygon points="129,14 129,168 117,168 117,12 " />
<polygon points="129,14 132,16 127,19 " />
<polygon points="129,168 126.6,171.6 123,174 119.4,171.6 117,168 " />
<polygon points="129,168 128.8,170.5 128.4,173 127.6,175.4 126.3,177.7 124.7,179.7 122.7,181.3 120.4,182.6 118,183.4 115.5,183.8 113,184 113,172 114.2,171.9 115.1,171.7 115.7,171.5 116,171.4 116.2,171.2 116.4,171 116.5,170.7 116.7,170.1 116.9,169.2 117,168 " />
<polygon points="113,178 113,172 93,172 93,175 " />
<polygon points="56.3,113.8 53.9,119.7 51.2,125.4 48.2,131 45,136.4 41.5,141.6 37.7,146.7 33.7,151.6 29.3,156.2 24.7,160.5 19.6,164.6 18.3,163.3 21.8,158 25.2,152.8 28.4,147.7 31.4,142.5 34.2,137.2 36.8,131.9 39.2,126.6 41.3,121.1 43.3,115.6 44.9,110 " />
<polygon points="44.6,111 56.3,113.8 45.4,108.5 " />
<polygon points="56.3,113.8 58.5,116.6 52.8,117.9 " />
<polygon points="142.3,109.8 147.4,112.4 152.3,115.4 156.7,118.9 160.9,122.6 164.8,126.5 168.3,130.8 171.6,135.3 174.6,140 177.2,144.9 179.6,150.1 168.3,154.1 166.8,149.4 165,144.8 162.9,140.4 160.6,136 158,131.7 155.2,127.6 152.1,123.5 148.7,119.4 145.1,115.4 141.2,111.3 " />
<polygon points="179.6,150.1 179.3,154.7 176,157.8 171.4,157.5 168.3,154.1 " />
</g>
</svg>
