<svg xmlns="http://www.w3.org/2000/svg" xmlns:xlink="http://www.w3.org/1999/xlink" version="1.1" baseProfile="full" viewBox="0 0 200 200" width="200" height="200">
<g fill="black">
<polygon points="106,18.8 100.8,27 95.5,35 89.9,42.7 84.2,50 78.3,57.1 72.2,63.8 65.9,70.1 59.3,76.1 52.6,81.6 45.5,86.6 44.3,85.3 50,78.8 55.5,72.3 61,65.7 66.4,58.8 71.6,51.8 76.7,44.5 81.7,37 86.4,29.2 91.1,21.2 95.5,12.9 " />
<polygon points="95.5,12.9 106,18.8 96.1,11.9 " />
<polygon points="106,18.8 107.6,22 100.4,22.5 " />
<polygon points="97.9,24.5 103.7,26 109.2,27.9 114.4,30 119.2,32.3 123.7,34.8 127.8,37.5 131.7,40.4 135.2,43.4 138.5,46.7 141.4,50.1 131.4,56.8 129.6,53.7 127.4,50.7 124.9,47.6 122,44.6 118.7,41.6 115.1,38.6 111.1,35.5 106.8,32.5 102.2,29.4 97.2,26.2 " />
<polygon points="141.4,50.1 142.2,54.6 139.7,58.4 135.2,59.3 131.4,56.8 " />
<polygon points="78.3,59 126.6,59 126.6,63 78.3,63 " />
<polygon points="126.6,59 106.6,61 116.6,50 " />
<polygon points="77.4,77 77.4,183 65.4,189 65.4,71 " />
<polygon points="71.4,77 125.4,77 125.4,81 71.4,81 " />
<polygon points="131.4,79 131.4,127 119.4,133 119.4,79 " />
<polygon points="119.4,77 125.4,72 136.4,81 131.4,85 119.4,79 " />
<polygon points="71.4,98 125.4,98 125.4,102 71.4,102 " />
<polygon points="70.2,121 125.4,121 125.4,125 70.2,125 " />
<polygon points="71.4,145 140.4,145 140.4,149 71.4,149 " />
<polygon points="140.4,145 116.4,147 128.4,135 " />
<polygon points="71.4,168 141.5,168 141.5,172 71.4,172 " />
<polygon points="141.5,168 117.5,170 129.5,158 " />
</g>
</svg>
