<svg xmlns="http://www.w3.org/2000/svg" xmlns:xlink="http://www.w3.org/1999/xlink" version="1.1" baseProfile="full" viewBox="0 0 200 200" width="200" height="200">
<g fill="black">
<polygon points="106,14.7 106,31.8 94,31.8 94,12.7 " />
<polygon points="106,14.7 109,16.7 104,19.7 " />
<polygon points="15,27.8 185,27.8 185,31.8 15,31.8 " />
<polygon points="185,27.8 165,29.8 175,18.8 " />
<polygon points="65.4,39.5 65.4,60.1 53.4,66.1 53.4,33.5 " />
<polygon points="59.4,39.5 140.6,39.5 140.6,43.5 59.4,43.5 " />
<polygon points="146.6,41.5 146.6,60.1 134.6,66.1 134.6,41.5 " />
<polygon points="134.6,39.5 140.6,34.5 151.6,43.5 146.6,47.5 134.6,41.5 " />
<polygon points="59.4,56.1 140.6,56.1 140.6,60.1 59.4,60.1 " />
<polygon points="41,68.8 41,125.3 29,131.3 29,62.8 " />
<polygon points="35,68.8 166,68.8 166,72.8 35,72.8 " />
<polygon points="172,70.8 172,119.3 160,125.3 160,70.8 " />
<polygon points="160,68.8 166,63.8 177,72.8 172,76.8 160,70.8 " />
<polygon points="35,109.3 166,109.3 166,113.3 35,113.3 " />
<polygon points="79,80.1 79,100.7 67,106.7 67,74.1 " />
<polygon points="73,80.1 127,80.1 127,84.1 73,84.1 " />
<polygon points="133,82.1 133,100.7 121,106.7 121,82.1 " />
<polygon points="121,80.1 127,75.1 138,84.1 133,88.1 121,82.1 " />
<polygon points="73,96.7 127,96.7 127,100.7 73,100.7 " />
<polygon points="58.4,126.7 58.4,151.2 46.4,157.2 46.4,120.7 " />
<polygon points="52.4,126.7 147.5,126.7 147.5,130.7 52.4,130.7 " />
<polygon points="153.5,128.7 153.5,151.2 141.5,157.2 141.5,128.7 " />
<polygon points="141.5,126.7 147.5,121.7 158.5,130.7 153.5,134.7 141.5,128.7 " />
<polygon points="52.4,147.2 147.5,147.2 147.5,151.2 52.4,151.2 " />
<polygon points="14,165 186,165 186,169 14,169 " />
<polygon points="186,165 162,167 174,155 " />
<polygon points="106,148 106,183 94,189 94,148 " />
</g>
</svg>
