<svg xmlns="http://www.w3.org/2000/svg" xmlns:xlink="http://www.w3.org/1999/xlink" version="1.1" baseProfile="full" viewBox="0 0 200 200" width="200" height="200">
<g fill="black">
<polygon points="107,15 107,35 95,35 95,13 " />
<polygon points="107,15 110,17 105,20 " />
<polygon points="16,31 183,31 183,35 16,35 " />
<polygon points="183,31 159,33 171,21 " />
<polygon points="73,31 73,87 61,87 61,31 " />
<polygon points="67,47 131,47 131,51 67,51 " />
<polygon points="137,31 137,87 125,87 125,31 " />
<polygon points="67,66 131,66 131,70 67,70 " />
<polygon points="43,83 43,118 31,124 31,77 " />
<polygon points="37,83 163,83 163,87 37,87 " />
<polygon points="169,85 169,115 157,121 157,85 " />
<polygon points="157,83 163,78 174,87 169,91 157,85 " />
<polygon points="37,107 163,107 163,111 37,111 " />
<polygon points="74,109 74,165 62,165 62,109 " />
<polygon points="68,125 132,125 132,129 68,129 " />
<polygon points="138,109 138,165 126,165 126,109 " />
<polygon points="68,143 132,143 132,147 68,147 " />
<polygon points="16,161 184,161 184,165 16,165 " />
<polygon points="184,161 160,163 172,151 " />
<polygon points="106,161 106,184 94,190 94,161 " />
</g>
</svg>
