<svg xmlns="http://www.w3.org/2000/svg" xmlns:xlink="http://www.w3.org/1999/xlink" version="1.1" baseProfile="full" viewBox="0 0 200 200" width="200" height="200">
<g fill="black">
<polygon points="42.6,16.4 41.4,21.1 40,25.5 38.5,29.8 36.8,33.7 34.9,37.4 32.8,40.9 30.6,44.1 28.2,46.9 25.6,49.4 22.9,51.6 21.6,50.4 23.1,47.5 24.3,44.4 25.5,41.2 26.5,37.9 27.5,34.5 28.4,30.8 29.1,27 29.8,23.1 30.3,18.9 30.7,14.5 " />
<polygon points="31,12.5 42.6,16.4 30.6,15.5 " />
<polygon points="42.6,16.4 45.2,18.8 39.8,21 " />
<polygon points="32.9,28.6 92.1,28.6 92.1,32.6 32.9,32.6 " />
<polygon points="92.1,28.6 68.1,30.6 80.1,18.6 " />
<polygon points="63.2,13.6 63.2,55.4 51.2,55.4 51.2,11.6 " />
<polygon points="63.2,13.6 66.2,15.6 61.2,18.6 " />
<polygon points="17.4,51.4 97.9,51.4 97.9,55.4 17.4,55.4 " />
<polygon points="97.9,51.4 73.9,53.4 85.9,41.4 " />
<polygon points="52.4,56.4 51.2,62.4 49.3,67.9 46.9,73.1 43.8,77.7 40.2,81.8 36.1,85.4 31.4,88.4 26.3,90.8 20.8,92.5 14.8,93.7 14.2,92 19.3,89.1 23.8,86.1 27.7,83 31.1,79.8 33.8,76.3 36.1,72.6 37.8,68.7 39.2,64.6 40,60.1 40.4,55.2 " />
<polygon points="40.7,53.1 52.4,56.4 40.3,56.2 " />
<polygon points="52.4,56.4 55.2,58.7 49.9,61.2 " />
<polygon points="73.9,51.4 73.9,84.4 61.9,84.4 61.9,51.4 " />
<polygon points="52.8,80.6 58.9,79.3 64.8,78.1 70.4,76.8 75.9,75.6 81.1,74.4 86.1,73.2 90.9,72 95.5,70.9 100,70 104.3,69.2 105.1,70.8 101.4,73.5 97.5,75.9 93.1,78.2 88.6,80.3 83.7,82.4 78.6,84.5 73.3,86.5 67.7,88.4 61.8,90.3 55.7,92.2 " />
<polygon points="50.9,81.1 52.8,80.6 55.7,92.2 " />
<polygon points="60.8,87.8 58.4,94.6 55.7,92.2 " />
<polygon points="127.3,16.8 125.6,21.1 123.8,25.1 121.8,29 119.6,32.6 117.3,36 114.8,39.1 112.1,42 109.3,44.6 106.2,46.9 103.2,49 101.9,47.7 104,44.8 105.7,41.6 107.4,38.5 109,35.3 110.4,32 111.7,28.6 112.9,25 114,21.4 114.9,17.6 115.8,13.6 " />
<polygon points="116.2,12 127.3,16.8 115.5,14.6 " />
<polygon points="127.3,16.8 129.7,19.6 124,21.1 " />
<polygon points="117.2,28.8 174.2,28.8 174.2,32.8 117.2,32.8 " />
<polygon points="174.2,28.8 150.2,30.8 162.2,18.8 " />
<polygon points="147.1,13.8 147.1,55.7 135.1,55.7 135.1,11.8 " />
<polygon points="147.1,13.8 150.1,15.8 145.1,18.8 " />
<polygon points="101,51.7 183.4,51.7 183.4,55.7 101,55.7 " />
<polygon points="183.4,51.7 159.4,53.7 171.4,41.7 " />
<polygon points="135.4,57.1 134.2,63.3 132.3,69.1 129.5,74.4 126,79.2 121.9,83.4 117.1,86.9 111.7,89.9 105.7,92.3 99.1,94 92,95 91.6,93.2 97.9,90.4 103.5,87.4 108.4,84.2 112.5,80.9 115.9,77.4 118.6,73.6 120.7,69.7 122.2,65.5 123.1,61 123.4,56.2 " />
<polygon points="123.6,54 135.4,57.1 123.4,57.2 " />
<polygon points="135.4,57.1 138.2,59.3 133,61.9 " />
<polygon points="156.3,51.7 156.3,79.7 144.3,79.7 144.3,51.7 " />
<polygon points="156.3,79.7 153.9,83.3 150.3,85.7 146.7,83.3 144.3,79.7 " />
<polygon points="156.3,79.7 156.2,81 156.2,81.9 156.3,82.6 156.4,83.1 156.5,83.5 156.7,83.9 157.1,84.3 157.9,84.7 158.9,85 160.3,85.2 160.3,94.2 157.9,94.2 155.5,94 153.2,93.4 151.1,92.4 149.1,90.9 147.4,89.1 146.1,87 145.2,84.7 144.6,82.3 144.3,79.7 " />
<polygon points="160.3,85.2 163.4,86.6 164.8,89.7 163.4,92.9 160.3,94.2 " />
<polygon points="160.3,85.2 182.6,85.2 182.6,94.2 160.3,94.2 " />
<polygon points="182.6,85.2 185.3,87 187.1,89.7 185.3,92.4 182.6,94.2 " />
<polygon points="178.1,86.2 182.6,72.2 184.6,72.2 182.6,86.2 " />
<polygon points="20,104 181,104 181,108 20,108 " />
<polygon points="181,104 165,106 173,97 " />
<polygon points="61,116 61,134 49,140 49,110 " />
<polygon points="55,116 145,116 145,120 55,120 " />
<polygon points="151,118 151,134 139,140 139,118 " />
<polygon points="139,116 145,111 156,120 151,124 139,118 " />
<polygon points="55,130 145,130 145,134 55,134 " />
<polygon points="36,142 36,183 24,189 24,136 " />
<polygon points="30,142 170,142 170,146 30,146 " />
<polygon points="176,144 176,171 164,171 164,144 " />
<polygon points="164,142 170,137 181,146 176,150 164,144 " />
<polygon points="176,171 173.6,174.6 170,177 166.4,174.6 164,171 " />
<polygon points="176,171 175.8,173.5 175.4,176 174.6,178.4 173.3,180.7 171.7,182.7 169.7,184.3 167.4,185.6 165,186.4 162.5,186.8 160,187 160,175 161.2,174.9 162.1,174.7 162.7,174.5 163,174.4 163.2,174.2 163.4,174 163.5,173.7 163.7,173.1 163.9,172.2 164,171 " />
<polygon points="140,178 140,175 160,175 160,181 " />
<polygon points="90.8,144 87.9,147.3 84.8,150.8 81.3,153.9 77.4,156.7 73.1,159.2 68.4,161.5 63.3,163.4 57.9,165 52.1,166.3 45.8,167.3 39.1,167.8 38.8,166.1 44.9,163.6 50.5,161.2 55.6,158.9 60.3,156.4 64.5,153.9 68.2,151.4 71.3,148.7 74,146 75.6,144 " />
<polygon points="120,142 120,149 108,149 108,142 " />
<polygon points="120,149 117.6,152.6 114,155 110.4,152.6 108,149 " />
<polygon points="120,149 119.8,150.2 119.7,151.2 119.7,152 119.7,152.6 119.8,153.1 120,153.6 120.5,154.1 121.3,154.7 122.5,155.1 124,155.5 124,162.5 121.6,162.6 119.4,162.4 117.2,162 115.1,161.1 113.1,159.8 111.4,158.1 110,156.1 109,153.9 108.3,151.5 108,149 " />
<polygon points="124,155.5 126.4,156.5 127.5,159 126.4,161.4 124,162.5 " />
<polygon points="124,155.5 153,155.5 153,162.5 124,162.5 " />
<polygon points="153,155.5 155.1,156.9 156.5,159 155.1,161.1 153,162.5 " />
<polygon points="149.5,156.5 153,150.5 155,150.5 153,156.5 " />
<polygon points="55,168 144,168 144,172 55,172 " />
<polygon points="144,168 124,170 134,159 " />
<polygon points="106,168 106,183 94,189 94,168 " />
</g>
</svg>
