<svg xmlns="http://www.w3.org/2000/svg" xmlns:xlink="http://www.w3.org/1999/xlink" version="1.1" baseProfile="full" viewBox="0 0 200 200" width="200" height="200">
<g fill="black">
<polygon points="77.5,21 73.5,26.3 69.2,31.5 64.4,36.5 59.2,41.4 53.7,46.1 47.7,50.6 41.3,55 34.5,59.2 27.2,63.1 19.4,66.7 18.5,65.2 25.1,59.9 31.4,54.8 37.3,49.8 42.9,44.8 48,39.8 52.7,34.8 57,29.7 60.8,24.7 64.3,19.7 67.3,14.6 " />
<polygon points="67.3,14.6 77.5,21 67.9,13.8 " />
<polygon points="77.5,21 79,24.3 71.8,24.5 " />
<polygon points="62,27 121,27 121,31 62,31 " />
<polygon points="125.8,32.4 123.4,35.1 120.9,37.7 118.3,40.3 115.6,42.7 112.8,45.1 110,47.4 107,49.6 103.9,51.7 100.7,53.6 97.5,55.6 96.4,54.3 98.7,51.5 100.9,48.4 103,45.5 105.1,42.7 107.1,39.8 109,36.9 110.9,34.1 112.7,31.2 114.4,28.3 116.1,25.5 " />
<polygon points="115,27 121,22 132,31 127,35 121,35 " />
<polygon points="55,53 55,114 43,120 43,47 " />
<polygon points="49,53 153,53 153,57 49,57 " />
<polygon points="159,55 159,111 147,117 147,55 " />
<polygon points="147,53 153,48 164,57 159,61 147,55 " />
<polygon points="49,77 153,77 153,81 49,81 " />
<polygon points="106,53 106,107 94,107 94,53 " />
<polygon points="49,103 153,103 153,107 49,107 " />
<polygon points="18.2,132.7 181.8,132.7 181.8,136.7 18.2,136.7 " />
<polygon points="181.8,132.7 157.8,134.7 169.8,122.7 " />
<polygon points="106.2,111 103.1,124 98.7,135.9 93,146.7 85.9,156.2 77.6,164.4 68,171.4 57.3,177 45.4,181.4 32.4,184.3 18.3,185.9 18,184.2 31.5,180.6 43.6,176.3 54.3,171.1 63.7,165.1 71.8,158.1 78.7,150.3 84.3,141.5 88.8,131.8 92.2,121 94.4,109.2 " />
<polygon points="94.4,109.2 106.2,111 94.7,107.2 " />
<polygon points="106.2,111 108.9,113.5 102.3,116.5 " />
<polygon points="104.5,136.1 109.4,142.4 114.6,148.1 120,153.2 125.9,157.7 132.3,161.7 139.2,165 146.6,167.8 154.6,170.1 163.2,171.8 172.4,173 170.7,186.1 160.7,184.1 151.3,181.5 142.6,178.2 134.6,174.2 127.3,169.5 120.7,164.3 114.9,158.4 110,151.8 105.9,144.7 102.9,136.9 " />
<polygon points="170.7,186.1 172.4,173 182.5,174.3 " />
</g>
</svg>
