<svg xmlns="http://www.w3.org/2000/svg" xmlns:xlink="http://www.w3.org/1999/xlink" version="1.1" baseProfile="full" viewBox="0 0 200 200" width="200" height="200">
<g fill="black">
<polygon points="89,14 89,50 77,50 77,12 " />
<polygon points="89,14 92,16 87,19 " />
<polygon points="123,14 123,50 111,50 111,12 " />
<polygon points="123,14 126,16 121,19 " />
<polygon points="35.3,16.7 38.7,18.5 42,20.1 45.1,21.9 48,23.8 50.6,25.9 53,28.1 55.1,30.5 57,33 58.6,35.7 60,38.5 48.4,41.6 48.2,39.6 47.7,37.6 47,35.4 46.1,33.2 44.8,30.8 43.3,28.4 41.5,25.9 39.5,23.4 37.1,20.7 34.3,18.2 " />
<polygon points="60,38.5 59.3,43 55.7,45.8 51.2,45.2 48.4,41.6 " />
<polygon points="167.3,23.3 164.9,25.9 162.4,28.5 159.7,31.1 156.8,33.7 153.7,36.4 150.5,39.1 147.1,41.7 143.4,44.4 139.5,46.9 135.5,49.6 134.4,48.3 137.4,44.6 140.2,40.9 142.9,37.5 145.5,34.1 147.9,30.9 150.1,27.8 152.2,24.8 154.2,21.8 155.9,19 157.5,16.3 " />
<polygon points="156.9,17.1 167.3,23.3 158,15.6 " />
<polygon points="167.3,23.3 168.5,26.6 162.7,26.2 " />
<polygon points="31.9,39.3 32.5,44.2 33,48.9 33.1,53.3 32.7,57.5 32,61.4 30.8,65.1 29.2,68.6 27.1,71.8 24.5,74.6 21.4,77 15.8,66.4 17.8,65.6 19.6,64.5 21.4,63 23.1,61.1 24.7,58.6 26.2,55.8 27.5,52.4 28.6,48.5 29.6,44.2 30.1,39.3 " />
<polygon points="21.4,77 16.9,77.4 13.3,74.5 12.9,70 15.8,66.4 " />
<polygon points="32,47 176,47 176,51 32,51 " />
<polygon points="180.9,52.4 179.2,54.1 177.3,55.8 175.3,57.6 173.1,59.5 170.8,61.4 168.3,63.4 165.6,65.5 162.7,67.7 159.6,69.8 156.6,72.3 155.3,71 157.7,68 159.7,64.8 161.6,61.8 163.4,59 165.1,56.4 166.6,53.9 168,51.6 169.2,49.4 170.2,47.4 171,45.5 " />
<polygon points="170,47 176,42 187,51 182,54 170,59 " />
<polygon points="43.9,66 154,66 154,70 43.9,70 " />
<polygon points="154,66 138,68 146,59 " />
<polygon points="19.6,84.4 180.3,84.4 180.3,88.4 19.6,88.4 " />
<polygon points="180.3,84.4 164.3,86.4 172.3,77.4 " />
<polygon points="92.1,84.7 107.8,84.7 107.8,88.7 92.1,88.7 " />
<polygon points="108.3,86.7 103.2,90.9 98.4,94.8 93,98.5 86.8,102.1 79.8,105.5 72.1,108.9 63.6,112.2 54.4,115.4 44.4,118.4 33.5,121.3 21.8,123.9 21.3,122.2 32.3,117.7 42.6,113.4 52,109.2 60.7,105.2 68.5,101.2 75.5,97.3 81.6,93.5 86.9,89.7 90.3,86.7 " />
<polygon points="83.7,100.3 92.1,107.7 99.4,115.2 105.5,122.7 110.4,130.3 114.1,137.9 116.6,145.6 117.9,153.3 117.8,160.9 116.5,168.5 113.7,175.9 103,170.5 105.6,165.1 107.2,159.5 107.8,153.6 107.5,147.4 106.1,140.7 103.6,133.7 99.9,126.3 95.2,118.5 89.3,110.2 82.4,101.5 " />
<polygon points="113.7,175.9 110.2,178.9 105.7,178.6 102.7,175.1 103,170.5 " />
<polygon points="113.7,175.9 112.5,178.1 111.1,180.2 109.5,182 107.6,183.6 105.6,185 103.5,186.2 101.2,187.1 98.8,187.7 96.4,188 93.9,188.1 93.9,176.1 95.3,176.1 96.5,175.9 97.5,175.6 98.5,175.3 99.4,174.8 100.2,174.2 100.9,173.6 101.7,172.7 102.4,171.7 103,170.5 " />
<polygon points="93.9,182.1 93.9,176.1 73.9,176.1 73.9,179.1 " />
<polygon points="99.6,120.2 93.3,124.3 86.6,128.2 79.4,131.8 71.9,135.3 63.9,138.5 55.6,141.5 46.8,144.3 37.6,146.9 28,149.1 17.9,150.9 17.4,149.2 26.9,145.4 35.9,141.8 44.6,138.2 52.8,134.5 60.5,130.7 67.8,126.9 74.7,123 81,118.9 87,114.8 92.5,110.6 " />
<polygon points="112.7,138.5 105.3,144.1 97.5,149.4 89.2,154.2 80.4,158.8 71.1,163 61.4,166.8 51.3,170.3 40.6,173.3 29.5,175.9 17.8,178 17.4,176.2 28.4,172.2 38.9,168.2 49,164.1 58.5,159.8 67.5,155.3 76,150.6 84,145.6 91.5,140.5 98.4,135.1 104.9,129.5 " />
<polygon points="169.8,107.1 166.5,109.4 163.1,111.7 159.5,114 155.7,116.3 151.6,118.6 147.3,120.9 142.9,123.2 138.1,125.5 133.1,127.6 127.8,129.7 126.9,128.1 131.3,124.5 135.4,121.1 139.4,117.8 143.3,114.7 146.9,111.7 150.3,108.8 153.6,106 156.6,103.2 159.3,100.6 161.9,98 " />
<polygon points="161.2,98.7 169.8,107.1 162.1,97.9 " />
<polygon points="169.8,107.1 170.2,110.7 164.7,108.8 " />
<polygon points="108,87.4 112.7,97.9 117.8,107.8 123.3,117.1 129.5,125.7 136.2,133.8 143.5,141.2 151.5,148.1 160.1,154.4 169.4,160.1 179.4,165.3 173.4,177 162.9,170.8 153.2,164 144.3,156.5 136.3,148.4 129,139.7 122.6,130.5 117.1,120.7 112.4,110.3 108.8,99.4 106.2,87.9 " />
<polygon points="173.4,177 179.4,165.3 184.7,168 " />
</g>
</svg>
