<svg xmlns="http://www.w3.org/2000/svg" xmlns:xlink="http://www.w3.org/1999/xlink" version="1.1" baseProfile="full" viewBox="0 0 200 200" width="200" height="200">
<g fill="black">
<polygon points="30,22 170,22 170,26 30,26 " />
<polygon points="170,22 146,24 158,12 " />
<polygon points="97.5,28.7 86.2,70.8 73.7,70.8 86.4,23.6 " />
<polygon points="97.5,28.7 99.9,31.4 94.5,32.8 " />
<polygon points="40,43.2 142,43.2 142,47.2 40,47.2 " />
<polygon points="148,45.2 148,73.8 136,73.8 136,45.2 " />
<polygon points="136,43.2 142,38.2 153,47.2 148,51.2 136,45.2 " />
<polygon points="22,69.8 182,69.8 182,73.8 22,73.8 " />
<polygon points="182,69.8 162,71.8 172,60.8 " />
<polygon points="61.9,85.3 61.9,124.1 49.9,130.1 49.9,79.3 " />
<polygon points="55.9,85.3 144,85.3 144,89.3 55.9,89.3 " />
<polygon points="150,87.3 150,121.1 138,127.1 138,87.3 " />
<polygon points="138,85.3 144,80.3 155,89.3 150,93.3 138,87.3 " />
<polygon points="55.9,113.1 144,113.1 144,117.1 55.9,117.1 " />
<polygon points="54,138.2 166,138.2 166,142.2 54,142.2 " />
<polygon points="166,138.2 142,140.2 154,128.2 " />
<polygon points="60,138.2 60,166.9 48,166.9 48,132.2 " />
<polygon points="18,162.9 184,162.9 184,166.9 18,166.9 " />
<polygon points="184,162.9 160,164.9 172,152.9 " />
<polygon points="126,118.4 126,184.7 114,190.7 114,116.4 " />
<polygon points="126,118.4 129,120.4 124,123.4 " />
</g>
</svg>
