<svg xmlns="http://www.w3.org/2000/svg" xmlns:xlink="http://www.w3.org/1999/xlink" version="1.1" baseProfile="full" viewBox="0 0 200 200" width="200" height="200">
<g fill="black">
<polygon points="66.2,20 62.6,28.1 58.8,35.9 54.7,43.2 50.4,50.2 45.9,56.7 41.2,62.9 36.2,68.6 30.9,73.8 25.4,78.5 19.5,82.6 18.4,81.3 22.7,75.8 26.9,70.2 31.1,64.5 35,58.4 38.8,52.1 42.4,45.5 45.8,38.6 49.1,31.3 52.1,23.7 55,15.7 " />
<polygon points="55,15.7 66.2,20 55.5,14.4 " />
<polygon points="66.2,20 68.3,23 61.3,24.6 " />
<polygon points="53,36 94,36 94,40 53,40 " />
<polygon points="99.3,40.6 92.3,53.3 85,65.2 77.2,76.2 69.1,86.3 60.6,95.6 51.7,103.9 42.4,111.4 32.8,117.9 22.7,123.4 12.3,127.8 11.6,126.1 20.8,120.1 29.7,113.5 38.3,106.3 46.5,98.4 54.3,89.8 61.9,80.5 69,70.4 75.9,59.5 82.4,47.8 88.6,35.3 " />
<polygon points="88,36 94,31 105,40 100,44 94,44 " />
<polygon points="38.2,59.5 41.2,60.4 44.2,61 47.1,62 49.9,63.1 52.6,64.5 55.2,66 57.7,67.8 60,69.7 62.3,71.9 64.4,74.2 54.3,80.7 53.3,78.5 52.2,76.4 50.9,74.3 49.5,72.3 47.9,70.3 46.2,68.4 44.3,66.5 42.3,64.6 40.1,62.6 37.5,61.2 " />
<polygon points="64.4,74.2 65.1,78.7 62.6,82.5 58.1,83.2 54.3,80.7 " />
<polygon points="154.1,25.4 151.6,28 149,30.6 146.2,33.4 143.2,36.2 140.1,39.1 136.8,42.1 133.3,45.1 129.6,48.2 125.7,51.3 121.6,54.6 120.3,53.3 123.3,49.1 126,44.9 128.8,41 131.4,37.3 134,33.7 136.4,30.3 138.7,27 140.8,23.9 142.8,20.9 144.6,18 " />
<polygon points="144.6,18 154.1,25.4 145,17.5 " />
<polygon points="154.1,25.4 155.2,28.9 148,28.3 " />
<polygon points="172.9,45.6 170.4,48 167.7,50.5 164.9,53.1 161.8,55.8 158.5,58.7 155,61.7 151.3,64.8 147.3,68 143.1,71.2 138.6,74.6 137.3,73.3 140.6,68.8 143.8,64.5 146.8,60.5 149.8,56.7 152.5,53.1 155.1,49.7 157.6,46.4 159.8,43.4 161.9,40.5 163.7,37.8 " />
<polygon points="163.7,37.8 172.9,45.6 164.1,37.4 " />
<polygon points="172.9,45.6 173.9,49.1 166.7,48.2 " />
<polygon points="106.1,19.6 111.7,31 117.5,41.6 123.7,51.5 130.4,60.7 137.6,69.2 145.3,76.9 153.6,84 162.5,90.3 171.9,96 181.9,101 176,112.9 165.5,106.8 155.6,100 146.5,92.4 138.1,84.2 130.5,75.2 123.6,65.6 117.5,55.2 112.2,44.2 107.8,32.6 104.4,20.2 " />
<polygon points="176,112.9 181.9,101 187.4,103.7 " />
<polygon points="69,96 138,96 138,100 69,100 " />
<polygon points="138,96 114,98 126,86 " />
<polygon points="33,125 171,125 171,129 33,129 " />
<polygon points="171,125 147,127 159,115 " />
<polygon points="109,125 109,173 97,173 97,125 " />
<polygon points="109,173 106.6,176.6 103,179 99.4,176.6 97,173 " />
<polygon points="109,173 108.8,175.5 108.4,178 107.6,180.4 106.3,182.7 104.7,184.7 102.7,186.3 100.4,187.6 98,188.4 95.5,188.8 93,189 93,177 94.2,176.9 95.1,176.7 95.7,176.5 96,176.4 96.2,176.2 96.4,176 96.5,175.7 96.7,175.1 96.9,174.2 97,173 " />
<polygon points="93,183 93,177 73,177 73,180 " />
<polygon points="72.9,149.6 68.9,153.6 64.6,157.5 60.1,161.2 55.4,164.8 50.4,168.3 45.1,171.6 39.6,174.7 33.8,177.7 27.8,180.4 21.4,182.7 20.5,181.2 25.9,177.1 31,173.1 36,169.2 40.7,165.4 45.2,161.5 49.4,157.6 53.4,153.7 57.1,149.8 60.6,145.8 63.7,141.8 " />
<polygon points="63.7,141.8 72.9,149.6 64.1,141.4 " />
<polygon points="72.9,149.6 73.8,153.1 66.7,152.2 " />
<polygon points="125.2,142.5 131.5,144 137.5,145.9 143.2,148.2 148.6,150.8 153.7,153.7 158.5,156.9 163.1,160.3 167.3,163.9 171.3,167.8 175,172 165.3,179.1 162.6,175.2 159.6,171.4 156.3,167.7 152.7,164.1 148.8,160.6 144.5,157.3 140,154 135.1,150.7 130,147.5 124.6,144.2 " />
<polygon points="175,172 176,176.4 173.7,180.4 169.3,181.4 165.3,179.1 " />
</g>
</svg>
