<svg xmlns="http://www.w3.org/2000/svg" xmlns:xlink="http://www.w3.org/1999/xlink" version="1.1" baseProfile="full" viewBox="0 0 200 200" width="200" height="200">
<g fill="black">
<polygon points="26,39 177,39 177,43 26,43 " />
<polygon points="177,39 153,41 165,29 " />
<polygon points="70,18 70,115 58,115 58,16 " />
<polygon points="70,18 73,20 70,22 " />
<polygon points="139,18 139,115 127,115 127,16 " />
<polygon points="139,18 142,20 139,22 " />
<polygon points="17,111 186,111 186,115 17,115 " />
<polygon points="186,111 162,113 174,101 " />
<polygon points="64,61 133,61 133,65 64,65 " />
<polygon points="64,86 133,86 133,90 64,90 " />
<polygon points="49,111 49,185 37,191 37,111 " />
<polygon points="43,174 178,174 178,178 43,178 " />
<polygon points="178,174 154,176 166,164 " />
<polygon points="152.7,124.8 144.3,131 135.5,136.9 126.4,142.5 116.9,147.7 107,152.6 96.8,157.2 86.2,161.4 75.3,165.2 63.9,168.6 52.2,171.5 51.6,169.7 62.7,165 73.3,160.2 83.6,155.4 93.6,150.3 103.1,145.1 112.3,139.6 121.1,134 129.5,128.1 137.5,121.9 145.1,115.6 " />
<polygon points="145.1,115.6 152.7,124.8 145.2,115.5 " />
<polygon points="152.7,124.8 153.1,128.4 146.2,126.3 " />
<polygon points="63.1,124.4 72.8,126.8 82.2,129.6 91.2,132.6 99.8,135.9 108.1,139.4 116.1,143.1 123.8,147 131.1,151 138.1,155.2 144.8,159.6 137.7,169.2 131.7,164.6 125.4,160.1 118.7,155.6 111.7,151.3 104.3,147 96.6,142.8 88.6,138.7 80.2,134.5 71.5,130.4 62.5,126.1 " />
<polygon points="144.8,159.6 147.1,163.5 146.1,168 142.2,170.3 137.7,169.2 " />
</g>
</svg>
