<svg xmlns="http://www.w3.org/2000/svg" xmlns:xlink="http://www.w3.org/1999/xlink" version="1.1" baseProfile="full" viewBox="0 0 200 200" width="200" height="200">
<g fill="black">
<polygon points="94.6,41.1 91.7,51.8 88.1,62.2 83.8,72.5 78.8,82.5 73.1,92.3 66.7,101.9 59.5,111.3 51.7,120.4 43,129.2 33.6,137.6 32.3,136.3 40.2,126.6 47.5,117 54.2,107.4 60.3,97.7 65.7,88.1 70.5,78.4 74.6,68.6 78,58.7 80.8,48.7 82.9,38.7 " />
<polygon points="82.7,39.7 94.6,41.1 83.3,36.9 " />
<polygon points="94.6,41.1 97.2,43.7 91.6,45.6 " />
<polygon points="80,65 156,65 156,69 80,69 " />
<polygon points="161.7,68.7 159.8,74.6 157.7,80.2 155.6,85.6 153.3,90.8 150.9,95.8 148.4,100.5 145.7,105 142.9,109.3 140,113.3 137,117.2 127.8,109.4 130.5,106.1 133,102.5 135.5,98.7 137.9,94.6 140.2,90.3 142.4,85.8 144.5,81 146.5,76 148.4,70.7 150.2,65.2 " />
<polygon points="150,65 156,60 167,69 162,72 150,77 " />
<polygon points="137,117.2 132.9,119.2 128.5,117.9 126.5,113.8 127.8,109.4 " />
<polygon points="137,117.2 135.3,119 133.6,120.6 131.7,122.1 129.7,123.4 127.6,124.5 125.4,125.4 123.1,126.1 120.8,126.6 118.4,126.9 116,127 115.9,115 117.4,114.9 118.8,114.7 120.1,114.5 121.4,114.1 122.5,113.6 123.6,113 124.7,112.3 125.8,111.5 126.8,110.5 127.8,109.4 " />
<polygon points="116,121 116,115 96,115 96,118 " />
</g>
</svg>
