<svg xmlns="http://www.w3.org/2000/svg" xmlns:xlink="http://www.w3.org/1999/xlink" version="1.1" baseProfile="full" viewBox="0 0 200 200" width="200" height="200">
<g fill="black">
<polygon points="86.1,134.3 89.9,134.9 93.6,135.3 97.3,136.1 100.8,137.1 104.3,138.3 107.7,139.8 110.9,141.4 114.1,143.3 117.1,145.3 120.1,147.6 111.6,156.1 109.6,153.7 107.6,151.4 105.4,149.3 103,147.2 100.5,145.1 97.9,143.2 95.1,141.3 92.1,139.4 89,137.6 85.7,136.1 " />
<polygon points="120.1,147.6 121.8,151.8 120.1,156.1 115.8,157.8 111.6,156.1 " />
<polygon points="66.1,159.3 74.2,160.4 81.9,161.9 89.2,163.7 96.1,165.8 102.7,168.2 108.8,170.7 114.6,173.6 120,176.6 125.1,179.9 129.8,183.5 121.7,192.4 118.1,188.9 114,185.5 109.5,182.2 104.5,179 99.1,175.9 93.3,172.8 87,169.9 80.3,167 73.2,164 65.7,161.1 " />
<polygon points="129.8,183.5 131.7,187.6 130.2,192 126,193.9 121.7,192.4 " />
</g>
</svg>
