<svg xmlns="http://www.w3.org/2000/svg" xmlns:xlink="http://www.w3.org/1999/xlink" version="1.1" baseProfile="full" viewBox="0 0 200 200" width="200" height="200">
<g fill="black">
<polygon points="94.6,41.1 91.7,51.8 88.1,62.2 83.8,72.5 78.8,82.5 73.1,92.3 66.7,101.9 59.5,111.3 51.7,120.4 43,129.2 33.6,137.6 32.3,136.3 40.2,126.6 47.5,117 54.2,107.4 60.3,97.7 65.7,88.1 70.5,78.4 74.6,68.6 78,58.7 80.8,48.7 82.9,38.7 " />
<polygon points="82.9,38.7 94.6,41.1 83.3,36.9 " />
<polygon points="94.6,41.1 97.2,43.7 90.5,46.4 " />
<polygon points="80,65 156,65 156,69 80,69 " />
<polygon points="161.7,68.7 159.4,74.6 156.8,80.4 154,86.1 151,91.6 147.7,97 144.1,102.3 140.2,107.4 136,112.4 131.5,117.1 126.6,121.5 125.3,120.4 128.5,114.7 131.7,109.2 134.7,103.8 137.6,98.3 140.2,92.9 142.7,87.4 144.9,81.9 146.9,76.4 148.7,70.8 150.2,65.2 " />
<polygon points="150,65 156,60 167,69 162,73 156,73 " />
</g>
</svg>
