<svg xmlns="http://www.w3.org/2000/svg" xmlns:xlink="http://www.w3.org/1999/xlink" version="1.1" baseProfile="full" viewBox="0 0 200 200" width="200" height="200">
<g fill="black">
<polygon points="62.3,15.8 65.1,17.4 68.1,18.9 70.8,20.6 73.4,22.5 75.8,24.5 78.1,26.7 80.2,29.1 82.2,31.6 83.9,34.2 85.5,37 74.3,41.2 73.7,38.8 73,36.4 72.2,34 71.1,31.7 69.9,29.3 68.6,26.9 67.1,24.4 65.4,22 63.5,19.5 61.2,17.3 " />
<polygon points="85.5,37 85.3,41.6 82,44.8 77.4,44.5 74.3,41.2 " />
<polygon points="143.7,19.8 141.5,22.7 139.3,25.7 136.9,28.7 134.4,31.6 131.8,34.5 129.1,37.4 126.2,40.2 123.1,43 119.9,45.7 116.6,48.5 115.3,47.4 117.5,43.8 119.5,40.1 121.5,36.6 123.5,33.2 125.4,29.8 127.1,26.5 128.8,23.3 130.4,20.1 131.9,17 133.2,13.9 " />
<polygon points="133.2,13.9 143.7,19.8 133.8,12.9 " />
<polygon points="143.7,19.8 145.3,23 138.1,23.5 " />
<polygon points="32,46 173,46 173,50 32,50 " />
<polygon points="173,46 149,48 161,36 " />
<polygon points="41,71 163,71 163,75 41,75 " />
<polygon points="163,71 139,73 151,61 " />
<polygon points="23,100 181,100 181,104 23,104 " />
<polygon points="181,100 157,102 169,90 " />
<polygon points="108.2,46.9 99.9,102.8 88,101.1 96.3,45.1 " />
<polygon points="99.7,103.7 94.7,117.5 88.8,130.2 82,141.7 74.4,152.1 66,161.4 56.8,169.4 46.8,176.2 36,181.8 24.4,186 12.2,188.8 11.7,187.1 23.1,182.4 33.5,177 43.1,170.7 51.9,163.6 59.9,155.5 67.1,146.5 73.5,136.5 79.1,125.4 84,113.4 88.2,100.2 " />
</g>
</svg>
