<svg xmlns="http://www.w3.org/2000/svg" xmlns:xlink="http://www.w3.org/1999/xlink" version="1.1" baseProfile="full" viewBox="0 0 200 200" width="200" height="200">
<g fill="black">
<polygon points="61.3,14.8 64.5,16.8 67.7,18.7 70.7,20.7 73.4,22.8 75.8,25.1 78.1,27.6 80,30.2 81.7,33 83.2,35.9 84.3,38.9 72.5,41.1 72.4,39 72.1,36.7 71.5,34.4 70.7,32.1 69.7,29.6 68.4,27 66.8,24.4 64.9,21.7 62.8,18.9 60.2,16.3 " />
<polygon points="84.3,38.9 83.3,43.4 79.5,45.9 75,44.9 72.5,41.1 " />
<polygon points="143.5,20 141.2,22.9 138.8,25.8 136.3,28.7 133.7,31.5 131,34.4 128.1,37.1 125.2,39.8 122.1,42.5 118.8,45 115.6,47.6 114.3,46.3 116.6,42.9 118.6,39.4 120.7,36 122.7,32.7 124.7,29.5 126.6,26.2 128.4,23 130.1,19.9 131.8,16.7 133.3,13.6 " />
<polygon points="132.8,14.5 143.5,20 133.9,12.8 " />
<polygon points="143.5,20 145,23.3 139.2,23.2 " />
<polygon points="28,45 169,45 169,49 28,49 " />
<polygon points="169,45 145,47 157,35 " />
<polygon points="106,48 106,108 94,108 94,48 " />
<polygon points="47,75 159,75 159,79 47,79 " />
<polygon points="159,75 135,77 147,65 " />
<polygon points="22,104 178,104 178,108 22,108 " />
<polygon points="178,104 154,106 166,94 " />
<polygon points="80,111.3 75,121.3 69.7,130.8 64.2,139.8 58.3,148.2 52.2,156 45.9,163.2 39.2,169.9 32.3,175.9 25,181.2 17.5,185.7 16.4,184.2 22.6,178.2 28.6,171.9 34.5,165.3 40.1,158.3 45.5,150.9 50.6,143 55.6,134.6 60.3,125.7 64.8,116.3 69.1,106.4 " />
<polygon points="68.7,107.4 80,111.3 69.6,105.2 " />
<polygon points="80,111.3 82,114.3 76.2,115.1 " />
</g>
</svg>
