<svg xmlns="http://www.w3.org/2000/svg" xmlns:xlink="http://www.w3.org/1999/xlink" version="1.1" baseProfile="full" viewBox="0 0 200 200" width="200" height="200">
<g fill="black">
<polygon points="51,36 51,100 39,106 39,30 " />
<polygon points="45,36 156,36 156,40 45,40 " />
<polygon points="162,38 162,94 150,100 150,38 " />
<polygon points="150,36 156,31 167,40 162,44 150,38 " />
<polygon points="45,60 156,60 156,64 45,64 " />
<polygon points="45,84 156,84 156,88 45,88 " />
<polygon points="107,17 107,108 95,114 95,15 " />
<polygon points="107,17 110,19 107,21 " />
<polygon points="33.5,116.2 146.1,116.2 146.1,120.2 33.5,120.2 " />
<polygon points="151.3,121.3 143.7,132.1 134.8,142 124.6,150.9 113.1,158.9 100.4,165.9 86.5,172 71.3,177.1 54.9,181.3 37.2,184.4 18.4,186.5 18.1,184.7 36.5,180.7 53.5,176.1 69.2,170.9 83.5,165 96.4,158.4 108,151.1 118.2,143.2 127.1,134.5 134.6,125.2 140.9,115.2 " />
<polygon points="140.1,116.2 146.1,111.2 157.1,120.2 152.1,124.2 146.1,124.2 " />
<polygon points="60.1,118.2 68.1,127.6 76.6,136.1 85.8,143.8 95.8,150.6 106.6,156.5 118.3,161.6 130.9,165.9 144.4,169.3 158.8,171.9 174.2,173.6 172.9,186.7 156.7,184.2 141.6,180.8 127.4,176.4 114.3,171.1 102.2,164.8 91.1,157.5 81.2,149.3 72.4,140.2 64.8,130.1 58.6,119.1 " />
<polygon points="172.9,186.7 174.2,173.6 184.8,174.6 " />
</g>
</svg>
