<svg xmlns="http://www.w3.org/2000/svg" xmlns:xlink="http://www.w3.org/1999/xlink" version="1.1" baseProfile="full" viewBox="0 0 200 200" width="200" height="200">
<g fill="black">
<polygon points="23,28 175,28 175,32 23,32 " />
<polygon points="175,28 151,30 163,18 " />
<polygon points="86,28 86,101 74,101 74,28 " />
<polygon points="122,28 122,101 110,101 110,28 " />
<polygon points="15,97 186,97 186,101 15,101 " />
<polygon points="186,97 166,99 176,88 " />
<polygon points="49,46 49,83 37,89 37,44 " />
<polygon points="49,46 52,48 47,51 " />
<polygon points="43,72 80,72 80,76 43,76 " />
<polygon points="116,72 151,72 151,76 116,76 " />
<polygon points="157,46 157,80 145,86 145,44 " />
<polygon points="157,46 160,48 155,51 " />
<polygon points="58,115 58,181 46,187 46,109 " />
<polygon points="52,115 147,115 147,119 52,119 " />
<polygon points="153,117 153,178 141,184 141,117 " />
<polygon points="141,115 147,110 158,119 153,123 141,117 " />
<polygon points="52,141 147,141 147,145 52,145 " />
<polygon points="52,170 147,170 147,174 52,174 " />
</g>
</svg>
