<svg xmlns="http://www.w3.org/2000/svg" xmlns:xlink="http://www.w3.org/1999/xlink" version="1.1" baseProfile="full" viewBox="0 0 200 200" width="200" height="200">
<g fill="black">
<polygon points="15,70 87,70 87,74 15,74 " />
<polygon points="87,70 63,72 75,60 " />
<polygon points="56,24 56,142 44,142 44,22 " />
<polygon points="56,24 59,26 56,28 " />
<polygon points="13.9,149 19.8,147.2 26,145.4 32.5,143.4 39.3,141.3 46.5,139.1 54,136.8 61.8,134.4 70,131.9 78.6,129.5 87.6,127.1 88.3,128.8 80,133 71.9,137 64.1,140.6 56.6,143.9 49.4,147.1 42.5,150.1 35.9,152.9 29.6,155.5 23.6,158 17.9,160.3 " />
<polygon points="17.9,160.3 13.9,149 12,149.6 " />
<polygon points="17.9,160.3 20.7,162.5 22.5,155.5 " />
<polygon points="87.2,34.2 172.8,34.2 172.8,38.2 87.2,38.2 " />
<polygon points="178.8,36.1 178.8,58.7 178.6,79.2 178.2,97.7 177.5,114.2 176.6,128.8 175.4,141.4 174,152 172.3,160.8 170.2,167.8 167.5,173.3 157.5,166.6 159,163.6 160.6,158 162.1,150.1 163.5,140 164.6,127.9 165.5,113.6 166.2,97.3 166.6,79 166.8,58.6 166.8,36.2 " />
<polygon points="166.8,34.2 172.8,29.2 183.8,38.2 178.8,42.2 172.8,42.2 " />
<polygon points="167.5,173.3 163.6,175.8 159.2,175 156.7,171.1 157.5,166.6 " />
<polygon points="167.5,173.3 166,175.3 164.4,177.2 162.6,178.8 160.7,180.3 158.6,181.5 156.5,182.5 154.2,183.3 151.8,183.9 149.4,184.2 146.9,184.3 146.9,172.3 148.4,172.2 149.7,172.1 150.9,171.8 152,171.4 153,170.9 154,170.3 154.9,169.6 155.8,168.8 156.7,167.8 157.5,166.6 " />
<polygon points="146.9,178.3 146.9,172.3 126.9,172.3 126.9,175.3 " />
<polygon points="129.8,36.2 129.8,36.2 128.7,61 126.7,83.7 123.7,104.3 119.7,122.9 114.7,139.4 108.7,153.9 101.7,166.2 93.6,176.3 84.5,184.1 74.5,189.4 73.7,187.8 82.1,181.1 89.5,172.8 96.1,162.8 101.8,150.8 106.7,136.8 110.7,120.8 113.8,102.7 116,82.6 117.4,60.4 117.7,36.2 " />
</g>
</svg>
