<svg xmlns="http://www.w3.org/2000/svg" xmlns:xlink="http://www.w3.org/1999/xlink" version="1.1" baseProfile="full" viewBox="0 0 200 200" width="200" height="200">
<g fill="black">
<polygon points="65.7,21.5 63.5,23.2 61.2,24.9 58.8,26.6 56.2,28.3 53.4,29.9 50.5,31.5 47.5,33.1 44.3,34.6 40.8,36.1 37.4,37.8 36.5,36.3 39.3,33.9 41.8,31.2 44.2,28.7 46.5,26.3 48.6,23.9 50.6,21.7 52.4,19.5 54.1,17.4 55.5,15.4 56.9,13.4 " />
<polygon points="56.9,13.4 65.7,21.5 57.2,13 " />
<polygon points="65.7,21.5 66.6,25 59.4,23.9 " />
<polygon points="38.2,36.7 41.4,37.9 44.6,38.8 47.6,39.9 50.5,41.2 53.3,42.6 55.9,44.1 58.4,45.7 60.8,47.5 63,49.4 65.1,51.4 55.3,58.4 54.3,56.5 53.2,54.5 51.9,52.5 50.4,50.5 48.7,48.5 46.8,46.5 44.8,44.4 42.5,42.3 40.2,40.1 37.5,38.3 " />
<polygon points="65.1,51.4 66.1,55.9 63.7,59.8 59.2,60.8 55.3,58.4 " />
<polygon points="112.7,21.5 110.5,23.2 108.2,24.9 105.8,26.6 103.2,28.3 100.4,29.9 97.5,31.5 94.5,33.1 91.3,34.6 87.8,36.1 84.4,37.8 83.5,36.3 86.3,33.9 88.8,31.2 91.2,28.7 93.5,26.3 95.6,23.9 97.6,21.7 99.4,19.5 101.1,17.4 102.5,15.4 103.9,13.4 " />
<polygon points="103.9,13.4 112.7,21.5 104.2,13 " />
<polygon points="112.7,21.5 113.6,25 106.4,23.9 " />
<polygon points="85.2,36.7 88.4,37.9 91.6,38.8 94.6,39.9 97.5,41.2 100.3,42.6 102.9,44.1 105.4,45.7 107.8,47.5 110,49.4 112.1,51.4 102.3,58.4 101.3,56.5 100.2,54.5 98.9,52.5 97.4,50.5 95.7,48.5 93.8,46.5 91.8,44.4 89.5,42.3 87.2,40.1 84.5,38.3 " />
<polygon points="112.1,51.4 113.1,55.9 110.7,59.8 106.2,60.8 102.3,58.4 " />
<polygon points="159.7,21.5 157.5,23.2 155.2,24.9 152.8,26.6 150.2,28.3 147.4,29.9 144.5,31.5 141.5,33.1 138.3,34.6 134.8,36.1 131.4,37.8 130.5,36.3 133.3,33.9 135.8,31.2 138.2,28.7 140.5,26.3 142.6,23.9 144.6,21.7 146.4,19.5 148.1,17.4 149.5,15.4 150.9,13.4 " />
<polygon points="150.9,13.4 159.7,21.5 151.2,13 " />
<polygon points="159.7,21.5 160.6,25 153.4,23.9 " />
<polygon points="132.2,36.7 135.4,37.9 138.6,38.8 141.6,39.9 144.5,41.2 147.3,42.6 149.9,44.1 152.4,45.7 154.8,47.5 157,49.4 159.1,51.4 149.3,58.4 148.3,56.5 147.2,54.5 145.9,52.5 144.4,50.5 142.7,48.5 140.8,46.5 138.8,44.4 136.5,42.3 134.2,40.1 131.5,38.3 " />
<polygon points="159.1,51.4 160.1,55.9 157.7,59.8 153.2,60.8 149.3,58.4 " />
<polygon points="82.9,72 79,72.3 75,72.5 71,72.8 66.8,73 62.6,73.3 58.3,73.5 53.9,73.7 49.4,73.8 44.8,73.8 40.1,73.8 39.8,72.1 44.2,70.5 48.6,69 52.9,67.6 57.1,66.4 61.3,65.2 65.4,64.1 69.4,63.1 73.4,62.1 77.3,61.1 81.1,60.2 " />
<polygon points="81.1,60.2 82.9,72 92.5,70.6 " />
<polygon points="92.5,70.6 92.9,73.6 84.2,68.8 " />
<polygon points="46,71 46,126 34,132 34,65 " />
<polygon points="40,93 85,93 85,97 40,97 " />
<polygon points="85,93 65,95 75,84 " />
<polygon points="40,119 88,119 88,123 40,123 " />
<polygon points="88,119 68,121 78,110 " />
<polygon points="111,71 160,71 160,75 111,75 " />
<polygon points="166,73 166,125 154,131 154,73 " />
<polygon points="154,71 160,66 171,75 166,79 154,73 " />
<polygon points="115,93 160,93 160,97 115,97 " />
<polygon points="111,119 160,119 160,123 111,123 " />
<polygon points="16,139 184,139 184,143 16,143 " />
<polygon points="184,139 160,141 172,129 " />
<polygon points="106,68 106,183 94,189 94,66 " />
<polygon points="106,68 109,70 106,72 " />
<polygon points="104,141 99.2,145.2 92.8,150.7 85.9,155.9 78.5,160.8 70.6,165.4 62.2,169.7 53.2,173.7 43.8,177.3 33.8,180.6 23.3,183.4 12.2,185.8 11.7,184.1 22.1,179.8 31.9,175.6 41.3,171.2 50,166.8 58.2,162.2 65.8,157.4 72.9,152.5 79.4,147.4 85.3,142.1 86.3,141 " />
<polygon points="106.3,141 112.6,145 119,148.9 125.6,152.7 132.3,156.3 139.3,159.8 146.6,163 154.2,166 162.1,168.7 170.3,171.3 178.8,173.6 175.1,186.3 166.3,183.2 157.9,179.8 149.9,176.1 142.2,172.2 134.9,168 128,163.5 121.5,158.7 115.5,153.6 110,148.2 105.1,142.3 " />
<polygon points="175.1,186.3 178.8,173.6 186.7,176 " />
</g>
</svg>
