<svg xmlns="http://www.w3.org/2000/svg" xmlns:xlink="http://www.w3.org/1999/xlink" version="1.1" baseProfile="full" viewBox="0 0 200 200" width="200" height="200">
<g fill="black">
<polygon points="83,20 83,155 71,161 71,18 " />
<polygon points="83,20 86,22 83,24 " />
<polygon points="21,72 77,72 77,76 21,76 " />
<polygon points="13.9,175 21.7,172.5 29.7,170 37.8,167.4 46.2,164.8 54.7,162.1 63.5,159.4 72.4,156.8 81.6,154.1 91,151.5 100.6,149.1 101.3,150.8 92.3,155.1 83.4,159.1 74.7,162.9 66.1,166.6 57.6,170.1 49.3,173.5 41.2,176.8 33.3,180.1 25.5,183.2 17.9,186.3 " />
<polygon points="17.9,186.3 13.9,175 12,175.6 " />
<polygon points="17.9,186.3 20.8,188.4 22.6,181.4 " />
<polygon points="175.5,64.8 171.1,66.5 166.4,68.3 161.5,70.3 156.3,72.4 150.8,74.6 145.1,76.9 139.2,79.4 132.9,81.8 126.3,84.3 119.4,86.8 118.5,85.1 124.6,80.9 130.5,77.1 136.2,73.5 141.8,70.1 147.1,67 152.2,64 157.1,61.3 161.8,58.6 166.3,56.2 170.6,53.9 " />
<polygon points="170.6,53.9 175.5,64.8 179.3,63.1 " />
<polygon points="179.3,63.1 179.4,66.3 171.8,63.2 " />
<polygon points="125,21 125,164 113,164 113,19 " />
<polygon points="125,21 128,23 125,25 " />
<polygon points="125,164 122.6,167.6 119,170 115.4,167.6 113,164 " />
<polygon points="125,164 125,165.2 125.2,166.1 125.4,166.7 125.5,167 125.7,167.2 125.9,167.4 126.2,167.5 126.8,167.7 127.7,167.9 129,168 129,180 126.4,179.8 123.9,179.4 121.5,178.6 119.2,177.3 117.2,175.7 115.6,173.7 114.3,171.4 113.5,169 113.1,166.5 113,164 " />
<polygon points="129,168 133.2,169.8 135,174 133.2,178.2 129,180 " />
<polygon points="129,168 177,168 177,180 129,180 " />
<polygon points="177,168 180.6,170.4 183,174 180.6,177.6 177,180 " />
<polygon points="171,169 177,143 179,143 177,169 " />
</g>
</svg>
