<svg xmlns="http://www.w3.org/2000/svg" xmlns:xlink="http://www.w3.org/1999/xlink" version="1.1" baseProfile="full" viewBox="0 0 200 200" width="200" height="200">
<g fill="black">
<polygon points="62,95 62,135 50,135 50,93 " />
<polygon points="62,95 65,97 62,99 " />
<polygon points="62,135 59.6,138.6 56,141 52.4,138.6 50,135 " />
<polygon points="61.9,135.3 60.9,143 59.4,150.3 57.3,157.1 54.6,163.5 51.4,169.2 47.7,174.5 43.4,179.1 38.5,183 33.2,186.3 27.4,188.7 26.5,187.2 31,183.2 35,179 38.4,174.7 41.4,170.1 44,165.2 46.1,159.9 47.7,154.2 48.9,148.1 49.7,141.6 50,134.6 " />
<polygon points="148,95 148,180 136,186 136,93 " />
<polygon points="148,95 151,97 148,99 " />
<polygon points="102,131 185,131 185,135 102,135 " />
<polygon points="185,131 161,133 173,121 " />
<polygon points="15,131 96,131 96,135 15,135 " />
<polygon points="96,131 72,133 84,121 " />
</g>
</svg>
