<svg xmlns="http://www.w3.org/2000/svg" xmlns:xlink="http://www.w3.org/1999/xlink" version="1.1" baseProfile="full" viewBox="0 0 200 200" width="200" height="200">
<g fill="black">
<polygon points="74.5,18.5 70.9,29.4 66.9,40 62.5,50.5 57.5,60.7 52.1,70.7 46.3,80.4 39.9,89.9 33.1,99.1 25.6,108 17.6,116.5 16.3,115.4 22.6,105.7 28.7,96.1 34.4,86.4 39.7,76.6 44.6,66.7 49.1,56.7 53.2,46.6 56.9,36.3 60.1,25.9 62.9,15.3 " />
<polygon points="62.9,15.3 74.5,18.5 63.4,13.7 " />
<polygon points="74.5,18.5 76.8,21.2 70,23.5 " />
<polygon points="54,52 173,52 173,56 54,56 " />
<polygon points="178.9,54.1 178.2,73.1 177.2,90.5 175.9,106.5 174.4,120.9 172.6,133.9 170.5,145.4 168.1,155.5 165.4,164.1 162.3,171.4 158.7,177.4 149,170.3 151.6,166.1 154.1,160 156.5,152.3 158.8,142.9 160.8,132 162.5,119.5 164,105.4 165.2,89.7 166.2,72.5 167,53.8 " />
<polygon points="167,52 173,47 184,56 179,60 173,60 " />
<polygon points="158.7,177.4 154.8,179.8 150.3,178.7 148,174.8 149,170.3 " />
<polygon points="158.7,177.4 157.2,179.4 155.5,181.1 153.7,182.7 151.7,184.1 149.6,185.3 147.5,186.3 145.2,187 142.8,187.5 140.4,187.8 138,188 138,176 139.4,175.9 140.7,175.7 142,175.4 143.1,175.1 144.2,174.6 145.2,174 146.2,173.3 147.2,172.5 148.1,171.5 149,170.3 " />
<polygon points="138,182 138,176 118,176 118,179 " />
<polygon points="101,54 100.8,55.1 97.5,68.7 93.4,81.8 88.5,94.3 82.8,106.2 76.4,117.6 69.2,128.3 61.2,138.4 52.5,147.9 42.9,156.7 32.5,164.6 31.4,163.3 40.3,153.9 48.5,144.3 56,134.4 62.9,124.1 69,113.3 74.4,102.2 79.2,90.5 83.2,78.5 86.5,65.9 88.8,54 " />
<polygon points="137.9,54 137.9,54.5 135.3,72.4 131.6,89.3 126.8,105.2 121.1,120.2 114.2,134.1 106.4,147.1 97.5,158.9 87.5,169.7 76.5,179.3 64.5,187.7 63.4,186.2 74,176.5 83.6,166 92.2,154.9 99.9,143 106.7,130.3 112.4,116.7 117.3,102.2 121.1,86.8 124,70.6 125.9,54 " />
<polygon points="59.2,54.5 69.4,71.6 79.9,87.2 90.8,101.2 102.1,113.5 113.9,124.2 126.1,133.2 138.8,140.6 152,146.4 165.7,150.7 180,153.4 177.9,166.5 162.4,162.8 147.6,157.4 133.5,150.3 120.2,141.6 107.7,131.2 96,119.2 85.1,105.6 75,90.5 65.8,73.7 57.6,55.2 " />
<polygon points="177.9,166.5 180,153.4 189.8,155 " />
</g>
</svg>
