<svg xmlns="http://www.w3.org/2000/svg" xmlns:xlink="http://www.w3.org/1999/xlink" version="1.1" baseProfile="full" viewBox="0 0 200 200" width="200" height="200">
<g fill="black">
<polygon points="40,28 150,28 150,32 40,32 " />
<polygon points="153.6,34.7 144.2,40.9 134.1,46.6 123.2,51.8 111.5,56.5 99.1,60.7 85.9,64.4 71.8,67.7 57,70.3 41.5,72.4 25.1,73.8 24.8,72.1 40.8,68.7 56,65.1 70.3,61.3 83.7,57.1 96.3,52.7 108,47.9 118.9,42.7 128.9,37.2 138,31.4 146.3,25.2 " />
<polygon points="144,28 150,23 161,32 156,35 144,40 " />
<polygon points="83.3,60.9 98.6,74.2 109.4,88.5 116.6,103 120.7,117.1 122.3,130.6 121.8,143.1 119.7,154.3 116.8,163.9 113.3,171.8 109.8,177.6 100.2,170.4 103.2,166.2 106.5,159.7 109.5,151.5 111.8,141.7 112.8,130.7 112.1,118.6 109.2,105.6 103.5,91.9 94.5,77.6 82.1,62.3 " />
<polygon points="109.8,177.6 105.8,179.9 101.4,178.8 99.1,174.8 100.2,170.4 " />
<polygon points="109.8,177.6 108.2,179.5 106.5,181.3 104.7,182.8 102.7,184.2 100.6,185.3 98.4,186.3 96.2,187 93.8,187.5 91.4,187.8 89,188 89,176 90.4,175.9 91.8,175.7 93,175.4 94.2,175.1 95.3,174.6 96.4,174 97.4,173.3 98.3,172.5 99.3,171.5 100.2,170.4 " />
<polygon points="89,182 89,176 69,176 69,179 " />
<polygon points="105.1,87.3 98.4,93 91.3,98.5 83.6,103.7 75.5,108.8 66.9,113.6 57.7,118.2 48.2,122.6 38.1,126.7 27.4,130.4 16.3,133.8 15.6,132.1 26,126.9 35.8,121.8 45.2,116.7 54.2,111.5 62.5,106.3 70.4,101 77.8,95.5 84.6,90 91,84.4 96.8,78.6 " />
<polygon points="119.6,113.8 111.8,122.1 103.4,129.8 94.5,137.1 85,144 75,150.3 64.4,156.1 53.2,161.4 41.5,166.2 29.1,170.3 16.2,173.8 15.7,172.1 27.8,166.8 39.3,161.2 50.3,155.5 60.7,149.5 70.4,143.1 79.6,136.4 88.2,129.4 96.1,122 103.5,114.2 110.3,106.1 " />
<polygon points="168.2,65.3 164.8,69.2 161.3,73.1 157.5,77.2 153.5,81.4 149.2,85.7 144.7,90.1 139.9,94.7 134.9,99.3 129.4,103.9 123.6,108.6 122.3,107.3 126.7,101.3 130.9,95.6 135.1,90.2 139.1,85.1 142.9,80.1 146.4,75.3 149.8,70.8 152.9,66.4 155.9,62.2 158.6,58.2 " />
<polygon points="158,58.9 168.2,65.3 159,57.5 " />
<polygon points="168.2,65.3 169.4,68.8 163.6,68.2 " />
<polygon points="107.2,83.3 115.1,92.9 122.8,102 130.4,110.6 137.9,118.6 145.4,125.9 153,132.6 160.5,138.7 168,144.2 175.6,149 183.2,153.2 176.7,164.7 168.8,159.5 161,153.6 153.4,147.2 146,140.1 138.7,132.4 131.7,124.1 124.8,115.2 118.1,105.6 111.7,95.3 105.7,84.3 " />
<polygon points="176.7,164.7 183.2,153.2 187.9,155.9 " />
</g>
</svg>
