<svg xmlns="http://www.w3.org/2000/svg" xmlns:xlink="http://www.w3.org/1999/xlink" version="1.1" baseProfile="full" viewBox="0 0 200 200" width="200" height="200">
<g fill="black">
<path d="M 20.2 189.8 L 19.7 188.1 L 27.5 185.1 L 35.1 182.2 L 42.4 179.3 L 49.5 176.5 L 56.3 173.6 L 62.8 170.6 L 69 167.6 L 75 164.6 L 80.7 161.4 L 86.2 158.2 L 87.9 161.3 L 94.2 167.5 L 94.3 170.8 L 90.7 169.3 L 85.9 171.6 L 79.6 174.3 L 73 176.9 L 66.2 179.3 L 59.2 181.6 L 51.9 183.7 L 44.4 185.6 L 36.6 187.3 L 28.5 188.7 Z M 172.4 189 L 167.9 187.9 L 164.5 185.1 L 160.8 182.5 L 156.6 179.9 L 151.9 177.4 L 146.9 175 L 141.5 172.7 L 135.6 170.5 L 129.4 168.4 L 122.8 166.2 L 115.8 164 L 116.1 162.2 L 123.5 162.5 L 130.6 163.2 L 137.3 164.2 L 143.7 165.5 L 149.8 167 L 155.5 168.8 L 160.9 170.9 L 166 173.1 L 170.8 175.6 L 175.2 178.4 L 177.4 182.3 L 176.3 186.8 Z M 25 156 L 25 79 L 37 81 L 40 83 L 37 84.8 L 37 152 L 63 152 L 63 72 L 75 78 L 143 78 L 149 73 L 160 82 L 155 86 L 155 152 L 165 152 L 175 142 L 187 152 L 187 156 Z M 75 152 L 143 152 L 143 131 L 75 131 Z M 75 127 L 143 127 L 143 107 L 75 107 Z M 75 103 L 143 103 L 143 82 L 75 82 Z M 55.6 62 L 53.3 61.8 L 51 61.3 L 48.9 60.3 L 46.9 59 L 45.2 57.2 L 43.9 55.2 L 42.9 52.9 L 42.3 50.5 L 42 48 L 42 16 L 54 18 L 57 20 L 54 21.8 L 54 33 L 139 33 L 149 23 L 161 33 L 161 37 L 54 37 L 54 48 L 53.8 49.2 L 53.8 50.9 L 53.9 51.5 L 54 51.9 L 54.2 52.4 L 54.7 52.8 L 55.4 53.3 L 56.5 53.7 L 58 54 L 166.4 54 L 170 45 L 172 45 L 170.2 54.1 L 172.4 55.6 L 174 58 L 172.4 60.4 L 170 62 Z " />
</g>
</svg>
