<svg xmlns="http://www.w3.org/2000/svg" xmlns:xlink="http://www.w3.org/1999/xlink" version="1.1" baseProfile="full" viewBox="0 0 200 200" width="200" height="200">
<g fill="black">
<polygon points="106,15 106,47 94,47 94,13 " />
<polygon points="106,15 109,17 104,20 " />
<polygon points="31.9,33.3 32.7,39.6 33.2,45.5 33.3,51.1 33,56.2 32.2,61 31.1,65.5 29.5,69.7 27.5,73.4 24.9,76.8 21.8,79.7 15.1,69.8 17.1,68.6 19.1,67 21,64.8 22.8,62 24.4,58.7 25.9,54.7 27.2,50.2 28.3,45.2 29.4,39.6 30.1,33.4 " />
<polygon points="21.8,79.7 17.3,80.6 13.5,78.1 12.6,73.6 15.1,69.8 " />
<polygon points="32,43.9 176,43.9 176,47.9 32,47.9 " />
<polygon points="181.2,48.8 179.5,50.9 177.7,53.2 175.7,55.6 173.5,58.1 171.2,60.7 168.6,63.4 165.9,66.2 163,69.1 159.8,72 156.7,75.2 155.2,74.1 157.5,70.2 159.5,66.4 161.3,62.8 163.1,59.4 164.7,56.2 166.2,53.2 167.6,50.4 168.8,47.7 169.8,45.2 170.7,42.9 " />
<polygon points="170,43.9 176,38.9 187,47.9 182,50.9 170,55.9 " />
<polygon points="146.3,79.9 136.6,81 126.8,82.1 117,83 107,83.8 96.8,84.4 86.6,85 76.3,85.3 65.9,85.5 55.3,85.4 44.6,85 44.5,83.2 55.1,81.6 65.5,80.2 75.8,78.8 85.9,77.4 96,76 105.9,74.5 115.7,73 125.4,71.4 135,69.8 144.4,68 " />
<polygon points="143.5,68.2 146.3,79.9 155.8,78.4 " />
<polygon points="155.8,78.4 156.2,81.4 148.7,77.5 " />
<polygon points="47,109.1 150.3,109.1 150.3,113.1 47,113.1 " />
<polygon points="150.3,109.1 126.3,111.1 138.3,99.1 " />
<polygon points="35.9,139.4 164.6,139.4 164.6,143.4 35.9,143.4 " />
<polygon points="164.6,139.4 140.6,141.4 152.6,129.4 " />
<polygon points="106.2,58.9 106.2,175 94.2,181 94.2,56.9 " />
<polygon points="106.2,58.9 109.2,60.9 104.2,63.9 " />
</g>
</svg>
