<svg xmlns="http://www.w3.org/2000/svg" xmlns:xlink="http://www.w3.org/1999/xlink" version="1.1" baseProfile="full" viewBox="0 0 200 200" width="200" height="200">
<g fill="black">
<path d="M 70.0 176.7 L 90.0 176.7 L 91.2 176.6 L 92.1 176.5 L 92.7 176.3 L 93.0 176.1 L 93.2 175.9 L 93.4 175.8 L 93.5 175.4 L 93.7 174.8 L 93.9 173.9 L 94.0 172.7 L 94.0 89.3 L 16.0 89.3 L 16.0 85.3 L 94.0 85.3 L 94.0 51.7 L 24.0 51.7 L 24.0 47.7 L 116.23333330154419 47.7 L 118.7 44.0 L 122.0 39.2 L 125.1 34.8 L 128.0 30.7 L 130.7 26.9 L 133.2 23.4 L 135.4 20.2 L 137.4 17.2 L 139.1 14.6 L 140.11520738601683 13.077188968658447 L 140.0 13.0 L 141.1 11.7 L 150.0 19.7 L 151.1 23.2 L 147.0255570411682 22.638007831573486 L 145.5 24.1 L 142.9 26.6 L 140.0 29.3 L 136.9 32.3 L 133.5 35.5 L 129.8 38.9 L 125.7 42.6 L 121.3 46.3 L 119.65500001907348 47.7 L 154.0 47.7 L 164.0 37.7 L 176.0 47.7 L 176.0 51.7 L 106.0 51.7 L 106.0 85.3 L 162.0 85.3 L 172.0 75.3 L 184.0 85.3 L 184.0 89.3 L 106.0 89.3 L 106.0 90.8 L 109.1 102.3 L 113.0 112.9 L 117.8 122.5 L 123.5 131.4 L 128.57068967819214 137.36551723480224 L 130.7 135.4 L 135.8 131.0 L 140.7 126.9 L 145.4 122.9 L 149.7 119.2 L 153.8 115.6 L 157.6 112.3 L 161.1 109.0 L 164.3 106.0 L 167.4 102.9 L 175.1 112.1 L 175.6 115.7 L 171.95308523178102 114.5064642906189 L 171.7 114.7 L 167.9 117.4 L 163.8 120.2 L 159.4 123.1 L 154.8 126.0 L 149.8 129.1 L 144.5 132.2 L 138.9 135.4 L 132.9 138.6 L 130.60877733230592 139.69273700714112 L 138.0 146.7 L 146.9 153.2 L 156.8 159.1 L 167.9 164.3 L 180.1 168.7 L 187.3 171.2 L 175.8 181.2 L 162.8 175.7 L 151.0 169.4 L 140.5 162.2 L 131.2 154.3 L 123.2 145.5 L 116.6 136.0 L 111.3 125.7 L 107.4 114.8 L 106.0 108.03333330154419 L 106.0 172.7 L 105.8 175.2 L 105.4 177.7 L 104.6 180.1 L 103.3 182.4 L 101.7 184.4 L 99.7 186.1 L 97.4 187.3 L 95.0 188.1 L 92.5 188.5 L 90.0 188.7 L 90.0 182.7 L 70.0 179.7 Z M 84.0 117.0 L 79.0 120.0 L 77.07888631820678 120.80046405792237 L 75.3 125.3 L 71.1 133.4 L 66.3 141.1 L 60.8 148.2 L 54.5 154.9 L 47.6 161.0 L 40.1 166.6 L 31.8 171.6 L 22.9 176.0 L 13.3 179.8 L 12.6 178.1 L 21.1 172.7 L 28.9 167.1 L 36.1 161.3 L 42.6 155.3 L 48.4 149.0 L 53.4 142.5 L 57.9 135.6 L 61.6 128.5 L 64.7 121.0 L 65.98205127716065 117.0 L 18.0 117.0 L 18.0 113.0 L 67.0 113.0 L 73.0 108.0 Z M 68.2 39.0 L 67.2 36.5 L 65.8 33.9 L 64.1 31.2 L 62.0 28.5 L 59.6 25.6 L 56.9 22.6 L 53.8 19.5 L 50.3 16.5 L 51.3 15.0 L 55.5 17.1 L 59.6 19.1 L 63.3 21.2 L 66.7 23.5 L 69.8 25.9 L 72.6 28.4 L 75.1 31.1 L 77.4 33.9 L 79.2 36.9 L 80.8 40.0 L 80.3 44.6 L 76.8 47.5 L 72.3 47.0 L 69.3 43.5 L 68.9 41.3 Z " />
</g>
</svg>
