<svg xmlns="http://www.w3.org/2000/svg" xmlns:xlink="http://www.w3.org/1999/xlink" version="1.1" baseProfile="full" viewBox="0 0 200 200" width="200" height="200">
<g fill="black">
<polygon points="36,28 36,51 24,51 24,28 " />
<polygon points="30,28 50,28 50,32 30,32 " />
<polygon points="60,28 80,28 80,32 60,32 " />
<polygon points="90,28 110,28 110,32 90,32 " />
<polygon points="120,28 140,28 140,32 120,32 " />
<polygon points="150,28 170,28 170,32 150,32 " />
<polygon points="176,28 176,51 164,51 164,28 " />
<polygon points="36,59 36,81 24,81 24,59 " />
<polygon points="36,89 36,111 24,111 24,89 " />
<polygon points="36,119 36,141 24,141 24,119 " />
<polygon points="36,149 36,172 24,172 24,149 " />
<polygon points="30,168 50,168 50,172 30,172 " />
<polygon points="60,168 80,168 80,172 60,172 " />
<polygon points="90,168 110,168 110,172 90,172 " />
<polygon points="120,168 140,168 140,172 120,172 " />
<polygon points="176,149 176,172 164,172 164,149 " />
<polygon points="150,168 170,168 170,172 150,172 " />
<polygon points="176,59 176,81 164,81 164,59 " />
<polygon points="176,89 176,111 164,111 164,89 " />
<polygon points="176,119 176,141 164,141 164,119 " />
<polygon points="106,28 106,51 94,51 94,28 " />
<polygon points="106,59 106,81 94,81 94,59 " />
<polygon points="106,89 106,111 94,111 94,89 " />
<polygon points="106,119 106,141 94,141 94,119 " />
<polygon points="106,149 106,172 94,172 94,149 " />
</g>
</svg>
