<svg xmlns="http://www.w3.org/2000/svg" xmlns:xlink="http://www.w3.org/1999/xlink" version="1.1" baseProfile="full" viewBox="0 0 200 200" width="200" height="200">
<g fill="black">
<polygon points="106,15 106,47 94,47 94,13 " />
<polygon points="106,15 109,17 104,20 " />
<polygon points="31.9,33.3 32.7,39.6 33.2,45.5 33.3,51.1 33,56.2 32.2,61 31.1,65.5 29.5,69.7 27.5,73.4 24.9,76.8 21.8,79.7 15.1,69.8 17.1,68.6 19.1,67 21,64.8 22.8,62 24.4,58.7 25.9,54.7 27.2,50.2 28.3,45.2 29.4,39.6 30.1,33.4 " />
<polygon points="21.8,79.7 17.3,80.6 13.5,78.1 12.6,73.6 15.1,69.8 " />
<polygon points="32,43.9 176,43.9 176,47.9 32,47.9 " />
<polygon points="181.2,48.8 179.5,50.9 177.7,53.2 175.7,55.6 173.5,58.1 171.2,60.7 168.6,63.4 165.9,66.2 163,69.1 159.8,72 156.7,75.2 155.2,74.1 157.5,70.2 159.5,66.4 161.3,62.8 163.1,59.4 164.7,56.2 166.2,53.2 167.6,50.4 168.8,47.7 169.8,45.2 170.7,42.9 " />
<polygon points="170,43.9 176,38.9 187,47.9 182,50.9 170,55.9 " />
<polygon points="41.6,87.7 159.2,87.7 159.2,91.7 41.6,91.7 " />
<polygon points="159.2,87.7 135.2,89.7 147.2,77.7 " />
<polygon points="44.8,118.5 156,118.5 156,122.5 44.8,122.5 " />
<polygon points="156,118.5 132,120.5 144,108.5 " />
<polygon points="34.4,150.7 167.2,150.7 167.2,154.7 34.4,154.7 " />
<polygon points="167.2,150.7 143.2,152.7 155.2,140.7 " />
<polygon points="106,65.5 106,181.2 94,187.2 94,63.5 " />
<polygon points="106,65.5 109,67.5 104,70.5 " />
</g>
</svg>
