<svg xmlns="http://www.w3.org/2000/svg" xmlns:xlink="http://www.w3.org/1999/xlink" version="1.1" baseProfile="full" viewBox="0 0 200 200" width="200" height="200">
<g fill="black">
<polygon points="99,20.7 96.6,23 94.2,25.2 91.6,27.3 89,29.4 86.3,31.4 83.4,33.3 80.5,35.1 77.4,36.7 74.2,38.3 71.1,40 70,38.5 72.5,36.1 74.7,33.4 76.9,30.8 79,28.3 81,25.7 82.9,23.2 84.7,20.7 86.4,18.2 88.1,15.8 89.6,13.3 " />
<polygon points="90,12.7 99,20.7 89,14 " />
<polygon points="99,20.7 100.1,24.1 94.3,23.4 " />
<polygon points="47.2,37.2 47.2,116.9 35.2,122.9 35.2,31.2 " />
<polygon points="41.2,37.2 158.8,37.2 158.8,41.2 41.2,41.2 " />
<polygon points="164.8,39.2 164.8,114.3 152.8,120.3 152.8,39.2 " />
<polygon points="152.8,37.2 158.8,32.2 169.8,41.2 164.8,45.2 152.8,39.2 " />
<polygon points="132,53.6 123.7,54.8 115.6,55.9 107.5,56.9 99.6,57.8 91.7,58.7 84,59.4 76.3,60 68.8,60.5 61.3,60.7 53.9,60.6 53.6,58.8 60.8,56.9 68,55.1 75.4,53.5 82.9,51.9 90.4,50.3 98.1,48.7 105.9,47 113.8,45.3 121.7,43.6 129.8,41.8 " />
<polygon points="140.9,52 132,53.6 128.8,42 " />
<polygon points="140.9,52 141.3,55 133.9,51.3 " />
<polygon points="66,60.1 67.9,61 70.1,61.5 72.1,62.2 74.1,63 76,63.9 77.9,64.9 79.7,66 81.4,67.2 83.1,68.4 84.7,69.8 74.8,76.7 74.3,75.3 73.7,73.8 73,72.3 72.2,70.8 71.3,69.3 70.3,67.7 69.2,66.1 68.1,64.5 66.8,62.8 65.1,61.6 " />
<polygon points="84.7,69.8 85.6,74.3 83.2,78.2 78.7,79.1 74.8,76.7 " />
<polygon points="133.4,64.2 131.7,65.8 129.8,67.4 127.9,69 125.9,70.6 123.8,72.3 121.7,73.9 119.4,75.6 117.1,77.2 114.6,78.9 112.4,80.8 111,79.6 112.8,77.2 114.2,74.6 115.5,72.1 116.9,69.7 118.2,67.4 119.5,65.1 120.7,63 121.9,60.8 123,58.8 124,56.8 " />
<polygon points="124.5,56.2 133.4,64.2 123.4,57.6 " />
<polygon points="133.4,64.2 134.6,67.6 128.8,66.9 " />
<polygon points="53.8,78.2 146.2,78.2 146.2,82.2 53.8,82.2 " />
<polygon points="146.2,78.2 122.2,80.2 134.2,68.2 " />
<polygon points="106,53.9 106,110.5 94,116.5 94,53.9 " />
<polygon points="103,80.2 99.5,84 95.7,88 91.7,91.9 87.6,95.6 83.3,99.2 78.8,102.6 74.1,105.9 69.2,109 64.2,111.9 58.9,114.5 53.4,116.8 52.4,115.3 56.8,111.3 61.1,107.5 65.3,103.7 69.4,100 73.3,96.2 77,92.3 80.6,88.4 84,84.5 87.2,80.5 87.3,80.2 " />
<polygon points="102.9,84.9 106.7,85.8 110.5,86.8 114.2,88 117.9,89.5 121.5,91.2 125.1,93 128.6,95 132,97.1 135.4,99.4 138.7,101.9 130.6,110.8 128.1,108 125.5,105.3 122.8,102.8 120,100.3 117.2,97.8 114.3,95.5 111.4,93.2 108.4,90.9 105.4,88.6 102.2,86.5 " />
<polygon points="138.7,101.9 140.6,106.1 139.1,110.4 135,112.3 130.6,110.8 " />
<polygon points="19.8,124.6 182.1,124.6 182.1,128.6 19.8,128.6 " />
<polygon points="182.1,124.6 158.1,126.6 170.1,114.6 " />
<polygon points="77.6,126.6 68.4,153.6 55.1,155.4 64.9,126.6 " />
<polygon points="64.3,144.9 142.5,144.9 142.5,148.9 64.3,148.9 " />
<polygon points="148.5,147.1 148.1,153.3 147.4,159.1 146.2,164.3 144.6,169.1 142.6,173.5 140,177.4 136.9,180.7 133.2,183.4 129.1,185.3 124.7,186.6 122.6,174.7 125,174.1 127,173.1 128.9,171.8 130.5,170 132.1,167.7 133.5,164.7 134.6,161.2 135.5,157 136.2,152.2 136.5,146.7 " />
<polygon points="136.5,144.9 142.5,139.9 153.5,148.9 148.5,151.9 136.5,156.9 " />
<polygon points="124.7,186.6 120.3,185.5 117.8,181.7 118.8,177.3 122.6,174.7 " />
<polygon points="124.7,186.6 122.7,186.9 120.6,187.2 118.5,187.5 116.4,187.8 114.3,188 112.2,188.1 110.1,188.3 108,188.4 105.9,188.4 103.8,188.5 103.8,176.5 105.7,176.4 107.6,176.4 109.5,176.3 111.4,176.2 113.2,176 115.1,175.8 117,175.6 118.8,175.4 120.7,175.1 122.6,174.7 " />
<polygon points="83.8,179.5 83.8,176.5 103.8,176.5 103.8,182.5 " />
</g>
</svg>
