<svg xmlns="http://www.w3.org/2000/svg" xmlns:xlink="http://www.w3.org/1999/xlink" version="1.1" baseProfile="full" viewBox="0 0 200 200" width="200" height="200">
<g fill="black">
<path d="M 32.8 100.8 L 32.8 102.2 L 32.5 105.4 L 31.7 108.4 L 30.4 111.3 L 28.7 113.9 L 26.5 116.4 L 23.8 118.5 L 20.9 120.3 L 16.3 120.1 L 13.1 116.8 L 13.4 112.2 L 16.7 109.1 L 18.7 108.6 L 20.5 108.0 L 22.1 107.2 L 23.7 106.2 L 25.2 104.8 L 26.5 103.1 L 27.8 101.0 L 28.9 98.5 L 29.8 95.6 L 30.1 92.3 L 31.9 92.2 L 32.3 95.7 L 32.46666669845581 96.8 L 170.0 96.8 L 170.65853662490844 96.25121955871582 L 170.9 95.9 L 171.7 94.5 L 172.1818181991577 94.98181819915771 L 176.0 91.8 L 187.0 100.8 L 182.0 103.8 L 170.0 108.8 L 170.0 108.75600004196167 L 167.8 109.9 L 165.2 111.2 L 162.4 112.5 L 159.4 113.8 L 156.5 115.5 L 155.4 114.0 L 158.0 111.8 L 160.1 109.3 L 162.1 107.0 L 163.9 104.9 L 165.6 102.9 L 167.2 100.9 L 167.28235292434692 100.8 L 128.0 100.8 L 128.0 166.7 L 128.2 167.6 L 128.5 168.5 L 128.7 168.7 L 128.9 168.8 L 129.2 169.0 L 129.8 169.2 L 130.7 169.4 L 169.0 169.4 L 175.0 144.4 L 177.0 144.4 L 175.0 169.4 L 178.6 171.8 L 181.0 175.4 L 178.6 179.0 L 175.0 181.4 L 132.0 181.4 L 129.4 181.3 L 126.9 180.8 L 124.5 180.0 L 122.2 178.8 L 120.2 177.2 L 118.6 175.1 L 117.3 172.9 L 116.5 170.5 L 116.1 168.0 L 116.0 165.4 L 116.0 100.8 L 78.0 100.8 L 78.0 136.2 L 77.1 143.2 L 75.0 149.7 L 71.9 155.7 L 67.7 161.2 L 62.6 166.0 L 56.5 170.3 L 49.5 174.0 L 41.7 177.2 L 32.9 179.8 L 23.2 181.7 L 22.7 180.0 L 31.6 176.2 L 39.5 172.3 L 46.4 168.2 L 52.1 164.1 L 56.8 159.7 L 60.5 155.3 L 63.2 150.8 L 64.9 146.1 L 65.8 141.3 L 66.0 136.2 L 66.0 100.8 Z M 146.4 83.7 L 144.3 84.4 L 142.1 85.1 L 139.9 85.6 L 137.7 86.0 L 135.5 86.3 L 133.2 86.5 L 130.9 86.5 L 130.9 80.5 L 110.9 77.5 L 110.9 74.5 L 132.6 74.5 L 134.3 74.3 L 135.9 74.1 L 139.1 73.5 L 140.6 73.0 L 142.2 72.5 L 143.7 71.9 L 145.2 71.1 L 146.7 70.4 L 147.7 69.6 L 148.9 68.1 L 150.2 65.7 L 151.5 62.4 L 152.6 58.2 L 153.6 53.1 L 154.4 47.3 L 155.0 40.6 L 155.3 33.1 L 155.37560977935792 26.9 L 98.68249998092651 26.9 L 96.0 34.3 L 92.2 41.9 L 87.4 49.0 L 81.6 55.7 L 75.0 61.9 L 67.5 67.7 L 59.1 73.0 L 49.8 77.9 L 39.5 82.3 L 28.4 86.1 L 27.7 84.4 L 37.9 78.9 L 47.1 73.2 L 55.5 67.5 L 62.8 61.7 L 69.2 55.7 L 74.6 49.5 L 79.1 43.2 L 82.7 36.8 L 85.4 30.2 L 86.2716980934143 26.9 L 35.8 26.9 L 35.8 22.9 L 155.4 22.9 L 161.4 17.9 L 172.4 26.9 L 167.4 29.9 L 167.3415774345398 29.924342727661134 L 167.3 33.5 L 167.0 41.4 L 166.3 48.5 L 165.5 55.1 L 164.3 60.9 L 162.9 66.1 L 161.1 70.7 L 158.9 74.7 L 156.1 78.1 L 152.6 80.8 L 150.6 81.9 Z " />
</g>
</svg>
