<svg xmlns="http://www.w3.org/2000/svg" xmlns:xlink="http://www.w3.org/1999/xlink" version="1.1" baseProfile="full" viewBox="0 0 200 200" width="200" height="200">
<g fill="black">
<polygon points="18,34 182,34 182,38 18,38 " />
<polygon points="182,34 162,36 172,25 " />
<polygon points="54,50 54,98 42,104 42,44 " />
<polygon points="48,49 153,49 153,53 48,53 " />
<polygon points="159,52 159,91 147,97 147,52 " />
<polygon points="147,50 153,45 164,54 159,58 147,52 " />
<polygon points="48,68 153,68 153,72 48,72 " />
<polygon points="48,87 153,87 153,91 48,91 " />
<polygon points="106,15 106,116 94,116 94,13 " />
<polygon points="106,15 109,17 104,20 " />
<polygon points="28.6,112.9 41,112.4 53.4,111.9 65.9,111.4 78.4,110.9 90.9,110.5 103.4,110 116,109.6 128.6,109.2 141.2,109 153.9,109.1 154,110.8 141.5,112.8 129,114.6 116.5,116.1 104,117.6 91.5,118.9 79,120.2 66.6,121.4 54.1,122.6 41.7,123.8 29.3,124.9 " />
<polygon points="26.6,113 28.6,112.9 29.3,124.9 " />
<polygon points="35.1,121.5 31.5,127.7 29.3,124.9 " />
<polygon points="133.2,97.5 137.1,98.3 141,99.2 144.9,100.5 148.7,102.1 152.4,103.9 156.1,106 159.7,108.3 163.3,110.9 166.8,113.7 170.3,116.6 161.5,124.9 158.9,121.7 156.3,118.7 153.5,115.9 150.8,113.1 147.9,110.6 145,108.1 142,105.7 139,103.4 135.9,101.2 132.6,99.1 " />
<polygon points="170.3,116.6 171.8,120.9 170,125.1 165.7,126.7 161.5,124.9 " />
<polygon points="19,138 180,138 180,142 19,142 " />
<polygon points="180,138 156,140 168,128 " />
<polygon points="140,121.2 140,172 128,172 128,119.2 " />
<polygon points="140,121.2 143,123.2 138,126.2 " />
<polygon points="140,172 137.6,175.6 134,178 130.4,175.6 128,172 " />
<polygon points="140,172 139.8,174.5 139.4,177 138.6,179.4 137.3,181.7 135.7,183.7 133.7,185.4 131.4,186.6 129,187.4 126.5,187.8 124,188 124,176 125.2,175.9 126.1,175.8 126.7,175.6 127,175.4 127.2,175.2 127.4,175.1 127.5,174.7 127.7,174.1 127.9,173.2 128,172 " />
<polygon points="104,179 104,176 124,176 124,182 " />
<polygon points="59.3,148 62.3,149.4 65.5,150.8 68.5,152.5 71.4,154.3 74.1,156.4 76.8,158.7 79.3,161.1 81.6,163.8 83.8,166.6 85.9,169.6 75.2,175.1 74.1,172.2 72.9,169.5 71.6,166.8 70.1,164.2 68.5,161.6 66.8,159.1 64.9,156.6 62.9,154.2 60.8,151.7 58.3,149.5 " />
<polygon points="85.9,169.6 86.2,174.1 83.3,177.7 78.8,178 75.2,175.1 " />
<polygon points="127.7,13.4 130.8,14.2 133.9,14.7 136.7,15.2 139.4,16 141.9,16.8 144.2,17.8 146.4,18.9 148.4,20.2 150.2,21.7 151.9,23.5 141.2,29.1 141.2,28.2 140.9,27.1 140.2,25.8 139.3,24.4 138,23 136.4,21.4 134.6,19.8 132.4,18.1 130,16.4 127.1,15.1 " />
<polygon points="151.9,23.5 152.2,28 149.4,31.6 144.8,32 141.2,29.1 " />
</g>
</svg>
