<svg xmlns="http://www.w3.org/2000/svg" xmlns:xlink="http://www.w3.org/1999/xlink" version="1.1" baseProfile="full" viewBox="0 0 200 200" width="200" height="200">
<g fill="black">
<polygon points="172.6,24.8 160.1,45 147,64.3 133.3,82.7 119,100.1 104.2,116.5 88.8,132 72.9,146.5 56.4,160 39.2,172.4 21.4,183.7 20.5,182.2 36.9,169.4 52.9,155.9 68.5,141.7 83.5,126.6 97.9,110.8 111.9,94.1 125.3,76.6 138.1,58.2 150.5,39 162.3,18.8 " />
<polygon points="162.3,18.8 172.6,24.8 162.8,17.9 " />
<polygon points="172.6,24.8 174.2,28 167.1,28.5 " />
<polygon points="37.3,37.8 52.1,47.8 66.4,58.4 80.1,69.6 93.4,81.5 106.1,93.8 118.3,106.7 130.1,120.1 141.3,133.9 152.1,148.3 162.4,163.2 152.3,169.7 142.7,154.8 132.7,140.4 122.3,126.4 111.3,112.8 99.9,99.6 88,86.9 75.7,74.5 63,62.5 49.8,50.7 36.2,39.3 " />
<polygon points="162.4,163.2 163.1,167.7 160.6,171.5 156.1,172.2 152.3,169.7 " />
</g>
</svg>
