<svg xmlns="http://www.w3.org/2000/svg" xmlns:xlink="http://www.w3.org/1999/xlink" version="1.1" baseProfile="full" viewBox="0 0 200 200" width="200" height="200">
<g fill="black">
<polygon points="29,43 171,43 171,47 29,47 " />
<polygon points="171,43 147,45 159,33 " />
<polygon points="102,20 102,47 90,47 90,18 " />
<polygon points="102,20 105,22 102,24 " />
<polygon points="135,97 135,166 123,166 123,95 " />
<polygon points="135,97 138,99 135,101 " />
<polygon points="135,166 132.6,169.6 129,172 125.4,169.6 123,166 " />
<polygon points="135,166 135,167.2 135.2,168.1 135.4,168.7 135.5,169 135.7,169.2 135.9,169.4 136.2,169.5 136.8,169.7 137.7,169.9 139,170 139,182 136.4,181.8 133.9,181.4 131.5,180.6 129.2,179.3 127.2,177.7 125.6,175.7 124.3,173.4 123.5,171 123.1,168.5 123,166 " />
<polygon points="139,170 143.2,171.8 145,176 143.2,180.2 139,182 " />
<polygon points="139,170 174,170 174,182 139,182 " />
<polygon points="174,170 177.6,172.4 180,176 177.6,179.6 174,182 " />
<polygon points="168,171 174,145 176,145 174,171 " />
<polygon points="103.1,45 101.3,47.7 98.7,51.6 96,55.4 93,59.2 89.8,62.8 86.4,66.4 82.8,69.9 78.9,73.3 74.7,76.6 70.3,79.7 65.5,82.6 64.4,81.3 67.8,77 71.1,72.8 74.2,68.8 77.2,64.9 80,61 82.5,57.2 84.9,53.4 87,49.6 88.9,45.9 89.3,45 " />
<polygon points="35.7,76.9 47.6,76.6 59.4,76.4 71.1,76.1 82.6,75.9 94,75.7 105.2,75.6 116.3,75.5 127.3,75.5 138.2,75.7 148.9,76.1 149,77.8 138.4,79.4 127.6,80.8 116.7,82 105.6,83.1 94.4,84.2 83.1,85.2 71.6,86.1 59.9,87.1 48.2,88 36.2,88.9 " />
<polygon points="36.2,88.9 35.7,76.9 33.7,77 " />
<polygon points="36.2,88.9 38.4,91.8 42.1,85.6 " />
<polygon points="69,97 69,133 57,133 57,95 " />
<polygon points="69,97 72,99 69,101 " />
<polygon points="69,133 66.6,136.6 63,139 59.4,136.6 57,133 " />
<polygon points="68.9,133.1 68,141.3 66.2,148.9 63.5,156.1 60,162.6 55.6,168.5 50.4,173.8 44.5,178.4 37.8,182.3 30.4,185.4 22.3,187.8 21.6,186.1 28.7,182 35,177.7 40.4,173.2 45,168.4 48.8,163.4 51.9,158 54.2,152.3 55.8,146.3 56.7,139.8 57,132.8 " />
<polygon points="102,98 102,170 90,176 90,96 " />
<polygon points="102,98 105,100 102,102 " />
<polygon points="123.3,55.7 129.7,58.8 135.6,61.9 141,65.1 146,68.3 150.5,71.5 154.7,74.6 158.4,77.8 161.8,80.9 164.8,84 167.4,87.2 157.3,93.7 155.7,90.9 153.7,88 151.2,84.8 148.3,81.5 145,77.9 141.2,74.2 137,70.3 132.5,66.3 127.6,61.9 122.3,57.2 " />
<polygon points="167.4,87.2 168.1,91.7 165.6,95.5 161.1,96.2 157.3,93.7 " />
</g>
</svg>
