<svg xmlns="http://www.w3.org/2000/svg" xmlns:xlink="http://www.w3.org/1999/xlink" version="1.1" baseProfile="full" viewBox="0 0 200 200" width="200" height="200">
<g fill="black">
<polygon points="125.3,20.4 121,31.1 116.4,41.6 111.7,51.9 106.7,61.9 101.5,71.7 96.1,81.2 90.4,90.5 84.4,99.4 78.2,108.1 71.5,116.4 70,115.4 75,106 79.8,96.7 84.7,87.2 89.4,77.6 93.9,67.9 98.3,57.9 102.5,47.8 106.5,37.5 110.4,27 114,16.3 " />
<polygon points="113.7,17.3 125.3,20.4 114.5,14.9 " />
<polygon points="125.3,20.4 127.5,23.3 121.7,24.4 " />
<polygon points="106.2,74.4 106.2,179.4 94.2,185.4 94.2,72.4 " />
<polygon points="106.2,74.4 109.2,76.4 104.2,79.4 " />
<polygon points="151.5,17.3 150.8,42.7 149.4,66.1 147.2,87.8 144.3,107.5 140.7,125.3 136.2,141.3 131,155.3 125,167.4 118.1,177.4 110.4,185.3 109.1,184 115,175.3 120.2,165 124.9,153 129,139.2 132.4,123.6 135.1,106.1 137.2,86.7 138.7,65.5 139.4,42.3 139.5,17.3 " />
<polygon points="139.5,18.3 151.5,17.3 139.5,14.9 " />
<polygon points="151.5,17.3 154.5,19.3 149.5,22.3 " />
<polygon points="148.5,18.4 149.9,41.8 151.7,63.4 153.9,83.4 156.6,101.7 159.9,118.2 163.8,133 168.2,146 173.2,157.2 178.6,166.6 184.5,174.3 174.4,182.7 168,173.2 162.5,162.2 157.8,149.7 153.9,135.6 150.8,120 148.3,102.8 146.7,84.1 145.8,63.8 145.7,41.9 146.7,18.3 " />
<polygon points="174.4,182.7 184.5,174.3 185.1,174.9 " />
<polygon points="51.5,17.3 50.8,42.7 49.4,66.1 47.2,87.8 44.3,107.5 40.7,125.3 36.2,141.3 31,155.3 25,167.4 18.1,177.4 10.4,185.3 9.1,184 15,175.3 20.2,165 24.9,153 29,139.2 32.4,123.6 35.1,106.1 37.2,86.7 38.7,65.5 39.4,42.3 39.5,17.3 " />
<polygon points="39.5,18.3 51.5,17.3 39.5,14.9 " />
<polygon points="51.5,17.3 54.5,19.3 49.5,22.3 " />
<polygon points="48.5,18.4 49.9,41.8 51.7,63.4 53.9,83.4 56.6,101.7 59.9,118.2 63.8,133 68.2,146 73.2,157.2 78.6,166.6 84.5,174.3 74.4,182.7 68,173.2 62.5,162.2 57.8,149.7 53.9,135.6 50.8,120 48.3,102.8 46.7,84.1 45.8,63.8 45.7,41.9 46.7,18.3 " />
<polygon points="74.4,182.7 84.5,174.3 85.1,174.9 " />
</g>
</svg>
