<svg xmlns="http://www.w3.org/2000/svg" xmlns:xlink="http://www.w3.org/1999/xlink" version="1.1" baseProfile="full" viewBox="0 0 200 200" width="200" height="200">
<g fill="black">
<polygon points="40,29 40,182 28,188 28,23 " />
<polygon points="34,29 165,29 165,33 34,33 " />
<polygon points="171,31 171,170 159,170 159,31 " />
<polygon points="159,29 165,24 176,33 171,37 159,31 " />
<polygon points="171,170 168.6,173.6 165,176 161.4,173.6 159,170 " />
<polygon points="171,170 170.8,172.5 170.4,175 169.6,177.4 168.3,179.7 166.7,181.7 164.7,183.3 162.4,184.6 160,185.4 157.5,185.8 155,186 155,174 156.2,173.9 157.1,173.7 157.7,173.5 158,173.4 158.2,173.2 158.4,173 158.5,172.7 158.7,172.1 158.9,171.2 159,170 " />
<polygon points="155,180 155,174 135,174 135,177 " />
<polygon points="137.3,47.3 135,49.8 132.6,52.4 130.1,55.1 127.5,57.8 124.7,60.6 121.8,63.5 118.8,66.4 115.5,69.4 112.1,72.4 108.6,75.5 107.3,74.4 109.7,70.4 111.9,66.5 114.1,62.7 116.3,59.1 118.4,55.7 120.4,52.4 122.3,49.2 124.2,46.1 125.9,43.1 127.5,40.3 " />
<polygon points="127.5,40.3 137.3,47.3 128,39.6 " />
<polygon points="137.3,47.3 138.5,50.6 131.3,50.4 " />
<polygon points="62.3,41.8 65.5,43.8 68.8,45.6 71.8,47.6 74.6,49.7 77.2,52 79.5,54.4 81.7,56.9 83.6,59.6 85.3,62.4 86.8,65.3 75.3,68.9 74.9,66.6 74.3,64.2 73.5,61.8 72.4,59.3 71.2,56.7 69.7,54.1 67.9,51.5 66,48.7 63.8,45.9 61.2,43.3 " />
<polygon points="86.8,65.3 86.3,69.8 82.8,72.8 78.3,72.3 75.3,68.9 " />
<polygon points="51,75 148,75 148,79 51,79 " />
<polygon points="148,75 124,77 136,65 " />
<polygon points="114.5,84.1 113.9,92.3 112.4,100.1 110.1,107.5 107.1,114.4 103.3,120.9 98.8,126.8 93.5,132.2 87.5,137 80.9,141.1 73.5,144.6 72.6,143 78.7,138 84.1,132.9 88.8,127.6 92.7,122.2 96,116.5 98.6,110.6 100.6,104.5 101.9,98 102.5,91.2 102.5,84.1 " />
<polygon points="102.5,84.1 114.5,84.1 102.5,81.7 " />
<polygon points="114.5,84.1 117.5,86.1 111.5,90.1 " />
<polygon points="104.7,110 109.3,111.8 113.7,113.6 117.9,115.7 121.9,118 125.6,120.4 129,123 132.3,125.8 135.3,128.7 138.1,131.8 140.6,135 130.3,141.3 128.8,138.3 127.1,135.3 125,132.4 122.8,129.4 120.2,126.5 117.4,123.6 114.4,120.6 111.1,117.6 107.6,114.6 103.8,111.6 " />
<polygon points="140.6,135 141.2,139.6 138.6,143.3 134.1,143.9 130.3,141.3 " />
<polygon points="69,87 69,145 57,145 57,85 " />
<polygon points="69,87 72,89 69,91 " />
<polygon points="69,145 66.6,148.6 63,151 59.4,148.6 57,145 " />
<polygon points="69,145 69,146.2 69.2,147.1 69.4,147.7 69.5,148 69.7,148.2 69.9,148.4 70.2,148.5 70.8,148.7 71.7,148.9 73,149 73,161 70.4,160.8 67.9,160.4 65.5,159.6 63.2,158.3 61.2,156.7 59.6,154.7 58.3,152.4 57.5,150 57.1,147.5 57,145 " />
<polygon points="73,149 77.2,150.8 79,155 77.2,159.2 73,161 " />
<polygon points="73,149 138,149 138,161 73,161 " />
<polygon points="138,149 141.6,151.4 144,155 141.6,158.6 138,161 " />
</g>
</svg>
