<svg xmlns="http://www.w3.org/2000/svg" xmlns:xlink="http://www.w3.org/1999/xlink" version="1.1" baseProfile="full" viewBox="0 0 200 200" width="200" height="200">
<g fill="black">
<polygon points="106,33 169,33 169,37 106,37 " />
<polygon points="175,35 174.9,44.1 174.7,52.6 174.3,60.5 173.8,67.7 173.1,74.2 172.3,80.1 171.3,85.5 170.1,90.2 168.7,94.4 167,98 156.5,92.3 157.5,90 158.6,86.9 159.6,82.9 160.4,78.2 161.2,72.8 161.8,66.6 162.3,59.8 162.7,52.2 162.9,43.9 163,35 " />
<polygon points="163,33 169,28 180,37 175,41 169,41 " />
<polygon points="167,98 163.4,100.9 158.9,100.4 156,96.8 156.5,92.3 " />
<polygon points="167,98 165.7,100.2 164.2,102.2 162.6,104 160.7,105.6 158.7,106.9 156.5,108 154.3,108.9 151.9,109.5 149.5,109.8 147,110 147,98 148.3,97.9 149.6,97.7 150.7,97.4 151.7,97.1 152.6,96.6 153.4,96 154.2,95.3 155,94.5 155.7,93.5 156.5,92.3 " />
<polygon points="147,104 147,98 127,98 127,101 " />
<polygon points="137.9,35 137.9,35.2 136.9,45.5 135.2,55.1 132.8,64.2 129.8,72.7 126,80.5 121.6,87.7 116.6,94.1 110.8,99.9 104.5,104.7 97.4,108.7 96.5,107.2 102,101.8 107,96.1 111.4,90.1 115.2,83.7 118.4,76.9 121,69.5 123.1,61.6 124.6,53.2 125.6,44.3 125.9,35 " />
<polygon points="24,41 105,41 105,45 24,45 " />
<polygon points="105,41 81,43 93,31 " />
<polygon points="66,21 66,99 54,99 54,19 " />
<polygon points="66,21 69,23 66,25 " />
<polygon points="29,68 97,68 97,72 29,72 " />
<polygon points="97,68 73,70 85,58 " />
<polygon points="21.9,100.9 27.8,100.1 34.3,99.3 41.3,98.3 48.9,97.2 57.1,96 65.9,94.7 75.2,93.3 85.1,91.8 95.6,90.4 106.8,89.1 107.1,90.8 96.4,94.1 86.2,97.1 76.5,99.7 67.4,102.1 58.8,104.3 50.7,106.3 43.2,108.2 36.2,109.8 29.8,111.3 24,112.7 " />
<polygon points="24,112.7 21.9,100.9 19.9,101.2 " />
<polygon points="24,112.7 26.4,115.3 29.4,108.7 " />
</g>
</svg>
