<svg xmlns="http://www.w3.org/2000/svg" xmlns:xlink="http://www.w3.org/1999/xlink" version="1.1" baseProfile="full" viewBox="0 0 200 200" width="200" height="200">
<g fill="black">
<polygon points="101.9,69 94,71.2 85.9,73.4 77.6,75.5 69.1,77.6 60.3,79.6 51.4,81.6 42.2,83.4 32.7,85.1 23.1,86.6 13.1,87.8 12.8,86.1 22.2,82.9 31.5,79.9 40.6,77 49.4,74.2 58.1,71.4 66.5,68.7 74.8,65.9 82.8,63.1 90.5,60.4 98.1,57.6 " />
<polygon points="98.1,57.6 101.9,69 107.8,67 " />
<polygon points="107.8,67 108.1,70.1 100,66.4 " />
<polygon points="100.3,46.9 92.7,49.5 85,52 77,54.4 68.8,56.7 60.4,58.9 51.8,60.9 43,62.7 33.9,64.4 24.7,65.8 15.1,66.8 14.8,65.1 23.8,62.1 32.7,59.2 41.3,56.4 49.8,53.6 58,50.7 66,47.9 73.8,44.9 81.3,41.9 88.7,38.9 95.8,35.8 " />
<polygon points="95.8,35.8 100.3,46.9 104.9,45 " />
<polygon points="104.9,45 105.1,48.2 97.3,44.9 " />
<polygon points="92.4,24.9 86.2,27.1 79.6,29.3 72.8,31.4 65.7,33.4 58.2,35.4 50.4,37.2 42.4,38.9 34,40.4 25.2,41.8 16.1,42.8 15.8,41.1 24.4,38.1 32.7,35.2 40.7,32.5 48.4,29.9 55.7,27.2 62.8,24.6 69.5,21.9 75.9,19.3 81.9,16.6 87.6,13.8 " />
<polygon points="87.6,13.8 92.4,24.9 96.5,23.1 " />
<polygon points="96.5,23.1 96.7,26.3 89,23.1 " />
<polygon points="64,14.5 69.7,94.5 58.2,101.4 51.9,13.4 " />
<polygon points="64,14.5 67.1,16.3 64.3,18.5 " />
<polygon points="105.3,19.2 176,19.2 176,23.2 105.3,23.2 " />
<polygon points="182,21.1 182,32.7 182,43.2 181.7,52.7 181.3,61.1 180.8,68.5 180.1,74.8 179.3,80.2 178.2,84.6 176.8,88.4 174.3,91.9 166.1,83.1 166,83.1 166.7,81.2 167.5,77.9 168.2,73.3 168.9,67.4 169.4,60.4 169.7,52.3 170,43 170,32.7 170,21.2 " />
<polygon points="170,19.2 176,14.2 187,23.2 182,27.2 176,27.2 " />
<polygon points="174.3,91.9 170,93.4 165.8,91.6 164.3,87.3 166.1,83.1 " />
<polygon points="174.3,91.9 172.5,93.4 170.6,94.9 168.6,96.1 166.6,97.2 164.4,98.2 162.2,98.9 160,99.5 157.6,100 155.3,100.2 152.9,100.3 152.9,88.3 154.4,88.2 155.9,88.1 157.3,87.8 158.7,87.5 160,87 161.3,86.4 162.5,85.8 163.8,85 165,84.1 166.1,83.1 " />
<polygon points="152.9,94.3 152.9,88.3 132.9,88.3 132.9,91.3 " />
<polygon points="141.5,21.2 141.5,21.3 140.6,34.2 138.8,46.2 136.2,57.1 132.8,66.9 128.5,75.6 123.3,83.1 117.3,89.5 110.5,94.6 102.9,98.2 94.8,100.4 94.2,98.7 101.2,94.8 107.3,90.2 112.6,84.9 117.1,78.7 120.9,71.7 124.1,63.6 126.5,54.6 128.2,44.5 129.2,33.3 129.4,21.2 " />
</g>
</svg>
