<svg xmlns="http://www.w3.org/2000/svg" xmlns:xlink="http://www.w3.org/1999/xlink" version="1.1" baseProfile="full" viewBox="0 0 200 200" width="200" height="200">
<g fill="black">
<polygon points="105,25 170,25 170,29 105,29 " />
<polygon points="176,27 175.9,32.7 175.7,38 175.4,43 175,47.7 174.4,52 173.7,55.9 172.9,59.5 171.9,62.8 170.7,65.8 169.3,68.5 159,62.3 159.8,60.8 160.6,58.9 161.3,56.4 162,53.5 162.6,50.2 163.1,46.4 163.4,42.1 163.7,37.5 163.9,32.4 164,27 " />
<polygon points="164,25 170,20 181,29 176,32 164,37 " />
<polygon points="169.3,68.5 165.6,71.2 161,70.5 158.4,66.8 159,62.3 " />
<polygon points="169.3,68.5 167.9,70.6 166.3,72.5 164.6,74.2 162.7,75.8 160.7,77 158.5,78.1 156.2,78.9 153.9,79.5 151.4,79.8 149,80 149,68 150.4,67.9 151.6,67.7 152.8,67.4 153.9,67.1 154.8,66.6 155.7,66 156.6,65.3 157.4,64.5 158.3,63.5 159,62.3 " />
<polygon points="129,71 129,68 149,68 149,74 " />
<polygon points="141.9,27 141.9,27.1 141,33.9 139.4,40.3 137,46.5 133.8,52.4 129.9,57.9 125.4,63 120.2,67.8 114.3,72.2 107.7,76.2 100.4,79.7 99.5,78.2 105.5,73.1 110.9,68.1 115.6,63.1 119.6,58.1 123,53 125.6,47.9 127.6,42.8 129,37.6 129.8,32.2 129.9,27 " />
<polygon points="21,31 99,31 99,35 21,35 " />
<polygon points="99,31 75,33 87,21 " />
<polygon points="64,15 64,81 52,87 52,13 " />
<polygon points="64,15 67,17 62,20 " />
<polygon points="26,49 95,49 95,53 26,53 " />
<polygon points="95,49 75,51 85,40 " />
<polygon points="19,67 100,67 100,71 19,71 " />
<polygon points="100,67 76,69 88,57 " />
</g>
</svg>
