<svg xmlns="http://www.w3.org/2000/svg" xmlns:xlink="http://www.w3.org/1999/xlink" version="1.1" baseProfile="full" viewBox="0 0 200 200" width="200" height="200">
<g fill="black">
<polygon points="111,28 174,28 174,32 111,32 " />
<polygon points="180,30 179.9,39.5 179.6,48.4 179.2,56.5 178.7,64 177.9,70.8 177,76.9 175.9,82.4 174.6,87.3 173.1,91.6 171.2,95.4 160.9,89.3 162,87 163.2,83.8 164.2,79.8 165.2,74.9 166,69.3 166.7,62.9 167.2,55.8 167.6,47.9 167.9,39.3 168,30 " />
<polygon points="168,28 174,23 185,32 180,36 174,36 " />
<polygon points="171.2,95.4 167.5,98.1 163,97.5 160.3,93.8 160.9,89.3 " />
<polygon points="171.2,95.4 169.8,97.5 168.3,99.4 166.6,101.2 164.7,102.7 162.7,104 160.5,105.1 158.2,105.9 155.9,106.5 153.4,106.8 151,107 151,95 152.4,94.9 153.6,94.7 154.8,94.4 155.8,94.1 156.7,93.6 157.6,93 158.5,92.3 159.3,91.5 160.1,90.5 160.9,89.3 " />
<polygon points="151,101 151,95 131,95 131,98 " />
<polygon points="144.9,30 144.9,30.2 143.9,40.8 142.2,50.8 139.8,60.1 136.8,68.8 133,76.8 128.6,84 123.6,90.5 117.8,96.1 111.4,100.9 104.4,104.7 103.5,103.2 109,98 114,92.4 118.4,86.5 122.1,80.1 125.4,73.1 128,65.7 130.1,57.6 131.6,48.9 132.6,39.7 132.9,30 " />
<polygon points="23,36 106,36 106,40 23,40 " />
<polygon points="106,36 82,38 94,26 " />
<polygon points="71,17 71,110 59,116 59,15 " />
<polygon points="71,17 74,19 71,21 " />
<polygon points="26,63 101,63 101,67 26,67 " />
<polygon points="101,63 77,65 89,53 " />
<polygon points="24.7,91.9 30.6,91 37.1,90 44,89 51.4,87.9 59.4,86.7 67.8,85.6 76.8,84.3 86.2,83.1 96.2,82 106.8,81.1 107.1,82.8 97,85.8 87.3,88.4 78,90.8 69.3,93 61,95.1 53.2,97 46,98.8 39.2,100.5 32.9,102.1 27.1,103.6 " />
<polygon points="27.1,103.6 24.7,91.9 22.8,92.3 " />
<polygon points="27.1,103.6 29.7,106.2 32.4,99.5 " />
</g>
</svg>
