<svg xmlns="http://www.w3.org/2000/svg" xmlns:xlink="http://www.w3.org/1999/xlink" version="1.1" baseProfile="full" viewBox="0 0 200 200" width="200" height="200">
<g fill="black">
<polygon points="39,31 129,31 129,35 39,35 " />
<polygon points="134.9,32.8 135.2,44.5 135.2,55.3 134.9,64.9 134.3,73.6 133.3,81.2 132.1,87.8 130.5,93.5 128.4,98.4 125.5,102.5 121.6,105.6 116,95 116.7,94.5 117.8,92.7 119.2,89.6 120.4,85.1 121.5,79.4 122.3,72.4 122.9,64.3 123.2,55.1 123.2,44.7 123,33.1 " />
<polygon points="123,31 129,26 140,35 135,39 129,39 " />
<polygon points="121.6,105.6 117,106 113.5,103.1 113.1,98.5 116,95 " />
<polygon points="121.6,105.6 119.6,106.6 117.5,107.5 115.4,108.3 113.3,109 111.1,109.6 108.9,110.1 106.7,110.5 104.5,110.7 102.2,110.9 100,111 100,99 101.7,98.9 103.3,98.8 105,98.6 106.6,98.3 108.2,98 109.8,97.5 111.4,97 113,96.4 114.5,95.8 116,95 " />
<polygon points="100,105 100,99 80,99 80,102 " />
<polygon points="45,31 45,163 33,163 33,25 " />
<polygon points="45,163 42.6,166.6 39,169 35.4,166.6 33,163 " />
<polygon points="45,163 45,164.2 45.2,165.1 45.4,165.7 45.5,166 45.7,166.2 45.9,166.4 46.2,166.5 46.8,166.7 47.7,166.9 49,167 49,179 46.4,178.8 43.9,178.4 41.5,177.6 39.2,176.3 37.2,174.7 35.6,172.7 34.3,170.4 33.5,168 33.1,165.5 33,163 " />
<polygon points="49,167 53.2,168.8 55,173 53.2,177.2 49,179 " />
<polygon points="49,167 161,167 161,179 49,179 " />
<polygon points="161,167 164.6,169.4 167,173 164.6,176.6 161,179 " />
<polygon points="155,168 161,142 163,142 161,168 " />
</g>
</svg>
