<svg xmlns="http://www.w3.org/2000/svg" xmlns:xlink="http://www.w3.org/1999/xlink" version="1.1" baseProfile="full" viewBox="0 0 200 200" width="200" height="200">
<g fill="black">
<polygon points="30.7,21.8 148.3,21.8 148.3,25.8 30.7,25.8 " />
<polygon points="154.1,25 147.7,50.6 139.6,74.1 129.9,95.6 118.6,115 105.6,132.4 91,147.5 74.9,160.5 57.2,171.3 37.9,179.8 17.2,185.9 16.8,184.2 36.5,176.3 54.5,166.6 71,155.3 85.8,142.1 99,127 110.7,110.1 120.9,91.2 129.6,70.3 136.7,47.5 142.4,22.6 " />
<polygon points="142.3,21.8 148.3,16.8 159.3,25.8 154.3,28.8 142.3,33.8 " />
<polygon points="57.9,23.6 64.2,49 71.6,72 80.2,92.7 90.1,110.9 101.3,126.8 113.8,140.4 127.6,151.6 142.7,160.7 159.1,167.5 176.9,172.1 174.2,185.1 154.9,179.3 137.1,171.1 121,160.5 106.6,147.6 93.9,132.5 82.9,115.1 73.6,95.6 66,73.9 60.2,49.9 56.2,23.9 " />
<polygon points="174.2,185.1 176.9,172.1 186,174.1 " />
<polygon points="82.4,38.6 86.5,40.6 90.5,42.8 94.2,45.2 97.7,47.9 100.9,50.8 103.9,53.9 106.6,57.2 109,60.8 111.2,64.5 113.1,68.5 101.7,72.4 100.8,68.9 99.6,65.6 98.2,62.3 96.6,59.1 94.7,55.9 92.6,52.7 90.2,49.6 87.5,46.4 84.7,43.2 81.4,40.1 " />
<polygon points="113.1,68.5 112.7,73 109.3,76.1 104.8,75.7 101.7,72.4 " />
<polygon points="13.2,73.6 20,75.9 26.2,78.7 31.9,81.8 37.3,85.3 42.1,89.1 46.5,93.1 50.5,97.4 54,102 57,106.9 59.5,112.1 48.3,116.2 46.8,111.9 44.8,107.6 42.4,103.4 39.5,99.2 36.2,95.2 32.4,91.1 28.1,87.2 23.3,83.2 18.1,79.2 12.5,75.2 " />
<polygon points="59.5,112.1 59.3,116.6 56,119.8 51.4,119.5 48.3,116.2 " />
</g>
</svg>
