<svg xmlns="http://www.w3.org/2000/svg" xmlns:xlink="http://www.w3.org/1999/xlink" version="1.1" baseProfile="full" viewBox="0 0 200 200" width="200" height="200">
<g fill="black">
<polygon points="77,24 77,54 65,54 65,22 " />
<polygon points="77,24 80,26 77,28 " />
<polygon points="77,54 74.6,57.6 71,60 67.4,57.6 65,54 " />
<polygon points="77,54 76.1,61.4 74.3,68.6 71.4,75.4 67.5,81.8 62.8,87.9 57.1,93.5 50.5,98.7 43,103.5 34.6,107.9 25.4,111.8 24.5,110.1 32.7,104.6 40,99.1 46.3,93.6 51.7,88.1 56.1,82.5 59.6,76.9 62.2,71.3 64,65.6 64.9,59.9 65,54 " />
<polygon points="136,24 136,81 124,81 124,22 " />
<polygon points="136,24 139,26 136,28 " />
<polygon points="136,81 133.6,84.6 130,87 126.4,84.6 124,81 " />
<polygon points="136,81 136,82.2 136.2,83.1 136.4,83.7 136.5,84 136.7,84.2 136.9,84.4 137.2,84.5 137.8,84.7 138.7,84.9 140,85 140,97 137.4,96.8 134.9,96.4 132.5,95.6 130.2,94.3 128.2,92.7 126.6,90.7 125.3,88.4 124.5,86 124.1,83.5 124,81 " />
<polygon points="140,85 144.2,86.8 146,91 144.2,95.2 140,97 " />
<polygon points="140,85 179,85 179,97 140,97 " />
<polygon points="179,85 182.6,87.4 185,91 182.6,94.6 179,97 " />
<polygon points="61,114 61,181 49,187 49,108 " />
<polygon points="55,114 150,114 150,118 55,118 " />
<polygon points="156,116 156,178 144,184 144,116 " />
<polygon points="144,114 150,109 161,118 156,122 144,116 " />
<polygon points="55,170 150,170 150,174 55,174 " />
</g>
</svg>
