<svg xmlns="http://www.w3.org/2000/svg" xmlns:xlink="http://www.w3.org/1999/xlink" version="1.1" baseProfile="full" viewBox="0 0 200 200" width="200" height="200">
<g fill="black">
<path d="M 47.6 187.1 L 47.6 98.8 L 59.6 104.8 L 140.4 104.8 L 146.4 99.8 L 157.4 108.8 L 152.4 112.8 L 152.4 178.1 L 140.4 184.1 L 140.4 174.1 L 59.6 174.1 L 59.6 181.1 Z M 59.6 170.1 L 140.4 170.1 L 140.4 108.8 L 59.6 108.8 Z M 21.8 106.4 L 20.6 105.1 L 26.3 97.6 L 31.9 90.1 L 37.2 82.6 L 42.2 75 L 47 67.3 L 51.4 59.6 L 55.4 51.7 L 59.2 43.7 L 62.6 35.6 L 65.6 27.4 L 66.2 26 L 76.8 31.7 L 78.9 34.7 L 75.2 35.3 L 73 40.2 L 68.8 48.4 L 64.2 56.5 L 59.3 64.3 L 54.1 72 L 48.4 79.4 L 42.4 86.6 L 36 93.5 L 29.1 100.1 Z M 175.6 100.2 L 171 100 L 167.8 96.8 L 164.9 89 L 161.7 81.4 L 158.2 74.1 L 154.5 67 L 150.5 60.1 L 146.1 53.5 L 141.5 47 L 136.7 40.7 L 131.6 34.5 L 126.4 28.4 L 127.5 27 L 134.3 31.8 L 140.6 37 L 146.5 42.8 L 152.2 48.9 L 157.4 55.3 L 162.4 62.1 L 167 69.2 L 171.3 76.6 L 175.3 84.4 L 179 92.4 L 178.8 97 Z " />
</g>
</svg>
