<svg xmlns="http://www.w3.org/2000/svg" xmlns:xlink="http://www.w3.org/1999/xlink" version="1.1" baseProfile="full" viewBox="0 0 200 200" width="200" height="200">
<g fill="black">
<polygon points="69,27 69,54 57,54 57,21 " />
<polygon points="69,54 66.6,57.6 63,60 59.4,57.6 57,54 " />
<polygon points="69,54 68.2,61.3 66.5,68.4 63.9,75.1 60.4,81.4 56.1,87.2 51,92.7 45,97.7 38.3,102.2 30.7,106.2 22.4,109.8 21.5,108.1 28.8,103 35.1,97.9 40.7,92.7 45.4,87.5 49.3,82.2 52.4,76.8 54.6,71.3 56.1,65.7 56.9,59.9 57,54 " />
<polygon points="63,27 136,27 136,31 63,31 " />
<polygon points="142,29 142,81 130,81 130,29 " />
<polygon points="130,27 136,22 147,31 142,35 130,29 " />
<polygon points="142,81 139.6,84.6 136,87 132.4,84.6 130,81 " />
<polygon points="142,81 142,82.2 142.1,83.1 142.2,83.7 142.4,84.1 142.5,84.4 142.7,84.6 143.1,84.9 143.7,85.1 144.7,85.3 146,85.5 146,96.5 143.4,96.4 141,96 138.6,95.2 136.4,94.1 134.4,92.5 132.7,90.6 131.5,88.4 130.6,86 130.1,83.5 130,81 " />
<polygon points="146,85.5 149.8,87.1 151.5,91 149.8,94.8 146,96.5 " />
<polygon points="146,85.5 179,85.5 179,96.5 146,96.5 " />
<polygon points="179,85.5 182.3,87.7 184.5,91 182.3,94.3 179,96.5 " />
<polygon points="173.5,86.5 179,64.5 181,64.5 179,86.5 " />
<polygon points="61,114 61,181 49,187 49,108 " />
<polygon points="55,114 150,114 150,118 55,118 " />
<polygon points="156,116 156,178 144,184 144,116 " />
<polygon points="144,114 150,109 161,118 156,122 144,116 " />
<polygon points="55,170 150,170 150,174 55,174 " />
</g>
</svg>
