<svg xmlns="http://www.w3.org/2000/svg" xmlns:xlink="http://www.w3.org/1999/xlink" version="1.1" baseProfile="full" viewBox="0 0 200 200" width="200" height="200">
<g fill="black">
<polygon points="20,50 180,50 180,54 20,54 " />
<polygon points="180,50 160,52 170,41 " />
<polygon points="106,15 106,77 94,77 94,13 " />
<polygon points="106,15 109,17 104,20 " />
<polygon points="106,77 103.6,80.6 100,83 96.4,80.6 94,77 " />
<polygon points="105.9,77.3 103.8,95.8 100,112.8 94.6,128.3 87.5,142.1 78.8,154.3 68.4,164.8 56.6,173.5 43.2,180.5 28.4,185.6 12.1,188.8 11.8,187.1 27.2,182 40.9,175.7 52.9,168.1 63.3,159.2 72.1,149.1 79.4,137.5 85.3,124.6 89.6,110.1 92.5,94.1 94,76.6 " />
<polygon points="104.9,67.9 107.7,84.4 111.5,99.6 116.4,113.3 122.4,125.7 129.6,136.8 137.9,146.6 147.3,155.1 158,162.5 169.9,168.7 183.1,173.7 178.8,186.2 164.5,180 151.7,172.4 140.2,163.6 130.3,153.5 121.9,142.1 115,129.5 109.6,115.8 105.8,101 103.6,85 103.1,68 " />
<polygon points="178.8,186.2 183.1,173.7 190.4,176.2 " />
<polygon points="66.8,71.3 64.4,79.1 61.7,86.5 58.6,93.5 55.2,100.1 51.3,106.1 47.1,111.7 42.5,116.9 37.6,121.4 32.2,125.4 26.5,128.7 25.4,127.2 29.7,122.5 33.8,117.7 37.5,112.6 40.9,107.4 44.1,101.8 46.9,95.8 49.4,89.6 51.6,83 53.5,76 55.1,68.6 " />
<polygon points="55,68 61,63 72,72 67,75 55,80 " />
<polygon points="61.9,70.9 63.4,77.2 65,83 66.8,88.4 68.8,93.3 71,97.9 73.5,102 76.2,105.7 79.2,109.1 82.5,112.1 86.1,114.8 77.8,125.1 73.8,121.1 70.2,116.7 67.1,111.9 64.5,106.9 62.4,101.5 60.8,95.9 59.8,90.1 59.2,83.9 59.3,77.6 60.1,71 " />
<polygon points="77.8,125.1 86.1,114.8 88.7,116.9 " />
<polygon points="26,68 61,68 61,72 26,72 " />
<polygon points="154.8,71.2 152.7,78.7 150.1,85.8 147.1,92.4 143.8,98.6 140.1,104.4 135.9,109.8 131.4,114.6 126.5,118.9 121.2,122.6 115.5,125.7 114.4,124.2 118.8,119.7 122.8,115.1 126.4,110.3 129.8,105.3 132.8,100 135.5,94.4 137.9,88.5 140,82.2 141.7,75.6 143.1,68.7 " />
<polygon points="143,68 149,63 160,72 155,75 143,80 " />
<polygon points="149.9,70.9 151.9,77.1 153.8,82.8 155.8,88 158,92.8 160.4,97.2 163,101 165.9,104.5 169,107.6 172.2,110.2 175.7,112.5 168.2,123.4 164,119.7 160.3,115.6 157.1,111.2 154.3,106.4 152,101.2 150.2,95.8 148.9,90.1 148,84 147.7,77.7 148.1,71 " />
<polygon points="168.2,123.4 175.7,112.5 179.2,114.9 " />
<polygon points="115,68 149,68 149,72 115,72 " />
</g>
</svg>
