<svg xmlns="http://www.w3.org/2000/svg" xmlns:xlink="http://www.w3.org/1999/xlink" version="1.1" baseProfile="full" viewBox="0 0 200 200" width="200" height="200">
<g fill="black">
<polygon points="37,22 166,22 166,26 37,26 " />
<polygon points="172,24 172,66 160,72 160,24 " />
<polygon points="160,22 166,17 177,26 172,30 160,24 " />
<polygon points="37,56 166,56 166,60 37,60 " />
<polygon points="43,22 43,86 31,86 31,16 " />
<polygon points="43,86 40.6,89.6 37,92 33.4,89.6 31,86 " />
<polygon points="43,86 42.4,98.7 41.3,111 39.7,122.7 37.5,133.8 34.8,144.5 31.6,154.5 27.8,164 23.4,172.8 18.4,181 12.7,188.4 11.2,187.5 15,179.2 18.5,170.6 21.6,161.6 24.3,152.3 26.6,142.4 28.4,132.1 29.7,121.3 30.6,110.1 31,98.3 31,86 " />
<polygon points="51.9,85.8 152.9,85.8 152.9,89.8 51.9,89.8 " />
<polygon points="158.6,89.8 151.9,105.7 143.9,120.4 134.8,133.8 124.4,145.9 112.9,156.6 100.3,166 86.5,174 71.5,180.6 55.5,185.7 38.4,189.3 38,187.6 54.4,182.1 69.4,175.6 83.3,168.2 95.9,159.8 107.3,150.2 117.6,139.6 126.7,127.9 134.6,115 141.5,101 147.2,85.8 " />
<polygon points="146.9,85.8 152.9,80.8 163.9,89.8 158.9,93.8 152.9,93.8 " />
<polygon points="75.8,87.7 83.2,102.5 91.1,115.9 99.6,127.8 108.8,138.4 118.6,147.6 129.1,155.5 140.3,162 152.3,167.2 165,171.1 178.6,173.8 176.4,186.8 161.7,183.2 147.9,178.1 135,171.7 123.2,163.8 112.3,154.6 102.5,144 93.7,132 86,118.8 79.5,104.2 74.1,88.4 " />
<polygon points="176.4,186.8 178.6,173.8 188.2,175.4 " />
</g>
</svg>
