<svg xmlns="http://www.w3.org/2000/svg" xmlns:xlink="http://www.w3.org/1999/xlink" version="1.1" baseProfile="full" viewBox="0 0 200 200" width="200" height="200">
<g fill="black">
<polygon points="40,31 144,31 144,35 40,35 " />
<polygon points="150,33 150,91 138,97 138,33 " />
<polygon points="138,31 144,26 155,35 150,39 138,33 " />
<polygon points="47,81 144,81 144,85 47,85 " />
<polygon points="53,81 53,182 41,188 41,75 " />
<polygon points="47,117 153,117 153,121 47,121 " />
<polygon points="159,119 159,179 147,185 147,119 " />
<polygon points="147,117 153,112 164,121 159,125 147,119 " />
<polygon points="47,171 153,171 153,175 47,175 " />
</g>
</svg>
