<svg xmlns="http://www.w3.org/2000/svg" xmlns:xlink="http://www.w3.org/1999/xlink" version="1.1" baseProfile="full" viewBox="0 0 200 200" width="200" height="200">
<g fill="black">
<polygon points="53.5,19 53.5,181.2 42.5,186.7 42.5,17 " />
<polygon points="53.5,19 56.2,21 53.5,23 " />
<polygon points="30.5,50 30.5,147.2 19.5,152.7 19.5,44.5 " />
<polygon points="25,50 72,50 72,54 25,54 " />
<polygon points="77.5,52 77.5,136 66.5,136 66.5,52 " />
<polygon points="66.5,50 72,45 82.5,54 77.5,57.5 66.5,52 " />
<polygon points="77.5,136 75.3,139.3 72,141.5 68.7,139.3 66.5,136 " />
<polygon points="77.5,136 77.3,138.4 77,140.7 76.3,143 75.3,145.1 73.9,147.1 72.1,148.7 70.1,150 67.9,150.8 65.6,151.3 63.2,151.5 63.2,140.5 64.2,140.4 64.8,140.3 65.2,140.1 65.5,140 65.6,139.8 65.8,139.6 66,139.1 66.2,138.4 66.4,137.3 66.5,136 " />
<polygon points="63.2,146 63.2,140.5 47.8,140.5 47.8,143.2 " />
<polygon points="99.5,30 99.5,94 88.5,99.5 88.5,24.5 " />
<polygon points="94,30 175.9,30 175.9,34 94,34 " />
<polygon points="181.9,32 181.9,88 169.9,94 169.9,32 " />
<polygon points="169.9,30 175.9,25 186.9,34 181.9,38 169.9,32 " />
<polygon points="103.5,54 166.5,54 166.5,58 103.5,58 " />
<polygon points="166.5,54 142.5,56 154.5,44 " />
<polygon points="103.5,77 166.5,77 166.5,81 103.5,81 " />
<polygon points="166.5,77 142.5,79 154.5,67 " />
<polygon points="111.3,98 111.3,184 99.3,190 99.3,92 " />
<polygon points="105.3,98 164.6,98 164.6,102 105.3,102 " />
<polygon points="170.6,100 170.6,174 158.6,174 158.6,100 " />
<polygon points="158.6,98 164.6,93 175.6,102 170.6,106 158.6,100 " />
<polygon points="170.6,174 168.2,177.6 164.6,180 161,177.6 158.6,174 " />
<polygon points="170.6,174 170.4,176.5 170,179 169.2,181.4 168,183.7 166.3,185.7 164.3,187.3 162,188.6 159.6,189.4 157.1,189.8 154.6,190 154.6,178 155.8,177.9 156.7,177.7 157.3,177.5 157.6,177.4 157.8,177.2 158,177 158.1,176.7 158.3,176.1 158.5,175.2 158.6,174 " />
<polygon points="154.6,184 154.6,178 134.6,178 134.6,181 " />
<polygon points="105.3,123 164.6,123 164.6,127 105.3,127 " />
<polygon points="105.3,150 164.6,150 164.6,154 105.3,154 " />
</g>
</svg>
