<svg xmlns="http://www.w3.org/2000/svg" xmlns:xlink="http://www.w3.org/1999/xlink" version="1.1" baseProfile="full" viewBox="0 0 200 200" width="200" height="200">
<g fill="black">
<polygon points="111,14 111,39 99,39 99,12 " />
<polygon points="111,14 114,16 109,19 " />
<polygon points="34,35 188,35 188,39 34,39 " />
<polygon points="188,35 164,37 176,25 " />
<polygon points="40,35 40,96 28,96 28,29 " />
<polygon points="40,96 37.6,99.6 34,102 30.4,99.6 28,96 " />
<polygon points="40,96 39.4,109.1 38.4,121.4 37,132.9 35,143.5 32.6,153.2 29.6,162 26.2,169.9 22.2,176.9 17.7,182.8 12.6,187.6 11.3,186.3 14.6,180.6 17.5,174.4 20.1,167.4 22.4,159.7 24.3,151.2 25.9,141.9 27,131.7 27.7,120.6 28,108.7 28,96 " />
<polygon points="154.7,59.7 145.7,62.2 136.6,64.4 127.4,66.5 118.2,68.3 108.9,70 99.4,71.4 90,72.5 80.4,73.3 70.7,73.8 61,73.9 60.8,72.1 70.3,70 79.6,68 88.9,66 98.1,63.9 107.1,61.7 116.1,59.3 125,56.8 133.7,54.1 142.4,51.3 151,48.3 " />
<polygon points="150.1,48.6 154.7,59.7 160.8,57.7 " />
<polygon points="160.8,57.7 161.1,60.8 154.2,57.7 " />
<polygon points="66.9,71 66.9,174.8 54.9,174.8 54.9,65 " />
<polygon points="40,172.4 46.6,171.2 53.4,169.9 60.5,168.5 67.8,166.9 75.3,165.2 83,163.5 91,161.6 99.2,159.6 107.7,157.7 116.5,155.8 117.1,157.6 108.9,161.3 100.9,164.8 92.9,167.9 85.2,170.7 77.6,173.4 70.2,175.9 63,178.2 56,180.3 49.2,182.3 42.5,184.1 " />
<polygon points="42.5,184.1 40,172.4 38,172.8 " />
<polygon points="42.5,184.1 45.1,186.6 47.8,179.9 " />
<polygon points="60.9,109.6 181.3,109.6 181.3,113.6 60.9,113.6 " />
<polygon points="181.3,109.6 157.3,111.6 169.3,99.6 " />
<polygon points="121.1,66.5 121.6,85.4 123.1,102.3 125.7,117.4 129.3,130.6 134.1,142 140,151.6 147,159.5 155.4,165.8 165.2,170.7 176.6,174.2 174,185.9 160.8,181.9 149,176 138.9,168.3 130.3,158.7 123.4,147.4 118,134.5 114,120 111.2,103.8 109.6,86 109.1,66.5 " />
<polygon points="176.6,174.2 180.3,176.8 181.2,181.3 178.5,185.1 174,185.9 " />
<polygon points="175.3,175 177.3,149 175.3,149 169.3,175 " />
</g>
</svg>
