<svg xmlns="http://www.w3.org/2000/svg" xmlns:xlink="http://www.w3.org/1999/xlink" version="1.1" baseProfile="full" viewBox="0 0 200 200" width="200" height="200">
<g fill="black">
<polygon points="13.8,60 175.8,45 176.1,48.9 14.1,63.9 " />
<polygon points="175.8,45 152.1,49.2 162.9,36.1 " />
<polygon points="97.2,16.4 102.7,17.4 108,18.5 113,19.8 117.7,21.3 122.2,22.9 126.4,24.5 130.3,26.4 134,28.3 137.4,30.3 140.6,32.5 132.8,41.5 130.6,39.3 128,37.1 125.2,34.8 122,32.5 118.5,30.2 114.8,27.9 110.7,25.6 106.3,23.2 101.6,20.6 96.6,18.1 " />
<polygon points="140.6,32.5 142.6,36.6 141.2,40.9 137.1,42.9 132.8,41.5 " />
<polygon points="79,13.7 81.2,42.3 84.9,68.2 90.2,91.3 97.1,111.5 105.4,129 115.2,143.7 126.4,155.6 139.1,165 153.2,171.8 169,176 166.9,187.9 149.1,183 132.9,175.3 118.5,164.6 105.8,151.1 95,134.9 86,116 78.7,94.5 73.1,70.4 69.2,43.6 67,14.2 " />
<polygon points="67,14.2 79,13.7 66.9,11.9 " />
<polygon points="79,13.7 82.1,15.5 76.3,19.8 " />
<polygon points="169,176 172.8,178.6 173.9,183 171.3,186.8 166.9,187.9 " />
<polygon points="168.8,177 175.5,151.8 173.5,151.5 162.9,176 " />
<polygon points="161,128.2 147.1,138.9 132.9,148.6 118.5,157.3 104,164.9 89.2,171.5 74.3,177 59.2,181.5 43.9,184.8 28.5,186.9 13,187.8 12.9,186.1 28,183.2 42.8,179.6 57.3,175.2 71.7,169.9 85.8,163.7 99.7,156.6 113.4,148.6 126.9,139.7 140.2,129.8 153.3,119 " />
<polygon points="153.3,119 161,128.2 153.5,118.9 " />
<polygon points="161,128.2 161.4,131.8 154.5,129.7 " />
<polygon points="27.8,88 160.8,75 161.1,78.9 28.1,91.9 " />
<polygon points="160.8,75 137.1,79.3 147.8,66.2 " />
<polygon points="16.7,120 187.7,102 188.2,105.9 17.2,123.9 " />
<polygon points="187.7,102 164.1,106.5 174.8,93.3 " />
</g>
</svg>
