<svg xmlns="http://www.w3.org/2000/svg" xmlns:xlink="http://www.w3.org/1999/xlink" version="1.1" baseProfile="full" viewBox="0 0 200 200" width="200" height="200">
<g fill="black">
<polygon points="58.1,18.9 58.1,61.1 46.1,67.1 46.1,12.9 " />
<polygon points="52.1,18.9 147.8,18.9 147.8,22.9 52.1,22.9 " />
<polygon points="153.8,20.9 153.8,61.1 141.8,67.1 141.8,20.9 " />
<polygon points="141.8,18.9 147.8,13.9 158.8,22.9 153.8,26.9 141.8,20.9 " />
<polygon points="52.1,37.4 147.8,37.4 147.8,41.4 52.1,41.4 " />
<polygon points="52.1,57.1 147.8,57.1 147.8,61.1 52.1,61.1 " />
<polygon points="40.4,73.1 40.4,104.6 28.4,110.6 28.4,67.1 " />
<polygon points="34.4,73.1 165.5,73.1 165.5,77.1 34.4,77.1 " />
<polygon points="171.5,75.1 171.5,104.6 159.5,110.6 159.5,75.1 " />
<polygon points="159.5,73.1 165.5,68.1 176.5,77.1 171.5,81.1 159.5,75.1 " />
<polygon points="84.1,73.1 84.1,104.6 72.1,104.6 72.1,73.1 " />
<polygon points="127.8,73.1 127.8,104.6 115.8,104.6 115.8,73.1 " />
<polygon points="34.4,100.6 165.5,100.6 165.5,104.6 34.4,104.6 " />
<polygon points="19,119.1 185,119.1 185,123.1 19,123.1 " />
<polygon points="185,119.1 165,121.1 175,110.1 " />
<polygon points="96,121.1 94.9,131.5 92.4,141.1 88.5,150 83.1,157.9 76.4,164.9 68.4,170.9 59.1,175.9 48.7,180 37,183.2 24.1,185.3 23.8,183.5 36,179.5 46.7,175 56.1,170.1 64,164.7 70.5,158.7 75.7,152.3 79.5,145.4 82.2,138 83.7,129.9 84,121.1 " />
<polygon points="87,139.5 156,139.5 156,143.5 87,143.5 " />
<polygon points="161.9,141.3 162,147.3 161.9,152.9 161.5,158 160.9,162.7 160,166.9 158.8,170.8 157.2,174.3 155.2,177.5 152.7,180.1 149.6,182.2 144.1,171.5 144.9,171 145.7,170.1 146.6,168.7 147.5,166.6 148.4,163.9 149.1,160.6 149.6,156.7 149.9,152.3 150,147.3 150,141.7 " />
<polygon points="150,139.5 156,134.5 167,143.5 162,146.5 150,151.5 " />
<polygon points="149.6,182.2 145,182.5 141.5,179.6 141.2,175.1 144.1,171.5 " />
<polygon points="149.6,182.2 147.5,183.2 145.5,184.1 143.4,184.9 141.2,185.6 139.1,186.1 136.9,186.6 134.7,187 132.5,187.2 130.2,187.4 128,187.5 128,175.5 129.7,175.4 131.3,175.3 133,175.1 134.6,174.8 136.3,174.5 137.9,174 139.4,173.5 141,173 142.6,172.3 144.1,171.5 " />
<polygon points="128,181.5 128,175.5 108,175.5 108,178.5 " />
</g>
</svg>
