<svg xmlns="http://www.w3.org/2000/svg" xmlns:xlink="http://www.w3.org/1999/xlink" version="1.1" baseProfile="full" viewBox="0 0 200 200" width="200" height="200">
<g fill="black">
<polygon points="46.4,18.6 45.3,24 44,29.1 42.6,33.9 41,38.5 39.2,42.8 37.3,46.8 35.2,50.4 32.9,53.8 30.3,56.7 27.7,59.3 26.2,58.3 27.4,55 28.5,51.5 29.5,47.9 30.5,44.2 31.4,40.2 32.3,36 33,31.6 33.6,27 34.1,22.2 34.5,17.1 " />
<polygon points="34.4,18.1 46.4,18.6 34.8,15 " />
<polygon points="46.4,18.6 49.1,21 43.8,23.3 " />
<polygon points="37,33.4 92.6,33.4 92.6,37.4 37,37.4 " />
<polygon points="92.6,33.4 68.6,35.4 80.6,23.4 " />
<polygon points="65.7,15.7 65.7,63.5 53.7,63.5 53.7,13.7 " />
<polygon points="65.7,15.7 68.7,17.7 63.7,20.7 " />
<polygon points="22.4,59.5 98,59.5 98,63.5 22.4,63.5 " />
<polygon points="98,59.5 74,61.5 86,49.5 " />
<polygon points="55.6,64.7 54.5,71.4 52.8,77.6 50.5,83.4 47.7,88.7 44.3,93.4 40.4,97.5 35.9,101.1 31.1,104 25.7,106.2 19.9,107.6 19.3,105.9 24,102.8 28.1,99.5 31.7,96.1 34.8,92.4 37.3,88.5 39.5,84.3 41.1,79.7 42.4,74.8 43.2,69.4 43.7,63.7 " />
<polygon points="43.6,64.7 55.6,64.7 43.8,61.5 " />
<polygon points="55.6,64.7 58.4,66.9 53.2,69.5 " />
<polygon points="75.8,59.5 75.8,96.8 63.8,96.8 63.8,59.5 " />
<polygon points="55.3,93.7 61,92.2 66.5,90.7 71.9,89.2 77,87.7 81.9,86.3 86.6,84.8 91.2,83.4 95.5,82.1 99.8,80.9 104,79.8 104.9,81.4 101.5,84.3 97.8,86.9 93.8,89.4 89.6,91.8 85,94.2 80.3,96.4 75.2,98.7 70,100.9 64.5,103 58.8,105.1 " />
<polygon points="58.8,105.1 55.3,93.7 53.4,94.2 " />
<polygon points="58.8,105.1 61.6,107.4 63.7,100.5 " />
<polygon points="126.1,19 124.5,23.8 122.8,28.4 120.9,32.8 118.9,37 116.7,40.9 114.3,44.6 111.8,48 109,51.1 106.1,53.8 103.1,56.3 101.7,55.1 103.5,51.8 105,48.4 106.6,44.9 108,41.2 109.3,37.5 110.6,33.6 111.7,29.5 112.7,25.3 113.6,20.9 114.4,16.3 " />
<polygon points="114.2,17.2 126.1,19 114.8,14.5 " />
<polygon points="126.1,19 128.6,21.6 123,23.4 " />
<polygon points="116.1,33.6 169.7,33.6 169.7,37.6 116.1,37.6 " />
<polygon points="169.7,33.6 145.7,35.6 157.7,23.6 " />
<polygon points="144.6,16 144.6,63.9 132.6,63.9 132.6,14 " />
<polygon points="144.6,16 147.6,18 142.6,21 " />
<polygon points="100.9,59.9 178.4,59.9 178.4,63.9 100.9,63.9 " />
<polygon points="178.4,59.9 154.4,61.9 166.4,49.9 " />
<polygon points="133.7,65.5 132.5,72.5 130.7,78.9 128.2,84.9 125,90.3 121,95.1 116.5,99.3 111.3,102.8 105.6,105.7 99.3,107.8 92.5,109.1 92,107.4 97.9,104.2 103.1,100.9 107.5,97.5 111.3,93.7 114.5,89.7 117,85.5 119,80.9 120.4,75.9 121.3,70.5 121.7,64.7 " />
<polygon points="121.6,65.7 133.7,65.5 121.8,62.5 " />
<polygon points="133.7,65.5 136.5,67.7 131.3,70.4 " />
<polygon points="153.3,59.9 153.3,93.2 141.3,93.2 141.3,59.9 " />
<polygon points="153.3,93.2 150.9,96.8 147.3,99.2 143.7,96.8 141.3,93.2 " />
<polygon points="153.3,93.2 153.3,94.5 153.5,95.4 153.7,96 153.9,96.3 154,96.5 154.2,96.6 154.5,96.8 155.1,97 156,97.2 157.3,97.2 157.3,109.2 154.7,109.1 152.2,108.6 149.8,107.8 147.5,106.6 145.5,105 143.9,102.9 142.7,100.7 141.8,98.3 141.4,95.8 141.3,93.2 " />
<polygon points="157.3,97.2 161.5,99 163.3,103.2 161.5,107.4 157.3,109.2 " />
<polygon points="157.3,97.2 177.7,97.2 177.7,109.2 157.3,109.2 " />
<polygon points="177.7,97.2 181.3,99.6 183.7,103.2 181.3,106.8 177.7,109.2 " />
<polygon points="171.7,98.2 177.7,72.2 179.7,72.2 177.7,98.2 " />
<polygon points="59.5,115.2 59.5,181 47.5,187 47.5,109.2 " />
<polygon points="53.5,115.2 146.4,115.2 146.4,119.2 53.5,119.2 " />
<polygon points="152.4,117.2 152.4,178 140.4,184 140.4,117.2 " />
<polygon points="140.4,115.2 146.4,110.2 157.4,119.2 152.4,123.2 140.4,117.2 " />
<polygon points="53.5,141.8 146.4,141.8 146.4,145.8 53.5,145.8 " />
<polygon points="53.5,170 146.4,170 146.4,174 53.5,174 " />
</g>
</svg>
