<svg xmlns="http://www.w3.org/2000/svg" xmlns:xlink="http://www.w3.org/1999/xlink" version="1.1" baseProfile="full" viewBox="0 0 200 200" width="200" height="200">
<g fill="black">
<polygon points="45.4,37.4 45.4,127.5 33.4,133.5 33.4,31.4 " />
<polygon points="39.4,37.4 162.5,37.4 162.5,41.4 39.4,41.4 " />
<polygon points="168.5,39.4 168.5,121.5 156.5,127.5 156.5,39.4 " />
<polygon points="156.5,37.4 162.5,32.4 173.5,41.4 168.5,45.4 156.5,39.4 " />
<polygon points="39.4,73.4 162.5,73.4 162.5,77.4 39.4,77.4 " />
<polygon points="39.4,111.5 162.5,111.5 162.5,115.5 39.4,115.5 " />
<polygon points="108,15 108,82 96,82 96,13 " />
<polygon points="108,15 111,17 108,19 " />
<polygon points="108,82 105.6,85.6 102,88 98.4,85.6 96,82 " />
<polygon points="108,82 106.8,98.7 103.9,114.3 99.4,128.5 93.1,141.5 85.1,153 75.4,163.2 64.2,171.8 51.4,179 37,184.7 21.2,188.8 20.7,187.1 35.7,181.2 48.9,174.3 60.3,166.5 70.2,157.7 78.3,147.9 84.9,137 90,125 93.5,111.9 95.5,97.5 96,82 " />
<polygon points="102.9,82.9 105.9,99.3 109.7,114 114.5,127.1 120.4,138.6 127.2,148.4 135,156.7 143.9,163.5 153.8,168.8 164.9,172.8 177.1,175.5 174.8,188.4 161.1,184.8 148.7,179.5 137.6,172.5 127.9,164 119.7,154 113,142.5 107.8,129.7 104,115.5 101.8,99.9 101.1,83 " />
<polygon points="174.8,188.4 177.1,175.5 186.6,177.1 " />
</g>
</svg>
