<svg xmlns="http://www.w3.org/2000/svg" xmlns:xlink="http://www.w3.org/1999/xlink" version="1.1" baseProfile="full" viewBox="0 0 200 200" width="200" height="200">
<g fill="black">
<polygon points="13.8,59 72.1,59 72.1,63 13.8,63 " />
<polygon points="72.1,59 52.1,61 62.1,50 " />
<polygon points="50.1,16 50.1,183 38.1,189 38.1,14 " />
<polygon points="50.1,16 53.1,18 48.1,21 " />
<polygon points="47.8,61 47.7,61.9 45.7,71.7 43.5,81.2 41,90.6 38.1,99.7 35,108.5 31.6,117.1 27.9,125.4 23.9,133.4 19.4,141.1 14.6,148.4 13,147.5 16,139.4 19,131.2 21.8,122.9 24.5,114.5 27,105.9 29.2,97.1 31.2,88.1 33,79 34.5,69.6 35.7,61 " />
<polygon points="46.9,85.6 49.8,86.9 52.8,88 55.6,89.3 58.3,90.8 60.9,92.5 63.4,94.3 65.8,96.4 68,98.6 70.1,100.9 72.1,103.4 61.6,109.2 60.7,106.9 59.6,104.6 58.5,102.3 57.1,100.1 55.7,97.9 54.1,95.7 52.3,93.5 50.4,91.3 48.4,89.1 46,87.2 " />
<polygon points="72.1,103.4 72.5,108 69.8,111.6 65.2,112 61.6,109.2 " />
<polygon points="124.7,59 182.1,59 182.1,63 124.7,63 " />
<polygon points="182.1,59 162.1,61 172.1,50 " />
<polygon points="159.4,15 159.4,182 147.4,188 147.4,13 " />
<polygon points="159.4,15 162.4,17 157.4,20 " />
<polygon points="157.5,61 157.4,61.9 155.3,71.9 153,81.6 150.4,91.1 147.5,100.3 144.3,109.3 140.9,117.9 137.1,126.3 133,134.4 128.4,142.1 123.5,149.4 121.9,148.5 125.1,140.4 128.1,132.2 131,123.8 133.7,115.3 136.3,106.6 138.6,97.7 140.7,88.6 142.5,79.3 144.1,69.8 145.3,61 " />
<polygon points="157.4,61.8 160,73.8 162.6,85 165.2,95.7 167.9,105.6 170.8,115 173.9,123.6 177.1,131.6 180.5,138.9 184,145.6 187.8,151.5 176.5,158.4 172.9,151.3 169.7,143.7 166.7,135.5 164.1,126.8 161.8,117.4 159.8,107.5 158.1,97.1 156.8,86 155.9,74.3 155.6,62 " />
<polygon points="176.5,158.4 187.8,151.5 177.9,160.8 " />
<polygon points="68.4,28 121.2,28 121.2,32 68.4,32 " />
<polygon points="126.1,33.3 123.8,36 121.5,38.7 119,41.5 116.4,44.3 113.7,47.1 110.9,50 108,52.8 105,55.7 101.7,58.5 98.5,61.5 97.1,60.4 99.3,56.6 101.3,52.8 103.4,49.2 105.4,45.7 107.4,42.3 109.3,39 111.1,35.8 112.9,32.6 114.6,29.6 116.2,26.6 " />
<polygon points="115.2,28 121.2,23 132.2,32 127.2,35 115.2,40 " />
<polygon points="64.1,79 125.5,79 125.5,83 64.1,83 " />
<polygon points="131,83.3 129.2,86.5 127.3,89.7 125.3,93 123.3,96.4 121.1,99.8 118.8,103.2 116.3,106.7 113.7,110.2 110.9,113.8 108.1,117.4 106.5,116.5 108.1,112.2 109.6,108 111,103.9 112.5,100 113.9,96.1 115.2,92.4 116.5,88.8 117.7,85.3 118.9,81.9 120,78.6 " />
<polygon points="119.5,79 125.5,74 136.5,83 131.5,86 119.5,91 " />
<polygon points="102.9,79 102.9,172 90.9,172 90.9,79 " />
<polygon points="102.9,172 100.5,175.6 96.9,178 93.3,175.6 90.9,172 " />
<polygon points="102.9,172 102.8,174.5 102.4,177 101.5,179.4 100.3,181.7 98.7,183.7 96.7,185.3 94.4,186.6 92,187.4 89.5,187.8 86.9,188 86.9,176 88.2,175.9 89.1,175.7 89.7,175.5 90,175.4 90.2,175.2 90.3,175 90.5,174.7 90.7,174.1 90.9,173.2 90.9,172 " />
<polygon points="66.9,179 66.9,176 86.9,176 86.9,182 " />
<polygon points="79.2,45.7 82.7,47.2 86.3,48.7 89.6,50.5 92.8,52.5 95.7,54.7 98.5,57.1 101.2,59.7 103.6,62.5 105.9,65.5 108,68.6 97.1,73.8 96.1,71 94.9,68.2 93.5,65.5 91.9,62.8 90.1,60.1 88.2,57.5 86,54.9 83.7,52.3 81.2,49.6 78.3,47.2 " />
<polygon points="108,68.6 108.2,73.2 105.1,76.7 100.6,76.9 97.1,73.8 " />
</g>
</svg>
