<svg xmlns="http://www.w3.org/2000/svg" xmlns:xlink="http://www.w3.org/1999/xlink" version="1.1" baseProfile="full" viewBox="0 0 200 200" width="200" height="200">
<g fill="black">
<polygon points="14,39.6 98,39.6 98,43.6 14,43.6 " />
<polygon points="98,39.6 74,41.6 86,29.6 " />
<polygon points="62,15.2 62,75.8 50,75.8 50,13.2 " />
<polygon points="62,15.2 65,17.2 62,19.2 " />
<polygon points="20,71.8 92,71.8 92,75.8 20,75.8 " />
<polygon points="92,71.8 68,73.8 80,61.8 " />
<polygon points="28.9,90.6 28.9,182.1 16.9,188.1 16.9,84.6 " />
<polygon points="22.9,90.6 86.9,90.6 86.9,94.6 22.9,94.6 " />
<polygon points="92.9,92.6 92.9,175.1 80.9,175.1 80.9,92.6 " />
<polygon points="80.9,90.6 86.9,85.6 97.9,94.6 92.9,98.6 80.9,92.6 " />
<polygon points="92.9,175.1 90.5,178.7 86.9,181.1 83.3,178.7 80.9,175.1 " />
<polygon points="92.9,175.1 92.8,177.6 92.4,180.1 91.6,182.5 90.3,184.8 88.7,186.8 86.7,188.5 84.4,189.7 82,190.5 79.5,190.9 76.9,191.1 76.9,179.1 78.2,179 79.1,178.9 79.7,178.7 80,178.5 80.2,178.3 80.4,178.1 80.5,177.8 80.7,177.2 80.9,176.3 80.9,175.1 " />
<polygon points="76.9,185.1 76.9,179.1 56.9,179.1 56.9,182.1 " />
<polygon points="34.1,136.8 74.8,136.8 74.8,140.8 34.1,140.8 " />
<polygon points="74.8,136.8 54.8,138.8 64.8,127.8 " />
<polygon points="129.4,26 129.4,52 117.4,52 117.4,20 " />
<polygon points="129.4,52 127,55.6 123.4,58 119.8,55.6 117.4,52 " />
<polygon points="129.4,52 128.8,58 127.7,63.8 126,69.4 123.8,74.8 121,79.9 117.8,84.7 114,89.2 109.6,93.4 104.8,97.3 99.3,100.6 98.2,99.3 102.2,94.5 105.7,89.8 108.7,85.2 111.4,80.6 113.5,76 115.2,71.4 116.4,66.6 117.2,61.8 117.5,57 117.4,52 " />
<polygon points="123.4,26 160,26 160,30 123.4,30 " />
<polygon points="166,28 166,73 154,73 154,28 " />
<polygon points="154,26 160,21 171,30 166,34 154,28 " />
<polygon points="166,73 163.6,76.6 160,79 156.4,76.6 154,73 " />
<polygon points="166,73 166.1,74.2 166.2,75.1 166.4,75.7 166.6,76 166.7,76.2 166.9,76.4 167.3,76.5 167.9,76.7 168.8,76.9 170,77 170,89 167.4,88.8 164.9,88.4 162.5,87.6 160.3,86.3 158.3,84.7 156.6,82.7 155.4,80.4 154.6,78 154.1,75.5 154,73 " />
<polygon points="170,77 174.2,78.8 176,83 174.2,87.2 170,89 " />
<polygon points="170,77 185.4,77 185.4,89 170,89 " />
<polygon points="185.4,77 189,79.4 191.4,83 189,86.6 185.4,89 " />
<polygon points="179.4,78 185.4,52 187.4,52 185.4,78 " />
<polygon points="109.1,103 168.7,103 168.7,107 109.1,107 " />
<polygon points="174.5,106.5 170,119.8 164.6,132 158.4,143.1 151.2,153.2 143.2,162.1 134.4,169.9 124.7,176.5 114.2,181.9 103,186 91.1,188.8 90.6,187.1 101.7,182.5 111.8,177.1 121.1,171 129.5,164.1 137,156.3 143.8,147.6 149.7,138 154.9,127.4 159.3,115.9 163,103.4 " />
<polygon points="162.7,103 168.7,98 179.7,107 174.7,111 168.7,111 " />
<polygon points="120.5,105.8 124.2,116.7 128.4,126.6 133.1,135.6 138.4,143.5 144.3,150.4 150.8,156.4 158,161.4 165.9,165.7 174.5,169 183.9,171.5 180.6,184.4 170.2,180.8 160.5,176.2 151.8,170.6 144,164 137.2,156.5 131.4,148.1 126.6,138.9 122.9,128.8 120.2,117.8 118.7,106.1 " />
<polygon points="180.6,184.4 183.9,171.5 192.4,173.7 " />
</g>
</svg>
