<svg xmlns="http://www.w3.org/2000/svg" xmlns:xlink="http://www.w3.org/1999/xlink" version="1.1" baseProfile="full" viewBox="0 0 200 200" width="200" height="200">
<g fill="black">
<polygon points="25.4,20.5 28.2,21.6 31.2,22.4 34,23.5 36.6,24.8 39.1,26.3 41.5,28 43.7,29.8 45.7,31.9 47.6,34.1 49.3,36.5 38.4,41.5 37.9,39.6 37.2,37.6 36.3,35.6 35.3,33.7 34,31.7 32.6,29.7 30.9,27.7 29.1,25.8 27.1,23.7 24.6,22.1 " />
<polygon points="49.3,36.5 49.5,41.1 46.4,44.5 41.8,44.6 38.4,41.5 " />
<polygon points="14.2,66.2 17.3,67.3 20.4,68.1 23.4,69.2 26.1,70.5 28.7,72 31.1,73.7 33.4,75.6 35.5,77.6 37.3,79.9 39,82.4 27.9,87.1 27.5,85.2 26.9,83.3 26,81.4 25,79.4 23.7,77.5 22.2,75.5 20.4,73.5 18.4,71.5 16.2,69.5 13.5,67.8 " />
<polygon points="39,82.4 39,87 35.8,90.3 31.2,90.2 27.9,87.1 " />
<polygon points="15.4,132.9 19.8,134.1 23.9,136.4 27.5,139.6 30.6,143.6 33.2,148.3 35.2,153.7 36.8,159.8 37.8,166.4 38.4,173.6 38.4,181.4 26.5,180.7 27,173.6 27.1,167.1 26.8,161.2 26.2,155.9 25.2,151.3 23.9,147.1 22.2,143.5 20.2,140.3 17.7,137.3 14.7,134.5 " />
<polygon points="38.4,181.4 36.4,185.5 32.1,187 28,185 26.5,180.7 " />
<polygon points="23.5,149 24.5,145.8 26,141.6 28,136.3 30.3,129.9 33.2,122.3 36.6,113.5 40.4,103.7 44.8,92.7 49.8,80.5 55.4,67.3 57.1,67.9 53.4,81.8 49.9,94.4 46.6,105.8 43.8,115.9 41.3,124.9 39.2,132.7 37.6,139.2 36.3,144.6 35.6,148.6 35.2,151.4 " />
<polygon points="49.7,74 96.5,74 96.5,78 49.7,78 " />
<polygon points="96.5,74 80.5,76 88.5,67 " />
<polygon points="78.5,28 78.5,146 66.5,146 66.5,26 " />
<polygon points="78.5,28 81.5,30 78.5,32 " />
<polygon points="47.8,153.2 51.6,151.5 55.6,149.7 59.9,147.7 64.4,145.6 69.1,143.4 74.1,141.1 79.3,138.6 84.8,136.1 90.6,133.6 96.7,131.2 97.6,132.7 92.5,136.9 87.5,140.8 82.6,144.3 77.9,147.6 73.3,150.8 68.9,153.7 64.8,156.5 60.8,159.1 57,161.5 53.4,163.8 " />
<polygon points="53.4,163.8 47.8,153.2 46,154.1 " />
<polygon points="53.4,163.8 56.6,165.5 57.3,158.3 " />
<polygon points="87.4,61 135.9,61 135.9,65 87.4,65 " />
<polygon points="135.9,61 115.9,63 125.9,52 " />
<polygon points="113.7,17 113.7,90 103.7,90 103.7,15 " />
<polygon points="113.7,17 116.2,19 113.7,21 " />
<polygon points="113.7,90 111.7,93 108.7,95 105.7,93 103.7,90 " />
<polygon points="113.7,90 113,105.5 111.8,119.8 110.2,132.9 108,144.7 105.3,155.3 102.2,164.7 98.4,172.7 94.1,179.5 89.3,184.8 83.9,188.6 83,187.3 86.9,182.7 90.4,177.1 93.5,170.4 96.2,162.6 98.5,153.6 100.4,143.3 101.9,131.8 102.9,119.1 103.5,105.1 103.7,89.9 " />
<polygon points="126.3,89 126.3,166 116.3,166 116.3,87 " />
<polygon points="126.3,89 128.8,91 126.3,93 " />
<polygon points="126.3,166 124.3,169 121.3,171 118.3,169 116.3,166 " />
<polygon points="126.3,166 126.5,167.3 126.8,168.3 127.1,169 127.4,169.4 127.7,169.6 128,169.7 128.5,169.8 129.1,169.9 130.1,170 131.3,170 131.3,182 128.8,181.7 126.3,181.2 124,180.3 121.8,179 119.9,177.3 118.4,175.3 117.3,173.1 116.7,170.8 116.4,168.4 116.3,166 " />
<polygon points="131.3,170 135.5,171.8 137.3,176 135.5,180.2 131.3,182 " />
<polygon points="131.3,170 182.4,170 182.4,182 131.3,182 " />
<polygon points="182.4,170 186,172.4 188.4,176 186,179.6 182.4,182 " />
<polygon points="176.4,171 182.4,145 184.4,145 182.4,171 " />
<polygon points="116.8,22.8 119.2,24.4 121.8,25.8 124.3,27.5 126.6,29.4 128.8,31.5 130.8,33.9 132.8,36.5 134.6,39.2 136.2,42.2 137.7,45.2 126.3,48.9 125.8,46.1 125.1,43.4 124.4,40.8 123.5,38.2 122.5,35.7 121.4,33.3 120.3,31 119,28.6 117.6,26.3 115.7,24.3 " />
<polygon points="137.7,45.2 137.3,49.8 133.9,52.8 129.3,52.4 126.3,48.9 " />
<polygon points="175.1,33.7 171.9,38.7 168.4,43.5 164.9,48.2 161.2,52.7 157.3,57.1 153.3,61.2 149.1,65.2 144.8,69 140.2,72.4 135.4,75.6 134.2,74.3 137.6,69.7 140.9,65.2 144.3,60.8 147.5,56.3 150.7,51.8 153.7,47.2 156.6,42.5 159.4,37.7 162.1,32.8 164.7,27.8 " />
<polygon points="164.7,27.8 175.1,33.7 165.2,26.9 " />
<polygon points="175.1,33.7 176.8,37 169.6,37.5 " />
<polygon points="178.5,72.4 174.9,77.9 171.2,83.1 167.4,88.1 163.3,92.9 159.2,97.4 154.8,101.7 150.3,105.8 145.5,109.5 140.6,112.9 135.4,115.9 134.2,114.5 138.1,110.1 141.9,105.6 145.6,101.2 149.2,96.6 152.7,92 156,87.2 159.2,82.3 162.3,77.2 165.2,72 168,66.6 " />
<polygon points="168,66.6 178.5,72.4 168.5,65.6 " />
<polygon points="178.5,72.4 180.1,75.6 172.9,76.2 " />
<polygon points="182.4,111 178.1,118 173.6,124.6 168.8,130.8 163.7,136.6 158.4,141.9 152.9,146.7 147.1,151.1 141,155 134.7,158.4 128.1,161.1 127.2,159.5 132.7,155.1 137.9,150.7 142.9,146.1 147.7,141.2 152.3,136 156.6,130.6 160.7,124.8 164.6,118.7 168.3,112.2 171.8,105.4 " />
<polygon points="171.8,105.4 182.4,111 172.3,104.4 " />
<polygon points="182.4,111 184.1,114.2 176.9,114.9 " />
</g>
</svg>
