<svg xmlns="http://www.w3.org/2000/svg" xmlns:xlink="http://www.w3.org/1999/xlink" version="1.1" baseProfile="full" viewBox="0 0 200 200" width="200" height="200">
<g fill="black">
<polygon points="27.3,20.6 30.6,21.7 34,22.5 37.1,23.6 40.1,24.9 42.9,26.4 45.6,28 48.1,29.9 50.4,32 52.5,34.2 54.4,36.7 43.8,42.3 43.1,40.3 42.2,38.3 41.1,36.3 39.7,34.2 38.1,32.2 36.3,30.2 34.3,28.1 32,26.1 29.5,24 26.6,22.3 " />
<polygon points="54.4,36.7 54.8,41.2 51.9,44.8 47.4,45.2 43.8,42.3 " />
<polygon points="14.4,66.8 17.9,67.8 21.5,68.7 24.8,69.7 27.9,71 30.8,72.5 33.6,74.2 36.1,76.1 38.4,78.2 40.5,80.5 42.4,83.1 31.6,88.3 31,86.4 30.2,84.4 29.1,82.5 27.8,80.5 26.1,78.5 24.3,76.4 22.1,74.4 19.6,72.3 16.9,70.2 13.7,68.5 " />
<polygon points="42.4,83.1 42.6,87.6 39.6,91.1 35,91.3 31.6,88.3 " />
<polygon points="15.7,134.1 20.7,135.4 25.3,137.6 29.3,140.8 32.9,144.8 35.8,149.6 38.2,155.1 39.9,161.3 41.1,168 41.7,175.3 41.7,183.3 29.8,182.5 30.3,175.3 30.4,168.8 30,162.9 29.2,157.7 28,152.9 26.4,148.8 24.3,145.1 21.8,141.7 18.8,138.7 15.1,135.8 " />
<polygon points="41.7,183.3 39.7,187.3 35.4,188.9 31.3,186.8 29.8,182.5 " />
<polygon points="26.3,150.4 27.5,147.1 29.2,142.8 31.4,137.5 34.1,131 37.4,123.3 41.2,114.5 45.6,104.6 50.5,93.5 56.2,81.3 62.6,68 64.3,68.6 59.7,82.7 55.5,95.4 51.7,107 48.3,117.2 45.3,126.3 42.8,134.2 40.8,140.8 39.4,146.2 38.4,150.3 38,153 " />
<polygon points="54.4,48.9 96.3,48.9 96.3,52.9 54.4,52.9 " />
<polygon points="96.3,48.9 76.3,50.9 86.3,39.9 " />
<polygon points="79.3,48.9 79.3,141.6 67.3,141.6 67.3,48.9 " />
<polygon points="52,146 55.8,144.5 59.9,142.9 64.1,141.2 68.5,139.4 73.2,137.5 78,135.6 83.1,133.6 88.4,131.5 94,129.5 99.9,127.6 100.7,129.2 95.8,132.9 90.9,136.3 86.1,139.4 81.4,142.3 77,145.1 72.7,147.7 68.6,150.2 64.6,152.5 60.9,154.7 57.3,156.8 " />
<polygon points="57.3,156.8 52,146 50.2,146.9 " />
<polygon points="57.3,156.8 60.4,158.7 61.4,151.5 " />
<polygon points="86.2,61 135.2,61 135.2,65 86.2,65 " />
<polygon points="135.2,61 115.2,63 125.2,52 " />
<polygon points="112.8,17 112.8,90 102.8,90 102.8,15 " />
<polygon points="112.8,17 115.3,19 110.8,22 " />
<polygon points="112.8,90 110.8,93 107.8,95 104.8,93 102.8,90 " />
<polygon points="112.8,90 112.1,105.5 110.9,119.8 109.2,132.9 107,144.7 104.4,155.3 101.1,164.7 97.4,172.7 93,179.5 88.1,184.8 82.8,188.6 81.9,187.3 85.8,182.7 89.3,177 92.4,170.4 95.2,162.6 97.5,153.6 99.4,143.3 100.9,131.8 102,119.1 102.6,105.1 102.8,89.9 " />
<polygon points="125.5,89 125.5,166 115.5,166 115.5,87 " />
<polygon points="125.5,89 128,91 123.5,94 " />
<polygon points="125.5,166 123.5,169 120.5,171 117.5,169 115.5,166 " />
<polygon points="125.5,166 125.7,167.3 126,168.3 126.3,169 126.6,169.4 126.9,169.6 127.2,169.7 127.7,169.8 128.3,169.9 129.3,170 130.5,170 130.5,182 128,181.7 125.5,181.2 123.2,180.3 121,179 119.1,177.3 117.6,175.3 116.6,173.1 115.9,170.8 115.6,168.4 115.5,166 " />
<polygon points="130.5,170 134.7,171.8 136.5,176 134.7,180.2 130.5,182 " />
<polygon points="130.5,170 182.3,170 182.3,182 130.5,182 " />
<polygon points="182.3,170 185.9,172.4 188.3,176 185.9,179.6 182.3,182 " />
<polygon points="176.3,171 182.3,145 184.3,145 182.3,171 " />
<polygon points="116,22.8 118.4,24.3 121,25.7 123.5,27.4 125.8,29.4 128,31.5 130.1,33.9 132,36.5 133.9,39.2 135.5,42.1 137.1,45.2 125.7,49 125.1,46.1 124.4,43.4 123.7,40.8 122.8,38.2 121.8,35.7 120.7,33.3 119.5,31 118.2,28.6 116.7,26.3 114.9,24.3 " />
<polygon points="137.1,45.2 136.7,49.8 133.2,52.8 128.7,52.4 125.7,49 " />
<polygon points="174.8,33.8 171.5,38.7 168.1,43.6 164.5,48.2 160.7,52.7 156.8,57.1 152.8,61.2 148.6,65.2 144.2,69 139.6,72.5 134.7,75.6 133.5,74.3 137,69.7 140.4,65.2 143.7,60.8 147,56.3 150.2,51.8 153.3,47.1 156.3,42.4 159.1,37.7 161.8,32.8 164.4,27.8 " />
<polygon points="163.9,28.7 174.8,33.8 165,26.9 " />
<polygon points="174.8,33.8 176.4,37 170.6,37.1 " />
<polygon points="178.2,72.4 174.6,77.9 170.9,83.1 167,88.1 162.9,92.9 158.7,97.5 154.3,101.8 149.7,105.8 145,109.6 139.9,112.9 134.7,115.9 133.6,114.5 137.5,110.1 141.3,105.6 145.1,101.2 148.7,96.6 152.2,92 155.6,87.2 158.9,82.2 162,77.2 164.9,71.9 167.7,66.5 " />
<polygon points="167.2,67.4 178.2,72.4 168.3,65.6 " />
<polygon points="178.2,72.4 179.8,75.7 174,75.8 " />
<polygon points="182.2,111 177.8,118 173.3,124.6 168.4,130.8 163.3,136.6 158,141.9 152.4,146.8 146.5,151.2 140.4,155.1 134,158.4 127.4,161.1 126.5,159.5 132,155.1 137.3,150.7 142.4,146.1 147.2,141.2 151.9,136 156.3,130.5 160.4,124.8 164.4,118.6 168.1,112.2 171.6,105.4 " />
<polygon points="171.1,106.3 182.2,111 172.1,104.4 " />
<polygon points="182.2,111 183.9,114.2 178,114.5 " />
</g>
</svg>
