<svg xmlns="http://www.w3.org/2000/svg" xmlns:xlink="http://www.w3.org/1999/xlink" version="1.1" baseProfile="full" viewBox="0 0 200 200" width="200" height="200">
<g fill="black">
<polygon points="116,14 116,39 104,39 104,12 " />
<polygon points="116,14 119,16 114,19 " />
<polygon points="46,35 186,35 186,39 46,39 " />
<polygon points="186,35 166,37 176,26 " />
<polygon points="52,35 52,107 40,107 40,29 " />
<polygon points="52,107 49.6,110.6 46,113 42.4,110.6 40,107 " />
<polygon points="52,107 51.4,117 50.3,126.7 48.7,135.9 46.6,144.6 44,152.9 40.9,160.8 37.2,168.1 32.9,174.9 28.1,181 22.6,186.5 21.3,185.4 25,178.9 28.3,172.2 31.2,165.2 33.8,158 35.9,150.5 37.6,142.5 38.8,134.2 39.7,125.6 40,116.5 40,107 " />
<polygon points="19.3,55.9 21.8,57.6 24.4,59.1 26.9,60.8 29.3,62.6 31.6,64.7 33.8,66.8 35.8,69.1 37.7,71.6 39.5,74.1 41.2,76.8 30.3,81.6 29.5,79.1 28.7,76.6 27.8,74.1 26.7,71.6 25.6,69.2 24.3,66.8 23,64.4 21.6,61.9 20.1,59.4 18.1,57.3 " />
<polygon points="41.2,76.8 41.3,81.4 38.2,84.7 33.6,84.7 30.3,81.6 " />
<polygon points="13.8,129.7 16.5,127.8 19.2,125.9 21.8,123.8 24.3,121.6 26.9,119.3 29.4,117 31.8,114.5 34.3,111.9 36.9,109.4 39.2,106.5 40.7,107.4 39.3,110.9 38,114.4 36.5,117.8 34.8,121.1 32.9,124.3 30.9,127.4 28.8,130.4 26.5,133.3 24.1,136.1 21.6,138.9 " />
<polygon points="21.6,138.9 13.8,129.7 12.3,131 " />
<polygon points="21.6,138.9 25.1,139.8 24.2,132.7 " />
<polygon points="123.3,47.3 121.5,47.9 119.7,48.5 117.8,49 115.8,49.6 113.8,50.1 111.7,50.6 109.6,51 107.4,51.4 105.1,51.7 102.9,52.5 102.2,50.8 104.1,49.7 105.8,48.1 107.4,46.6 109,45.1 110.4,43.7 111.9,42.4 113.2,41 114.5,39.7 115.7,38.5 116.9,37.2 " />
<polygon points="116,37.8 123.3,47.3 124.4,46.7 " />
<polygon points="124.4,46.7 124.5,50.2 118.9,47.8 " />
<polygon points="85.4,49.7 85.4,96.1 73.4,102.1 73.4,43.7 " />
<polygon points="79.4,49.7 162.6,49.7 162.6,53.7 79.4,53.7 " />
<polygon points="168.6,51.7 168.6,93.1 156.6,99.1 156.6,51.7 " />
<polygon points="156.6,49.7 162.6,44.7 173.6,53.7 168.6,57.7 156.6,51.7 " />
<polygon points="79.4,61.4 162.6,61.4 162.6,65.4 79.4,65.4 " />
<polygon points="79.4,72.8 162.6,72.8 162.6,76.8 79.4,76.8 " />
<polygon points="79.4,85.1 162.6,85.1 162.6,89.1 79.4,89.1 " />
<polygon points="123.4,93.6 117.7,98.2 111.7,102.5 105.4,106.5 98.7,110.2 91.7,113.6 84.4,116.6 76.7,119.4 68.6,121.8 60.2,123.7 51.5,125.2 51,123.4 59.1,120.1 66.9,116.7 74.2,113.3 81.2,109.7 87.8,106 94,102.2 99.9,98.1 105.3,93.9 110.4,89.5 115.1,84.9 " />
<polygon points="114.4,85.6 123.4,93.6 115.4,84.7 " />
<polygon points="123.4,93.6 124,97.2 118.3,95.6 " />
<polygon points="118.3,89.8 124.2,92.7 129.9,95.6 135.8,98.4 141.6,101 147.6,103.5 153.7,105.7 160,107.7 166.4,109.6 172.9,111.2 179.6,112.6 176.5,125.4 169.5,123.2 162.7,120.8 156.2,118.1 149.8,115.1 143.6,111.9 137.7,108.4 132.1,104.6 126.7,100.6 121.7,96.1 117.2,91.2 " />
<polygon points="176.5,125.4 179.6,112.6 188.3,114.7 " />
<polygon points="91.3,113 143.4,113 143.4,117 91.3,117 " />
<polygon points="143.4,113 127.4,115 135.4,106 " />
<polygon points="75.8,123.3 75.8,140.8 64.8,146.3 64.8,117.8 " />
<polygon points="70.3,123.3 92.1,123.3 92.1,127.3 70.3,127.3 " />
<polygon points="96.6,125.3 96.6,140.8 87.6,145.3 87.6,125.3 " />
<polygon points="87.6,123.3 92.1,118.3 101.6,127.3 96.6,129.8 87.6,125.3 " />
<polygon points="70.3,136.8 92.1,136.8 92.1,140.8 70.3,140.8 " />
<polygon points="112,123.3 112,140.8 103,145.3 103,118.8 " />
<polygon points="107.5,123.3 129.4,123.3 129.4,127.3 107.5,127.3 " />
<polygon points="133.9,125.3 133.9,140.8 124.9,145.3 124.9,125.3 " />
<polygon points="124.9,123.3 129.4,118.3 138.9,127.3 133.9,129.8 124.9,125.3 " />
<polygon points="107.5,136.8 129.4,136.8 129.4,140.8 107.5,140.8 " />
<polygon points="149.3,123.3 149.3,140.8 140.3,145.3 140.3,118.8 " />
<polygon points="144.8,123.3 166.6,123.3 166.6,127.3 144.8,127.3 " />
<polygon points="172.1,125.3 172.1,140.8 161.1,146.3 161.1,125.3 " />
<polygon points="161.1,123.3 166.6,118.3 177.1,127.3 172.1,130.8 161.1,125.3 " />
<polygon points="144.8,136.8 166.6,136.8 166.6,140.8 144.8,140.8 " />
<polygon points="79.9,147.5 79.9,180.2 67.9,186.2 67.9,141.5 " />
<polygon points="73.9,147.5 163,147.5 163,151.5 73.9,151.5 " />
<polygon points="169,149.5 169,172.6 157,172.6 157,149.5 " />
<polygon points="157,147.5 163,142.5 174,151.5 169,155.5 157,149.5 " />
<polygon points="169,172.6 166.6,176.2 163,178.6 159.4,176.2 157,172.6 " />
<polygon points="169,172.6 168.8,175.1 168.4,177.6 167.6,180 166.4,182.3 164.7,184.3 162.7,186 160.4,187.2 158,188 155.5,188.4 153,188.6 153,176.6 154.2,176.5 155.1,176.3 155.7,176.2 156,176 156.2,175.8 156.4,175.6 156.5,175.3 156.7,174.7 156.9,173.8 157,172.6 " />
<polygon points="153,182.6 153,176.6 133,176.6 133,179.6 " />
<polygon points="109.8,147.5 109.8,178 97.8,184 97.8,147.5 " />
<polygon points="139.1,147.5 139.1,178 127.1,184 127.1,147.5 " />
<polygon points="73.9,163 163,163 163,167 73.9,167 " />
</g>
</svg>
