<svg xmlns="http://www.w3.org/2000/svg" xmlns:xlink="http://www.w3.org/1999/xlink" version="1.1" baseProfile="full" viewBox="0 0 200 200" width="200" height="200">
<g fill="black">
<polygon points="159.6,33 150.1,33.8 139.9,34.6 129,35.6 117.5,36.7 105.3,37.9 92.4,39.2 78.8,40.6 64.6,42.1 49.7,43.5 34.1,44.8 33.8,43.1 49.1,39.7 63.8,36.8 77.9,34.1 91.3,31.7 104.1,29.5 116.3,27.5 127.8,25.7 138.6,24 148.8,22.5 158.3,21.1 " />
<polygon points="158.3,21.1 159.6,33 170.2,31.9 " />
<polygon points="170.2,31.9 170.6,34.9 161.8,29.8 " />
<polygon points="51.3,44.9 54,46.7 56.8,48.4 59.5,50.3 62,52.4 64.4,54.7 66.7,57 68.8,59.6 70.8,62.2 72.6,65 74.4,67.9 63.3,72.5 62.5,69.7 61.6,67.1 60.6,64.4 59.5,61.8 58.3,59.2 56.9,56.6 55.5,54 53.9,51.4 52.2,48.7 50.1,46.3 " />
<polygon points="74.4,67.9 74.3,72.5 71.1,75.7 66.5,75.7 63.3,72.5 " />
<polygon points="84.3,40.7 87.5,42.3 90.7,43.8 93.7,45.5 96.5,47.4 99.1,49.4 101.5,51.6 103.6,54 105.6,56.6 107.3,59.4 108.8,62.3 97.3,65.9 96.9,63.6 96.4,61.3 95.6,59 94.5,56.7 93.3,54.3 91.8,51.9 90.1,49.5 88.1,47 86,44.5 83.3,42.2 " />
<polygon points="108.8,62.3 108.3,66.8 104.8,69.8 100.3,69.3 97.3,65.9 " />
<polygon points="156.2,47.3 153.2,50.9 150,54.5 146.7,58.2 143.2,62 139.6,65.8 135.8,69.7 131.9,73.7 127.7,77.7 123.3,81.6 118.6,85.5 117.3,84.4 120.4,79.2 123.6,74.2 126.8,69.5 130,64.9 133,60.5 135.9,56.2 138.8,52 141.5,48 144.1,44 146.5,40.2 " />
<polygon points="146.5,40.2 156.2,47.3 147,39.6 " />
<polygon points="156.2,47.3 157.4,50.7 150.2,50.4 " />
<polygon points="62.3,81.8 60.7,85.3 59,88.9 57,92.6 54.9,96.4 52.6,100.3 50.1,104.2 47.3,108.2 44.4,112.2 41.1,116.3 37.7,120.4 36.2,119.5 38.2,114.5 40,109.8 41.9,105.2 43.6,100.8 45.2,96.6 46.6,92.6 47.9,88.7 49.1,85 50.1,81.4 50.9,78 " />
<polygon points="50.9,78 62.3,81.8 51.4,76.5 " />
<polygon points="62.3,81.8 64.5,84.6 57.6,86.5 " />
<polygon points="52,91 167,91 167,95 52,95 " />
<polygon points="167,91 143,93 155,81 " />
<polygon points="27,124 180,124 180,128 27,128 " />
<polygon points="180,124 156,126 168,114 " />
<polygon points="109,91 109,172 97,172 97,91 " />
<polygon points="58,138 58,184 46,190 46,136 " />
<polygon points="58,138 61,140 58,142 " />
<polygon points="52,168 153,168 153,172 52,172 " />
<polygon points="159,138 159,178 147,184 147,136 " />
<polygon points="159,138 162,140 159,142 " />
</g>
</svg>
