<svg xmlns="http://www.w3.org/2000/svg" xmlns:xlink="http://www.w3.org/1999/xlink" version="1.1" baseProfile="full" viewBox="0 0 200 200" width="200" height="200">
<g fill="black">
<polygon points="157.9,33 148.5,34.1 138.4,35.4 127.7,36.6 116.4,38 104.3,39.4 91.6,40.9 78.3,42.5 64.2,44 49.5,45.5 34.1,46.8 33.8,45.1 48.9,41.7 63.4,38.7 77.3,36 90.5,33.4 103.1,31 115,28.8 126.2,26.7 136.8,24.7 146.8,22.9 156.1,21.2 " />
<polygon points="156.1,21.2 157.9,33 167.5,31.6 " />
<polygon points="167.5,31.6 167.9,34.5 159.2,29.8 " />
<polygon points="51.3,47.8 54,49.5 56.8,51 59.5,52.8 62,54.7 64.4,56.9 66.6,59.2 68.8,61.6 70.8,64.2 72.6,67 74.4,69.9 63.3,74.5 62.5,71.8 61.7,69.1 60.7,66.5 59.6,64 58.4,61.5 57,59 55.5,56.5 54,54 52.3,51.5 50.2,49.3 " />
<polygon points="74.4,69.9 74.3,74.5 71.1,77.7 66.5,77.7 63.3,74.5 " />
<polygon points="84.3,42.8 87.3,44.6 90.4,46.3 93.3,48.1 96,50.1 98.4,52.3 100.7,54.6 102.8,57.1 104.7,59.7 106.3,62.4 107.8,65.3 96.3,68.9 95.9,66.6 95.4,64.2 94.6,61.8 93.6,59.4 92.4,57 91,54.5 89.4,51.9 87.6,49.4 85.7,46.7 83.2,44.3 " />
<polygon points="107.8,65.3 107.3,69.8 103.8,72.8 99.3,72.3 96.3,68.9 " />
<polygon points="155.2,49.3 152.1,52.9 149,56.5 145.6,60.1 142.2,63.9 138.6,67.6 134.8,71.4 130.8,75.2 126.7,79.1 122.3,82.9 117.6,86.6 116.3,85.3 119.5,80.3 122.7,75.5 125.9,70.9 129,66.5 132,62.2 135,58 137.8,53.9 140.5,49.9 143.1,46 145.5,42.2 " />
<polygon points="145.5,42.2 155.2,49.3 146,41.6 " />
<polygon points="155.2,49.3 156.4,52.7 149.2,52.4 " />
<polygon points="46,84 166,84 166,88 46,88 " />
<polygon points="166,84 142,86 154,74 " />
<polygon points="36,115 176,115 176,119 36,119 " />
<polygon points="176,115 152,117 164,105 " />
<polygon points="108,84 108,175 96,175 96,84 " />
<polygon points="59,132 59,182 47,188 47,130 " />
<polygon points="59,132 62,134 59,136 " />
<polygon points="53,171 153,171 153,175 53,175 " />
<polygon points="159,132 159,179 147,185 147,130 " />
<polygon points="159,132 162,134 159,136 " />
</g>
</svg>
