<svg xmlns="http://www.w3.org/2000/svg" xmlns:xlink="http://www.w3.org/1999/xlink" version="1.1" baseProfile="full" viewBox="0 0 200 200" width="200" height="200">
<g fill="black">
<polygon points="59.3,80.8 59.3,179.3 47.3,185.3 47.3,74.8 " />
<polygon points="53.3,80.8 147.2,80.8 147.2,84.8 53.3,84.8 " />
<polygon points="53.3,108.8 147.2,108.8 147.2,112.8 53.3,112.8 " />
<polygon points="53.3,138 147.2,138 147.2,142 53.3,142 " />
<polygon points="153.2,82.8 153.2,172.3 141.2,172.3 141.2,82.8 " />
<polygon points="141.2,80.8 147.2,75.8 158.2,84.8 153.2,88.8 141.2,82.8 " />
<polygon points="153.2,172.3 150.8,175.9 147.2,178.3 143.6,175.9 141.2,172.3 " />
<polygon points="153.2,172.3 153,174.8 152.6,177.3 151.8,179.7 150.6,182 148.9,184 146.9,185.6 144.6,186.9 142.2,187.7 139.7,188.1 137.2,188.3 137.2,176.3 138.4,176.2 139.3,176 139.9,175.8 140.2,175.7 140.4,175.5 140.6,175.3 140.8,175 141,174.4 141.1,173.5 141.2,172.3 " />
<polygon points="137.2,182.3 137.2,176.3 117.2,176.3 117.2,179.3 " />
<polygon points="101.9,20.3 97.9,24.5 93.7,28.6 89.3,32.7 84.6,36.8 79.7,40.8 74.6,44.8 69.3,48.8 63.7,52.7 57.8,56.5 51.6,60.1 50.5,58.6 55.4,53.5 60.3,48.6 65,43.8 69.6,39.2 74,34.6 78.1,30.1 82.1,25.6 85.9,21.2 89.4,16.9 92.7,12.6 " />
<polygon points="92.7,12.6 101.9,20.3 93.1,12.1 " />
<polygon points="101.9,20.3 102.9,23.8 95.7,23 " />
<polygon points="26.7,59.1 37.4,57.9 48.5,56.8 60.1,55.6 72.2,54.4 84.6,53.3 97.6,52.1 111,51 124.8,49.9 139.1,49 153.9,48.3 154.1,50 139.6,52.8 125.5,55.2 111.8,57.5 98.5,59.6 85.7,61.7 73.3,63.7 61.4,65.6 49.9,67.4 38.9,69.2 28.3,71 " />
<polygon points="28.3,71 26.7,59.1 24.7,59.3 " />
<polygon points="28.3,71 30.7,73.7 33.9,67.2 " />
<polygon points="122.7,24.1 129.3,26.8 135.5,29.8 141.3,33.2 146.9,36.8 152.1,40.8 157.1,44.9 161.7,49.3 166.1,53.9 170.1,58.7 173.8,63.8 163.7,70.2 160.8,65.3 157.7,60.6 154.2,56 150.5,51.5 146.4,47.1 142.1,42.7 137.4,38.5 132.5,34.2 127.3,30 121.8,25.7 " />
<polygon points="173.8,63.8 174.5,68.3 171.9,72.1 167.4,72.8 163.7,70.2 " />
</g>
</svg>
