<svg xmlns="http://www.w3.org/2000/svg" xmlns:xlink="http://www.w3.org/1999/xlink" version="1.1" baseProfile="full" viewBox="0 0 200 200" width="200" height="200">
<g fill="black">
<polygon points="18,107 178,107 178,111 18,111 " />
<polygon points="178,107 154,109 166,97 " />
<polygon points="78.4,53.6 76,59 72.6,64 68.3,68.5 63.1,72.7 57.2,76.5 50.5,80 42.9,83.2 34.6,86.1 25.3,88.7 15.2,90.8 14.7,89.1 24.1,85.1 32.6,81.1 40.2,77.2 46.8,73.3 52.5,69.4 57.3,65.4 61,61.5 63.9,57.6 65.8,53.9 66.9,50.2 " />
<polygon points="66.6,51.2 78.4,53.6 67.4,48.6 " />
<polygon points="78.4,53.6 80.8,56.4 75.1,57.8 " />
<polygon points="122.2,47.4 126.2,52 130.4,56.2 135,60.1 140.2,63.8 145.8,67.3 152.1,70.4 159,73.3 166.5,76 174.7,78.4 183.6,80.6 180.3,93.3 171,90.4 162.4,87.1 154.5,83.4 147.3,79.4 140.8,75.1 135,70.4 130,65.4 125.9,60 122.7,54.3 120.6,48.2 " />
<polygon points="180.3,93.3 183.6,80.6 192,82.7 " />
</g>
</svg>
