<svg xmlns="http://www.w3.org/2000/svg" xmlns:xlink="http://www.w3.org/1999/xlink" version="1.1" baseProfile="full" viewBox="0 0 200 200" width="200" height="200">
<g fill="black">
<polygon points="45.3,62.9 49.7,65.8 53.9,68.7 57.8,71.6 61.4,74.6 64.7,77.6 67.7,80.6 70.4,83.6 72.9,86.6 75.1,89.6 77.1,92.7 66.2,97.8 65.2,95.1 64,92.2 62.4,89.2 60.6,86.1 58.5,82.8 56.1,79.4 53.5,75.9 50.6,72.2 47.5,68.2 44.1,64.3 " />
<polygon points="77.1,92.7 77.3,97.2 74.2,100.7 69.7,100.8 66.2,97.8 " />
<polygon points="150.6,66.9 147.7,71.1 144.6,75.3 141.3,79.6 137.9,83.9 134.2,88.2 130.4,92.5 126.4,96.9 122.1,101.2 117.5,105.4 112.6,109.5 111.3,108.4 114.6,103 117.9,97.8 121.2,92.8 124.4,87.9 127.4,83.1 130.3,78.5 133,73.9 135.6,69.4 138,65.1 140.3,60.8 " />
<polygon points="140.3,60.8 150.6,66.9 140.8,59.9 " />
<polygon points="150.6,66.9 152.2,70.1 145,70.5 " />
<polygon points="12,107 188,107 188,111 12,111 " />
<polygon points="188,107 164,109 176,97 " />
</g>
</svg>
