<svg xmlns="http://www.w3.org/2000/svg" xmlns:xlink="http://www.w3.org/1999/xlink" version="1.1" baseProfile="full" viewBox="0 0 200 200" width="200" height="200">
<g fill="black">
<polygon points="18.7,33.1 189.2,33.1 189.2,37.1 18.7,37.1 " />
<polygon points="189.2,33.1 165.2,35.1 177.2,23.1 " />
<polygon points="82.5,14.7 82.5,52.8 70.5,58.8 70.5,12.7 " />
<polygon points="82.5,14.7 85.5,16.7 82.5,18.7 " />
<polygon points="137.4,14.7 137.4,52.8 125.4,58.8 125.4,12.7 " />
<polygon points="137.4,14.7 140.4,16.7 137.4,18.7 " />
<polygon points="44.4,85.2 44.4,182.8 32.4,188.8 32.4,79.2 " />
<polygon points="38.4,85.2 163.5,85.2 163.5,89.2 38.4,89.2 " />
<polygon points="169.5,87.2 169.5,171.1 157.5,171.1 157.5,87.2 " />
<polygon points="157.5,85.2 163.5,80.2 174.5,89.2 169.5,93.2 157.5,87.2 " />
<polygon points="169.5,171.1 167.1,174.7 163.5,177.1 159.9,174.7 157.5,171.1 " />
<polygon points="169.5,171.1 169.4,173.6 168.9,176.1 168.1,178.5 166.9,180.8 165.2,182.8 163.2,184.4 161,185.7 158.6,186.5 156.1,186.9 153.5,187.1 153.5,175.1 154.7,175 155.6,174.8 156.2,174.6 156.6,174.5 156.8,174.3 156.9,174.1 157.1,173.8 157.3,173.2 157.4,172.3 157.5,171.1 " />
<polygon points="153.5,181.1 153.5,175.1 133.5,175.1 133.5,178.1 " />
<polygon points="20.7,61.4 183.2,61.4 183.2,65.4 20.7,65.4 " />
<polygon points="183.2,61.4 159.2,63.4 171.2,51.4 " />
<polygon points="106.5,61.4 106.5,181.2 94.5,187.2 94.5,61.4 " />
<polygon points="47.3,102.7 70.9,102.7 70.9,106.7 47.3,106.7 " />
<polygon points="73.7,107.4 74.8,113 75.9,118.4 77.3,123.4 78.9,128.2 80.9,132.8 83.3,137.1 86,141.2 89,145.1 92.4,148.9 96.3,152.5 86.9,161.9 82.9,157.1 79.4,152 76.5,146.9 74.1,141.5 72.2,136 70.9,130.4 70.2,124.7 70,118.9 70.6,113.1 71.9,107.3 " />
<polygon points="86.9,161.9 96.3,152.5 97.7,153.9 " />
<polygon points="76.9,105.1 75.7,113.9 74,122.1 71.7,129.7 68.9,136.7 65.6,143.1 61.6,148.7 57.2,153.7 52.2,157.9 46.7,161.2 40.8,163.6 40,162 44.6,158 48.6,153.9 52.2,149.4 55.4,144.5 58,139.1 60.3,133.3 62.1,126.9 63.5,119.9 64.4,112.4 64.9,104.3 " />
<polygon points="64.9,102.7 70.9,97.7 81.9,106.7 76.9,110.7 70.9,110.7 " />
<polygon points="110.3,101.9 134,101.9 134,105.9 110.3,105.9 " />
<polygon points="136.8,106.6 137.8,112.3 138.9,117.6 140.3,122.6 142,127.4 144,132 146.3,136.3 149,140.4 152.1,144.3 155.5,148.1 159.3,151.7 150,161.1 146,156.3 142.5,151.3 139.5,146.1 137.1,140.7 135.2,135.2 133.9,129.6 133.2,123.9 133.1,118.1 133.6,112.3 135,106.5 " />
<polygon points="150,161.1 159.3,151.7 160.7,153.1 " />
<polygon points="139.9,104.3 138.8,113.1 137,121.3 134.8,128.9 132,135.9 128.6,142.3 124.7,147.9 120.2,152.9 115.3,157.1 109.8,160.4 103.8,162.8 103,161.2 107.6,157.2 111.7,153.1 115.3,148.6 118.4,143.7 121.1,138.3 123.3,132.5 125.2,126.1 126.5,119.2 127.5,111.6 128,103.5 " />
<polygon points="128,101.9 134,96.9 145,105.9 140,109.9 134,109.9 " />
</g>
</svg>
