<svg xmlns="http://www.w3.org/2000/svg" xmlns:xlink="http://www.w3.org/1999/xlink" version="1.1" baseProfile="full" viewBox="0 0 200 200" width="200" height="200">
<g fill="black">
<polygon points="19,69 182,69 182,73 19,73 " />
<polygon points="182,69 162,71 172,60 " />
<polygon points="71,15 71,54 59,60 59,13 " />
<polygon points="71,15 74,17 69,20 " />
<polygon points="139,15 139,54 127,60 127,13 " />
<polygon points="139,15 142,17 137,20 " />
<polygon points="19,26 182,26 182,30 19,30 " />
<polygon points="182,26 158,28 170,16 " />
<polygon points="65,50 133,50 133,54 65,54 " />
<polygon points="38,92 38,181 26,187 26,86 " />
<polygon points="32,92 169,92 169,96 32,96 " />
<polygon points="175,94 175,168 163,168 163,94 " />
<polygon points="163,92 169,87 180,96 175,100 163,94 " />
<polygon points="175,168 172.6,171.6 169,174 165.4,171.6 163,168 " />
<polygon points="175,168 174.8,170.5 174.4,173 173.6,175.4 172.3,177.7 170.7,179.7 168.7,181.3 166.4,182.6 164,183.4 161.5,183.8 159,184 159,172 160.2,171.9 161.1,171.7 161.7,171.5 162,171.4 162.2,171.2 162.4,171 162.5,170.7 162.7,170.1 162.9,169.2 163,168 " />
<polygon points="159,178 159,172 139,172 139,175 " />
<polygon points="106,71 106,178 94,184 94,71 " />
<polygon points="43,107 64,107 64,111 43,111 " />
<polygon points="68.7,111.1 69.4,116.2 70.4,120.9 71.7,125.3 73.4,129.4 75.6,133.4 78.3,137.3 81.4,141 85,144.7 89.2,148.2 94,151.7 85.9,162.2 80.9,157.6 76.5,152.8 72.7,147.8 69.6,142.7 67.2,137.5 65.5,132.1 64.6,126.8 64.5,121.4 65.2,116 66.9,110.8 " />
<polygon points="85.9,162.2 94,151.7 96.8,153.9 " />
<polygon points="69.9,109.3 68.9,117.2 67.4,124.6 65.2,131.5 62.5,137.8 59.1,143.6 55.2,148.7 50.8,153.1 45.8,156.8 40.3,159.7 34.3,161.8 33.6,160.1 38.3,156.5 42.4,152.6 46.1,148.5 49.2,144.1 51.8,139.3 53.9,134.1 55.6,128.5 56.9,122.4 57.6,115.8 58,108.6 " />
<polygon points="58,107 64,102 75,111 70,114 58,119 " />
<polygon points="110,107 137,107 137,111 110,111 " />
<polygon points="138.8,111 140,116 141.4,120.6 142.9,125.1 144.7,129.2 146.9,133.2 149.4,137 152.3,140.7 155.6,144.2 159.2,147.7 163.3,151 154.6,160.9 150.4,156.5 146.6,151.9 143.3,147.1 140.6,142.2 138.5,137.2 136.9,132 135.9,126.8 135.5,121.5 135.9,116.2 137,110.9 " />
<polygon points="154.6,160.9 163.3,151 165.5,152.9 " />
<polygon points="142.9,109.7 141.3,117.5 139.1,124.7 136.5,131.4 133.2,137.5 129.5,143.1 125.2,148 120.4,152.3 115.2,155.9 109.5,158.7 103.3,160.8 102.6,159.1 107.6,155.5 112,151.6 115.9,147.5 119.4,143.1 122.4,138.3 125,133.2 127.1,127.6 128.8,121.6 130.1,115.1 131,108.2 " />
<polygon points="131,107 137,102 148,111 143,114 131,119 " />
</g>
</svg>
