<svg xmlns="http://www.w3.org/2000/svg" xmlns:xlink="http://www.w3.org/1999/xlink" version="1.1" baseProfile="full" viewBox="0 0 200 200" width="200" height="200">
<g fill="black">
<polygon points="14.4,40 94.1,40 94.1,44 14.4,44 " />
<polygon points="94.1,40 70.1,42 82.1,30 " />
<polygon points="34,63 34,130 22,136 22,57 " />
<polygon points="28,63 80.5,63 80.5,67 28,67 " />
<polygon points="86.5,65 86.5,127 74.5,133 74.5,65 " />
<polygon points="74.5,63 80.5,58 91.5,67 86.5,71 74.5,65 " />
<polygon points="28,90 80.5,90 80.5,94 28,94 " />
<polygon points="28,119 80.5,119 80.5,123 28,123 " />
<polygon points="12.6,146 95.9,146 95.9,150 12.6,150 " />
<polygon points="95.9,146 71.9,148 83.9,136 " />
<polygon points="60.3,15 60.3,183 48.3,189 48.3,13 " />
<polygon points="60.3,15 63.3,17 58.3,20 " />
<polygon points="115.2,27 115.2,93 103.2,93 103.2,21 " />
<polygon points="115.2,93 112.8,96.6 109.2,99 105.6,96.6 103.2,93 " />
<polygon points="115.2,93 114.5,105.9 113.1,118.1 111,129.6 108.1,140.3 104.5,150.2 100.2,159.3 95,167.6 89.2,174.9 82.5,181.3 75.2,186.6 74,185.3 79.8,178.7 84.9,171.6 89.4,164.1 93.3,156 96.6,147.2 99.2,137.8 101.1,127.7 102.5,116.8 103.2,105.3 103.2,93 " />
<polygon points="109.2,27 153.1,27 153.1,31 109.2,31 " />
<polygon points="159.1,29 159.1,161 147.1,161 147.1,29 " />
<polygon points="147.1,27 153.1,22 164.1,31 159.1,35 147.1,29 " />
<polygon points="159.1,161 156.7,164.6 153.1,167 149.5,164.6 147.1,161 " />
<polygon points="159.1,161 159.2,162.2 159.4,163.1 159.5,163.7 159.7,164 159.9,164.2 160.1,164.4 160.4,164.5 161,164.7 161.9,164.9 163.1,165 163.1,177 160.6,176.8 158.1,176.4 155.7,175.6 153.4,174.3 151.4,172.7 149.7,170.7 148.5,168.4 147.7,166 147.3,163.5 147.1,161 " />
<polygon points="163.1,165 167.3,166.8 169.1,171 167.3,175.2 163.1,177 " />
<polygon points="163.1,165 183.1,165 183.1,177 163.1,177 " />
<polygon points="183.1,165 186.7,167.4 189.1,171 186.7,174.6 183.1,177 " />
<polygon points="177.1,166 183.1,140 185.1,140 183.1,166 " />
</g>
</svg>
