<svg xmlns="http://www.w3.org/2000/svg" xmlns:xlink="http://www.w3.org/1999/xlink" version="1.1" baseProfile="full" viewBox="0 0 200 200" width="200" height="200">
<g fill="black">
<polygon points="16.4,109 182.4,60 183.5,63.9 17.5,112.9 " />
<polygon points="182.4,60 159.9,68.7 168,53.8 " />
<polygon points="81,22 81,161 69,161 69,20 " />
<polygon points="81,22 84,24 81,26 " />
<polygon points="81,161 78.6,164.6 75,167 71.4,164.6 69,161 " />
<polygon points="81,161 81,162.2 81.2,163.1 81.4,163.7 81.5,164 81.7,164.2 81.9,164.4 82.2,164.5 82.8,164.7 83.7,164.9 85,165 85,177 82.4,176.8 79.9,176.4 77.5,175.6 75.2,174.3 73.2,172.7 71.6,170.7 70.3,168.4 69.5,166 69.1,163.5 69,161 " />
<polygon points="85,165 89.2,166.8 91,171 89.2,175.2 85,177 " />
<polygon points="85,165 168,165 168,177 85,177 " />
<polygon points="168,165 171.6,167.4 174,171 171.6,174.6 168,177 " />
<polygon points="162,166 168,140 170,140 168,166 " />
</g>
</svg>
