<svg xmlns="http://www.w3.org/2000/svg" xmlns:xlink="http://www.w3.org/1999/xlink" version="1.1" baseProfile="full" viewBox="0 0 200 200" width="200" height="200">
<g fill="black">
<polygon points="23,65 180,65 180,69 23,69 " />
<polygon points="180,65 156,67 168,55 " />
<polygon points="97.6,67 96.4,69.4 91.5,78.8 86,87.6 79.8,95.8 73.2,103.5 65.9,110.5 58.1,116.9 49.7,122.7 40.8,127.8 31.3,132.2 21.3,135.8 20.6,134.1 29.6,128.8 38,123.2 45.9,117.3 53.2,111.1 60,104.4 66.2,97.3 71.8,89.8 76.9,81.8 81.5,73.4 84.3,67 " />
</g>
</svg>
