<svg xmlns="http://www.w3.org/2000/svg" xmlns:xlink="http://www.w3.org/1999/xlink" version="1.1" baseProfile="full" viewBox="0 0 200 200" width="200" height="200">
<g fill="black">
<polygon points="19,24 184,24 184,28 19,28 " />
<polygon points="184,24 160,26 172,14 " />
<polygon points="78,24 78,89 66,89 66,24 " />
<polygon points="78,89 75.6,92.6 72,95 68.4,92.6 66,89 " />
<polygon points="77.9,88.8 77.6,101.8 76.3,114.1 74.1,125.6 70.9,136.4 66.8,146.4 61.8,155.5 55.8,163.8 48.9,171.1 41.1,177.4 32.4,182.7 31.5,181.2 38.7,174.5 45,167.4 50.5,159.9 55.2,151.8 59.1,143 62.1,133.7 64.3,123.6 65.7,112.8 66.2,101.4 66,89.1 " />
<polygon points="135,24 135,179 123,185 123,24 " />
</g>
</svg>
