<svg xmlns="http://www.w3.org/2000/svg" xmlns:xlink="http://www.w3.org/1999/xlink" version="1.1" baseProfile="full" viewBox="0 0 200 200" width="200" height="200">
<g fill="black">
<polygon points="25,32 178,32 178,36 25,36 " />
<polygon points="178,32 154,34 166,22 " />
<polygon points="102,32 102,121 90,121 90,32 " />
<polygon points="96,75 164,75 164,79 96,79 " />
<polygon points="43,64 43,133 31,139 31,62 " />
<polygon points="43,64 46,66 41,69 " />
<polygon points="37,117 164,117 164,121 37,121 " />
<polygon points="169.9,76.8 170.1,93.5 169.8,108.7 169.1,122.6 167.8,135.2 166.1,146.3 163.9,156.2 161.1,164.8 157.7,172.1 153.6,178.2 148.6,182.9 141.5,173.2 144.4,170.5 147.3,166.3 149.9,160.5 152.3,153.1 154.3,144.1 155.9,133.7 157.1,121.7 157.8,108.3 158.1,93.4 158,77.1 " />
<polygon points="158,75 164,70 175,79 170,82 158,87 " />
<polygon points="148.6,182.9 144.1,184 140.2,181.6 139.2,177.1 141.5,173.2 " />
<polygon points="148.6,182.9 146.6,184.3 144.6,185.4 142.6,186.5 140.5,187.4 138.3,188.2 136.1,188.8 133.9,189.3 131.6,189.7 129.3,189.9 127,190 127,178 128.6,177.9 130.1,177.8 131.7,177.5 133.2,177.2 134.6,176.8 136.1,176.3 137.5,175.7 138.8,174.9 140.2,174.1 141.5,173.2 " />
<polygon points="127,184 127,178 107,178 107,181 " />
</g>
</svg>
