<svg xmlns="http://www.w3.org/2000/svg" xmlns:xlink="http://www.w3.org/1999/xlink" version="1.1" baseProfile="full" viewBox="0 0 200 200" width="200" height="200">
<g fill="black">
<polygon points="21,59 181,59 181,63 21,63 " />
<polygon points="181,59 157,61 169,49 " />
<polygon points="123,18 123,80 111,80 111,16 " />
<polygon points="123,18 126,20 123,22 " />
<polygon points="123,80 120.6,83.6 117,86 113.4,83.6 111,80 " />
<polygon points="123,80 121.6,98.4 118.3,115.4 113,130.7 105.5,144.5 96.1,156.5 84.8,166.8 71.6,175.3 56.5,182 39.7,186.8 21.1,189.8 20.8,188.1 38.7,183.2 54.5,177 68.3,169.6 80,160.9 89.8,150.9 97.6,139.6 103.7,126.9 107.9,112.8 110.3,97.1 111,80 " />
<polygon points="72,76.8 76.3,93.1 81.9,107.7 88.8,120.7 97.2,132.1 106.9,142 118.2,150.5 130.9,157.6 145.2,163.2 161.2,167.5 178.8,170.4 177.1,183.5 158.3,179.7 141.3,174.4 126,167.4 112.3,158.9 100.5,148.9 90.6,137.3 82.5,124.3 76.4,109.9 72.3,94.1 70.2,77.1 " />
<polygon points="177.1,183.5 178.8,170.4 188.9,171.8 " />
</g>
</svg>
