<svg xmlns="http://www.w3.org/2000/svg" xmlns:xlink="http://www.w3.org/1999/xlink" version="1.1" baseProfile="full" viewBox="0 0 200 200" width="200" height="200">
<g fill="black">
<polygon points="22,29 184,29 184,33 22,33 " />
<polygon points="184,29 160,31 172,19 " />
<polygon points="107,29 107,110 95,110 95,29 " />
<polygon points="101,67 170,67 170,71 101,71 " />
<polygon points="170,67 146,69 158,57 " />
<polygon points="55.8,57.7 47,122.6 34.3,127 44.1,54.2 " />
<polygon points="55.8,57.7 58.5,60.1 55.2,61.7 " />
<polygon points="43,106 171,106 171,110 43,110 " />
<polygon points="176.9,108.5 175.8,119 174.3,128.7 172.5,137.7 170.4,146 168,153.6 165.3,160.5 162.2,166.8 158.7,172.3 154.8,177.2 150.5,181.3 142.9,172 146,169.1 148.9,165.4 151.7,160.9 154.3,155.7 156.7,149.6 158.9,142.8 160.8,135.1 162.5,126.6 163.9,117.4 165,107.4 " />
<polygon points="165,106 171,101 182,110 177,114 171,114 " />
<polygon points="150.5,181.3 146.1,182.5 142.1,180.4 140.8,176 142.9,172 " />
<polygon points="150.5,181.3 148.6,182.7 146.7,184 144.6,185.2 142.5,186.2 140.4,187 138.2,187.7 135.9,188.3 133.6,188.6 131.3,188.9 129,189 129,177 130.5,176.9 132.1,176.7 133.6,176.5 135,176.2 136.4,175.7 137.7,175.2 139.1,174.5 140.4,173.8 141.6,172.9 142.9,172 " />
<polygon points="129,183 129,177 109,177 109,180 " />
</g>
</svg>
