<svg xmlns="http://www.w3.org/2000/svg" xmlns:xlink="http://www.w3.org/1999/xlink" version="1.1" baseProfile="full" viewBox="0 0 200 200" width="200" height="200">
<g fill="black">
<polygon points="61,25 61,178 49,178 49,19 " />
<polygon points="55,25 145,25 145,29 55,29 " />
<polygon points="151,27 151,178 139,178 139,27 " />
<polygon points="139,25 145,20 156,29 151,33 139,27 " />
<polygon points="55,74 145,74 145,78 55,78 " />
<polygon points="55,123 145,123 145,127 55,127 " />
<polygon points="14,174 186,174 186,178 14,178 " />
<polygon points="186,174 162,176 174,164 " />
</g>
</svg>
