<svg xmlns="http://www.w3.org/2000/svg" xmlns:xlink="http://www.w3.org/1999/xlink" version="1.1" baseProfile="full" viewBox="0 0 200 200" width="200" height="200">
<g fill="black">
<polygon points="19,73 184,73 184,77 19,77 " />
<polygon points="184,73 160,75 172,63 " />
<polygon points="106,28 106,153 94,159 94,26 " />
<polygon points="106,28 109,30 106,32 " />
<polygon points="56,23 56,174 44,174 44,21 " />
<polygon points="56,23 59,25 56,27 " />
<polygon points="156,23 156,174 144,174 144,21 " />
<polygon points="156,23 159,25 156,27 " />
<polygon points="19,170 184,170 184,174 19,174 " />
<polygon points="184,170 160,172 172,160 " />
</g>
</svg>
