<svg xmlns="http://www.w3.org/2000/svg" xmlns:xlink="http://www.w3.org/1999/xlink" version="1.1" baseProfile="full" viewBox="0 0 200 200" width="200" height="200">
<g fill="black">
<polygon points="85,20 85,179 73,179 73,18 " />
<polygon points="85,20 88,22 85,24 " />
<polygon points="127,20 127,179 115,179 115,18 " />
<polygon points="127,20 130,22 127,24 " />
<polygon points="20.3,56.1 27,62.8 33.1,69.7 38.7,76.8 43.8,84.1 48.4,91.4 52.6,98.9 56.4,106.4 59.7,114.1 62.6,121.8 65.1,129.6 53.4,132.5 51.7,125.1 49.6,117.7 47.1,110.3 44.2,102.9 40.9,95.4 37.2,87.9 33.2,80.4 28.7,72.8 24,65.1 18.9,57.3 " />
<polygon points="65.1,129.6 64.3,134.1 60.7,136.9 56.2,136.1 53.4,132.5 " />
<polygon points="178.2,56 174.4,65 170.2,73.9 165.7,82.7 160.9,91.3 155.8,99.8 150.3,108.1 144.5,116.3 138.3,124.3 131.7,132 124.7,139.5 123.2,138.4 128.7,129.8 133.9,121.2 139,112.7 143.9,104.2 148.4,95.6 152.7,87 156.7,78.3 160.4,69.5 163.8,60.7 167,51.8 " />
<polygon points="167,51.8 178.2,56 167.5,50.4 " />
<polygon points="178.2,56 180.4,58.9 173.3,60.6 " />
<polygon points="14,175 185,175 185,179 14,179 " />
<polygon points="185,175 161,177 173,165 " />
</g>
</svg>
