<svg xmlns="http://www.w3.org/2000/svg" xmlns:xlink="http://www.w3.org/1999/xlink" version="1.1" baseProfile="full" viewBox="0 0 200 200" width="200" height="200">
<g fill="black">
<polygon points="79,43 79,136 67,136 67,41 " />
<polygon points="79,43 82,45 79,47 " />
<polygon points="66.9,133 73.3,131.1 79.7,129.3 86.1,127.4 92.6,125.6 99.1,123.8 105.6,122.1 112.3,120.4 119,118.8 125.8,117.3 132.7,116.1 133.2,117.8 127,120.9 120.7,123.9 114.4,126.6 108.1,129.3 101.8,131.9 95.5,134.4 89.3,136.9 83.1,139.4 77,141.9 70.8,144.3 " />
<polygon points="70.8,144.3 66.9,133 65.1,133.6 " />
<polygon points="70.8,144.3 73.7,146.5 75.5,139.5 " />
<polygon points="138,14 138,182 126,188 126,12 " />
<polygon points="138,14 141,16 138,18 " />
</g>
</svg>
