<svg xmlns="http://www.w3.org/2000/svg" xmlns:xlink="http://www.w3.org/1999/xlink" version="1.1" baseProfile="full" viewBox="0 0 200 200" width="200" height="200">
<g fill="black">
<polygon points="57.3,42.7 62.2,45 66.8,47.5 71.1,50.4 75.2,53.5 79,56.9 82.5,60.4 85.8,64.2 88.9,68.2 91.6,72.4 94.2,76.7 83.2,81.7 81.6,77.7 79.7,73.8 77.6,69.9 75.3,66.2 72.7,62.4 69.9,58.8 66.8,55.2 63.5,51.6 60,47.9 56.3,44.3 " />
<polygon points="94.2,76.7 94.3,81.3 91.2,84.7 86.6,84.8 83.2,81.7 " />
<polygon points="51.8,134.3 56.6,131.8 61.6,129.1 66.9,126.2 72.4,123.1 78.1,119.8 84,116.3 90.2,112.7 96.6,108.9 103.3,105.1 110.4,101.2 111.5,102.7 105.6,108.2 99.7,113.3 93.9,118.1 88.3,122.6 82.8,126.9 77.4,130.9 72.3,134.6 67.3,138.2 62.5,141.5 57.8,144.6 " />
<polygon points="57.8,144.6 51.8,134.3 50.1,135.3 " />
<polygon points="57.8,144.6 61.1,146.2 61.5,139 " />
<polygon points="117,18 117,183 105,189 105,16 " />
<polygon points="117,18 120,20 117,22 " />
</g>
</svg>
