<svg xmlns="http://www.w3.org/2000/svg" xmlns:xlink="http://www.w3.org/1999/xlink" version="1.1" baseProfile="full" viewBox="0 0 200 200" width="200" height="200">
<g fill="black">
<polygon points="108,14 108,184 96,190 96,12 " />
<polygon points="108,14 111,16 108,18 " />
<polygon points="167.4,42.8 155.6,47.4 143.1,51.7 130.1,55.7 116.5,59.3 102.2,62.7 87.4,65.7 72,68.4 56,70.7 39.3,72.5 22.1,73.8 21.8,72.1 38.8,68.7 55.1,65.4 70.7,61.9 85.8,58.3 100.2,54.4 114,50.4 127.1,46.1 139.6,41.6 151.4,36.8 162.6,31.9 " />
<polygon points="162.6,31.9 167.4,42.8 171.5,41.1 " />
<polygon points="171.5,41.1 171.6,44.3 164,41.1 " />
<polygon points="167.4,82.9 155.7,87.2 143.5,91.3 130.7,95.1 117.2,98.5 103.2,101.7 88.6,104.5 73.4,107 57.5,109.1 41.1,110.7 24.1,111.8 23.8,110.1 40.6,106.9 56.7,103.8 72.2,100.5 87,97.1 101.2,93.4 114.8,89.6 127.7,85.5 140,81.2 151.7,76.6 162.7,71.8 " />
<polygon points="162.7,71.8 167.4,82.9 171.6,81.1 " />
<polygon points="171.6,81.1 171.8,84.3 164,81 " />
<polygon points="189.1,119.9 172.4,125.4 155.5,130.5 138.2,135.2 120.6,139.4 102.6,143.2 84.4,146.5 65.8,149.4 46.9,151.8 27.6,153.6 8,154.8 7.9,153.1 27.1,149.9 46.1,146.5 64.7,142.9 82.9,139.1 100.8,134.9 118.3,130.4 135.5,125.5 152.3,120.2 168.8,114.6 184.9,108.7 " />
<polygon points="184.9,108.7 189.1,119.9 194.4,118 " />
<polygon points="194.4,118 194.6,121.1 186.7,117.6 " />
</g>
</svg>
