<svg xmlns="http://www.w3.org/2000/svg" xmlns:xlink="http://www.w3.org/1999/xlink" version="1.1" baseProfile="full" viewBox="0 0 200 200" width="200" height="200">
<g fill="black">
<polygon points="79,43 79,139 67,139 67,41 " />
<polygon points="79,43 82,45 79,47 " />
<polygon points="49.1,138.9 57.4,136.7 65.7,134.4 74,132.1 82.3,129.7 90.6,127.4 98.9,125 107.3,122.6 115.7,120.3 124.1,118.1 132.6,116.1 133.3,117.8 125.4,121.7 117.4,125.4 109.4,128.8 101.4,132.2 93.3,135.4 85.2,138.5 77.1,141.6 69,144.6 60.8,147.5 52.7,150.4 " />
<polygon points="52.7,150.4 49.1,138.9 47.2,139.5 " />
<polygon points="52.7,150.4 55.5,152.7 57.5,145.7 " />
<polygon points="138,13 138,181 126,187 126,11 " />
<polygon points="138,13 141,15 138,17 " />
</g>
</svg>
