<svg xmlns="http://www.w3.org/2000/svg" xmlns:xlink="http://www.w3.org/1999/xlink" version="1.1" baseProfile="full" viewBox="0 0 200 200" width="200" height="200">
<g fill="black">
<polygon points="81,18 81,70 69,70 69,16 " />
<polygon points="81,18 84,20 79,23 " />
<polygon points="81,70 78.6,73.6 75,76 71.4,73.6 69,70 " />
<polygon points="80.9,70 79.9,89.2 77.7,106.7 74.3,122.7 69.7,137.1 64,149.8 57.1,160.9 49,170.2 39.8,177.7 29.5,183.2 18.2,186.8 17.7,185.1 27.7,179.9 36.5,173.4 44.2,165.7 50.8,156.6 56.4,146.1 61,134 64.5,120.4 67,105.2 68.5,88.3 69,69.9 " />
<polygon points="20,57 131,57 131,61 20,61 " />
<polygon points="137,59 137,166 125,166 125,59 " />
<polygon points="125,57 131,52 142,61 137,65 125,59 " />
<polygon points="137,166 134.6,169.6 131,172 127.4,169.6 125,166 " />
<polygon points="137,166 137,167.2 137.2,168.1 137.4,168.7 137.5,169 137.7,169.2 137.9,169.4 138.2,169.5 138.8,169.7 139.7,169.9 141,170 141,182 138.4,181.8 135.9,181.4 133.5,180.6 131.2,179.3 129.2,177.7 127.6,175.7 126.3,173.4 125.5,171 125.1,168.5 125,166 " />
<polygon points="141,170 145.2,171.8 147,176 145.2,180.2 141,182 " />
<polygon points="141,170 182,170 182,182 141,182 " />
<polygon points="182,170 185.6,172.4 188,176 185.6,179.6 182,182 " />
<polygon points="176,171 182,145 184,145 182,171 " />
<polygon points="74.2,97.6 79,99 83.6,100.8 88,102.9 92.2,105.4 96.2,108.1 100.1,111 103.7,114.2 107.1,117.6 110.4,121.3 113.4,125.2 103.3,131.6 101.2,127.9 98.9,124.3 96.4,120.9 93.7,117.5 90.8,114.3 87.7,111.2 84.4,108.1 81,105.1 77.3,102.1 73.5,99.2 " />
<polygon points="113.4,125.2 114.1,129.7 111.6,133.5 107.1,134.2 103.3,131.6 " />
</g>
</svg>
