<svg xmlns="http://www.w3.org/2000/svg" xmlns:xlink="http://www.w3.org/1999/xlink" version="1.1" baseProfile="full" viewBox="0 0 200 200" width="200" height="200">
<g fill="black">
<polygon points="76,106 76,130 64,130 64,104 " />
<polygon points="76,106 79,108 74,111 " />
<polygon points="76,130 73.6,133.6 70,136 66.4,133.6 64,130 " />
<polygon points="75.9,130.1 74.8,139.1 72.4,147.5 68.8,155.2 64,162 58.1,168 51.1,173.1 43.1,177.4 34.1,180.8 24.1,183.3 13.1,184.8 12.8,183.1 23.1,179.6 32.2,175.8 40.1,171.6 46.8,166.9 52.3,161.9 56.7,156.4 60,150.5 62.3,144.2 63.6,137.3 64,129.8 " />
<polygon points="20,123 127,123 127,127 20,127 " />
<polygon points="133,125 133,167 121,167 121,125 " />
<polygon points="121,123 127,118 138,127 133,131 121,125 " />
<polygon points="133,167 130.6,170.6 127,173 123.4,170.6 121,167 " />
<polygon points="133,167 133,168.2 133.2,169.1 133.4,169.7 133.5,170 133.7,170.2 133.9,170.4 134.2,170.5 134.8,170.7 135.7,170.9 137,171 137,183 134.4,182.8 131.9,182.4 129.5,181.6 127.2,180.3 125.2,178.7 123.6,176.7 122.3,174.4 121.5,172 121.1,169.5 121,167 " />
<polygon points="137,171 141.2,172.8 143,177 141.2,181.2 137,183 " />
<polygon points="137,171 178,171 178,183 137,183 " />
<polygon points="178,171 181.6,173.4 184,177 181.6,180.6 178,183 " />
<polygon points="172,172 178,146 180,146 178,172 " />
<polygon points="76.1,143.3 80.3,143.9 84.2,144.2 87.9,144.7 91.2,145.3 94.3,146 97.1,146.8 99.7,147.7 102.1,148.9 104.3,150.3 106.3,152.1 96.3,158.8 96.2,158 95.7,156.9 94.6,155.7 93.2,154.3 91.3,152.8 88.9,151.3 86.2,149.7 83.1,148.1 79.7,146.4 75.7,145 " />
<polygon points="106.3,152.1 107.1,156.6 104.6,160.4 100.1,161.3 96.3,158.8 " />
</g>
</svg>
