<svg xmlns="http://www.w3.org/2000/svg" xmlns:xlink="http://www.w3.org/1999/xlink" version="1.1" baseProfile="full" viewBox="0 0 200 200" width="200" height="200">
<g fill="black">
<polygon points="95,19 95,69 83,69 83,17 " />
<polygon points="95,19 98,21 95,23 " />
<polygon points="95,69 92.6,72.6 89,75 85.4,72.6 83,69 " />
<polygon points="94.9,69.1 93.6,88.4 91.1,106.2 87.3,122.3 82.2,136.9 75.9,149.7 68.4,160.9 59.5,170.2 49.5,177.7 38.4,183.3 26.2,186.8 25.7,185.1 36.7,179.8 46.5,173.3 54.9,165.5 62.3,156.3 68.5,145.7 73.6,133.5 77.6,119.8 80.5,104.4 82.3,87.4 83,68.8 " />
<polygon points="38,62 132,62 132,66 38,66 " />
<polygon points="40.2,88.5 50,92.1 59.2,96.2 67.8,100.7 75.9,105.6 83.3,110.9 90.2,116.5 96.5,122.5 102.2,128.8 107.3,135.5 111.8,142.5 101.2,148.2 97.7,141.7 93.7,135.4 89,129.2 83.7,123.2 77.8,117.4 71.4,111.7 64.3,106.2 56.6,100.8 48.3,95.5 39.5,90.2 " />
<polygon points="111.8,142.5 112.2,147 109.4,150.6 104.8,151 101.2,148.2 " />
<polygon points="138,64 138,169 126,169 126,64 " />
<polygon points="126,62 132,57 143,66 138,70 126,64 " />
<polygon points="138,169 135.6,172.6 132,175 128.4,172.6 126,169 " />
<polygon points="138,169 138,170.2 138.2,171.1 138.4,171.7 138.5,172 138.7,172.2 138.9,172.4 139.2,172.5 139.8,172.7 140.7,172.9 142,173 142,185 139.4,184.8 136.9,184.4 134.5,183.6 132.2,182.3 130.2,180.7 128.6,178.7 127.3,176.4 126.5,174 126.1,171.5 126,169 " />
<polygon points="142,173 146.2,174.8 148,179 146.2,183.2 142,185 " />
<polygon points="142,173 177,173 177,185 142,185 " />
<polygon points="177,173 180.6,175.4 183,179 180.6,182.6 177,185 " />
<polygon points="171,174 177,148 179,148 177,174 " />
</g>
</svg>
