<svg xmlns="http://www.w3.org/2000/svg" xmlns:xlink="http://www.w3.org/1999/xlink" version="1.1" baseProfile="full" viewBox="0 0 200 200" width="200" height="200">
<g fill="black">
<polygon points="76.3,13.7 80.6,15.4 84.9,17.3 88.9,19.6 92.8,22 96.4,24.8 99.8,27.7 103.1,30.8 106.1,34.1 109,37.7 111.7,41.4 101.3,47.3 99.5,43.8 97.6,40.4 95.5,37 93.2,33.8 90.7,30.6 88,27.5 85.1,24.4 82.1,21.3 78.9,18.2 75.4,15.2 " />
<polygon points="111.7,41.4 112.2,45.9 109.4,49.6 104.9,50.1 101.3,47.3 " />
<polygon points="26,58 175,58 175,62 26,62 " />
<polygon points="175,58 151,60 163,48 " />
<polygon points="106,58 106,180 94,180 94,58 " />
<polygon points="37,112 165,112 165,116 37,116 " />
<polygon points="165,112 141,114 153,102 " />
<polygon points="20,176 180,176 180,180 20,180 " />
<polygon points="180,176 156,178 168,166 " />
</g>
</svg>
