<svg xmlns="http://www.w3.org/2000/svg" xmlns:xlink="http://www.w3.org/1999/xlink" version="1.1" baseProfile="full" viewBox="0 0 200 200" width="200" height="200">
<g fill="black">
<polygon points="15,30 186,30 186,34 15,34 " />
<polygon points="186,30 162,32 174,20 " />
<polygon points="40,55 40,181 28,187 28,49 " />
<polygon points="34,55 85,55 85,59 34,59 " />
<polygon points="91,57 91,170 79,170 79,57 " />
<polygon points="79,55 85,50 96,59 91,63 79,57 " />
<polygon points="91,170 88.6,173.6 85,176 81.4,173.6 79,170 " />
<polygon points="91,170 90.8,172.5 90.4,175 89.6,177.4 88.3,179.7 86.7,181.7 84.7,183.3 82.4,184.6 80,185.4 77.5,185.8 75,186 75,174 76.2,173.9 77.1,173.7 77.7,173.5 78,173.4 78.2,173.2 78.4,173 78.5,172.7 78.7,172.1 78.9,171.2 79,170 " />
<polygon points="75,180 75,174 55,174 55,177 " />
<polygon points="45.3,88.9 49.1,91.3 52.8,93.9 56.2,96.7 59.4,99.7 62.3,102.9 64.9,106.3 67.3,109.8 69.5,113.6 71.3,117.4 72.9,121.5 61.4,124.6 60.7,121.1 59.7,117.6 58.6,114.2 57.2,110.8 55.6,107.4 53.8,104 51.7,100.6 49.4,97.2 47,93.7 44.1,90.3 " />
<polygon points="72.9,121.5 72.3,126 68.7,128.8 64.2,128.2 61.4,124.6 " />
<polygon points="118,55 118,181 106,187 106,49 " />
<polygon points="112,55 164,55 164,59 112,59 " />
<polygon points="170,57 170,170 158,170 158,57 " />
<polygon points="158,55 164,50 175,59 170,63 158,57 " />
<polygon points="170,170 167.6,173.6 164,176 160.4,173.6 158,170 " />
<polygon points="170,170 169.8,172.5 169.4,175 168.6,177.4 167.3,179.7 165.7,181.7 163.7,183.3 161.4,184.6 159,185.4 156.5,185.8 154,186 154,174 155.2,173.9 156.1,173.7 156.7,173.5 157,173.4 157.2,173.2 157.4,173 157.5,172.7 157.7,172.1 157.9,171.2 158,170 " />
<polygon points="154,180 154,174 134,174 134,177 " />
<polygon points="123.3,89.7 126.9,91.4 130.6,93.4 134,95.8 137.3,98.6 140.4,101.7 143.3,105.2 146.1,108.9 148.7,113 151.2,117.4 153.5,122 142.3,126.3 140.8,121.9 139.3,117.8 137.6,113.8 135.8,110.1 133.9,106.6 131.8,103.2 129.7,100 127.4,97 125,94 122.3,91.2 " />
<polygon points="153.5,122 153.3,126.6 150,129.8 145.5,129.6 142.3,126.3 " />
</g>
</svg>
