<svg xmlns="http://www.w3.org/2000/svg" xmlns:xlink="http://www.w3.org/1999/xlink" version="1.1" baseProfile="full" viewBox="0 0 200 200" width="200" height="200">
<g fill="black">
<polygon points="156.7,18 150.4,45.1 142.3,70 132.4,92.7 120.6,113.2 106.9,131.4 91.5,147.3 74.2,160.8 55.3,172 34.5,180.6 12.2,186.8 11.7,185.1 33.2,177.1 52.7,167.2 70.4,155.5 86.3,141.7 100.4,126 112.7,108.2 123.3,88.3 132.2,66.3 139.4,42.2 144.9,15.9 " />
<polygon points="144.9,15.9 156.7,18 145.2,14 " />
<polygon points="156.7,18 159.3,20.5 152.7,23.4 " />
<polygon points="39.1,42.7 47.5,63.3 57.2,82.3 68.1,99.5 80.4,115.1 94.2,129.1 109.5,141.3 126.2,152 144.4,161.1 164.2,168.6 185.5,174.5 182.4,187.4 160.1,180.4 139.5,171.8 120.6,161.5 103.3,149.5 87.8,135.8 74.1,120.5 62.1,103.6 51.9,85 43.6,64.9 37.4,43.2 " />
<polygon points="182.4,187.4 185.5,174.5 194.1,176.7 " />
<polygon points="72.3,29.7 77.1,31.5 81.8,33.8 86.1,36.6 90.2,39.7 94.1,43.1 97.6,46.9 101,51 104,55.3 106.8,60 109.4,64.9 98.3,69.4 96.6,64.9 94.7,60.6 92.6,56.4 90.3,52.5 87.7,48.6 84.9,45 81.9,41.5 78.6,38 75.1,34.6 71.4,31.2 " />
<polygon points="109.4,64.9 109.3,69.5 106.1,72.7 101.5,72.6 98.3,69.4 " />
</g>
</svg>
