<svg xmlns="http://www.w3.org/2000/svg" xmlns:xlink="http://www.w3.org/1999/xlink" version="1.1" baseProfile="full" viewBox="0 0 200 200" width="200" height="200">
<g fill="black">
<polygon points="94.3,30.9 89.9,40.9 84.9,50.6 79.2,60 72.8,69.2 65.7,78.1 57.9,86.7 49.4,95 40.2,102.9 30.2,110.5 19.5,117.7 18.4,116.2 27.8,107.6 36.6,99 44.7,90.3 52.2,81.6 59,72.8 65.2,63.9 70.6,54.8 75.4,45.6 79.5,36.3 83,26.9 " />
<polygon points="83,26.9 94.3,30.9 83.5,25.4 " />
<polygon points="94.3,30.9 96.4,33.8 89.4,35.6 " />
<polygon points="124.9,72.4 119.7,82.3 114.1,92 108.1,101.8 101.8,111.4 95.1,121 88.1,130.6 80.6,140 72.8,149.4 64.4,158.5 55.6,167.5 54.3,166.4 61.5,156.1 68.5,146.1 75.3,136.1 81.9,126.2 88.1,116.3 93.9,106.5 99.5,96.7 104.7,86.8 109.6,77 114.1,67.3 " />
<polygon points="114.1,67.3 124.9,72.4 114.7,66.1 " />
<polygon points="124.9,72.4 126.8,75.5 119.6,76.6 " />
<polygon points="30,165.9 40.3,164.6 51,163.2 62.2,161.8 73.9,160.4 86.1,159 98.7,157.5 111.7,156 125.3,154.6 139.3,153.2 153.8,152.1 154.1,153.8 139.9,157 126.1,159.9 112.7,162.5 99.8,165 87.3,167.4 75.3,169.6 63.8,171.8 52.7,173.8 42,175.8 31.9,177.7 " />
<polygon points="31.9,177.7 30,165.9 28,166.2 " />
<polygon points="31.9,177.7 34.3,180.4 37.3,173.8 " />
<polygon points="120.3,120.9 127.1,125.7 133.5,130.6 139.6,135.7 145.4,140.9 150.9,146.1 156.1,151.5 161,156.8 165.7,162.2 170.1,167.6 174.3,173.1 164.3,179.8 160.9,174.3 157.2,168.7 153.2,163.1 149,157.5 144.6,151.8 139.9,146.1 135,140.4 129.8,134.5 124.5,128.5 119.1,122.3 " />
<polygon points="174.3,173.1 175.1,177.6 172.6,181.4 168.1,182.3 164.3,179.8 " />
</g>
</svg>
