<svg xmlns="http://www.w3.org/2000/svg" xmlns:xlink="http://www.w3.org/1999/xlink" version="1.1" baseProfile="full" viewBox="0 0 200 200" width="200" height="200">
<g fill="black">
<polygon points="86,17 86,61 74,61 74,15 " />
<polygon points="86,17 89,19 86,21 " />
<polygon points="86,61 83.6,64.6 80,67 76.4,64.6 74,61 " />
<polygon points="86,61 84.9,79.4 82.5,96.5 78.7,112.4 73.4,127 66.7,140.3 58.5,152.1 49,162.6 38.1,171.5 25.8,179 12.3,184.8 11.6,183.1 23.9,175.7 34.8,167.3 44.3,158 52.4,147.6 59.2,136.1 64.8,123.5 69,109.7 71.9,94.7 73.6,78.5 74,61 " />
<polygon points="25,64 132,64 132,68 25,68 " />
<polygon points="138,66 138,162 126,162 126,66 " />
<polygon points="126,64 132,59 143,68 138,72 126,66 " />
<polygon points="138,162 135.6,165.6 132,168 128.4,165.6 126,162 " />
<polygon points="138,162 138,163.2 138.2,164.1 138.4,164.7 138.5,165 138.7,165.2 138.9,165.4 139.2,165.5 139.8,165.7 140.7,165.9 142,166 142,178 139.4,177.8 136.9,177.4 134.5,176.6 132.2,175.3 130.2,173.7 128.6,171.7 127.3,169.4 126.5,167 126.1,164.5 126,162 " />
<polygon points="142,166 146.2,167.8 148,172 146.2,176.2 142,178 " />
<polygon points="142,166 180,166 180,178 142,178 " />
<polygon points="180,166 183.6,168.4 186,172 183.6,175.6 180,178 " />
<polygon points="174,167 180,141 182,141 180,167 " />
</g>
</svg>
