<svg xmlns="http://www.w3.org/2000/svg" xmlns:xlink="http://www.w3.org/1999/xlink" version="1.1" baseProfile="full" viewBox="0 0 200 200" width="200" height="200">
<g fill="black">
<polygon points="162.3,26 150.2,28.4 137.6,30.6 124.8,32.5 111.6,34.2 98,35.7 84.1,37 69.8,37.9 55.2,38.6 40.3,38.9 25,38.8 24.9,37.1 40,35.2 54.8,33.3 69.2,31.4 83.2,29.4 96.9,27.3 110.2,25 123.1,22.6 135.7,20 147.8,17.3 159.6,14.3 " />
<polygon points="159.6,14.3 162.3,26 170.3,24.2 " />
<polygon points="170.3,24.2 170.6,27.2 162.1,23 " />
<polygon points="106,29 106,182 94,188 94,29 " />
<polygon points="75.6,63.8 71.6,69.6 67.2,75.1 62.2,80.3 56.9,85.3 51.1,90.1 44.9,94.6 38.2,98.9 31.1,102.9 23.5,106.5 15.4,109.8 14.5,108.1 21.6,103.2 28.2,98.4 34.4,93.5 40.2,88.6 45.5,83.7 50.4,78.7 54.8,73.6 58.7,68.4 62.2,63.1 65.3,57.8 " />
<polygon points="65.3,57.8 75.6,63.8 65.8,56.9 " />
<polygon points="75.6,63.8 77.2,67.1 70,67.5 " />
<polygon points="80.3,114.2 74.9,121.1 69.1,127.7 63.1,134 56.7,140 50.1,145.6 43.2,150.8 36,155.7 28.4,160.2 20.6,164.2 12.4,167.7 11.5,166.2 18.6,161 25.5,155.7 32.1,150.4 38.4,144.9 44.5,139.2 50.3,133.3 55.7,127.2 60.9,120.8 65.8,114.2 70.5,107.3 " />
<polygon points="70.5,107.3 80.3,114.2 70.9,106.6 " />
<polygon points="80.3,114.2 81.6,117.5 74.4,117.4 " />
<polygon points="174.8,57.6 171.2,63.6 167.2,69.5 163,75.2 158.4,80.7 153.6,85.9 148.4,91 142.9,95.9 137.2,100.5 131,104.7 124.5,108.7 123.4,107.2 128.6,101.8 133.6,96.5 138.3,91.2 142.9,85.8 147.1,80.4 151.1,74.9 154.8,69.4 158.2,63.7 161.3,57.9 164.2,52.1 " />
<polygon points="164.2,52.1 174.8,57.6 164.7,51 " />
<polygon points="174.8,57.6 176.6,60.7 169.4,61.5 " />
<polygon points="102.1,53.7 107.2,67 112.9,79.8 119.3,92.1 126.5,103.9 134.6,115.2 143.4,126 153.2,136.4 163.8,146.2 175.3,155.6 187.8,164.6 180.1,175.3 167.5,165.4 155.9,154.9 145.2,144 135.6,132.6 127,120.7 119.4,108.3 112.9,95.4 107.5,82.1 103.2,68.3 100.3,54.1 " />
<polygon points="180.1,175.3 187.8,164.6 191.1,166.9 " />
</g>
</svg>
