<svg xmlns="http://www.w3.org/2000/svg" xmlns:xlink="http://www.w3.org/1999/xlink" version="1.1" baseProfile="full" viewBox="0 0 200 200" width="200" height="200">
<g fill="black">
<polygon points="40,35 143,35 143,39 40,39 " />
<polygon points="147.2,41.2 58.5,130.6 50,122.1 138.7,32.7 " />
<polygon points="137,35 143,30 154,39 149,43 137,37 " />
<polygon points="58.5,130.6 51.4,138.3 46.5,144.9 43.7,150.3 42.8,153.9 43.1,156 44.3,157.7 47.6,159.6 53.3,161.4 61.5,162.5 72,163 72,175 60.5,174.5 50.8,173.1 42.8,170.6 36.3,166.6 32,160.6 30.8,153.3 32.5,145.9 36.3,138.5 42.2,130.6 50,122.1 " />
<polygon points="72,163 76.2,164.8 78,169 76.2,173.2 72,175 " />
<polygon points="72,163 170,163 170,175 72,175 " />
<polygon points="170,163 173.6,165.4 176,169 173.6,172.6 170,175 " />
<polygon points="164,164 170,138 172,138 170,164 " />
</g>
</svg>
