<svg xmlns="http://www.w3.org/2000/svg" xmlns:xlink="http://www.w3.org/1999/xlink" version="1.1" baseProfile="full" viewBox="0 0 200 200" width="200" height="200">
<g fill="black">
<polygon points="37,27 159,27 159,31 37,31 " />
<polygon points="159,27 135,29 147,17 " />
<polygon points="14,67 184,67 184,71 14,71 " />
<polygon points="184,67 160,69 172,57 " />
<polygon points="79.3,69 61.1,122.1 47.8,123.9 67.9,65.1 " />
<polygon points="60,105 146,105 146,109 60,109 " />
<polygon points="151.9,107.4 150.9,117.5 149.6,127 147.9,135.9 145.9,144.1 143.5,151.8 140.7,158.8 137.5,165.3 133.9,171.1 129.9,176.2 125.4,180.8 117.4,171.8 120.8,168.3 124,164.2 127,159.4 129.7,154 132.2,147.8 134.3,140.9 136.2,133.3 137.8,125.1 139,116.1 140,106.5 " />
<polygon points="140,105 146,100 157,109 152,113 146,113 " />
<polygon points="125.4,180.8 121.1,182.2 116.9,180.3 115.5,176 117.4,171.8 " />
<polygon points="125.4,180.8 123.6,182.3 121.7,183.7 119.7,184.9 117.6,186 115.5,186.9 113.2,187.6 111,188.2 108.7,188.6 106.3,188.9 104,189 104,177 105.5,176.9 107,176.7 108.5,176.5 109.8,176.1 111.2,175.7 112.5,175.1 113.7,174.5 115,173.7 116.2,172.8 117.4,171.8 " />
<polygon points="104,183 104,177 84,177 84,180 " />
</g>
</svg>
