<svg xmlns="http://www.w3.org/2000/svg" xmlns:xlink="http://www.w3.org/1999/xlink" version="1.1" baseProfile="full" viewBox="0 0 200 200" width="200" height="200">
<g fill="black">
<path d="M 96 185 L 96 70 L 108 72 L 111 74 L 108 75.8 L 108 179 Z M 19.6 101.6 L 18.3 100.3 L 23.7 93.1 L 29.1 85.6 L 34.5 77.9 L 39.8 69.9 L 45.1 61.6 L 50.3 52.8 L 55.4 43.7 L 60.4 34.3 L 65.3 24.4 L 70.1 14.2 L 70.7 13.1 L 80.9 19.5 L 82.7 22.6 L 79.1 22.9 L 75.4 29.7 L 69.8 39.5 L 64 48.9 L 61.3 53 L 164 53 L 164.4 52.7 L 164.8 51.8 L 165.2 52 L 170 48 L 181 57 L 176 60 L 172.4 61.5 L 171 63.2 L 168.8 65.9 L 166.4 68.6 L 164 71.4 L 161.4 74.3 L 158.7 77.3 L 155.8 80.3 L 152.7 83.3 L 149.7 86.5 L 148.2 85.4 L 150.3 81.5 L 152.1 77.6 L 153.9 73.9 L 155.7 70.4 L 157.4 67 L 159.1 63.7 L 160.6 60.5 L 162.1 57.5 L 162.3 57 L 58.6 57 L 58.1 57.8 L 52.1 66.3 L 46 74.4 L 39.7 81.9 L 33.2 89.1 L 26.5 95.6 Z " />
</g>
</svg>
