<svg xmlns="http://www.w3.org/2000/svg" xmlns:xlink="http://www.w3.org/1999/xlink" version="1.1" baseProfile="full" viewBox="0 0 200 200" width="200" height="200">
<g fill="black">
<polygon points="18,54 75,54 75,58 18,58 " />
<polygon points="75,54 51,56 63,44 " />
<polygon points="14.9,142.2 22.4,138.3 29.9,134.2 37.4,129.9 44.9,125.4 52.5,120.6 60.1,115.7 67.7,110.5 75.5,105.2 83.3,99.8 91.4,94.3 92.5,95.6 85.8,102.7 78.8,109.4 71.7,115.7 64.6,121.8 57.4,127.5 50.1,133.1 42.8,138.3 35.5,143.4 28.1,148.2 20.7,152.7 " />
<polygon points="20.7,152.7 14.9,142.2 13.2,143.2 " />
<polygon points="20.7,152.7 23.9,154.4 24.5,147.2 " />
</g>
</svg>
