<svg xmlns="http://www.w3.org/2000/svg" xmlns:xlink="http://www.w3.org/1999/xlink" version="1.1" baseProfile="full" viewBox="0 0 200 200" width="200" height="200">
<g fill="black">
<polygon points="81.1,17.1 76.7,26.6 72.2,35.5 67.4,44 62.3,51.9 57.1,59.3 51.7,66.2 46,72.5 40.1,78.2 34,83.3 27.5,87.6 26.4,86.3 31.4,80.5 36.2,74.5 41,68.3 45.6,61.6 50.1,54.6 54.4,47.1 58.6,39.1 62.5,30.8 66.4,21.9 70,12.6 " />
<polygon points="70,12.6 81.1,17.1 70.6,11.3 " />
<polygon points="81.1,17.1 83.1,20.1 76.1,21.6 " />
<polygon points="64,34 122,34 122,38 64,38 " />
<polygon points="127,39.2 124.8,41.9 122.5,44.5 120.1,47.2 117.6,49.8 115,52.4 112.4,54.9 109.6,57.4 106.7,59.8 103.6,62.1 100.6,64.6 99.3,63.3 101.4,60.2 103.3,56.9 105.2,53.7 107.1,50.6 108.9,47.5 110.6,44.5 112.3,41.5 113.9,38.6 115.4,35.6 116.9,32.7 " />
<polygon points="116,34 122,29 133,38 128,42 122,42 " />
<polygon points="53,62 151,62 151,66 53,66 " />
<polygon points="157,64 157,137 145,143 145,64 " />
<polygon points="145,62 151,57 162,66 157,70 145,64 " />
<polygon points="42,127 151,127 151,131 42,131 " />
<polygon points="16,95 186,95 186,99 16,99 " />
<polygon points="186,95 162,97 174,85 " />
<polygon points="106,62 106,175 94,175 94,62 " />
<polygon points="106,175 103.6,178.6 100,181 96.4,178.6 94,175 " />
<polygon points="106,175 105.8,177.5 105.4,180 104.6,182.4 103.3,184.7 101.7,186.7 99.7,188.3 97.4,189.6 95,190.4 92.5,190.8 90,191 90,179 91.2,178.9 92.1,178.7 92.7,178.5 93,178.4 93.2,178.2 93.4,178 93.5,177.7 93.7,177.1 93.9,176.2 94,175 " />
<polygon points="90,185 90,179 70,179 70,182 " />
</g>
</svg>
