<svg xmlns="http://www.w3.org/2000/svg" xmlns:xlink="http://www.w3.org/1999/xlink" version="1.1" baseProfile="full" viewBox="0 0 200 200" width="200" height="200">
<g fill="black">
<polygon points="75.6,20.2 73,29.6 69.8,38.6 66.1,47 61.8,54.9 56.9,62.3 51.5,69 45.6,75.2 39.1,80.8 32,85.6 24.4,89.7 23.5,88.2 29.7,82.6 35.5,76.8 40.8,70.7 45.6,64.4 49.8,57.6 53.6,50.5 56.9,42.9 59.7,35 62,26.6 63.9,17.7 " />
<polygon points="63.9,17.7 75.6,20.2 64.3,15.9 " />
<polygon points="75.6,20.2 78.1,22.7 71.5,25.4 " />
<polygon points="57,48 166,48 166,52 57,52 " />
<polygon points="171.6,51.9 169.5,56.5 167.2,60.9 164.7,65 162.1,68.8 159.3,72.3 156.2,75.5 153,78.3 149.7,80.8 146.1,82.9 142.5,84.7 141.4,83.2 144.1,80.4 146.4,77.3 148.6,74.2 150.7,71 152.6,67.6 154.4,64.1 156.1,60.4 157.6,56.4 159,52.3 160.3,48 " />
<polygon points="160,48 166,43 177,52 172,56 166,56 " />
<polygon points="106,69 106,164 94,164 94,67 " />
<polygon points="106,69 109,71 106,73 " />
<polygon points="106,164 103.6,167.6 100,170 96.4,167.6 94,164 " />
<polygon points="106,164 105.8,166.5 105.4,169 104.6,171.4 103.3,173.7 101.7,175.7 99.7,177.3 97.4,178.6 95,179.4 92.5,179.8 90,180 90,168 91.2,167.9 92.1,167.7 92.7,167.5 93,167.4 93.2,167.2 93.4,167 93.5,166.7 93.7,166.1 93.9,165.2 94,164 " />
<polygon points="90,174 90,168 70,168 70,171 " />
</g>
</svg>
