<svg xmlns="http://www.w3.org/2000/svg" xmlns:xlink="http://www.w3.org/1999/xlink" version="1.1" baseProfile="full" viewBox="0 0 200 200" width="200" height="200">
<g fill="black">
<polygon points="26,30 158,30 158,34 26,34 " />
<polygon points="161.9,36.5 156.6,40.7 151.1,44.9 145.4,49.2 139.6,53.5 133.6,57.8 127.4,62.1 121,66.3 114.4,70.6 107.6,74.7 100.5,78.7 99.4,77.2 105.3,71.6 111.2,66.3 117,61.1 122.7,56.1 128.3,51.1 133.7,46.3 139,41.5 144.2,36.7 149.2,32.1 154,27.4 " />
<polygon points="152,30 158,25 169,34 164,37 152,42 " />
<polygon points="106,75 106,171 94,171 94,73 " />
<polygon points="106,75 109,77 104,80 " />
<polygon points="106,171 103.6,174.6 100,177 96.4,174.6 94,171 " />
<polygon points="106,171 105.8,173.5 105.4,176 104.6,178.4 103.3,180.7 101.7,182.7 99.7,184.3 97.4,185.6 95,186.4 92.5,186.8 90,187 90,175 91.2,174.9 92.1,174.7 92.7,174.5 93,174.4 93.2,174.2 93.4,174 93.5,173.7 93.7,173.1 93.9,172.2 94,171 " />
<polygon points="70,178 70,175 90,175 90,181 " />
</g>
</svg>
