<svg xmlns="http://www.w3.org/2000/svg" xmlns:xlink="http://www.w3.org/1999/xlink" version="1.1" baseProfile="full" viewBox="0 0 200 200" width="200" height="200">
<g fill="black">
<polygon points="75.6,20.2 73,29.6 69.8,38.6 66.1,47 61.8,54.9 56.9,62.3 51.5,69 45.6,75.2 39.1,80.8 32,85.6 24.4,89.7 23.5,88.2 29.7,82.6 35.5,76.8 40.8,70.7 45.6,64.4 49.8,57.6 53.6,50.5 56.9,42.9 59.7,35 62,26.6 63.9,17.7 " />
<polygon points="63.7,18.7 75.6,20.2 64.3,15.9 " />
<polygon points="75.6,20.2 78.1,22.7 72.6,24.6 " />
<polygon points="57,48 166,48 166,52 57,52 " />
<polygon points="166,48 142,50 154,38 " />
<polygon points="106,51 106,164 94,164 94,51 " />
<polygon points="106,164 103.6,167.6 100,170 96.4,167.6 94,164 " />
<polygon points="106,164 105.8,166.5 105.4,169 104.6,171.4 103.3,173.7 101.7,175.7 99.7,177.3 97.4,178.6 95,179.4 92.5,179.8 90,180 90,168 91.2,167.9 92.1,167.7 92.7,167.5 93,167.4 93.2,167.2 93.4,167 93.5,166.7 93.7,166.1 93.9,165.2 94,164 " />
<polygon points="90,174 90,168 70,168 70,171 " />
</g>
</svg>
