<svg xmlns="http://www.w3.org/2000/svg" xmlns:xlink="http://www.w3.org/1999/xlink" version="1.1" baseProfile="full" viewBox="0 0 200 200" width="200" height="200">
<g fill="black">
<polygon points="30,24 170,24 170,28 30,28 " />
<polygon points="170,24 146,26 158,14 " />
<polygon points="12,66 189,66 189,70 12,70 " />
<polygon points="189,66 165,68 177,56 " />
<polygon points="98.3,28 66.2,123.1 52.9,125 86.9,24.1 " />
<polygon points="65,106 152,106 152,110 65,110 " />
<polygon points="157.9,108.5 156.8,118.7 155.4,128.3 153.8,137.1 151.9,145.2 149.8,152.6 147.3,159.3 144.6,165.4 141.6,170.8 138.2,175.6 134.4,179.6 126.3,170.8 128.9,168 131.4,164.4 133.9,160.1 136.2,154.9 138.3,148.9 140.3,142.2 142,134.6 143.6,126.3 144.9,117.2 146,107.4 " />
<polygon points="146,106 152,101 163,110 158,114 152,114 " />
<polygon points="134.4,179.6 130.1,181.1 125.9,179.2 124.4,174.9 126.3,170.8 " />
<polygon points="134.4,179.6 132.6,181.2 130.7,182.6 128.7,183.8 126.6,184.9 124.5,185.9 122.3,186.6 120,187.2 117.7,187.6 115.3,187.9 113,188 113,176 114.5,175.9 116,175.7 117.4,175.5 118.8,175.1 120.1,174.7 121.4,174.1 122.7,173.4 123.9,172.7 125.1,171.8 126.3,170.8 " />
<polygon points="113,182 113,176 93,176 93,179 " />
</g>
</svg>
