<svg xmlns="http://www.w3.org/2000/svg" xmlns:xlink="http://www.w3.org/1999/xlink" version="1.1" baseProfile="full" viewBox="0 0 200 200" width="200" height="200">
<g fill="black">
<polygon points="84.3,13.8 88.2,16.1 91.9,18.2 95.4,20.5 98.6,22.9 101.6,25.3 104.3,27.9 106.7,30.5 108.9,33.3 110.9,36.1 112.5,39 101.3,43.2 100.7,40.9 99.9,38.5 98.7,35.9 97.4,33.2 95.7,30.5 93.7,27.6 91.5,24.6 89.1,21.6 86.4,18.4 83.2,15.3 " />
<polygon points="112.5,39 112.3,43.6 109,46.8 104.4,46.5 101.3,43.2 " />
<polygon points="20,49 182,49 182,53 20,53 " />
<polygon points="182,49 158,51 170,39 " />
</g>
</svg>
