<svg xmlns="http://www.w3.org/2000/svg" xmlns:xlink="http://www.w3.org/1999/xlink" version="1.1" baseProfile="full" viewBox="0 0 200 200" width="200" height="200">
<g fill="black">
<polygon points="107,14 107,44 95,44 95,12 " />
<polygon points="107,14 110,16 107,18 " />
<polygon points="22,40 182,40 182,44 22,44 " />
<polygon points="182,40 158,42 170,30 " />
<polygon points="55.3,46.9 59.2,49.3 63,51.7 66.6,54.5 70,57.3 73.2,60.4 76.2,63.5 79.1,66.8 81.9,70.3 84.5,73.8 86.9,77.5 76.2,83.1 74.7,79.5 72.9,76 71.1,72.4 69.1,69 66.9,65.5 64.6,62.1 62.2,58.7 59.6,55.2 57,51.7 54.1,48.3 " />
<polygon points="86.9,77.5 87.2,82.1 84.3,85.6 79.8,86 76.2,83.1 " />
<polygon points="152.6,52.9 150.2,56.2 147.5,59.7 144.5,63.3 141.2,67.1 137.6,71.1 133.8,75.1 129.5,79.4 125,83.7 120,88.1 114.6,92.6 113.3,91.3 117.2,85.6 121,80.2 124.5,75.1 127.9,70.3 131,65.8 133.8,61.5 136.4,57.4 138.6,53.6 140.6,50.1 142.3,46.8 " />
<polygon points="142.3,46.8 152.6,52.9 142.8,45.9 " />
<polygon points="152.6,52.9 154.2,56.1 147,56.5 " />
<polygon points="39,89.2 37.9,119.2 26,118.7 27.2,82.7 " />
<polygon points="38,119 37.4,128.6 36.3,137.6 34.7,146 32.6,153.7 29.9,160.9 26.7,167.4 23,173.2 18.7,178.2 13.8,182.4 8.5,185.7 7.4,184.2 11.2,179.7 14.5,174.9 17.4,169.7 19.9,164.1 22,158 23.6,151.4 24.9,144.1 25.7,136.3 26,127.9 26,119 " />
<polygon points="33,89 187,89 187,93 33,93 " />
<polygon points="187,89 163,91 175,79 " />
</g>
</svg>
