<svg xmlns="http://www.w3.org/2000/svg" xmlns:xlink="http://www.w3.org/1999/xlink" version="1.1" baseProfile="full" viewBox="0 0 200 200" width="200" height="200">
<g fill="black">
<polygon points="106,14 106,40 94,40 94,12 " />
<polygon points="106,14 109,16 104,19 " />
<polygon points="32,36 174,36 174,40 32,40 " />
<polygon points="174,36 150,38 162,26 " />
<polygon points="139.3,49.5 133.9,52.5 127.9,55.6 121.3,58.6 114.2,61.8 106.5,64.9 98.3,68.2 89.4,71.4 80,74.6 70,77.8 59.3,80.8 58.6,79.1 68.6,74.2 78,69.6 86.9,65.3 95.2,61.2 103,57.2 110.1,53.4 116.7,49.7 122.7,46.1 128.1,42.7 132.9,39.4 " />
<polygon points="132,40 139.3,49.5 140.4,48.9 " />
<polygon points="140.4,48.9 140.5,52.4 134.9,50 " />
<polygon points="62.2,44.4 72.4,46.3 82,48.5 91.1,50.8 99.6,53.2 107.5,55.7 115,58.1 121.8,60.6 128.2,63.2 134,65.7 139.3,68.3 133.4,78.6 128.8,75.8 123.6,72.8 117.8,69.8 111.5,66.8 104.5,63.6 97,60.4 89,57.1 80.4,53.6 71.3,50 61.7,46.1 " />
<polygon points="139.3,68.3 142.1,71.9 141.5,76.4 137.9,79.2 133.4,78.6 " />
<polygon points="36,81 184,81 184,85 36,85 " />
<polygon points="184,81 160,83 172,71 " />
<polygon points="42,81 42,116 30,116 30,75 " />
<polygon points="42,116 39.6,119.6 36,122 32.4,119.6 30,116 " />
<polygon points="42,116 41.4,125.4 40.3,134.5 38.7,143.1 36.6,151.2 34,158.8 30.8,165.9 27.1,172.5 22.8,178.5 18,183.9 12.6,188.6 11.3,187.3 15,181.6 18.3,175.6 21.3,169.4 23.8,162.9 25.9,156.1 27.6,148.9 28.8,141.3 29.7,133.3 30,124.8 30,116 " />
</g>
</svg>
