<svg xmlns="http://www.w3.org/2000/svg" xmlns:xlink="http://www.w3.org/1999/xlink" version="1.1" baseProfile="full" viewBox="0 0 200 200" width="200" height="200">
<g fill="black">
<polygon points="80.2,61.6 87,63.9 93.5,66.6 99.7,69.6 105.6,72.8 111.2,76.3 116.6,80 121.8,83.9 126.6,88 131.3,92.3 135.6,96.8 126.4,104.5 122.9,100.1 119.1,95.7 115.1,91.4 110.7,87.2 106.2,83.1 101.3,79.1 96.2,75.2 90.8,71.2 85.3,67.2 79.5,63.2 " />
<polygon points="135.6,96.8 136.9,101.2 134.9,105.2 130.5,106.6 126.4,104.5 " />
<polygon points="109,17.5 101.5,25.8 93.5,33.6 85.2,41.1 76.4,48 67.3,54.6 57.7,60.6 47.8,66.3 37.4,71.4 26.6,75.9 15.3,79.8 14.6,78.1 24.9,72.4 34.9,66.6 44.4,60.6 53.6,54.3 62.3,47.7 70.6,40.8 78.5,33.6 86,26 93,18.2 99.7,9.9 " />
<polygon points="99,10.7 109,17.5 100.1,9.4 " />
<polygon points="109,17.5 110,21 104.3,20.1 " />
<polygon points="102.3,19 109.9,24.8 117.5,30.3 125.2,35.4 133.1,40.2 141.2,44.6 149.6,48.6 158.2,52.2 167.1,55.4 176.2,58.2 185.6,60.6 182.3,73.3 172.4,70.1 162.9,66.4 153.7,62.3 145,57.7 136.5,52.7 128.5,47.2 120.9,41.2 113.7,34.8 107,27.8 101,20.3 " />
<polygon points="182.3,73.3 185.6,60.6 194,62.8 " />
</g>
</svg>
