<svg xmlns="http://www.w3.org/2000/svg" xmlns:xlink="http://www.w3.org/1999/xlink" version="1.1" baseProfile="full" viewBox="0 0 200 200" width="200" height="200">
<g fill="black">
<polygon points="106,18 106,44 94,44 94,16 " />
<polygon points="106,18 109,20 106,22 " />
<polygon points="17,40 183,40 183,44 17,44 " />
<polygon points="183,40 159,42 171,30 " />
<polygon points="50,54 50,118 38,124 38,48 " />
<polygon points="44,54 156,54 156,58 44,58 " />
<polygon points="162,56 162,112 150,118 150,56 " />
<polygon points="150,54 156,49 167,58 162,62 150,56 " />
<polygon points="44,102 156,102 156,106 44,106 " />
<polygon points="79,67 79,91 67,97 67,61 " />
<polygon points="73,67 126,67 126,71 73,71 " />
<polygon points="132,69 132,91 120,97 120,69 " />
<polygon points="120,67 126,62 137,71 132,75 120,69 " />
<polygon points="73,87 126,87 126,91 73,91 " />
<polygon points="68,118 68,166 56,172 56,112 " />
<polygon points="62,118 139,118 139,122 62,122 " />
<polygon points="145,120 145,166 133,172 133,120 " />
<polygon points="133,118 139,113 150,122 145,126 133,120 " />
<polygon points="62,139 139,139 139,143 62,143 " />
<polygon points="62,162 139,162 139,166 62,166 " />
<polygon points="18,178 182,178 182,182 18,182 " />
<polygon points="182,178 158,180 170,168 " />
</g>
</svg>
