<svg xmlns="http://www.w3.org/2000/svg" xmlns:xlink="http://www.w3.org/1999/xlink" version="1.1" baseProfile="full" viewBox="0 0 200 200" width="200" height="200">
<g fill="black">
<polygon points="106,9.8 106,28.6 94,28.6 94,7.8 " />
<polygon points="106,9.8 109,11.8 104,14.8 " />
<polygon points="14.4,24.6 187.7,24.6 187.7,28.6 14.4,28.6 " />
<polygon points="187.7,24.6 167.7,26.6 177.7,15.6 " />
<polygon points="48.1,38.1 48.1,113.6 36.1,119.6 36.1,32.1 " />
<polygon points="42.1,38.1 158.7,38.1 158.7,42.1 42.1,42.1 " />
<polygon points="164.7,40.1 164.7,107.6 152.7,113.6 152.7,40.1 " />
<polygon points="152.7,38.1 158.7,33.1 169.7,42.1 164.7,46.1 152.7,40.1 " />
<polygon points="42.1,97.6 158.7,97.6 158.7,101.6 42.1,101.6 " />
<polygon points="81.9,54.7 81.9,83.1 69.9,89.1 69.9,48.7 " />
<polygon points="75.9,54.7 124,54.7 124,58.7 75.9,58.7 " />
<polygon points="130,56.7 130,83.1 118,89.1 118,56.7 " />
<polygon points="118,54.7 124,49.7 135,58.7 130,62.7 118,56.7 " />
<polygon points="75.9,79.1 124,79.1 124,83.1 75.9,83.1 " />
<polygon points="61,116.6 61,190.7 49,190.7 49,110.6 " />
<polygon points="55,116.6 145,116.6 145,120.6 55,120.6 " />
<polygon points="151,118.6 151,190.7 139,190.7 139,118.6 " />
<polygon points="139,116.6 145,111.6 156,120.6 151,124.6 139,118.6 " />
<polygon points="55,139.7 145,139.7 145,143.7 55,143.7 " />
<polygon points="55,162.7 145,162.7 145,166.7 55,166.7 " />
<polygon points="14,186.7 186,186.7 186,190.7 14,190.7 " />
<polygon points="186,186.7 162,188.7 174,176.7 " />
</g>
</svg>
