<svg xmlns="http://www.w3.org/2000/svg" xmlns:xlink="http://www.w3.org/1999/xlink" version="1.1" baseProfile="full" viewBox="0 0 200 200" width="200" height="200">
<g fill="black">
<polygon points="41,67 41,116 29,116 29,61 " />
<polygon points="41,116 38.6,119.6 35,122 31.4,119.6 29,116 " />
<polygon points="41,116 40.4,125.1 39.4,133.8 37.8,142.1 35.8,150 33.2,157.5 30.2,164.6 26.6,171.1 22.5,177.2 17.8,182.7 12.6,187.5 11.3,186.4 14.8,180.4 17.9,174.4 20.7,168.2 23.2,161.7 25.2,154.9 26.8,147.8 27.9,140.4 28.7,132.6 29,124.5 29,116 " />
<polygon points="31,37 176,37 176,41 31,41 " />
<polygon points="176,37 152,39 164,27 " />
<polygon points="106,15 106,41 94,41 94,13 " />
<polygon points="106,15 109,17 106,19 " />
<polygon points="51,85 145,85 145,89 51,89 " />
<polygon points="151,87 151,134 139,140 139,87 " />
<polygon points="139,85 145,80 156,89 151,93 139,87 " />
<polygon points="51,126 145,126 145,130 51,130 " />
<polygon points="45,106 179,106 179,110 45,110 " />
<polygon points="179,106 155,108 167,96 " />
<polygon points="91,68 91,183 79,189 79,68 " />
<polygon points="120,68 120,183 108,189 108,68 " />
<polygon points="35,67 181,67 181,71 35,71 " />
<polygon points="181,67 157,69 169,57 " />
<polygon points="89.7,128 88.5,130.3 85,137 81.1,143.3 76.7,149.3 72,154.9 66.8,160.1 61.1,165 55.1,169.4 48.6,173.4 41.7,176.8 34.4,179.8 33.5,178.1 39.8,173.6 45.6,168.9 51,164.2 56,159.3 60.6,154.3 64.8,149 68.6,143.5 71.9,137.8 74.9,131.8 76.4,128 " />
<polygon points="119.3,128.3 124.2,133.2 128.9,137.9 133.6,142.4 138.4,146.6 143.2,150.4 148.1,154 153.1,157.2 158.2,160.1 163.4,162.7 168.7,165 163.2,176.9 157.5,173.7 152,170.1 146.7,166.2 141.7,162 137,157.4 132.5,152.5 128.3,147.3 124.3,141.7 120.8,135.7 117.8,129.3 " />
<polygon points="163.2,176.9 168.7,165 174.5,167.7 " />
<polygon points="63.2,42.4 65.9,43.2 68.7,43.8 71.4,44.7 73.9,46 76.4,47.5 78.6,49.3 80.7,51.4 82.6,53.8 84.3,56.4 85.8,59.3 74.3,62.9 74,60.6 73.5,58.5 72.9,56.5 72,54.5 71.1,52.6 69.9,50.8 68.5,49 66.8,47.2 64.9,45.4 62.6,44.1 " />
<polygon points="85.8,59.3 85.3,63.8 81.8,66.8 77.3,66.3 74.3,62.9 " />
<polygon points="134.9,47.5 133.3,49.7 131.5,52 129.7,54.2 127.8,56.4 125.7,58.6 123.5,60.8 121.2,62.9 118.7,65.1 116.1,67.2 113.6,69.5 112.3,68.4 114.1,65.6 115.5,62.6 116.9,59.7 118.2,56.9 119.5,54.3 120.6,51.7 121.7,49.2 122.6,46.8 123.4,44.4 124.1,42.2 " />
<polygon points="124.1,42.2 134.9,47.5 124.7,41.1 " />
<polygon points="134.9,47.5 136.7,50.7 129.5,51.6 " />
</g>
</svg>
