<svg xmlns="http://www.w3.org/2000/svg" xmlns:xlink="http://www.w3.org/1999/xlink" version="1.1" baseProfile="full" viewBox="0 0 200 200" width="200" height="200">
<g fill="black">
<polygon points="107.7,18.8 100.9,29.4 93.6,39.5 85.7,49 77.3,57.8 68.5,66 59.1,73.6 49.2,80.5 38.7,86.7 27.8,92.1 16.3,96.8 15.6,95.1 26,88.8 35.9,82.1 45.3,75.1 54.3,67.7 62.7,59.8 70.6,51.4 78,42.5 84.9,33.2 91.3,23.3 97.2,12.9 " />
<polygon points="97.8,11.9 107.7,18.8 96.7,13.7 " />
<polygon points="107.7,18.8 109.3,22 103.5,22.1 " />
<polygon points="96.3,24.2 104.5,31.9 112.6,39.2 120.6,46 128.7,52.2 136.9,57.9 145.1,63 153.4,67.5 161.9,71.5 170.4,74.9 179,77.7 174.9,90.2 165.7,86.5 156.7,82.1 148,77.1 139.6,71.6 131.4,65.4 123.4,58.7 115.7,51.3 108.4,43.3 101.4,34.7 94.9,25.3 " />
<polygon points="174.9,90.2 179,77.7 186.5,80.2 " />
<polygon points="53,87 147,87 147,91 53,91 " />
<polygon points="147,87 123,89 135,77 " />
<polygon points="30,116 170,116 170,120 30,120 " />
<polygon points="170,116 146,118 158,106 " />
<polygon points="106,63 106,172 94,172 94,61 " />
<polygon points="106,63 109,65 104,68 " />
<polygon points="106,172 103.6,175.6 100,178 96.4,175.6 94,172 " />
<polygon points="106,172 105.8,174.5 105.4,177 104.6,179.4 103.3,181.7 101.7,183.7 99.7,185.3 97.4,186.6 95,187.4 92.5,187.8 90,188 90,176 91.2,175.9 92.1,175.7 92.7,175.5 93,175.4 93.2,175.2 93.4,175 93.5,174.7 93.7,174.1 93.9,173.2 94,172 " />
<polygon points="70,179 70,176 90,176 90,182 " />
<polygon points="124.3,132.7 129.8,135.3 135,138.2 140,141.5 144.6,145 149.1,148.7 153.3,152.7 157.2,156.8 160.9,161.1 164.4,165.7 167.6,170.4 157.3,176.3 154.9,171.8 152.2,167.4 149.4,163.1 146.3,158.8 143,154.6 139.5,150.5 135.7,146.5 131.7,142.5 127.6,138.4 123.3,134.3 " />
<polygon points="167.6,170.4 168.2,174.9 165.4,178.5 160.9,179.1 157.3,176.3 " />
<polygon points="70.3,139.2 66.2,144.4 61.9,149.3 57.5,154.2 52.9,158.8 48.1,163.3 43.2,167.7 38.1,171.8 32.8,175.7 27.3,179.4 21.5,182.7 20.4,181.2 24.9,176.4 29.3,171.7 33.6,167 37.9,162.2 42,157.5 46,152.6 49.8,147.7 53.5,142.6 57.1,137.5 60.5,132.3 " />
<polygon points="61,131.6 70.3,139.2 59.9,133.1 " />
<polygon points="70.3,139.2 71.6,142.6 65.8,142.2 " />
</g>
</svg>
