<svg xmlns="http://www.w3.org/2000/svg" xmlns:xlink="http://www.w3.org/1999/xlink" version="1.1" baseProfile="full" viewBox="0 0 200 200" width="200" height="200">
<g fill="black">
<polygon points="107.7,18.8 100.9,29.4 93.6,39.5 85.7,49 77.3,57.8 68.5,66 59.1,73.6 49.2,80.5 38.7,86.7 27.8,92.1 16.3,96.8 15.6,95.1 26,88.8 35.9,82.1 45.3,75.1 54.3,67.7 62.7,59.8 70.6,51.4 78,42.5 84.9,33.2 91.3,23.3 97.2,12.9 " />
<polygon points="97.8,11.9 107.7,18.8 96.7,13.7 " />
<polygon points="107.7,18.8 109.3,22 103.5,22.1 " />
<polygon points="96.3,24.2 104.5,31.9 112.6,39.2 120.6,46 128.7,52.2 136.9,57.9 145.1,63 153.4,67.5 161.9,71.5 170.4,74.9 179,77.7 174.9,90.2 165.7,86.5 156.7,82.1 148,77.1 139.6,71.6 131.4,65.4 123.4,58.7 115.7,51.3 108.4,43.3 101.4,34.7 94.9,25.3 " />
<polygon points="174.9,90.2 179,77.7 186.5,80.2 " />
<polygon points="141.8,84 133.1,86.2 124.2,88.3 114.9,90.2 105.2,91.9 95.2,93.4 84.9,94.8 74.2,96 63.2,96.9 51.8,97.6 40,97.8 39.9,96.1 51.4,93.8 62.5,91.6 73.2,89.5 83.7,87.3 93.7,85.1 103.3,82.8 112.6,80.4 121.5,77.9 130.1,75.2 138.2,72.5 " />
<polygon points="148.2,82 141.8,84 137.3,72.8 " />
<polygon points="148.2,82 148.4,85.1 141.5,82 " />
<polygon points="32,117 166,117 166,121 32,121 " />
<polygon points="166,117 142,119 154,107 " />
<polygon points="105,89 105,183 93,189 93,89 " />
<polygon points="103.2,119 101,122.1 95.7,129.5 89.7,136.6 83.2,143.2 76.2,149.5 68.6,155.3 60.4,160.7 51.7,165.7 42.5,170.3 32.7,174.3 22.3,177.8 21.6,176.1 31.1,170.9 40,165.5 48.3,160.1 56.1,154.5 63.3,148.6 70,142.5 76,136.2 81.5,129.6 86.5,122.8 88.8,119 " />
<polygon points="103.3,119.3 108.9,125.2 114.7,130.8 120.7,136.3 127.1,141.4 133.9,146.2 141.1,150.7 148.7,154.9 156.8,158.8 165.3,162.5 174.3,165.8 169.6,178.1 160.3,173.9 151.5,169.4 143.2,164.5 135.5,159.2 128.3,153.6 121.7,147.7 115.6,141.4 110.3,134.8 105.6,127.7 101.7,120.3 " />
<polygon points="169.6,178.1 174.3,165.8 181.1,168.4 " />
</g>
</svg>
