<svg xmlns="http://www.w3.org/2000/svg" xmlns:xlink="http://www.w3.org/1999/xlink" version="1.1" baseProfile="full" viewBox="0 0 200 200" width="200" height="200">
<g fill="black">
<polygon points="112.1,18.4 105.5,25.8 98.2,32.9 90.1,39.9 81.3,46.8 71.8,53.6 61.5,60.2 50.4,66.7 38.5,73 25.8,79 12.3,84.8 11.6,83.1 24.1,75.6 35.9,68.3 47,61.1 57.3,53.9 66.8,46.7 75.6,39.6 83.5,32.4 90.7,25.3 97,18.1 102.6,11 " />
<polygon points="102.6,11 112.1,18.4 103,10.5 " />
<polygon points="112.1,18.4 113.2,21.9 106,21.3 " />
<polygon points="102.3,22.9 109,26.8 115.9,30.8 123,34.8 130.4,38.8 138.2,42.8 146.3,46.7 154.8,50.6 163.6,54.4 172.8,58.2 182.4,61.8 177.5,74.1 167.9,69.6 158.7,65.1 149.9,60.5 141.5,55.8 133.6,50.9 126.1,45.9 119.1,40.8 112.5,35.6 106.5,30.1 101.1,24.3 " />
<polygon points="177.5,74.1 182.4,61.8 188.9,64.5 " />
<polygon points="53,72 151,72 151,76 53,76 " />
<polygon points="151,72 127,74 139,62 " />
<polygon points="47,92 47,184 35,190 35,86 " />
<polygon points="41,92 90,92 90,96 41,96 " />
<polygon points="96,94 96,171 84,171 84,94 " />
<polygon points="84,92 90,87 101,96 96,100 84,94 " />
<polygon points="96,171 93.6,174.6 90,177 86.4,174.6 84,171 " />
<polygon points="96,171 95.8,173.5 95.4,176 94.6,178.4 93.3,180.7 91.7,182.7 89.7,184.3 87.4,185.6 85,186.4 82.5,186.8 80,187 80,175 81.2,174.9 82.1,174.7 82.7,174.5 83,174.4 83.2,174.2 83.4,174 83.5,173.7 83.7,173.1 83.9,172.2 84,171 " />
<polygon points="80,181 80,175 60,175 60,178 " />
<polygon points="41,117 90,117 90,121 41,121 " />
<polygon points="41,144 90,144 90,148 41,148 " />
<polygon points="134,97 134,162 122,168 122,95 " />
<polygon points="134,97 137,99 134,101 " />
<polygon points="171,89 171,171 159,171 159,87 " />
<polygon points="171,89 174,91 171,93 " />
<polygon points="171,171 168.6,174.6 165,177 161.4,174.6 159,171 " />
<polygon points="171,171 170.8,173.5 170.4,176 169.6,178.4 168.3,180.7 166.7,182.7 164.7,184.3 162.4,185.6 160,186.4 157.5,186.8 155,187 155,175 156.2,174.9 157.1,174.7 157.7,174.5 158,174.4 158.2,174.2 158.4,174 158.5,173.7 158.7,173.1 158.9,172.2 159,171 " />
<polygon points="155,181 155,175 135,175 135,178 " />
</g>
</svg>
