<svg xmlns="http://www.w3.org/2000/svg" xmlns:xlink="http://www.w3.org/1999/xlink" version="1.1" baseProfile="full" viewBox="0 0 200 200" width="200" height="200">
<g fill="black">
<polygon points="84,26 84,96 72,96 72,24 " />
<polygon points="84,26 87,28 84,30 " />
<polygon points="84,96 81.6,99.6 78,102 74.4,99.6 72,96 " />
<polygon points="84,96 83,110.7 80.6,124.4 76.9,136.9 71.9,148.3 65.4,158.4 57.7,167.2 48.6,174.7 38.3,180.8 26.8,185.5 14.2,188.8 13.7,187.1 25.4,182 35.7,176.2 44.6,169.5 52.2,162 58.5,153.5 63.5,144.1 67.4,133.7 70.1,122.2 71.6,109.7 72,96 " />
<polygon points="128,25 128,167 116,167 116,23 " />
<polygon points="128,25 131,27 128,29 " />
<polygon points="128,167 125.6,170.6 122,173 118.4,170.6 116,167 " />
<polygon points="128,167 128,168.2 128.2,169.1 128.4,169.7 128.5,170 128.7,170.2 128.9,170.4 129.2,170.5 129.8,170.7 130.7,170.9 132,171 132,183 129.4,182.8 126.9,182.4 124.5,181.6 122.2,180.3 120.2,178.7 118.6,176.7 117.3,174.4 116.5,172 116.1,169.5 116,167 " />
<polygon points="132,171 136.2,172.8 138,177 136.2,181.2 132,183 " />
<polygon points="132,171 183,171 183,183 132,183 " />
<polygon points="183,171 186.6,173.4 189,177 186.6,180.6 183,183 " />
<polygon points="177,172 183,146 185,146 183,172 " />
</g>
</svg>
