<svg xmlns="http://www.w3.org/2000/svg" xmlns:xlink="http://www.w3.org/1999/xlink" version="1.1" baseProfile="full" viewBox="0 0 200 200" width="200" height="200">
<g fill="black">
<polygon points="21,114.1 178,114.1 178,118.1 21,118.1 " />
<polygon points="178,114.1 154,116.1 166,104.1 " />
<polygon points="77,118.4 77,145.2 65,145.2 65,116.4 " />
<polygon points="77,118.4 80,120.4 75,123.4 " />
<polygon points="77,145.2 74.6,148.7 71,151.2 67.4,148.7 65,145.2 " />
<polygon points="77,145.2 76,151.2 73.9,156.8 70.6,161.8 66.4,166.3 61.2,170.1 55.2,173.5 48.3,176.4 40.5,178.8 31.8,180.7 22.1,182.1 21.8,180.4 30.7,177.1 38.7,173.7 45.6,170.4 51.4,166.9 56.2,163.3 59.8,159.7 62.4,156 64.1,152.5 64.9,148.9 65,145.2 " />
<polygon points="127,114.1 127,166.8 115,166.8 115,114.1 " />
<polygon points="127,166.8 124.6,170.4 121,172.8 117.4,170.4 115,166.8 " />
<polygon points="127,166.8 127,168.1 127.2,169 127.4,169.6 127.5,169.9 127.7,170.1 127.9,170.2 128.2,170.4 128.8,170.6 129.7,170.8 131,170.8 131,182.8 128.4,182.7 125.9,182.3 123.5,181.4 121.2,180.2 119.2,178.6 117.6,176.6 116.3,174.3 115.5,171.9 115.1,169.4 115,166.8 " />
<polygon points="131,170.8 135.2,172.6 137,176.8 135.2,181 131,182.8 " />
<polygon points="131,170.8 174,170.8 174,182.8 131,182.8 " />
<polygon points="174,170.8 177.6,173.2 180,176.8 177.6,180.4 174,182.8 " />
<polygon points="168,171.8 174,145.8 176,145.8 174,171.8 " />
</g>
</svg>
