<svg xmlns="http://www.w3.org/2000/svg" xmlns:xlink="http://www.w3.org/1999/xlink" version="1.1" baseProfile="full" viewBox="0 0 200 200" width="200" height="200">
<g fill="black">
<polygon points="65,65 65,127 53,133 53,59 " />
<polygon points="59,65 142,65 142,69 59,69 " />
<polygon points="148,67 148,121 136,127 136,67 " />
<polygon points="136,65 142,60 153,69 148,73 136,67 " />
<polygon points="59,111 142,111 142,115 59,115 " />
<polygon points="92.7,116.9 89.8,128.8 85.9,139.7 80.9,149.7 74.8,158.7 67.7,166.6 59.7,173.5 50.7,179.3 40.7,184 29.9,187.5 18.2,189.8 17.7,188.1 28.6,183.9 38.4,179.1 47.2,173.7 54.9,167.6 61.6,160.8 67.3,153.2 72,144.9 75.9,135.8 78.8,125.8 80.9,115 " />
<polygon points="80.9,115 92.7,116.9 81.2,113 " />
<polygon points="92.7,116.9 95.3,119.4 88.8,122.3 " />
<polygon points="120,111 120,167 108,167 108,111 " />
<polygon points="120,167 117.6,170.6 114,173 110.4,170.6 108,167 " />
<polygon points="120,167 120,168.2 120.2,169.1 120.4,169.7 120.5,170 120.7,170.2 120.9,170.4 121.2,170.5 121.8,170.7 122.7,170.9 124,171 124,183 121.4,182.8 118.9,182.4 116.5,181.6 114.2,180.3 112.2,178.7 110.6,176.7 109.3,174.4 108.5,172 108.1,169.5 108,167 " />
<polygon points="124,171 128.2,172.8 130,177 128.2,181.2 124,183 " />
<polygon points="124,171 176,171 176,183 124,183 " />
<polygon points="176,171 179.6,173.4 182,177 179.6,180.6 176,183 " />
<polygon points="170,172 176,146 178,146 176,172 " />
<polygon points="82,28 136,28 136,32 82,32 " />
<polygon points="136,28 112,30 124,18 " />
<polygon points="131.1,30.7 134.6,37.4 138.2,43.8 142.2,49.9 146.4,55.6 151.1,61 156.2,66 161.8,70.8 167.8,75.2 174.3,79.4 181.2,83.2 174.7,94.7 167.4,89.8 160.6,84.6 154.5,79 148.9,73.1 143.9,66.9 139.6,60.4 135.9,53.5 132.9,46.3 130.7,38.9 129.4,31.2 " />
<polygon points="174.7,94.7 181.2,83.2 185.9,85.9 " />
<polygon points="76.9,36.5 72.6,43.9 67.9,50.9 62.8,57.6 57.4,63.8 51.7,69.6 45.5,75 39.1,80 32.2,84.4 25,88.4 17.4,91.7 16.5,90.2 23,85.2 29.1,80.1 34.9,74.9 40.4,69.4 45.5,63.7 50.3,57.8 54.8,51.6 58.9,45.1 62.7,38.3 66.1,31.2 " />
<polygon points="66.1,31.2 76.9,36.5 66.7,30.1 " />
<polygon points="76.9,36.5 78.7,39.7 71.5,40.6 " />
</g>
</svg>
