<svg xmlns="http://www.w3.org/2000/svg" xmlns:xlink="http://www.w3.org/1999/xlink" version="1.1" baseProfile="full" viewBox="0 0 200 200" width="200" height="200">
<g fill="black">
<polygon points="53,60 53,120 41,126 41,54 " />
<polygon points="47,60 158,60 158,64 47,64 " />
<polygon points="164,62 164,112 152,118 152,62 " />
<polygon points="152,60 158,55 169,64 164,68 152,62 " />
<polygon points="47,104 158,104 158,108 47,108 " />
<polygon points="109,31 109,108 97,108 97,31 " />
<polygon points="120,110 120,166 108,166 108,108 " />
<polygon points="120,110 123,112 120,114 " />
<polygon points="120,166 117.6,169.6 114,172 110.4,169.6 108,166 " />
<polygon points="120,166 120,167.2 120.2,168.1 120.4,168.7 120.5,169 120.7,169.2 120.9,169.4 121.2,169.5 121.8,169.7 122.7,169.9 124,170 124,182 121.4,181.8 118.9,181.4 116.5,180.6 114.2,179.3 112.2,177.7 110.6,175.7 109.3,173.4 108.5,171 108.1,168.5 108,166 " />
<polygon points="124,170 128.2,171.8 130,176 128.2,180.2 124,182 " />
<polygon points="124,170 181,170 181,182 124,182 " />
<polygon points="181,170 184.6,172.4 187,176 184.6,179.6 181,182 " />
<polygon points="175,171 181,145 183,145 181,171 " />
<polygon points="98.7,109.9 95.5,122.9 91.2,134.9 85.6,145.7 78.8,155.4 70.9,163.9 61.9,171.3 51.7,177.3 40.5,182.1 28.3,185.6 15.1,187.8 14.8,186.1 27.2,182 38.5,177.2 48.5,171.6 57.3,165.2 64.9,158 71.4,149.8 76.9,140.8 81.2,130.9 84.6,119.9 86.9,108 " />
<polygon points="86.9,108 98.7,109.9 87.2,106 " />
<polygon points="98.7,109.9 101.3,112.4 94.8,115.3 " />
<polygon points="132.3,120.6 136,122.1 139.7,123.7 143.3,125.7 146.7,127.9 149.9,130.4 153,133.2 156,136.2 158.8,139.4 161.4,142.8 163.9,146.5 153.2,152.1 151.7,148.6 150,145.2 148.2,142 146.3,138.9 144.2,135.9 142,133 139.6,130.2 137,127.5 134.3,124.7 131.4,122.2 " />
<polygon points="163.9,146.5 164.2,151.1 161.3,154.6 156.8,155 153.2,152.1 " />
<polygon points="159.3,27 146.3,29.6 133.2,32 119.9,34.1 106.5,36 93.1,37.7 79.5,39.1 65.8,40.3 52,41.2 38.1,41.7 24,41.8 23.9,40.1 37.7,38 51.4,35.9 65,33.8 78.5,31.6 91.8,29.3 105,26.8 118.1,24.2 131.1,21.4 143.9,18.5 156.6,15.3 " />
<polygon points="156.6,15.3 159.3,27 167.3,25.2 " />
<polygon points="167.3,25.2 167.6,28.2 159.2,24 " />
</g>
</svg>
