<svg xmlns="http://www.w3.org/2000/svg" xmlns:xlink="http://www.w3.org/1999/xlink" version="1.1" baseProfile="full" viewBox="0 0 200 200" width="200" height="200">
<g fill="black">
<polygon points="76.4,19.6 72.7,30.2 68.6,40.2 64.1,49.8 59.1,58.8 53.7,67.4 48,75.4 41.8,82.9 35.2,89.8 28.1,96.1 20.5,101.6 19.4,100.3 25.4,93.4 31.2,86.2 36.6,78.8 41.7,71.1 46.5,63 50.9,54.5 55,45.5 58.6,36.2 62,26.4 64.9,16.2 " />
<polygon points="64.9,16.2 76.4,19.6 65.4,14.6 " />
<polygon points="76.4,19.6 78.7,22.4 71.8,24.5 " />
<polygon points="66,36 123,36 123,40 66,40 " />
<polygon points="128.4,40.5 126.5,43.6 124.3,46.9 121.9,50.2 119.2,53.6 116.3,57.1 113.2,60.6 109.8,64.3 106,68 102,71.7 97.6,75.5 96.3,74.4 99.3,69.5 102.1,64.8 104.8,60.5 107.3,56.3 109.6,52.3 111.6,48.6 113.5,45 115.1,41.6 116.4,38.4 117.5,35.4 " />
<polygon points="117,36 123,31 134,40 129,44 123,44 " />
<polygon points="51,70 155,70 155,74 51,74 " />
<polygon points="161,72 161,118 149,124 149,72 " />
<polygon points="149,70 155,65 166,74 161,78 149,72 " />
<polygon points="57,70 57,124 45,130 45,64 " />
<polygon points="108,70 108,112 96,112 96,70 " />
<polygon points="51,108 155,108 155,112 51,112 " />
<polygon points="90.6,115.2 87.2,127.3 82.9,138.4 77.8,148.6 71.7,157.7 64.8,165.8 57,172.7 48.4,178.6 39.1,183.2 29,186.7 18.2,188.8 17.7,187.1 27.7,183.1 36.7,178.4 44.8,173.1 52.1,167 58.5,160.1 64.1,152.4 68.9,143.8 73,134.4 76.3,124 78.9,112.7 " />
<polygon points="78.9,112.7 90.6,115.2 79.3,110.9 " />
<polygon points="90.6,115.2 93.1,117.7 86.4,120.4 " />
<polygon points="123,108 123,168 111,168 111,108 " />
<polygon points="123,168 120.6,171.6 117,174 113.4,171.6 111,168 " />
<polygon points="123,168 123,169.2 123.2,170.1 123.4,170.7 123.5,171 123.7,171.2 123.9,171.4 124.2,171.5 124.8,171.7 125.7,171.9 127,172 127,184 124.4,183.8 121.9,183.4 119.5,182.6 117.2,181.3 115.2,179.7 113.6,177.7 112.3,175.4 111.5,173 111.1,170.5 111,168 " />
<polygon points="127,172 131.2,173.8 133,178 131.2,182.2 127,184 " />
<polygon points="127,172 179,172 179,184 127,184 " />
<polygon points="179,172 182.6,174.4 185,178 182.6,181.6 179,184 " />
<polygon points="173,173 179,147 181,147 179,173 " />
</g>
</svg>
