<svg xmlns="http://www.w3.org/2000/svg" xmlns:xlink="http://www.w3.org/1999/xlink" version="1.1" baseProfile="full" viewBox="0 0 200 200" width="200" height="200">
<g fill="black">
<polygon points="85.9,20.5 80.6,30 75.1,38.9 69.2,47.4 63,55.3 56.6,62.7 49.8,69.5 42.7,75.8 35.3,81.5 27.5,86.4 19.4,90.7 18.5,89.2 25.3,83.4 31.9,77.3 38.2,71 44.3,64.3 50.1,57.2 55.7,49.7 60.9,41.7 65.9,33.3 70.7,24.5 75.1,15.2 " />
<polygon points="75.1,15.2 85.9,20.5 75.7,14.1 " />
<polygon points="85.9,20.5 87.7,23.6 80.6,24.6 " />
<polygon points="70,34 125,34 125,38 70,38 " />
<polygon points="130.4,38.4 128.5,41.7 126.4,45 124.1,48.3 121.5,51.7 118.8,55 115.8,58.3 112.7,61.7 109.2,65 105.5,68.3 101.6,71.6 100.3,70.3 103,66.1 105.5,61.9 107.8,58 110.1,54.1 112.1,50.4 114,46.8 115.6,43.3 117.1,39.9 118.4,36.7 119.5,33.5 " />
<polygon points="119,34 125,29 136,38 131,42 125,42 " />
<polygon points="55,69 159,69 159,73 55,73 " />
<polygon points="165,71 165,119 153,125 153,71 " />
<polygon points="153,69 159,64 170,73 165,77 153,71 " />
<polygon points="61,69 61,125 49,131 49,63 " />
<polygon points="55,109 159,109 159,113 55,113 " />
<polygon points="111,71 109.8,90.8 106.8,109 102,125.4 95.3,140.1 86.9,153 76.6,163.9 64.7,172.9 51,179.9 35.8,184.9 19.1,187.8 18.8,186.1 34.7,181.3 48.8,175.1 61,167.5 71.4,158.4 80,147.9 87.1,135.9 92.5,122.2 96.3,106.8 98.4,89.8 99,71 " />
<polygon points="124,109 124,166 112,166 112,109 " />
<polygon points="124,166 121.6,169.6 118,172 114.4,169.6 112,166 " />
<polygon points="124,166 124,167.2 124.2,168.1 124.4,168.7 124.5,169 124.7,169.2 124.9,169.4 125.2,169.5 125.8,169.7 126.7,169.9 128,170 128,182 125.4,181.8 122.9,181.4 120.5,180.6 118.2,179.3 116.2,177.7 114.6,175.7 113.3,173.4 112.5,171 112.1,168.5 112,166 " />
<polygon points="128,170 132.2,171.8 134,176 132.2,180.2 128,182 " />
<polygon points="128,170 181,170 181,182 128,182 " />
<polygon points="181,170 184.6,172.4 187,176 184.6,179.6 181,182 " />
<polygon points="175,171 181,145 183,145 181,171 " />
</g>
</svg>
