<svg xmlns="http://www.w3.org/2000/svg" xmlns:xlink="http://www.w3.org/1999/xlink" version="1.1" baseProfile="full" viewBox="0 0 200 200" width="200" height="200">
<g fill="black">
<polygon points="22,37 179,37 179,41 22,41 " />
<polygon points="179,37 155,39 167,27 " />
<polygon points="78,43 78,105 66,105 66,41 " />
<polygon points="78,43 81,45 78,47 " />
<polygon points="78,105 75.6,108.6 72,111 68.4,108.6 66,105 " />
<polygon points="78,105 77.1,116.5 75.3,127.5 72.3,137.8 68.4,147.3 63.3,156.1 57.3,164.2 50.3,171.4 42.3,177.8 33.3,183.2 23.4,187.8 22.5,186.1 31.2,180 38.9,173.6 45.6,166.8 51.3,159.5 56.1,151.8 59.9,143.5 62.7,134.8 64.7,125.4 65.8,115.5 66,105 " />
<polygon points="128,37 128,167 116,167 116,37 " />
<polygon points="128,167 125.6,170.6 122,173 118.4,170.6 116,167 " />
<polygon points="128,167 128,168.2 128.2,169.1 128.4,169.7 128.5,170 128.7,170.2 128.9,170.4 129.2,170.5 129.8,170.7 130.7,170.9 132,171 132,183 129.4,182.8 126.9,182.4 124.5,181.6 122.2,180.3 120.2,178.7 118.6,176.7 117.3,174.4 116.5,172 116.1,169.5 116,167 " />
<polygon points="132,171 136.2,172.8 138,177 136.2,181.2 132,183 " />
<polygon points="132,171 175,171 175,183 132,183 " />
<polygon points="175,171 178.6,173.4 181,177 178.6,180.6 175,183 " />
<polygon points="169,172 175,146 177,146 175,172 " />
</g>
</svg>
