<svg xmlns="http://www.w3.org/2000/svg" xmlns:xlink="http://www.w3.org/1999/xlink" version="1.1" baseProfile="full" viewBox="0 0 200 200" width="200" height="200">
<g fill="black">
<polygon points="17,34 98,34 98,38 17,38 " />
<polygon points="98,34 74,36 86,24 " />
<polygon points="37.8,49.6 31.5,110.5 18.9,115.2 26.1,46.3 " />
<polygon points="37.8,49.6 40.6,51.9 35.4,53.6 " />
<polygon points="27,94 104,94 104,98 27,98 " />
<polygon points="104,94 80,96 92,84 " />
<polygon points="68.9,39 67.9,60.4 65.9,80.4 62.9,98.9 58.8,116.1 53.7,131.8 47.6,146.1 40.4,158.9 32.1,170.2 22.8,179.8 12.5,187.7 11.4,186.2 20.1,177.1 27.9,166.9 34.7,155.6 40.7,143 45.7,129.1 49.8,113.8 53,97.2 55.3,79.1 56.6,59.7 56.9,38.9 " />
<polygon points="56.9,39.9 68.9,39 57,36.5 " />
<polygon points="68.9,39 71.9,41 66.9,44 " />
<polygon points="72,100 72,165 60,171 60,98 " />
<polygon points="72,100 75,102 70,105 " />
<polygon points="55.7,167.3 61.2,164.3 66.8,161.2 72.3,158.1 77.8,155 83.3,151.8 88.8,148.6 94.4,145.4 100,142.3 105.6,139.2 111.4,136.2 112.5,137.7 107.8,142.3 103.1,146.6 98.1,150.8 93.1,154.9 88,158.8 82.9,162.7 77.7,166.5 72.5,170.3 67.2,173.9 61.9,177.6 " />
<polygon points="61.9,177.6 55.7,167.3 54,168.3 " />
<polygon points="61.9,177.6 65.2,179.1 65.5,171.9 " />
<polygon points="103.6,34 183.2,34 183.2,38 103.6,38 " />
<polygon points="183.2,34 159.2,36 171.2,24 " />
<polygon points="124.1,49.6 117.7,110.5 105.1,115.2 112.3,46.3 " />
<polygon points="124.1,49.6 126.8,51.9 121.6,53.7 " />
<polygon points="113.2,94 189.3,94 189.3,98 113.2,98 " />
<polygon points="189.3,94 165.3,96 177.3,84 " />
<polygon points="155,39 153.9,60.4 151.9,80.4 148.8,98.9 144.7,116.1 139.6,131.8 133.4,146.1 126.1,158.9 117.8,170.2 108.4,179.8 98,187.7 96.9,186.2 105.7,177.1 113.5,166.9 120.4,155.6 126.5,143 131.5,129.1 135.7,113.8 138.9,97.2 141.2,79.1 142.6,59.7 143,38.9 " />
<polygon points="143,39.9 155,39 143,36.5 " />
<polygon points="155,39 158,41 152.9,44 " />
<polygon points="157.8,100 157.8,167 145.8,167 145.8,98 " />
<polygon points="157.8,100 160.8,102 155.8,105 " />
<polygon points="157.8,167 155.4,170.6 151.8,173 148.2,170.6 145.8,167 " />
<polygon points="157.8,167 157.9,168.2 158,169.1 158.2,169.7 158.4,170 158.5,170.2 158.7,170.4 159.1,170.5 159.6,170.7 160.6,170.9 161.8,171 161.8,183 159.2,182.8 156.7,182.4 154.3,181.6 152.1,180.3 150,178.7 148.4,176.7 147.2,174.4 146.4,172 145.9,169.5 145.8,167 " />
<polygon points="161.8,171 166,172.8 167.8,177 166,181.2 161.8,183 " />
<polygon points="161.8,171 186,171 186,183 161.8,183 " />
<polygon points="186,171 189.6,173.4 192,177 189.6,180.6 186,183 " />
<polygon points="180,172 186,146 188,146 186,172 " />
</g>
</svg>
