<svg xmlns="http://www.w3.org/2000/svg" xmlns:xlink="http://www.w3.org/1999/xlink" version="1.1" baseProfile="full" viewBox="0 0 200 200" width="200" height="200">
<g fill="black">
<polygon points="106,14 106,43 94,43 94,12 " />
<polygon points="106,14 109,16 104,19 " />
<polygon points="15,39 185,39 185,43 15,43 " />
<polygon points="185,39 161,41 173,29 " />
<polygon points="73.1,68.3 69.3,72.3 64.9,76.2 60.1,79.8 54.8,83.2 49.1,86.4 42.9,89.4 36.3,92.1 29.2,94.6 21.6,96.9 13.5,98.7 12.9,97 20.2,93.3 27.1,89.7 33.5,86.2 39.4,82.7 44.7,79.1 49.6,75.5 53.9,71.9 57.7,68.2 60.9,64.6 63.7,60.9 " />
<polygon points="63.1,61.7 73.1,68.3 64.1,60.3 " />
<polygon points="73.1,68.3 74.3,71.7 68.5,71 " />
<polygon points="74,55.9 137.9,55.9 137.9,59.9 74,59.9 " />
<polygon points="137.9,55.9 113.9,57.9 125.9,45.9 " />
<polygon points="132.1,58.4 135.5,61.8 139,65 142.8,68.1 147.2,71.1 152,73.8 157.3,76.5 163.3,79 169.8,81.4 176.9,83.6 184.6,85.6 180.9,98.3 172.9,95.4 165.4,92.4 158.6,89 152.4,85.5 146.9,81.7 142,77.7 137.9,73.4 134.5,68.9 132,64.1 130.5,59.2 " />
<polygon points="180.9,98.3 184.6,85.6 192.6,87.9 " />
<polygon points="103.1,85 99.4,89.3 95.5,93.4 91.4,97.5 87,101.5 82.5,105.3 77.8,109.1 72.9,112.8 67.7,116.3 62.3,119.6 56.6,122.7 55.5,121.2 60,116.6 64.4,112.1 68.6,107.8 72.7,103.5 76.7,99.2 80.4,94.9 84,90.7 87.4,86.4 90.6,82.1 93.6,77.8 " />
<polygon points="93,78.6 103.1,85 94,77.2 " />
<polygon points="103.1,85 104.3,88.5 98.5,87.8 " />
<polygon points="31.8,117.3 40.7,117 50.4,116.7 60.7,116.3 71.8,115.9 83.7,115.4 96.2,114.9 109.5,114.4 123.5,113.9 138.3,113.6 153.7,113.3 153.9,115.1 138.6,117.4 123.9,119.3 110,121 96.8,122.5 84.3,123.9 72.5,125.2 61.4,126.3 51.1,127.4 41.4,128.4 32.5,129.2 " />
<polygon points="32.5,129.2 31.8,117.3 29.8,117.4 " />
<polygon points="32.5,129.2 34.7,132.1 38.3,125.9 " />
<polygon points="123.2,94.8 129,96.7 134.4,98.8 139.5,101.1 144.4,103.5 148.9,106 153.3,108.6 157.3,111.3 161.2,114 164.7,116.8 168.1,119.7 159.4,128 156.9,125.1 154.1,122.1 151.1,119.1 147.7,116 144.1,113 140.3,109.8 136.1,106.7 131.8,103.4 127.2,100 122.4,96.4 " />
<polygon points="168.1,119.7 169.7,124 167.9,128.2 163.6,129.8 159.4,128 " />
<polygon points="93.1,129.1 90.6,138.9 86.8,147.9 81.8,156.1 75.5,163.3 68.1,169.7 59.6,175.1 50.1,179.6 39.4,183.1 27.7,185.7 15,187.4 14.7,185.6 26.8,182.1 37.7,178.1 47.3,173.6 55.7,168.6 62.8,163.1 68.7,157 73.5,150.5 77.1,143.4 79.7,135.7 81.2,127.3 " />
<polygon points="81.1,128.3 93.1,129.1 81.5,125.3 " />
<polygon points="93.1,129.1 95.7,131.5 90.3,133.8 " />
<polygon points="124.8,127.4 124.8,169.4 112.8,169.4 112.8,125.4 " />
<polygon points="124.8,127.4 127.8,129.4 122.8,132.4 " />
<polygon points="124.8,169.4 122.4,173 118.8,175.4 115.2,173 112.8,169.4 " />
<polygon points="124.8,169.4 124.9,170.6 125,171.5 125.2,172.1 125.4,172.4 125.5,172.6 125.7,172.8 126.1,172.9 126.7,173.1 127.6,173.3 128.8,173.4 128.8,185.4 126.2,185.2 123.7,184.8 121.3,184 119.1,182.8 117.1,181.1 115.4,179.1 114.2,176.8 113.4,174.4 112.9,171.9 112.8,169.4 " />
<polygon points="128.8,173.4 133,175.2 134.8,179.4 133,183.6 128.8,185.4 " />
<polygon points="128.8,173.4 185,173.4 185,185.4 128.8,185.4 " />
<polygon points="185,173.4 188.6,175.8 191,179.4 188.6,183 185,185.4 " />
<polygon points="179,174.4 185,148.4 187,148.4 185,174.4 " />
</g>
</svg>
