<svg xmlns="http://www.w3.org/2000/svg" xmlns:xlink="http://www.w3.org/1999/xlink" version="1.1" baseProfile="full" viewBox="0 0 200 200" width="200" height="200">
<g fill="black">
<polygon points="88,19.4 83.4,27.9 78.3,36.1 72.6,44.1 66.5,51.9 59.8,59.4 52.6,66.7 44.9,73.7 36.7,80.4 27.9,86.7 18.5,92.7 17.4,91.2 25.5,83.8 33.2,76.4 40.4,69 47.1,61.5 53.4,53.9 59.1,46.2 64.4,38.4 69.1,30.5 73.3,22.5 77.1,14.3 " />
<polygon points="77.1,14.3 88,19.4 77.6,13.2 " />
<polygon points="88,19.4 89.8,22.5 82.7,23.6 " />
<polygon points="75,32 135,32 135,36 75,36 " />
<polygon points="140.9,34.3 140.7,37.8 140.3,41.2 139.8,44.4 139.1,47.4 138.3,50.3 137.4,53 136.3,55.6 135.1,58 133.6,60.3 132,62.3 123,54.5 123.8,53.4 124.7,52.1 125.4,50.5 126.2,48.8 126.8,46.8 127.4,44.6 128,42.2 128.4,39.5 128.7,36.7 129,33.6 " />
<polygon points="129,32 135,27 146,36 141,40 135,40 " />
<polygon points="132,62.3 127.9,64.3 123.6,62.9 121.6,58.8 123,54.5 " />
<polygon points="132,62.3 130.4,64.1 128.6,65.7 126.7,67.2 124.7,68.4 122.6,69.5 120.4,70.4 118.1,71.1 115.8,71.6 113.4,71.9 111,72 111,60 112.4,59.9 113.9,59.7 115.2,59.5 116.4,59.1 117.6,58.6 118.7,58 119.8,57.3 120.9,56.5 121.9,55.6 123,54.5 " />
<polygon points="111,66 111,60 91,60 91,63 " />
<polygon points="59,73 59,130 47,136 47,67 " />
<polygon points="53,73 160,73 160,77 53,77 " />
<polygon points="166,75 166,122 154,128 154,75 " />
<polygon points="154,73 160,68 171,77 166,81 154,75 " />
<polygon points="53,114 160,114 160,118 53,118 " />
<polygon points="111.9,75 111.9,75.1 110.2,94.3 106.7,111.8 101.5,127.6 94.5,141.8 85.8,154.3 75.4,165 63.4,173.8 49.8,180.7 34.7,185.8 18.1,188.8 17.8,187.1 33.6,182.1 47.5,175.9 59.7,168.3 70.2,159.4 79.1,149.1 86.4,137.3 92.1,124.1 96.3,109.3 98.9,92.8 99.9,75 " />
<polygon points="121,114 121,169 109,169 109,114 " />
<polygon points="121,169 118.6,172.6 115,175 111.4,172.6 109,169 " />
<polygon points="121,169 121,170.2 121.2,171.1 121.4,171.7 121.5,172 121.7,172.2 121.9,172.4 122.2,172.5 122.8,172.7 123.7,172.9 125,173 125,185 122.4,184.8 119.9,184.4 117.5,183.6 115.2,182.3 113.2,180.7 111.6,178.7 110.3,176.4 109.5,174 109.1,171.5 109,169 " />
<polygon points="125,173 129.2,174.8 131,179 129.2,183.2 125,185 " />
<polygon points="125,173 180,173 180,185 125,185 " />
<polygon points="180,173 183.6,175.4 186,179 183.6,182.6 180,185 " />
<polygon points="174,174 180,148 182,148 180,174 " />
<polygon points="132.3,129.6 135.7,131 139.1,132.2 142.4,133.7 145.5,135.5 148.4,137.3 151.2,139.4 153.8,141.7 156.3,144.1 158.6,146.6 160.7,149.4 150.2,155.3 149.2,152.8 148,150.3 146.5,147.8 145,145.4 143.2,143 141.2,140.6 139.1,138.2 136.8,135.8 134.3,133.4 131.4,131.2 " />
<polygon points="160.7,149.4 161.2,153.9 158.4,157.6 153.9,158.1 150.2,155.3 " />
</g>
</svg>
