<svg xmlns="http://www.w3.org/2000/svg" xmlns:xlink="http://www.w3.org/1999/xlink" version="1.1" baseProfile="full" viewBox="0 0 200 200" width="200" height="200">
<g fill="black">
<polygon points="108,12.6 108,41.1 96,41.1 96,10.6 " />
<polygon points="108,12.6 111,14.6 108,16.6 " />
<polygon points="21.2,37.1 184.8,37.1 184.8,41.1 21.2,41.1 " />
<polygon points="184.8,37.1 160.8,39.1 172.8,27.1 " />
<polygon points="66.5,85.9 66.5,139.6 54.5,145.6 54.5,79.9 " />
<polygon points="60.5,85.9 141.4,85.9 141.4,89.9 60.5,89.9 " />
<polygon points="147.4,87.9 147.4,133.6 135.4,139.6 135.4,87.9 " />
<polygon points="135.4,85.9 141.4,80.9 152.4,89.9 147.4,93.9 135.4,87.9 " />
<polygon points="60.5,123.6 141.4,123.6 141.4,127.6 60.5,127.6 " />
<polygon points="93.5,129.4 90.6,139.3 86.7,148.3 81.8,156.6 75.8,164 68.9,170.4 61,176 52.2,180.6 42.6,184.4 32,187.1 20.7,188.8 20.3,187 31,183.4 40.6,179.4 49.2,174.8 56.7,169.7 63.2,164.1 68.7,157.9 73.3,151.1 77,143.8 79.8,135.8 81.7,127.1 " />
<polygon points="81.7,127.1 93.5,129.4 82.1,125.2 " />
<polygon points="93.5,129.4 96,131.9 89.4,134.7 " />
<polygon points="120.1,123.6 120.1,168.1 108.1,168.1 108.1,123.6 " />
<polygon points="120.1,168.1 117.7,171.7 114.1,174.1 110.5,171.7 108.1,168.1 " />
<polygon points="120.1,168.1 120.2,169.3 120.3,170.2 120.5,170.8 120.7,171.2 120.8,171.3 121,171.5 121.4,171.7 122,171.9 122.9,172 124.1,172.1 124.1,184.1 121.5,184 119,183.5 116.6,182.7 114.4,181.5 112.4,179.8 110.7,177.8 109.5,175.6 108.7,173.1 108.2,170.7 108.1,168.1 " />
<polygon points="124.1,172.1 128.3,173.9 130.1,178.1 128.3,182.3 124.1,184.1 " />
<polygon points="124.1,172.1 174.6,172.1 174.6,184.1 124.1,184.1 " />
<polygon points="174.6,172.1 178.2,174.5 180.6,178.1 178.2,181.7 174.6,184.1 " />
<polygon points="168.6,173.1 174.6,147.1 176.6,147.1 174.6,173.1 " />
<polygon points="82.9,55.6 135.6,55.6 135.6,59.6 82.9,59.6 " />
<polygon points="135.6,55.6 111.6,57.6 123.6,45.6 " />
<polygon points="130.9,58.2 134.3,63.6 137.8,68.6 141.6,73.4 145.7,77.9 150.2,82.2 155.1,86.2 160.5,90 166.3,93.6 172.6,96.9 179.3,100 173.7,111.9 166.5,107.8 159.9,103.5 153.9,98.9 148.4,93.9 143.5,88.7 139.2,83.2 135.6,77.5 132.6,71.5 130.5,65.3 129.2,58.8 " />
<polygon points="173.7,111.9 179.3,100 185,102.7 " />
<polygon points="77.8,63.9 73.6,70 69,75.7 64.1,81.1 58.8,86.2 53.2,90.9 47.2,95.2 40.9,99.2 34.3,102.7 27.3,105.8 19.9,108.4 19.1,106.8 25.5,102.5 31.5,98.2 37.2,93.8 42.5,89.2 47.6,84.5 52.2,79.6 56.5,74.5 60.5,69.1 64.2,63.6 67.5,57.8 " />
<polygon points="67.5,57.8 77.8,63.9 68,56.9 " />
<polygon points="77.8,63.9 79.4,67.2 72.2,67.6 " />
</g>
</svg>
