<svg xmlns="http://www.w3.org/2000/svg" xmlns:xlink="http://www.w3.org/1999/xlink" version="1.1" baseProfile="full" viewBox="0 0 200 200" width="200" height="200">
<g fill="black">
<polygon points="55.2,20.6 59.7,22.2 63.9,23.9 67.8,25.8 71.5,27.9 74.9,30.3 78,32.8 80.8,35.5 83.3,38.5 85.6,41.6 87.5,45 76.3,49.3 75.5,46.7 74.4,44 73.1,41.4 71.4,38.7 69.4,36 67.1,33.2 64.4,30.5 61.5,27.7 58.2,24.9 54.4,22.2 " />
<polygon points="87.5,45 87.3,49.5 84,52.7 79.5,52.6 76.3,49.3 " />
<polygon points="144.2,25.3 141.3,28.7 138.3,32 135.1,35.4 131.7,38.8 128.2,42.2 124.5,45.6 120.6,49 116.5,52.3 112.2,55.5 107.6,58.6 106.3,57.3 109.6,52.8 112.8,48.6 115.9,44.5 119,40.5 121.9,36.6 124.7,32.8 127.4,29 129.9,25.4 132.3,21.8 134.5,18.2 " />
<polygon points="134.5,18.2 144.2,25.3 135,17.6 " />
<polygon points="144.2,25.3 145.5,28.7 138.3,28.4 " />
<polygon points="64,57 64,118 52,124 52,51 " />
<polygon points="58,57 142,57 142,61 58,61 " />
<polygon points="148,59 148,112 136,118 136,59 " />
<polygon points="136,57 142,52 153,61 148,65 136,59 " />
<polygon points="58,102 142,102 142,106 58,106 " />
<polygon points="93.8,109.5 91.7,122.2 88.3,134 83.7,144.7 77.9,154.5 70.9,163.2 62.7,170.8 53.4,177.3 43.1,182.7 31.6,186.9 19.2,189.8 18.7,188.1 30.3,183.3 40.7,177.9 49.8,171.9 57.7,165.1 64.5,157.7 70.1,149.5 74.6,140.5 78.1,130.7 80.5,120 81.9,108.4 " />
<polygon points="81.9,108.4 93.8,109.5 82.1,106.2 " />
<polygon points="93.8,109.5 96.6,111.8 90.3,115.2 " />
<polygon points="119,102 119,167 107,167 107,102 " />
<polygon points="119,167 116.6,170.6 113,173 109.4,170.6 107,167 " />
<polygon points="119,167 119,168.2 119.2,169.1 119.4,169.7 119.5,170 119.7,170.2 119.9,170.4 120.2,170.5 120.8,170.7 121.7,170.9 123,171 123,183 120.4,182.8 117.9,182.4 115.5,181.6 113.2,180.3 111.2,178.7 109.6,176.7 108.3,174.4 107.5,172 107.1,169.5 107,167 " />
<polygon points="123,171 127.2,172.8 129,177 127.2,181.2 123,183 " />
<polygon points="123,171 175,171 175,183 123,183 " />
<polygon points="175,171 178.6,173.4 181,177 178.6,180.6 175,183 " />
<polygon points="169,172 175,146 177,146 175,172 " />
</g>
</svg>
