<svg xmlns="http://www.w3.org/2000/svg" xmlns:xlink="http://www.w3.org/1999/xlink" version="1.1" baseProfile="full" viewBox="0 0 200 200" width="200" height="200">
<g fill="black">
<polygon points="77.4,16.6 73.7,27.2 69.6,37.2 65.1,46.8 60.1,55.8 54.7,64.4 49,72.4 42.8,79.9 36.2,86.8 29.1,93.1 21.5,98.6 20.4,97.3 26.4,90.4 32.2,83.2 37.6,75.8 42.7,68.1 47.5,60 51.9,51.5 56,42.5 59.6,33.2 63,23.4 65.9,13.2 " />
<polygon points="65.9,13.2 77.4,16.6 66.4,11.6 " />
<polygon points="77.4,16.6 79.7,19.4 72.8,21.5 " />
<polygon points="67,33 124,33 124,37 67,37 " />
<polygon points="129.4,37.5 127.4,40.6 125.2,43.8 122.8,47.1 120.1,50.3 117.2,53.6 114.1,57 110.6,60.4 106.9,63.8 102.9,67.1 98.6,70.6 97.3,69.3 100.4,64.9 103.2,60.5 105.9,56.4 108.4,52.5 110.7,48.8 112.7,45.2 114.5,41.7 116.1,38.5 117.4,35.4 118.5,32.4 " />
<polygon points="118,33 124,28 135,37 130,41 124,41 " />
<polygon points="52,67 156,67 156,71 52,71 " />
<polygon points="162,69 162,113 150,119 150,69 " />
<polygon points="150,67 156,62 167,71 162,75 150,69 " />
<polygon points="58,67 58,121 46,127 46,61 " />
<polygon points="52,105 156,105 156,109 52,109 " />
<polygon points="110.8,70.5 108,89.7 103.8,107.3 98.2,123.3 91.2,137.6 82.9,150.2 73.1,161 62,170.1 49.6,177.3 35.9,182.5 21.1,185.8 20.8,184.1 34.6,179 47,172.5 58,164.8 67.7,155.7 76,145.2 83.1,133.2 88.9,119.6 93.5,104.5 96.8,87.8 98.9,69.4 " />
<polygon points="98.9,69.4 110.8,70.5 99.1,67.2 " />
<polygon points="110.8,70.5 113.6,72.8 107.3,76.2 " />
<polygon points="119,105 119,165 107,165 107,105 " />
<polygon points="119,165 116.6,168.6 113,171 109.4,168.6 107,165 " />
<polygon points="119,165 119,166.2 119.2,167.1 119.4,167.7 119.5,168 119.7,168.2 119.9,168.4 120.2,168.5 120.8,168.7 121.7,168.9 123,169 123,181 120.4,180.8 117.9,180.4 115.5,179.6 113.2,178.3 111.2,176.7 109.6,174.7 108.3,172.4 107.5,170 107.1,167.5 107,165 " />
<polygon points="123,169 127.2,170.8 129,175 127.2,179.2 123,181 " />
<polygon points="123,169 179,169 179,181 123,181 " />
<polygon points="179,169 182.6,171.4 185,175 182.6,178.6 179,181 " />
<polygon points="173,170 179,144 181,144 179,170 " />
<polygon points="130.3,122.7 134.4,124.8 138.4,126.8 142.1,129.1 145.6,131.6 148.8,134.2 151.8,137 154.6,140 157.1,143.1 159.3,146.4 161.3,149.9 150.3,154.5 149.3,151.5 148.1,148.6 146.6,145.6 144.9,142.6 142.9,139.6 140.7,136.6 138.2,133.5 135.5,130.4 132.6,127.3 129.3,124.2 " />
<polygon points="161.3,149.9 161.3,154.4 158.1,157.7 153.5,157.7 150.3,154.5 " />
</g>
</svg>
