<svg xmlns="http://www.w3.org/2000/svg" xmlns:xlink="http://www.w3.org/1999/xlink" version="1.1" baseProfile="full" viewBox="0 0 200 200" width="200" height="200">
<g fill="black">
<polygon points="95.6,24 94.5,26.2 90.6,34 85.8,41.4 80.1,48.4 73.6,54.8 66.4,60.7 58.3,66.2 49.5,71.2 39.9,75.6 29.5,79.5 18.3,82.8 17.6,81.1 28,76 37.5,70.8 46.2,65.5 54,59.9 61,54.2 67.1,48.2 72.4,41.9 76.9,35.4 80.5,28.7 82.4,24 " />
<polygon points="39,22 144,22 144,26 39,26 " />
<polygon points="149.9,24.2 149.7,29 149.2,33.6 148.7,37.8 147.9,41.7 147.1,45.4 146,48.7 144.7,51.8 143.2,54.7 141.4,57.2 139.4,59.5 131.2,50.7 132,49.8 132.9,48.5 133.8,46.8 134.7,44.7 135.5,42.1 136.2,39.2 136.8,35.9 137.3,32.2 137.7,28.1 138,23.7 " />
<polygon points="138,22 144,17 155,26 150,30 144,30 " />
<polygon points="139.4,59.5 135.1,61.1 130.9,59.2 129.3,54.9 131.2,50.7 " />
<polygon points="139.4,59.5 137.5,61.1 135.7,62.5 133.7,63.8 131.6,64.9 129.5,65.8 127.3,66.6 125,67.2 122.7,67.6 120.3,67.9 118,68 118,56 119.5,55.9 121,55.7 122.4,55.5 123.8,55.1 125.1,54.7 126.3,54.1 127.6,53.4 128.8,52.7 130,51.8 131.2,50.7 " />
<polygon points="118,62 118,56 98,56 98,59 " />
<polygon points="55,70 161,70 161,74 55,74 " />
<polygon points="167,72 167,121 155,127 155,72 " />
<polygon points="155,70 161,65 172,74 167,78 155,72 " />
<polygon points="61,70 61,127 49,133 49,64 " />
<polygon points="55,111 161,111 161,115 55,115 " />
<polygon points="113,72 111.8,92.2 108.8,110.6 104,127.3 97.3,142.1 88.9,155 78.6,165.9 66.6,174.8 53,181.6 37.8,186.3 21.1,188.8 20.8,187.1 36.8,182.6 50.8,176.7 63,169.3 73.4,160.4 82,149.9 89.1,137.8 94.5,124 98.3,108.5 100.4,91.1 101,72 " />
<polygon points="122,119 122,166 110,166 110,117 " />
<polygon points="122,119 125,121 122,123 " />
<polygon points="122,166 119.6,169.6 116,172 112.4,169.6 110,166 " />
<polygon points="122,166 122,167.2 122.2,168.1 122.4,168.7 122.5,169 122.7,169.2 122.9,169.4 123.2,169.5 123.8,169.7 124.7,169.9 126,170 126,182 123.4,181.8 120.9,181.4 118.5,180.6 116.2,179.3 114.2,177.7 112.6,175.7 111.3,173.4 110.5,171 110.1,168.5 110,166 " />
<polygon points="126,170 130.2,171.8 132,176 130.2,180.2 126,182 " />
<polygon points="126,170 180,170 180,182 126,182 " />
<polygon points="180,170 183.6,172.4 186,176 183.6,179.6 180,182 " />
<polygon points="174,171 180,145 182,145 180,171 " />
<polygon points="133.3,129.6 136.6,131 140,132.3 143.1,133.7 146.1,135.4 148.8,137.2 151.4,139.2 153.7,141.3 155.8,143.7 157.7,146.2 159.4,148.9 148.3,153.4 147.8,151.3 147,149.2 146.1,147 144.9,144.8 143.5,142.6 141.8,140.3 139.9,138 137.7,135.7 135.3,133.3 132.4,131.2 " />
<polygon points="159.4,148.9 159.3,153.5 156.1,156.7 151.5,156.6 148.3,153.4 " />
</g>
</svg>
