<svg xmlns="http://www.w3.org/2000/svg" xmlns:xlink="http://www.w3.org/1999/xlink" version="1.1" baseProfile="full" viewBox="0 0 200 200" width="200" height="200">
<g fill="black">
<polygon points="78.4,17.6 74.7,28.2 70.6,38.2 66.1,47.8 61.1,56.8 55.7,65.4 50,73.4 43.8,80.9 37.2,87.8 30.1,94.1 22.5,99.6 21.4,98.3 27.4,91.4 33.2,84.2 38.6,76.8 43.7,69.1 48.5,61 52.9,52.5 57,43.5 60.6,34.2 64,24.4 66.9,14.2 " />
<polygon points="66.6,15.2 78.4,17.6 67.4,12.6 " />
<polygon points="78.4,17.6 80.7,20.4 75.1,21.8 " />
<polygon points="68,34 125,34 125,38 68,38 " />
<polygon points="130.4,38.5 128.5,41.6 126.3,44.9 123.9,48.2 121.2,51.6 118.3,55.1 115.2,58.6 111.8,62.3 108,66 104,69.7 99.6,73.5 98.3,72.4 101.3,67.5 104.1,62.8 106.8,58.5 109.3,54.3 111.6,50.3 113.6,46.6 115.5,43 117.1,39.6 118.4,36.4 119.5,33.4 " />
<polygon points="119,34 125,29 136,38 131,41 119,46 " />
<polygon points="53,68 157,68 157,72 53,72 " />
<polygon points="163,70 163,114 151,120 151,70 " />
<polygon points="151,68 157,63 168,72 163,76 151,70 " />
<polygon points="59,68 59,122 47,128 47,62 " />
<polygon points="110,68 110,110 98,110 98,68 " />
<polygon points="53,106 157,106 157,110 53,110 " />
<polygon points="96.6,112.2 93.2,124.3 88.9,135.6 83.7,145.9 77.6,155.2 70.6,163.5 62.7,170.8 54,177 44.5,182.1 34.2,186.1 23.2,188.8 22.7,187.1 32.8,182.5 42,177.4 50.3,171.6 57.7,165.1 64.2,157.9 69.9,149.9 74.8,141.1 79,131.5 82.3,121 84.9,109.7 " />
<polygon points="84.7,110.7 96.6,112.2 85.3,107.9 " />
<polygon points="96.6,112.2 99.1,114.7 93.6,116.6 " />
<polygon points="121,106 121,166 109,166 109,106 " />
<polygon points="121,166 118.6,169.6 115,172 111.4,169.6 109,166 " />
<polygon points="121,166 121,167.2 121.2,168.1 121.4,168.7 121.5,169 121.7,169.2 121.9,169.4 122.2,169.5 122.8,169.7 123.7,169.9 125,170 125,182 122.4,181.8 119.9,181.4 117.5,180.6 115.2,179.3 113.2,177.7 111.6,175.7 110.3,173.4 109.5,171 109.1,168.5 109,166 " />
<polygon points="125,170 129.2,171.8 131,176 129.2,180.2 125,182 " />
<polygon points="125,170 180,170 180,182 125,182 " />
<polygon points="180,170 183.6,172.4 186,176 183.6,179.6 180,182 " />
<polygon points="174,171 180,145 182,145 180,171 " />
<polygon points="131.3,123.7 135.4,125.8 139.4,127.8 143.1,130.1 146.6,132.6 149.8,135.2 152.8,138 155.6,141 158.1,144.1 160.3,147.4 162.3,150.9 151.3,155.5 150.3,152.5 149.1,149.6 147.6,146.6 145.9,143.6 143.9,140.6 141.7,137.6 139.2,134.5 136.5,131.4 133.6,128.3 130.3,125.2 " />
<polygon points="162.3,150.9 162.3,155.4 159.1,158.7 154.5,158.7 151.3,155.5 " />
</g>
</svg>
