<svg xmlns="http://www.w3.org/2000/svg" xmlns:xlink="http://www.w3.org/1999/xlink" version="1.1" baseProfile="full" viewBox="0 0 200 200" width="200" height="200">
<g fill="black">
<polygon points="109.1,25 107.1,28 100.7,37.4 93.6,46.5 85.8,55.3 77.4,63.7 68.3,71.9 58.5,79.6 48,87 36.9,94.1 25,100.6 12.4,106.7 11.5,105.2 23,97.4 33.9,89.6 44.1,81.7 53.7,73.7 62.6,65.5 70.8,57.2 78.3,48.7 85.2,39.9 91.3,31 94.9,25 " />
<polygon points="61,23 116,23 116,27 61,27 " />
<polygon points="116,23 92,25 104,13 " />
<polygon points="107.3,25.3 114.8,33.9 122.2,42 129.6,49.6 137.1,56.7 144.7,63.2 152.4,69.1 160.3,74.4 168.2,79.1 176.4,83.3 184.6,86.9 179.3,99 170.6,94.4 162.1,89.2 153.9,83.5 146.1,77.1 138.5,70.1 131.2,62.6 124.2,54.5 117.6,45.7 111.4,36.4 105.8,26.3 " />
<polygon points="179.3,99 184.6,86.9 190.7,89.6 " />
</g>
</svg>
