<svg xmlns="http://www.w3.org/2000/svg" xmlns:xlink="http://www.w3.org/1999/xlink" version="1.1" baseProfile="full" viewBox="0 0 200 200" width="200" height="200">
<g fill="black">
<polygon points="128.1,30.6 132.5,38.4 137,45.7 141.7,52.6 146.6,58.9 151.8,64.6 157.4,69.9 163.2,74.7 169.4,78.9 175.9,82.7 182.8,86 177.1,97.9 169.6,93.5 162.6,88.6 156.1,83.1 150.2,77.2 144.8,70.7 139.9,63.8 135.5,56.4 131.8,48.5 128.7,40.1 126.4,31.2 " />
<polygon points="177.1,97.9 182.8,86 188.4,88.7 " />
<polygon points="72,28 134,28 134,32 72,32 " />
<polygon points="134,28 110,30 122,18 " />
<polygon points="71.3,37.9 67.7,46.4 63.6,54.5 59.1,62.2 54,69.6 48.5,76.5 42.5,83.1 36,89.2 29,94.9 21.5,100.1 13.5,104.7 12.4,103.2 19.2,97.1 25.4,90.9 31.3,84.6 36.8,78.1 41.8,71.3 46.3,64.4 50.4,57.2 54,49.7 57.2,41.9 60,33.9 " />
<polygon points="59.6,34.9 71.3,37.9 60.5,32.5 " />
<polygon points="71.3,37.9 73.5,40.7 67.8,41.9 " />
</g>
</svg>
