<svg xmlns="http://www.w3.org/2000/svg" xmlns:xlink="http://www.w3.org/1999/xlink" version="1.1" baseProfile="full" viewBox="0 0 200 200" width="200" height="200">
<g fill="black">
<polygon points="52,17 106,17 106,21 52,21 " />
<polygon points="110.8,22.4 103.7,31.3 96,39.8 87.7,47.9 78.9,55.6 69.6,62.8 59.6,69.6 49.2,75.9 38.1,81.8 26.5,87.1 14.3,91.8 13.6,90.1 24.8,83.7 35.5,77.1 45.7,70.3 55.3,63.4 64.3,56.1 72.8,48.6 80.7,40.7 88.1,32.6 94.8,24.2 101.1,15.5 " />
<polygon points="100,17 106,12 117,21 112,24 100,29 " />
<polygon points="105.3,19.2 111.8,25.2 118.4,31.1 125.2,36.6 132.2,41.9 139.6,46.9 147.2,51.5 155.2,55.8 163.6,59.8 172.3,63.4 181.3,66.8 176.6,79.1 167.2,74.9 158.3,70.3 149.8,65.4 141.7,60.1 134.1,54.4 127,48.4 120.3,42 114.2,35.2 108.7,28 103.9,20.3 " />
<polygon points="176.6,79.1 181.3,66.8 188.1,69.4 " />
<polygon points="56,75 152,75 152,79 56,79 " />
<polygon points="152,75 128,77 140,65 " />
<polygon points="47,96 47,186 35,192 35,90 " />
<polygon points="41,96 90,96 90,100 41,100 " />
<polygon points="96,98 96,174 84,174 84,98 " />
<polygon points="84,96 90,91 101,100 96,104 84,98 " />
<polygon points="96,174 93.6,177.6 90,180 86.4,177.6 84,174 " />
<polygon points="96,174 95.8,176.5 95.4,179 94.6,181.4 93.3,183.7 91.7,185.7 89.7,187.3 87.4,188.6 85,189.4 82.5,189.8 80,190 80,178 81.2,177.9 82.1,177.7 82.7,177.5 83,177.4 83.2,177.2 83.4,177 83.5,176.7 83.7,176.1 83.9,175.2 84,174 " />
<polygon points="80,184 80,178 60,178 60,181 " />
<polygon points="52.2,112.4 55.5,113 58.9,113.6 62.1,114.6 65.2,115.8 68.2,117.4 71.1,119.3 73.8,121.4 76.3,123.8 78.7,126.5 80.8,129.5 70.2,135.1 69.2,132.5 68,130 66.7,127.7 65.2,125.5 63.4,123.3 61.5,121.3 59.4,119.3 57.1,117.4 54.6,115.5 51.7,114.1 " />
<polygon points="80.8,129.5 81.2,134 78.4,137.6 73.8,138 70.2,135.1 " />
<polygon points="52.3,139.6 55.6,141 59,142.2 62.2,143.7 65.2,145.3 68,147.1 70.6,149.1 73,151.3 75.3,153.6 77.3,156 79.1,158.7 68.2,163.8 67.6,161.6 66.7,159.4 65.6,157.1 64.3,154.9 62.7,152.6 61,150.4 58.9,148.1 56.7,145.7 54.3,143.3 51.4,141.2 " />
<polygon points="79.1,158.7 79.3,163.3 76.2,166.7 71.7,166.8 68.2,163.8 " />
<polygon points="140.4,94.5 138.3,98.8 136,103.1 133.5,107.5 130.8,111.8 128,116.1 125,120.4 121.7,124.6 118.3,128.9 114.5,133 110.4,137 109,135.9 111.4,130.8 113.8,125.9 116.2,121.1 118.5,116.5 120.6,111.9 122.6,107.4 124.5,103 126.2,98.6 127.8,94.3 129.2,90.1 " />
<polygon points="128.9,91 140.4,94.5 129.8,88.7 " />
<polygon points="140.4,94.5 142.4,97.5 136.7,98.4 " />
<polygon points="111.1,136.4 115.6,139.1 119.8,142.4 123.7,146 127.3,150 130.6,154.3 133.7,159 136.5,163.9 139,169.1 141.3,174.5 143.3,180.3 131.7,183.4 130.5,178 129,172.9 127.4,168 125.5,163.3 123.4,158.7 121.1,154.3 118.5,150.1 115.8,146 112.9,141.9 109.9,137.8 " />
<polygon points="143.3,180.3 142.7,184.8 139.1,187.6 134.6,187 131.7,183.4 " />
<polygon points="176.2,94.7 173.8,99.1 171.3,103.5 168.6,107.9 165.7,112.3 162.6,116.7 159.3,121 155.8,125.3 152.1,129.6 148.1,133.7 143.7,137.6 142.3,136.5 145,131.4 147.7,126.4 150.4,121.6 153,116.9 155.4,112.2 157.7,107.6 159.8,103.1 161.7,98.7 163.5,94.3 165.2,89.9 " />
<polygon points="164.8,90.8 176.2,94.7 165.7,88.7 " />
<polygon points="176.2,94.7 178.1,97.7 172.4,98.5 " />
<polygon points="144.3,137 149.2,139.5 153.7,142.7 157.9,146.2 161.8,150.2 165.4,154.5 168.7,159.2 171.7,164.2 174.3,169.5 176.7,175 178.7,180.9 167.1,184 165.8,178.6 164.3,173.4 162.6,168.4 160.6,163.7 158.3,159.1 155.8,154.8 153,150.6 150,146.5 146.7,142.4 143.3,138.4 " />
<polygon points="178.7,180.9 178,185.4 174.4,188.2 169.9,187.6 167.1,184 " />
</g>
</svg>
