<svg xmlns="http://www.w3.org/2000/svg" xmlns:xlink="http://www.w3.org/1999/xlink" version="1.1" baseProfile="full" viewBox="0 0 200 200" width="200" height="200">
<g fill="black">
<polygon points="43,61 43,182 31,188 31,55 " />
<polygon points="37,61 163,61 163,65 37,65 " />
<polygon points="169,63 169,172 157,172 157,63 " />
<polygon points="157,61 163,56 174,65 169,69 157,63 " />
<polygon points="169,172 166.6,175.6 163,178 159.4,175.6 157,172 " />
<polygon points="169,172 168.8,174.5 168.4,177 167.6,179.4 166.3,181.7 164.7,183.7 162.7,185.3 160.4,186.6 158,187.4 155.5,187.8 153,188 153,176 154.2,175.9 155.1,175.7 155.7,175.5 156,175.4 156.2,175.2 156.4,175 156.5,174.7 156.7,174.1 156.9,173.2 157,172 " />
<polygon points="153,182 153,176 133,176 133,179 " />
<polygon points="103.9,62.8 101.5,73.8 98.4,84.1 94.5,93.9 89.7,103.1 84.3,111.8 78,119.7 71,127.1 63.2,133.7 54.7,139.6 45.4,144.7 44.5,143.2 52.5,136.6 59.7,129.7 66.2,122.6 72,115 77.1,107.1 81.5,98.8 85.2,90.1 88.2,80.9 90.4,71.2 92,61.1 " />
<polygon points="55,26 111,26 111,30 55,30 " />
<polygon points="111,26 87,28 99,16 " />
<polygon points="101.8,30 103.3,43.5 105.5,56.1 108.4,67.9 112.1,78.8 116.7,89 122.1,98.4 128.4,107 135.6,114.9 143.7,122 152.7,128.5 145.2,139.4 135.6,131.6 127.1,123 119.7,113.6 113.4,103.6 108.2,92.9 104.2,81.5 101.3,69.5 99.6,56.9 99.2,43.7 100,29.9 " />
<polygon points="145.2,139.4 152.7,128.5 156.2,130.9 " />
</g>
</svg>
