<svg xmlns="http://www.w3.org/2000/svg" xmlns:xlink="http://www.w3.org/1999/xlink" version="1.1" baseProfile="full" viewBox="0 0 200 200" width="200" height="200">
<g fill="black">
<path d="M 12.6 187.6 L 11.3 186.3 L 20.8 173.4 L 29.5 159.8 L 37.3 145.7 L 44.3 130.8 L 50.5 115.2 L 55.7 98.8 L 60.1 81.7 L 63.6 63.7 L 66.2 45 L 67.9 25.5 L 68.1 23.3 L 79.9 26.4 L 82.7 28.6 L 79.4 30.2 L 77.5 46.5 L 74.1 65.7 L 69.8 84.1 L 64.6 101.6 L 58.4 118.2 L 51.2 134 L 43.1 148.9 L 33.9 162.8 L 23.8 175.7 Z M 179.1 182.5 L 169.9 171.1 L 161.5 158.5 L 153.8 144.6 L 146.8 129.5 L 140.6 113.1 L 135.1 95.4 L 130.4 76.5 L 126.4 56.3 L 123.3 34.8 L 121.2 12.1 L 123 11.8 L 127.4 34.1 L 132.2 55.1 L 137.4 74.7 L 143.1 93 L 149.4 109.8 L 156.2 125.3 L 163.5 139.4 L 171.4 152.1 L 179.8 163.5 L 188.8 173.4 L 189.8 174.6 Z " />
</g>
</svg>
