<svg xmlns="http://www.w3.org/2000/svg" xmlns:xlink="http://www.w3.org/1999/xlink" version="1.1" baseProfile="full" viewBox="0 0 200 200" width="200" height="200">
<g fill="black">
<path d="M 25.8 173.3 L 24.1 172.6 L 29.5 159 L 34.6 145.3 L 39.6 131.3 L 44.4 117.1 L 48.9 102.6 L 53.1 87.9 L 57 72.8 L 60.6 57.4 L 63.9 41.8 L 66.9 25.8 L 67.2 23.9 L 78.6 28.1 L 81.2 30.6 L 77.8 31.9 L 75 44.2 L 71 60 L 66.7 75.4 L 62 90.5 L 56.9 105.3 L 51.5 119.7 L 45.8 133.7 L 39.6 147.4 L 32.9 160.6 Z M 171.5 159.9 L 167.1 158.9 L 164.5 155.2 L 161.6 139.7 L 158.4 124.8 L 155 110.4 L 151.3 96.6 L 147.4 83.3 L 143.3 70.5 L 138.9 58.3 L 134.3 46.5 L 129.5 35.2 L 124.7 24.3 L 126.2 23.4 L 132.9 33.4 L 139.1 44.2 L 144.9 55.7 L 150.3 67.8 L 155.4 80.5 L 160.2 93.9 L 164.7 107.7 L 168.9 122.2 L 172.7 137.2 L 176.3 152.9 L 175.3 157.3 Z " />
</g>
</svg>
