<svg xmlns="http://www.w3.org/2000/svg" xmlns:xlink="http://www.w3.org/1999/xlink" version="1.1" baseProfile="full" viewBox="0 0 200 200" width="200" height="200">
<g fill="black">
<polygon points="60.1,25.4 60.1,121.3 48.1,127.3 48.1,19.4 " />
<polygon points="54.1,25.4 145.9,25.4 145.9,29.4 54.1,29.4 " />
<polygon points="151.9,27.4 151.9,118.3 139.9,124.3 139.9,27.4 " />
<polygon points="139.9,25.4 145.9,20.4 156.9,29.4 151.9,33.4 139.9,27.4 " />
<polygon points="54.1,53.7 145.9,53.7 145.9,57.7 54.1,57.7 " />
<polygon points="54.1,80.8 145.9,80.8 145.9,84.8 54.1,84.8 " />
<polygon points="54.1,110.3 145.9,110.3 145.9,114.3 54.1,114.3 " />
<polygon points="18,137.2 182,137.2 182,141.2 18,141.2 " />
<polygon points="182,137.2 158,139.2 170,127.2 " />
<polygon points="104.7,120 101.7,129.7 97.5,138.8 91.9,147.4 85,155.3 76.9,162.6 67.6,169.3 57.1,175.3 45.4,180.8 32.4,185.6 18.2,189.7 17.7,188 31,182.1 43.1,176 53.8,169.6 63.3,163 71.4,156.2 78.2,149 83.7,141.6 87.9,133.9 91,126 92.9,117.7 " />
<polygon points="92.7,118.7 104.7,120 93.2,115.8 " />
<polygon points="104.7,120 107.2,122.5 101.8,124.5 " />
<polygon points="102.2,147.3 110.8,149.6 119.1,152.2 127,155 134.6,158 141.8,161.2 148.7,164.5 155.3,167.9 161.6,171.4 167.6,175.1 173.2,178.8 165.9,188.4 161,184.4 155.7,180.4 150.1,176.5 144.2,172.6 137.9,168.7 131.2,164.9 124.3,161 117,157.1 109.4,153.1 101.6,149 " />
<polygon points="173.2,178.8 175.5,182.8 174.3,187.2 170.4,189.5 165.9,188.4 " />
</g>
</svg>
