<svg xmlns="http://www.w3.org/2000/svg" xmlns:xlink="http://www.w3.org/1999/xlink" version="1.1" baseProfile="full" viewBox="0 0 200 200" width="200" height="200">
<g fill="black">
<polygon points="45.3,13.7 49.6,16.4 53.8,19 57.7,21.6 61.2,24.3 64.5,27 67.5,29.7 70.2,32.5 72.7,35.2 75,38 76.9,40.8 66.2,46.2 65.3,43.8 64,41.2 62.5,38.4 60.7,35.5 58.6,32.4 56.2,29.3 53.6,26 50.7,22.5 47.6,18.8 44.2,15.2 " />
<polygon points="76.9,40.8 77.2,45.4 74.3,48.9 69.8,49.2 66.2,46.2 " />
<polygon points="150.5,17.9 147.6,21.8 144.5,25.7 141.2,29.6 137.8,33.5 134.1,37.5 130.3,41.5 126.3,45.4 122,49.4 117.5,53.2 112.6,57 111.3,55.8 114.7,50.7 118,45.8 121.3,41.2 124.5,36.6 127.5,32.2 130.4,27.9 133.1,23.6 135.7,19.5 138.1,15.4 140.4,11.4 " />
<polygon points="140.4,11.4 150.5,17.9 140.9,10.6 " />
<polygon points="150.5,17.9 151.9,21.2 144.7,21.3 " />
<polygon points="12,54.4 188,54.4 188,58.4 12,58.4 " />
<polygon points="188,54.4 164,56.4 176,44.4 " />
<polygon points="64.6,62.8 62.4,66.7 59.9,70.5 57.3,74.4 54.5,78.3 51.6,82.3 48.5,86.2 45.2,90.2 41.7,94.1 38,97.9 33.9,101.7 32.5,100.6 35,95.7 37.5,91 39.9,86.5 42.3,82.1 44.5,77.8 46.6,73.6 48.7,69.4 50.5,65.4 52.3,61.4 53.9,57.5 " />
<polygon points="53.9,57.5 64.6,62.8 54.4,56.4 " />
<polygon points="64.6,62.8 66.5,65.9 59.3,66.9 " />
<polygon points="16.9,92.8 21.4,94.5 25.7,96.4 29.9,98.5 33.8,100.9 37.6,103.4 41.2,106.1 44.6,109 47.9,112.1 50.9,115.3 53.8,118.6 44,125.5 42,122.2 39.8,119 37.5,115.8 34.9,112.6 32.2,109.6 29.3,106.5 26.3,103.5 23,100.5 19.6,97.4 16,94.4 " />
<polygon points="53.8,118.6 54.8,123.1 52.3,127 47.9,127.9 44,125.5 " />
<polygon points="85.5,95.5 81.2,104.5 76.6,113.3 71.6,122 66.2,130.6 60.4,138.9 54.2,147.1 47.6,155.1 40.6,162.8 33.1,170.3 25.1,177.4 23.8,176.2 30.3,167.7 36.5,159.4 42.5,151 48.1,142.7 53.4,134.2 58.3,125.7 62.9,117.2 67,108.5 70.9,99.8 74.3,90.9 " />
<polygon points="74.3,90.9 85.5,95.5 74.9,89.6 " />
<polygon points="85.5,95.5 87.5,98.4 80.4,99.9 " />
<polygon points="15.4,172.3 23,171.1 30.4,169.8 37.6,168.6 44.7,167.4 51.6,166.2 58.4,165 65,163.9 71.4,162.9 77.7,162.1 84,161.4 84.4,163.2 78.7,165.8 72.7,168.1 66.6,170.3 60.2,172.4 53.6,174.4 46.8,176.4 39.8,178.4 32.6,180.3 25.3,182.2 17.8,184.1 " />
<polygon points="17.8,184.1 15.4,172.3 13.4,172.7 " />
<polygon points="17.8,184.1 20.3,186.6 23.1,179.9 " />
<polygon points="67.9,138.3 71.2,140.8 74.4,143.4 77.4,146.3 80.2,149.3 82.9,152.5 85.4,155.9 87.7,159.4 89.9,163.1 91.9,166.9 93.8,170.8 82.5,174.8 81.4,171.1 80.3,167.4 79,163.8 77.6,160.3 76,156.7 74.4,153.3 72.6,149.8 70.7,146.4 68.8,142.9 66.6,139.5 " />
<polygon points="93.8,170.8 93.5,175.3 90.1,178.4 85.6,178.1 82.5,174.8 " />
<polygon points="145.8,61.2 143.7,66.5 141.5,71.6 139.2,76.6 136.8,81.4 134.2,86 131.6,90.4 128.8,94.7 125.8,98.8 122.6,102.5 119.2,106 117.7,105 119.4,100.5 121.2,96.1 123,91.6 124.8,87 126.6,82.4 128.3,77.6 129.9,72.8 131.5,67.8 133,62.7 134.4,57.5 " />
<polygon points="134.4,57.5 145.8,61.2 134.9,56 " />
<polygon points="145.8,61.2 148.1,64.1 141.1,66 " />
<polygon points="104.3,92.1 108.6,94.7 112.8,97.4 116.7,100.3 120.3,103.3 123.8,106.5 127,109.7 130,113.1 132.8,116.5 135.4,120 137.8,123.6 127.2,129.2 125.7,125.8 123.9,122.3 122,118.8 119.9,115.3 117.5,111.8 115,108.3 112.3,104.7 109.4,101.1 106.4,97.3 103.2,93.5 " />
<polygon points="137.8,123.6 138.2,128.2 135.3,131.7 130.7,132.1 127.2,129.2 " />
<polygon points="168.9,90.5 164.7,100.4 160.3,110.1 155.6,119.4 150.7,128.4 145.5,137.1 140.1,145.5 134.5,153.5 128.5,161.2 122.2,168.4 115.6,175.2 114.2,174 119.2,166.1 124.1,158.1 129,149.9 133.7,141.5 138.2,132.9 142.5,124.1 146.6,115 150.5,105.7 154.2,96.2 157.7,86.3 " />
<polygon points="157.7,86.3 168.9,90.5 158.2,84.9 " />
<polygon points="168.9,90.5 171,93.4 164,95.1 " />
<polygon points="97.6,172.5 105.8,170.7 113.9,168.9 121.8,167.2 129.6,165.7 137.3,164.2 144.9,162.8 152.3,161.5 159.7,160.3 167,159.5 174.2,158.8 174.6,160.6 167.8,163.1 160.9,165.6 153.9,167.9 146.7,170.1 139.3,172.4 131.9,174.7 124.3,177 116.5,179.3 108.7,181.7 100.7,184.1 " />
<polygon points="100.7,184.1 97.6,172.5 95.7,173 " />
<polygon points="100.7,184.1 103.4,186.5 105.7,179.7 " />
<polygon points="161.4,130.3 165.1,134.5 168.4,139.1 171.6,143.8 174.5,148.7 177.2,153.8 179.7,159 182.1,164.4 184.3,169.9 186.4,175.4 188.3,181.2 176.7,184.2 175.5,178.7 174.1,173.2 172.6,167.7 171.1,162.4 169.4,157.1 167.6,151.9 165.7,146.7 163.7,141.6 161.8,136.4 159.8,131.2 " />
<polygon points="188.3,181.2 187.7,185.7 184.1,188.5 179.5,187.8 176.7,184.2 " />
</g>
</svg>
