<svg xmlns="http://www.w3.org/2000/svg" xmlns:xlink="http://www.w3.org/1999/xlink" version="1.1" baseProfile="full" viewBox="0 0 200 200" width="200" height="200">
<g fill="black">
<polygon points="65,26 65,148 53,148 53,20 " />
<polygon points="59,26 141,26 141,30 59,30 " />
<polygon points="147,28 147,148 135,148 135,28 " />
<polygon points="135,26 141,21 152,30 147,34 135,28 " />
<polygon points="59,56 141,56 141,60 59,60 " />
<polygon points="59,86 141,86 141,90 59,90 " />
<polygon points="59,116 141,116 141,120 59,120 " />
<polygon points="19,144 181,144 181,148 19,148 " />
<polygon points="181,144 157,146 169,134 " />
<polygon points="84.5,164.5 79.2,167.6 73.7,170.5 68,173.4 62,176.1 55.8,178.7 49.4,181.1 42.7,183.4 35.8,185.5 28.7,187.3 21.2,188.8 20.7,187.1 27.4,183.7 33.9,180.5 40.2,177.3 46.3,174.2 52.2,171 57.8,167.8 63.2,164.6 68.3,161.3 73.1,157.9 77.7,154.6 " />
<polygon points="76.9,155.1 84.5,164.5 85,164.1 " />
<polygon points="85,164.1 85.2,167.7 79.7,165.3 " />
<polygon points="112.1,157.3 118.9,158.2 125.3,159.5 131.5,161 137.3,162.9 142.8,164.9 148,167.2 152.9,169.7 157.5,172.4 161.9,175.4 165.9,178.5 157.6,187.2 154.6,184.2 151.3,181.1 147.5,178.2 143.4,175.3 139,172.6 134.2,169.8 129.1,167.2 123.6,164.5 117.8,161.8 111.7,159.1 " />
<polygon points="165.9,178.5 167.7,182.7 166.1,187 161.9,188.8 157.6,187.2 " />
</g>
</svg>
