<svg xmlns="http://www.w3.org/2000/svg" xmlns:xlink="http://www.w3.org/1999/xlink" version="1.1" baseProfile="full" viewBox="0 0 200 200" width="200" height="200">
<g fill="black">
<polygon points="41,69 151,69 151,73 41,73 " />
<polygon points="157,71 157,133 145,139 145,71 " />
<polygon points="145,69 151,64 162,73 157,77 145,71 " />
<polygon points="41,123 151,123 151,127 41,127 " />
<polygon points="16,97 186,97 186,101 16,101 " />
<polygon points="186,97 162,99 174,87 " />
<polygon points="86,46 86,184 74,190 74,46 " />
<polygon points="126,46 126,184 114,190 114,46 " />
<polygon points="31,46 179,46 179,50 31,50 " />
<polygon points="179,46 155,48 167,36 " />
<polygon points="83.8,125 82.3,127.7 77.5,135.8 72.3,143.4 66.7,150.5 60.7,157 54.4,163 47.7,168.4 40.7,173.3 33.2,177.5 25.4,181 17.3,183.8 16.6,182.1 23.7,177.6 30.4,172.9 36.8,167.9 42.8,162.6 48.5,156.9 53.8,150.8 58.8,144.3 63.4,137.4 67.7,130 70.2,125 " />
<polygon points="125.2,125.5 129.1,131.4 133.2,136.8 137.5,141.9 142.1,146.7 147,151 152.3,155.1 158,158.8 164,162.1 170.5,165.1 177.4,167.8 172.5,180.1 165.1,176.4 158.1,172.3 151.7,167.9 145.9,163 140.6,157.8 135.8,152.2 131.7,146.3 128.2,139.9 125.4,133.3 123.5,126.2 " />
<polygon points="172.5,180.1 177.4,167.8 183.9,170.5 " />
<polygon points="59.3,14.7 62.1,16.2 65.1,17.5 67.9,19.1 70.5,20.9 73,23 75.4,25.2 77.6,27.6 79.7,30.2 81.6,33 83.4,35.9 72.3,40.5 71.5,37.8 70.7,35.2 69.7,32.7 68.5,30.3 67.2,27.8 65.8,25.4 64.2,23.1 62.5,20.7 60.6,18.3 58.3,16.2 " />
<polygon points="83.4,35.9 83.3,40.5 80.1,43.7 75.5,43.7 72.3,40.5 " />
<polygon points="144.7,20.8 142.8,23.3 140.8,25.9 138.6,28.6 136.4,31.3 134.1,34 131.7,36.9 129.1,39.7 126.4,42.6 123.5,45.4 120.7,48.5 119.2,47.4 121.1,43.8 122.7,40 124.4,36.5 126,33.1 127.5,29.8 129,26.6 130.4,23.5 131.8,20.5 133.1,17.6 134.2,14.8 " />
<polygon points="134.2,14.8 144.7,20.8 134.8,13.9 " />
<polygon points="144.7,20.8 146.3,24 139.1,24.5 " />
</g>
</svg>
