<svg xmlns="http://www.w3.org/2000/svg" xmlns:xlink="http://www.w3.org/1999/xlink" version="1.1" baseProfile="full" viewBox="0 0 200 200" width="200" height="200">
<g fill="black">
<polygon points="57,26 57,183 45,189 45,20 " />
<polygon points="51,26 149,26 149,30 51,30 " />
<polygon points="155,28 155,170 143,170 143,28 " />
<polygon points="143,26 149,21 160,30 155,34 143,28 " />
<polygon points="155,170 152.6,173.6 149,176 145.4,173.6 143,170 " />
<polygon points="155,170 154.8,172.5 154.4,175 153.6,177.4 152.3,179.7 150.7,181.7 148.7,183.3 146.4,184.6 144,185.4 141.5,185.8 139,186 139,174 140.2,173.9 141.1,173.7 141.7,173.5 142,173.4 142.2,173.2 142.4,173 142.5,172.7 142.7,172.1 142.9,171.2 143,170 " />
<polygon points="139,180 139,174 119,174 119,177 " />
<polygon points="12,66 188,66 188,70 12,70 " />
<polygon points="188,66 164,68 176,56 " />
<polygon points="12,116 188,116 188,120 12,120 " />
<polygon points="188,116 164,118 176,106 " />
</g>
</svg>
