<svg xmlns="http://www.w3.org/2000/svg" xmlns:xlink="http://www.w3.org/1999/xlink" version="1.1" baseProfile="full" viewBox="0 0 200 200" width="200" height="200">
<g fill="black">
<polygon points="44,22 44,79 32,85 32,16 " />
<polygon points="38,22 162,22 162,26 38,26 " />
<polygon points="168,24 168,79 156,85 156,24 " />
<polygon points="156,22 162,17 173,26 168,30 156,24 " />
<polygon points="52,44 148,44 148,48 52,48 " />
<polygon points="148,44 124,46 136,34 " />
<polygon points="52,66 148,66 148,70 52,70 " />
<polygon points="148,66 124,68 136,56 " />
</g>
</svg>
