<svg xmlns="http://www.w3.org/2000/svg" xmlns:xlink="http://www.w3.org/1999/xlink" version="1.1" baseProfile="full" viewBox="0 0 200 200" width="200" height="200">
<g fill="black">
<polygon points="62,29 62,89 50,89 50,23 " />
<polygon points="56,29 143,29 143,33 56,33 " />
<polygon points="149,31 149,89 137,89 137,31 " />
<polygon points="137,29 143,24 154,33 149,37 137,31 " />
<polygon points="56,56 96,56 96,60 56,60 " />
<polygon points="102,58 102,89 90,89 90,58 " />
<polygon points="90,56 96,51 107,60 102,64 90,58 " />
<polygon points="35,85 35,182 23,188 23,79 " />
<polygon points="29,85 169,85 169,89 29,89 " />
<polygon points="175,87 175,171 163,171 163,87 " />
<polygon points="163,85 169,80 180,89 175,93 163,87 " />
<polygon points="175,171 172.6,174.6 169,177 165.4,174.6 163,171 " />
<polygon points="175,171 174.8,173.5 174.4,176 173.6,178.4 172.3,180.7 170.7,182.7 168.7,184.3 166.4,185.6 164,186.4 161.5,186.8 159,187 159,175 160.2,174.9 161.1,174.7 161.7,174.5 162,174.4 162.2,174.2 162.4,174 162.5,173.7 162.7,173.1 162.9,172.2 163,171 " />
<polygon points="159,181 159,175 139,175 139,178 " />
</g>
</svg>
