<svg xmlns="http://www.w3.org/2000/svg" xmlns:xlink="http://www.w3.org/1999/xlink" version="1.1" baseProfile="full" viewBox="0 0 200 200" width="200" height="200">
<g fill="black">
<polygon points="61,25 61,90 49,90 49,19 " />
<polygon points="55,25 143,25 143,29 55,29 " />
<polygon points="149,27 149,90 137,90 137,27 " />
<polygon points="137,25 143,20 154,29 149,33 137,27 " />
<polygon points="107,55 107,90 95,90 95,49 " />
<polygon points="101,55 143,55 143,59 101,59 " />
<polygon points="34,86 34,183 22,189 22,80 " />
<polygon points="28,86 170,86 170,90 28,90 " />
<polygon points="176,88 176,171 164,171 164,88 " />
<polygon points="164,86 170,81 181,90 176,94 164,88 " />
<polygon points="176,171 173.6,174.6 170,177 166.4,174.6 164,171 " />
<polygon points="176,171 175.8,173.5 175.4,176 174.6,178.4 173.3,180.7 171.7,182.7 169.7,184.3 167.4,185.6 165,186.4 162.5,186.8 160,187 160,175 161.2,174.9 162.1,174.7 162.7,174.5 163,174.4 163.2,174.2 163.4,174 163.5,173.7 163.7,173.1 163.9,172.2 164,171 " />
<polygon points="160,181 160,175 140,175 140,178 " />
</g>
</svg>
