<svg xmlns="http://www.w3.org/2000/svg" xmlns:xlink="http://www.w3.org/1999/xlink" version="1.1" baseProfile="full" viewBox="0 0 200 200" width="200" height="200">
<g fill="black">
<polygon points="37.4,26 37.4,181 25.4,187 25.4,20 " />
<polygon points="31.4,26 83.5,26 83.5,30 31.4,30 " />
<polygon points="89.5,28 89.5,170 77.5,170 77.5,28 " />
<polygon points="77.5,26 83.5,21 94.5,30 89.5,34 77.5,28 " />
<polygon points="89.5,170 87.1,173.6 83.5,176 79.9,173.6 77.5,170 " />
<polygon points="89.5,170 89.4,172.5 89,175 88.2,177.4 86.9,179.7 85.3,181.7 83.3,183.3 81,184.6 78.6,185.4 76.1,185.8 73.5,186 73.5,174 74.8,173.9 75.7,173.7 76.3,173.5 76.6,173.4 76.8,173.2 77,173 77.1,172.7 77.3,172.1 77.5,171.2 77.5,170 " />
<polygon points="53.5,177 53.5,174 73.5,174 73.5,180 " />
<polygon points="13.2,70.7 101.8,70.7 101.8,74.7 13.2,74.7 " />
<polygon points="101.8,70.7 89.8,72.7 95.8,64.7 " />
<polygon points="13.2,118 101.8,118 101.8,122 13.2,122 " />
<polygon points="101.8,118 89.8,120 95.8,112 " />
</g>
</svg>
