<svg xmlns="http://www.w3.org/2000/svg" xmlns:xlink="http://www.w3.org/1999/xlink" version="1.1" baseProfile="full" viewBox="0 0 200 200" width="200" height="200">
<g fill="black">
<polygon points="44,48 44,183 32,189 32,42 " />
<polygon points="38,48 163,48 163,52 38,52 " />
<polygon points="169,50 169,172 157,172 157,50 " />
<polygon points="157,48 163,43 174,52 169,56 157,50 " />
<polygon points="169,172 166.6,175.6 163,178 159.4,175.6 157,172 " />
<polygon points="169,172 168.8,174.5 168.4,177 167.6,179.4 166.3,181.7 164.7,183.7 162.7,185.3 160.4,186.6 158,187.4 155.5,187.8 153,188 153,176 154.2,175.9 155.1,175.7 155.7,175.5 156,175.4 156.2,175.2 156.4,175 156.5,174.7 156.7,174.1 156.9,173.2 157,172 " />
<polygon points="153,182 153,176 133,176 133,179 " />
<polygon points="106,15 106,53 94,53 94,13 " />
<polygon points="106,15 109,17 106,19 " />
<polygon points="106,53 103.6,56.6 100,59 96.4,56.6 94,53 " />
<polygon points="105.9,53 104.9,67 102.7,80 99.4,92 94.9,103 89.3,112.9 82.6,121.7 74.8,129.3 66,135.8 56.1,140.9 45.3,144.8 44.6,143.1 54.3,137.6 62.9,131.4 70.3,124.5 76.7,116.9 82.1,108.5 86.4,99.2 89.8,89.1 92.2,78 93.6,65.9 94,52.9 " />
<polygon points="98.2,83.5 104.2,85.1 109.9,87.1 115.4,89.6 120.6,92.4 125.6,95.6 130.4,99.1 135,102.9 139.3,107 143.3,111.4 147.2,116.1 137.3,122.9 134.4,118.4 131.2,114.1 127.8,110 124.2,106 120.4,102.3 116.3,98.6 111.9,95.2 107.4,91.8 102.6,88.5 97.5,85.2 " />
<polygon points="147.2,116.1 148.1,120.5 145.7,124.4 141.2,125.3 137.3,122.9 " />
</g>
</svg>
