<svg xmlns="http://www.w3.org/2000/svg" xmlns:xlink="http://www.w3.org/1999/xlink" version="1.1" baseProfile="full" viewBox="0 0 200 200" width="200" height="200">
<g fill="black">
<polygon points="63,23 63,101 51,101 51,17 " />
<polygon points="57,23 143,23 143,27 57,27 " />
<polygon points="149,25 149,101 137,101 137,25 " />
<polygon points="137,23 143,18 154,27 149,31 137,25 " />
<polygon points="40,97 40,183 28,189 28,91 " />
<polygon points="34,97 166,97 166,101 34,101 " />
<polygon points="172,99 172,171 160,171 160,99 " />
<polygon points="160,97 166,92 177,101 172,105 160,99 " />
<polygon points="172,171 169.6,174.6 166,177 162.4,174.6 160,171 " />
<polygon points="172,171 171.8,173.5 171.4,176 170.6,178.4 169.3,180.7 167.7,182.7 165.7,184.3 163.4,185.6 161,186.4 158.5,186.8 156,187 156,175 157.2,174.9 158.1,174.7 158.7,174.5 159,174.4 159.2,174.2 159.4,174 159.5,173.7 159.7,173.1 159.9,172.2 160,171 " />
<polygon points="136,178 136,175 156,175 156,181 " />
<polygon points="107.3,34 106.7,41.9 105.3,49.5 103.2,56.7 100.4,63.4 96.9,69.6 92.7,75.4 87.8,80.6 82.2,85.3 76,89.3 69.2,92.7 68.2,91.2 73.8,86.3 78.6,81.3 82.9,76.2 86.5,70.9 89.5,65.5 91.8,59.8 93.6,53.8 94.8,47.5 95.3,40.9 95.3,34 " />
<polygon points="95.3,31.6 107.3,34 95.3,35 " />
<polygon points="107.3,34 110.3,36 105.3,39 " />
<polygon points="97.9,59.1 102.1,60.9 106.3,62.7 110.1,64.7 113.8,66.9 117.2,69.2 120.5,71.7 123.5,74.4 126.3,77.2 128.9,80.2 131.2,83.3 120.8,89.3 119.5,86.4 117.9,83.6 116.1,80.8 114.1,77.9 111.8,75.1 109.3,72.2 106.6,69.4 103.6,66.5 100.5,63.5 97,60.7 " />
<polygon points="131.2,83.3 131.7,87.9 129,91.5 124.5,92 120.8,89.3 " />
</g>
</svg>
