<svg xmlns="http://www.w3.org/2000/svg" xmlns:xlink="http://www.w3.org/1999/xlink" version="1.1" baseProfile="full" viewBox="0 0 200 200" width="200" height="200">
<g fill="black">
<polygon points="52,28 52,104 40,104 40,22 " />
<polygon points="52,104 49.6,107.6 46,110 42.4,107.6 40,104 " />
<polygon points="52,104 51.4,115.5 50.2,126.4 48.6,136.8 46.3,146.4 43.5,155.4 40.1,163.8 36.1,171.4 31.6,178.3 26.4,184.4 20.6,189.6 19.3,188.3 23.4,182.1 27,175.5 30.3,168.5 33.1,161 35.4,153 37.3,144.4 38.7,135.2 39.6,125.4 40,115 40,104 " />
<polygon points="46,28 85,28 85,32 46,32 " />
<polygon points="91,30 91,171 79,171 79,30 " />
<polygon points="79,28 85,23 96,32 91,36 79,30 " />
<polygon points="91,171 88.6,174.6 85,177 81.4,174.6 79,171 " />
<polygon points="91,171 90.8,173.5 90.4,176 89.6,178.4 88.3,180.7 86.7,182.7 84.7,184.3 82.4,185.6 80,186.4 77.5,186.8 75,187 75,175 76.2,174.9 77.1,174.7 77.7,174.5 78,174.4 78.2,174.2 78.4,174 78.5,173.7 78.7,173.1 78.9,172.2 79,171 " />
<polygon points="75,181 75,175 55,175 55,178 " />
<polygon points="125,28 125,106 113,106 113,22 " />
<polygon points="125,106 122.6,109.6 119,112 115.4,109.6 113,106 " />
<polygon points="125,106 124.4,117.3 123.4,128 121.8,138 119.8,147.4 117.3,156.1 114.2,164.1 110.7,171.5 106.5,178 101.8,183.8 96.6,188.6 95.3,187.3 98.8,181.5 101.9,175.3 104.7,168.7 107.1,161.5 109.1,153.8 110.7,145.5 111.9,136.5 112.7,127 113,116.8 113,106 " />
<polygon points="119,28 159,28 159,32 119,32 " />
<polygon points="165,30 165,172 153,172 153,30 " />
<polygon points="153,28 159,23 170,32 165,36 153,30 " />
<polygon points="165,172 162.6,175.6 159,178 155.4,175.6 153,172 " />
<polygon points="165,172 164.8,174.5 164.4,177 163.6,179.4 162.3,181.7 160.7,183.7 158.7,185.3 156.4,186.6 154,187.4 151.5,187.8 149,188 149,176 150.2,175.9 151.1,175.7 151.7,175.5 152,175.4 152.2,175.2 152.4,175 152.5,174.7 152.7,174.1 152.9,173.2 153,172 " />
<polygon points="149,182 149,176 129,176 129,179 " />
<polygon points="15,91 188,91 188,95 15,95 " />
<polygon points="188,91 168,93 178,82 " />
</g>
</svg>
