<svg xmlns="http://www.w3.org/2000/svg" xmlns:xlink="http://www.w3.org/1999/xlink" version="1.1" baseProfile="full" viewBox="0 0 200 200" width="200" height="200">
<g fill="black">
<polygon points="63,23 63,101 51,101 51,17 " />
<polygon points="57,23 143,23 143,27 57,27 " />
<polygon points="149,25 149,101 137,101 137,25 " />
<polygon points="137,23 143,18 154,27 149,31 137,25 " />
<polygon points="40,97 40,183 28,189 28,91 " />
<polygon points="34,97 166,97 166,101 34,101 " />
<polygon points="172,99 172,171 160,171 160,99 " />
<polygon points="160,97 166,92 177,101 172,105 160,99 " />
<polygon points="172,171 169.6,174.6 166,177 162.4,174.6 160,171 " />
<polygon points="172,171 171.8,173.5 171.4,176 170.6,178.4 169.3,180.7 167.7,182.7 165.7,184.3 163.4,185.6 161,186.4 158.5,186.8 156,187 156,175 157.2,174.9 158.1,174.7 158.7,174.5 159,174.4 159.2,174.2 159.4,174 159.5,173.7 159.7,173.1 159.9,172.2 160,171 " />
<polygon points="136,178 136,175 156,175 156,181 " />
<polygon points="123.1,39.2 119.5,46.3 115.5,53 111.1,59.3 106.2,65.3 101,70.8 95.3,75.9 89.2,80.6 82.7,84.9 75.8,88.6 68.4,91.7 67.5,90.2 73.7,85.4 79.6,80.5 85,75.6 90.1,70.4 94.7,65.1 99,59.5 102.8,53.6 106.3,47.5 109.3,41.2 112,34.6 " />
<polygon points="112.6,33.3 123.1,39.2 111.6,35.5 " />
<polygon points="123.1,39.2 125.1,42.2 119.3,43 " />
<polygon points="77.3,39.9 83.3,43.8 89.1,47.9 94.7,52 100.1,56.2 105.3,60.5 110.3,64.7 115.3,69 120,73.2 124.7,77.4 129.2,81.6 120.5,89.9 116.6,85.4 112.5,80.8 108.2,76.1 103.9,71.4 99.5,66.7 94.9,61.8 90.3,56.9 85.6,51.9 80.8,46.7 76.1,41.3 " />
<polygon points="129.2,81.6 130.8,85.9 129,90.1 124.7,91.7 120.5,89.9 " />
</g>
</svg>
