<svg xmlns="http://www.w3.org/2000/svg" xmlns:xlink="http://www.w3.org/1999/xlink" version="1.1" baseProfile="full" viewBox="0 0 200 200" width="200" height="200">
<g fill="black">
<polygon points="49,27 49,94 37,100 37,21 " />
<polygon points="43,27 158,27 158,31 43,31 " />
<polygon points="164,29 164,88 152,94 152,29 " />
<polygon points="152,27 158,22 169,31 164,35 152,29 " />
<polygon points="43,51 158,51 158,55 43,55 " />
<polygon points="43,78 158,78 158,82 43,82 " />
<polygon points="61,99 61,181 49,187 49,93 " />
<polygon points="55,99 146,99 146,103 55,103 " />
<polygon points="152,101 152,175 140,181 140,101 " />
<polygon points="140,99 146,94 157,103 152,107 140,101 " />
<polygon points="55,121 146,121 146,125 55,125 " />
<polygon points="55,165 146,165 146,169 55,169 " />
<polygon points="55,143 146,143 146,147 55,147 " />
</g>
</svg>
