<svg xmlns="http://www.w3.org/2000/svg" xmlns:xlink="http://www.w3.org/1999/xlink" version="1.1" baseProfile="full" viewBox="0 0 200 200" width="200" height="200">
<g fill="black">
<path d="M 182.2 138.0 L 184.2 138.0 L 182.2 163.0 L 185.8 165.4 L 188.2 169.0 L 185.8 172.6 L 182.2 175.0 L 134.5 175.0 L 131.9 174.8 L 129.4 174.4 L 127.0 173.6 L 124.8 172.4 L 122.7 170.7 L 121.1 168.7 L 119.9 166.4 L 119.1 164.0 L 118.6 161.5 L 118.5 159.0 L 118.5 72.7 L 76.1 72.7 L 76.1 99.9 L 75.84468088150024 100.28297872543335 L 76.1 100.3 L 74.3 113.7 L 71.6 126.1 L 67.7 137.5 L 62.9 147.7 L 56.9 156.8 L 50.0 164.7 L 42.0 171.4 L 33.1 176.9 L 23.3 180.9 L 12.6 183.6 L 12.1 181.9 L 21.8 177.4 L 30.4 172.2 L 37.9 166.3 L 44.4 159.6 L 50.0 152.0 L 54.6 143.5 L 58.3 134.0 L 61.2 123.5 L 63.1 112.0 L 64.1 99.5 L 64.1 62.7 L 76.1 68.7 L 118.5 68.7 L 124.5 63.7 L 135.5 72.7 L 130.5 76.7 L 130.5 160.2 L 130.7 161.1 L 130.9 161.7 L 131.1 162.0 L 131.2 162.2 L 131.4 162.4 L 131.7 162.6 L 132.3 162.7 L 133.2 162.9 L 134.5 163.0 L 176.2 163.0 Z M 13.5 65.1 L 12.5 60.6 L 14.9 56.7 L 16.9 55.4 L 18.9 53.6 L 20.8 51.2 L 22.7 48.1 L 24.3 44.5 L 25.8 40.3 L 27.1 35.4 L 28.2 30.0 L 29.3 23.9 L 30.1 17.3 L 31.9 17.3 L 32.8 24.0 L 33.173015880584714 28.7 L 170.0 28.7 L 170.4457142829895 28.32857141494751 L 170.6 27.9 L 170.821125125885 28.01572904586792 L 176.0 23.7 L 187.0 32.7 L 182.0 35.7 L 178.67428569793702 37.08571424484253 L 177.8 38.3 L 175.8 40.8 L 173.6 43.5 L 171.3 46.3 L 168.7 49.2 L 166.0 52.2 L 163.1 55.4 L 159.9 58.5 L 156.7 62.0 L 155.2 60.9 L 157.5 56.8 L 159.4 52.8 L 161.2 49.0 L 163.0 45.4 L 164.6 42.0 L 166.1 38.8 L 167.5 35.8 L 168.7 33.0 L 168.81538457870482 32.7 L 33.34067792892456 32.7 L 33.4 36.2 L 33.0 41.7 L 32.3 46.8 L 31.2 51.5 L 29.6 55.9 L 27.5 59.8 L 25.0 63.4 L 21.9 66.5 L 17.4 67.5 Z " />
</g>
</svg>
