<svg xmlns="http://www.w3.org/2000/svg" xmlns:xlink="http://www.w3.org/1999/xlink" version="1.1" baseProfile="full" viewBox="0 0 200 200" width="200" height="200">
<g fill="black">
<polygon points="41,30 41,94 29,100 29,24 " />
<polygon points="35,30 165,30 165,34 35,34 " />
<polygon points="171,32 171,88 159,94 159,32 " />
<polygon points="159,30 165,25 176,34 171,38 159,32 " />
<polygon points="50,54 150,54 150,58 50,58 " />
<polygon points="150,54 126,56 138,44 " />
<polygon points="50,77 150,77 150,81 50,81 " />
<polygon points="150,77 126,79 138,67 " />
<polygon points="59,98 59,184 47,190 47,92 " />
<polygon points="53,98 147,98 147,102 53,102 " />
<polygon points="153,100 153,174 141,174 141,100 " />
<polygon points="141,98 147,93 158,102 153,106 141,100 " />
<polygon points="153,174 150.6,177.6 147,180 143.4,177.6 141,174 " />
<polygon points="153,174 152.8,176.5 152.4,179 151.6,181.4 150.3,183.7 148.7,185.7 146.7,187.3 144.4,188.6 142,189.4 139.5,189.8 137,190 137,178 138.2,177.9 139.1,177.7 139.7,177.5 140,177.4 140.2,177.2 140.4,177 140.5,176.7 140.7,176.1 140.9,175.2 141,174 " />
<polygon points="137,184 137,178 117,178 117,181 " />
<polygon points="53,123 147,123 147,127 53,127 " />
<polygon points="53,150 147,150 147,154 53,154 " />
</g>
</svg>
