<svg xmlns="http://www.w3.org/2000/svg" xmlns:xlink="http://www.w3.org/1999/xlink" version="1.1" baseProfile="full" viewBox="0 0 200 200" width="200" height="200">
<g fill="black">
<polygon points="28,37 177,37 177,41 28,41 " />
<polygon points="177,37 153,39 165,27 " />
<polygon points="77,19 77,85 65,85 65,17 " />
<polygon points="77,19 80,21 77,23 " />
<polygon points="131,19 131,86 119,86 119,17 " />
<polygon points="131,19 134,21 131,23 " />
<polygon points="34,59 170,59 170,63 34,63 " />
<polygon points="170,59 146,61 158,49 " />
<polygon points="18,82 180,82 180,86 18,86 " />
<polygon points="180,82 156,84 168,72 " />
<polygon points="54,104 54,185 42,191 42,98 " />
<polygon points="48,104 147,104 147,108 48,108 " />
<polygon points="153,106 153,174 141,174 141,106 " />
<polygon points="141,104 147,99 158,108 153,112 141,106 " />
<polygon points="153,174 150.6,177.6 147,180 143.4,177.6 141,174 " />
<polygon points="153,174 152.8,176.5 152.4,179 151.6,181.4 150.3,183.7 148.7,185.7 146.7,187.3 144.4,188.6 142,189.4 139.5,189.8 137,190 137,178 138.2,177.9 139.1,177.7 139.7,177.5 140,177.4 140.2,177.2 140.4,177 140.5,176.7 140.7,176.1 140.9,175.2 141,174 " />
<polygon points="137,184 137,178 117,178 117,181 " />
<polygon points="104,82 104,157 92,157 92,82 " />
<polygon points="48,128 147,128 147,132 48,132 " />
<polygon points="14,153 186,153 186,157 14,157 " />
<polygon points="186,153 162,155 174,143 " />
</g>
</svg>
