<svg xmlns="http://www.w3.org/2000/svg" xmlns:xlink="http://www.w3.org/1999/xlink" version="1.1" baseProfile="full" viewBox="0 0 200 200" width="200" height="200">
<g fill="black">
<polygon points="27,34 176,34 176,38 27,38 " />
<polygon points="176,34 152,36 164,24 " />
<polygon points="76,17 76,82 64,82 64,15 " />
<polygon points="76,17 79,19 74,22 " />
<polygon points="136,17 136,83 124,83 124,15 " />
<polygon points="136,17 139,19 134,22 " />
<polygon points="31,55 172,55 172,59 31,59 " />
<polygon points="172,55 152,57 162,46 " />
<polygon points="21,79 182,79 182,83 21,83 " />
<polygon points="182,79 162,81 172,70 " />
<polygon points="59,100 59,181 47,187 47,94 " />
<polygon points="53,100 148,100 148,104 53,104 " />
<polygon points="154,102 154,171 142,171 142,102 " />
<polygon points="142,100 148,95 159,104 154,108 142,102 " />
<polygon points="154,171 151.6,174.6 148,177 144.4,174.6 142,171 " />
<polygon points="154,171 153.8,173.5 153.4,176 152.6,178.4 151.3,180.7 149.7,182.7 147.7,184.3 145.4,185.6 143,186.4 140.5,186.8 138,187 138,175 139.2,174.9 140.1,174.7 140.7,174.5 141,174.4 141.2,174.2 141.4,174 141.5,173.7 141.7,173.1 141.9,172.2 142,171 " />
<polygon points="138,181 138,175 118,175 118,178 " />
<polygon points="17,148 185,148 185,152 17,152 " />
<polygon points="185,148 161,150 173,138 " />
<polygon points="21,122 181,122 181,126 21,126 " />
<polygon points="181,122 161,124 171,113 " />
<polygon points="107,34 107,152 95,152 95,34 " />
</g>
</svg>
