<svg xmlns="http://www.w3.org/2000/svg" xmlns:xlink="http://www.w3.org/1999/xlink" version="1.1" baseProfile="full" viewBox="0 0 200 200" width="200" height="200">
<g fill="black">
<polygon points="74.3,32.5 78.8,33.7 83.2,34.9 87.4,36.5 91.3,38.2 95,40.2 98.4,42.4 101.6,44.8 104.6,47.4 107.3,50.2 109.8,53.3 99.5,59.5 98.2,56.9 96.6,54.3 94.8,51.7 92.6,49.1 90.2,46.6 87.5,44.1 84.4,41.6 81.1,39.1 77.6,36.5 73.6,34.2 " />
<polygon points="109.8,53.3 110.4,57.8 107.8,61.5 103.2,62.2 99.5,59.5 " />
<polygon points="65.2,120.9 71.4,124.9 76.9,129.4 81.7,134.2 85.7,139.4 89.2,144.8 91.9,150.6 93.9,156.5 95.1,162.8 95.6,169.2 95.4,175.8 83.5,174.2 84.2,168.9 84.4,163.7 84,158.6 83.1,153.5 81.5,148.4 79.3,143.3 76.4,138.2 72.9,133 68.8,127.7 64,122.3 " />
<polygon points="95.4,175.8 93,179.7 88.6,180.9 84.7,178.6 83.5,174.2 " />
<polygon points="76.4,136.1 80.5,131.5 84.9,126.1 89.6,120 94.5,113.1 99.7,105.5 105.2,97.1 111,88 117.1,78.2 123.6,67.7 130.6,56.5 132.2,57.4 127,69.5 121.8,80.8 116.7,91.2 111.8,100.9 107,109.9 102.3,118.1 97.9,125.6 93.6,132.4 89.5,138.5 85.6,143.8 " />
</g>
</svg>
