<svg xmlns="http://www.w3.org/2000/svg" xmlns:xlink="http://www.w3.org/1999/xlink" version="1.1" baseProfile="full" viewBox="0 0 200 200" width="200" height="200">
<g fill="black">
<polygon points="19.3,25.7 25.3,28.7 30.9,31.8 36.1,35.2 40.9,38.8 45.4,42.4 49.4,46.2 53.1,50.2 56.5,54.2 59.5,58.4 62.1,62.7 51.2,67.8 49.6,64 47.6,60.2 45.2,56.3 42.4,52.4 39.3,48.4 35.8,44.3 31.9,40.3 27.7,36.1 23.1,31.8 18.3,27.3 " />
<polygon points="62.1,62.7 62.3,67.2 59.2,70.7 54.7,70.8 51.2,67.8 " />
<polygon points="14.3,173.1 20.7,166.5 27,159.6 33,152.6 38.9,145.2 44.6,137.7 50.1,129.9 55.5,121.9 60.7,113.6 65.9,105.2 71.1,96.6 72.8,97.3 69.3,106.9 65.5,116.1 61.2,125.1 56.6,133.9 51.7,142.4 46.5,150.6 41,158.7 35.3,166.4 29.3,174 23,181.3 " />
<polygon points="23,181.3 14.3,173.1 12.9,174.6 " />
<polygon points="23,181.3 26.6,181.9 24.9,174.9 " />
</g>
</svg>
