<svg xmlns="http://www.w3.org/2000/svg" xmlns:xlink="http://www.w3.org/1999/xlink" version="1.1" baseProfile="full" viewBox="0 0 200 200" width="200" height="200">
<g fill="black">
<polygon points="74.1,121.6 78.5,122 82.7,122.1 86.6,122.4 90.2,122.8 93.6,123.4 96.8,124 99.8,124.8 102.5,125.6 105.1,126.6 107.5,127.8 100.2,137.3 99.1,136.1 97.7,134.8 95.9,133.4 93.7,132 91.2,130.6 88.3,129.2 85.2,127.7 81.7,126.2 78,124.6 73.8,123.4 " />
<polygon points="107.5,127.8 109.7,131.8 108.6,136.2 104.6,138.4 100.2,137.3 " />
<polygon points="65.1,162.7 70.8,164.4 76,166 80.6,167.8 84.6,169.7 88.1,171.9 91.1,174.4 93.5,177.3 95.2,180.8 95.9,184.6 95.6,188.6 84.1,185.1 84.7,184.2 85,183.1 84.9,181.7 84.2,179.8 82.8,177.6 80.6,175.2 77.7,172.6 74,169.9 69.7,167 64.5,164.4 " />
<polygon points="95.6,188.6 92.7,192.1 88.2,192.6 84.7,189.7 84.1,185.1 " />
<polygon points="78.1,166.8 82.1,164.9 86.3,162.6 90.9,160 95.7,157 100.8,153.7 106.1,150.1 111.8,146.1 117.7,141.9 124.1,137.4 130.8,132.8 132,134.1 126.6,140.3 121.2,146 116,151.2 110.9,156 105.9,160.4 101.2,164.5 96.6,168.2 92.2,171.6 88,174.6 83.9,177.3 " />
</g>
</svg>
