<svg xmlns="http://www.w3.org/2000/svg" xmlns:xlink="http://www.w3.org/1999/xlink" version="1.1" baseProfile="full" viewBox="0 0 200 200" width="200" height="200">
<g fill="black">
<polygon points="22.2,31.5 26.2,32.8 30.2,34.1 33.8,35.7 37.3,37.4 40.6,39.4 43.7,41.6 46.6,44 49.2,46.7 51.7,49.5 53.8,52.5 43.2,58.1 42.2,55.5 40.9,52.9 39.3,50.4 37.6,47.9 35.5,45.4 33.2,42.9 30.7,40.4 27.9,37.9 24.9,35.4 21.5,33.2 " />
<polygon points="53.8,52.5 54.2,57 51.4,60.6 46.8,61 43.2,58.1 " />
<polygon points="14.3,120 19.8,124.1 24.7,128.6 29,133.4 32.6,138.6 35.7,144 38.1,149.7 39.8,155.7 41,161.8 41.4,168.2 41.3,174.7 29.4,173.2 30.1,167.9 30.3,162.6 30,157.4 29.1,152.3 27.8,147.2 25.9,142.1 23.5,137 20.5,131.9 17.1,126.7 13.1,121.3 " />
<polygon points="41.3,174.7 39,178.6 34.6,179.9 30.6,177.6 29.4,173.2 " />
<polygon points="23.1,135.4 26.7,130.8 30.6,125.4 34.7,119.3 39.1,112.4 43.7,104.7 48.6,96.3 53.7,87.2 59.1,77.3 64.9,66.8 71.1,55.6 72.8,56.3 68.4,68.4 64,79.6 59.6,90.1 55.3,99.8 51.2,108.7 47.2,116.9 43.4,124.4 39.7,131.1 36.2,137.2 32.8,142.5 " />
</g>
</svg>
