<svg xmlns="http://www.w3.org/2000/svg" xmlns:xlink="http://www.w3.org/1999/xlink" version="1.1" baseProfile="full" viewBox="0 0 200 200" width="200" height="200">
<g fill="black">
<polygon points="31.9,21.4 32.7,27.7 33.3,33.7 33.3,39.2 33,44.4 32.2,49.3 31.1,53.8 29.5,57.9 27.5,61.7 24.9,65.1 21.8,68.1 15.1,58.1 17.1,56.9 19.1,55.3 21,53.1 22.8,50.3 24.4,46.9 25.9,43 27.2,38.4 28.3,33.3 29.3,27.7 30.1,21.5 " />
<polygon points="21.8,68.1 17.3,68.9 13.5,66.5 12.6,62 15.1,58.1 " />
<polygon points="32,32 176,32 176,36 32,36 " />
<polygon points="181.2,36.9 179.5,39.1 177.7,41.4 175.7,43.8 173.5,46.3 171.2,48.9 168.6,51.6 165.9,54.4 163,57.3 159.8,60.3 156.7,63.5 155.2,62.4 157.5,58.5 159.5,54.7 161.3,51.1 163.1,47.7 164.7,44.5 166.2,41.4 167.6,38.6 168.8,35.9 169.8,33.4 170.7,31.1 " />
<polygon points="170,32 176,27 187,36 182,39 170,44 " />
<polygon points="48.8,55.2 151.1,55.2 151.1,59.2 48.8,59.2 " />
<polygon points="151.1,55.2 131.1,57.2 141.1,46.2 " />
<polygon points="68.2,75.2 68.2,107.5 56.2,113.5 56.2,69.2 " />
<polygon points="62.2,75.2 137.7,75.2 137.7,79.2 62.2,79.2 " />
<polygon points="143.7,77.2 143.7,106.5 131.7,112.5 131.7,77.2 " />
<polygon points="131.7,75.2 137.7,70.2 148.7,79.2 143.7,83.2 131.7,77.2 " />
<polygon points="62.2,100.5 137.7,100.5 137.7,104.5 62.2,104.5 " />
<polygon points="49.9,119.7 49.9,181.8 37.9,187.8 37.9,113.7 " />
<polygon points="43.9,119.7 156,119.7 156,123.7 43.9,123.7 " />
<polygon points="162,121.7 162,178.8 150,184.8 150,121.7 " />
<polygon points="150,119.7 156,114.7 167,123.7 162,127.7 150,121.7 " />
<polygon points="106,119.7 106,174.8 94,174.8 94,119.7 " />
<polygon points="43.9,144.8 156,144.8 156,148.8 43.9,148.8 " />
<polygon points="43.9,170.8 156,170.8 156,174.8 43.9,174.8 " />
</g>
</svg>
