<svg xmlns="http://www.w3.org/2000/svg" xmlns:xlink="http://www.w3.org/1999/xlink" version="1.1" baseProfile="full" viewBox="0 0 200 200" width="200" height="200">
<g fill="black">
<polygon points="76,106 76,129 64,129 64,100 " />
<polygon points="76,129 73.6,132.6 70,135 66.4,132.6 64,129 " />
<polygon points="75.9,129.5 74.3,138.2 71.8,146.2 68.5,153.5 64.2,160.1 59.1,165.8 53.1,170.8 46.5,174.9 39.1,178.1 30.9,180.4 22.1,181.8 21.8,180.1 29.8,176.8 36.8,173.2 43,169.3 48.4,164.9 52.8,160.1 56.5,154.8 59.4,149 61.7,142.8 63.2,135.9 64,128.4 " />
<polygon points="70,106 127,106 127,110 70,110 " />
<polygon points="133,108 133,162 121,162 121,108 " />
<polygon points="121,106 127,101 138,110 133,114 121,108 " />
<polygon points="133,162 130.6,165.6 127,168 123.4,165.6 121,162 " />
<polygon points="133,162 133,163.2 133.2,164.1 133.4,164.7 133.5,165 133.7,165.2 133.9,165.4 134.2,165.5 134.8,165.7 135.7,165.9 137,166 137,178 134.4,177.8 131.9,177.4 129.5,176.6 127.2,175.3 125.2,173.7 123.6,171.7 122.3,169.4 121.5,167 121.1,164.5 121,162 " />
<polygon points="137,166 141.2,167.8 143,172 141.2,176.2 137,178 " />
<polygon points="137,166 175,166 175,178 137,178 " />
<polygon points="175,166 178.6,168.4 181,172 178.6,175.6 175,178 " />
<polygon points="169,167 175,141 177,141 175,167 " />
</g>
</svg>
