<svg xmlns="http://www.w3.org/2000/svg" xmlns:xlink="http://www.w3.org/1999/xlink" version="1.1" baseProfile="full" viewBox="0 0 200 200" width="200" height="200">
<g fill="black">
<polygon points="68,28 68,100 56,100 56,22 " />
<polygon points="68,100 65.6,103.6 62,106 58.4,103.6 56,100 " />
<polygon points="68,100 67.2,113.3 65.4,125.7 62.6,137 58.8,147.4 53.9,156.8 48.1,165 41.2,172.1 33.5,177.9 24.8,182.5 15.3,185.8 14.6,184.1 23,179.2 30.3,173.6 36.6,167.4 42,160.4 46.5,152.6 50.1,144 52.9,134.4 54.8,123.9 55.8,112.4 56,100 " />
<polygon points="62,28 134,28 134,32 62,32 " />
<polygon points="140,30 140,162 128,162 128,30 " />
<polygon points="128,28 134,23 145,32 140,36 128,30 " />
<polygon points="140,162 137.6,165.6 134,168 130.4,165.6 128,162 " />
<polygon points="140,162 140,163.2 140.2,164.1 140.4,164.7 140.5,165 140.7,165.2 140.9,165.4 141.2,165.5 141.8,165.7 142.7,165.9 144,166 144,178 141.4,177.8 138.9,177.4 136.5,176.6 134.2,175.3 132.2,173.7 130.6,171.7 129.3,169.4 128.5,167 128.1,164.5 128,162 " />
<polygon points="144,166 148.2,167.8 150,172 148.2,176.2 144,178 " />
<polygon points="144,166 181,166 181,178 144,178 " />
<polygon points="181,166 184.6,168.4 187,172 184.6,175.6 181,178 " />
<polygon points="175,167 181,141 183,141 181,167 " />
</g>
</svg>
