<svg xmlns="http://www.w3.org/2000/svg" xmlns:xlink="http://www.w3.org/1999/xlink" version="1.1" baseProfile="full" viewBox="0 0 200 200" width="200" height="200">
<g fill="black">
<polygon points="75,28 75,100 63,100 63,22 " />
<polygon points="75,100 72.6,103.6 69,106 65.4,103.6 63,100 " />
<polygon points="75,100 74.2,113.2 72.7,125.5 70.3,136.8 67.1,147.2 63.1,156.5 58.1,164.7 52.4,171.8 45.8,177.8 38.4,182.4 30.3,185.8 29.6,184.1 36.3,179.3 42.2,173.8 47.3,167.6 51.7,160.7 55.3,152.9 58.3,144.3 60.5,134.6 62.1,124.1 62.9,112.5 63,100 " />
<polygon points="69,28 136,28 136,32 69,32 " />
<polygon points="142,30 142,162 130,162 130,30 " />
<polygon points="130,28 136,23 147,32 142,36 130,30 " />
<polygon points="142,162 139.6,165.6 136,168 132.4,165.6 130,162 " />
<polygon points="142,162 142,163.2 142.2,164.1 142.4,164.7 142.5,165 142.7,165.2 142.9,165.4 143.2,165.5 143.8,165.7 144.7,165.9 146,166 146,178 143.4,177.8 140.9,177.4 138.5,176.6 136.2,175.3 134.2,173.7 132.6,171.7 131.3,169.4 130.5,167 130.1,164.5 130,162 " />
<polygon points="146,166 150.2,167.8 152,172 150.2,176.2 146,178 " />
<polygon points="146,166 181,166 181,178 146,178 " />
<polygon points="181,166 184.6,168.4 187,172 184.6,175.6 181,178 " />
<polygon points="175,167 181,141 183,141 181,167 " />
<polygon points="42.2,76.6 48.5,78.7 54.4,81.3 59.9,84.2 65.2,87.5 70.3,91 75,94.7 79.5,98.7 83.7,103 87.7,107.4 91.3,112.2 81.3,118.7 78.5,114.2 75.5,109.8 72.2,105.6 68.6,101.4 64.8,97.4 60.6,93.5 56.2,89.6 51.5,85.9 46.6,82.1 41.4,78.2 " />
<polygon points="91.3,112.2 92.1,116.7 89.6,120.5 85.1,121.3 81.3,118.7 " />
</g>
</svg>
