<svg xmlns="http://www.w3.org/2000/svg" xmlns:xlink="http://www.w3.org/1999/xlink" version="1.1" baseProfile="full" viewBox="0 0 200 200" width="200" height="200">
<g fill="black">
<polygon points="69,51 69,111 57,111 57,45 " />
<polygon points="69,111 66.6,114.6 63,117 59.4,114.6 57,111 " />
<polygon points="69,111 68.2,122.7 66.4,133.6 63.7,143.8 60,153.2 55.4,161.8 49.8,169.5 43.2,176.3 35.8,182.2 27.5,187 18.3,190.8 17.6,189.1 25.5,183.8 32.5,178 38.6,171.7 43.7,164.9 48,157.6 51.5,149.6 54.1,141 55.9,131.7 56.8,121.7 57,111 " />
<polygon points="63,51 132,51 132,55 63,55 " />
<polygon points="138,53 138,167 126,167 126,53 " />
<polygon points="126,51 132,46 143,55 138,59 126,53 " />
<polygon points="138,167 135.6,170.6 132,173 128.4,170.6 126,167 " />
<polygon points="138,167 138,168.2 138.2,169.1 138.4,169.7 138.5,170 138.7,170.2 138.9,170.4 139.2,170.5 139.8,170.7 140.7,170.9 142,171 142,183 139.4,182.8 136.9,182.4 134.5,181.6 132.2,180.3 130.2,178.7 128.6,176.7 127.3,174.4 126.5,172 126.1,169.5 126,167 " />
<polygon points="142,171 146.2,172.8 148,177 146.2,181.2 142,183 " />
<polygon points="142,171 178,171 178,183 142,183 " />
<polygon points="178,171 181.6,173.4 184,177 181.6,180.6 178,183 " />
<polygon points="172,172 178,146 180,146 178,172 " />
<polygon points="104,16 104,55 92,55 92,14 " />
<polygon points="104,16 107,18 104,20 " />
</g>
</svg>
