<svg xmlns="http://www.w3.org/2000/svg" xmlns:xlink="http://www.w3.org/1999/xlink" version="1.1" baseProfile="full" viewBox="0 0 200 200" width="200" height="200">
<g fill="black">
<polygon points="75,105 75,128 63,128 63,99 " />
<polygon points="75,128 72.6,131.6 69,134 65.4,131.6 63,128 " />
<polygon points="74.9,128.5 73.3,137.2 70.8,145.2 67.5,152.5 63.2,159.1 58.1,164.8 52.1,169.8 45.5,173.9 38.1,177.1 29.9,179.4 21.1,180.8 20.8,179.1 28.8,175.8 35.8,172.2 42,168.3 47.4,163.9 51.8,159.1 55.5,153.8 58.4,148 60.7,141.8 62.2,134.9 63,127.4 " />
<polygon points="69,105 126,105 126,109 69,109 " />
<polygon points="132,107 132,161 120,161 120,107 " />
<polygon points="120,105 126,100 137,109 132,113 120,107 " />
<polygon points="132,161 129.6,164.6 126,167 122.4,164.6 120,161 " />
<polygon points="132,161 132,162.2 132.2,163.1 132.4,163.7 132.5,164 132.7,164.2 132.9,164.4 133.2,164.5 133.8,164.7 134.7,164.9 136,165 136,177 133.4,176.8 130.9,176.4 128.5,175.6 126.2,174.3 124.2,172.7 122.6,170.7 121.3,168.4 120.5,166 120.1,163.5 120,161 " />
<polygon points="136,165 140.2,166.8 142,171 140.2,175.2 136,177 " />
<polygon points="136,165 174,165 174,177 136,177 " />
<polygon points="174,165 177.6,167.4 180,171 177.6,174.6 174,177 " />
<polygon points="168,166 174,140 176,140 174,166 " />
<polygon points="83.2,123.6 86.9,125 90.4,126.4 93.8,128.2 96.9,130.2 99.7,132.6 102.3,135.3 104.7,138.2 106.8,141.4 108.6,144.9 110,148.6 98.4,151.5 97.9,148.5 97.2,145.7 96.3,142.9 95.2,140.2 93.8,137.6 92.1,135 90.2,132.4 87.9,129.9 85.4,127.4 82.4,125.2 " />
<polygon points="110,148.6 109.3,153.1 105.7,155.9 101.2,155.1 98.4,151.5 " />
</g>
</svg>
