<svg xmlns="http://www.w3.org/2000/svg" xmlns:xlink="http://www.w3.org/1999/xlink" version="1.1" baseProfile="full" viewBox="0 0 200 200" width="200" height="200">
<g fill="black">
<polygon points="76,32 76,106 64,106 64,26 " />
<polygon points="76,106 73.6,109.6 70,112 66.4,109.6 64,106 " />
<polygon points="76,106 75.2,117.8 73.7,128.9 71.2,139.2 67.9,148.8 63.8,157.6 58.7,165.5 52.9,172.5 46.2,178.6 38.7,183.7 30.4,187.7 29.5,186.2 36.4,180.6 42.5,174.7 47.8,168.3 52.4,161.4 56.1,153.8 59.2,145.6 61.5,136.8 63,127.2 63.9,117 64,106 " />
<polygon points="70,32 137,32 137,36 70,36 " />
<polygon points="143,34 143,169 131,169 131,34 " />
<polygon points="131,32 137,27 148,36 143,40 131,34 " />
<polygon points="143,169 140.6,172.6 137,175 133.4,172.6 131,169 " />
<polygon points="143,169 143,170.2 143.2,171.1 143.4,171.7 143.5,172 143.7,172.2 143.9,172.4 144.2,172.5 144.8,172.7 145.7,172.9 147,173 147,185 144.4,184.8 141.9,184.4 139.5,183.6 137.2,182.3 135.2,180.7 133.6,178.7 132.3,176.4 131.5,174 131.1,171.5 131,169 " />
<polygon points="147,173 151.2,174.8 153,179 151.2,183.2 147,185 " />
<polygon points="147,173 181,173 181,185 147,185 " />
<polygon points="181,173 184.6,175.4 187,179 184.6,182.6 181,185 " />
<polygon points="175,174 181,148 183,148 181,174 " />
<polygon points="47,95 104,95 104,99 47,99 " />
<polygon points="104,95 80,97 92,85 " />
</g>
</svg>
