<svg xmlns="http://www.w3.org/2000/svg" xmlns:xlink="http://www.w3.org/1999/xlink" version="1.1" baseProfile="full" viewBox="0 0 200 200" width="200" height="200">
<g fill="black">
<polygon points="103.9,20.5 101.7,23.9 99.3,27.3 96.9,30.5 94.3,33.6 91.5,36.6 88.6,39.5 85.6,42.2 82.4,44.8 79,47.2 75.6,49.6 74.3,48.3 76.8,45 79,41.6 81.1,38.3 83.2,35 85.2,31.8 87,28.5 88.7,25.2 90.3,21.9 91.8,18.5 93.1,15.2 " />
<polygon points="93.1,15.2 103.9,20.5 93.7,14.1 " />
<polygon points="103.9,20.5 105.7,23.7 98.5,24.6 " />
<polygon points="73,47 73,116 61,116 61,41 " />
<polygon points="73,116 70.6,119.6 67,122 63.4,119.6 61,116 " />
<polygon points="73,116 72.1,126.4 70.2,136.2 67.3,145.3 63.2,153.8 58.2,161.4 52.1,168.2 45,174.2 37,179.3 28.1,183.5 18.3,186.8 17.6,185.1 26.4,180.1 34.1,174.8 40.8,169.1 46.5,163.1 51.2,156.5 55,149.5 57.8,142 59.7,133.9 60.8,125.2 61,116 " />
<polygon points="67,47 131,47 131,51 67,51 " />
<polygon points="137,49 137,167 125,167 125,49 " />
<polygon points="125,47 131,42 142,51 137,55 125,49 " />
<polygon points="137,167 134.6,170.6 131,173 127.4,170.6 125,167 " />
<polygon points="137,167 137,168.2 137.2,169.1 137.4,169.7 137.5,170 137.7,170.2 137.9,170.4 138.2,170.5 138.8,170.7 139.7,170.9 141,171 141,183 138.4,182.8 135.9,182.4 133.5,181.6 131.2,180.3 129.2,178.7 127.6,176.7 126.3,174.4 125.5,172 125.1,169.5 125,167 " />
<polygon points="141,171 145.2,172.8 147,177 145.2,181.2 141,183 " />
<polygon points="141,171 182,171 182,183 141,183 " />
<polygon points="182,171 185.6,173.4 188,177 185.6,180.6 182,183 " />
<polygon points="176,172 182,146 184,146 182,172 " />
</g>
</svg>
