<svg xmlns="http://www.w3.org/2000/svg" xmlns:xlink="http://www.w3.org/1999/xlink" version="1.1" baseProfile="full" viewBox="0 0 200 200" width="200" height="200">
<g fill="black">
<polygon points="42,30 135,30 135,34 42,34 " />
<polygon points="140.9,31.8 141.2,53.8 141.1,74 140.8,92.4 140.1,109.1 139.1,124 137.8,137.1 136.2,148.6 134.2,158.3 131.9,166.4 129,173 118.5,167.3 120.6,162.4 122.6,155.5 124.4,146.6 125.9,135.7 127.2,123 128.1,108.5 128.8,92.1 129.1,73.9 129.2,53.9 129,32.1 " />
<polygon points="129,30 135,25 146,34 141,38 135,38 " />
<polygon points="129,173 125.4,175.9 120.9,175.4 118,171.8 118.5,167.3 " />
<polygon points="129,173 127.7,175.2 126.2,177.2 124.6,179 122.7,180.6 120.7,181.9 118.5,183 116.3,183.9 113.9,184.5 111.5,184.8 109,185 109,173 110.3,172.9 111.6,172.7 112.7,172.4 113.7,172.1 114.6,171.6 115.4,171 116.2,170.3 117,169.5 117.7,168.5 118.5,167.3 " />
<polygon points="109,179 109,173 89,173 89,176 " />
<polygon points="91.9,32 91.9,32 90.6,57.5 87.9,81 83.8,102.3 78.4,121.7 71.6,138.9 63.4,154 53.9,166.9 42.9,177.6 30.7,185.9 17.3,191.8 16.6,190.1 28.7,182.7 39.4,173.6 48.7,162.8 56.9,150.1 63.8,135.5 69.5,118.9 74,100.2 77.2,79.5 79.2,56.7 79.9,32 " />
<polygon points="52.8,63 53,72 52.4,80.7 51.2,89.2 49.5,97.3 47.1,105.2 44.3,112.8 40.8,120 36.9,127 32.4,133.6 27.4,139.9 18.6,131.7 23.5,126.5 28,120.9 32.2,115 35.9,108.7 39.3,102.1 42.2,95 44.9,87.6 47.2,79.8 49.2,71.5 51,62.9 " />
<polygon points="27.4,139.9 23.2,141.7 18.9,140.1 17.1,136 18.6,131.7 " />
<polygon points="153.3,70.1 158.4,74.6 163.1,79.6 167.3,85.3 171.1,91.5 174.5,98.1 177.5,105.1 180.1,112.6 182.3,120.4 184.1,128.7 185.6,137.3 173.7,138.6 172.9,130.4 171.8,122.6 170.4,115.1 168.6,108 166.6,101.2 164.2,94.7 161.6,88.6 158.6,82.6 155.4,76.9 152,71.3 " />
<polygon points="185.6,137.3 184.3,141.7 180.3,143.9 175.9,142.6 173.7,138.6 " />
</g>
</svg>
