<svg xmlns="http://www.w3.org/2000/svg" xmlns:xlink="http://www.w3.org/1999/xlink" version="1.1" baseProfile="full" viewBox="0 0 200 200" width="200" height="200">
<g fill="black">
<polygon points="41,20.4 165,20.4 165,24.4 41,24.4 " />
<polygon points="170.9,22.2 171,32.5 170.7,41.8 170.1,50.3 169.1,57.9 167.8,64.8 166.1,70.8 163.9,76.1 161.2,80.6 157.8,84.4 153.5,87.1 148.5,76.2 150,75.3 151.5,73.5 153.2,70.8 154.7,66.9 156.1,62 157.3,56.1 158.1,49.1 158.7,41.2 159,32.3 159,22.5 " />
<polygon points="159,20.4 165,15.4 176,24.4 171,27.4 159,32.4 " />
<polygon points="153.5,87.1 149,87.2 145.6,84.2 145.5,79.6 148.5,76.2 " />
<polygon points="153.5,87.1 151.5,88 149.4,88.8 147.3,89.5 145.2,90.1 143,90.6 140.8,91.1 138.6,91.4 136.4,91.6 134.2,91.8 132,91.8 132,79.8 133.7,79.8 135.4,79.7 137.1,79.5 138.8,79.2 140.4,78.9 142.1,78.5 143.7,78.1 145.3,77.5 146.9,76.9 148.5,76.2 " />
<polygon points="132,85.8 132,79.8 112,79.8 112,82.8 " />
<polygon points="99.9,22.4 99.9,22.6 98.5,34.2 95.5,45 91.1,54.7 85.2,63.4 77.9,71 69.2,77.4 59.3,82.6 48.1,86.7 35.7,89.6 22.1,91.3 21.8,89.5 34.8,85.9 46.3,81.6 56.4,76.7 64.9,71.1 72,64.8 77.8,57.8 82.2,50.1 85.3,41.7 87.3,32.4 87.9,22.4 " />
</g>
</svg>
