<svg xmlns="http://www.w3.org/2000/svg" xmlns:xlink="http://www.w3.org/1999/xlink" version="1.1" baseProfile="full" viewBox="0 0 200 200" width="200" height="200">
<g fill="black">
<polygon points="41,35 163,35 163,39 41,39 " />
<polygon points="168.9,37.1 168.2,59.2 167.1,79.4 165.8,97.7 164.1,114 162.2,128.4 159.9,140.9 157.3,151.6 154.2,160.5 150.7,167.7 146.3,173.4 138,164.7 140.4,161.5 143.1,156 145.7,148.3 148.2,138.5 150.3,126.5 152.2,112.6 153.8,96.6 155.2,78.7 156.2,58.7 157,36.8 " />
<polygon points="157,35 163,30 174,39 169,43 163,43 " />
<polygon points="146.3,173.4 142,175 137.8,173.2 136.2,168.9 138,164.7 " />
<polygon points="146.3,173.4 144.5,175 142.6,176.4 140.7,177.7 138.6,178.8 136.5,179.8 134.3,180.6 132,181.2 129.7,181.6 127.3,181.9 125,182 125,170 126.5,169.9 128,169.7 129.4,169.5 130.7,169.1 132,168.7 133.3,168.1 134.5,167.4 135.7,166.6 136.9,165.7 138,164.7 " />
<polygon points="125,176 125,170 105,170 105,173 " />
<polygon points="99.9,37 99.9,37 98.5,61.4 95.7,83.7 91.5,104.1 85.9,122.5 78.8,138.8 70.2,153 60.3,165.2 48.9,175 36.2,182.6 22.3,187.8 21.6,186.1 34.4,179.3 45.6,170.9 55.4,160.7 63.9,148.9 71.1,135.1 77.1,119.4 81.7,101.8 85.1,82.2 87.2,60.5 87.9,37 " />
<polygon points="60.2,62.4 69,74.9 78.3,86.7 88.3,97.7 99.1,107.9 110.7,117.3 123.2,125.9 136.6,133.8 150.8,140.8 166,147.1 182,152.7 177.9,165.2 161.3,158.8 145.7,151.5 131.1,143.3 117.5,134.4 104.9,124.6 93.4,114 82.9,102.5 73.6,90.3 65.4,77.2 58.6,63.3 " />
<polygon points="177.9,165.2 182,152.7 189.5,155.2 " />
<polygon points="34.6,88.9 37.7,86.4 40.7,83.7 43.7,80.9 46.7,77.9 49.6,74.8 52.5,71.6 55.4,68.3 58.3,64.8 61.2,61.3 64.2,57.5 65.7,58.4 64.2,62.9 62.5,67.4 60.6,71.6 58.5,75.8 56.2,79.7 53.8,83.6 51.2,87.3 48.5,90.9 45.7,94.3 42.8,97.6 " />
<polygon points="42.8,97.6 34.6,88.9 33.1,90.3 " />
<polygon points="42.8,97.6 46.3,98.5 45.1,91.4 " />
</g>
</svg>
