<svg xmlns="http://www.w3.org/2000/svg" xmlns:xlink="http://www.w3.org/1999/xlink" version="1.1" baseProfile="full" viewBox="0 0 200 200" width="200" height="200">
<g fill="black">
<polygon points="41,38 165,38 165,42 41,42 " />
<polygon points="170.9,39.9 171,61.8 170.6,81.8 169.9,99.9 168.9,116.1 167.4,130.4 165.6,142.8 163.4,153.4 160.7,162.3 157.4,169.5 153.3,175.1 144.8,166.6 147,163.6 149.4,158.2 151.7,150.5 153.8,140.8 155.5,129 156.9,115.1 157.9,99.3 158.6,81.5 159,61.7 159,40 " />
<polygon points="159,38 165,33 176,42 171,46 165,46 " />
<polygon points="153.3,175.1 149,176.8 144.8,175.1 143.1,170.9 144.8,166.6 " />
<polygon points="153.3,175.1 151.5,176.8 149.6,178.3 147.7,179.6 145.6,180.7 143.5,181.7 141.3,182.5 139,183.2 136.7,183.6 134.4,183.9 132,184 132,172 133.5,171.9 134.9,171.7 136.3,171.5 137.7,171.1 138.9,170.6 140.1,170.1 141.3,169.4 142.5,168.6 143.7,167.7 144.8,166.6 " />
<polygon points="132,178 132,172 112,172 112,175 " />
<polygon points="99.9,40 99.9,40 98.5,64.2 95.7,86.3 91.5,106.5 85.9,124.7 78.8,140.8 70.2,154.9 60.3,166.8 48.9,176.5 36.2,183.8 22.2,188.8 21.7,187.1 34.4,180.5 45.6,172.2 55.4,162.3 63.9,150.6 71.1,137.1 77.1,121.6 81.7,104.2 85.1,84.8 87.2,63.3 87.9,40 " />
</g>
</svg>
