<svg xmlns="http://www.w3.org/2000/svg" xmlns:xlink="http://www.w3.org/1999/xlink" version="1.1" baseProfile="full" viewBox="0 0 200 200" width="200" height="200">
<g fill="black">
<polygon points="13.3,84.1 98.3,54.1 99.6,57.8 14.6,87.8 " />
<polygon points="98.3,54.1 76.3,63.9 83.6,48.6 " />
<polygon points="49,19 49,132 37,132 37,17 " />
<polygon points="49,19 52,21 49,23 " />
<polygon points="49,132 46.6,135.6 43,138 39.4,135.6 37,132 " />
<polygon points="49,132 49,133.2 49.2,134.1 49.4,134.7 49.5,135 49.7,135.2 49.9,135.4 50.2,135.5 50.8,135.7 51.7,135.9 53,136 53,148 50.4,147.8 47.9,147.4 45.5,146.6 43.2,145.3 41.2,143.7 39.6,141.7 38.3,139.4 37.5,137 37.1,134.5 37,132 " />
<polygon points="53,136 57.2,137.8 59,142 57.2,146.2 53,148 " />
<polygon points="53,136 88,136 88,148 53,148 " />
<polygon points="88,136 91.6,138.4 94,142 91.6,145.6 88,148 " />
<polygon points="82,137 88,111 90,111 88,137 " />
<polygon points="92,32 172,32 172,36 92,36 " />
<polygon points="178,34 177.9,57.3 177.6,78.6 177.1,97.8 176.4,115 175.5,130 174.4,142.9 173.1,153.9 171.5,162.8 169.7,169.9 167.2,175.5 157,169.3 158.3,166.2 159.8,160.3 161.2,152.2 162.4,141.7 163.5,129.1 164.4,114.4 165.1,97.5 165.6,78.4 165.9,57.2 166,34 " />
<polygon points="166,32 172,27 183,36 178,40 172,40 " />
<polygon points="167.2,175.5 163.5,178.1 159,177.5 156.3,173.8 157,169.3 " />
<polygon points="167.2,175.5 165.9,177.5 164.3,179.5 162.6,181.2 160.7,182.7 158.7,184 156.5,185.1 154.2,185.9 151.9,186.5 149.4,186.8 147,187 147,175 148.4,174.9 149.6,174.7 150.8,174.4 151.8,174.1 152.8,173.6 153.7,173 154.5,172.3 155.4,171.5 156.2,170.5 157,169.3 " />
<polygon points="147,181 147,175 127,175 127,178 " />
<polygon points="135,34 134,59.5 131.6,82.9 127.8,104.1 122.7,123 116.1,139.7 108.1,154 98.6,166 87.7,175.6 75.6,182.5 62.2,186.8 61.7,185.1 73.8,179.1 84.4,171.4 93.6,161.7 101.6,150 108.3,136.2 113.8,120.3 118,102.1 120.9,81.6 122.6,58.9 123,34 " />
</g>
</svg>
