<svg xmlns="http://www.w3.org/2000/svg" xmlns:xlink="http://www.w3.org/1999/xlink" version="1.1" baseProfile="full" viewBox="0 0 200 200" width="200" height="200">
<g fill="black">
<polygon points="94,23.2 87.5,24.3 80.8,25.3 73.9,26.3 66.6,27.3 59.1,28.3 51.4,29.2 43.3,30.1 35,30.9 26.5,31.5 17.6,31.9 17.3,30.1 25.8,27.7 34.2,25.6 42.2,23.6 50.1,21.8 57.6,20 64.9,18.2 72,16.5 78.7,14.8 85.2,13.1 91.5,11.5 " />
<polygon points="90.5,11.7 94,23.2 102.3,21.5 " />
<polygon points="102.3,21.5 102.6,24.5 95.3,20.9 " />
<polygon points="16.3,39 109.2,39 109.2,43 16.3,43 " />
<polygon points="109.2,39 93.2,41 101.2,32 " />
<polygon points="35.6,55.1 35.6,99.7 23.6,105.7 23.6,49.1 " />
<polygon points="29.6,55.1 95.9,55.1 95.9,59.1 29.6,59.1 " />
<polygon points="101.9,57.1 101.9,98.7 89.9,104.7 89.9,57.1 " />
<polygon points="89.9,55.1 95.9,50.1 106.9,59.1 101.9,63.1 89.9,57.1 " />
<polygon points="29.6,73.5 95.9,73.5 95.9,77.5 29.6,77.5 " />
<polygon points="29.6,92.7 95.9,92.7 95.9,96.7 29.6,96.7 " />
<polygon points="24.1,114.9 101.5,114.9 101.5,118.9 24.1,118.9 " />
<polygon points="101.5,114.9 77.5,116.9 89.5,104.9 " />
<polygon points="68.8,26.6 68.8,136.5 56.8,136.5 56.8,24.6 " />
<polygon points="68.8,26.6 71.8,28.6 66.8,31.6 " />
<polygon points="16.7,136.1 25.2,135.5 33.9,134.8 42.9,134.1 52,133.3 61.3,132.4 70.9,131.5 80.6,130.6 90.6,129.7 100.8,129 111.3,128.3 111.5,130.1 101.4,132.7 91.4,135 81.6,137.1 71.9,139.1 62.5,140.8 53.2,142.5 44.1,144 35.2,145.5 26.5,146.8 18,148.1 " />
<polygon points="18,148.1 16.7,136.1 14.7,136.4 " />
<polygon points="18,148.1 20.3,150.9 23.6,144.5 " />
<polygon points="108.1,49.8 178.5,49.8 178.5,53.8 108.1,53.8 " />
<polygon points="184.5,51.8 184.4,65.3 184.1,77.7 183.6,89 182.9,99.2 182.1,108.3 181,116.3 179.7,123.3 178.1,129.3 176.2,134.3 173.9,138.6 164.1,131.6 165.3,129.4 166.7,125.8 167.9,120.7 169.1,114.5 170.1,107 171,98.3 171.6,88.4 172.1,77.4 172.4,65.2 172.5,51.8 " />
<polygon points="172.5,49.8 178.5,44.8 189.5,53.8 184.5,56.8 172.5,61.8 " />
<polygon points="173.9,138.6 169.9,141 165.5,140 163.1,136.1 164.1,131.6 " />
<polygon points="173.9,138.6 172.3,140.5 170.7,142.3 168.9,143.9 166.9,145.3 164.9,146.6 162.7,147.5 160.4,148.3 158,148.8 155.6,149.2 153.2,149.3 153.2,137.3 154.6,137.2 155.9,137 157.2,136.7 158.3,136.4 159.4,135.9 160.4,135.3 161.3,134.6 162.3,133.8 163.2,132.8 164.1,131.6 " />
<polygon points="153.2,143.3 153.2,137.3 133.2,137.3 133.2,140.3 " />
<polygon points="147.7,16.3 147.7,51 135.7,51 135.7,14.3 " />
<polygon points="147.7,16.3 150.7,18.3 145.7,21.3 " />
<polygon points="147.7,51 145.3,54.6 141.7,57 138.1,54.6 135.7,51 " />
<polygon points="147.7,51 146.9,66 145.1,80 142.3,92.9 138.5,104.7 133.6,115.5 127.7,125.1 120.7,133.6 112.8,140.8 104,146.7 94.2,151.2 93.4,149.6 101.8,143.5 109.3,136.8 115.7,129.3 121.3,121 125.9,111.8 129.7,101.7 132.5,90.5 134.5,78.4 135.6,65.2 135.7,51 " />
<polygon points="43.8,149.3 44.1,154.3 44.1,159.1 43.7,163.6 42.7,168 41.3,172.1 39.5,175.9 37.1,179.4 34.3,182.6 30.9,185.5 27.2,187.9 22.1,177 25,175.9 27.6,174.5 30,172.8 32.3,170.7 34.4,168.2 36.3,165.3 38.1,162 39.6,158.2 41,154 42,149.2 " />
<polygon points="27.2,187.9 22.6,188.1 19.2,185 19.1,180.4 22.1,177 " />
<polygon points="70.3,150 73.2,152.5 76.1,154.9 78.6,157.5 80.8,160.2 82.7,163.1 84.3,166.2 85.6,169.4 86.5,172.7 87.1,176.2 87.2,179.7 75.3,178.4 75.9,176.1 76.2,173.7 76.3,171.2 76.1,168.7 75.7,166 75,163.3 74,160.4 72.7,157.4 71.1,154.3 69,151.3 " />
<polygon points="87.2,179.7 85,183.7 80.6,185 76.6,182.8 75.3,178.4 " />
<polygon points="108.3,149.8 112.1,152.2 115.9,154.5 119.2,156.9 122.3,159.6 125,162.3 127.4,165.2 129.5,168.3 131.2,171.5 132.6,174.9 133.6,178.4 121.7,179.7 121.6,177.4 121.3,174.9 120.8,172.3 119.9,169.6 118.6,166.8 117,163.9 115.1,160.8 112.9,157.7 110.3,154.4 107.2,151.3 " />
<polygon points="133.6,178.4 132.3,182.8 128.3,185 123.9,183.7 121.7,179.7 " />
<polygon points="148.3,148.9 153.2,151.4 157.8,154 162.1,156.7 165.9,159.5 169.4,162.5 172.6,165.6 175.4,168.7 177.9,172 180,175.5 181.7,179 170.3,182.7 169.7,180 168.6,177.2 167.3,174.2 165.5,171.1 163.4,167.9 160.9,164.6 158,161.3 154.8,157.8 151.3,154.1 147.3,150.4 " />
<polygon points="181.7,179 181.3,183.6 177.9,186.6 173.3,186.2 170.3,182.7 " />
</g>
</svg>
