<svg xmlns="http://www.w3.org/2000/svg" xmlns:xlink="http://www.w3.org/1999/xlink" version="1.1" baseProfile="full" viewBox="0 0 200 200" width="200" height="200">
<g fill="black">
<polygon points="34.7,61.3 34.7,101.7 22.7,107.7 22.7,55.3 " />
<polygon points="28.7,61.3 93.9,61.3 93.9,65.3 28.7,65.3 " />
<polygon points="99.9,63.3 99.9,100.7 87.9,106.7 87.9,63.3 " />
<polygon points="87.9,61.3 93.9,56.3 104.9,65.3 99.9,69.3 87.9,63.3 " />
<polygon points="28.7,94.7 93.9,94.7 93.9,98.7 28.7,98.7 " />
<polygon points="34.2,68.3 36.5,69.6 39,70.6 41.4,71.8 43.6,73.2 45.6,74.7 47.5,76.3 49.3,78.2 50.9,80.1 52.3,82.2 53.5,84.5 42,87.9 41.9,86.2 41.7,84.6 41.3,82.9 40.7,81.1 40,79.3 39.1,77.4 38,75.5 36.7,73.5 35.2,71.5 33.2,69.8 " />
<polygon points="53.5,84.5 53,89 49.4,91.9 44.9,91.4 42,87.9 " />
<polygon points="91.3,71.9 89.7,74 87.9,76.1 86.2,78.2 84.3,80.3 82.3,82.4 80.3,84.5 78.2,86.5 76,88.5 73.6,90.4 71.5,92.6 70.1,91.5 71.6,88.9 72.7,86.1 73.9,83.4 75,80.8 76.1,78.2 77.1,75.7 78.1,73.3 79.1,70.9 79.9,68.5 80.8,66.2 " />
<polygon points="81.3,65.2 91.3,71.9 80.3,67 " />
<polygon points="91.3,71.9 93,75.1 87.2,75.3 " />
<polygon points="94.7,23.6 87.5,24.9 80.1,26.1 72.7,27.1 65.2,28 57.5,28.8 49.8,29.4 42,29.8 34,29.9 26,29.8 17.9,29.3 17.8,27.5 25.7,26 33.6,24.6 41.3,23.2 48.9,21.8 56.3,20.4 63.7,18.9 70.9,17.3 78,15.6 85,13.8 91.9,11.9 " />
<polygon points="102.5,21.7 94.7,23.6 90.9,12.1 " />
<polygon points="102.5,21.7 102.8,24.7 95.6,21.3 " />
<polygon points="14.8,44.9 105.5,44.9 105.5,48.9 14.8,48.9 " />
<polygon points="105.5,44.9 81.5,46.9 93.5,34.9 " />
<polygon points="20.7,114 104.2,114 104.2,118 20.7,118 " />
<polygon points="104.2,114 80.2,116 92.2,104 " />
<polygon points="67.1,25.4 67.1,137.5 55.1,137.5 55.1,25.4 " />
<polygon points="17.6,138.2 25.8,137.1 34.1,136 42.6,134.9 51.1,133.9 59.7,132.9 68.4,131.9 77.3,131 86.2,130.2 95.2,129.5 104.4,129.1 104.7,130.8 95.8,133.2 87,135.4 78.3,137.5 69.7,139.4 61.1,141.2 52.6,143.1 44.2,144.8 35.9,146.6 27.7,148.3 19.6,150 " />
<polygon points="15.6,138.5 17.6,138.2 19.6,150 " />
<polygon points="25,146 22.1,152.6 19.6,150 " />
<polygon points="105.6,48.3 176.3,48.3 176.3,52.3 105.6,52.3 " />
<polygon points="182.3,50.3 182.2,63.7 181.9,76.1 181.5,87.3 180.8,97.4 179.9,106.4 178.8,114.4 177.5,121.3 176,127.3 174.1,132.3 171.7,136.5 161.9,129.5 163.1,127.3 164.5,123.7 165.8,118.7 167,112.5 168,105.1 168.8,96.4 169.5,86.6 169.9,75.7 170.2,63.6 170.3,50.3 " />
<polygon points="170.3,48.3 176.3,43.3 187.3,52.3 182.3,55.3 170.3,60.3 " />
<polygon points="171.7,136.5 167.7,138.9 163.3,137.9 160.9,134 161.9,129.5 " />
<polygon points="171.7,136.5 170.1,138.5 168.5,140.3 166.7,141.9 164.7,143.3 162.6,144.5 160.5,145.4 158.2,146.2 155.8,146.7 153.4,147 151,147.2 151,135.2 152.4,135.1 153.7,134.9 155,134.6 156.1,134.3 157.2,133.8 158.2,133.2 159.2,132.5 160.1,131.7 161,130.7 161.9,129.5 " />
<polygon points="131,138.2 131,135.2 151,135.2 151,141.2 " />
<polygon points="145.4,15 145.4,49.5 133.4,49.5 133.4,13 " />
<polygon points="145.4,15 148.4,17 143.4,20 " />
<polygon points="145.4,49.5 143,53.1 139.4,55.5 135.8,53.1 133.4,49.5 " />
<polygon points="145.4,49.5 144.6,64.4 142.8,78.3 140,91.1 136.1,102.9 131.2,113.6 125.3,123.2 118.3,131.6 110.4,138.7 101.5,144.6 91.6,149.1 90.9,147.5 99.4,141.4 106.8,134.7 113.3,127.3 118.9,119 123.6,109.9 127.3,99.8 130.2,88.7 132.2,76.7 133.3,63.6 133.4,49.5 " />
<polygon points="43.8,149.3 44.1,154.3 44.1,159.1 43.7,163.6 42.7,168 41.3,172.1 39.5,175.9 37.1,179.4 34.3,182.6 30.9,185.5 27.2,187.9 22.1,177 25,175.9 27.6,174.5 30,172.8 32.3,170.7 34.4,168.2 36.3,165.3 38.1,162 39.6,158.2 41,154 42,149.2 " />
<polygon points="27.2,187.9 22.6,188.1 19.2,185 19.1,180.4 22.1,177 " />
<polygon points="70.3,150 73.2,152.5 76.1,154.9 78.6,157.5 80.8,160.2 82.7,163.1 84.3,166.2 85.6,169.4 86.5,172.7 87.1,176.2 87.2,179.7 75.3,178.4 75.9,176.1 76.2,173.7 76.3,171.2 76.1,168.7 75.7,166 75,163.3 74,160.4 72.7,157.4 71.1,154.3 69,151.3 " />
<polygon points="87.2,179.7 85,183.7 80.6,185 76.6,182.8 75.3,178.4 " />
<polygon points="108.3,149.8 112.1,152.2 115.9,154.5 119.2,156.9 122.3,159.6 125,162.3 127.4,165.2 129.5,168.3 131.2,171.5 132.6,174.9 133.6,178.4 121.7,179.7 121.6,177.4 121.3,174.9 120.8,172.3 119.9,169.6 118.6,166.8 117,163.9 115.1,160.8 112.9,157.7 110.3,154.4 107.2,151.3 " />
<polygon points="133.6,178.4 132.3,182.8 128.3,185 123.9,183.7 121.7,179.7 " />
<polygon points="148.3,148.9 153.2,151.4 157.8,154 162.1,156.7 165.9,159.5 169.4,162.5 172.6,165.6 175.4,168.7 177.9,172 180,175.5 181.7,179 170.3,182.7 169.7,180 168.6,177.2 167.3,174.2 165.5,171.1 163.4,167.9 160.9,164.6 158,161.3 154.8,157.8 151.3,154.1 147.3,150.4 " />
<polygon points="181.7,179 181.3,183.6 177.9,186.6 173.3,186.2 170.3,182.7 " />
</g>
</svg>
