<svg xmlns="http://www.w3.org/2000/svg" xmlns:xlink="http://www.w3.org/1999/xlink" version="1.1" baseProfile="full" viewBox="0 0 200 200" width="200" height="200">
<g fill="black">
<polygon points="68.3,19.1 65.6,29.6 62.5,39.8 58.9,49.8 54.8,59.5 50.2,69 45.2,78.2 39.7,87 33.6,95.6 27,103.8 19.9,111.5 18.4,110.4 24,101.5 29.2,92.6 34,83.7 38.5,74.6 42.5,65.4 46.2,56 49.4,46.5 52.2,36.8 54.6,26.9 56.5,16.8 " />
<polygon points="56.5,16.8 68.3,19.1 56.9,14.9 " />
<polygon points="68.3,19.1 70.8,21.7 64.2,24.4 " />
<polygon points="53.1,46 171.8,46 171.8,50 53.1,50 " />
<polygon points="177.8,48 177.6,67.8 177.2,86.2 176.4,102.9 175.3,118 173.9,131.6 172.1,143.7 170,154.2 167.5,163.2 164.7,170.8 161.2,177.1 151.3,170.3 153.7,165.9 156.1,159.6 158.3,151.5 160.3,141.7 161.9,130.1 163.3,117 164.4,102.2 165.2,85.7 165.6,67.6 165.8,48 " />
<polygon points="165.8,46 171.8,41 182.8,50 177.8,54 171.8,54 " />
<polygon points="161.2,177.1 157.3,179.5 152.8,178.6 150.4,174.8 151.3,170.3 " />
<polygon points="161.2,177.1 159.7,179.1 158.1,180.9 156.3,182.5 154.4,184 152.3,185.2 150.1,186.2 147.8,187 145.5,187.5 143.1,187.8 140.6,188 140.6,176 142,175.9 143.3,175.7 144.6,175.4 145.7,175.1 146.7,174.6 147.7,174 148.6,173.3 149.5,172.5 150.4,171.5 151.3,170.3 " />
<polygon points="140.6,182 140.6,176 120.6,176 120.6,179 " />
<polygon points="47.3,136.4 144.8,136.4 144.8,140.4 47.3,140.4 " />
<polygon points="144.8,136.4 120.8,138.4 132.8,126.4 " />
<polygon points="55,87.5 134.7,87.5 134.7,91.5 55,91.5 " />
<polygon points="134.7,87.5 110.7,89.5 122.7,77.5 " />
</g>
</svg>
