<svg xmlns="http://www.w3.org/2000/svg" xmlns:xlink="http://www.w3.org/1999/xlink" version="1.1" baseProfile="full" viewBox="0 0 200 200" width="200" height="200">
<g fill="black">
<polygon points="101.3,28 94,29.3 86.4,30.4 78.7,31.4 70.7,32.2 62.5,33 54.1,33.6 45.4,34 36.5,34.2 27.4,34.2 18,33.8 17.9,32.1 27.1,30.4 36,28.9 44.7,27.5 53.2,26 61.4,24.5 69.4,23 77.1,21.5 84.5,19.8 91.7,18.1 98.7,16.3 " />
<polygon points="97.7,16.5 101.3,28 109.4,26.2 " />
<polygon points="109.4,26.2 109.7,29.2 102.5,25.7 " />
<polygon points="14,49 115,49 115,53 14,53 " />
<polygon points="115,49 95,51 105,40 " />
<polygon points="36,66 36,106 24,112 24,60 " />
<polygon points="30,66 101,66 101,70 30,70 " />
<polygon points="107,68 107,105 95,111 95,68 " />
<polygon points="95,66 101,61 112,70 107,74 95,68 " />
<polygon points="30,99 101,99 101,103 30,103 " />
<polygon points="20,119 112,119 112,123 20,123 " />
<polygon points="112,119 88,121 100,109 " />
<polygon points="71,30 71,142 59,142 59,30 " />
<polygon points="18.1,141.9 27,141 36,140.1 45.1,139.2 54.3,138.3 63.6,137.5 73,136.6 82.5,135.8 92.2,135 101.9,134.5 111.8,134.1 112.1,135.8 102.5,138.2 92.9,140.4 83.5,142.3 74.1,144.1 64.8,145.9 55.6,147.5 46.5,149.2 37.5,150.7 28.6,152.3 19.7,153.8 " />
<polygon points="19.7,153.8 18.1,141.9 16.2,142.1 " />
<polygon points="19.7,153.8 22.1,156.5 25.3,150 " />
<polygon points="34.9,155.9 35.4,159.7 35.9,163.3 36.1,166.9 35.9,170.3 35.3,173.6 34.4,176.9 33.1,179.9 31.4,182.9 29.3,185.6 26.9,188.1 19.9,178.3 21.8,177.3 23.6,176.1 25.3,174.6 26.9,172.9 28.3,170.9 29.6,168.6 30.8,165.9 31.8,162.9 32.8,159.6 33.1,156 " />
<polygon points="26.9,188.1 22.4,189.1 18.5,186.7 17.5,182.2 19.9,178.3 " />
<polygon points="49.2,154.4 51.1,157.2 53.2,159.9 55,162.5 56.5,165.2 57.8,167.8 58.9,170.5 59.7,173.2 60.3,175.9 60.5,178.6 60.5,181.4 48.8,178.7 49.4,177.3 50,175.7 50.4,173.9 50.6,171.8 50.6,169.6 50.5,167.1 50.1,164.4 49.6,161.5 48.9,158.3 47.7,155.3 " />
<polygon points="60.5,181.4 57.8,185.1 53.3,185.9 49.6,183.2 48.8,178.7 " />
<polygon points="69.3,151.1 71.6,153.2 74,155 76.3,157 78.3,159.1 80.2,161.4 82,163.7 83.6,166.1 85,168.6 86.2,171.2 87.2,173.8 75.5,176.2 75.4,174 75.2,171.9 74.9,169.6 74.4,167.3 73.7,164.9 72.9,162.5 72,160 70.9,157.4 69.7,154.7 68,152.3 " />
<polygon points="87.2,173.8 86.3,178.3 82.5,180.9 78.1,180 75.5,176.2 " />
<polygon points="91.3,145.9 93.7,147.6 96.3,149.1 98.8,150.7 101,152.5 103.2,154.5 105.2,156.6 107,158.8 108.7,161.2 110.3,163.6 111.7,166.2 100.3,170 99.9,167.8 99.4,165.6 98.8,163.3 98,161.1 97.1,158.8 96.1,156.5 94.9,154.2 93.5,151.8 92.1,149.4 90.1,147.3 " />
<polygon points="111.7,166.2 111.3,170.8 107.9,173.8 103.3,173.4 100.3,170 " />
<polygon points="40.3,73.9 42,75.3 44.1,76.4 46,77.5 47.7,78.8 49.4,80.1 50.9,81.6 52.4,83.2 53.7,84.8 54.9,86.6 55.9,88.5 44.4,91.6 44.4,90.3 44.4,88.8 44.2,87.4 43.9,85.8 43.5,84.1 42.9,82.4 42.3,80.7 41.5,78.8 40.5,76.9 39.1,75.3 " />
<polygon points="55.9,88.5 55.3,93 51.7,95.8 47.2,95.2 44.4,91.6 " />
<polygon points="91.1,78.1 89.9,79.9 88.7,81.7 87.3,83.6 85.9,85.4 84.4,87.3 82.8,89.3 81.1,91.2 79.3,93.2 77.3,95.2 75.7,97.4 74.2,96.5 75.3,94 75.9,91.3 76.6,88.8 77.2,86.4 77.8,84 78.4,81.8 78.9,79.6 79.3,77.5 79.7,75.6 80,73.7 " />
<polygon points="79.6,74.6 91.1,78.1 80.5,72.3 " />
<polygon points="91.1,78.1 93.2,81.1 87.4,82 " />
<polygon points="112.7,61.6 178.2,61.6 178.2,65.6 112.7,65.6 " />
<polygon points="184.2,63.6 184.1,80.7 183.8,96.5 183.3,110.8 182.6,123.8 181.8,135.4 180.7,145.6 179.4,154.5 177.9,162.1 176.1,168.4 173.9,173.7 163.3,168.1 164.7,164.6 166.2,159.3 167.6,152.5 168.8,144.1 169.8,134.3 170.7,123 171.3,110.3 171.8,96.2 172.1,80.6 172.2,63.6 " />
<polygon points="172.2,61.6 178.2,56.6 189.2,65.6 184.2,68.6 172.2,73.6 " />
<polygon points="173.9,173.7 170.4,176.6 165.8,176.2 162.9,172.7 163.3,168.1 " />
<polygon points="173.9,173.7 172.6,175.8 171.2,177.8 169.5,179.7 167.7,181.3 165.7,182.7 163.6,183.8 161.3,184.7 158.9,185.3 156.5,185.6 154,185.8 154,173.8 155.3,173.7 156.6,173.5 157.7,173.2 158.6,172.9 159.5,172.4 160.3,171.8 161.1,171.2 161.8,170.3 162.6,169.3 163.3,168.1 " />
<polygon points="154,179.8 154,173.8 134,173.8 134,176.8 " />
<polygon points="150,18.1 150,62.6 138,62.6 138,16.1 " />
<polygon points="150,18.1 153,20.1 148,23.1 " />
<polygon points="150,62.6 147.6,66.2 144,68.6 140.4,66.2 138,62.6 " />
<polygon points="150,62.6 149.2,81.4 147.5,98.9 144.9,115.1 141.4,130 136.8,143.5 131.4,155.7 124.9,166.5 117.5,175.8 109.1,183.5 99.9,189.6 98.8,188.1 106.6,180.7 113.4,172.4 119.3,163 124.5,152.5 128.8,140.7 132.4,127.7 135,113.4 136.9,97.8 137.9,80.8 138,62.6 " />
</g>
</svg>
