<svg xmlns="http://www.w3.org/2000/svg" xmlns:xlink="http://www.w3.org/1999/xlink" version="1.1" baseProfile="full" viewBox="0 0 200 200" width="200" height="200">
<g fill="black">
<polygon points="67.2,20.8 64.5,31.1 61.3,41.1 57.7,50.9 53.5,60.4 48.9,69.7 43.8,78.7 38.2,87.4 32.1,95.7 25.4,103.7 18.1,111.3 16.8,110.2 22.4,101.4 27.6,92.7 32.6,83.9 37.1,75 41.3,66 45,56.8 48.2,47.5 51.1,38 53.5,28.3 55.4,18.4 " />
<polygon points="55.4,18.4 67.2,20.8 55.8,16.5 " />
<polygon points="67.2,20.8 69.7,23.4 63,26.1 " />
<polygon points="51.9,47 172.3,47 172.3,51 51.9,51 " />
<polygon points="178.3,49 178.1,68.5 177.6,86.4 176.8,102.8 175.7,117.7 174.3,131 172.5,142.8 170.4,153.1 167.9,162 164.9,169.5 161.4,175.6 151.6,168.7 154.1,164.4 156.5,158.2 158.7,150.3 160.7,140.7 162.4,129.5 163.8,116.6 164.8,102.1 165.6,86 166.1,68.3 166.3,49 " />
<polygon points="166.3,47 172.3,42 183.3,51 178.3,55 172.3,55 " />
<polygon points="161.4,175.6 157.5,178 153.1,177 150.7,173.1 151.6,168.7 " />
<polygon points="161.4,175.6 159.9,177.6 158.3,179.4 156.5,181 154.5,182.4 152.5,183.6 150.3,184.6 148,185.4 145.6,185.9 143.2,186.2 140.8,186.3 140.8,174.3 142.2,174.3 143.5,174.1 144.7,173.8 145.9,173.4 146.9,172.9 147.9,172.4 148.9,171.7 149.8,170.8 150.7,169.8 151.6,168.7 " />
<polygon points="140.8,180.3 140.8,174.3 120.8,174.3 120.8,177.3 " />
<polygon points="55,88 138,88 138,92 55,92 " />
<polygon points="138,88 114,90 126,78 " />
<polygon points="45.7,139.9 56.1,138 66.3,136 76.5,133.9 86.6,131.8 96.6,129.6 106.5,127.3 116.4,124.9 126.2,122.6 135.9,120.3 145.7,118.1 146.2,119.8 137.1,123.9 127.7,127.7 118.2,131.2 108.6,134.6 98.8,137.7 88.9,140.8 78.9,143.7 68.7,146.4 58.5,149.1 48.1,151.6 " />
<polygon points="48.1,151.6 45.7,139.9 43.8,140.3 " />
<polygon points="48.1,151.6 50.7,154.2 53.4,147.5 " />
</g>
</svg>
