<svg xmlns="http://www.w3.org/2000/svg" xmlns:xlink="http://www.w3.org/1999/xlink" version="1.1" baseProfile="full" viewBox="0 0 200 200" width="200" height="200">
<g fill="black">
<polygon points="41,77 148,77 148,81 41,81 " />
<polygon points="148,77 124,79 136,67 " />
<polygon points="47,20 47,164 35,164 35,18 " />
<polygon points="47,20 50,22 47,24 " />
<polygon points="47,164 44.6,167.6 41,170 37.4,167.6 35,164 " />
<polygon points="47,164 47,165.2 47.2,166.1 47.4,166.7 47.5,167 47.7,167.2 47.9,167.4 48.2,167.5 48.8,167.7 49.7,167.9 51,168 51,180 48.4,179.8 45.9,179.4 43.5,178.6 41.2,177.3 39.2,175.7 37.6,173.7 36.3,171.4 35.5,169 35.1,166.5 35,164 " />
<polygon points="51,168 55.2,169.8 57,174 55.2,178.2 51,180 " />
<polygon points="51,168 163,168 163,180 51,180 " />
<polygon points="163,168 166.6,170.4 169,174 166.6,177.6 163,180 " />
<polygon points="157,169 163,143 165,143 163,169 " />
</g>
</svg>
