<svg xmlns="http://www.w3.org/2000/svg" xmlns:xlink="http://www.w3.org/1999/xlink" version="1.1" baseProfile="full" viewBox="0 0 200 200" width="200" height="200">
<g fill="black">
<polygon points="155.8,69.8 145,74.7 134.2,79.3 123.4,83.6 112.4,87.5 101.4,91.1 90.3,94.3 79.1,97.1 67.9,99.5 56.5,101.4 45.1,102.8 44.8,101.1 55.7,97.7 66.5,94.3 77.3,90.8 88,87 98.6,83.1 109.1,78.8 119.5,74.3 129.9,69.5 140.2,64.4 150.3,59.1 " />
<polygon points="150.3,59.1 155.8,69.8 158.6,68.3 " />
<polygon points="158.6,68.3 158.8,71.6 151.4,68.6 " />
<polygon points="51,26 51,166 39,166 39,24 " />
<polygon points="51,26 54,28 51,30 " />
<polygon points="51,166 48.6,169.6 45,172 41.4,169.6 39,166 " />
<polygon points="51,166 51,167.2 51.2,168.1 51.4,168.7 51.5,169 51.7,169.2 51.9,169.4 52.2,169.5 52.8,169.7 53.7,169.9 55,170 55,182 52.4,181.8 49.9,181.4 47.5,180.6 45.2,179.3 43.2,177.7 41.6,175.7 40.3,173.4 39.5,171 39.1,168.5 39,166 " />
<polygon points="55,170 59.2,171.8 61,176 59.2,180.2 55,182 " />
<polygon points="55,170 158,170 158,182 55,182 " />
<polygon points="158,170 161.6,172.4 164,176 161.6,179.6 158,182 " />
<polygon points="152,171 158,145 160,145 158,171 " />
</g>
</svg>
