<svg xmlns="http://www.w3.org/2000/svg" xmlns:xlink="http://www.w3.org/1999/xlink" version="1.1" baseProfile="full" viewBox="0 0 200 200" width="200" height="200">
<g fill="black">
<polygon points="107.4,31.9 100.5,34.3 93.3,36.8 85.7,39.1 77.8,41.4 69.5,43.6 60.8,45.7 51.7,47.8 42.3,49.7 32.4,51.4 22.2,52.8 21.7,51.1 31.5,47.7 40.9,44.5 50,41.4 58.7,38.4 67,35.5 74.9,32.6 82.4,29.6 89.6,26.7 96.3,23.8 102.7,20.8 " />
<polygon points="111.6,30.1 107.4,31.9 101.8,21.2 " />
<polygon points="111.6,30.1 111.8,33.2 105.4,30.5 " />
<polygon points="76,46 76,101 64,101 64,44 " />
<polygon points="76,46 79,48 74,51 " />
<polygon points="76,101 73.6,104.6 70,107 66.4,104.6 64,101 " />
<polygon points="76,101 75.1,112.1 73.2,122.7 70.2,132.7 66.2,142.2 61.1,151.1 55,159.4 47.8,167 39.7,174 30.6,180.2 20.4,185.7 19.5,184.2 28.3,177.2 36.2,170 43.1,162.5 48.9,154.8 53.8,146.8 57.7,138.4 60.7,129.7 62.7,120.5 63.8,111 64,101 " />
<polygon points="19,91 183,91 183,95 19,95 " />
<polygon points="183,91 159,93 171,81 " />
<polygon points="136,20 136,179 124,185 124,18 " />
<polygon points="136,20 139,22 134,25 " />
<polygon points="148,29.3 151.8,31.8 155.4,34.4 158.8,37.5 161.8,40.8 164.6,44.3 167.2,48.1 169.5,52.2 171.5,56.5 173.2,60.9 174.7,65.6 162.9,68 162.3,63.9 161.4,59.9 160.4,56 159.1,52.1 157.6,48.4 155.9,44.8 153.9,41.2 151.8,37.7 149.5,34.1 146.8,30.7 " />
<polygon points="174.7,65.6 173.8,70.1 170,72.7 165.6,71.8 162.9,68 " />
</g>
</svg>
