<svg xmlns="http://www.w3.org/2000/svg" xmlns:xlink="http://www.w3.org/1999/xlink" version="1.1" baseProfile="full" viewBox="0 0 200 200" width="200" height="200">
<g fill="black">
<polygon points="49.2,36.9 47.2,41.3 44.9,45.7 42.2,50.1 39.4,54.6 36.2,59 32.7,63.4 29,67.8 24.9,72.1 20.5,76.4 15.6,80.5 14.3,79.4 17.6,74 20.7,68.8 23.7,63.9 26.5,59.1 29,54.4 31.3,49.9 33.4,45.4 35.2,41.1 36.7,36.9 38,32.8 " />
<polygon points="38,32.8 49.2,36.9 38.5,31.4 " />
<polygon points="49.2,36.9 51.4,39.8 44.4,41.6 " />
<polygon points="79.3,30.9 82.7,33 86,35.1 89.2,37.4 92.2,39.9 95,42.5 97.6,45.3 100,48.2 102.3,51.3 104.4,54.5 106.3,57.9 95.3,62.5 94.3,59.4 93.1,56.4 91.8,53.3 90.4,50.3 88.7,47.3 87,44.3 85,41.3 82.9,38.3 80.7,35.2 78.2,32.3 " />
<polygon points="106.3,57.9 106.3,62.4 103.1,65.7 98.5,65.7 95.3,62.5 " />
<polygon points="27,83 100,83 100,87 27,87 " />
<polygon points="100,83 76,85 88,73 " />
<polygon points="19.5,127.9 26.9,126.4 34.5,124.8 42.3,123.2 50.3,121.5 58.6,119.8 67.1,118 75.9,116.2 84.9,114.4 94.2,112.7 103.7,111.1 104.2,112.8 95.2,116.3 86.3,119.6 77.6,122.5 69.1,125.3 60.8,128 52.7,130.5 44.8,132.9 37.1,135.2 29.6,137.4 22.3,139.5 " />
<polygon points="22.3,139.5 19.5,127.9 17.6,128.4 " />
<polygon points="22.3,139.5 25,142 27.5,135.2 " />
<polygon points="70,19 70,103 58,103 58,17 " />
<polygon points="70,19 73,21 70,23 " />
<polygon points="70,103 67.6,106.6 64,109 60.4,106.6 58,103 " />
<polygon points="69.9,102.8 69.4,114.7 68.1,126 65.9,136.5 62.9,146.4 59.1,155.6 54.4,164.1 48.9,171.8 42.6,178.7 35.4,184.7 27.5,189.7 26.4,188.2 32.9,181.8 38.6,175.1 43.6,168 47.8,160.4 51.3,152.3 54.1,143.6 56.1,134.4 57.5,124.6 58.1,114.1 58,103.1 " />
</g>
</svg>
