<svg xmlns="http://www.w3.org/2000/svg" xmlns:xlink="http://www.w3.org/1999/xlink" version="1.1" baseProfile="full" viewBox="0 0 200 200" width="200" height="200">
<g fill="black">
<polygon points="22,31 138,31 138,35 22,35 " />
<polygon points="143.9,33.2 143.5,60.5 143.9,85 145.4,106.6 147.9,125.2 151.2,140.9 155.5,153.5 160.5,163.1 166,169.6 171.8,173.4 178.3,175 177.6,186.9 167.1,184.4 157.9,178.5 150.4,169.7 144.4,158.1 139.7,144 136,127.2 133.5,107.8 132,85.5 131.5,60.5 132,32.7 " />
<polygon points="132,31 138,26 149,35 144,39 138,39 " />
<polygon points="178.3,175 182.4,177 183.9,181.3 181.9,185.4 177.6,186.9 " />
<polygon points="178.3,176 182,150.2 180,150 172.3,175.6 " />
<polygon points="22,101 126,101 126,105 22,105 " />
<polygon points="126,101 102,103 114,91 " />
<polygon points="76,47 76,183 64,189 64,45 " />
<polygon points="76,47 79,49 76,51 " />
</g>
</svg>
