<svg xmlns="http://www.w3.org/2000/svg" xmlns:xlink="http://www.w3.org/1999/xlink" version="1.1" baseProfile="full" viewBox="0 0 200 200" width="200" height="200">
<g fill="black">
<polygon points="94,24.3 92.1,27.8 90,31.4 87.8,35.1 85.4,38.9 82.8,42.9 80,47 77.1,51.2 73.9,55.6 70.4,60 66.7,64.4 65.2,63.5 67.3,58.1 69.4,53 71.5,48.1 73.5,43.4 75.4,38.9 77.2,34.7 78.9,30.6 80.4,26.7 81.8,23 83.1,19.4 " />
<polygon points="83.1,19.4 94,24.3 83.6,18.2 " />
<polygon points="94,24.3 96,27.3 88.8,28.6 " />
<polygon points="16.3,22 19.6,24.3 22.9,26.7 25.9,29.5 28.7,32.6 31.4,35.9 33.8,39.4 36.1,43.1 38.2,47 40.1,51.1 41.9,55.4 30.3,58.8 29.5,54.8 28.4,50.9 27.2,47.1 25.9,43.5 24.5,39.9 22.9,36.5 21.1,33.1 19.3,29.8 17.3,26.5 15.1,23.3 " />
<polygon points="41.9,55.4 41.3,59.9 37.8,62.8 33.3,62.3 30.3,58.8 " />
<polygon points="16,76 94,76 94,80 16,80 " />
<polygon points="94,76 70,78 82,66 " />
<polygon points="12,120 101,120 101,124 12,124 " />
<polygon points="101,120 77,122 89,110 " />
<polygon points="60,14 60,182 48,188 48,12 " />
<polygon points="60,14 63,16 60,18 " />
</g>
</svg>
