<svg xmlns="http://www.w3.org/2000/svg" xmlns:xlink="http://www.w3.org/1999/xlink" version="1.1" baseProfile="full" viewBox="0 0 200 200" width="200" height="200">
<g fill="black">
<polygon points="107.4,31.9 100.5,34.3 93.3,36.8 85.7,39.1 77.8,41.4 69.5,43.6 60.8,45.7 51.7,47.8 42.3,49.7 32.4,51.4 22.2,52.8 21.7,51.1 31.5,47.7 40.9,44.5 50,41.4 58.7,38.4 67,35.5 74.9,32.6 82.4,29.6 89.6,26.7 96.3,23.8 102.7,20.8 " />
<polygon points="111.6,30.1 107.4,31.9 101.8,21.2 " />
<polygon points="111.6,30.1 111.8,33.2 105.4,30.5 " />
<polygon points="76,46 76,101 64,101 64,44 " />
<polygon points="76,46 79,48 74,51 " />
<polygon points="76,101 73.6,104.6 70,107 66.4,104.6 64,101 " />
<polygon points="76,101 75.1,112.1 73.2,122.7 70.2,132.7 66.2,142.2 61.1,151.1 55,159.4 47.8,167 39.7,174 30.6,180.2 20.4,185.7 19.5,184.2 28.3,177.2 36.2,170 43.1,162.5 48.9,154.8 53.8,146.8 57.7,138.4 60.7,129.7 62.7,120.5 63.8,111 64,101 " />
<polygon points="19,91 183,91 183,95 19,95 " />
<polygon points="183,91 159,93 171,81 " />
<polygon points="136,20 136,179 124,185 124,18 " />
<polygon points="136,20 139,22 134,25 " />
<polygon points="147,109.3 150.8,111.8 154.4,114.4 157.8,117.5 160.8,120.8 163.6,124.3 166.2,128.1 168.5,132.2 170.5,136.5 172.2,140.9 173.7,145.6 161.9,148 161.3,143.9 160.4,139.9 159.4,136 158.1,132.1 156.6,128.4 154.9,124.8 152.9,121.2 150.8,117.7 148.5,114.1 145.8,110.7 " />
<polygon points="173.7,145.6 172.8,150.1 169,152.7 164.6,151.8 161.9,148 " />
</g>
</svg>
