<svg xmlns="http://www.w3.org/2000/svg" xmlns:xlink="http://www.w3.org/1999/xlink" version="1.1" baseProfile="full" viewBox="0 0 200 200" width="200" height="200">
<g fill="black">
<polygon points="21.3,31.1 24.7,33.9 28.1,36.9 31.2,40.1 34.1,43.5 36.9,47.1 39.5,50.8 42,54.7 44.3,58.7 46.5,62.8 48.5,67 37.3,71.2 36,67.1 34.6,63.1 33.1,59.1 31.5,55.2 29.8,51.3 28,47.5 26.1,43.7 24.1,39.9 22.1,36.1 19.9,32.3 " />
<polygon points="48.5,67 48.3,71.6 45,74.8 40.4,74.5 37.3,71.2 " />
<polygon points="111.6,33.8 109.2,37.4 106.6,41.1 103.8,44.9 100.9,48.9 97.9,52.9 94.7,57.1 91.3,61.4 87.7,65.7 83.9,70.1 79.7,74.5 78.2,73.4 80.7,68 83.3,62.7 85.8,57.8 88.3,53 90.7,48.4 93.1,44 95.3,39.7 97.4,35.6 99.4,31.6 101.3,27.8 " />
<polygon points="101.3,27.8 111.6,33.8 101.8,26.9 " />
<polygon points="111.6,33.8 113.2,37.1 106,37.5 " />
<polygon points="14,82 115,82 115,86 14,86 " />
<polygon points="115,82 91,84 103,72 " />
<polygon points="19.5,127.9 26.9,126.4 34.5,124.8 42.3,123.2 50.3,121.5 58.6,119.8 67.1,118 75.9,116.2 84.9,114.4 94.2,112.7 103.7,111.1 104.2,112.8 95.2,116.3 86.3,119.6 77.6,122.5 69.1,125.3 60.8,128 52.7,130.5 44.8,132.9 37.1,135.2 29.6,137.4 22.3,139.5 " />
<polygon points="22.3,139.5 19.5,127.9 17.6,128.4 " />
<polygon points="22.3,139.5 25,142 27.5,135.2 " />
<polygon points="70,19 70,103 58,103 58,17 " />
<polygon points="70,19 73,21 70,23 " />
<polygon points="70,103 67.6,106.6 64,109 60.4,106.6 58,103 " />
<polygon points="69.9,102.8 69.4,114.7 68.1,126 65.9,136.5 62.9,146.4 59.1,155.6 54.4,164.1 48.9,171.8 42.6,178.7 35.4,184.7 27.5,189.7 26.4,188.2 32.9,181.8 38.6,175.1 43.6,168 47.8,160.4 51.3,152.3 54.1,143.6 56.1,134.4 57.5,124.6 58.1,114.1 58,103.1 " />
</g>
</svg>
