<svg xmlns="http://www.w3.org/2000/svg" xmlns:xlink="http://www.w3.org/1999/xlink" version="1.1" baseProfile="full" viewBox="0 0 200 200" width="200" height="200">
<g fill="black">
<polygon points="22,28 140,28 140,32 22,32 " />
<polygon points="145.9,30.1 145.6,57.5 146.2,82 147.7,103.6 150,122.3 153.3,138 157.3,150.6 162,160.2 167.1,166.7 172.5,170.5 178.4,172 177.5,183.9 167.5,181.4 158.8,175.4 151.8,166.5 146.1,155 141.6,140.9 138.2,124.2 135.7,104.7 134.2,82.5 133.6,57.6 134,29.8 " />
<polygon points="134,28 140,23 151,32 146,35 134,40 " />
<polygon points="178.4,172 182.4,174.1 183.9,178.4 181.8,182.4 177.5,183.9 " />
<polygon points="178,173 180,147 178,147 172,173 " />
<polygon points="90,30 88.9,81.1 77,80.8 77.9,30 " />
<polygon points="88.9,81.4 86.9,97.1 83.9,111.7 79.8,125.2 74.7,137.7 68.6,149 61.5,159.3 53.4,168.3 44.4,176.1 34.3,182.6 23.4,187.8 22.5,186.1 32.2,179.4 40.9,172 48.6,163.8 55.4,154.8 61.3,144.9 66.2,134 70.3,122.1 73.4,109.3 75.6,95.4 77,80.5 " />
<polygon points="39.3,60.7 48.7,66.1 57.6,72.3 65.9,79.1 73.7,86.7 81,94.8 87.8,103.5 94,112.8 99.7,122.7 104.9,133.1 109.6,144.1 98.3,148.2 94.4,137.6 90.1,127.5 85.3,117.9 80.1,108.7 74.3,100 68,91.7 61.3,83.8 54.1,76.3 46.4,69.2 38.3,62.3 " />
<polygon points="109.6,144.1 109.3,148.6 106,151.8 101.4,151.5 98.3,148.2 " />
</g>
</svg>
