<svg xmlns="http://www.w3.org/2000/svg" xmlns:xlink="http://www.w3.org/1999/xlink" version="1.1" baseProfile="full" viewBox="0 0 200 200" width="200" height="200">
<g fill="black">
<polygon points="21,51 180,51 180,55 21,55 " />
<polygon points="180,51 156,53 168,41 " />
<polygon points="106,19 106,91 94,97 94,17 " />
<polygon points="106,19 109,21 104,24 " />
<polygon points="18,113 184,113 184,117 18,117 " />
<polygon points="184,113 160,115 172,103 " />
<polygon points="141,74 141,184 129,190 129,72 " />
<polygon points="141,74 144,76 139,79 " />
<polygon points="68,74 68,184 56,190 56,72 " />
<polygon points="68,74 71,76 66,79 " />
</g>
</svg>
