<svg xmlns="http://www.w3.org/2000/svg" xmlns:xlink="http://www.w3.org/1999/xlink" version="1.1" baseProfile="full" viewBox="0 0 200 200" width="200" height="200">
<g fill="black">
<polygon points="33.3,18.7 37.2,20.4 41,22.1 44.6,24.1 47.9,26.4 51.1,29 54,31.7 56.7,34.7 59.2,37.9 61.4,41.3 63.4,44.9 52.3,49.4 51.3,46.2 50.1,43.2 48.7,40.1 47.1,37.2 45.2,34.3 43.1,31.4 40.8,28.6 38.3,25.7 35.5,22.9 32.4,20.2 " />
<polygon points="63.4,44.9 63.3,49.5 60.1,52.7 55.5,52.6 52.3,49.4 " />
<polygon points="78.3,12.7 82,14.4 85.7,16.2 89.2,18.4 92.4,20.9 95.5,23.6 98.3,26.6 101,29.9 103.4,33.4 105.6,37.1 107.6,41.1 96.3,45.2 95.3,41.6 94.1,38.2 92.7,34.9 91.1,31.7 89.3,28.6 87.4,25.6 85.2,22.7 82.8,19.8 80.3,16.9 77.3,14.2 " />
<polygon points="107.6,41.1 107.3,45.6 104,48.8 99.4,48.5 96.3,45.2 " />
<polygon points="160.5,20.9 158.1,24.3 155.4,27.9 152.6,31.5 149.7,35.2 146.6,39.1 143.2,43 139.7,47.1 136,51.2 132,55.3 127.7,59.5 126.2,58.4 128.9,53.1 131.7,48 134.4,43.3 137,38.7 139.6,34.2 142,30 144.3,25.9 146.4,22 148.4,18.3 150.3,14.7 " />
<polygon points="150.3,14.7 160.5,20.9 150.8,13.8 " />
<polygon points="160.5,20.9 162.1,24.2 154.9,24.5 " />
<polygon points="53,57.4 53,126.8 41,132.8 41,51.4 " />
<polygon points="47,57.4 153,57.4 153,61.4 47,61.4 " />
<polygon points="159,59.4 159,123.8 147,129.8 147,59.4 " />
<polygon points="147,57.4 153,52.4 164,61.4 159,65.4 147,59.4 " />
<polygon points="47,86.6 153,86.6 153,90.6 47,90.6 " />
<polygon points="47,115.8 153,115.8 153,119.8 47,119.8 " />
<polygon points="14,143.3 186,143.3 186,147.3 14,147.3 " />
<polygon points="186,143.3 162,145.3 174,133.3 " />
<polygon points="106,57.4 106,183.6 94,189.6 94,57.4 " />
</g>
</svg>
