<svg xmlns="http://www.w3.org/2000/svg" xmlns:xlink="http://www.w3.org/1999/xlink" version="1.1" baseProfile="full" viewBox="0 0 200 200" width="200" height="200">
<g fill="black">
<polygon points="95,20 95,183 83,189 83,18 " />
<polygon points="95,20 98,22 95,24 " />
<polygon points="94.2,83.4 101.9,84.6 109.3,86.2 116.4,88.2 123.2,90.3 129.6,92.7 135.8,95.3 141.6,98 147.2,101 152.4,104.1 157.3,107.4 149.9,116.8 145.8,113.4 141.4,110 136.6,106.7 131.5,103.5 126.1,100.4 120.2,97.3 114.1,94.3 107.6,91.3 100.8,88.2 93.7,85.1 " />
<polygon points="157.3,107.4 159.5,111.4 158.3,115.8 154.3,118 149.9,116.8 " />
</g>
</svg>
