<svg xmlns="http://www.w3.org/2000/svg" xmlns:xlink="http://www.w3.org/1999/xlink" version="1.1" baseProfile="full" viewBox="0 0 200 200" width="200" height="200">
<g fill="black">
<polygon points="49.3,13.8 53.7,16.2 57.9,18.6 61.8,21.3 65.4,24.2 68.8,27.3 71.8,30.5 74.7,33.9 77.2,37.5 79.5,41.2 81.5,45 70.3,49.3 69.2,45.9 67.9,42.6 66.4,39.2 64.6,35.9 62.5,32.5 60.2,29.1 57.6,25.7 54.7,22.3 51.7,18.8 48.2,15.3 " />
<polygon points="81.5,45 81.3,49.6 78,52.8 73.5,52.6 70.3,49.3 " />
<polygon points="150.6,19.8 148.2,23.4 145.5,27.1 142.7,30.9 139.7,34.8 136.6,38.8 133.3,42.8 129.8,47 126,51.2 122,55.3 117.7,59.5 116.2,58.4 118.9,53.1 121.7,48 124.4,43.2 127,38.5 129.6,34 132,29.7 134.2,25.5 136.4,21.5 138.4,17.6 140.3,13.8 " />
<polygon points="140.3,13.8 150.6,19.8 140.8,12.9 " />
<polygon points="150.6,19.8 152.2,23.1 145,23.5 " />
<polygon points="53,57.4 53,126.8 41,132.8 41,51.4 " />
<polygon points="47,57.4 153,57.4 153,61.4 47,61.4 " />
<polygon points="159,59.4 159,123.8 147,129.8 147,59.4 " />
<polygon points="147,57.4 153,52.4 164,61.4 159,65.4 147,59.4 " />
<polygon points="47,86.6 153,86.6 153,90.6 47,90.6 " />
<polygon points="47,115.8 153,115.8 153,119.8 47,119.8 " />
<polygon points="14,143.3 186,143.3 186,147.3 14,147.3 " />
<polygon points="186,143.3 162,145.3 174,133.3 " />
<polygon points="106,57.4 106,183.6 94,189.6 94,57.4 " />
</g>
</svg>
