<svg xmlns="http://www.w3.org/2000/svg" xmlns:xlink="http://www.w3.org/1999/xlink" version="1.1" baseProfile="full" viewBox="0 0 200 200" width="200" height="200">
<g fill="black">
<polygon points="20,45 93.2,45 93.2,49 20,49 " />
<polygon points="93.2,45 69.2,47 81.2,35 " />
<polygon points="59.1,45 59.1,136 47.1,136 47.1,45 " />
<polygon points="18.2,139.9 24.9,138.4 31.8,136.8 39.2,135.1 46.8,133.4 54.8,131.6 63.1,129.7 71.8,127.7 80.8,125.8 90.2,123.9 100,122.1 100.5,123.8 91.3,127.5 82.3,130.9 73.6,134 65.2,137 57.1,139.7 49.3,142.3 41.9,144.8 34.7,147.2 27.9,149.4 21.4,151.5 " />
<polygon points="21.4,151.5 18.2,139.9 16.3,140.4 " />
<polygon points="21.4,151.5 24.1,153.8 26.4,147 " />
<polygon points="115.2,32 170.3,32 170.3,36 115.2,36 " />
<polygon points="176.3,34 176.3,149 164.3,149 164.3,34 " />
<polygon points="164.3,32 170.3,27 181.3,36 176.3,40 164.3,34 " />
<polygon points="176.3,149 173.9,152.6 170.3,155 166.7,152.6 164.3,149 " />
<polygon points="176.3,149 176.1,151.5 175.7,154 174.9,156.4 173.7,158.7 172,160.7 170,162.3 167.7,163.6 165.3,164.4 162.8,164.8 160.3,165 160.3,153 161.5,152.9 162.4,152.7 163,152.5 163.3,152.4 163.5,152.2 163.7,152 163.9,151.7 164,151.1 164.2,150.2 164.3,149 " />
<polygon points="160.3,159 160.3,153 140.3,153 140.3,156 " />
<polygon points="121.2,32 121.2,183 109.2,189 109.2,26 " />
</g>
</svg>
