<svg xmlns="http://www.w3.org/2000/svg" xmlns:xlink="http://www.w3.org/1999/xlink" version="1.1" baseProfile="full" viewBox="0 0 200 200" width="200" height="200">
<g fill="black">
<polygon points="19.4,131.9 26.2,130.4 32.9,128.9 39.6,127.4 46.2,125.9 52.7,124.3 59.2,122.8 65.6,121.2 71.9,119.7 78.3,118.3 84.6,117.1 85.3,118.8 79.5,121.9 73.7,124.8 67.6,127.5 61.5,130 55.2,132.4 48.8,134.8 42.4,137.1 35.8,139.3 29.2,141.4 22.4,143.5 " />
<polygon points="22.4,143.5 19.4,131.9 17.5,132.4 " />
<polygon points="22.4,143.5 25.1,145.9 27.5,139.1 " />
<polygon points="44,43 44,133 32,133 32,41 " />
<polygon points="44,43 47,45 44,47 " />
<polygon points="97.7,27.8 92.2,30 86.7,32.3 81,34.5 75.3,36.7 69.5,38.9 63.5,41.1 57.4,43.2 51.2,45.2 44.8,47.1 38.3,48.8 37.6,47.1 43.4,43.6 49.1,40.3 54.8,37.2 60.4,34.1 66,31.2 71.5,28.3 76.8,25.4 82.1,22.6 87.3,19.8 92.4,17 " />
<polygon points="92.4,17 97.7,27.8 100.9,26.2 " />
<polygon points="100.9,26.2 101.1,29.5 93.6,26.4 " />
<polygon points="125,35 125,181 113,187 113,29 " />
<polygon points="119,35 171,35 171,39 119,39 " />
<polygon points="177,37 177,143 165,143 165,37 " />
<polygon points="165,35 171,30 182,39 177,43 165,37 " />
<polygon points="177,143 174.6,146.6 171,149 167.4,146.6 165,143 " />
<polygon points="177,143 176.8,145.5 176.4,148 175.6,150.4 174.3,152.7 172.7,154.7 170.7,156.3 168.4,157.6 166,158.4 163.5,158.8 161,159 161,147 162.2,146.9 163.1,146.7 163.7,146.5 164,146.4 164.2,146.2 164.4,146 164.5,145.7 164.7,145.1 164.9,144.2 165,143 " />
<polygon points="161,153 161,147 141,147 141,150 " />
<polygon points="91,53 91,109 79,109 79,51 " />
<polygon points="91,53 94,55 91,57 " />
<polygon points="91,109 88.6,112.6 85,115 81.4,112.6 79,109 " />
<polygon points="90.9,109.1 89.9,120.8 87.7,131.8 84.3,142 79.8,151.3 74.2,159.7 67.4,167.1 59.6,173.6 50.8,179.1 41,183.5 30.2,186.8 29.7,185.1 39.4,180 48,174.5 55.5,168.5 61.9,161.9 67.2,154.7 71.6,147 74.9,138.5 77.2,129.4 78.6,119.5 79,108.8 " />
</g>
</svg>
