<svg xmlns="http://www.w3.org/2000/svg" xmlns:xlink="http://www.w3.org/1999/xlink" version="1.1" baseProfile="full" viewBox="0 0 200 200" width="200" height="200">
<g fill="black">
<polygon points="35,29 35,184 23,190 23,23 " />
<polygon points="29,29 116.5,29 116.5,33 29,33 " />
<polygon points="116.5,29 92.5,31 104.5,19 " />
<polygon points="74.9,29 74.9,76 62.9,76 62.9,29 " />
<polygon points="29,72 102.8,72 102.8,76 29,76 " />
<polygon points="108.8,74 108.8,131 96.8,137 96.8,74 " />
<polygon points="96.8,72 102.8,67 113.8,76 108.8,80 96.8,74 " />
<polygon points="29,121 102.8,121 102.8,125 29,125 " />
<polygon points="74.9,121 74.9,172 62.9,172 62.9,121 " />
<polygon points="29,168 119.4,168 119.4,172 29,172 " />
<polygon points="119.4,168 95.4,170 107.4,158 " />
<polygon points="141.1,20 141.1,183 129.1,189 129.1,18 " />
<polygon points="141.1,20 144.1,22 141.1,24 " />
<polygon points="139.2,83.5 144.9,84.8 150.3,86.4 155.5,88.4 160.4,90.5 165.1,92.9 169.5,95.5 173.8,98.3 177.8,101.3 181.6,104.4 185.2,107.7 176.2,115.7 173.6,112.5 170.6,109.3 167.5,106.1 164.1,103 160.4,100 156.5,97.1 152.4,94.1 148,91.2 143.4,88.2 138.6,85.2 " />
<polygon points="185.2,107.7 186.6,112 184.7,116.2 180.4,117.6 176.2,115.7 " />
</g>
</svg>
