<svg xmlns="http://www.w3.org/2000/svg" xmlns:xlink="http://www.w3.org/1999/xlink" version="1.1" baseProfile="full" viewBox="0 0 200 200" width="200" height="200">
<g fill="black">
<polygon points="75.3,19.2 70.1,25.8 64.5,32.1 58.7,38.2 52.6,44.1 46.2,49.8 39.5,55.2 32.5,60.3 25.2,65.1 17.5,69.6 9.4,73.7 8.5,72.2 15.3,66.5 22,60.8 28.4,55.2 34.5,49.4 40.4,43.5 46,37.6 51.3,31.5 56.3,25.2 61,18.8 65.5,12.3 " />
<polygon points="65.5,12.3 75.3,19.2 66,11.6 " />
<polygon points="75.3,19.2 76.6,22.6 69.4,22.4 " />
<polygon points="68.2,19.6 74,21.2 79.5,23.1 84.7,25.2 89.6,27.4 94.4,29.7 98.9,32.1 103.1,34.6 107.2,37.1 111.1,39.8 114.7,42.5 106.7,51.4 103.8,48.6 100.7,45.7 97.3,42.8 93.7,39.9 89.9,36.9 85.8,33.9 81.5,30.9 77,27.8 72.3,24.6 67.5,21.2 " />
<polygon points="114.7,42.5 116.6,46.6 115.2,50.9 111.1,52.9 106.7,51.4 " />
<polygon points="75.4,60.1 70.2,67.2 64.7,74.1 58.9,80.7 52.7,87.1 46.3,93.2 39.6,99 32.6,104.5 25.2,109.6 17.5,114.4 9.4,118.7 8.5,117.2 15.3,111.3 21.9,105.4 28.3,99.4 34.5,93.4 40.3,87.2 45.9,80.8 51.2,74.2 56.2,67.5 60.9,60.6 65.4,53.5 " />
<polygon points="65.4,53.5 75.4,60.1 65.9,52.7 " />
<polygon points="75.4,60.1 76.9,63.4 69.7,63.5 " />
<polygon points="68.3,62.6 74,64.6 79.5,66.8 84.7,69 89.6,71.3 94.3,73.5 98.7,75.7 102.9,77.9 106.8,80.1 110.5,82.2 114,84.3 107,94.1 104.1,91.6 100.9,89 97.4,86.4 93.8,83.6 89.9,80.8 85.8,77.8 81.4,74.7 76.9,71.4 72.2,68 67.4,64.2 " />
<polygon points="114,84.3 116.4,88.2 115.4,92.7 111.5,95.1 107,94.1 " />
<polygon points="47,107 47,178 35,184 35,101 " />
<polygon points="41,107 98,107 98,111 41,111 " />
<polygon points="104,109 104,172 92,178 92,109 " />
<polygon points="92,107 98,102 109,111 104,115 92,109 " />
<polygon points="41,162 98,162 98,166 41,166 " />
<polygon points="134,32 178.2,32 178.2,36 134,36 " />
<polygon points="184.2,34 184.2,149 172.2,149 172.2,34 " />
<polygon points="172.2,32 178.2,27 189.2,36 184.2,40 172.2,34 " />
<polygon points="184.2,149 181.7,152.6 178.2,155 174.6,152.6 172.2,149 " />
<polygon points="184.2,149 184,151.5 183.6,154 182.8,156.4 181.5,158.7 179.9,160.7 177.9,162.3 175.6,163.6 173.2,164.4 170.7,164.8 168.2,165 168.2,153 169.4,152.9 170.3,152.7 170.9,152.5 171.2,152.4 171.4,152.2 171.6,152 171.7,151.7 171.9,151.1 172.1,150.2 172.2,149 " />
<polygon points="168.2,159 168.2,153 148.2,153 148.2,156 " />
<polygon points="140,32 140,183 128,189 128,26 " />
</g>
</svg>
