<svg xmlns="http://www.w3.org/2000/svg" xmlns:xlink="http://www.w3.org/1999/xlink" version="1.1" baseProfile="full" viewBox="0 0 200 200" width="200" height="200">
<g fill="black">
<polygon points="43,35 179,35 179,39 43,39 " />
<polygon points="179,35 155,37 167,25 " />
<polygon points="49,35 49,96 37,96 37,29 " />
<polygon points="49,96 46.6,99.6 43,102 39.4,99.6 37,96 " />
<polygon points="49,96 48.4,108.4 47.3,120.1 45.8,131 43.7,141.2 41,150.6 37.9,159.1 34.2,166.9 29.9,173.8 25,179.7 19.6,184.6 18.3,183.3 22,177.4 25.3,171.1 28.2,164.2 30.7,156.6 32.9,148.3 34.6,139.4 35.8,129.6 36.6,119.2 37,107.9 37,96 " />
</g>
</svg>
