<svg xmlns="http://www.w3.org/2000/svg" xmlns:xlink="http://www.w3.org/1999/xlink" version="1.1" baseProfile="full" viewBox="0 0 200 200" width="200" height="200">
<g fill="black">
<polygon points="34,21.7 188,21.7 188,25.7 34,25.7 " />
<polygon points="188,21.7 164,23.7 176,11.7 " />
<polygon points="40,21.7 40,88.2 28,88.2 28,15.7 " />
<polygon points="40,88.2 37.6,91.8 34,94.2 30.4,91.8 28,88.2 " />
<polygon points="40,88.2 39.4,102.7 38.4,116.2 37,128.8 35,140.5 32.6,151.1 29.7,160.9 26.2,169.6 22.3,177.3 17.7,183.9 12.6,189.2 11.3,188.1 14.5,181.9 17.5,175 20.1,167.3 22.4,158.8 24.3,149.3 25.8,139 27,127.7 27.7,115.5 28,102.3 28,88.2 " />
<polygon points="101.4,41.3 97.8,42 93.9,42.7 89.6,43.3 84.9,43.9 79.7,44.5 74.1,45 68,45.5 61.5,45.9 54.5,46.1 47.1,46.1 46.8,44.3 54,42.3 60.7,40.6 67,39 72.8,37.5 78.1,36.2 83,34.8 87.5,33.5 91.4,32.3 94.9,31 97.8,29.9 " />
<polygon points="96.9,30.2 101.4,41.3 107.8,39.4 " />
<polygon points="107.8,39.4 108,42.4 101.1,39.3 " />
<polygon points="45.4,57.2 107,57.2 107,61.2 45.4,61.2 " />
<polygon points="107,57.2 87,59.2 97,48.2 " />
<polygon points="83.4,38.7 83.4,105.7 71.4,111.7 71.4,38.7 " />
<polygon points="81.5,59.2 80.6,61.2 78.4,65.8 76,70.2 73.2,74.3 70.2,78.3 66.8,82.1 63.2,85.7 59.3,89 55.2,92.1 50.7,94.8 45.9,97.2 44.8,95.8 48.4,91.9 51.7,88.2 54.8,84.4 57.7,80.7 60.3,76.9 62.6,73.1 64.7,69.2 66.5,65.2 68,61.2 68.6,59.2 " />
<polygon points="80.1,68.4 83,68.9 85.8,68.9 88.5,69 91.1,69.3 93.6,69.7 95.9,70.1 98.1,70.6 100.2,71.2 102.3,72 104.2,72.8 96.9,82.3 96.1,81.2 95.1,80.1 93.9,78.9 92.5,77.7 90.8,76.4 89,75.1 87,73.8 84.8,72.5 82.4,71.1 79.7,70.2 " />
<polygon points="104.2,72.8 106.5,76.8 105.3,81.2 101.3,83.5 96.9,82.3 " />
<polygon points="169.9,39.6 164.5,40.6 159,41.5 153.4,42.3 147.6,43.1 141.6,43.7 135.5,44.3 129.2,44.7 122.8,45 116.2,45 109.4,44.7 109.3,43 115.8,41.2 122.1,39.6 128.3,38.2 134.3,36.8 140.2,35.3 145.9,33.9 151.4,32.5 156.7,31 161.9,29.5 166.9,27.9 " />
<polygon points="165.9,28.2 169.9,39.6 177.3,37.7 " />
<polygon points="177.3,37.7 177.6,40.7 170.5,37.3 " />
<polygon points="112.6,55.4 183.8,55.4 183.8,59.4 112.6,59.4 " />
<polygon points="183.8,55.4 159.8,57.4 171.8,45.4 " />
<polygon points="149,40.4 149,105.7 137,111.7 137,38.4 " />
<polygon points="149,40.4 152,42.4 147,45.4 " />
<polygon points="146.8,60.2 143.8,65.7 140.5,70.9 136.9,75.9 132.9,80.5 128.7,84.9 124.1,88.9 119.2,92.6 114,96 108.5,98.9 102.6,101.3 101.7,99.8 106.4,95.7 110.8,91.6 115,87.6 118.9,83.4 122.4,79.1 125.7,74.7 128.7,70.1 131.4,65.4 133.8,60.5 135.9,55.4 " />
<polygon points="146.5,54.4 149.5,59.3 152.4,63.8 155.3,67.9 158.5,71.8 161.8,75.3 165.3,78.5 169.1,81.4 173.1,84 177.3,86.3 181.9,88.3 176,100.2 171,97.1 166.3,93.6 162,89.8 158.1,85.7 154.7,81.3 151.6,76.6 149.1,71.6 147,66.3 145.6,60.8 144.8,55 " />
<polygon points="176,100.2 181.9,88.3 187.4,91 " />
</g>
</svg>
