<svg xmlns="http://www.w3.org/2000/svg" xmlns:xlink="http://www.w3.org/1999/xlink" version="1.1" baseProfile="full" viewBox="0 0 200 200" width="200" height="200">
<g fill="black">
<polygon points="34,36 146,36 146,40 34,40 " />
<polygon points="151.8,39.2 145.7,63 138,84.9 128.7,105 117.8,123 105.5,139.2 91.5,153.3 76.1,165.4 59.2,175.3 40.9,183.2 21.2,188.8 20.7,187.1 39.5,179.7 56.7,170.6 72.3,160 86.4,147.7 98.9,133.7 110.1,118 119.7,100.4 127.9,81.1 134.7,59.8 140.1,36.7 " />
<polygon points="140,36 146,31 157,40 152,43 140,48 " />
<polygon points="60,37.8 66,61.4 73.1,82.8 81.3,101.9 90.8,118.8 101.4,133.6 113.3,146.1 126.4,156.5 140.7,164.9 156.3,171.2 173.3,175.5 170.6,188.4 152.2,183 135.3,175.4 119.9,165.5 106.2,153.5 94.1,139.3 83.6,123.1 74.7,104.9 67.5,84.6 62,62.4 58.2,38.1 " />
<polygon points="170.6,188.4 173.3,175.5 182.4,177.4 " />
<polygon points="83.3,51.7 87.2,53.6 91,55.5 94.6,57.7 97.9,60.2 100.9,62.8 103.8,65.7 106.4,68.8 108.7,72 110.8,75.5 112.6,79.1 101.3,83.1 100.5,80 99.4,76.9 98.2,73.9 96.6,70.9 94.9,67.9 92.9,65 90.6,62 88.1,59.1 85.4,56.1 82.3,53.2 " />
<polygon points="112.6,79.1 112.3,83.7 108.9,86.8 104.4,86.5 101.3,83.1 " />
</g>
</svg>
