<svg xmlns="http://www.w3.org/2000/svg" xmlns:xlink="http://www.w3.org/1999/xlink" version="1.1" baseProfile="full" viewBox="0 0 200 200" width="200" height="200">
<g fill="black">
<polygon points="104.9,19.5 100.9,23.9 96.6,28.1 92.2,32.3 87.7,36.4 83,40.5 78.1,44.4 73,48.2 67.8,51.9 62.3,55.4 56.5,58.7 55.4,57.2 59.9,52.4 64.3,47.8 68.7,43.3 73,38.8 77.1,34.3 81.1,29.9 85,25.4 88.7,20.9 92.3,16.4 95.7,11.9 " />
<polygon points="95.7,11.9 104.9,19.5 96.1,11.4 " />
<polygon points="104.9,19.5 106,23 98.8,22.3 " />
<polygon points="31.2,54.9 39.2,54.2 48.1,53.5 58.1,52.8 69,52.1 80.8,51.4 93.7,50.8 107.5,50.2 122.3,49.6 138.1,49.2 154.9,49.1 155,50.8 138.4,53 122.7,55 108,56.7 94.3,58.4 81.6,59.9 69.8,61.4 59.1,62.8 49.3,64.2 40.5,65.5 32.7,66.8 " />
<polygon points="32.7,66.8 31.2,54.9 29.2,55.1 " />
<polygon points="32.7,66.8 35.1,69.5 38.3,63 " />
<polygon points="127.3,28.7 132.5,31.1 137.4,33.6 142,36.3 146.3,39.2 150.3,42.1 154.1,45.2 157.6,48.3 160.8,51.5 163.7,54.8 166.4,58.2 156.3,64.6 154.5,61.4 152.5,58.2 150.2,55 147.6,51.6 144.7,48.3 141.5,44.8 138.1,41.4 134.4,37.8 130.5,34.1 126.3,30.2 " />
<polygon points="166.4,58.2 167.1,62.7 164.6,66.5 160,67.2 156.3,64.6 " />
<polygon points="102.3,61.9 98.1,71.1 93,79.8 86.8,87.9 79.7,95.4 71.6,102.2 62.6,108.4 52.6,114 41.8,119 30,123.3 17.2,126.8 16.7,125.1 28.6,119.7 39.5,114.2 49.4,108.3 58.3,102.2 66.2,95.7 73,88.8 78.9,81.6 83.9,74.1 87.9,66.2 91,57.9 " />
<polygon points="91,57.9 102.3,61.9 91.5,56.5 " />
<polygon points="102.3,61.9 104.5,64.7 97.5,66.5 " />
<polygon points="19,76 180,76 180,80 19,80 " />
<polygon points="180,76 156,78 168,66 " />
<polygon points="118.2,77.4 121.9,80.7 125.8,84 130.1,87.2 134.9,90.4 140.1,93.5 146,96.5 152.4,99.5 159.3,102.3 166.9,105.1 175.1,107.7 170.8,120.2 162.4,116.7 154.6,113.1 147.4,109.3 140.9,105.4 135,101.3 129.8,97.1 125.3,92.6 121.5,88 118.6,83.2 116.7,78.3 " />
<polygon points="170.8,120.2 175.1,107.7 182.3,110.2 " />
<polygon points="19,178 183,178 183,182 19,182 " />
<polygon points="183,178 159,180 171,168 " />
<polygon points="46,119 157,119 157,123 46,123 " />
<polygon points="157,119 133,121 145,109 " />
<polygon points="45,146 155,146 155,150 45,150 " />
<polygon points="155,146 131,148 143,136 " />
</g>
</svg>
