<svg xmlns="http://www.w3.org/2000/svg" xmlns:xlink="http://www.w3.org/1999/xlink" version="1.1" baseProfile="full" viewBox="0 0 200 200" width="200" height="200">
<g fill="black">
<polygon points="43,34 173,34 173,38 43,38 " />
<polygon points="173,34 149,36 161,24 " />
<polygon points="49,34 49,82 37,82 37,28 " />
<polygon points="49,82 46.6,85.6 43,88 39.4,85.6 37,82 " />
<polygon points="49,82 48.4,96.3 47.3,109.9 45.7,122.7 43.5,134.6 40.8,145.7 37.6,155.9 33.8,165.3 29.4,173.7 24.3,181.1 18.7,187.5 17.2,186.4 21.1,179.1 24.5,171.3 27.6,162.9 30.3,153.7 32.6,143.7 34.4,133 35.7,121.4 36.6,109.1 37,95.9 37,82 " />
<polygon points="43,78 153,78 153,82 43,82 " />
<polygon points="158.7,81.8 152.2,98.2 144.5,113.4 135.6,127.4 125.5,140.1 114.1,151.5 101.6,161.7 88,170.5 73.2,178 57.2,184.1 40.2,188.8 39.7,187.1 55.9,180.6 70.8,173.2 84.5,164.9 97,155.7 108.3,145.4 118.4,134.1 127.3,121.7 135.1,108.3 141.7,93.7 147.2,78.1 " />
<polygon points="147,78 153,73 164,82 159,86 153,86 " />
<polygon points="72.1,79.6 80.3,95.7 88.7,110.3 97.6,123.3 106.9,134.9 116.8,144.8 127.2,153.3 138.1,160.3 149.5,165.7 161.5,169.8 174.1,172.5 171.8,185.4 157.9,181.8 144.7,176.5 132.4,169.7 120.9,161.4 110.3,151.5 100.5,140.2 91.6,127.4 83.6,113.2 76.5,97.4 70.5,80.2 " />
<polygon points="171.8,185.4 174.1,172.5 183.6,174.1 " />
</g>
</svg>
