<svg xmlns="http://www.w3.org/2000/svg" xmlns:xlink="http://www.w3.org/1999/xlink" version="1.1" baseProfile="full" viewBox="0 0 200 200" width="200" height="200">
<g fill="black">
<polygon points="34,36 145,36 145,40 34,40 " />
<polygon points="150.8,39.5 143.5,62.7 134.9,84.1 125,103.7 113.7,121.4 101.2,137.2 87.3,151.1 72.1,163.1 55.7,173.1 38.1,181 19.2,186.8 18.7,185.1 36.6,177.5 53.1,168.4 68.2,157.8 82.1,145.6 94.7,131.7 106.1,116.1 116.2,98.8 125.1,79.8 132.7,59 139.1,36.4 " />
<polygon points="139,36 145,31 156,40 151,43 139,48 " />
<polygon points="60.1,37.7 68.2,59.9 76.9,80.2 86.3,98.6 96.5,115 107.4,129.5 119.1,142.1 131.6,152.8 144.9,161.5 159,168.5 173.8,173.6 170.1,186.3 153.9,179.9 138.8,171.6 124.8,161.4 111.9,149.3 100.1,135.3 89.5,119.6 79.9,101.9 71.5,82.5 64.3,61.3 58.3,38.2 " />
<polygon points="170.1,186.3 173.8,173.6 181.7,176 " />
</g>
</svg>
