<svg xmlns="http://www.w3.org/2000/svg" xmlns:xlink="http://www.w3.org/1999/xlink" version="1.1" baseProfile="full" viewBox="0 0 200 200" width="200" height="200">
<g fill="black">
<polygon points="62,33 62,97 50,97 50,27 " />
<polygon points="62,97 59.6,100.6 56,103 52.4,100.6 50,97 " />
<polygon points="61.9,97.2 60.6,110 58.5,122.1 55.5,133.4 51.7,144 47,153.8 41.5,162.8 35.2,170.9 28.1,178.2 20.2,184.5 11.4,189.7 10.5,188.2 17.7,181.5 24.3,174.4 30,166.9 35.1,158.8 39.4,150.1 43,140.8 45.8,130.8 47.9,120.1 49.3,108.7 50,96.7 " />
<polygon points="56,68 163,68 163,72 56,72 " />
<polygon points="168.8,71.4 163,89.4 155.4,106.2 146,121.5 134.8,135.4 121.8,147.9 107,158.9 90.6,168.4 72.5,176.4 52.7,182.9 31.2,187.8 30.7,186.1 51.5,179.3 70.4,171.5 87.5,162.6 102.7,152.6 116.1,141.5 127.8,129.3 137.7,115.9 145.8,101.3 152.3,85.6 157.1,68.5 " />
<polygon points="157,68 163,63 174,72 169,75 157,80 " />
<polygon points="84,71.8 88.6,87.4 94.1,101.7 100.7,114.7 108.5,126.4 117.5,136.8 127.6,146.1 138.9,154.2 151.6,161.1 165.5,166.9 180.7,171.6 177.2,184.3 161,178.6 146.2,171.6 132.8,163.3 120.9,153.8 110.5,143.1 101.7,131.1 94.4,118 88.6,103.8 84.5,88.5 82.2,72.1 " />
<polygon points="177.2,184.3 180.7,171.6 188.9,173.9 " />
<polygon points="171.6,26 161.6,28.4 151.2,30.5 140.5,32.3 129.4,33.8 118,35 106.3,35.9 94.2,36.5 81.8,36.7 69,36.5 56,35.8 55.9,34.1 68.9,32.7 81.5,31.4 93.7,29.9 105.5,28.3 116.9,26.6 128,24.6 138.6,22.4 148.9,20 158.8,17.3 168.3,14.5 " />
<polygon points="167.4,14.7 171.6,26 178.5,24 " />
<polygon points="178.5,24 178.8,27.1 171.8,23.9 " />
</g>
</svg>
