<svg xmlns="http://www.w3.org/2000/svg" xmlns:xlink="http://www.w3.org/1999/xlink" version="1.1" baseProfile="full" viewBox="0 0 200 200" width="200" height="200">
<g fill="black">
<polygon points="16,48 184,48 184,52 16,52 " />
<polygon points="184,48 160,50 172,38 " />
<polygon points="89.9,17.2 88,40.6 84.9,62.6 80.5,83.2 74.9,102.3 68.1,120.1 60.1,136.3 50.8,151.1 40.3,164.3 28.5,175.8 15.5,185.7 14.4,184.2 25.8,173.1 36.1,160.8 45.3,147.4 53.3,132.8 60.3,116.8 66.1,99.6 70.7,80.9 74.3,60.9 76.7,39.5 77.9,16.7 " />
<polygon points="77.9,17.7 89.9,17.2 78,14.4 " />
<polygon points="89.9,17.2 92.8,19.3 87.7,22.1 " />
<polygon points="75,86 151,86 151,90 75,90 " />
<polygon points="156.5,90.1 149.6,104.8 141.5,118.5 132.2,131 121.7,142.5 109.9,152.9 97.1,162.2 83.1,170.4 67.9,177.4 51.6,183.2 34.2,187.8 33.7,186.1 50.3,179.7 65.7,172.5 79.8,164.7 92.7,156 104.5,146.5 115,136.1 124.3,124.8 132.5,112.7 139.5,99.7 145.4,85.8 " />
<polygon points="145,86 151,81 162,90 157,93 145,98 " />
<polygon points="81.1,88.6 86.9,101.2 93.3,112.8 100.5,123.4 108.6,132.9 117.7,141.5 127.7,149.1 138.6,155.9 150.6,161.7 163.6,166.6 177.7,170.6 174.2,183.3 159.4,178.4 145.6,172.4 133,165.4 121.6,157.4 111.4,148.4 102.3,138.4 94.6,127.5 88.1,115.6 83,102.8 79.4,89.2 " />
<polygon points="174.2,183.3 177.7,170.6 186,172.8 " />
</g>
</svg>
