<svg xmlns="http://www.w3.org/2000/svg" xmlns:xlink="http://www.w3.org/1999/xlink" version="1.1" baseProfile="full" viewBox="0 0 200 200" width="200" height="200">
<g fill="black">
<polygon points="97.9,19.6 94.7,22.9 91.3,26 87.9,29.1 84.4,32.1 80.8,34.9 77.2,37.6 73.4,40.1 69.6,42.5 65.5,44.7 61.5,46.7 60.4,45.2 63.5,41.9 66.4,38.6 69.4,35.4 72.4,32.2 75.2,28.9 78.1,25.6 80.8,22.2 83.5,18.8 86.1,15.4 88.7,11.9 " />
<polygon points="88.7,11.9 97.9,19.6 89.1,11.4 " />
<polygon points="97.9,19.6 98.9,23 91.8,22.2 " />
<polygon points="34.6,42.9 45.9,42.6 57.3,42.2 68.9,41.8 80.7,41.4 92.6,41 104.7,40.5 117,40 129.4,39.6 142.1,39.2 154.9,39.1 155,40.8 142.4,43 129.9,44.9 117.5,46.6 105.3,48 93.3,49.4 81.4,50.7 69.6,51.9 58,53 46.6,54 35.3,54.9 " />
<polygon points="35.3,54.9 34.6,42.9 32.6,43 " />
<polygon points="35.3,54.9 37.4,57.8 41.1,51.6 " />
<polygon points="121.2,23.4 127.4,24.7 133.3,26.3 138.7,28.1 143.8,30.1 148.6,32.3 153.1,34.7 157.2,37.2 161,39.9 164.5,42.8 167.7,45.8 158.4,53.4 156.4,50.7 153.9,47.9 151.1,45.2 147.9,42.4 144.3,39.6 140.3,36.8 135.9,34 131.1,31.1 126,28.2 120.6,25.1 " />
<polygon points="167.7,45.8 169,50.2 166.9,54.3 162.5,55.5 158.4,53.4 " />
<polygon points="54.9,60.4 52.8,64 50.7,67.5 48.4,71 46,74.5 43.6,77.9 41.1,81.3 38.4,84.7 35.7,88 32.7,91.2 29.7,94.4 28.2,93.5 30,89.5 31.6,85.5 33.3,81.6 34.9,77.7 36.6,73.9 38.2,70.1 39.7,66.4 41.3,62.7 42.7,59 44.1,55.3 " />
<polygon points="44.1,55.3 54.9,60.4 44.6,54.1 " />
<polygon points="54.9,60.4 56.8,63.5 49.7,64.6 " />
<polygon points="15.8,89.9 20.8,89.2 25.9,88.5 31.1,87.7 36.4,86.9 41.7,86 47.1,85.2 52.6,84.3 58.2,83.4 63.9,82.7 69.7,82.1 70.2,83.8 64.9,86.3 59.6,88.6 54.2,90.6 49,92.5 43.7,94.3 38.5,95.9 33.3,97.5 28.2,99 23.1,100.3 18.1,101.7 " />
<polygon points="18.1,101.7 15.8,89.9 13.8,90.2 " />
<polygon points="18.1,101.7 20.6,104.2 23.4,97.6 " />
<polygon points="58.3,66 60.7,68.1 63.3,69.8 65.7,71.7 67.9,73.6 70,75.6 71.9,77.6 73.6,79.7 75.2,81.8 76.6,84 77.8,86.3 66.3,89.8 66.2,88 65.8,86.1 65.3,84.1 64.7,82 63.8,79.7 62.8,77.4 61.7,75 60.4,72.4 58.9,69.7 57,67.3 " />
<polygon points="77.8,86.3 77.3,90.9 73.8,93.8 69.3,93.3 66.3,89.8 " />
<polygon points="157.3,57.9 155.7,61.1 154,64.4 152.2,67.7 150.3,71 148.2,74.4 146,77.8 143.7,81.2 141.2,84.6 138.4,87.9 135.7,91.4 134.2,90.5 135.7,86.4 137.1,82.4 138.5,78.5 139.8,74.7 141,71 142.2,67.4 143.3,63.9 144.3,60.5 145.2,57.1 146,53.9 " />
<polygon points="146,53.9 157.3,57.9 146.5,52.4 " />
<polygon points="157.3,57.9 159.4,60.8 152.4,62.5 " />
<polygon points="127,85.9 131.8,85.4 136.6,85 141.3,84.6 145.9,84.2 150.5,83.8 155,83.5 159.5,83.2 164,83 168.4,83 172.8,83.1 173.1,84.8 169,86.5 164.9,88 160.6,89.4 156.3,90.7 151.9,92 147.4,93.2 142.9,94.4 138.3,95.5 133.6,96.6 128.9,97.7 " />
<polygon points="128.9,97.7 127,85.9 125,86.2 " />
<polygon points="128.9,97.7 131.3,100.4 134.3,93.8 " />
<polygon points="162.3,65 165.4,67.3 168.6,69.5 171.5,71.7 174.2,74 176.7,76.4 179,78.8 181.1,81.2 183.1,83.8 184.8,86.3 186.4,88.9 175.3,93.4 174.7,91.1 173.9,88.7 173,86.2 171.9,83.7 170.5,81 169,78.2 167.3,75.3 165.5,72.4 163.5,69.3 161.1,66.3 " />
<polygon points="186.4,88.9 186.3,93.5 183.1,96.7 178.5,96.6 175.3,93.4 " />
<polygon points="109.4,65.1 101.9,75.5 93.8,85.4 85.3,94.8 76.3,103.6 66.9,111.8 56.9,119.5 46.5,126.6 35.6,133 24.2,138.8 12.3,143.8 11.6,142.1 22.4,135.4 32.8,128.5 42.8,121.2 52.2,113.5 61.3,105.5 69.8,97 77.9,88 85.5,78.7 92.7,68.8 99.4,58.5 " />
<polygon points="99.4,58.5 109.4,65.1 99.9,57.7 " />
<polygon points="109.4,65.1 110.9,68.4 103.7,68.5 " />
<polygon points="101.3,69.1 110,77 118.5,84.6 126.8,91.7 135,98.2 143.2,104.2 151.4,109.6 159.4,114.5 167.5,118.9 175.5,122.6 183.5,125.9 178.4,138 170,133.9 161.7,129.2 153.6,123.9 145.5,118 137.5,111.6 129.6,104.6 121.9,97 114.3,88.8 107,79.9 99.9,70.3 " />
<polygon points="178.4,138 183.5,125.9 189.9,128.5 " />
<polygon points="29,179 174,179 174,183 29,183 " />
<polygon points="174,179 150,181 162,169 " />
<polygon points="58,121 144,121 144,125 58,125 " />
<polygon points="144,121 120,123 132,111 " />
<polygon points="58,148 143,148 143,152 58,152 " />
<polygon points="143,148 119,150 131,138 " />
</g>
</svg>
