<svg xmlns="http://www.w3.org/2000/svg" xmlns:xlink="http://www.w3.org/1999/xlink" version="1.1" baseProfile="full" viewBox="0 0 200 200" width="200" height="200">
<g fill="black">
<polygon points="57,66 57,143 45,149 45,60 " />
<polygon points="51,66 155,66 155,70 51,70 " />
<polygon points="161,68 161,133 149,139 149,68 " />
<polygon points="149,66 155,61 166,70 161,74 149,68 " />
<polygon points="48,95 155,95 155,99 48,99 " />
<polygon points="109,17 109,131 97,131 97,15 " />
<polygon points="109,17 112,19 109,21 " />
<polygon points="51,127 155,127 155,131 51,131 " />
<polygon points="25,42 182,42 182,46 25,46 " />
<polygon points="182,42 158,44 170,32 " />
<polygon points="35.4,172.9 44.4,172.3 54,171.6 64.2,170.6 75,169.5 86.3,168.2 98.2,166.8 110.7,165.2 123.8,163.5 137.5,161.8 151.8,160.1 152.1,161.8 138.2,165.5 124.7,168.8 111.8,171.7 99.4,174.3 87.6,176.6 76.3,178.7 65.5,180.6 55.3,182.2 45.6,183.6 36.5,184.8 " />
<polygon points="36.5,184.8 35.4,172.9 33.4,173.1 " />
<polygon points="36.5,184.8 38.7,187.6 42.2,181.3 " />
<polygon points="129.3,138.8 135.7,142.1 141.7,145.7 147.2,149.5 152.3,153.4 157,157.5 161.2,161.7 165.1,166 168.5,170.5 171.6,175.1 174.2,179.8 163.2,184.6 161.6,180.5 159.5,176.2 157,172 154.1,167.7 150.8,163.3 147,158.9 142.9,154.4 138.4,149.9 133.5,145.1 128.3,140.3 " />
<polygon points="174.2,179.8 174.3,184.4 171.2,187.7 166.6,187.7 163.2,184.6 " />
<polygon points="91.6,129 90.5,131.2 88.3,135.6 86,140 83.5,144.4 80.9,148.8 78.2,153.2 75.3,157.6 72.3,161.9 69,166.2 65.5,170.4 61.7,174.4 60.2,173.5 62.3,168.3 64.4,163.4 66.6,158.6 68.7,153.9 70.7,149.2 72.6,144.6 74.5,140.1 76.2,135.5 77.9,131.1 78.6,129 " />
</g>
</svg>
