<svg xmlns="http://www.w3.org/2000/svg" xmlns:xlink="http://www.w3.org/1999/xlink" version="1.1" baseProfile="full" viewBox="0 0 200 200" width="200" height="200">
<g fill="black">
<polygon points="14,28 184,28 184,32 14,32 " />
<polygon points="184,28 160,30 172,18 " />
<polygon points="43,28 43,153 31,153 31,28 " />
<polygon points="37,65 80,65 80,69 37,69 " />
<polygon points="37,106 80,106 80,110 37,110 " />
<polygon points="14.2,151.9 20.4,150.5 26.6,149 33,147.7 39.4,146.3 45.9,145 52.4,143.8 59.1,142.6 65.9,141.6 72.7,140.7 79.7,140.1 80.2,141.8 73.6,144.4 67.1,146.8 60.7,149 54.3,151.1 48,153.2 41.8,155.3 35.6,157.3 29.5,159.4 23.5,161.4 17.6,163.4 " />
<polygon points="17.6,163.4 14.2,151.9 12.3,152.5 " />
<polygon points="17.6,163.4 20.3,165.8 22.5,158.9 " />
<polygon points="86,28 86,182 74,188 74,28 " />
<polygon points="80,65 169,65 169,69 80,69 " />
<polygon points="174.8,68.3 169.8,85.6 164.1,101.7 157.5,116.6 150.1,130.3 142,142.8 133,154.1 123.2,164.1 112.7,172.7 101.4,180 89.4,185.8 88.5,184.1 99.3,176.8 109.3,168.5 118.6,159.4 127.1,149.3 134.9,138.1 142,125.8 148.4,112.4 154,97.9 158.9,82.3 163.1,65.6 " />
<polygon points="163,65 169,60 180,69 175,72 163,77 " />
<polygon points="110,67.8 113.8,83.2 118.2,97.4 123.3,110.6 129.2,122.6 135.9,133.4 143.4,143.2 151.8,152 161,159.7 171,166.3 181.9,172 176,183.9 164.3,176.9 153.6,168.9 144,159.8 135.5,149.6 128,138.4 121.7,126.3 116.6,113.2 112.5,99.1 109.7,84 108.2,68.1 " />
<polygon points="176,183.9 181.9,172 187.4,174.7 " />
</g>
</svg>
