<svg xmlns="http://www.w3.org/2000/svg" xmlns:xlink="http://www.w3.org/1999/xlink" version="1.1" baseProfile="full" viewBox="0 0 200 200" width="200" height="200">
<g fill="black">
<polygon points="106,13.6 106,42.5 94,42.5 94,11.6 " />
<polygon points="106,13.6 109,15.6 104,18.6 " />
<polygon points="31.9,30.1 32.6,35.7 33.1,41 33.2,46.1 32.9,50.7 32.1,55.1 31,59.3 29.4,63.1 27.3,66.6 24.7,69.7 21.6,72.4 15.4,62.1 17.4,61.1 19.3,59.7 21.2,57.9 22.9,55.5 24.6,52.6 26,49.2 27.3,45.2 28.5,40.7 29.5,35.7 30.1,30.1 " />
<polygon points="21.6,72.4 17.1,73 13.4,70.4 12.7,65.8 15.4,62.1 " />
<polygon points="32,39.3 176,39.3 176,43.3 32,43.3 " />
<polygon points="181.1,44.4 179.4,46.3 177.5,48.4 175.5,50.5 173.3,52.7 171,55 168.5,57.3 165.8,59.8 162.9,62.3 159.7,64.9 156.6,67.8 155.3,66.6 157.6,63.1 159.6,59.6 161.5,56.3 163.3,53.2 164.9,50.2 166.4,47.5 167.8,44.9 168.9,42.5 170,40.2 170.8,38.1 " />
<polygon points="170,39.3 176,34.3 187,43.3 182,46.3 170,51.3 " />
<polygon points="77.7,63.7 73.4,67.7 68.8,71.6 63.9,75.3 58.7,78.8 53.1,82.2 47.2,85.4 41,88.4 34.5,91.1 27.6,93.6 20.3,95.8 19.6,94.1 26,90.2 32.1,86.3 37.9,82.6 43.3,78.9 48.4,75.1 53.2,71.3 57.6,67.5 61.7,63.6 65.4,59.6 68.8,55.7 " />
<polygon points="68.2,56.4 77.7,63.7 69.2,55.3 " />
<polygon points="77.7,63.7 78.6,67.2 72.9,66.1 " />
<polygon points="122.2,57.5 128.5,58.9 134.5,60.7 140.2,62.7 145.6,65 150.8,67.4 155.7,69.9 160.4,72.6 164.8,75.4 169,78.4 172.9,81.5 164.6,90.2 161.6,87.1 158.2,83.9 154.6,80.8 150.7,77.7 146.5,74.7 142,71.6 137.3,68.6 132.3,65.6 127,62.4 121.6,59.2 " />
<polygon points="172.9,81.5 174.7,85.7 173.1,90 168.9,91.8 164.6,90.2 " />
<polygon points="107.2,77.3 100.9,84.9 93.8,92.1 86,98.8 77.5,105 68.3,110.7 58.5,116 48,120.8 36.7,125.1 24.8,128.7 12.2,131.8 11.7,130.1 23.6,125.2 34.7,120.1 45.1,114.9 54.8,109.4 63.8,103.6 72,97.5 79.5,91.1 86.2,84.5 92.2,77.5 97.5,70.3 " />
<polygon points="96.9,71.1 107.2,77.3 98,69.6 " />
<polygon points="107.2,77.3 108.5,80.6 102.7,80.2 " />
<polygon points="101.3,76.1 108,81.9 114.8,87.5 121.9,92.7 129.3,97.6 137.1,102.2 145.2,106.4 153.7,110.2 162.7,113.7 172,116.8 181.8,119.6 178.1,132.3 167.9,128.7 158.2,124.7 149,120.2 140.3,115.4 132.1,110.1 124.5,104.4 117.4,98.3 110.8,91.8 105,84.8 99.9,77.3 " />
<polygon points="178.1,132.3 181.8,119.6 189.8,122 " />
<polygon points="45,121.3 143,121.3 143,125.3 45,125.3 " />
<polygon points="147.7,126.9 138.3,137.8 128.1,147.7 117,156.5 105.1,164.4 92.4,171.2 78.9,177 64.6,181.7 49.5,185.4 33.7,187.9 17.1,189.3 16.8,187.5 33,184.2 48.2,180.2 62.6,175.4 76,169.9 88.5,163.6 100.1,156.5 110.9,148.5 120.8,139.8 129.9,130.1 138.2,119.7 " />
<polygon points="137,121.3 143,116.3 154,125.3 149,128.3 137,133.3 " />
<polygon points="68.1,125 73,133.4 78.9,140.8 86,147.3 94.3,153.1 104.1,158.2 115.3,162.5 128.1,166.1 142.3,169 158.1,171.1 175.4,172.4 174.5,185.5 156.5,183.5 140.1,180.6 125.2,176.8 111.8,172.1 99.9,166.6 89.7,160.1 81.1,152.7 74.3,144.4 69.3,135.3 66.4,125.6 " />
<polygon points="174.5,185.5 175.4,172.4 186.4,173.1 " />
</g>
</svg>
