<svg xmlns="http://www.w3.org/2000/svg" xmlns:xlink="http://www.w3.org/1999/xlink" version="1.1" baseProfile="full" viewBox="0 0 200 200" width="200" height="200">
<g fill="black">
<polygon points="106.9,15.8 106.9,37.1 94.9,37.1 94.9,13.8 " />
<polygon points="106.9,15.8 109.9,17.8 106.9,19.8 " />
<polygon points="33.4,28.7 34.1,31.7 35,34.6 35.5,37.5 35.5,40.4 35.2,43.3 34.5,46.2 33.3,49 31.7,51.7 29.8,54.2 27.4,56.5 20.7,46.6 22.5,45.7 24.2,44.7 25.7,43.6 27.1,42.3 28.3,40.8 29.4,39 30.4,36.9 31.1,34.6 31.8,31.9 31.6,29 " />
<polygon points="27.4,56.5 22.9,57.4 19.1,54.9 18.2,50.4 20.7,46.6 " />
<polygon points="30.4,33.1 176.4,33.1 176.4,37.1 30.4,37.1 " />
<polygon points="181,39 179.5,40.1 177.9,41.2 176.1,42.4 174.1,43.8 171.9,45.3 169.6,46.8 167.1,48.5 164.3,50.3 161.3,52.1 158.4,54.4 157.2,53.1 159.6,50.3 161.6,47.4 163.4,44.7 165.1,42.3 166.7,40 168.1,37.9 169.3,35.9 170.3,34.2 171.2,32.6 171.9,31.2 " />
<polygon points="170.4,33.1 176.4,28.1 187.4,37.1 182.4,41.1 176.4,41.1 " />
<polygon points="53.4,56.4 54.8,59.3 56.2,62.1 57,65.1 57.1,68.2 56.6,71.4 55.4,74.5 53.5,77.4 51.1,80.2 48.2,82.8 44.7,85.2 39.4,74.5 42.3,73.4 44.7,72.2 46.8,70.9 48.5,69.7 49.8,68.3 50.9,66.7 51.8,64.8 52.3,62.6 52.5,59.9 51.8,57.1 " />
<polygon points="44.7,85.2 40.2,85.5 36.7,82.5 36.4,78 39.4,74.5 " />
<polygon points="165.4,60.2 161.8,61.7 157.9,63.3 153.6,65 148.9,66.8 143.8,68.6 138.4,70.5 132.6,72.5 126.4,74.5 119.7,76.4 112.6,78.3 111.9,76.6 118.3,72.9 124.3,69.6 130,66.5 135.4,63.6 140.4,60.9 145,58.3 149.3,55.9 153.2,53.7 156.7,51.6 159.8,49.6 " />
<polygon points="159.8,49.6 165.4,60.2 167.9,58.9 " />
<polygon points="167.9,58.9 168.1,62.2 160.7,59.3 " />
<polygon points="105.5,39.4 104.5,52.5 101.6,64.6 96.8,75.7 90.2,85.4 81.9,94 71.9,101.2 60.3,107.1 47.1,111.8 32.3,115.2 15.9,117.3 15.6,115.5 31.4,111.5 45.3,106.8 57.4,101.2 67.7,94.9 76.2,87.7 82.9,79.8 87.9,71.1 91.3,61.6 93.2,51.1 93.5,39.5 " />
<polygon points="93.5,39.5 105.5,39.4 93.4,37.2 " />
<polygon points="105.5,39.4 108.5,41.3 102.6,45.4 " />
<polygon points="105.2,44.2 106.6,54.4 109.2,63.5 112.9,71.6 118,78.7 124.3,85.1 132.1,90.7 141.3,95.7 152.1,99.9 164.5,103.4 178.5,106.2 176.1,119.2 161.3,115.5 148.1,111 136.4,105.5 126.3,99.2 117.9,91.9 111.3,83.7 106.4,74.8 103.5,65.1 102.5,54.8 103.4,44.1 " />
<polygon points="176.1,119.2 178.5,106.2 187.9,107.9 " />
<polygon points="45,114 143,114 143,118 45,118 " />
<polygon points="147.9,119.4 138.5,131.3 128.3,142.1 117.2,151.9 105.3,160.5 92.5,168 79,174.4 64.7,179.6 49.6,183.7 33.7,186.6 17.1,188.2 16.8,186.4 33,182.9 48.2,178.5 62.5,173.4 75.9,167.5 88.4,160.6 100,152.8 110.7,144.2 120.7,134.6 129.7,124.1 138,112.6 " />
<polygon points="137,114 143,109 154,118 149,122 143,122 " />
<polygon points="68.1,117.8 73,127.1 79,135.4 86.1,142.7 94.5,149.1 104.3,154.7 115.5,159.5 128.2,163.5 142.4,166.6 158.2,168.9 175.4,170.4 174.5,183.5 156.5,181.3 140,178.2 125.1,174.1 111.6,169 99.8,162.9 89.5,155.8 81,147.8 74.2,138.8 69.3,129 66.4,118.4 " />
<polygon points="174.5,183.5 175.4,170.4 186.3,171.2 " />
</g>
</svg>
