<svg xmlns="http://www.w3.org/2000/svg" xmlns:xlink="http://www.w3.org/1999/xlink" version="1.1" baseProfile="full" viewBox="0 0 200 200" width="200" height="200">
<g fill="black">
<polygon points="14,28 115,28 115,32 14,32 " />
<polygon points="115,28 91,30 103,18 " />
<polygon points="43,28 43,153 31,153 31,28 " />
<polygon points="86,28 86,182 74,188 74,28 " />
<polygon points="37,65 80,65 80,69 37,69 " />
<polygon points="37,106 80,106 80,110 37,110 " />
<polygon points="14.2,151.9 20.4,150.5 26.6,149 33,147.7 39.4,146.3 45.9,145 52.4,143.8 59.1,142.6 65.9,141.6 72.7,140.7 79.7,140.1 80.2,141.8 73.6,144.4 67.1,146.8 60.7,149 54.3,151.1 48,153.2 41.8,155.3 35.6,157.3 29.5,159.4 23.5,161.4 17.6,163.4 " />
<polygon points="17.6,163.4 14.2,151.9 12.3,152.5 " />
<polygon points="17.6,163.4 20.3,165.8 22.5,158.9 " />
<polygon points="83,46 169,46 169,50 83,50 " />
<polygon points="174.8,49.1 169.9,69.3 164.1,88 157.6,105.4 150.3,121.3 142.1,135.8 133.2,148.9 123.4,160.5 112.9,170.6 101.5,179 89.4,185.7 88.5,184.2 99.2,175.9 109.2,166.6 118.5,156.2 127,144.5 134.8,131.6 141.9,117.3 148.3,101.7 153.9,84.8 158.9,66.4 163.1,46.8 " />
<polygon points="163,46 169,41 180,50 175,54 169,54 " />
<polygon points="110,46.8 113.8,65.4 118.2,82.5 123.4,98.4 129.3,112.9 136.1,126 143.7,137.8 152.1,148.3 161.3,157.5 171.4,165.5 182.2,172.2 175.7,183.7 163.9,175.5 153.2,166.1 143.7,155.4 135.2,143.5 127.9,130.4 121.6,116.1 116.5,100.6 112.5,83.9 109.7,66.1 108.2,47 " />
<polygon points="175.7,183.7 182.2,172.2 186.8,174.9 " />
</g>
</svg>
