<svg xmlns="http://www.w3.org/2000/svg" xmlns:xlink="http://www.w3.org/1999/xlink" version="1.1" baseProfile="full" viewBox="0 0 200 200" width="200" height="200">
<g fill="black">
<polygon points="48.1,24.2 48.1,89.7 36.1,95.7 36.1,18.2 " />
<polygon points="42.1,24.2 155.8,24.2 155.8,28.2 42.1,28.2 " />
<polygon points="161.8,26.2 161.8,86.7 149.8,92.7 149.8,26.2 " />
<polygon points="149.8,24.2 155.8,19.2 166.8,28.2 161.8,32.2 149.8,26.2 " />
<polygon points="42.1,78.7 155.8,78.7 155.8,82.7 42.1,82.7 " />
<polygon points="31.1,106.2 166.8,106.2 166.8,110.2 31.1,110.2 " />
<polygon points="172.8,108.1 172.8,118.9 172.3,128.9 171.3,138 169.9,146.4 167.9,154 165.4,160.8 162.4,166.9 158.7,172.2 154.3,176.6 149.3,180.1 143.5,169.6 146.6,167.4 149.4,164.5 152.1,160.8 154.4,156.1 156.5,150.5 158.1,143.9 159.4,136.4 160.3,128 160.8,118.6 160.8,108.4 " />
<polygon points="160.8,106.2 166.8,101.2 177.8,110.2 172.8,113.2 160.8,118.2 " />
<polygon points="149.3,180.1 144.7,180.5 141.1,177.7 140.7,173.2 143.5,169.6 " />
<polygon points="149.3,180.1 147.3,181.1 145.2,182.1 143.1,182.9 141,183.6 138.8,184.2 136.6,184.8 134.4,185.1 132.2,185.4 129.9,185.6 127.6,185.6 127.6,173.6 129.3,173.6 131,173.5 132.6,173.3 134.2,173 135.8,172.6 137.4,172.2 138.9,171.6 140.5,171 142,170.3 143.5,169.6 " />
<polygon points="127.6,179.6 127.6,173.6 107.6,173.6 107.6,176.6 " />
<polygon points="103.4,83.1 103.4,95.2 91.4,95.2 91.4,81.1 " />
<polygon points="103.4,83.1 106.4,85.1 101.4,88.1 " />
<polygon points="103.4,95.2 101,98.8 97.4,101.2 93.8,98.8 91.4,95.2 " />
<polygon points="103.4,95.2 102.3,108.3 99.6,120.6 95.3,132.1 89.3,142.6 81.8,152.1 72.8,160.5 62.4,168 50.5,174.4 37.1,179.8 22.3,184.1 21.8,182.4 35.7,176.3 47.9,169.7 58.7,162.6 67.8,154.9 75.4,146.5 81.4,137.6 86.1,128.1 89.2,117.8 91,106.9 91.4,95.2 " />
</g>
</svg>
