<svg xmlns="http://www.w3.org/2000/svg" xmlns:xlink="http://www.w3.org/1999/xlink" version="1.1" baseProfile="full" viewBox="0 0 200 200" width="200" height="200">
<g fill="black">
<polygon points="55.4,24.7 55.4,94.2 43.4,100.2 43.4,18.7 " />
<polygon points="49.4,24.7 147.5,24.7 147.5,28.7 49.4,28.7 " />
<polygon points="153.5,26.7 153.5,88.2 141.5,94.2 141.5,26.7 " />
<polygon points="141.5,24.7 147.5,19.7 158.5,28.7 153.5,32.7 141.5,26.7 " />
<polygon points="49.4,78.2 147.5,78.2 147.5,82.2 49.4,82.2 " />
<polygon points="35.8,114.4 165.4,114.4 165.4,118.4 35.8,118.4 " />
<polygon points="171.4,116.2 171.4,126.5 171.1,135.8 170.4,144.3 169.4,152 168,158.9 166.2,165 163.8,170.3 160.9,174.9 157.3,178.6 152.9,181.3 148.1,170.3 149.7,169.3 151.5,167.5 153.2,164.7 154.9,160.9 156.4,156 157.6,150 158.5,143.1 159.1,135.2 159.4,126.3 159.4,116.5 " />
<polygon points="159.4,114.4 165.4,109.4 176.4,118.4 171.4,121.4 159.4,126.4 " />
<polygon points="152.9,181.3 148.3,181.3 145,178.2 145,173.6 148.1,170.3 " />
<polygon points="152.9,181.3 150.8,182.2 148.8,182.9 146.6,183.6 144.5,184.2 142.4,184.7 140.2,185.1 138,185.4 135.8,185.6 133.6,185.8 131.3,185.8 131.3,173.8 133.1,173.8 134.8,173.7 136.5,173.5 138.2,173.3 139.9,173 141.6,172.6 143.2,172.1 144.8,171.6 146.5,171 148.1,170.3 " />
<polygon points="131.3,179.8 131.3,173.8 111.3,173.8 111.3,176.8 " />
<polygon points="97.2,116.4 97.2,116.6 95.7,128.3 92.6,139.1 87.9,148.8 81.8,157.5 74.2,165 65.2,171.4 54.9,176.6 43.2,180.7 30.3,183.6 16.1,185.3 15.8,183.5 29.4,179.9 41.5,175.6 52,170.7 61,165.1 68.5,158.7 74.5,151.7 79.1,144 82.4,135.6 84.4,126.3 85.1,116.4 " />
</g>
</svg>
