<svg xmlns="http://www.w3.org/2000/svg" xmlns:xlink="http://www.w3.org/1999/xlink" version="1.1" baseProfile="full" viewBox="0 0 200 200" width="200" height="200">
<g fill="black">
<polygon points="38,34 38,181 26,187 26,28 " />
<polygon points="32,34 84,34 84,38 32,38 " />
<polygon points="90,36 90,175 78,181 78,36 " />
<polygon points="78,34 84,29 95,38 90,42 78,36 " />
<polygon points="32,165 84,165 84,169 32,169 " />
<polygon points="122,34 122,181 110,187 110,28 " />
<polygon points="116,34 168,34 168,38 116,38 " />
<polygon points="174,36 174,175 162,181 162,36 " />
<polygon points="162,34 168,29 179,38 174,42 162,36 " />
<polygon points="116,165 168,165 168,169 116,169 " />
</g>
</svg>
