<svg xmlns="http://www.w3.org/2000/svg" xmlns:xlink="http://www.w3.org/1999/xlink" version="1.1" baseProfile="full" viewBox="0 0 200 200" width="200" height="200">
<g fill="black">
<polygon points="61.8,26 61.8,181 49.8,187 49.8,20 " />
<polygon points="55.8,26 144.2,26 144.2,30 55.8,30 " />
<polygon points="150.2,28 150.2,170 138.2,170 138.2,28 " />
<polygon points="138.2,26 144.2,21 155.2,30 150.2,34 138.2,28 " />
<polygon points="150.2,170 147.7,173.6 144.2,176 140.6,173.6 138.2,170 " />
<polygon points="150.2,170 150,172.5 149.6,175 148.8,177.4 147.5,179.7 145.9,181.7 143.9,183.3 141.6,184.6 139.2,185.4 136.7,185.8 134.2,186 134.2,174 135.4,173.9 136.3,173.7 136.9,173.5 137.2,173.4 137.4,173.2 137.6,173 137.7,172.7 137.9,172.1 138.1,171.2 138.2,170 " />
<polygon points="134.2,180 134.2,174 114.2,174 114.2,177 " />
<polygon points="70,59 130,59 130,63 70,63 " />
<polygon points="130,59 106,61 118,49 " />
<polygon points="88.6,88.4 88.6,152.5 76.6,158.5 76.6,82.4 " />
<polygon points="82.6,88.4 117.4,88.4 117.4,92.4 82.6,92.4 " />
<polygon points="123.4,90.4 123.4,146.5 111.4,152.5 111.4,90.4 " />
<polygon points="111.4,88.4 117.4,83.4 128.4,92.4 123.4,96.4 111.4,90.4 " />
<polygon points="82.6,136.5 117.4,136.5 117.4,140.5 82.6,140.5 " />
</g>
</svg>
