<svg xmlns="http://www.w3.org/2000/svg" xmlns:xlink="http://www.w3.org/1999/xlink" version="1.1" baseProfile="full" viewBox="0 0 200 200" width="200" height="200">
<g fill="black">
<polygon points="53,27.2 53,85.7 41,91.7 41,21.2 " />
<polygon points="47,27.2 151.9,27.2 151.9,31.2 47,31.2 " />
<polygon points="157.9,29.2 157.9,82.7 145.9,88.7 145.9,29.2 " />
<polygon points="145.9,27.2 151.9,22.2 162.9,31.2 157.9,35.2 145.9,29.2 " />
<polygon points="47,74.7 151.9,74.7 151.9,78.7 47,78.7 " />
<polygon points="32,99.6 168,99.6 168,103.6 32,103.6 " />
<polygon points="168,99.6 144,101.6 156,89.6 " />
<polygon points="18,130.9 182,130.9 182,134.9 18,134.9 " />
<polygon points="182,130.9 158,132.9 170,120.9 " />
<polygon points="106,99.6 106,125.2 94,125.2 94,99.6 " />
<polygon points="106,125.2 103.6,128.8 100,131.2 96.4,128.8 94,125.2 " />
<polygon points="106,125.2 104.7,134.7 101.4,143.5 96.4,151.6 89.6,158.8 81.2,165.2 71.2,170.9 59.6,175.9 46.4,180.2 31.6,183.8 15.1,186.6 14.8,184.8 30.6,180.1 44.7,175.1 57,169.8 67.5,164.2 76.2,158.3 83.1,152.1 88.2,145.7 91.7,139.1 93.5,132.4 94,125.2 " />
<polygon points="107.2,133.5 111.1,138.9 115.5,144 120.4,148.8 126.1,153.4 132.4,157.6 139.6,161.6 147.6,165.3 156.5,168.8 166.2,172 176.8,175 173.1,187.6 162.2,183.9 152.1,179.8 142.9,175.3 134.5,170.5 127.1,165.3 120.7,159.7 115.2,153.8 110.7,147.6 107.5,141 105.5,134.2 " />
<polygon points="173.1,187.6 176.8,175 184.8,177.2 " />
</g>
</svg>
