<svg xmlns="http://www.w3.org/2000/svg" xmlns:xlink="http://www.w3.org/1999/xlink" version="1.1" baseProfile="full" viewBox="0 0 200 200" width="200" height="200">
<g fill="black">
<polygon points="80.9,26.1 80.9,91.8 68.9,97.8 68.9,20.1 " />
<polygon points="74.9,26.1 155,26.1 155,30.1 74.9,30.1 " />
<polygon points="161,28.1 161,85.8 149,91.8 149,28.1 " />
<polygon points="149,26.1 155,21.1 166,30.1 161,34.1 149,28.1 " />
<polygon points="74.9,75.8 155,75.8 155,79.8 74.9,79.8 " />
<polygon points="18,139 188,139 188,143 18,143 " />
<polygon points="188,139 164,141 176,129 " />
<polygon points="93.9,159.2 88.4,163.2 82.6,166.9 76.5,170.4 70.3,173.7 63.7,176.9 57,179.8 49.9,182.5 42.7,184.9 35.1,187.1 27.2,188.8 26.7,187.1 33.8,183.5 40.6,180 47.3,176.5 53.6,173 59.8,169.4 65.6,165.7 71.2,161.9 76.6,158 81.6,154 86.4,149.9 " />
<polygon points="85.6,150.5 93.9,159.2 86.5,149.8 " />
<polygon points="93.9,159.2 94.3,162.8 88.8,160.8 " />
<polygon points="116.1,154.3 123.1,155.2 129.7,156.5 136,158.2 142,160.2 147.6,162.5 153,165 158,167.8 162.7,170.8 167.2,174.1 171.2,177.6 162.5,185.9 159.5,182.5 156.1,179.2 152.3,176 148.2,173 143.7,170 138.8,167.1 133.6,164.3 128,161.6 122,158.9 115.7,156.1 " />
<polygon points="171.2,177.6 172.8,181.9 171,186.1 166.7,187.7 162.5,185.9 " />
<polygon points="47,35 47,122 35,128 35,33 " />
<polygon points="47,35 50,37 45,40 " />
<polygon points="41,106 147,106 147,110 41,110 " />
<polygon points="153,108 153,143 141,143 141,108 " />
<polygon points="141,106 147,101 158,110 153,114 141,108 " />
</g>
</svg>
