<svg xmlns="http://www.w3.org/2000/svg" xmlns:xlink="http://www.w3.org/1999/xlink" version="1.1" baseProfile="full" viewBox="0 0 200 200" width="200" height="200">
<g fill="black">
<polygon points="67.2,29 64.4,35.3 61.2,41.5 57.7,47.4 54,53.2 49.9,58.8 45.5,64.3 40.8,69.5 35.8,74.5 30.4,79.2 24.6,83.6 23.3,82.3 27.6,76.6 31.8,70.9 35.7,65.4 39.4,59.8 42.8,54.1 46,48.4 48.9,42.6 51.5,36.8 53.9,30.8 56,24.8 " />
<polygon points="55.6,25.7 67.2,29 56.5,23.4 " />
<polygon points="67.2,29 69.3,31.9 63.6,33 " />
<polygon points="48,48 164,48 164,52 48,52 " />
<polygon points="164,48 140,50 152,38 " />
<polygon points="106,19 106,98.3 94,98.3 94,17 " />
<polygon points="106,19 109,21 104,24 " />
<polygon points="16,94.3 184,94.3 184,98.3 16,98.3 " />
<polygon points="184,94.3 160,96.3 172,84.3 " />
<polygon points="57.8,121 57.8,179 45.8,185 45.8,115 " />
<polygon points="51.8,121 148.1,121 148.1,125 51.8,125 " />
<polygon points="154.1,123 154.1,176 142.1,182 142.1,123 " />
<polygon points="142.1,121 148.1,116 159.1,125 154.1,129 142.1,123 " />
<polygon points="51.8,168 148.1,168 148.1,172 51.8,172 " />
</g>
</svg>
