<svg xmlns="http://www.w3.org/2000/svg" xmlns:xlink="http://www.w3.org/1999/xlink" version="1.1" baseProfile="full" viewBox="0 0 200 200" width="200" height="200">
<g fill="black">
<polygon points="55,27 55,92 43,98 43,21 " />
<polygon points="49,27 151,27 151,31 49,31 " />
<polygon points="157,29 157,86 145,92 145,29 " />
<polygon points="145,27 151,22 162,31 157,35 145,29 " />
<polygon points="49,76 151,76 151,80 49,80 " />
<polygon points="106.4,78 105.6,79.8 104.2,82.9 102.6,86.1 100.8,89.5 98.9,92.9 96.9,96.4 94.6,100 92.2,103.7 89.6,107.5 86.7,111.4 83.7,115.4 82.2,114.5 83.9,109.9 85.4,105.3 86.8,101 88.2,96.9 89.5,93 90.7,89.3 91.8,85.7 92.8,82.3 93.6,79.1 93.8,78 " />
<polygon points="44,113 44,180 32,186 32,107 " />
<polygon points="38,113 162,113 162,117 38,117 " />
<polygon points="168,115 168,177 156,183 156,115 " />
<polygon points="156,113 162,108 173,117 168,121 156,115 " />
<polygon points="38,169 162,169 162,173 38,173 " />
</g>
</svg>
