<svg xmlns="http://www.w3.org/2000/svg" xmlns:xlink="http://www.w3.org/1999/xlink" version="1.1" baseProfile="full" viewBox="0 0 200 200" width="200" height="200">
<g fill="black">
<polygon points="64.4,15.6 61.3,24.3 57.7,32.7 53.7,40.9 49.3,48.8 44.5,56.4 39.2,63.7 33.5,70.7 27.4,77.4 20.7,83.7 13.6,89.6 12.3,88.3 18,81.1 23.3,74 28.3,66.8 33,59.4 37.3,52 41.2,44.4 44.7,36.6 47.8,28.6 50.6,20.5 52.9,12.2 " />
<polygon points="52.6,13.2 64.4,15.6 53.4,10.6 " />
<polygon points="64.4,15.6 66.7,18.4 61.1,19.8 " />
<polygon points="52,32 101,32 101,36 52,36 " />
<polygon points="106.6,35.9 101,49.5 94.4,62.2 87.1,74 78.9,85.1 69.8,95.3 60,104.6 49.3,113.1 37.8,120.7 25.5,127.2 12.3,132.8 11.6,131.1 23.6,123.9 34.8,116.2 45.2,107.9 54.8,99.1 63.6,89.6 71.5,79.4 78.6,68.6 85,57.1 90.5,44.9 95.3,32 " />
<polygon points="95,32 101,27 112,36 107,39 95,44 " />
<polygon points="50.1,40.7 56.1,53.9 63.4,65.5 72.1,75.5 82.2,84 93.8,91.1 107,96.8 121.9,101 138.4,103.9 156.8,105.3 176.8,105.4 177.1,118.5 156.1,117.9 136.8,115.6 119.2,111.8 103.3,106.3 89.2,99.3 77,90.6 66.8,80.4 58.5,68.7 52.3,55.6 48.4,41.2 " />
<polygon points="177.1,118.5 176.8,105.4 188.5,105.1 " />
<polygon points="151.6,18.2 148.8,28.2 145.6,37.6 141.8,46.5 137.5,54.9 132.8,62.6 127.5,69.8 121.8,76.3 115.5,82.2 108.7,87.3 101.5,91.7 100.4,90.2 106.3,84.4 111.7,78.4 116.8,72.1 121.4,65.4 125.5,58.2 129.2,50.7 132.5,42.7 135.4,34.1 137.9,25.2 139.9,15.7 " />
<polygon points="139.7,16.6 151.6,18.2 140.3,13.8 " />
<polygon points="151.6,18.2 154.1,20.8 148.6,22.7 " />
<polygon points="137.3,48.7 142.7,50.8 147.9,53.3 152.8,56.1 157.5,59.1 161.9,62.3 166,65.7 170,69.3 173.7,73.1 177.1,77 180.3,81.2 170.3,87.7 167.9,83.8 165.3,79.9 162.5,76 159.5,72.3 156.2,68.6 152.6,64.9 148.9,61.3 144.9,57.7 140.7,54 136.4,50.2 " />
<polygon points="180.3,81.2 181.1,85.7 178.6,89.5 174.1,90.2 170.3,87.7 " />
<polygon points="56.1,127.3 56.1,183.6 44.1,189.6 44.1,121.3 " />
<polygon points="50.1,127.3 149.8,127.3 149.8,131.3 50.1,131.3 " />
<polygon points="155.8,129.3 155.8,180.6 143.8,186.6 143.8,129.3 " />
<polygon points="143.8,127.3 149.8,122.3 160.8,131.3 155.8,135.3 143.8,129.3 " />
<polygon points="50.1,172.6 149.8,172.6 149.8,176.6 50.1,176.6 " />
</g>
</svg>
