<svg xmlns="http://www.w3.org/2000/svg" xmlns:xlink="http://www.w3.org/1999/xlink" version="1.1" baseProfile="full" viewBox="0 0 200 200" width="200" height="200">
<g fill="black">
<polygon points="62,21 62,56 50,62 50,15 " />
<polygon points="56,21 146,21 146,25 56,25 " />
<polygon points="152,23 152,55 140,61 140,23 " />
<polygon points="140,21 146,16 157,25 152,29 140,23 " />
<polygon points="56,49 146,49 146,53 56,53 " />
<polygon points="54,71 54,155 42,161 42,65 " />
<polygon points="48,71 154,71 154,75 48,75 " />
<polygon points="160,73 160,150 148,156 148,73 " />
<polygon points="148,71 154,66 165,75 160,79 148,73 " />
<polygon points="48,95 154,95 154,99 48,99 " />
<polygon points="48,119 154,119 154,123 48,123 " />
<polygon points="48,144 154,144 154,148 48,148 " />
<polygon points="89.1,164.6 83.1,167.7 77,170.6 70.7,173.4 64.3,176.1 57.7,178.7 51,181.1 44.1,183.4 37,185.5 29.7,187.3 22.2,188.8 21.7,187.1 28.4,183.7 35.1,180.5 41.6,177.3 48,174.1 54.3,170.9 60.3,167.7 66.3,164.5 72,161.1 77.6,157.7 83.1,154.3 " />
<polygon points="83.1,154.3 89.1,164.6 90.8,163.6 " />
<polygon points="90.8,163.6 91,167 83.8,164.3 " />
<polygon points="115.1,157.3 122.7,158.4 129.8,159.8 136.4,161.4 142.7,163.3 148.7,165.4 154.2,167.7 159.4,170.1 164.2,172.7 168.6,175.5 172.7,178.5 164.7,187.4 161.7,184.5 158.2,181.6 154.3,178.8 149.9,175.9 145.1,173.1 139.9,170.4 134.2,167.6 128.1,164.9 121.6,162 114.7,159.1 " />
<polygon points="172.7,178.5 174.6,182.6 173.2,187 169,188.9 164.7,187.4 " />
</g>
</svg>
