<svg xmlns="http://www.w3.org/2000/svg" xmlns:xlink="http://www.w3.org/1999/xlink" version="1.1" baseProfile="full" viewBox="0 0 200 200" width="200" height="200">
<g fill="black">
<polygon points="41,36 41,184 29,190 29,30 " />
<polygon points="35,36 166,36 166,40 35,40 " />
<polygon points="172,38 172,178 160,184 160,38 " />
<polygon points="160,36 166,31 177,40 172,44 160,38 " />
<polygon points="35,168 166,168 166,172 35,172 " />
<polygon points="79,73 79,143 67,149 67,67 " />
<polygon points="73,73 127,73 127,77 73,77 " />
<polygon points="133,75 133,137 121,143 121,75 " />
<polygon points="121,73 127,68 138,77 133,81 121,75 " />
<polygon points="73,127 127,127 127,131 73,131 " />
</g>
</svg>
