<svg xmlns="http://www.w3.org/2000/svg" xmlns:xlink="http://www.w3.org/1999/xlink" version="1.1" baseProfile="full" viewBox="0 0 200 200" width="200" height="200">
<g fill="black">
<path d="M 36.0 26.0 L 165.0 26.0 L 171.0 21.0 L 182.0 30.0 L 177.0 34.0 L 177.0 179.0 L 165.0 185.0 L 165.0 175.0 L 36.0 175.0 L 36.0 182.0 L 24.0 188.0 L 24.0 20.0 Z M 36.0 30.0 L 36.0 70.0 L 102.0 70.0 L 108.0 65.0 L 119.0 74.0 L 114.0 78.0 L 114.0 136.0 L 102.0 142.0 L 102.0 130.0 L 36.0 130.0 L 36.0 171.0 L 165.0 171.0 L 165.0 30.0 Z M 36.0 74.0 L 36.0 126.0 L 102.0 126.0 L 102.0 74.0 Z " />
</g>
</svg>
