<svg xmlns="http://www.w3.org/2000/svg" xmlns:xlink="http://www.w3.org/1999/xlink" version="1.1" baseProfile="full" viewBox="0 0 200 200" width="200" height="200">
<g fill="black">
<polygon points="41,36 41,184 29,190 29,30 " />
<polygon points="35,36 166,36 166,40 35,40 " />
<polygon points="172,38 172,178 160,184 160,38 " />
<polygon points="160,36 166,31 177,40 172,44 160,38 " />
<polygon points="35,168 166,168 166,172 35,172 " />
<polygon points="79,36 79,172 67,172 67,36 " />
<polygon points="73,80 127,80 127,84 73,84 " />
<polygon points="133,36 133,172 121,172 121,36 " />
<polygon points="73,124 127,124 127,128 73,128 " />
</g>
</svg>
