<svg xmlns="http://www.w3.org/2000/svg" xmlns:xlink="http://www.w3.org/1999/xlink" version="1.1" baseProfile="full" viewBox="0 0 200 200" width="200" height="200">
<g fill="black">
<polygon points="117.1,69.2 113.3,76.6 109,83.6 104.2,90.2 98.9,96.6 93.2,102.6 87,108.2 80.4,113.5 73.2,118.4 65.6,122.8 57.4,126.7 56.5,125.2 63.5,119.6 70,114.1 76.1,108.5 81.8,102.7 87,96.8 91.7,90.7 96,84.5 99.8,78 103.1,71.3 106,64.5 " />
<polygon points="106,64.5 117.1,69.2 106.6,63.2 " />
<polygon points="117.1,69.2 119,72.3 111.9,73.6 " />
<polygon points="48.4,53 48.4,177.7 36.4,183.7 36.4,47 " />
<polygon points="42.4,53 157.3,53 157.3,57 42.4,57 " />
<polygon points="163.3,55 163.3,171.7 151.3,177.7 151.3,55 " />
<polygon points="151.3,53 157.3,48 168.3,57 163.3,61 151.3,55 " />
<polygon points="42.4,161.7 157.3,161.7 157.3,165.7 42.4,165.7 " />
<polygon points="141.1,89.2 137,97.3 132.2,105.1 126.7,112.5 120.6,119.4 113.8,126 106.4,132.1 98.4,137.8 89.7,143 80.4,147.6 70.3,151.8 69.6,150.1 78.5,144.3 86.8,138.4 94.5,132.5 101.5,126.3 107.9,119.9 113.6,113.3 118.7,106.5 123.1,99.4 126.9,92.1 130,84.6 " />
<polygon points="130,84.6 141.1,89.2 130.6,83.3 " />
<polygon points="141.1,89.2 143.1,92.2 136,93.6 " />
<polygon points="64.2,79.6 72.7,82.7 80.9,86.6 88.8,91.3 96.5,96.6 103.9,102.6 111.1,109.1 118.1,116.3 124.8,124 131.2,132.3 137.4,141.2 127.3,147.6 121.9,138.8 116.3,130.6 110.4,122.8 104.4,115.5 98.1,108.8 91.6,102.5 84.9,96.6 78,91.1 70.8,86 63.5,81.2 " />
<polygon points="137.4,141.2 138.1,145.7 135.5,149.5 131,150.2 127.3,147.6 " />
<polygon points="106.5,22 104.2,24.9 101.8,28 99.3,31.2 96.6,34.6 93.7,38 90.7,41.5 87.5,45.2 84.1,48.9 80.5,52.6 76.7,56.5 75.2,55.4 77.7,50.6 80,46 82.4,41.6 84.7,37.4 86.9,33.3 89,29.5 91,25.8 92.9,22.2 94.7,18.8 96.3,15.6 " />
<polygon points="96.3,15.6 106.5,22 96.9,14.8 " />
<polygon points="106.5,22 108,25.3 100.8,25.5 " />
</g>
</svg>
