<svg xmlns="http://www.w3.org/2000/svg" xmlns:xlink="http://www.w3.org/1999/xlink" version="1.1" baseProfile="full" viewBox="0 0 200 200" width="200" height="200">
<g fill="black">
<polygon points="48.4,53 48.4,177.7 36.4,183.7 36.4,47 " />
<polygon points="42.4,53 157.3,53 157.3,57 42.4,57 " />
<polygon points="163.3,55 163.3,171.7 151.3,177.7 151.3,55 " />
<polygon points="151.3,53 157.3,48 168.3,57 163.3,61 151.3,55 " />
<polygon points="42.4,161.7 157.3,161.7 157.3,165.7 42.4,165.7 " />
<polygon points="106.5,22 104.2,24.9 101.8,28 99.3,31.2 96.6,34.6 93.7,38 90.7,41.5 87.5,45.2 84.1,48.9 80.5,52.6 76.7,56.5 75.2,55.4 77.7,50.6 80,46 82.4,41.6 84.7,37.4 86.9,33.3 89,29.5 91,25.8 92.9,22.2 94.7,18.8 96.3,15.6 " />
<polygon points="96.9,14.8 106.5,22 95.8,16.5 " />
<polygon points="106.5,22 108,25.3 102.2,25.2 " />
<polygon points="97.7,67.7 95.6,74.5 93,80.9 90.2,87 87,92.8 83.4,98.2 79.5,103.2 75.2,107.9 70.6,112.1 65.7,115.9 60.3,119.1 59.2,117.6 63.1,113 66.8,108.4 70.2,103.7 73.3,98.8 76.2,93.7 78.7,88.5 81,82.9 83,77.2 84.7,71.1 86.1,64.9 " />
<polygon points="86.5,63.1 97.7,67.7 85.8,65.8 " />
<polygon points="97.7,67.7 100.2,70.4 94.6,72.1 " />
<polygon points="87.4,78.9 129.4,78.9 129.4,82.9 87.4,82.9 " />
<polygon points="135.1,82.7 130.8,93.6 125.6,103.7 119.4,113.1 112.3,121.6 104.4,129.4 95.5,136.3 85.8,142.3 75.3,147.5 63.9,151.8 51.6,155.1 51.1,153.4 62.4,148.3 72.9,142.7 82.3,136.8 90.9,130.2 98.5,123.2 105.3,115.6 111.1,107.4 116.1,98.6 120.3,89.2 123.6,79.1 " />
<polygon points="123.4,78.9 129.4,73.9 140.4,82.9 135.4,85.9 123.4,90.9 " />
<polygon points="78.4,98.1 85.6,100 92.6,102.4 99.3,105.1 105.7,108.1 112,111.3 118,114.9 123.8,118.6 129.4,122.6 134.7,126.8 139.8,131.2 131.4,139.7 127.1,135.2 122.5,130.8 117.7,126.6 112.7,122.5 107.4,118.5 101.9,114.6 96.2,110.9 90.2,107.2 84.1,103.5 77.7,99.8 " />
<polygon points="139.8,131.2 141.6,135.5 139.9,139.7 135.6,141.4 131.4,139.7 " />
</g>
</svg>
