<svg xmlns="http://www.w3.org/2000/svg" xmlns:xlink="http://www.w3.org/1999/xlink" version="1.1" baseProfile="full" viewBox="0 0 200 200" width="200" height="200">
<g fill="black">
<polygon points="48.4,53 48.4,177.7 36.4,183.7 36.4,47 " />
<polygon points="42.4,53 157.3,53 157.3,57 42.4,57 " />
<polygon points="163.3,55 163.3,171.7 151.3,177.7 151.3,55 " />
<polygon points="151.3,53 157.3,48 168.3,57 163.3,61 151.3,55 " />
<polygon points="42.4,161.7 157.3,161.7 157.3,165.7 42.4,165.7 " />
<polygon points="106.5,22 104.2,24.9 101.8,28 99.3,31.2 96.6,34.6 93.7,38 90.7,41.5 87.5,45.2 84.1,48.9 80.5,52.6 76.7,56.5 75.2,55.4 77.7,50.6 80,46 82.4,41.6 84.7,37.4 86.9,33.3 89,29.5 91,25.8 92.9,22.2 94.7,18.8 96.3,15.6 " />
<polygon points="96.3,15.6 106.5,22 96.9,14.8 " />
<polygon points="106.5,22 108,25.3 100.8,25.5 " />
<polygon points="101.4,70.7 98.6,76.3 95.4,81.8 91.8,87 87.8,92 83.5,96.8 78.8,101.3 73.7,105.6 68.3,109.7 62.3,113.4 56,116.8 55,115.3 60.1,110.4 64.8,105.6 69.2,100.9 73.3,96.1 77,91.3 80.4,86.4 83.4,81.5 86,76.5 88.3,71.4 90.2,66.2 " />
<polygon points="90.2,66.2 101.4,70.7 90.8,64.9 " />
<polygon points="101.4,70.7 103.4,73.7 96.4,75.1 " />
<polygon points="89.4,79.7 135.2,79.7 135.2,83.7 89.4,83.7 " />
<polygon points="140.9,83.5 136.5,94.6 131.1,104.9 124.7,114.4 117.5,122.9 109.3,130.5 100.3,137.2 90.4,143 79.7,147.8 68.1,151.6 55.7,154.3 55.3,152.5 66.9,148 77.5,142.9 87.1,137.3 95.9,131.1 103.7,124.2 110.5,116.7 116.5,108.6 121.7,99.7 126,90.2 129.5,79.9 " />
<polygon points="129.2,79.7 135.2,74.7 146.2,83.7 141.2,87.7 135.2,87.7 " />
<polygon points="80,96 83.9,97.5 87.7,98.8 91.2,100.3 94.5,101.9 97.6,103.5 100.4,105.3 103,107.1 105.4,109.1 107.5,111.2 109.5,113.4 99.1,119.5 98.4,117.7 97.5,115.8 96.2,113.8 94.7,111.7 92.8,109.5 90.7,107.2 88.2,104.9 85.5,102.5 82.6,99.9 79.2,97.6 " />
<polygon points="109.5,113.4 110,118 107.3,121.6 102.8,122.2 99.1,119.5 " />
</g>
</svg>
