<svg xmlns="http://www.w3.org/2000/svg" xmlns:xlink="http://www.w3.org/1999/xlink" version="1.1" baseProfile="full" viewBox="0 0 200 200" width="200" height="200">
<g fill="black">
<polygon points="36,26 36,182 24,188 24,20 " />
<polygon points="30,26 171,26 171,30 30,30 " />
<polygon points="177,28 177,179 165,185 165,28 " />
<polygon points="165,26 171,21 182,30 177,34 165,28 " />
<polygon points="30,171 171,171 171,175 30,175 " />
<polygon points="71.5,43.7 71.5,76.2 59.5,82.2 59.5,37.7 " />
<polygon points="65.5,43.7 136.5,43.7 136.5,47.7 65.5,47.7 " />
<polygon points="142.5,45.7 142.5,75.2 130.5,81.2 130.5,45.7 " />
<polygon points="130.5,43.7 136.5,38.7 147.5,47.7 142.5,51.7 130.5,45.7 " />
<polygon points="65.5,69.2 136.5,69.2 136.5,73.2 65.5,73.2 " />
<polygon points="107,69.2 107,97 95,97 95,69.2 " />
<polygon points="42.7,93 158.5,93 158.5,97 42.7,97 " />
<polygon points="158.5,93 134.5,95 146.5,83 " />
<polygon points="89.5,118.5 89.5,142.4 78.5,147.9 78.5,113 " />
<polygon points="84,118.5 115.7,118.5 115.7,122.5 84,122.5 " />
<polygon points="121.7,120.5 121.7,142.4 109.7,148.4 109.7,120.5 " />
<polygon points="109.7,118.5 115.7,113.5 126.7,122.5 121.7,126.5 109.7,120.5 " />
<polygon points="84,138.4 115.7,138.4 115.7,142.4 84,142.4 " />
<polygon points="65.9,106.9 65.9,156.3 54.9,161.8 54.9,101.4 " />
<polygon points="60.4,106.9 140.7,106.9 140.7,110.9 60.4,110.9 " />
<polygon points="146.7,108.9 146.7,156.3 134.7,162.3 134.7,108.9 " />
<polygon points="134.7,106.9 140.7,101.9 151.7,110.9 146.7,114.9 134.7,108.9 " />
<polygon points="60.4,152.3 140.7,152.3 140.7,156.3 60.4,156.3 " />
</g>
</svg>
