<svg xmlns="http://www.w3.org/2000/svg" xmlns:xlink="http://www.w3.org/1999/xlink" version="1.1" baseProfile="full" viewBox="0 0 200 200" width="200" height="200">
<g fill="black">
<polygon points="36,26 36,182 24,188 24,20 " />
<polygon points="30,26 171,26 171,30 30,30 " />
<polygon points="177,28 177,179 165,185 165,28 " />
<polygon points="165,26 171,21 182,30 177,34 165,28 " />
<polygon points="30,171 171,171 171,175 30,175 " />
<polygon points="106.7,40.2 103.4,42.7 99.9,45.1 96.4,47.4 92.7,49.8 88.9,52.1 84.9,54.3 80.8,56.5 76.6,58.6 72.1,60.6 67.5,62.5 66.6,61 70.3,57.7 73.8,54.5 77.3,51.4 80.7,48.4 84,45.4 87.2,42.5 90.3,39.7 93.2,36.8 96,34 98.7,31.3 " />
<polygon points="98.7,31.3 106.7,40.2 98.9,31.1 " />
<polygon points="106.7,40.2 107.2,43.8 100.2,42 " />
<polygon points="50.3,56.6 57.9,56.5 65.8,56.4 74,56.4 82.5,56.3 91.2,56.3 100.3,56.3 109.6,56.4 119.1,56.5 129,56.8 139.1,57.3 139.2,59.1 129.2,60.6 119.4,61.9 109.9,62.9 100.6,63.9 91.7,64.8 83,65.6 74.5,66.4 66.4,67.1 58.5,67.9 50.8,68.5 " />
<polygon points="50.8,68.5 50.3,56.6 48.3,56.7 " />
<polygon points="50.8,68.5 53,71.4 56.7,65.3 " />
<polygon points="118,49.3 122.2,50.2 126.3,50.9 130.1,51.6 133.7,52.5 137.1,53.3 140.3,54.2 143.3,55.1 146.1,56.1 148.6,57 151,58 144.6,68.2 143,66.8 141.2,65.3 139.1,63.7 136.7,62.1 134.1,60.4 131.2,58.7 128.1,56.8 124.8,54.9 121.3,52.8 117.4,51 " />
<polygon points="151,58 153.6,61.8 152.9,66.3 149.1,68.9 144.6,68.2 " />
<polygon points="42,78 161,78 161,82 42,82 " />
<polygon points="161,78 137,80 149,68 " />
<polygon points="104.6,61.1 97.5,98.1 85.7,95.8 93.3,56.8 " />
<polygon points="104.6,61.1 107.2,63.6 103.9,65 " />
<polygon points="60.5,94 60.5,164 48.5,170 48.5,88 " />
<polygon points="54.5,94 146.2,94 146.2,98 54.5,98 " />
<polygon points="152.2,96 152.2,164 140.2,170 140.2,96 " />
<polygon points="140.2,94 146.2,89 157.2,98 152.2,102 140.2,96 " />
<polygon points="54.5,160 146.2,160 146.2,164 54.5,164 " />
<polygon points="87.1,94 87.1,164 75.1,164 75.1,94 " />
<polygon points="81.1,116 118.9,116 118.9,120 81.1,120 " />
<polygon points="124.9,94 124.9,164 112.9,164 112.9,94 " />
<polygon points="81.1,138 118.9,138 118.9,142 81.1,142 " />
</g>
</svg>
