<svg xmlns="http://www.w3.org/2000/svg" xmlns:xlink="http://www.w3.org/1999/xlink" version="1.1" baseProfile="full" viewBox="0 0 200 200" width="200" height="200">
<g fill="black">
<polygon points="36,26 147,26 147,30 36,30 " />
<polygon points="152.2,30.8 144.4,43 135.2,54.3 124.7,64.8 113,74.3 100,83 85.7,90.8 70.2,97.7 53.5,103.8 35.4,108.8 16.2,112.8 15.7,111.1 34.4,105.1 51.6,98.7 67.6,91.7 82.2,84.1 95.4,75.9 107.3,67 117.9,57.5 127.1,47.3 135,36.5 141.7,25.1 " />
<polygon points="141,26 147,21 158,30 153,34 147,34 " />
<polygon points="60.1,28.6 66.2,38.9 73.3,48.4 81.5,57.1 91,65 101.8,72.3 114,78.7 127.6,84.5 142.7,89.6 159.2,93.9 177.2,97.5 174.7,110.4 156.2,106 139.1,100.8 123.5,94.7 109.4,87.8 96.8,80.1 85.7,71.5 76.3,62.1 68.5,51.9 62.5,40.9 58.5,29.2 " />
<polygon points="174.7,110.4 177.2,97.5 186.5,99.2 " />
<polygon points="33,131 167,131 167,135 33,135 " />
<polygon points="167,131 143,133 155,121 " />
<polygon points="106,99 106,179 94,179 94,97 " />
<polygon points="106,99 109,101 106,103 " />
<polygon points="18,175 182,175 182,179 18,179 " />
<polygon points="182,175 158,177 170,165 " />
</g>
</svg>
