<svg xmlns="http://www.w3.org/2000/svg" xmlns:xlink="http://www.w3.org/1999/xlink" version="1.1" baseProfile="full" viewBox="0 0 200 200" width="200" height="200">
<g fill="black">
<polygon points="55.6,27 55.6,108.7 43.6,114.7 43.6,21 " />
<polygon points="49.6,27 150.3,27 150.3,31 49.6,31 " />
<polygon points="156.3,29 156.3,102.7 144.3,108.7 144.3,29 " />
<polygon points="144.3,27 150.3,22 161.3,31 156.3,35 144.3,29 " />
<polygon points="49.6,58.9 150.3,58.9 150.3,62.9 49.6,62.9 " />
<polygon points="49.6,92.7 150.3,92.7 150.3,96.7 49.6,96.7 " />
<polygon points="26,129.1 174,129.1 174,133.1 26,133.1 " />
<polygon points="174,129.1 150,131.1 162,119.1 " />
<polygon points="106,101.3 106,174.3 94,174.3 94,99.3 " />
<polygon points="106,101.3 109,103.3 104,106.3 " />
<polygon points="13,170.3 187,170.3 187,174.3 13,174.3 " />
<polygon points="187,170.3 163,172.3 175,160.3 " />
</g>
</svg>
