<svg xmlns="http://www.w3.org/2000/svg" xmlns:xlink="http://www.w3.org/1999/xlink" version="1.1" baseProfile="full" viewBox="0 0 200 200" width="200" height="200">
<g fill="black">
<polygon points="58.4,28.2 58.4,103.8 46.4,109.8 46.4,22.2 " />
<polygon points="52.4,28.2 147.5,28.2 147.5,32.2 52.4,32.2 " />
<polygon points="153.5,30.2 153.5,100.8 141.5,106.8 141.5,30.2 " />
<polygon points="141.5,28.2 147.5,23.2 158.5,32.2 153.5,36.2 141.5,30.2 " />
<polygon points="52.4,59.5 147.5,59.5 147.5,63.5 52.4,63.5 " />
<polygon points="52.4,92.8 147.5,92.8 147.5,96.8 52.4,96.8 " />
<polygon points="38.4,121.8 161.6,121.8 161.6,125.8 38.4,125.8 " />
<polygon points="161.6,121.8 137.6,123.8 149.6,111.8 " />
<polygon points="106,121.8 106,179.4 94,179.4 94,121.8 " />
<polygon points="24.3,175.4 175.6,175.4 175.6,179.4 24.3,179.4 " />
<polygon points="175.6,175.4 151.6,177.4 163.6,165.4 " />
</g>
</svg>
