<svg xmlns="http://www.w3.org/2000/svg" xmlns:xlink="http://www.w3.org/1999/xlink" version="1.1" baseProfile="full" viewBox="0 0 200 200" width="200" height="200">
<g fill="black">
<polygon points="76.7,43.8 74.1,46 71.4,48.5 68.5,51.1 65.5,53.8 62.3,56.6 59,59.6 55.4,62.7 51.7,65.9 47.7,69.2 43.6,72.6 42.3,71.3 45.2,66.9 48,62.6 50.9,58.6 53.6,54.8 56.3,51.1 58.8,47.7 61.2,44.4 63.6,41.3 65.8,38.4 67.9,35.6 " />
<polygon points="67.9,35.6 76.7,43.8 68.2,35.2 " />
<polygon points="76.7,43.8 77.5,47.3 70.4,46.1 " />
<polygon points="43.2,71.6 48,73 52.6,74.8 57,76.9 61.2,79.4 65.2,82.1 69.1,85 72.7,88.2 76.1,91.6 79.4,95.3 82.4,99.2 72.3,105.6 70.2,101.9 67.9,98.3 65.4,94.9 62.7,91.5 59.8,88.3 56.7,85.2 53.4,82.1 50,79.1 46.3,76.1 42.5,73.2 " />
<polygon points="82.4,99.2 83.1,103.7 80.6,107.5 76.1,108.2 72.3,105.6 " />
<polygon points="117.7,42.8 115,45.1 112.1,47.6 109,50.2 105.7,53 102.2,55.9 98.4,58.9 94.4,62 90.1,65.1 85.4,68.3 80.6,71.6 79.3,70.3 83,65.7 86.6,61.4 90,57.3 93.3,53.5 96.4,49.9 99.3,46.5 102,43.2 104.5,40.2 106.8,37.3 108.9,34.6 " />
<polygon points="108.9,34.6 117.7,42.8 109.2,34.2 " />
<polygon points="117.7,42.8 118.5,46.3 111.4,45.1 " />
<polygon points="80.2,68.6 85.6,70.4 90.6,72.4 95.3,74.8 99.7,77.3 103.8,80 107.6,82.9 111.1,86 114.3,89.3 117.2,92.8 119.8,96.4 109.2,102.2 107.7,99 105.8,95.8 103.7,92.6 101.2,89.5 98.4,86.3 95.2,83.1 91.7,80 87.9,76.8 83.9,73.5 79.4,70.2 " />
<polygon points="119.8,96.4 120.2,101 117.4,104.6 112.8,105 109.2,102.2 " />
<polygon points="155.9,42.6 153.4,45 150.7,47.5 147.8,50.1 144.6,52.9 141.2,55.8 137.6,58.8 133.8,61.9 129.7,65.1 125.2,68.3 120.6,71.6 119.3,70.3 122.8,65.8 126.2,61.5 129.4,57.4 132.4,53.6 135.3,50 138,46.6 140.5,43.4 142.8,40.3 144.9,37.5 146.7,34.8 " />
<polygon points="146.7,34.8 155.9,42.6 147.1,34.4 " />
<polygon points="155.9,42.6 156.9,46.1 149.7,45.2 " />
<polygon points="120.2,68.6 125.7,70.4 130.9,72.4 135.6,74.8 140,77.3 144.1,80 147.8,83 151.2,86.1 154.2,89.4 156.9,93 159.2,96.8 148.2,101.7 147.1,98.6 145.5,95.5 143.6,92.5 141.3,89.3 138.6,86.2 135.6,83.1 132.1,79.9 128.3,76.8 124.1,73.5 119.5,70.2 " />
<polygon points="159.2,96.8 159.3,101.3 156.2,104.7 151.6,104.8 148.2,101.7 " />
<polygon points="39,26 173,26 173,30 39,30 " />
<polygon points="173,26 149,28 161,16 " />
<polygon points="43,137 165,137 165,141 43,141 " />
<polygon points="165,137 141,139 153,127 " />
<polygon points="107,108 107,181 95,181 95,106 " />
<polygon points="107,108 110,110 107,112 " />
<polygon points="21,177 184,177 184,181 21,181 " />
<polygon points="184,177 160,179 172,167 " />
</g>
</svg>
