<svg xmlns="http://www.w3.org/2000/svg" xmlns:xlink="http://www.w3.org/1999/xlink" version="1.1" baseProfile="full" viewBox="0 0 200 200" width="200" height="200">
<g fill="black">
<polygon points="151.2,31 140.8,32.8 130,34.5 118.7,36 106.9,37.3 94.7,38.5 82.1,39.4 69,40.2 55.4,40.8 41.4,41 27,40.8 26.9,39.1 41.2,37.2 55,35.4 68.4,33.7 81.3,31.9 93.7,30 105.7,28.1 117.1,26.1 128.1,23.9 138.7,21.7 148.7,19.3 " />
<polygon points="148.7,19.3 151.2,31 159.5,29.2 " />
<polygon points="159.5,29.2 159.9,32.2 151.4,27.9 " />
<polygon points="31,63 174,63 174,67 31,67 " />
<polygon points="174,63 150,65 162,53 " />
<polygon points="66,63 66,146 54,146 54,63 " />
<polygon points="147,63 147,146 135,146 135,63 " />
<polygon points="19,101 184,101 184,105 19,105 " />
<polygon points="184,101 160,103 172,91 " />
<polygon points="30,142 175,142 175,146 30,146 " />
<polygon points="175,142 151,144 163,132 " />
<polygon points="107,32 107,181 95,181 95,32 " />
<polygon points="24,177 181,177 181,181 24,181 " />
<polygon points="181,177 157,179 169,167 " />
</g>
</svg>
