<svg xmlns="http://www.w3.org/2000/svg" xmlns:xlink="http://www.w3.org/1999/xlink" version="1.1" baseProfile="full" viewBox="0 0 200 200" width="200" height="200">
<g fill="black">
<polygon points="19,26 184,26 184,30 19,30 " />
<polygon points="184,26 160,28 172,16 " />
<polygon points="45,56 45,120 33,126 33,50 " />
<polygon points="39,56 164,56 164,60 39,60 " />
<polygon points="170,58 170,114 158,120 158,58 " />
<polygon points="158,56 164,51 175,60 170,64 158,58 " />
<polygon points="87,26 87,108 75,108 75,26 " />
<polygon points="129,26 129,108 117,108 117,26 " />
<polygon points="39,104 164,104 164,108 39,108 " />
<polygon points="38,143 168,143 168,147 38,147 " />
<polygon points="168,143 144,145 156,133 " />
<polygon points="107,116 107,184 95,184 95,114 " />
<polygon points="107,116 110,118 107,120 " />
<polygon points="22,180 181,180 181,184 22,184 " />
<polygon points="181,180 157,182 169,170 " />
</g>
</svg>
