<svg xmlns="http://www.w3.org/2000/svg" xmlns:xlink="http://www.w3.org/1999/xlink" version="1.1" baseProfile="full" viewBox="0 0 200 200" width="200" height="200">
<g fill="black">
<polygon points="15.3,70 79.4,70 79.4,74 15.3,74 " />
<polygon points="79.4,70 55.4,72 67.4,60 " />
<polygon points="52.5,24 52.5,142 40.5,142 40.5,22 " />
<polygon points="52.5,24 55.5,26 52.5,28 " />
<polygon points="14.1,149 19.3,147.3 24.8,145.5 30.6,143.5 36.7,141.4 43.1,139.2 49.8,136.9 56.8,134.5 64.1,132 71.8,129.5 79.9,127.1 80.6,128.8 73.3,133 66.2,136.9 59.3,140.5 52.7,143.9 46.3,147 40.2,150 34.3,152.8 28.8,155.4 23.4,157.9 18.4,160.2 " />
<polygon points="18.4,160.2 14.1,149 12.2,149.7 " />
<polygon points="18.4,160.2 21.3,162.3 22.9,155.2 " />
<polygon points="156.8,25.7 149.3,29.2 141.6,32.6 133.7,35.9 125.6,39.1 117.4,42.2 109,45.3 100.4,48.2 91.6,51 82.5,53.5 73.3,55.8 72.6,54.1 81.2,49.9 89.6,45.9 97.9,42.1 106.1,38.2 114.1,34.4 121.9,30.6 129.5,26.7 137,22.9 144.2,19 151.3,15.1 " />
<polygon points="151.3,15.1 156.8,25.7 159.6,24.3 " />
<polygon points="159.6,24.3 159.7,27.6 152.3,24.7 " />
<polygon points="88.3,54.9 91.3,56.9 94.4,58.6 97.2,60.4 99.8,62.3 102.3,64.2 104.5,66.2 106.5,68.3 108.4,70.5 110,72.7 111.5,75 100.3,79.3 99.9,77.5 99.4,75.6 98.7,73.5 97.7,71.4 96.5,69.1 95.1,66.7 93.5,64.2 91.6,61.6 89.6,58.8 87.2,56.3 " />
<polygon points="111.5,75 111.3,79.6 108,82.8 103.5,82.6 100.3,79.3 " />
<polygon points="113.3,43.8 116.1,45.5 118.9,46.9 121.6,48.5 124.1,50.2 126.4,52.1 128.5,54.1 130.4,56.2 132.1,58.5 133.6,60.9 134.9,63.4 123.4,66.7 123.2,64.8 122.8,62.9 122.3,60.9 121.5,58.8 120.5,56.7 119.4,54.5 117.9,52.2 116.3,49.9 114.5,47.4 112.2,45.3 " />
<polygon points="134.9,63.4 134.3,68 130.8,70.8 126.2,70.3 123.4,66.7 " />
<polygon points="180,53.2 171.8,59.3 163.1,65.2 154,70.9 144.5,76.5 134.6,81.8 124.2,86.9 113.4,91.8 102.2,96.5 90.5,100.8 78.3,104.8 77.6,103.1 89,97.3 100,91.6 110.5,85.9 120.7,80.2 130.4,74.4 139.7,68.5 148.5,62.5 156.9,56.4 164.9,50.2 172.4,43.9 " />
<polygon points="172.4,43.9 180,53.2 172.5,43.9 " />
<polygon points="180,53.2 180.3,56.8 173.4,54.7 " />
<polygon points="75,108 185,108 185,112 75,112 " />
<polygon points="185,108 161,110 173,98 " />
<polygon points="160,83 160,173 148,173 148,81 " />
<polygon points="160,83 163,85 160,87 " />
<polygon points="160,173 157.6,176.6 154,179 150.4,176.6 148,173 " />
<polygon points="160,173 159.8,175.5 159.4,178 158.6,180.4 157.3,182.7 155.7,184.7 153.7,186.3 151.4,187.6 149,188.4 146.5,188.8 144,189 144,177 145.2,176.9 146.1,176.7 146.7,176.5 147,176.4 147.2,176.2 147.4,176 147.5,175.7 147.7,175.1 147.9,174.2 148,173 " />
<polygon points="144,183 144,177 124,177 124,180 " />
<polygon points="97.3,119.9 100.8,122.2 104.4,124.4 107.6,126.9 110.6,129.6 113.4,132.3 115.9,135.3 118.2,138.3 120.3,141.5 122.2,144.8 123.8,148.3 112.3,151.9 111.7,148.9 110.8,146 109.8,143 108.5,140 107,136.9 105.3,133.9 103.3,130.8 101.2,127.6 98.9,124.4 96.1,121.3 " />
<polygon points="123.8,148.3 123.3,152.8 119.9,155.8 115.3,155.4 112.3,151.9 " />
</g>
</svg>
