<svg xmlns="http://www.w3.org/2000/svg" xmlns:xlink="http://www.w3.org/1999/xlink" version="1.1" baseProfile="full" viewBox="0 0 200 200" width="200" height="200">
<g fill="black">
<polygon points="20,36 182,36 182,40 20,40 " />
<polygon points="182,36 158,38 170,26 " />
<polygon points="78,17 78,57 66,63 66,15 " />
<polygon points="78,17 81,19 76,22 " />
<polygon points="136,17 136,57 124,63 124,15 " />
<polygon points="136,17 139,19 134,22 " />
<polygon points="48,71 48,109 36,115 36,65 " />
<polygon points="42,71 155,71 155,75 42,75 " />
<polygon points="161,73 161,106 149,112 149,73 " />
<polygon points="149,71 155,66 166,75 161,79 149,73 " />
<polygon points="42,98 155,98 155,102 42,102 " />
<polygon points="29,127 171,127 171,131 29,131 " />
<polygon points="171,127 147,129 159,117 " />
<polygon points="106,71 106,180 94,180 94,71 " />
<polygon points="39,151 161,151 161,155 39,155 " />
<polygon points="161,151 141,153 151,142 " />
<polygon points="20,176 185,176 185,180 20,180 " />
<polygon points="185,176 161,178 173,166 " />
</g>
</svg>
