<svg xmlns="http://www.w3.org/2000/svg" xmlns:xlink="http://www.w3.org/1999/xlink" version="1.1" baseProfile="full" viewBox="0 0 200 200" width="200" height="200">
<g fill="black">
<polygon points="25,35 179,35 179,39 25,39 " />
<polygon points="179,35 155,37 167,25 " />
<polygon points="70,19 70,62 58,68 58,17 " />
<polygon points="70,19 73,21 70,23 " />
<polygon points="144,20 144,61 132,67 132,18 " />
<polygon points="144,20 147,22 144,24 " />
<polygon points="50,76 50,114 38,120 38,70 " />
<polygon points="44,76 153,76 153,80 44,80 " />
<polygon points="159,78 159,111 147,117 147,78 " />
<polygon points="147,76 153,71 164,80 159,84 147,78 " />
<polygon points="44,103 153,103 153,107 44,107 " />
<polygon points="106,55 106,184 94,184 94,55 " />
<polygon points="30,129 170,129 170,133 30,133 " />
<polygon points="170,129 146,131 158,119 " />
<polygon points="41,154 158,154 158,158 41,158 " />
<polygon points="158,154 134,156 146,144 " />
<polygon points="20,180 181,180 181,184 20,184 " />
<polygon points="181,180 157,182 169,170 " />
<polygon points="64,55 138,55 138,59 64,59 " />
</g>
</svg>
