<svg xmlns="http://www.w3.org/2000/svg" xmlns:xlink="http://www.w3.org/1999/xlink" version="1.1" baseProfile="full" viewBox="0 0 200 200" width="200" height="200">
<g fill="black">
<polygon points="20,35 180,35 180,39 20,39 " />
<polygon points="180,35 156,37 168,25 " />
<polygon points="76,16 76,73 64,79 64,14 " />
<polygon points="76,16 79,18 74,21 " />
<polygon points="136,16 136,70 124,76 124,14 " />
<polygon points="136,16 139,18 134,21 " />
<polygon points="70,62 130,62 130,66 70,66 " />
<polygon points="52,87 52,127 40,133 40,81 " />
<polygon points="46,87 155,87 155,91 46,91 " />
<polygon points="161,89 161,124 149,130 149,89 " />
<polygon points="149,87 155,82 166,91 161,95 149,89 " />
<polygon points="46,116 155,116 155,120 46,120 " />
<polygon points="106,62 106,184 94,184 94,62 " />
<polygon points="37,146 165,146 165,150 37,150 " />
<polygon points="165,146 141,148 153,136 " />
<polygon points="21,180 179,180 179,184 21,184 " />
<polygon points="179,180 155,182 167,170 " />
</g>
</svg>
