<svg xmlns="http://www.w3.org/2000/svg" xmlns:xlink="http://www.w3.org/1999/xlink" version="1.1" baseProfile="full" viewBox="0 0 200 200" width="200" height="200">
<g fill="black">
<polygon points="156.8,29 146.5,31.6 135.6,34.1 124,36.5 111.7,38.8 98.7,40.9 85,42.9 70.6,44.8 55.5,46.4 39.6,47.8 23.1,48.8 22.8,47.1 39.1,44 54.7,41.1 69.6,38.3 83.8,35.5 97.2,32.6 109.9,29.7 121.8,26.7 133,23.7 143.5,20.6 153.2,17.5 " />
<polygon points="153.2,17.5 156.8,29 163.2,27 " />
<polygon points="163.2,27 163.5,30.1 155.3,26.3 " />
<polygon points="15,101 185,101 185,105 15,105 " />
<polygon points="185,101 161,103 173,91 " />
<polygon points="106,35 106,179 94,179 94,35 " />
<polygon points="26,175 174,175 174,179 26,179 " />
<polygon points="174,175 150,177 162,165 " />
</g>
</svg>
