<svg xmlns="http://www.w3.org/2000/svg" xmlns:xlink="http://www.w3.org/1999/xlink" version="1.1" baseProfile="full" viewBox="0 0 200 200" width="200" height="200">
<g fill="black">
<polygon points="22,37 178,37 178,41 22,41 " />
<polygon points="178,37 154,39 166,27 " />
<polygon points="105,18 105,63 93,63 93,16 " />
<polygon points="105,18 108,20 105,22 " />
<polygon points="37,59 165,59 165,63 37,63 " />
<polygon points="165,59 141,61 153,49 " />
<polygon points="21,75 175,75 175,79 21,79 " />
<polygon points="180.9,77.8 180,80.8 178.9,83.8 177.7,86.8 176.3,89.8 174.8,92.8 173.1,95.7 171.2,98.7 169.2,101.6 166.9,104.4 164.7,107.4 163.2,106.5 164.5,103.1 165.4,99.7 166.2,96.4 167,93.2 167.6,90.1 168.1,87.1 168.5,84.2 168.8,81.4 169,78.7 169,76.1 " />
<polygon points="169,75 175,70 186,79 181,83 175,83 " />
<polygon points="44,92 153,92 153,96 44,96 " />
<polygon points="153,92 129,94 141,82 " />
<polygon points="105,92 105,117 93,117 93,92 " />
<polygon points="90,146 184,146 184,150 90,150 " />
<polygon points="184,146 160,148 172,136 " />
<polygon points="50,144 50,173 38,179 38,138 " />
<polygon points="44,144 76,144 76,148 44,148 " />
<polygon points="82,146 82,172 70,178 70,146 " />
<polygon points="70,144 76,139 87,148 82,152 70,146 " />
<polygon points="44,166 76,166 76,170 44,170 " />
<polygon points="20,129 184,129 184,133 20,133 " />
<polygon points="184,129 160,131 172,119 " />
<polygon points="34,113 162,113 162,117 34,117 " />
<polygon points="162,113 138,115 150,103 " />
<polygon points="156,129 156,172 144,172 144,129 " />
<polygon points="156,172 153.6,175.6 150,178 146.4,175.6 144,172 " />
<polygon points="156,172 155.8,174.5 155.4,177 154.6,179.4 153.3,181.7 151.7,183.7 149.7,185.3 147.4,186.6 145,187.4 142.5,187.8 140,188 140,176 141.2,175.9 142.1,175.7 142.7,175.5 143,175.4 143.2,175.2 143.4,175 143.5,174.7 143.7,174.1 143.9,173.2 144,172 " />
<polygon points="140,182 140,176 120,176 120,179 " />
<polygon points="101.2,149.6 103.6,150.6 106,151.3 108.4,152.2 110.6,153.3 112.8,154.6 114.8,156.1 116.7,157.8 118.4,159.7 120,161.8 121.5,164 110.3,168.3 110,166.5 109.6,164.8 109.1,163.1 108.4,161.3 107.5,159.6 106.5,157.9 105.3,156.1 104,154.4 102.4,152.5 100.4,151.2 " />
<polygon points="121.5,164 121.3,168.6 118,171.8 113.5,171.6 110.3,168.3 " />
</g>
</svg>
