<svg xmlns="http://www.w3.org/2000/svg" xmlns:xlink="http://www.w3.org/1999/xlink" version="1.1" baseProfile="full" viewBox="0 0 200 200" width="200" height="200">
<g fill="black">
<polygon points="16,38.2 184,38.2 184,42.2 16,42.2 " />
<polygon points="184,38.2 160,40.2 172,28.2 " />
<polygon points="106,14.8 106,73.2 94,73.2 94,12.8 " />
<polygon points="106,14.8 109,16.8 106,18.8 " />
<polygon points="28,69.2 172,69.2 172,73.2 28,73.2 " />
<polygon points="172,69.2 148,71.2 160,59.2 " />
<polygon points="73.4,122.6 73.4,142 61.4,142 61.4,116.6 " />
<polygon points="73.4,142 71,145.6 67.4,148 63.8,145.6 61.4,142 " />
<polygon points="73.3,142.8 71.5,150.3 68.7,157.1 64.8,163.3 60,168.8 54.3,173.5 47.8,177.5 40.5,180.8 32.4,183.3 23.4,185.1 13.7,186.1 13.4,184.3 22.5,181.4 30.7,178.3 37.8,174.8 43.9,171 49,166.9 53.2,162.5 56.5,157.8 58.9,152.7 60.5,147.2 61.4,141.3 " />
<polygon points="67.4,122.6 131.2,122.6 131.2,126.6 67.4,126.6 " />
<polygon points="137.2,124.6 137.2,167.7 125.2,167.7 125.2,124.6 " />
<polygon points="125.2,122.6 131.2,117.6 142.2,126.6 137.2,130.6 125.2,124.6 " />
<polygon points="137.2,167.7 134.8,171.3 131.2,173.7 127.6,171.3 125.2,167.7 " />
<polygon points="137.2,167.7 137.3,168.9 137.4,169.9 137.6,170.4 137.8,170.8 137.9,171 138.1,171.1 138.5,171.3 139,171.5 140,171.6 141.2,171.7 141.2,183.7 138.6,183.6 136.1,183.1 133.7,182.3 131.5,181.1 129.4,179.5 127.8,177.4 126.6,175.2 125.8,172.8 125.3,170.3 125.2,167.7 " />
<polygon points="141.2,171.7 145.4,173.5 147.2,177.7 145.4,181.9 141.2,183.7 " />
<polygon points="141.2,171.7 185,171.7 185,183.7 141.2,183.7 " />
<polygon points="185,171.7 188.6,174.1 191,177.7 188.6,181.3 185,183.7 " />
<polygon points="179,172.7 185,146.7 187,146.7 185,172.7 " />
<polygon points="29.4,84 30.6,89.6 31.6,94.9 32,100.1 32,105.1 31.6,109.9 30.9,114.5 29.7,119 28.2,123.2 26.2,127.2 23.8,131 14.6,123.3 16.8,120.9 18.8,118.2 20.6,115.2 22.2,111.8 23.6,108.1 24.8,104.1 25.8,99.7 26.6,94.9 27.2,89.7 27.6,84.2 " />
<polygon points="23.8,131 19.7,133 15.3,131.7 13.2,127.6 14.6,123.3 " />
<polygon points="26.4,94.4 177.6,94.4 177.6,98.4 26.4,98.4 " />
<polygon points="183,99 181.5,101.1 179.9,103.5 178,106.1 176,108.9 173.7,112 171.3,115.3 168.6,118.9 165.6,122.6 162.4,126.6 159.1,130.8 157.5,129.9 159.7,125 161.6,120.3 163.5,115.9 165.2,111.8 166.8,108.1 168.2,104.6 169.5,101.5 170.6,98.6 171.5,96 172.2,93.7 " />
<polygon points="171.6,94.4 177.6,89.4 188.6,98.4 183.6,102.4 177.6,102.4 " />
</g>
</svg>
