<svg xmlns="http://www.w3.org/2000/svg" xmlns:xlink="http://www.w3.org/1999/xlink" version="1.1" baseProfile="full" viewBox="0 0 200 200" width="200" height="200">
<g fill="black">
<polygon points="97.6,20.2 94.2,33.2 90.1,45.8 85.3,58 79.9,69.7 73.9,80.9 67.2,91.7 59.8,102 51.8,111.8 43.1,121 33.6,129.6 32.3,128.3 40.2,118.5 47.6,108.5 54.4,98.3 60.7,87.8 66.4,76.9 71.5,65.8 76,54.3 79.9,42.5 83.2,30.3 85.9,17.7 " />
<polygon points="85.9,17.7 97.6,20.2 86.3,15.9 " />
<polygon points="97.6,20.2 100.1,22.8 93.4,25.4 " />
<polygon points="83,46 144,46 144,50 83,50 " />
<polygon points="149.8,49.5 142.8,71.2 134.3,91.3 124.4,109.8 113,126.5 100.1,141.6 85.7,154.9 69.9,166.4 52.7,176.1 34.1,183.9 14.2,189.8 13.7,188.1 32.7,180.4 50.2,171.3 66.2,160.9 80.7,149.1 93.8,135.8 105.5,121 115.7,104.7 124.6,86.9 132.1,67.5 138.1,46.4 " />
<polygon points="138,46 144,41 155,50 150,54 144,54 " />
<polygon points="55.2,49.6 63.8,66.6 73.2,82.6 83.3,97.5 94.3,111.3 106.1,123.9 118.9,135.5 132.6,145.9 147.3,155.3 162.9,163.6 179.5,170.9 174.4,183 157.2,174.8 141.1,165.4 126.1,154.8 112.2,143.2 99.4,130.4 87.8,116.6 77.3,101.6 68.1,85.6 60.1,68.4 53.5,50.2 " />
<polygon points="174.4,183 179.5,170.9 185.9,173.5 " />
<polygon points="27.9,67.7 31.1,65.5 34.3,63.2 37.4,60.9 40.6,58.5 43.8,55.9 47,53.3 50.2,50.7 53.5,48 56.9,45.3 60.3,42.4 61.6,43.5 59.4,47.4 57.1,51.2 54.7,54.8 52.1,58.3 49.5,61.6 46.8,64.9 44.1,68.1 41.3,71.1 38.4,74.1 35.5,77 " />
<polygon points="35.5,77 27.9,67.7 26.4,68.9 " />
<polygon points="35.5,77 39,78 38.3,70.9 " />
</g>
</svg>
