<svg xmlns="http://www.w3.org/2000/svg" xmlns:xlink="http://www.w3.org/1999/xlink" version="1.1" baseProfile="full" viewBox="0 0 200 200" width="200" height="200">
<g fill="black">
<polygon points="54.9,17.3 53.3,32.5 51.3,46.9 48.9,60.6 45.9,73.5 42.5,85.6 38.6,96.9 34.2,107.4 29.3,117 23.8,125.7 17.7,133.5 16.2,132.4 20.5,123.8 24.5,114.7 28.1,104.9 31.4,94.5 34.3,83.3 36.9,71.5 39,58.9 40.7,45.5 42,31.4 42.9,16.6 " />
<polygon points="42.9,16.6 54.9,17.3 43,14.3 " />
<polygon points="54.9,17.3 57.7,19.5 51.5,23.1 " />
<polygon points="46,50 86,50 86,54 46,54 " />
<polygon points="91.9,52.9 87.5,74.3 82.4,93.9 76.6,111.8 69.9,128 62.4,142.5 54.2,155.1 45.1,166 35.2,174.9 24.6,181.9 13.3,186.8 12.6,185.1 22.6,178.7 31.7,170.9 40.2,161.6 47.9,150.8 55,138.4 61.4,124.3 67.1,108.6 72.1,91.1 76.4,71.9 80,51 " />
<polygon points="80,50 86,45 97,54 92,58 86,58 " />
<polygon points="46.9,63.9 50.1,87.3 55.4,107.7 62.9,125.1 72.5,139.7 84.2,151.4 98.2,160.5 114.5,167.1 133.3,171.1 154.5,172.5 178.4,171.4 179.5,184.5 154.3,185 131.4,182.7 111.1,177.6 93.3,169.5 78.2,158.5 65.8,144.7 56.4,128.3 49.7,109.3 46,87.9 45.1,64 " />
<polygon points="179.5,184.5 178.4,171.4 189.2,170.5 " />
<polygon points="144.9,21.8 144.1,38.7 142.1,54.9 138.9,70.1 134.6,84.5 129.2,98 122.6,110.6 114.8,122.2 106,132.9 95.9,142.4 84.8,150.8 83.7,149.4 93.3,139.7 101.9,129.4 109.4,118.5 115.9,107 121.4,94.7 125.8,81.7 129.1,67.9 131.4,53.3 132.7,38 132.9,21.8 " />
<polygon points="132.9,21.8 144.9,21.8 132.9,19.4 " />
<polygon points="144.9,21.8 147.9,23.8 141.9,27.8 " />
<polygon points="132.3,78.7 139.6,83.1 146.4,87.9 152.8,93.2 158.9,98.8 164.5,104.7 169.8,110.8 174.7,117.3 179.2,124.1 183.3,131.1 187.1,138.4 176.1,143.2 173.2,136.2 169.9,129.4 166.2,122.8 162.3,116.3 157.9,110 153.2,103.9 148.2,97.8 142.8,91.9 137.2,86 131.2,80.2 " />
<polygon points="187.1,138.4 187.2,142.9 184,146.3 179.5,146.3 176.1,143.2 " />
</g>
</svg>
