<svg xmlns="http://www.w3.org/2000/svg" xmlns:xlink="http://www.w3.org/1999/xlink" version="1.1" baseProfile="full" viewBox="0 0 200 200" width="200" height="200">
<g fill="black">
<polygon points="87.6,20.2 84.2,33.1 80.3,45.4 75.8,57.1 70.7,68.2 65.1,78.7 59,88.5 52.3,97.7 45,106.1 37.1,113.8 28.6,120.6 27.3,119.3 34.3,111.1 40.8,102.7 46.9,93.8 52.5,84.5 57.7,74.7 62.3,64.4 66.4,53.5 70.1,42.1 73.2,30.2 75.9,17.7 " />
<polygon points="75.9,17.7 87.6,20.2 76.3,15.9 " />
<polygon points="87.6,20.2 90.1,22.8 83.4,25.4 " />
<polygon points="74,46 144,46 144,50 74,50 " />
<polygon points="149.7,49.5 143,70 134.6,89.2 124.8,106.9 113.4,123.2 100.6,138.1 86.2,151.5 70.4,163.4 53.1,173.8 34.4,182.6 14.3,189.8 13.6,188.1 32.8,179.2 50.4,169.1 66.6,158 81.2,145.8 94.3,132.3 106,117.7 116.2,101.7 124.9,84.6 132.3,66.1 138.2,46.4 " />
<polygon points="138,46 144,41 155,50 150,54 144,54 " />
<polygon points="76,49.8 80.1,67.7 85.4,84.2 92.1,99.3 100.1,113.2 109.6,125.8 120.5,137.1 132.9,147.3 146.8,156.3 162.2,164.1 179.2,170.7 174.7,183.2 156.9,175.4 140.7,166.4 126.2,156 113.4,144.5 102.3,131.6 93,117.6 85.5,102.4 79.8,86 76,68.6 74.2,50 " />
<polygon points="174.7,183.2 179.2,170.7 186.2,173.3 " />
</g>
</svg>
