<svg xmlns="http://www.w3.org/2000/svg" xmlns:xlink="http://www.w3.org/1999/xlink" version="1.1" baseProfile="full" viewBox="0 0 200 200" width="200" height="200">
<g fill="black">
<polygon points="25,33 176,33 176,37 25,37 " />
<polygon points="176,33 152,35 164,23 " />
<polygon points="38,51 165,51 165,55 38,55 " />
<polygon points="165,51 141,53 153,41 " />
<polygon points="21,69 175,69 175,73 21,73 " />
<polygon points="180.2,73.8 178.4,76.3 176.5,78.8 174.5,81.2 172.5,83.5 170.3,85.8 168.1,88.1 165.9,90.3 163.5,92.4 160.9,94.4 158.6,96.5 157.3,95.4 158.9,92.7 160.2,89.8 161.5,87 162.8,84.3 164.1,81.6 165.3,78.9 166.5,76.2 167.6,73.5 168.6,70.8 169.7,68.1 " />
<polygon points="169,69 175,64 186,73 181,77 175,77 " />
<polygon points="56,86 56,109 44,115 44,80 " />
<polygon points="50,86 148,86 148,90 50,90 " />
<polygon points="154,88 154,109 142,115 142,88 " />
<polygon points="142,86 148,81 159,90 154,94 142,88 " />
<polygon points="50,105 148,105 148,109 50,109 " />
<polygon points="19,123 187,123 187,127 19,127 " />
<polygon points="187,123 163,125 175,113 " />
<polygon points="107,15 107,127 95,127 95,13 " />
<polygon points="107,15 110,17 107,19 " />
<polygon points="46,140 46,177 34,183 34,134 " />
<polygon points="40,140 82,140 82,144 40,144 " />
<polygon points="88,142 88,174 76,180 76,142 " />
<polygon points="76,140 82,135 93,144 88,148 76,142 " />
<polygon points="40,166 82,166 82,170 40,170 " />
<polygon points="96,144 185,144 185,148 96,148 " />
<polygon points="185,144 161,146 173,134 " />
<polygon points="159,130 159,173 147,173 147,128 " />
<polygon points="159,130 162,132 159,134 " />
<polygon points="159,173 156.6,176.6 153,179 149.4,176.6 147,173 " />
<polygon points="159,173 158.8,175.5 158.4,178 157.6,180.4 156.3,182.7 154.7,184.7 152.7,186.3 150.4,187.6 148,188.4 145.5,188.8 143,189 143,177 144.2,176.9 145.1,176.7 145.7,176.5 146,176.4 146.2,176.2 146.4,176 146.5,175.7 146.7,175.1 146.9,174.2 147,173 " />
<polygon points="143,183 143,177 123,177 123,180 " />
<polygon points="107.3,148.6 110.2,149.9 113.2,151 116,152.3 118.7,153.8 121.2,155.6 123.5,157.5 125.6,159.6 127.5,162 129.2,164.5 130.7,167.2 119.3,171 119,168.9 118.4,166.9 117.7,164.8 116.8,162.7 115.7,160.6 114.3,158.5 112.8,156.4 110.9,154.2 108.9,152 106.4,150.2 " />
<polygon points="130.7,167.2 130.3,171.8 126.9,174.8 122.3,174.4 119.3,171 " />
</g>
</svg>
