<svg xmlns="http://www.w3.org/2000/svg" xmlns:xlink="http://www.w3.org/1999/xlink" version="1.1" baseProfile="full" viewBox="0 0 200 200" width="200" height="200">
<g fill="black">
<polygon points="18,91 182,91 182,95 18,95 " />
<polygon points="182,91 158,93 170,81 " />
<polygon points="104,47.6 104.1,69.3 102.3,89.4 98.5,107.8 92.7,124.6 84.9,139.6 75.1,152.8 63.4,164.2 49.8,173.7 34.4,181.3 17.2,186.8 16.7,185.1 32.8,177.8 46.9,169.2 59,159.3 69.2,148 77.6,135.3 84.1,121.1 88.8,105.3 91.7,88 92.8,69 92,48.3 " />
<polygon points="92,48.3 104,47.6 91.9,46.1 " />
<polygon points="104,47.6 107.1,49.4 101.4,53.7 " />
<polygon points="104,93.8 107.4,104.5 111.6,114.5 116.5,123.9 122.3,132.6 129.1,140.7 136.8,148.2 145.4,155.2 155.1,161.6 165.9,167.5 177.6,172.9 172.3,185 159.9,178.6 148.7,171.5 138.6,163.9 129.7,155.6 121.9,146.7 115.4,137.2 110.1,127.2 106.1,116.6 103.4,105.6 102.2,94.1 " />
<polygon points="172.3,185 177.6,172.9 183.7,175.6 " />
<polygon points="143.3,31.9 133.9,35.3 124.1,38.7 113.9,41.9 103.4,45.1 92.5,48.1 81.2,51 69.5,53.8 57.5,56.4 45,58.8 32.2,60.8 31.7,59.1 44.1,55.1 56.1,51.2 67.8,47.5 79.1,43.7 90,40 100.5,36.2 110.6,32.4 120.4,28.6 129.8,24.7 138.7,20.8 " />
<polygon points="138.7,20.8 143.3,31.9 147.8,30 " />
<polygon points="147.8,30 148,33.2 140.2,29.9 " />
</g>
</svg>
