<svg xmlns="http://www.w3.org/2000/svg" xmlns:xlink="http://www.w3.org/1999/xlink" version="1.1" baseProfile="full" viewBox="0 0 200 200" width="200" height="200">
<g fill="black">
<polygon points="22,68 182,68 182,72 22,72 " />
<polygon points="182,68 158,70 170,58 " />
<polygon points="105,22 105,49 93,49 93,20 " />
<polygon points="105,22 108,24 105,26 " />
<polygon points="105,49 102.6,52.6 99,55 95.4,52.6 93,49 " />
<polygon points="105,49 103.8,69.2 101,88 96.5,105.5 90.3,121.7 82.4,136.4 72.8,149.6 61.6,161.3 48.7,171.4 34.3,179.9 18.3,186.8 17.6,185.1 32.4,176.6 45.5,167.1 57,156.6 66.8,144.9 75,132 81.7,118 86.8,102.7 90.4,86.1 92.5,68.2 93,49 " />
<polygon points="105.1,70.7 110.7,85.2 116.5,98.8 122.8,111.5 129.6,123.3 136.9,134.1 144.7,143.9 153.1,152.9 161.9,160.9 171.4,168.1 181.4,174.3 174.5,185.6 164,178.1 154.1,169.8 145.1,160.5 136.7,150.3 129.1,139.3 122.3,127.4 116.3,114.6 111.1,101 106.7,86.5 103.3,71.1 " />
<polygon points="174.5,185.6 181.4,174.3 185.7,176.9 " />
</g>
</svg>
