<svg xmlns="http://www.w3.org/2000/svg" xmlns:xlink="http://www.w3.org/1999/xlink" version="1.1" baseProfile="full" viewBox="0 0 200 200" width="200" height="200">
<g fill="black">
<polygon points="47,48 47,97 35,103 35,46 " />
<polygon points="47,48 50,50 45,53 " />
<polygon points="41,93 154,93 154,97 41,97 " />
<polygon points="160,95 160,135 148,135 148,95 " />
<polygon points="148,93 154,88 165,97 160,101 148,95 " />
<polygon points="18,131 187,131 187,135 18,135 " />
<polygon points="187,131 163,133 175,121 " />
<polygon points="108.9,95 108.9,95.3 107.1,110.1 103.7,123.8 98.8,136.4 92.3,147.8 84.4,157.9 75.1,166.8 64.4,174.3 52.3,180.6 38.9,185.4 24.2,188.8 23.7,187.1 37.6,181.8 49.9,175.7 60.7,168.9 70.1,161.1 78,152.5 84.4,142.9 89.6,132.4 93.4,120.9 95.8,108.3 96.9,95 " />
<polygon points="111.2,133.3 117,139.7 122.8,145.6 128.7,150.9 134.7,155.7 141,159.8 147.5,163.5 154.3,166.5 161.3,169 168.6,171 176.2,172.5 173.7,185.4 165.2,183.1 157.2,180.1 149.6,176.5 142.4,172.3 135.7,167.5 129.4,162.1 123.6,156 118.3,149.4 113.7,142.2 109.7,134.3 " />
<polygon points="173.7,185.4 176.2,172.5 185.5,174.3 " />
</g>
</svg>
