<svg xmlns="http://www.w3.org/2000/svg" xmlns:xlink="http://www.w3.org/1999/xlink" version="1.1" baseProfile="full" viewBox="0 0 200 200" width="200" height="200">
<g fill="black">
<polygon points="47,46 47,118 35,124 35,44 " />
<polygon points="47,46 50,48 45,51 " />
<polygon points="41,102 103,102 103,106 41,106 " />
<polygon points="18,137 187,137 187,141 18,141 " />
<polygon points="187,137 163,139 175,127 " />
<polygon points="108.9,104.3 107,118 103.6,130.7 98.7,142.3 92.2,152.7 84.3,161.9 74.9,169.8 64.2,176.5 52.2,181.9 38.8,186 24.1,188.8 23.8,187.1 37.7,182.4 50,177 60.9,170.8 70.2,163.9 78.1,156 84.6,147.4 89.6,137.9 93.4,127.5 95.8,116 97,103.6 " />
<polygon points="97,102 103,97 114,106 109,109 97,114 " />
<polygon points="106.3,139.1 112.9,144.9 119.5,150.2 126,155 132.7,159.3 139.5,163.1 146.5,166.4 153.6,169.2 160.9,171.4 168.4,173.2 176.1,174.4 173.8,187.5 165.4,185.4 157.2,182.7 149.4,179.4 141.9,175.6 134.7,171.2 127.9,166.2 121.5,160.6 115.4,154.5 109.9,147.7 104.9,140.3 " />
<polygon points="173.8,187.5 176.1,174.4 185.7,176.1 " />
</g>
</svg>
