<svg xmlns="http://www.w3.org/2000/svg" xmlns:xlink="http://www.w3.org/1999/xlink" version="1.1" baseProfile="full" viewBox="0 0 200 200" width="200" height="200">
<g fill="black">
<polygon points="20,30 180,30 180,34 20,34 " />
<polygon points="180,30 156,32 168,20 " />
<polygon points="28,87 172,87 172,91 28,91 " />
<polygon points="172,87 148,89 160,77 " />
<polygon points="106,30 106,75 94,75 94,30 " />
<polygon points="106,75 103.6,78.6 100,81 96.4,78.6 94,75 " />
<polygon points="106,75 104.8,90.7 101.8,105.6 97,119.5 90.4,132.3 82.1,144 72,154.7 60.3,164.2 46.9,172.6 31.9,179.8 15.3,185.8 14.6,184.1 30.3,176.4 44.2,168 56.3,159 66.7,149.3 75.3,138.9 82.3,127.7 87.6,115.8 91.3,103 93.4,89.4 94,75 " />
<polygon points="107,89.7 111.1,100.6 115.7,110.9 120.9,120.5 126.8,129.4 133.4,137.8 140.8,145.6 148.9,152.8 157.8,159.4 167.5,165.5 178,171.1 171.9,182.8 160.9,176.2 150.8,168.9 141.6,161.1 133.4,152.6 126.1,143.6 119.8,134 114.5,123.8 110.3,113.1 107.2,101.9 105.3,90.1 " />
<polygon points="171.9,182.8 178,171.1 183.2,173.8 " />
</g>
</svg>
