<svg xmlns="http://www.w3.org/2000/svg" xmlns:xlink="http://www.w3.org/1999/xlink" version="1.1" baseProfile="full" viewBox="0 0 200 200" width="200" height="200">
<g fill="black">
<polygon points="20,63 184,63 184,67 20,67 " />
<polygon points="184,63 160,65 172,53 " />
<polygon points="107,20.8 106.4,46.3 104,69.9 99.7,91.5 93.7,111.3 85.8,129.1 76,144.9 64.4,158.6 51.1,170.2 36,179.6 19.3,186.8 18.6,185.1 34.1,176.4 47.8,166.1 59.6,154.2 69.7,140.6 78.2,125.3 84.9,108.2 89.9,89.3 93.3,68.4 95,45.7 95,21.1 " />
<polygon points="95,21.1 107,20.8 94.9,18.7 " />
<polygon points="107,20.8 110,22.7 104.1,26.9 " />
<polygon points="106,65.8 110,79.3 114.7,92.2 120,104.5 126.3,116.1 133.4,127.1 141.4,137.6 150.3,147.4 160.2,156.6 170.9,165.3 182.7,173.5 175.2,184.4 163.2,175.2 152.2,165.3 142.2,154.9 133.3,143.9 125.6,132.2 118.9,120.1 113.4,107.4 109.1,94.1 106,80.4 104.2,66.1 " />
<polygon points="175.2,184.4 182.7,173.5 186.3,175.9 " />
<polygon points="82.3,131.7 86.5,133.4 90.7,135.4 94.6,137.8 98.4,140.4 102,143.3 105.5,146.5 108.8,149.9 111.9,153.5 114.9,157.3 117.7,161.4 107.3,167.3 105.3,163.4 103.2,159.6 101,155.9 98.6,152.4 96.1,149 93.4,145.7 90.6,142.5 87.7,139.4 84.6,136.3 81.3,133.2 " />
<polygon points="117.7,161.4 118.2,165.9 115.4,169.6 110.9,170.1 107.3,167.3 " />
</g>
</svg>
