<svg xmlns="http://www.w3.org/2000/svg" xmlns:xlink="http://www.w3.org/1999/xlink" version="1.1" baseProfile="full" viewBox="0 0 200 200" width="200" height="200">
<g fill="black">
<polygon points="22,51 179,51 179,55 22,55 " />
<polygon points="179,51 155,53 167,41 " />
<polygon points="106,17 106,53 94,53 94,15 " />
<polygon points="106,17 109,19 106,21 " />
<polygon points="106,53 103.6,56.6 100,59 96.4,56.6 94,53 " />
<polygon points="106,53 104.8,76 101.8,97 97,115.9 90.4,132.8 82,147.5 71.8,160 59.8,170.3 46.1,178.2 30.9,183.7 14.1,186.8 13.8,185.1 29.7,180.1 43.7,173.4 55.8,165.1 66.2,154.9 74.9,142.9 81.9,129 87.4,113.1 91.2,95.1 93.4,75.1 94,53 " />
<polygon points="100,80.8 104.4,94.5 109.5,107.2 115.4,118.8 122,129.4 129.6,139 138.1,147.6 147.5,155.3 157.8,162 169,167.8 181.3,172.8 176.6,185.1 163.5,179.1 151.5,172 140.6,164 130.9,154.9 122.4,144.9 115,133.9 108.9,122 104,109.3 100.4,95.6 98.3,81.1 " />
<polygon points="176.6,185.1 181.3,172.8 188.1,175.4 " />
<polygon points="64.6,68.1 62.5,76 59.9,83.6 56.9,90.9 53.5,97.8 49.6,104.3 45.3,110.4 40.5,116.2 35.3,121.5 29.7,126.4 23.5,130.6 22.4,129.3 27,123.6 31.3,118 35.3,112.2 39,106.2 42.2,100.1 45.1,93.7 47.6,87.1 49.7,80.3 51.5,73.1 52.9,65.8 " />
<polygon points="52.9,65.8 64.6,68.1 53.2,63.9 " />
<polygon points="64.6,68.1 67.2,70.7 60.5,73.4 " />
<polygon points="56.3,83.7 59.7,85.5 63.1,87.1 66.3,88.8 69.3,90.7 72.1,92.7 74.7,94.9 77.1,97.2 79.3,99.5 81.3,102.1 83.1,104.7 72.2,109.8 71.5,107.5 70.6,105.2 69.5,102.9 68.2,100.5 66.6,98.1 64.8,95.6 62.8,93 60.5,90.4 58.1,87.7 55.3,85.2 " />
<polygon points="83.1,104.7 83.3,109.3 80.2,112.7 75.7,112.8 72.2,109.8 " />
<polygon points="149.6,66.3 147.5,73.1 145.3,79.5 142.7,85.6 139.9,91.3 136.9,96.7 133.6,101.6 130,106.1 126.2,110.2 122,113.7 117.6,116.6 116.3,115.3 119.3,111.1 122,106.8 124.7,102.3 127.1,97.7 129.4,92.7 131.5,87.5 133.4,82 135.1,76.2 136.6,70 137.9,63.6 " />
<polygon points="137.9,63.6 149.6,66.3 138.3,61.8 " />
<polygon points="149.6,66.3 152.1,68.9 145.3,71.4 " />
<polygon points="140.3,85.8 145.5,88.4 150.3,91.1 154.8,94 158.9,97 162.6,100.1 166,103.2 169.1,106.5 171.9,109.8 174.3,113.3 176.3,116.9 165.3,121.5 164.2,118.6 162.9,115.5 161.1,112.4 159.1,109.1 156.6,105.7 153.8,102.3 150.7,98.7 147.2,95.1 143.4,91.2 139.3,87.3 " />
<polygon points="176.3,116.9 176.3,121.4 173.1,124.7 168.5,124.7 165.3,121.5 " />
</g>
</svg>
