<svg xmlns="http://www.w3.org/2000/svg" xmlns:xlink="http://www.w3.org/1999/xlink" version="1.1" baseProfile="full" viewBox="0 0 200 200" width="200" height="200">
<g fill="black">
<polygon points="17,60 186,60 186,64 17,64 " />
<polygon points="186,60 162,62 174,50 " />
<polygon points="108.4,22.7 102.3,39.7 95.3,56 87.6,71.5 79,86.2 69.6,100.1 59.4,113.2 48.5,125.4 36.6,136.8 24,147.2 10.5,156.7 9.4,155.2 21.5,144.3 32.9,132.9 43.6,121 53.5,108.5 62.6,95.3 71,81.4 78.6,66.9 85.5,51.7 91.6,35.8 96.9,19.1 " />
<polygon points="96.9,19.1 108.4,22.7 97.4,17.6 " />
<polygon points="108.4,22.7 110.7,25.5 103.7,27.5 " />
<polygon points="113.2,62.4 118.8,70.4 124.5,78.2 130.6,85.9 137,93.4 143.8,100.8 151.1,108.1 158.8,115.2 167.1,122.2 175.7,129 184.9,135.7 177,146.2 167.9,138.7 159.3,131.1 151.2,123.2 143.7,115.2 136.8,107 130.4,98.6 124.7,90.1 119.6,81.4 115.1,72.4 111.6,63.2 " />
<polygon points="177,146.2 184.9,135.7 187.9,137.9 " />
<polygon points="45,145 155,145 155,149 45,149 " />
<polygon points="155,145 131,147 143,135 " />
<polygon points="106,105 106,185 94,191 94,103 " />
<polygon points="106,105 109,107 106,109 " />
</g>
</svg>
