<svg xmlns="http://www.w3.org/2000/svg" xmlns:xlink="http://www.w3.org/1999/xlink" version="1.1" baseProfile="full" viewBox="0 0 200 200" width="200" height="200">
<g fill="black">
<polygon points="22,46 179,46 179,50 22,50 " />
<polygon points="179,46 155,48 167,36 " />
<polygon points="106.3,21.8 101.3,33.9 95.4,45.3 88.6,56 81,66 72.5,75.3 63.1,83.9 53,91.8 41.9,99 30.1,105.3 17.3,110.8 16.6,109.1 28.2,102 39,94.5 48.9,86.6 58,78.3 66.3,69.5 73.7,60.3 80.2,50.5 85.9,40.2 90.8,29.3 95,17.9 " />
<polygon points="95,17.9 106.3,21.8 95.5,16.5 " />
<polygon points="106.3,21.8 108.5,24.7 101.5,26.5 " />
<polygon points="110.3,49.2 116.2,54.3 122.2,59.4 128.3,64.4 134.7,69.2 141.4,73.9 148.4,78.5 155.8,82.9 163.5,87.1 171.5,91.1 179.8,95 174.1,106.9 165.6,102.2 157.5,97.3 149.9,92.2 142.6,86.9 135.8,81.4 129.4,75.6 123.4,69.7 118,63.5 113.1,57.1 108.9,50.3 " />
<polygon points="174.1,106.9 179.8,95 185.4,97.7 " />
<polygon points="64,93 64,160 52,166 52,87 " />
<polygon points="58,93 140,93 140,97 58,97 " />
<polygon points="146,95 146,154 134,160 134,95 " />
<polygon points="134,93 140,88 151,97 146,101 134,95 " />
<polygon points="58,119 140,119 140,123 58,123 " />
<polygon points="58,144 140,144 140,148 58,148 " />
<polygon points="105,71 105,169 93,169 93,69 " />
<polygon points="105,71 108,73 105,75 " />
<polygon points="105,169 102.6,172.6 99,175 95.4,172.6 93,169 " />
<polygon points="105,169 105,170.2 105.2,171.1 105.4,171.7 105.5,172 105.7,172.2 105.9,172.4 106.2,172.5 106.8,172.7 107.7,172.9 109,173 109,185 106.4,184.8 103.9,184.4 101.5,183.6 99.2,182.3 97.2,180.7 95.6,178.7 94.3,176.4 93.5,174 93.1,171.5 93,169 " />
<polygon points="109,173 113.2,174.8 115,179 113.2,183.2 109,185 " />
<polygon points="109,173 179,173 179,185 109,185 " />
<polygon points="179,173 182.6,175.4 185,179 182.6,182.6 179,185 " />
<polygon points="173,174 179,148 181,148 179,174 " />
</g>
</svg>
