<svg xmlns="http://www.w3.org/2000/svg" xmlns:xlink="http://www.w3.org/1999/xlink" version="1.1" baseProfile="full" viewBox="0 0 200 200" width="200" height="200">
<g fill="black">
<polygon points="82.8,19.6 78.3,27.1 73.4,34.2 68.1,41.2 62.5,47.8 56.5,54.3 50.1,60.4 43.3,66.3 36.1,71.8 28.5,76.9 20.5,81.7 19.4,80.2 26.2,73.9 32.7,67.7 38.9,61.4 44.7,55.1 50.2,48.6 55.3,42 60.1,35.2 64.5,28.3 68.5,21.3 72.2,14 " />
<polygon points="72.2,14 82.8,19.6 72.7,13 " />
<polygon points="82.8,19.6 84.5,22.8 77.3,23.5 " />
<polygon points="66,30 126,30 126,34 66,34 " />
<polygon points="131.4,34.5 128.9,38.7 126.3,42.9 123.5,46.9 120.5,50.8 117.4,54.6 114,58.4 110.5,61.9 106.8,65.4 102.8,68.6 98.6,71.6 97.3,70.3 100.1,66.1 102.9,61.9 105.5,57.8 108.1,53.8 110.5,49.8 112.8,45.7 115,41.7 117,37.6 118.8,33.5 120.5,29.4 " />
<polygon points="120,30 126,25 137,34 132,38 126,38 " />
<polygon points="56,69 56,130 44,130 44,63 " />
<polygon points="50,69 154,69 154,73 50,73 " />
<polygon points="160,71 160,130 148,130 148,71 " />
<polygon points="148,69 154,64 165,73 160,77 148,71 " />
<polygon points="15,126 186,126 186,130 15,130 " />
<polygon points="186,126 162,128 174,116 " />
<polygon points="108,70 108,97 96,97 96,70 " />
<polygon points="108,97 105.6,100.6 102,103 98.4,100.6 96,97 " />
<polygon points="108,97 106.8,111.4 103.8,124.7 99.1,137 92.6,148.1 84.3,158.1 74.5,166.7 63,174.2 49.9,180.4 35.3,185.2 19.2,188.8 18.7,187.1 34.1,181.6 47.7,175.5 59.6,168.6 69.7,160.8 78.1,152.3 84.8,143 89.9,132.9 93.5,121.9 95.5,109.9 96,97 " />
<polygon points="107.3,128.2 114.1,135.4 120.9,142.1 127.5,148.3 134.2,153.9 141,159 147.8,163.5 154.7,167.4 161.7,170.7 168.8,173.4 175.9,175.7 172,188.2 164.1,185.1 156.5,181.3 149.1,176.9 142,171.9 135.2,166.3 128.6,160.1 122.4,153.4 116.4,146 110.9,138 105.8,129.3 " />
<polygon points="172,188.2 175.9,175.7 183.6,178.1 " />
</g>
</svg>
