<svg xmlns="http://www.w3.org/2000/svg" xmlns:xlink="http://www.w3.org/1999/xlink" version="1.1" baseProfile="full" viewBox="0 0 200 200" width="200" height="200">
<g fill="black">
<polygon points="72.3,17.8 68.8,26.6 64.9,35.1 60.5,43.3 55.8,51.1 50.7,58.5 45.1,65.6 39.1,72.3 32.7,78.6 25.9,84.4 18.5,89.6 17.4,88.3 23.2,81.6 28.8,74.9 34.1,68.1 39,61.1 43.6,53.8 47.8,46.4 51.6,38.7 55.1,30.7 58.2,22.5 60.9,14 " />
<polygon points="60.9,14 72.3,17.8 61.4,12.5 " />
<polygon points="72.3,17.8 74.5,20.6 67.6,22.5 " />
<polygon points="62,31 113,31 113,35 62,35 " />
<polygon points="118.5,35.3 116.8,38.1 115,41 113.1,43.9 111,46.8 108.8,49.7 106.5,52.6 104,55.6 101.4,58.5 98.5,61.4 95.7,64.5 94.2,63.4 96.1,59.8 97.6,56 99.2,52.5 100.7,49.1 102.1,45.7 103.4,42.5 104.5,39.4 105.6,36.4 106.6,33.4 107.4,30.6 " />
<polygon points="107,31 113,26 124,35 119,39 113,39 " />
<polygon points="56,62 56,128 44,134 44,56 " />
<polygon points="50,62 151,62 151,66 50,66 " />
<polygon points="157,64 157,128 145,134 145,64 " />
<polygon points="145,62 151,57 162,66 157,70 145,64 " />
<polygon points="93,64 92.9,64.7 91.3,73.1 89.3,80.8 86.8,87.9 83.8,94.4 80.3,100.1 76.4,105.1 72,109.4 67.1,112.8 61.9,115.3 56.3,116.8 55.6,115.1 60,112 63.9,108.5 67.3,104.7 70.4,100.5 73.1,95.8 75.4,90.5 77.3,84.6 78.9,78.1 80.1,71 80.9,64 " />
<polygon points="116,62 116,91 104,91 104,62 " />
<polygon points="116,91 113.6,94.6 110,97 106.4,94.6 104,91 " />
<polygon points="116,91 116,92.2 116.2,93.1 116.4,93.7 116.5,94 116.7,94.2 116.9,94.4 117.2,94.5 117.8,94.7 118.7,94.9 120,95 120,107 117.4,106.8 114.9,106.4 112.5,105.6 110.2,104.3 108.2,102.7 106.6,100.7 105.3,98.4 104.5,96 104.1,93.5 104,91 " />
<polygon points="120,95 124.2,96.8 126,101 124.2,105.2 120,107 " />
<polygon points="120,95 136,95 136,107 120,107 " />
<polygon points="136,95 139.6,97.4 142,101 139.6,104.6 136,107 " />
<polygon points="130,96 136,70 138,70 136,96 " />
<polygon points="18,138 184,138 184,142 18,142 " />
<polygon points="184,138 160,140 172,128 " />
<polygon points="101.9,109.2 100.2,123.4 97.1,136.3 92.4,148 86.2,158.3 78.5,167.1 69.4,174.5 59,180.4 47.2,184.8 34.3,187.6 20,188.8 19.9,187.1 33.4,183.9 45.5,179.7 55.9,174.6 64.9,168.4 72.4,161.3 78.5,153.1 83.3,143.8 86.8,133.3 89,121.7 89.9,108.7 " />
<polygon points="89.9,108.7 101.9,109.2 90,106.4 " />
<polygon points="101.9,109.2 104.8,111.3 98.7,115.1 " />
<polygon points="102.2,140.5 106.1,145.6 110.3,150.3 115.1,154.5 120.4,158.4 126.5,161.9 133.3,165.1 140.8,168 149.1,170.5 158.2,172.7 168.2,174.5 165.7,187.4 155.3,184.8 145.6,181.8 136.8,178.3 128.8,174.3 121.6,169.9 115.4,165 110,159.7 105.7,153.9 102.5,147.8 100.5,141.2 " />
<polygon points="165.7,187.4 168.2,174.5 177.5,176.2 " />
</g>
</svg>
