<svg xmlns="http://www.w3.org/2000/svg" xmlns:xlink="http://www.w3.org/1999/xlink" version="1.1" baseProfile="full" viewBox="0 0 200 200" width="200" height="200">
<g fill="black">
<polygon points="100.2,19.3 97.7,22 95.2,24.7 92.5,27.5 89.7,30.2 86.9,33 83.9,35.7 80.8,38.5 77.5,41.2 74.1,43.8 70.6,46.6 69.3,45.3 71.8,41.7 74,38.1 76.3,34.5 78.6,31.1 80.7,27.8 82.9,24.6 84.9,21.4 86.9,18.3 88.7,15.2 90.5,12.2 " />
<polygon points="90.5,12.2 100.2,19.3 91,11.6 " />
<polygon points="100.2,19.3 101.4,22.7 94.2,22.4 " />
<polygon points="50,44 50,131 38,137 38,38 " />
<polygon points="44,44 157,44 157,48 44,48 " />
<polygon points="163,46 163,130 151,136 151,46 " />
<polygon points="151,44 157,39 168,48 163,52 151,46 " />
<polygon points="18,139 184,139 184,143 18,143 " />
<polygon points="184,139 160,141 172,129 " />
<polygon points="106.2,124 101,135.3 95,145.6 88.1,154.9 80.5,163.1 72,170.2 62.8,176.3 52.9,181.2 42.3,185 31,187.5 19.1,188.8 18.8,187.1 30.1,183.8 40.5,179.9 50.1,175.3 58.8,169.9 66.7,163.6 73.8,156.6 80.2,148.7 85.8,140 90.8,130.3 95,119.8 " />
<polygon points="95,119.8 106.2,124 95.5,118.4 " />
<polygon points="106.2,124 108.3,126.9 101.3,128.6 " />
<polygon points="103.3,141.3 108.5,146.5 113.9,151.3 119.5,155.6 125.5,159.6 131.9,163.1 138.8,166.2 146.1,168.9 153.9,171.2 162.2,173 171.1,174.4 168.8,187.5 159.4,185.2 150.5,182.5 142.2,179.2 134.4,175.5 127.2,171.2 120.7,166.4 114.8,161.2 109.6,155.4 105.2,149.1 101.7,142.3 " />
<polygon points="168.8,187.5 171.1,174.4 180.7,176.1 " />
<polygon points="55,83 144,83 144,87 55,87 " />
<polygon points="144,83 120,85 132,73 " />
<polygon points="99.8,85 98.3,87.6 95.2,92.9 91.7,97.9 88,102.6 84,107 79.8,111.1 75.3,115 70.5,118.5 65.4,121.7 60.1,124.4 54.4,126.7 53.5,125.2 58,121.3 62.2,117.3 66.3,113.4 70.1,109.4 73.6,105.3 76.9,101 80,96.6 82.7,92 85.3,87.2 86.3,85 " />
<polygon points="105,55 105,113 93,119 93,53 " />
<polygon points="105,55 108,57 105,59 " />
<polygon points="103.2,92.4 106.9,93.1 110.7,93.8 114.3,94.9 117.8,96.2 121.2,97.7 124.4,99.5 127.5,101.5 130.5,103.8 133.3,106.3 136,108.9 126.4,116.2 124.8,113.6 123,111.1 121.1,108.7 119,106.4 116.8,104.1 114.4,102 111.7,99.9 108.9,97.8 105.9,95.8 102.6,94.1 " />
<polygon points="136,109 137,113.4 134.7,117.4 130.3,118.4 126.4,116.2 " />
<polygon points="63.3,54.7 66,56.2 68.9,57.4 71.6,58.7 74.1,60.2 76.5,61.8 78.8,63.6 80.8,65.4 82.8,67.4 84.5,69.5 86.1,71.7 75.2,76.7 74.8,74.9 74.1,73 73.3,71 72.3,69 71.2,67 69.8,64.9 68.2,62.7 66.5,60.5 64.6,58.2 62.3,56.2 " />
<polygon points="86.1,71.7 86.3,76.3 83.2,79.7 78.6,79.8 75.2,76.7 " />
<polygon points="135.2,61.4 133,63.5 130.6,65.8 128.1,68 125.5,70.3 122.6,72.6 119.6,75 116.4,77.4 112.9,79.8 109.3,82.1 105.5,84.6 104.4,83.3 107.3,79.9 109.9,76.5 112.4,73.2 114.8,70.1 117,67.2 119,64.3 120.9,61.6 122.6,59 124.2,56.5 125.6,54.2 " />
<polygon points="125.6,54.2 135.2,61.4 126,53.5 " />
<polygon points="135.2,61.4 136.4,64.8 129.2,64.3 " />
</g>
</svg>
