<svg xmlns="http://www.w3.org/2000/svg" xmlns:xlink="http://www.w3.org/1999/xlink" version="1.1" baseProfile="full" viewBox="0 0 200 200" width="200" height="200">
<g fill="black">
<polygon points="100.2,19.3 97.7,22 95.2,24.6 92.7,27.1 90.1,29.5 87.5,31.9 84.8,34.2 82.1,36.5 79.3,38.6 76.4,40.5 73.6,42.6 72.3,41.3 74.3,38.5 76.1,35.6 77.9,32.6 79.8,29.8 81.6,26.9 83.4,24 85.2,21.1 87,18.1 88.8,15.2 90.5,12.2 " />
<polygon points="89.9,13 100.2,19.3 91,11.6 " />
<polygon points="100.2,19.3 101.4,22.7 95.6,22.2 " />
<polygon points="50,40 50,131 38,137 38,34 " />
<polygon points="44,40 157,40 157,44 44,44 " />
<polygon points="163,42 163,130 151,136 151,42 " />
<polygon points="151,40 157,35 168,44 163,48 151,42 " />
<polygon points="18,143 184,143 184,147 18,147 " />
<polygon points="184,143 160,145 172,133 " />
<polygon points="106.8,123.8 104,135.4 99.8,146.1 94,155.6 86.8,164 78.3,171.3 68.4,177.4 57.2,182.3 44.7,186 31,188.5 16.1,189.8 15.8,188.1 30.3,184.8 43.2,180.9 54.7,176.2 64.6,170.8 73.1,164.6 80.1,157.7 85.7,150 90,141.6 93.1,132.3 94.9,122.1 " />
<polygon points="94.7,123.1 106.8,123.8 95.1,120.1 " />
<polygon points="106.8,123.8 109.5,126.2 104.1,128.4 " />
<polygon points="100.3,145.2 106,150.3 111.9,155 118,159.1 124.4,162.8 131.2,166 138.3,168.6 145.9,170.8 154,172.5 162.5,173.7 171.5,174.4 170.4,187.5 160.7,186.1 151.5,184 142.8,181.4 134.6,178.2 127,174.3 120,169.9 113.6,164.9 107.9,159.3 102.9,153.1 98.8,146.3 " />
<polygon points="170.4,187.5 171.5,174.4 182.3,175.3 " />
<polygon points="55,87 144,87 144,91 55,91 " />
<polygon points="144,87 120,89 132,77 " />
<polygon points="102.6,89 99.9,92.4 96.2,96.9 92.3,101.3 88.3,105.5 84.1,109.6 79.7,113.5 75.1,117.2 70.3,120.7 65.2,124 60,127 54.5,129.7 53.4,128.2 57.7,124 61.9,119.8 66,115.7 70,111.6 73.7,107.4 77.3,103.2 80.8,98.9 84,94.5 87.1,90.1 87.7,89 " />
<polygon points="106,64 106,116 94,122 94,62 " />
<polygon points="106,64 109,66 104,69 " />
<polygon points="102.2,96.4 105.6,97.1 109.1,97.8 112.6,98.8 116.1,100 119.5,101.5 122.8,103.1 126.1,104.9 129.4,106.9 132.7,109.1 135.9,111.5 127.7,120.3 125.3,117.6 122.9,115.1 120.4,112.6 117.9,110.3 115.3,108.1 112.7,105.9 110,103.9 107.3,101.9 104.5,99.8 101.6,98.1 " />
<polygon points="135.9,111.5 137.7,115.7 136.1,120 132,121.8 127.7,120.3 " />
<polygon points="67.3,65.7 69.2,66.7 71.4,67.3 73.4,68.1 75.4,69.1 77.4,70.2 79.2,71.4 81,72.7 82.7,74.2 84.3,75.7 85.8,77.4 75.2,83.2 74.8,81.6 74.3,80 73.8,78.4 73.1,76.8 72.3,75.2 71.3,73.6 70.3,71.9 69.2,70.2 68,68.5 66.3,67.2 " />
<polygon points="85.8,77.4 86.2,82 83.4,85.6 78.8,86 75.2,83.2 " />
<polygon points="132.5,70 130.7,71.9 128.9,73.8 127.1,75.8 125.1,77.7 123.1,79.6 120.9,81.6 118.7,83.5 116.4,85.5 113.9,87.4 111.6,89.5 110.3,88.4 111.9,85.8 113.2,83 114.5,80.3 115.8,77.7 117.1,75.2 118.2,72.7 119.4,70.3 120.4,68 121.4,65.8 122.4,63.6 " />
<polygon points="121.8,64.4 132.5,70 122.9,62.8 " />
<polygon points="132.5,70 133.9,73.3 128.1,73.2 " />
<polygon points="131.3,58 123.2,59.5 115.2,60.8 107.4,62 99.6,63.2 92,64.2 84.4,65.1 76.9,65.9 69.6,66.4 62.3,66.8 55.1,66.8 54.8,65.1 61.7,63 68.7,61.1 75.9,59.4 83.1,57.6 90.4,55.8 97.9,54 105.4,52.2 113.1,50.3 120.8,48.3 128.7,46.3 " />
<polygon points="127.7,46.5 131.3,58 139.5,56.2 " />
<polygon points="139.5,56.2 139.8,59.2 132.5,55.7 " />
</g>
</svg>
