<svg xmlns="http://www.w3.org/2000/svg" xmlns:xlink="http://www.w3.org/1999/xlink" version="1.1" baseProfile="full" viewBox="0 0 200 200" width="200" height="200">
<g fill="black">
<polygon points="58.5,26.4 58.5,74.3 46.5,80.3 46.5,20.4 " />
<polygon points="52.5,26.4 147.5,26.4 147.5,30.4 52.5,30.4 " />
<polygon points="153.5,28.4 153.5,73.3 141.5,79.3 141.5,28.4 " />
<polygon points="141.5,26.4 147.5,21.4 158.5,30.4 153.5,34.4 141.5,28.4 " />
<polygon points="18.3,46.8 181.7,46.8 181.7,50.8 18.3,50.8 " />
<polygon points="181.7,46.8 161.7,48.8 171.7,37.8 " />
<polygon points="52.5,67.3 147.5,67.3 147.5,71.3 52.5,71.3 " />
<polygon points="52.8,87.8 52.8,115.3 40.8,121.3 40.8,81.8 " />
<polygon points="47.7,87.8 152.2,87.8 152.2,91.8 47.7,91.8 " />
<polygon points="158.2,89.8 158.2,114.3 146.2,120.3 146.2,89.8 " />
<polygon points="146.2,87.8 152.2,82.8 163.2,91.8 158.2,95.8 146.2,89.8 " />
<polygon points="47.7,108.3 152.2,108.3 152.2,112.3 47.7,112.3 " />
<polygon points="106,14.7 106,112.3 94,112.3 94,12.7 " />
<polygon points="106,14.7 109,16.7 104,19.7 " />
<polygon points="93.4,119.8 63.6,165.2 50.3,163.7 84.5,111.6 " />
<polygon points="93.4,119.8 94.8,123.1 89.6,123.7 " />
<polygon points="68,153.9 80,154.4 91.4,155.4 102.3,156.9 112.8,158.8 122.8,161.1 132.3,163.8 141.3,166.8 149.9,170.2 158,173.9 165.6,178 159.2,188.2 152.5,183.9 145.3,179.9 137.5,176.1 129.2,172.6 120.3,169.3 110.9,166.2 101,163.4 90.5,160.7 79.4,158.2 67.8,155.7 " />
<polygon points="165.6,178 168.2,181.8 167.5,186.3 163.7,188.9 159.2,188.2 " />
<polygon points="136.9,130.7 136.9,131 135,141.2 130.6,150.5 123.9,158.7 115.3,165.7 104.6,171.6 92.1,176.6 77.6,180.6 61.1,183.7 42.5,185.9 22,187.1 21.9,185.3 42.1,182.1 60,178.5 75.8,174.3 89.4,169.4 100.8,164 109.8,158.1 116.7,151.8 121.3,145.1 124,138 124.9,130.7 " />
<polygon points="14,128.7 186,128.7 186,132.7 14,132.7 " />
<polygon points="186,128.7 162,130.7 174,118.7 " />
</g>
</svg>
