<svg xmlns="http://www.w3.org/2000/svg" xmlns:xlink="http://www.w3.org/1999/xlink" version="1.1" baseProfile="full" viewBox="0 0 200 200" width="200" height="200">
<g fill="black">
<polygon points="58,26 58,74 46,80 46,20 " />
<polygon points="52,26 147,26 147,30 52,30 " />
<polygon points="153,28 153,73 141,79 141,28 " />
<polygon points="141,26 147,21 158,30 153,34 141,28 " />
<polygon points="52,46 147,46 147,50 52,50 " />
<polygon points="52,67 147,67 147,71 52,71 " />
<polygon points="52,87 52,115 40,121 40,81 " />
<polygon points="47,87 152,87 152,91 47,91 " />
<polygon points="158,89 158,114 146,120 146,89 " />
<polygon points="146,87 152,82 163,91 158,95 146,89 " />
<polygon points="47,108 152,108 152,112 47,112 " />
<polygon points="106,14 106,112 94,112 94,12 " />
<polygon points="106,14 109,16 104,19 " />
<polygon points="93.4,119.8 63.6,165.2 50.3,163.7 84.5,111.6 " />
<polygon points="93.4,119.8 94.8,123.1 89.6,123.7 " />
<polygon points="68,153.9 80,154.4 91.4,155.4 102.3,156.9 112.8,158.8 122.8,161.1 132.3,163.8 141.3,166.8 149.9,170.2 158,173.9 165.6,178 159.2,188.2 152.5,183.9 145.3,179.9 137.5,176.1 129.2,172.6 120.3,169.3 110.9,166.2 101,163.4 90.5,160.7 79.4,158.2 67.8,155.7 " />
<polygon points="165.6,178 168.2,181.8 167.5,186.3 163.7,188.9 159.2,188.2 " />
<polygon points="136.9,130.7 136.9,131 135,141.2 130.6,150.5 123.9,158.7 115.3,165.7 104.6,171.6 92.1,176.6 77.6,180.6 61.1,183.7 42.5,185.9 22,187.1 21.9,185.3 42.1,182.1 60,178.5 75.8,174.3 89.4,169.4 100.8,164 109.8,158.1 116.7,151.8 121.3,145.1 124,138 124.9,130.7 " />
<polygon points="14,128.7 186,128.7 186,132.7 14,132.7 " />
<polygon points="186,128.7 162,130.7 174,118.7 " />
</g>
</svg>
