<svg xmlns="http://www.w3.org/2000/svg" xmlns:xlink="http://www.w3.org/1999/xlink" version="1.1" baseProfile="full" viewBox="0 0 200 200" width="200" height="200">
<g fill="black">
<polygon points="38,43 136,43 136,47 38,47 " />
<polygon points="136,43 112,45 124,33 " />
<polygon points="99,16 99,80 87,80 87,14 " />
<polygon points="99,16 102,18 99,20 " />
<polygon points="19,76 182,76 182,80 19,80 " />
<polygon points="182,76 158,78 170,66 " />
<polygon points="163.4,25.1 153.2,38.9 142,52.1 129.8,64.8 116.8,77 102.8,88.7 87.8,99.8 71.9,110.5 55,120.6 37.2,130 18.4,138.8 17.5,137.1 35.4,126.7 52.3,116 68.2,105 83.3,93.8 97.4,82.1 110.5,70.2 122.6,57.8 133.9,45.1 144.1,31.9 153.4,18.4 " />
<polygon points="153.4,18.4 163.4,25.1 153.9,17.7 " />
<polygon points="163.4,25.1 164.7,28.5 157.5,28.4 " />
<polygon points="49,97 135,97 135,101 49,101 " />
<polygon points="139,103.4 136.1,105.5 133.2,107.6 130.2,109.7 127.3,111.7 124.2,113.7 121.2,115.6 118.1,117.5 114.9,119.2 111.6,120.9 108.5,122.7 107.4,121.2 109.8,118.6 112.1,115.8 114.4,113.1 116.8,110.4 119.2,107.7 121.5,105.1 123.9,102.4 126.2,99.8 128.6,97.2 130.9,94.5 " />
<polygon points="129,97 135,92 146,101 141,105 135,105 " />
<polygon points="110,118 110,176 98,176 98,116 " />
<polygon points="110,118 113,120 110,122 " />
<polygon points="110,176 107.6,179.6 104,182 100.4,179.6 98,176 " />
<polygon points="110,176 109.8,178.5 109.4,181 108.6,183.4 107.3,185.7 105.7,187.7 103.7,189.3 101.4,190.6 99,191.4 96.5,191.8 94,192 94,180 95.2,179.9 96.1,179.7 96.7,179.5 97,179.4 97.2,179.2 97.4,179 97.5,178.7 97.7,178.1 97.9,177.2 98,176 " />
<polygon points="94,186 94,180 74,180 74,183 " />
<polygon points="35,139 174,139 174,143 35,143 " />
<polygon points="174,139 150,141 162,129 " />
</g>
</svg>
