<svg xmlns="http://www.w3.org/2000/svg" xmlns:xlink="http://www.w3.org/1999/xlink" version="1.1" baseProfile="full" viewBox="0 0 200 200" width="200" height="200">
<g fill="black">
<polygon points="106,15.6 106,44.2 94,44.2 94,13.6 " />
<polygon points="106,15.6 109,17.6 106,19.6 " />
<polygon points="31,33.3 31.9,37.4 32.8,41.3 33.3,45.2 33.3,49 33,52.7 32.3,56.3 31.1,59.8 29.6,63.1 27.6,66.3 25.2,69.2 17.2,60.3 19.2,58.8 21,57.1 22.7,55.2 24.2,53 25.6,50.6 26.7,47.8 27.7,44.7 28.5,41.3 29.1,37.5 29.2,33.5 " />
<polygon points="25.2,69.2 20.9,70.7 16.7,68.8 15.2,64.5 17.2,60.3 " />
<polygon points="28,40.2 177,40.2 177,44.2 28,44.2 " />
<polygon points="182,45.5 180.5,47 178.8,48.7 177,50.5 175,52.5 172.8,54.7 170.3,57 167.7,59.5 164.9,62.2 161.7,64.9 158.7,68 157.2,66.9 159.6,63.2 161.5,59.6 163.4,56.2 165.1,53 166.6,50.1 168,47.4 169.3,45 170.3,42.7 171.2,40.7 171.9,39 " />
<polygon points="171,40.2 177,35.2 188,44.2 183,48.2 177,48.2 " />
<polygon points="76.7,51.9 63.4,134 50.5,137.9 65.2,48 " />
<polygon points="76.7,51.9 79.4,54.4 76.1,55.8 " />
<polygon points="65,82 138,82 138,86 65,86 " />
<polygon points="143.9,84.6 132.7,181.6 120.8,180.2 132,83.3 " />
<polygon points="132,82 138,77 149,86 144,90 132,84 " />
<polygon points="77.2,115.4 81,116.1 84.9,116.9 88.6,118.1 92.3,119.6 95.8,121.5 99.3,123.6 102.7,126.1 105.9,128.8 109,131.7 112,135 102.3,142.1 100.3,138.9 98.2,135.9 96,133.1 93.6,130.4 91.1,127.9 88.5,125.5 85.8,123.2 82.9,121 79.9,118.9 76.6,117.1 " />
<polygon points="112,135 113,139.4 110.7,143.4 106.3,144.4 102.3,142.1 " />
<polygon points="20,177 179,177 179,181 20,181 " />
<polygon points="179,177 155,179 167,167 " />
</g>
</svg>
