<svg xmlns="http://www.w3.org/2000/svg" xmlns:xlink="http://www.w3.org/1999/xlink" version="1.1" baseProfile="full" viewBox="0 0 200 200" width="200" height="200">
<g fill="black">
<polygon points="106,15.6 106,44.2 94,44.2 94,13.6 " />
<polygon points="106,15.6 109,17.6 104,20.6 " />
<polygon points="31,33.3 31.9,37.4 32.8,41.3 33.3,45.2 33.3,49 33,52.7 32.3,56.3 31.1,59.8 29.6,63.1 27.6,66.3 25.2,69.2 17.2,60.3 19.2,58.8 21,57.1 22.7,55.2 24.2,53 25.6,50.6 26.7,47.8 27.7,44.7 28.5,41.3 29.1,37.5 29.2,33.5 " />
<polygon points="25.2,69.2 20.9,70.7 16.7,68.8 15.2,64.5 17.2,60.3 " />
<polygon points="28,40.2 177,40.2 177,44.2 28,44.2 " />
<polygon points="182,45.5 180.5,47 178.8,48.7 177,50.5 175,52.5 172.8,54.7 170.3,57 167.7,59.5 164.9,62.2 161.7,64.9 158.7,68 157.2,66.9 159.6,63.2 161.5,59.6 163.4,56.2 165.1,53 166.6,50.1 168,47.4 169.3,45 170.3,42.7 171.2,40.7 171.9,39 " />
<polygon points="171,40.2 177,35.2 188,44.2 183,47.2 171,52.2 " />
<polygon points="79.1,69 63.4,142.3 50.5,145.6 66.8,69 " />
<polygon points="65,100 138,100 138,104 65,104 " />
<polygon points="143,103 133,179 120.9,179 131.9,102 " />
<polygon points="132,100 138,95 149,104 144,107 132,112 " />
<polygon points="77.1,127.3 80.9,127.9 84.7,128.4 88.3,129.2 91.9,130.3 95.4,131.6 98.8,133.2 102.1,135 105.3,137 108.3,139.2 111.3,141.7 102.5,149.9 100.6,147.3 98.5,144.9 96.3,142.6 93.9,140.4 91.5,138.3 88.8,136.3 86,134.4 83.1,132.5 80,130.6 76.7,129.1 " />
<polygon points="111.3,141.7 112.8,146 111,150.1 106.7,151.7 102.5,149.9 " />
<polygon points="20,177 179,177 179,181 20,181 " />
<polygon points="179,177 155,179 167,167 " />
<polygon points="45,67 146,67 146,71 45,71 " />
<polygon points="146,67 122,69 134,57 " />
</g>
</svg>
