<svg xmlns="http://www.w3.org/2000/svg" xmlns:xlink="http://www.w3.org/1999/xlink" version="1.1" baseProfile="full" viewBox="0 0 200 200" width="200" height="200">
<g fill="black">
<polygon points="106,13.4 106,42 94,42 94,11.4 " />
<polygon points="106,13.4 109,15.4 104,18.4 " />
<polygon points="36,29.8 36.7,35.3 37.3,40.6 37.4,45.5 37.1,50.1 36.5,54.5 35.4,58.5 34,62.3 32.1,65.7 29.7,68.8 26.7,71.5 20.3,61.4 22.1,60.4 23.9,59.1 25.6,57.3 27.3,54.9 28.9,52.1 30.3,48.6 31.5,44.7 32.6,40.2 33.6,35.3 34.2,29.8 " />
<polygon points="26.7,71.5 22.2,72.2 18.5,69.7 17.7,65.1 20.3,61.4 " />
<polygon points="36,38.8 171.4,38.8 171.4,42.8 36,42.8 " />
<polygon points="176.6,43.8 174.9,45.8 173.2,47.8 171.3,49.8 169.2,52 167,54.3 164.6,56.6 162,59.1 159.2,61.6 156.2,64.1 153.3,67 151.9,65.9 154.1,62.4 155.9,59 157.6,55.7 159.3,52.6 160.8,49.7 162.2,47 163.4,44.5 164.5,42.1 165.4,39.8 166.2,37.8 " />
<polygon points="165.4,38.8 171.4,33.8 182.4,42.8 177.4,45.8 165.4,50.8 " />
<polygon points="150.1,69 140.3,70.5 130.3,71.7 119.9,72.9 109.2,73.9 98.2,74.7 86.8,75.4 75.1,75.9 63.1,76.2 50.7,76.2 38,75.8 37.9,74.1 50.5,72.4 62.7,70.8 74.6,69.4 86.1,67.8 97.3,66.3 108.1,64.6 118.6,62.9 128.7,61.1 138.4,59.2 147.9,57.2 " />
<polygon points="158.9,67.4 150.1,69 146.9,57.4 " />
<polygon points="158.9,67.4 159.3,70.4 151.9,66.7 " />
<polygon points="37,91 163,91 163,95 37,95 " />
<polygon points="163,91 139,93 151,81 " />
<polygon points="106,51 106,118 94,118 94,49 " />
<polygon points="106,51 109,53 104,56 " />
<polygon points="17,114 183,114 183,118 17,118 " />
<polygon points="183,114 159,116 171,104 " />
</g>
</svg>
