<svg xmlns="http://www.w3.org/2000/svg" xmlns:xlink="http://www.w3.org/1999/xlink" version="1.1" baseProfile="full" viewBox="0 0 200 200" width="200" height="200">
<g fill="black">
<polygon points="106,13.5 106,40.1 94,40.1 94,11.5 " />
<polygon points="106,13.5 109,15.5 104,18.5 " />
<polygon points="31.9,28.6 32.5,33.8 33,38.7 33.1,43.3 32.8,47.7 32.1,51.7 30.9,55.6 29.3,59.2 27.2,62.4 24.6,65.4 21.5,67.8 15.7,57.4 17.6,56.5 19.5,55.3 21.3,53.7 23.1,51.6 24.7,49 26.1,46 27.4,42.4 28.6,38.3 29.6,33.8 30.1,28.7 " />
<polygon points="21.5,67.8 16.9,68.3 13.3,65.5 12.9,61 15.7,57.4 " />
<polygon points="32,36.8 176,36.8 176,40.8 32,40.8 " />
<polygon points="180.9,42.2 179.2,43.9 177.4,45.7 175.4,47.6 173.2,49.6 170.9,51.7 168.4,53.8 165.7,56 162.8,58.3 159.7,60.6 156.6,63.2 155.3,62 157.7,58.8 159.7,55.5 161.6,52.4 163.4,49.5 165,46.8 166.5,44.2 167.9,41.8 169.1,39.5 170.1,37.4 171,35.5 " />
<polygon points="170,36.8 176,31.8 187,40.8 182,43.8 170,48.8 " />
<polygon points="45,60 155,60 155,64 45,64 " />
<polygon points="155,60 135,62 145,51 " />
<polygon points="65.4,79.5 65.4,108.4 53.4,114.4 53.4,73.5 " />
<polygon points="59.4,79.5 140.6,79.5 140.6,83.5 59.4,83.5 " />
<polygon points="146.6,81.5 146.6,108.4 134.6,114.4 134.6,81.5 " />
<polygon points="134.6,79.5 140.6,74.5 151.6,83.5 146.6,87.5 134.6,81.5 " />
<polygon points="59.4,104.4 140.6,104.4 140.6,108.4 59.4,108.4 " />
<polygon points="45.7,123.2 45.7,184.2 33.7,190.2 33.7,117.2 " />
<polygon points="39.7,123.2 160.3,123.2 160.3,127.2 39.7,127.2 " />
<polygon points="166.3,125.2 166.3,181.2 154.3,187.2 154.3,125.2 " />
<polygon points="154.3,123.2 160.3,118.2 171.3,127.2 166.3,131.2 154.3,125.2 " />
<polygon points="106,123.2 106,177.2 94,177.2 94,123.2 " />
<polygon points="39.7,147.8 160.3,147.8 160.3,151.8 39.7,151.8 " />
<polygon points="39.7,173.2 160.3,173.2 160.3,177.2 39.7,177.2 " />
</g>
</svg>
