<svg xmlns="http://www.w3.org/2000/svg" xmlns:xlink="http://www.w3.org/1999/xlink" version="1.1" baseProfile="full" viewBox="0 0 200 200" width="200" height="200">
<g fill="black">
<polygon points="106.5,14.9 106.5,41.6 94.5,41.6 94.5,12.9 " />
<polygon points="106.5,14.9 109.5,16.9 106.5,18.9 " />
<polygon points="36,31.3 36.9,35.1 37.7,38.8 38.2,42.4 38.3,46 38.1,49.4 37.4,52.8 36.4,56.1 35,59.2 33.2,62.2 31,65 22.9,56.1 24.8,54.8 26.5,53.3 28.1,51.6 29.5,49.6 30.8,47.4 31.9,44.8 32.8,42 33.6,38.8 34.2,35.3 34.2,31.6 " />
<polygon points="31,65 26.6,66.5 22.5,64.6 21,60.3 22.9,56.1 " />
<polygon points="33.1,37.6 172.4,37.6 172.4,41.6 33.1,41.6 " />
<polygon points="177.5,42.9 176.1,44.3 174.5,45.9 172.7,47.6 170.8,49.4 168.7,51.4 166.4,53.6 163.9,55.9 161.2,58.3 158.2,60.9 155.4,63.8 154,62.7 156.2,59.2 158,55.8 159.6,52.6 161.2,49.6 162.6,46.9 163.9,44.3 165,42 166,39.9 166.8,38 167.4,36.4 " />
<polygon points="166.4,37.6 172.4,32.6 183.4,41.6 178.4,45.6 172.4,45.6 " />
<polygon points="53.7,52.1 53.3,56.4 53,60.6 52.3,64.7 51.3,68.6 49.9,72.4 48.3,76 46.4,79.4 44.3,82.7 41.8,85.8 39.1,88.7 31.5,79.4 34,77.7 36.4,75.7 38.8,73.6 40.9,71.2 43,68.6 45,65.7 46.9,62.6 48.7,59.3 50.5,55.7 51.9,51.8 " />
<polygon points="39.1,88.7 34.7,90 30.6,87.8 29.4,83.4 31.5,79.4 " />
<polygon points="77,54 77,72 65,72 65,52 " />
<polygon points="77,54 80,56 77,58 " />
<polygon points="77,72 74.6,75.6 71,78 67.4,75.6 65,72 " />
<polygon points="77,72 77,73.2 77.2,74.1 77.4,74.7 77.5,75 77.7,75.2 77.9,75.4 78.2,75.5 78.8,75.7 79.7,75.9 81,76 81,88 78.4,87.8 75.9,87.4 73.5,86.6 71.2,85.3 69.2,83.7 67.6,81.7 66.3,79.4 65.5,77 65.1,74.5 65,72 " />
<polygon points="81,76 85.2,77.8 87,82 85.2,86.2 81,88 " />
<polygon points="81,76 131,76 131,88 81,88 " />
<polygon points="131,76 134.6,78.4 137,82 134.6,85.6 131,88 " />
<polygon points="125,77 131,51 133,51 131,77 " />
<polygon points="87.2,44.6 90.4,45.8 93.6,46.9 96.6,48.1 99.4,49.5 102.1,51.1 104.6,52.9 107,54.8 109.2,56.9 111.2,59.2 113,61.6 102.2,67 101.6,64.9 100.8,62.9 99.7,60.8 98.5,58.8 97.1,56.7 95.4,54.6 93.5,52.4 91.4,50.3 89.2,48.1 86.4,46.2 " />
<polygon points="113,61.6 113.2,66.1 110.3,69.6 105.7,69.9 102.2,67 " />
<polygon points="138.2,56.6 141.9,57.9 145.5,59.2 148.9,60.8 152.1,62.6 155.2,64.6 158.1,66.8 160.8,69.2 163.4,71.7 165.7,74.5 167.8,77.5 157.2,83.1 156.2,80.4 154.9,77.8 153.4,75.3 151.8,72.7 149.9,70.2 147.9,67.8 145.6,65.3 143.1,62.9 140.5,60.4 137.4,58.2 " />
<polygon points="167.8,77.5 168.2,82 165.4,85.6 160.8,86 157.2,83.1 " />
<polygon points="52,99 52,131 40,131 40,93 " />
<polygon points="46,99 153,99 153,103 46,103 " />
<polygon points="159,101 159,131 147,131 147,101 " />
<polygon points="147,99 153,94 164,103 159,107 147,101 " />
<polygon points="87,99 87,131 75,131 75,99 " />
<polygon points="123,99 123,131 111,131 111,99 " />
<polygon points="16,127 184,127 184,131 16,131 " />
<polygon points="184,127 160,129 172,117 " />
<polygon points="107,127 107,172 95,172 95,127 " />
<polygon points="107,172 104.6,175.6 101,178 97.4,175.6 95,172 " />
<polygon points="107,172 106.8,174.5 106.4,177 105.6,179.4 104.3,181.7 102.7,183.7 100.7,185.3 98.4,186.6 96,187.4 93.5,187.8 91,188 91,176 92.2,175.9 93.1,175.7 93.7,175.5 94,175.4 94.2,175.2 94.4,175 94.5,174.7 94.7,174.1 94.9,173.2 95,172 " />
<polygon points="91,182 91,176 71,176 71,179 " />
</g>
</svg>
