<svg xmlns="http://www.w3.org/2000/svg" xmlns:xlink="http://www.w3.org/1999/xlink" version="1.1" baseProfile="full" viewBox="0 0 200 200" width="200" height="200">
<g fill="black">
<polygon points="105,14.4 105,40.6 93,40.6 93,12.4 " />
<polygon points="105,14.4 108,16.4 103,19.4 " />
<polygon points="35.7,29.3 36.3,34.4 36.9,39.2 37,43.8 36.7,48 36.1,52 35.1,55.8 33.6,59.3 31.7,62.5 29.3,65.4 26.5,67.9 20.4,57.6 22.1,56.8 23.9,55.7 25.6,54.1 27.2,52.1 28.7,49.5 30.1,46.5 31.3,42.9 32.4,38.9 33.4,34.4 33.9,29.4 " />
<polygon points="26.5,67.9 21.9,68.5 18.2,65.8 17.7,61.3 20.4,57.6 " />
<polygon points="35.7,37.4 169.6,37.4 169.6,41.4 35.7,41.4 " />
<polygon points="174.7,42.6 173.1,44.3 171.3,46.1 169.4,48 167.4,49.9 165.2,52 162.8,54.1 160.3,56.3 157.5,58.5 154.5,60.8 151.7,63.4 150.4,62.2 152.6,59.1 154.4,55.9 156.1,52.8 157.7,50 159.2,47.3 160.6,44.7 161.8,42.3 162.9,40.1 163.8,38.1 164.6,36.1 " />
<polygon points="163.6,37.4 169.6,32.4 180.6,41.4 175.6,44.4 163.6,49.4 " />
<polygon points="58,78 58,155 46,161 46,72 " />
<polygon points="52,78 147,78 147,82 52,82 " />
<polygon points="153,80 153,149 141,155 141,80 " />
<polygon points="141,78 147,73 158,82 153,86 141,80 " />
<polygon points="52,139 147,139 147,143 52,143 " />
<polygon points="52,97 147,97 147,101 52,101 " />
<polygon points="40,59 78,59 78,63 40,63 " />
<polygon points="119,59 157,59 157,63 119,63 " />
<polygon points="157,59 145,61 151,53 " />
<polygon points="84,46 84,73 72,79 72,44 " />
<polygon points="84,46 87,48 82,51 " />
<polygon points="125,46 125,73 113,79 113,44 " />
<polygon points="125,46 128,48 123,51 " />
<polygon points="52,118 147,118 147,122 52,122 " />
<polygon points="89.6,145.2 86.8,153.8 82.8,161.5 77.6,168.3 71.4,174.2 64.2,179 56,182.9 46.8,185.9 36.8,187.9 25.9,188.9 14,188.8 13.9,187.1 25.4,185.1 35.7,182.6 44.9,179.6 52.8,176 59.6,171.9 65.3,167.2 69.9,161.9 73.5,156.1 76.1,149.7 77.9,142.7 " />
<polygon points="77.7,143.6 89.6,145.2 78.3,140.8 " />
<polygon points="89.6,145.2 92.1,147.8 86.6,149.7 " />
<polygon points="120,139 120,167 108,167 108,139 " />
<polygon points="120,167 117.6,170.6 114,173 110.4,170.6 108,167 " />
<polygon points="120,167 120,168.2 120.2,169.1 120.4,169.7 120.5,170 120.7,170.2 120.9,170.4 121.2,170.5 121.8,170.7 122.7,170.9 124,171 124,183 121.4,182.8 118.9,182.4 116.5,181.6 114.2,180.3 112.2,178.7 110.6,176.7 109.3,174.4 108.5,172 108.1,169.5 108,167 " />
<polygon points="124,171 128.2,172.8 130,177 128.2,181.2 124,183 " />
<polygon points="124,171 172,171 172,183 124,183 " />
<polygon points="172,171 175.6,173.4 178,177 175.6,180.6 172,183 " />
<polygon points="166,172 172,146 174,146 172,172 " />
</g>
</svg>
