<svg xmlns="http://www.w3.org/2000/svg" xmlns:xlink="http://www.w3.org/1999/xlink" version="1.1" baseProfile="full" viewBox="0 0 200 200" width="200" height="200">
<g fill="black">
<polygon points="106.5,15.4 106.5,43.3 94.5,43.3 94.5,13.4 " />
<polygon points="106.5,15.4 109.5,17.4 106.5,19.4 " />
<polygon points="35.3,32.6 36.2,36.5 37.1,40.4 37.6,44.2 37.7,47.8 37.4,51.4 36.7,55 35.7,58.3 34.3,61.6 32.4,64.7 30.2,67.6 22,58.8 23.9,57.4 25.7,55.8 27.3,53.9 28.7,51.8 30,49.4 31.1,46.7 32.1,43.7 32.8,40.4 33.5,36.7 33.5,32.8 " />
<polygon points="30.2,67.6 25.9,69.1 21.7,67.3 20.2,63 22,58.8 " />
<polygon points="32.4,39.3 173.2,39.3 173.2,43.3 32.4,43.3 " />
<polygon points="178.3,44.5 176.9,46 175.3,47.6 173.5,49.4 171.6,51.3 169.4,53.5 167.1,55.7 164.6,58.2 161.9,60.7 158.9,63.4 156,66.5 154.5,65.4 156.8,61.8 158.5,58.2 160.3,54.9 161.8,51.8 163.3,49 164.6,46.3 165.7,43.9 166.7,41.8 167.5,39.8 168.1,38.1 " />
<polygon points="167.2,39.3 173.2,34.3 184.2,43.3 179.2,47.3 173.2,47.3 " />
<polygon points="59,79 59,156 47,162 47,73 " />
<polygon points="53,79 149,79 149,83 53,83 " />
<polygon points="155,81 155,150 143,156 143,81 " />
<polygon points="143,79 149,74 160,83 155,87 143,81 " />
<polygon points="53,140 149,140 149,144 53,144 " />
<polygon points="53,98 149,98 149,102 53,102 " />
<polygon points="40,60 160,60 160,64 40,64 " />
<polygon points="160,60 148,62 154,54 " />
<polygon points="85,47 85,74 73,80 73,45 " />
<polygon points="85,47 88,49 85,51 " />
<polygon points="127,47 127,74 115,80 115,45 " />
<polygon points="127,47 130,49 127,51 " />
<polygon points="53,119 149,119 149,123 53,123 " />
<polygon points="90.6,146.2 87.8,154.8 83.7,162.5 78.5,169.3 72.2,175.2 64.9,180 56.6,183.9 47.3,186.9 37.2,188.9 26,189.9 14,189.8 13.9,188.1 25.6,186.1 36.1,183.6 45.4,180.6 53.5,177 60.4,172.8 66.2,168.1 70.8,162.9 74.5,157.1 77.1,150.7 78.9,143.7 " />
<polygon points="78.9,143.7 90.6,146.2 79.3,141.8 " />
<polygon points="90.6,146.2 93.1,148.8 86.4,151.4 " />
<polygon points="122,140 122,168 110,168 110,140 " />
<polygon points="122,168 119.6,171.6 116,174 112.4,171.6 110,168 " />
<polygon points="122,168 122,169.2 122.2,170.1 122.4,170.7 122.5,171 122.7,171.2 122.9,171.4 123.2,171.5 123.8,171.7 124.7,171.9 126,172 126,184 123.4,183.8 120.9,183.4 118.5,182.6 116.2,181.3 114.2,179.7 112.6,177.7 111.3,175.4 110.5,173 110.1,170.5 110,168 " />
<polygon points="126,172 130.2,173.8 132,178 130.2,182.2 126,184 " />
<polygon points="126,172 175,172 175,184 126,184 " />
<polygon points="175,172 178.6,174.4 181,178 178.6,181.6 175,184 " />
<polygon points="169,173 175,147 177,147 175,173 " />
</g>
</svg>
