<svg xmlns="http://www.w3.org/2000/svg" xmlns:xlink="http://www.w3.org/1999/xlink" version="1.1" baseProfile="full" viewBox="0 0 200 200" width="200" height="200">
<g fill="black">
<polygon points="105,14.4 105,42.3 93,42.3 93,12.4 " />
<polygon points="105,14.4 108,16.4 103,19.4 " />
<polygon points="34.9,31.6 35.7,35.5 36.6,39.4 37.1,43.2 37.2,46.8 37,50.4 36.3,53.9 35.3,57.3 33.9,60.6 32.1,63.6 29.9,66.5 21.7,57.8 23.5,56.4 25.3,54.8 26.8,53 28.3,50.8 29.6,48.4 30.7,45.7 31.6,42.7 32.4,39.4 33,35.7 33.1,31.8 " />
<polygon points="29.9,66.5 25.6,68.1 21.4,66.3 19.9,62 21.7,57.8 " />
<polygon points="32,38.3 170.6,38.3 170.6,42.3 32,42.3 " />
<polygon points="175.7,43.4 174.2,44.9 172.7,46.6 170.9,48.4 169,50.3 166.9,52.4 164.6,54.7 162.1,57.1 159.4,59.7 156.5,62.4 153.6,65.5 152.2,64.4 154.4,60.8 156.1,57.2 157.8,53.9 159.3,50.8 160.7,48 162,45.4 163.1,43 164.1,40.8 164.8,38.9 165.5,37.1 " />
<polygon points="164.6,38.3 170.6,33.3 181.6,42.3 176.6,45.3 164.6,50.3 " />
<polygon points="58,78 58,155 46,161 46,72 " />
<polygon points="52,78 147,78 147,82 52,82 " />
<polygon points="153,80 153,143 141,149 141,80 " />
<polygon points="141,78 147,73 158,82 153,86 141,80 " />
<polygon points="52,139 147,139 147,143 52,143 " />
<polygon points="52,97 147,97 147,101 52,101 " />
<polygon points="40,59 78,59 78,63 40,63 " />
<polygon points="119,59 157,59 157,63 119,63 " />
<polygon points="157,59 145,61 151,53 " />
<polygon points="84,46 84,73 72,79 72,44 " />
<polygon points="84,46 87,48 82,51 " />
<polygon points="125,46 125,73 113,79 113,44 " />
<polygon points="125,46 128,48 123,51 " />
<polygon points="52,118 147,118 147,122 52,122 " />
<polygon points="89.6,145.2 86.8,153.8 82.8,161.5 77.6,168.3 71.4,174.2 64.2,179 56,182.9 46.8,185.9 36.8,187.9 25.9,188.9 14,188.8 13.9,187.1 25.4,185.1 35.7,182.6 44.9,179.6 52.8,176 59.6,171.9 65.3,167.2 69.9,161.9 73.5,156.1 76.1,149.7 77.9,142.7 " />
<polygon points="77.7,143.6 89.6,145.2 78.3,140.8 " />
<polygon points="89.6,145.2 92.1,147.8 86.6,149.7 " />
<polygon points="120,139 120,167 108,167 108,139 " />
<polygon points="120,167 117.6,170.6 114,173 110.4,170.6 108,167 " />
<polygon points="120,167 120,168.2 120.2,169.1 120.4,169.7 120.5,170 120.7,170.2 120.9,170.4 121.2,170.5 121.8,170.7 122.7,170.9 124,171 124,183 121.4,182.8 118.9,182.4 116.5,181.6 114.2,180.3 112.2,178.7 110.6,176.7 109.3,174.4 108.5,172 108.1,169.5 108,167 " />
<polygon points="124,171 128.2,172.8 130,177 128.2,181.2 124,183 " />
<polygon points="124,171 172,171 172,183 124,183 " />
<polygon points="172,171 175.6,173.4 178,177 175.6,180.6 172,183 " />
<polygon points="166,172 172,146 174,146 172,172 " />
<polygon points="126.1,152.3 129.8,152.7 133.3,152.8 136.8,153.2 140.1,153.7 143.2,154.3 146.3,155 149.2,155.9 152,156.9 154.6,158.1 157.2,159.3 150,169 148.5,167.4 146.8,165.9 144.9,164.4 142.8,162.8 140.4,161.3 137.9,159.8 135.2,158.3 132.3,156.8 129.1,155.2 125.7,154 " />
<polygon points="157.2,159.3 159.4,163.3 158.4,167.7 154.4,170 150,169 " />
</g>
</svg>
