<svg xmlns="http://www.w3.org/2000/svg" xmlns:xlink="http://www.w3.org/1999/xlink" version="1.1" baseProfile="full" viewBox="0 0 200 200" width="200" height="200">
<g fill="black">
<polygon points="107.5,14.7 107.5,43.4 95.5,43.4 95.5,12.7 " />
<polygon points="107.5,14.7 110.5,16.7 107.5,18.7 " />
<polygon points="34.2,32.5 35.1,36.6 36,40.5 36.5,44.4 36.6,48.2 36.3,51.9 35.6,55.5 34.5,59 33,62.4 31.1,65.5 28.8,68.5 20.6,59.7 22.6,58.2 24.4,56.5 26,54.6 27.5,52.4 28.8,49.9 30,47.1 31,44 31.7,40.5 32.4,36.7 32.4,32.7 " />
<polygon points="28.8,68.5 24.5,70.1 20.3,68.2 18.7,63.9 20.6,59.7 " />
<polygon points="31.3,39.5 176.5,39.5 176.5,43.5 31.3,43.5 " />
<polygon points="181.6,44.7 180.1,46.2 178.5,47.9 176.7,49.7 174.7,51.8 172.5,54 170.2,56.3 167.6,58.8 164.8,61.5 161.7,64.3 158.7,67.4 157.3,66.3 159.6,62.6 161.4,58.9 163.2,55.5 164.9,52.4 166.4,49.4 167.7,46.7 168.9,44.3 169.9,42 170.8,40 171.4,38.3 " />
<polygon points="170.5,39.5 176.5,34.5 187.5,43.5 182.5,47.5 176.5,47.5 " />
<polygon points="40,62 160,62 160,66 40,66 " />
<polygon points="160,62 136,64 148,52 " />
<polygon points="85,48 85,85 73,85 73,46 " />
<polygon points="85,48 88,50 85,52 " />
<polygon points="127,48 127,85 115,85 115,46 " />
<polygon points="127,48 130,50 127,52 " />
<polygon points="61,81 61,157 49,163 49,75 " />
<polygon points="55,81 147,81 147,85 55,85 " />
<polygon points="153,83 153,145 141,151 141,83 " />
<polygon points="141,81 147,76 158,85 153,89 141,83 " />
<polygon points="55,101 147,101 147,105 55,105 " />
<polygon points="55,121 147,121 147,125 55,125 " />
<polygon points="55,141 147,141 147,145 55,145 " />
<polygon points="94.4,143 93.7,144.7 90.3,152.9 86,160.4 80.7,167.1 74.6,173 67.6,177.9 59.8,182.1 51.3,185.4 41.9,187.8 31.9,189.3 21,189.8 20.9,188.1 31.2,185.5 40.5,182.6 48.9,179.2 56.3,175.3 62.8,171 68.4,166.1 73,160.7 76.9,154.8 79.9,148.3 81.6,143 " />
<polygon points="123,141 123,171 111,171 111,141 " />
<polygon points="123,171 120.6,174.6 117,177 113.4,174.6 111,171 " />
<polygon points="123,171 123,172.2 123.2,173.1 123.4,173.7 123.5,174 123.7,174.2 123.9,174.4 124.2,174.5 124.8,174.7 125.7,174.9 127,175 127,187 124.4,186.8 121.9,186.4 119.5,185.6 117.2,184.3 115.2,182.7 113.6,180.7 112.3,178.4 111.5,176 111.1,173.5 111,171 " />
<polygon points="127,175 131.2,176.8 133,181 131.2,185.2 127,187 " />
<polygon points="127,175 175,175 175,187 127,187 " />
<polygon points="175,175 178.6,177.4 181,181 178.6,184.6 175,187 " />
<polygon points="169,176 175,150 177,150 175,176 " />
<polygon points="131.2,150.5 134,151.4 136.9,152 139.7,152.8 142.4,153.8 145.1,154.9 147.7,156.2 150.2,157.6 152.6,159.2 155,160.9 157.3,162.7 148.5,170.8 147.1,168.8 145.7,166.8 144.2,164.8 142.5,162.9 140.8,161.1 139,159.2 137,157.4 135,155.5 132.9,153.6 130.5,152.2 " />
<polygon points="157.3,162.7 158.9,167 157,171.2 152.7,172.7 148.5,170.8 " />
</g>
</svg>
