<svg xmlns="http://www.w3.org/2000/svg" xmlns:xlink="http://www.w3.org/1999/xlink" version="1.1" baseProfile="full" viewBox="0 0 200 200" width="200" height="200">
<g fill="black">
<polygon points="19,113 180,113 180,117 19,117 " />
<polygon points="180,113 156,115 168,103 " />
<polygon points="148,91 148,172 136,172 136,89 " />
<polygon points="148,91 151,93 146,96 " />
<polygon points="148,172 145.6,175.6 142,178 138.4,175.6 136,172 " />
<polygon points="148,172 147.8,174.5 147.4,177 146.6,179.4 145.3,181.7 143.7,183.7 141.7,185.3 139.4,186.6 137,187.4 134.5,187.8 132,188 132,176 133.2,175.9 134.1,175.7 134.7,175.5 135,175.4 135.2,175.2 135.4,175 135.5,174.7 135.7,174.1 135.9,173.2 136,172 " />
<polygon points="132,182 132,176 112,176 112,179 " />
<polygon points="56.2,124.6 60.9,126.1 65.5,127.7 69.9,129.6 74,131.7 77.9,134 81.7,136.4 85.3,139.1 88.7,141.8 91.8,144.8 94.8,147.9 85.4,155.3 83.3,152.2 81,149.2 78.6,146.3 75.9,143.3 73,140.5 69.9,137.6 66.6,134.8 63.1,131.9 59.4,129 55.5,126.2 " />
<polygon points="94.8,147.9 96,152.3 93.8,156.3 89.4,157.5 85.4,155.3 " />
<polygon points="168.8,25 155,28.9 141,32.3 126.8,35.2 112.4,37.7 97.8,39.7 83,41.2 68,42.3 52.9,42.8 37.5,42.6 22,41.9 22,40.1 37.4,38.8 52.6,37.4 67.5,35.7 82.2,33.7 96.6,31.3 110.8,28.6 124.7,25.4 138.4,21.9 151.9,17.9 165.2,13.5 " />
<polygon points="164.2,13.9 168.8,25 175,23 " />
<polygon points="175,23 175.2,26.1 168.4,23 " />
<polygon points="36.3,48.9 40.1,51.3 43.8,53.9 47.2,56.7 50.4,59.7 53.3,62.9 55.9,66.3 58.3,69.8 60.5,73.6 62.3,77.4 63.9,81.5 52.4,84.6 51.7,81.1 50.7,77.6 49.6,74.2 48.2,70.8 46.6,67.4 44.8,64 42.7,60.6 40.4,57.2 38,53.7 35.1,50.3 " />
<polygon points="63.9,81.5 63.3,86 59.7,88.8 55.2,88.2 52.4,84.6 " />
<polygon points="88.3,45.1 90.9,47.3 93.6,49.5 96.2,51.9 98.6,54.5 100.8,57.3 102.9,60.2 104.8,63.3 106.6,66.5 108.3,69.9 109.8,73.4 98.3,76.8 97.7,73.5 96.9,70.3 96.1,67.2 95.1,64.1 94,61.1 92.8,58.1 91.6,55.1 90.2,52.1 88.8,49.1 87,46.3 " />
<polygon points="109.8,73.4 109.3,77.9 105.8,80.8 101.3,80.3 98.3,76.8 " />
<polygon points="163.4,41.7 161.2,47.3 158.9,52.7 156.4,57.9 153.7,62.9 150.9,67.7 147.9,72.2 144.7,76.5 141.3,80.5 137.6,84.2 133.6,87.5 132.3,86.4 134.6,81.9 136.9,77.5 139.1,73 141.3,68.4 143.4,63.7 145.3,58.9 147.2,53.9 148.9,48.8 150.5,43.6 151.9,38.1 " />
<polygon points="151.6,39.1 163.4,41.7 152.4,36.6 " />
<polygon points="163.4,41.7 165.7,44.5 160,45.9 " />
</g>
</svg>
