<svg xmlns="http://www.w3.org/2000/svg" xmlns:xlink="http://www.w3.org/1999/xlink" version="1.1" baseProfile="full" viewBox="0 0 200 200" width="200" height="200">
<g fill="black">
<polygon points="55,59 55,116 43,122 43,53 " />
<polygon points="49,59 151,59 151,63 49,63 " />
<polygon points="157,61 157,113 145,119 145,61 " />
<polygon points="145,59 151,54 162,63 157,67 145,61 " />
<polygon points="49,82 151,82 151,86 49,86 " />
<polygon points="106,16 106,109 94,109 94,14 " />
<polygon points="106,16 109,18 106,20 " />
<polygon points="49,105 151,105 151,109 49,109 " />
<polygon points="21,132 181,132 181,136 21,136 " />
<polygon points="181,132 157,134 169,122 " />
<polygon points="136,116 136,173 124,173 124,114 " />
<polygon points="136,116 139,118 136,120 " />
<polygon points="136,173 133.6,176.6 130,179 126.4,176.6 124,173 " />
<polygon points="136,173 135.8,175.5 135.4,178 134.6,180.4 133.3,182.7 131.7,184.7 129.7,186.3 127.4,187.6 125,188.4 122.5,188.8 120,189 120,177 121.2,176.9 122.1,176.7 122.7,176.5 123,176.4 123.2,176.2 123.4,176 123.5,175.7 123.7,175.1 123.9,174.2 124,173 " />
<polygon points="120,183 120,177 100,177 100,180 " />
<polygon points="57.2,141.6 61.2,143.1 65.2,144.4 68.9,145.9 72.3,147.6 75.6,149.4 78.7,151.3 81.6,153.3 84.3,155.4 86.8,157.6 89.1,160 79.3,167 78.1,164.8 76.7,162.5 75,160.2 73,157.9 70.9,155.5 68.4,153.1 65.8,150.7 62.9,148.2 59.9,145.6 56.4,143.2 " />
<polygon points="89.1,160 90.1,164.5 87.7,168.4 83.2,169.4 79.3,167 " />
<polygon points="22,40 180,40 180,44 22,44 " />
<polygon points="180,40 156,42 168,30 " />
</g>
</svg>
