<svg xmlns="http://www.w3.org/2000/svg" xmlns:xlink="http://www.w3.org/1999/xlink" version="1.1" baseProfile="full" viewBox="0 0 200 200" width="200" height="200">
<g fill="black">
<polygon points="19.6,30.1 180.3,30.1 180.3,34.1 19.6,34.1 " />
<polygon points="180.3,30.1 156.3,32.1 168.3,20.1 " />
<polygon points="55,48 55,96.8 43,102.8 43,42 " />
<polygon points="49,47.4 151.9,47.4 151.9,51.4 49,51.4 " />
<polygon points="157.9,50 157.9,89.8 145.9,95.8 145.9,50 " />
<polygon points="145.9,48 151.9,43 162.9,52 157.9,56 145.9,50 " />
<polygon points="49,66.6 151.9,66.6 151.9,70.6 49,70.6 " />
<polygon points="49,85.8 151.9,85.8 151.9,89.8 49,89.8 " />
<polygon points="106,13.9 106,114.8 94,114.8 94,11.9 " />
<polygon points="106,13.9 109,15.9 104,18.9 " />
<polygon points="30,111.8 42.1,111.2 54.3,110.7 66.5,110.1 78.8,109.5 91.1,109 103.3,108.5 115.7,108 128,107.6 140.4,107.4 152.8,107.4 152.9,109.2 140.7,111.2 128.4,113 116.2,114.6 103.9,116 91.7,117.4 79.5,118.8 67.3,120.1 55.1,121.4 43,122.6 30.8,123.8 " />
<polygon points="30.8,123.8 30,111.8 28,112 " />
<polygon points="30.8,123.8 33,126.6 36.6,120.4 " />
<polygon points="132.6,95.6 136.4,96.5 140.2,97.4 144,98.7 147.8,100.3 151.4,102.1 155.1,104.2 158.6,106.5 162.1,109.1 165.6,111.8 168.9,114.8 160.2,123 157.6,119.8 155,116.8 152.4,114 149.7,111.3 146.9,108.7 144,106.2 141.1,103.9 138.2,101.6 135.1,99.3 131.9,97.3 " />
<polygon points="168.9,114.8 170.5,119.1 168.6,123.3 164.3,124.8 160.2,123 " />
<polygon points="19,136.3 180,136.3 180,140.3 19,140.3 " />
<polygon points="180,136.3 156,138.3 168,126.3 " />
<polygon points="140,118.7 140,172.1 128,172.1 128,116.7 " />
<polygon points="140,118.7 143,120.7 138,123.7 " />
<polygon points="140,172.1 137.6,175.7 134,178.1 130.4,175.7 128,172.1 " />
<polygon points="140,172.1 139.8,174.6 139.4,177.1 138.6,179.5 137.3,181.8 135.7,183.8 133.7,185.5 131.4,186.7 129,187.5 126.5,187.9 124,188.1 124,176.1 125.2,176 126.1,175.9 126.7,175.7 127,175.5 127.2,175.3 127.4,175.2 127.5,174.8 127.7,174.2 127.9,173.3 128,172.1 " />
<polygon points="124,182.1 124,176.1 104,176.1 104,179.1 " />
<polygon points="59.3,146.6 62.4,148.2 65.6,149.6 68.6,151.4 71.5,153.4 74.2,155.6 76.8,158 79.3,160.6 81.7,163.4 83.9,166.3 86,169.4 75.2,174.8 74.1,171.8 72.9,168.9 71.5,166.1 70,163.4 68.4,160.7 66.7,158.1 64.8,155.5 62.8,153 60.7,150.4 58.3,148.1 " />
<polygon points="86,169.4 86.2,174 83.3,177.5 78.7,177.7 75.2,174.8 " />
</g>
</svg>
