<svg xmlns="http://www.w3.org/2000/svg" xmlns:xlink="http://www.w3.org/1999/xlink" version="1.1" baseProfile="full" viewBox="0 0 200 200" width="200" height="200">
<g fill="black">
<polygon points="106,18 106,116 94,116 94,16 " />
<polygon points="106,18 109,20 106,22 " />
<polygon points="106,116 103.6,119.6 100,122 96.4,119.6 94,116 " />
<polygon points="106,116 105.8,118.5 105.4,121 104.6,123.4 103.3,125.7 101.7,127.7 99.7,129.3 97.4,130.6 95,131.4 92.5,131.8 90,132 90,120 91.2,119.9 92.1,119.7 92.7,119.5 93,119.4 93.2,119.2 93.4,119 93.5,118.7 93.7,118.1 93.9,117.2 94,116 " />
<polygon points="90,126 90,120 70,120 70,123 " />
<polygon points="66.5,52.5 63.7,60.7 60.4,68.7 56.6,76.5 52.3,84.1 47.5,91.4 42.2,98.6 36.3,105.6 30,112.2 23.1,118.6 15.6,124.6 14.3,123.3 20.3,116 26,108.7 31.2,101.5 36,94.2 40.3,86.9 44.1,79.6 47.5,72.1 50.4,64.6 52.9,57 54.9,49.4 " />
<polygon points="54.9,49.4 66.5,52.5 55.3,47.7 " />
<polygon points="66.5,52.5 68.9,55.2 62,57.5 " />
<polygon points="127.3,45.7 134.3,49.1 141,52.9 147.4,57 153.3,61.5 159,66.2 164.4,71.1 169.4,76.3 174.1,81.8 178.5,87.4 182.6,93.3 172.3,99.4 169,93.7 165.5,88.2 161.7,82.7 157.5,77.4 153.1,72.2 148.3,67.1 143.2,62.1 137.8,57.2 132.2,52.2 126.3,47.2 " />
<polygon points="182.6,93.3 183.2,97.8 180.5,101.5 176,102.1 172.3,99.4 " />
<polygon points="157.5,105.9 148.1,119.5 137.6,132 126.2,143.3 113.9,153.6 100.7,162.7 86.5,170.7 71.5,177.5 55.6,183.2 38.8,187.7 21.1,190.8 20.8,189.1 37.8,184 53.8,178.2 68.8,171.5 82.9,164 96,155.6 108.1,146.3 119.3,136.1 129.5,124.9 138.9,112.7 147.3,99.7 " />
<polygon points="147.3,99.7 157.5,105.9 147.8,98.8 " />
<polygon points="157.5,105.9 159,109.2 151.8,109.5 " />
</g>
</svg>
