<svg xmlns="http://www.w3.org/2000/svg" xmlns:xlink="http://www.w3.org/1999/xlink" version="1.1" baseProfile="full" viewBox="0 0 200 200" width="200" height="200">
<g fill="black">
<polygon points="74.3,17.9 70.3,27.4 65.9,36.6 60.9,45.7 55.5,54.5 49.6,63 43.3,71.4 36.4,79.4 29,87.2 21.1,94.6 12.6,101.6 11.3,100.3 18.4,91.9 25,83.6 31.3,75.3 37.2,66.8 42.6,58.3 47.6,49.7 52.1,40.9 56.2,32.1 59.8,23 63,13.9 " />
<polygon points="63,13.9 74.3,17.9 63.5,12.4 " />
<polygon points="74.3,17.9 76.4,20.8 69.4,22.5 " />
<polygon points="50,52 184,52 184,56 50,56 " />
<polygon points="184,52 160,54 172,42 " />
<polygon points="110,69 110,173 98,173 98,67 " />
<polygon points="110,69 113,71 110,73 " />
<polygon points="110,173 107.6,176.6 104,179 100.4,176.6 98,173 " />
<polygon points="110,173 109.8,175.5 109.4,178 108.6,180.4 107.3,182.7 105.7,184.7 103.7,186.3 101.4,187.6 99,188.4 96.5,188.8 94,189 94,177 95.2,176.9 96.1,176.7 96.7,176.5 97,176.4 97.2,176.2 97.4,176 97.5,175.7 97.7,175.1 97.9,174.2 98,173 " />
<polygon points="94,183 94,177 74,177 74,180 " />
<polygon points="70.2,98 66.8,106 62.9,113.9 58.7,121.6 54.1,129.1 49.2,136.5 43.9,143.6 38.2,150.5 32.1,157.2 25.6,163.5 18.6,169.6 17.3,168.3 22.8,161 28,153.8 33,146.5 37.7,139.2 42,131.9 46.1,124.5 49.8,117 53.2,109.4 56.2,101.6 59,93.8 " />
<polygon points="59,93.8 70.2,98 59.5,92.4 " />
<polygon points="70.2,98 72.4,100.9 65.4,102.6 " />
<polygon points="132.3,93 138.7,98.5 144.8,104.2 150.3,110.1 155.5,116.1 160.4,122.3 164.9,128.6 169,135.1 172.8,141.6 176.3,148.2 179.5,155 168.3,159.3 165.9,152.8 163.2,146.4 160.2,139.9 156.9,133.5 153.3,127 149.4,120.6 145.2,114.1 140.7,107.6 135.9,101 131,94.3 " />
<polygon points="179.5,155 179.3,159.5 176,162.7 171.5,162.6 168.3,159.3 " />
</g>
</svg>
