<svg xmlns="http://www.w3.org/2000/svg" xmlns:xlink="http://www.w3.org/1999/xlink" version="1.1" baseProfile="full" viewBox="0 0 200 200" width="200" height="200">
<g fill="black">
<polygon points="24,64 179,64 179,68 24,68 " />
<polygon points="179,64 155,66 167,54 " />
<polygon points="104,19 104,69 92,69 92,17 " />
<polygon points="104,19 107,21 104,23 " />
<polygon points="104,69 101.6,72.6 98,75 94.4,72.6 92,69 " />
<polygon points="103.9,69 102.6,88.9 99.7,107.1 95,123.7 88.7,138.6 80.7,151.8 71.1,163.2 59.9,172.8 47.1,180.4 32.8,186.1 17.2,189.8 16.7,188.1 31.5,182.6 44.5,175.7 55.8,167.6 65.5,158 73.7,147.1 80.3,134.6 85.5,120.6 89.1,105 91.3,87.8 92,68.9 " />
<polygon points="117,91 117,168 105,168 105,89 " />
<polygon points="117,91 120,93 117,95 " />
<polygon points="117,168 114.6,171.6 111,174 107.4,171.6 105,168 " />
<polygon points="117,168 117,169.2 117.2,170.1 117.4,170.7 117.5,171 117.7,171.2 117.9,171.4 118.2,171.5 118.8,171.7 119.7,171.9 121,172 121,184 118.4,183.8 115.9,183.4 113.5,182.6 111.2,181.3 109.2,179.7 107.6,177.7 106.3,175.4 105.5,173 105.1,170.5 105,168 " />
<polygon points="121,172 125.2,173.8 127,178 125.2,182.2 121,184 " />
<polygon points="121,172 173,172 173,184 121,184 " />
<polygon points="173,172 176.6,174.4 179,178 176.6,181.6 173,184 " />
<polygon points="167,173 173,147 175,147 173,173 " />
<polygon points="118.2,25.5 122.2,26.6 126.2,27.7 129.9,29.2 133.5,30.9 136.8,32.9 140,35.1 143,37.6 145.8,40.3 148.4,43.2 150.7,46.4 140.2,52.2 139,49.4 137.5,46.7 135.8,44 133.9,41.4 131.8,38.9 129.4,36.4 126.9,34 124,31.7 121,29.3 117.5,27.2 " />
<polygon points="150.7,46.4 151.2,51 148.4,54.6 143.9,55 140.2,52.2 " />
</g>
</svg>
