<svg xmlns="http://www.w3.org/2000/svg" xmlns:xlink="http://www.w3.org/1999/xlink" version="1.1" baseProfile="full" viewBox="0 0 200 200" width="200" height="200">
<g fill="black">
<polygon points="22,62 180,62 180,66 22,66 " />
<polygon points="180,62 156,64 168,52 " />
<polygon points="94,19 94,57 82,57 82,17 " />
<polygon points="94,19 97,21 92,24 " />
<polygon points="94,57 91.6,60.6 88,63 84.4,60.6 82,57 " />
<polygon points="93.9,57 92.7,77.6 90,96.7 85.8,114.2 80.1,130 72.9,144.3 64.2,156.8 54.1,167.6 42.5,176.6 29.5,183.6 15.3,188.8 14.6,187.1 27.8,180.3 39.3,172.2 49.5,162.9 58.2,152.2 65.5,140.1 71.5,126.6 76.1,111.5 79.4,94.9 81.4,76.7 82,56.9 " />
<polygon points="123,62 123,168 111,168 111,62 " />
<polygon points="123,168 120.6,171.6 117,174 113.4,171.6 111,168 " />
<polygon points="123,168 123,169.2 123.2,170.1 123.4,170.7 123.5,171 123.7,171.2 123.9,171.4 124.2,171.5 124.8,171.7 125.7,171.9 127,172 127,184 124.4,183.8 121.9,183.4 119.5,182.6 117.2,181.3 115.2,179.7 113.6,177.7 112.3,175.4 111.5,173 111.1,170.5 111,168 " />
<polygon points="127,172 131.2,173.8 133,178 131.2,182.2 127,184 " />
<polygon points="127,172 178,172 178,184 127,184 " />
<polygon points="178,172 181.6,174.4 184,178 181.6,181.6 178,184 " />
<polygon points="172,173 178,147 180,147 178,173 " />
</g>
</svg>
