<svg xmlns="http://www.w3.org/2000/svg" xmlns:xlink="http://www.w3.org/1999/xlink" version="1.1" baseProfile="full" viewBox="0 0 200 200" width="200" height="200">
<g fill="black">
<polygon points="22,62 180,62 180,66 22,66 " />
<polygon points="180,62 156,64 168,52 " />
<polygon points="101,19 101,57 89,57 89,17 " />
<polygon points="101,19 104,21 101,23 " />
<polygon points="101,57 98.6,60.6 95,63 91.4,60.6 89,57 " />
<polygon points="101,57 99.8,78.2 97.1,97.7 92.7,115.5 86.6,131.6 78.8,145.9 69.4,158.4 58.4,169 45.8,177.6 31.7,184.2 16.2,188.8 15.7,187.1 30.2,180.8 43,173.1 54.1,164 63.6,153.5 71.6,141.5 78,127.9 83,112.7 86.5,95.8 88.5,77.2 89,57 " />
<polygon points="119,70 119,168 107,168 107,68 " />
<polygon points="119,70 122,72 119,74 " />
<polygon points="119,168 116.6,171.6 113,174 109.4,171.6 107,168 " />
<polygon points="119,168 119,169.2 119.2,170.1 119.4,170.7 119.5,171 119.7,171.2 119.9,171.4 120.2,171.5 120.8,171.7 121.7,171.9 123,172 123,184 120.4,183.8 117.9,183.4 115.5,182.6 113.2,181.3 111.2,179.7 109.6,177.7 108.3,175.4 107.5,173 107.1,170.5 107,168 " />
<polygon points="123,172 127.2,173.8 129,178 127.2,182.2 123,184 " />
<polygon points="123,172 178,172 178,184 123,184 " />
<polygon points="178,172 181.6,174.4 184,178 181.6,181.6 178,184 " />
<polygon points="172,173 178,147 180,147 178,173 " />
</g>
</svg>
