<svg xmlns="http://www.w3.org/2000/svg" xmlns:xlink="http://www.w3.org/1999/xlink" version="1.1" baseProfile="full" viewBox="0 0 200 200" width="200" height="200">
<g fill="black">
<path d="M 16.2 188.8 L 15.7 187.1 L 30.2 180.8 L 43 173.1 L 54.1 164 L 63.6 153.5 L 71.6 141.5 L 78 127.9 L 83 112.7 L 86.5 95.8 L 88.5 77.2 L 88.8 66 L 22 66 L 22 62 L 88.9 62 L 89 57 L 89 17 L 101 19 L 104 21 L 101 22.8 L 101 57 L 100.7 62 L 158 62 L 168 52 L 180 62 L 180 66 L 100.5 66 L 99.8 78.2 L 97.1 97.7 L 92.7 115.5 L 86.6 131.6 L 78.8 145.9 L 69.4 158.4 L 58.4 169 L 45.8 177.6 L 31.7 184.2 Z M 126 184 L 123.4 183.8 L 120.9 183.4 L 118.5 182.6 L 116.2 181.3 L 114.2 179.7 L 112.6 177.7 L 111.3 175.4 L 110.5 173 L 110.1 170.5 L 110 168 L 110 85 L 122 87 L 125 89 L 122 90.8 L 122 169.2 L 122.2 170.1 L 122.5 171 L 122.9 171.4 L 123.8 171.7 L 124.7 171.9 L 126 172 L 172.2 172 L 178 147 L 180 147 L 178.1 172 L 181.6 174.4 L 184 178 L 181.6 181.6 L 178 184 Z " />
</g>
</svg>
