<svg xmlns="http://www.w3.org/2000/svg" xmlns:xlink="http://www.w3.org/1999/xlink" version="1.1" baseProfile="full" viewBox="0 0 200 200" width="200" height="200">
<g fill="black">
<polygon points="57,38 57,83 45,83 45,32 " />
<polygon points="57,83 54.6,86.6 51,89 47.4,86.6 45,83 " />
<polygon points="56.9,82.9 56.5,98.8 55.2,113.6 53.2,127.2 50.4,139.7 46.7,151 42.3,161.2 37,170.1 31,177.8 24.1,184 16.4,188.7 15.5,187.2 21.5,181.2 26.8,174.4 31.4,166.7 35.4,158.1 38.7,148.4 41.3,137.6 43.3,125.6 44.5,112.6 45.1,98.4 45,83 " />
<polygon points="51,38 155,38 155,42 51,42 " />
<polygon points="161,40 161,91 149,97 149,40 " />
<polygon points="149,38 155,33 166,42 161,46 149,40 " />
<polygon points="51,81 155,81 155,85 51,85 " />
</g>
</svg>
