<svg xmlns="http://www.w3.org/2000/svg" xmlns:xlink="http://www.w3.org/1999/xlink" version="1.1" baseProfile="full" viewBox="0 0 200 200" width="200" height="200">
<g fill="black">
<polygon points="39,23 167,23 167,27 39,27 " />
<polygon points="173,25 173,48 161,54 161,25 " />
<polygon points="161,23 167,18 178,27 173,31 161,25 " />
<polygon points="39,42 167,42 167,46 39,46 " />
<polygon points="45,23 45,87 33,87 33,17 " />
<polygon points="45,87 42.6,90.6 39,93 35.4,90.6 33,87 " />
<polygon points="45,87 44.4,99.7 43.3,111.8 41.7,123.3 39.5,134.2 36.8,144.5 33.6,154.1 29.7,163.1 25.4,171.4 20.3,178.8 14.7,185.5 13.2,184.4 17.1,176.9 20.6,169 23.7,160.6 26.3,151.8 28.6,142.4 30.4,132.5 31.7,122 32.6,110.9 33,99.2 33,87 " />
<polygon points="115.6,49.5 115.6,90.8 103.6,96.8 103.6,47.5 " />
<polygon points="115.6,49.5 118.6,51.5 113.6,54.5 " />
<polygon points="63.2,55.4 66.4,56.1 69.5,56.3 72.5,56.7 75.3,57.2 78.1,57.7 80.7,58.4 83.2,59 85.6,59.8 87.9,60.6 90.1,61.5 83.4,71.5 82.1,70.2 80.6,68.8 79,67.4 77.1,66 75.1,64.6 73,63.1 70.7,61.6 68.2,60 65.6,58.4 62.7,57.2 " />
<polygon points="90.1,61.5 92.6,65.3 91.7,69.8 87.9,72.3 83.4,71.5 " />
<polygon points="53.7,77.7 58.8,77.1 64,76.4 69.1,75.7 74.2,75 79.2,74.4 84.3,73.7 89.4,73.2 94.4,72.7 99.5,72.3 104.7,72.2 105.1,73.9 100.4,76 95.6,77.9 90.8,79.6 85.9,81.2 81,82.7 76.1,84.1 71.1,85.5 66.1,86.9 61,88.2 56,89.5 " />
<polygon points="56,89.5 53.7,77.7 51.7,78.1 " />
<polygon points="56,89.5 58.5,92.1 61.3,85.4 " />
<polygon points="157.8,61.3 155.4,62.3 152.9,63.4 150.2,64.3 147.4,65.2 144.5,66.1 141.4,66.9 138.2,67.6 134.8,68.2 131.2,68.7 127.6,69.6 127,67.9 130.3,66.3 133.3,64.4 136.2,62.6 138.8,60.9 141.3,59.2 143.6,57.6 145.8,56 147.7,54.4 149.4,52.9 151,51.4 " />
<polygon points="150.1,51.9 157.8,61.3 158.2,61 " />
<polygon points="158.2,61 158.3,64.5 152.9,62.2 " />
<polygon points="110.8,69.6 116.1,69.5 121.4,69.8 126.6,70.3 131.7,71 136.7,71.9 141.6,73 146.5,74.2 151.2,75.6 155.8,77.1 160.4,78.7 155.4,89.7 151.4,87.6 147.3,85.6 143.1,83.7 138.8,81.8 134.4,80.1 129.8,78.3 125.1,76.6 120.4,75 115.5,73.2 110.5,71.4 " />
<polygon points="160.4,78.7 163.5,82.1 163.4,86.7 160,89.8 155.4,89.7 " />
</g>
</svg>
