<svg xmlns="http://www.w3.org/2000/svg" xmlns:xlink="http://www.w3.org/1999/xlink" version="1.1" baseProfile="full" viewBox="0 0 200 200" width="200" height="200">
<g fill="black">
<polygon points="39,23 167,23 167,27 39,27 " />
<polygon points="173,25 173,46 161,52 161,25 " />
<polygon points="161,23 167,18 178,27 173,31 161,25 " />
<polygon points="39,42 167,42 167,46 39,46 " />
<polygon points="45,23 45,87 33,87 33,17 " />
<polygon points="45,87 42.6,90.6 39,93 35.4,90.6 33,87 " />
<polygon points="45,87 44.4,99.7 43.3,111.8 41.7,123.3 39.5,134.2 36.8,144.5 33.6,154.1 29.7,163.1 25.4,171.4 20.3,178.8 14.7,185.5 13.2,184.4 17.1,176.9 20.6,169 23.7,160.6 26.3,151.8 28.6,142.4 30.4,132.5 31.7,122 32.6,110.9 33,99.2 33,87 " />
<polygon points="113.4,51.7 113.4,79.2 101.4,85.2 101.4,49.7 " />
<polygon points="113.4,51.7 116.4,53.7 111.4,56.7 " />
<polygon points="49,57.2 89.7,57.2 89.7,61.2 49,61.2 " />
<polygon points="89.7,57.2 69.7,59.2 79.7,48.2 " />
<polygon points="49,74 89.7,74 89.7,78 49,78 " />
<polygon points="89.7,74 69.7,76 79.7,65 " />
<polygon points="124.5,57.2 165.9,57.2 165.9,61.2 124.5,61.2 " />
<polygon points="165.9,57.2 145.9,59.2 155.9,48.2 " />
<polygon points="124.5,74 165.9,74 165.9,78 124.5,78 " />
<polygon points="165.9,74 145.9,76 155.9,65 " />
</g>
</svg>
