<svg xmlns="http://www.w3.org/2000/svg" xmlns:xlink="http://www.w3.org/1999/xlink" version="1.1" baseProfile="full" viewBox="0 0 200 200" width="200" height="200">
<g fill="black">
<polygon points="39,23 167,23 167,27 39,27 " />
<polygon points="173,25 173,46 161,52 161,25 " />
<polygon points="161,23 167,18 178,27 173,31 161,25 " />
<polygon points="39,42 167,42 167,46 39,46 " />
<polygon points="45,23 45,87 33,87 33,17 " />
<polygon points="45,87 42.6,90.6 39,93 35.4,90.6 33,87 " />
<polygon points="45,87 44.4,99.7 43.3,111.8 41.7,123.3 39.5,134.2 36.8,144.5 33.6,154.1 29.7,163.1 25.4,171.4 20.3,178.8 14.7,185.5 13.2,184.4 17.1,176.9 20.6,169 23.7,160.6 26.3,151.8 28.6,142.4 30.4,132.5 31.7,122 32.6,110.9 33,99.2 33,87 " />
<polygon points="118.2,50.6 118.2,89.5 106.2,89.5 106.2,48.6 " />
<polygon points="118.2,50.6 121.2,52.6 116.2,55.6 " />
<polygon points="118.2,89.5 115.8,93.1 112.2,95.5 108.6,93.1 106.2,89.5 " />
<polygon points="118.2,89.5 118.1,92.1 117.6,94.6 116.8,97 115.6,99.2 113.9,101.3 111.9,102.9 109.7,104.1 107.3,104.9 104.8,105.4 102.2,105.5 102.2,93.5 103.4,93.4 104.3,93.3 104.9,93.1 105.3,92.9 105.5,92.8 105.6,92.6 105.8,92.2 106,91.7 106.1,90.7 106.2,89.5 " />
<polygon points="82.2,96.5 82.2,93.5 102.2,93.5 102.2,99.5 " />
<polygon points="57.8,62.7 94.3,62.7 94.3,66.7 57.8,66.7 " />
<polygon points="100.2,66 98.3,70.9 95.6,75.3 92.2,79.3 88.1,82.9 83.3,86.2 78,89 71.9,91.6 65.2,93.8 57.9,95.5 49.9,96.9 49.4,95.2 56.7,91.9 63.3,88.8 69.1,85.6 74.2,82.4 78.5,79.2 81.9,76 84.6,72.8 86.6,69.6 87.8,66.5 88.5,63.4 " />
<polygon points="88.3,62.7 94.3,57.7 105.3,66.7 100.3,69.7 88.3,74.7 " />
<polygon points="164.6,63.9 161.5,65.4 158.3,66.9 155,68.4 151.5,69.8 147.9,71.1 144.1,72.5 140.2,73.7 136.1,74.9 131.8,76 127.4,77.1 126.7,75.5 130.6,73.2 134.2,70.7 137.7,68.4 141,66.2 144.3,64.1 147.3,61.9 150.2,59.9 153,57.8 155.6,55.8 158,53.9 " />
<polygon points="165.4,63.4 164.6,63.9 157.1,54.4 " />
<polygon points="165.4,63.4 165.5,66.9 159.9,64.5 " />
<polygon points="116.4,58.4 119.7,63 123.2,67.3 127.1,71.1 131.4,74.5 136.2,77.6 141.5,80.4 147.4,82.9 153.9,85.1 161,86.9 168.7,88.4 166,101.3 157.6,99 149.9,96.2 142.9,93 136.5,89.4 130.8,85.3 125.9,80.8 121.7,75.9 118.4,70.6 116,65 114.7,59 " />
<polygon points="166,101.3 168.7,88.4 177.8,90.3 " />
</g>
</svg>
