<svg xmlns="http://www.w3.org/2000/svg" xmlns:xlink="http://www.w3.org/1999/xlink" version="1.1" baseProfile="full" viewBox="0 0 200 200" width="200" height="200">
<g fill="black">
<polygon points="50,73 50,140 38,146 38,71 " />
<polygon points="50,73 53,75 50,77 " />
<polygon points="44,124 154,124 154,128 44,128 " />
<polygon points="160,73 160,134 148,140 148,71 " />
<polygon points="160,73 163,75 160,77 " />
<polygon points="104,23 104,166 92,166 92,21 " />
<polygon points="104,23 107,25 104,27 " />
<polygon points="104,166 101.6,169.6 98,172 94.4,169.6 92,166 " />
<polygon points="104,166 104,167.2 104.2,168.1 104.4,168.7 104.5,169 104.7,169.2 104.9,169.4 105.2,169.5 105.8,169.7 106.7,169.9 108,170 108,182 105.4,181.8 102.9,181.4 100.5,180.6 98.2,179.3 96.2,177.7 94.6,175.7 93.3,173.4 92.5,171 92.1,168.5 92,166 " />
<polygon points="108,170 112.2,171.8 114,176 112.2,180.2 108,182 " />
<polygon points="108,170 178,170 178,182 108,182 " />
<polygon points="178,170 181.6,172.4 184,176 181.6,179.6 178,182 " />
<polygon points="172,171 178,145 180,145 178,171 " />
<polygon points="167,45 153.4,47.1 139.6,49.2 125.6,51.4 111.2,53.5 96.7,55.7 81.9,57.8 66.8,60 51.5,62.1 36,64 20.1,65.8 19.8,64.1 35.3,60.3 50.6,56.8 65.7,53.5 80.6,50.4 95.2,47.3 109.6,44.4 123.8,41.5 137.7,38.7 151.5,35.9 164.9,33.2 " />
<polygon points="164.9,33.2 167,45 176.1,43.4 " />
<polygon points="176.1,43.4 176.5,46.4 167.9,41.8 " />
</g>
</svg>
