<svg xmlns="http://www.w3.org/2000/svg" xmlns:xlink="http://www.w3.org/1999/xlink" version="1.1" baseProfile="full" viewBox="0 0 200 200" width="200" height="200">
<g fill="black">
<polygon points="26,47 174,47 174,51 26,51 " />
<polygon points="174,47 150,49 162,37 " />
<polygon points="53,68 53,121 41,127 41,66 " />
<polygon points="53,68 56,70 51,73 " />
<polygon points="47,117 152,117 152,121 47,121 " />
<polygon points="158,68 158,127 146,133 146,66 " />
<polygon points="158,68 161,70 156,73 " />
<polygon points="104,19 104,166 92,166 92,17 " />
<polygon points="104,19 107,21 102,24 " />
<polygon points="104,166 101.6,169.6 98,172 94.4,169.6 92,166 " />
<polygon points="104,166 104,167.2 104.2,168.1 104.4,168.7 104.5,169 104.7,169.2 104.9,169.4 105.2,169.5 105.8,169.7 106.7,169.9 108,170 108,182 105.4,181.8 102.9,181.4 100.5,180.6 98.2,179.3 96.2,177.7 94.6,175.7 93.3,173.4 92.5,171 92.1,168.5 92,166 " />
<polygon points="108,170 112.2,171.8 114,176 112.2,180.2 108,182 " />
<polygon points="108,170 178,170 178,182 108,182 " />
<polygon points="178,170 181.6,172.4 184,176 181.6,179.6 178,182 " />
<polygon points="172,171 178,145 180,145 178,171 " />
</g>
</svg>
