<svg xmlns="http://www.w3.org/2000/svg" xmlns:xlink="http://www.w3.org/1999/xlink" version="1.1" baseProfile="full" viewBox="0 0 200 200" width="200" height="200">
<g fill="black">
<polygon points="106,13.6 106,62.6 94,62.6 94,11.6 " />
<polygon points="106,13.6 109,15.6 106,17.6 " />
<polygon points="43.9,26.7 43.9,74.6 31.9,80.6 31.9,24.7 " />
<polygon points="43.9,26.7 46.9,28.7 43.9,30.7 " />
<polygon points="37.9,58.6 162,58.6 162,62.6 37.9,62.6 " />
<polygon points="168,26.7 168,68.6 156,74.6 156,24.7 " />
<polygon points="168,26.7 171,28.7 168,30.7 " />
<polygon points="45.7,89.7 45.7,183 33.7,189 33.7,83.7 " />
<polygon points="39.7,89.7 160.3,89.7 160.3,93.7 39.7,93.7 " />
<polygon points="166.3,91.7 166.3,177 154.3,183 154.3,91.7 " />
<polygon points="154.3,89.7 160.3,84.7 171.3,93.7 166.3,97.7 154.3,91.7 " />
<polygon points="106,89.7 106,171 94,171 94,89.7 " />
<polygon points="39.7,127.8 160.3,127.8 160.3,131.8 39.7,131.8 " />
<polygon points="39.7,167 160.3,167 160.3,171 39.7,171 " />
</g>
</svg>
