<svg xmlns="http://www.w3.org/2000/svg" xmlns:xlink="http://www.w3.org/1999/xlink" version="1.1" baseProfile="full" viewBox="0 0 200 200" width="200" height="200">
<g fill="black">
<polygon points="106,13.7 106,56.6 94,56.6 94,11.7 " />
<polygon points="106,13.7 109,15.7 106,17.7 " />
<polygon points="43.9,25.1 43.9,68.6 31.9,74.6 31.9,23.1 " />
<polygon points="43.9,25.1 46.9,27.1 43.9,29.1 " />
<polygon points="37.9,52.6 162,52.6 162,56.6 37.9,56.6 " />
<polygon points="168,25.1 168,62.6 156,68.6 156,23.1 " />
<polygon points="168,25.1 171,27.1 168,29.1 " />
<polygon points="43.2,89.8 43.2,180 31.2,186 31.2,83.8 " />
<polygon points="37.2,89.8 162.7,89.8 162.7,93.8 37.2,93.8 " />
<polygon points="168.7,91.8 168.7,177 156.7,183 156.7,91.8 " />
<polygon points="156.7,89.8 162.7,84.8 173.7,93.8 168.7,97.8 156.7,91.8 " />
<polygon points="37.2,127.6 162.7,127.6 162.7,131.6 37.2,131.6 " />
<polygon points="106,58.1 106,173 94,173 94,56.1 " />
<polygon points="106,58.1 109,60.1 106,62.1 " />
<polygon points="37.2,169 162.7,169 162.7,173 37.2,173 " />
</g>
</svg>
