<svg xmlns="http://www.w3.org/2000/svg" xmlns:xlink="http://www.w3.org/1999/xlink" version="1.1" baseProfile="full" viewBox="0 0 200 200" width="200" height="200">
<g fill="black">
<polygon points="73.1,32.2 69.7,39.3 66,46.3 62,53.4 57.8,60.5 53.3,67.6 48.4,74.7 43.3,81.7 37.8,88.8 32,95.7 25.7,102.5 24.2,101.4 28.9,93.5 33.4,85.7 37.8,78.1 42,70.6 46,63.3 49.7,56 53.1,48.8 56.4,41.6 59.3,34.6 62,27.6 " />
<polygon points="62,27.6 73.1,32.2 62.6,26.3 " />
<polygon points="73.1,32.2 75.1,35.2 68,36.6 " />
<polygon points="26.3,101.9 33.5,106.7 40.2,112.1 46.4,118.2 52.2,124.8 57.5,131.9 62.5,139.5 67,147.5 71,156.1 74.7,165 77.9,174.4 66.4,177.7 63.9,168.7 61.1,160 57.9,151.8 54.3,143.9 50.4,136.4 46,129.2 41.3,122.4 36.3,115.8 30.9,109.5 25.2,103.3 " />
<polygon points="77.9,174.4 77.3,179 73.8,181.8 69.2,181.2 66.4,177.7 " />
<polygon points="123,32.3 119.4,39.4 115.5,46.5 111.3,53.5 106.8,60.6 101.9,67.7 96.8,74.8 91.3,81.8 85.5,88.8 79.3,95.7 72.6,102.5 71.3,101.4 76.3,93.4 81.2,85.6 86,78 90.5,70.5 94.8,63.2 98.8,55.9 102.5,48.6 106,41.5 109.2,34.4 112.1,27.4 " />
<polygon points="112.1,27.4 123,32.3 112.6,26.2 " />
<polygon points="123,32.3 125,35.3 117.8,36.6 " />
<polygon points="73.3,101.8 81,106.6 88.1,112 94.8,118.1 100.9,124.7 106.5,131.8 111.6,139.4 116.2,147.5 120.3,156.1 123.9,165.1 127,174.5 115.4,177.6 113.1,168.6 110.4,160 107.2,151.8 103.5,144 99.4,136.5 94.9,129.3 89.9,122.4 84.4,115.9 78.5,109.5 72.2,103.3 " />
<polygon points="127,174.5 126.3,179.1 122.7,181.9 118.2,181.2 115.4,177.6 " />
<polygon points="172.1,32.2 168.6,39.3 164.9,46.4 160.7,53.5 156.3,60.6 151.4,67.7 146.3,74.8 140.7,81.8 134.8,88.8 128.5,95.8 121.6,102.5 120.3,101.4 125.5,93.4 130.6,85.6 135.4,78 140,70.5 144.3,63.2 148.2,55.9 151.9,48.7 155.3,41.6 158.3,34.5 161,27.6 " />
<polygon points="161,27.6 172.1,32.2 161.6,26.3 " />
<polygon points="172.1,32.2 174.1,35.2 167,36.6 " />
<polygon points="122.3,101.8 130,106.6 137.1,112 143.6,118.1 149.6,124.7 155.1,131.8 160,139.5 164.4,147.6 168.2,156.2 171.4,165.2 174.2,174.7 162.4,177.3 160.5,168.4 158.1,159.8 155.2,151.7 151.8,143.9 147.9,136.4 143.5,129.2 138.7,122.4 133.3,115.8 127.5,109.5 121.2,103.3 " />
<polygon points="174.2,174.7 173.3,179.2 169.6,181.9 165.1,181 162.4,177.3 " />
</g>
</svg>
