<svg xmlns="http://www.w3.org/2000/svg" xmlns:xlink="http://www.w3.org/1999/xlink" version="1.1" baseProfile="full" viewBox="0 0 200 200" width="200" height="200">
<g fill="black">
<polygon points="104.5,16.2 104.5,40.8 92.5,40.8 92.5,14.2 " />
<polygon points="104.5,16.2 107.5,18.2 102.5,21.2 " />
<polygon points="15.5,36.8 181.4,36.8 181.4,40.8 15.5,40.8 " />
<polygon points="181.4,36.8 157.4,38.8 169.4,26.8 " />
<polygon points="49.4,36.8 49.4,75.1 37.4,75.1 37.4,36.8 " />
<polygon points="49.4,75.1 47,78.7 43.4,81.1 39.8,78.7 37.4,75.1 " />
<polygon points="49.4,75.1 49.5,76.3 49.7,77.3 49.9,77.8 50,78.2 50.2,78.4 50.4,78.5 50.7,78.7 51.3,78.9 52.2,79 53.4,79.1 53.4,91.1 50.9,91 48.4,90.5 46,89.7 43.7,88.5 41.7,86.9 40.1,84.8 38.8,82.6 38,80.2 37.6,77.7 37.4,75.1 " />
<polygon points="53.4,79.1 57.6,80.9 59.4,85.1 57.6,89.3 53.4,91.1 " />
<polygon points="53.4,79.1 166,79.1 166,91.1 53.4,91.1 " />
<polygon points="166,79.1 169.6,81.5 172,85.1 169.6,88.7 166,91.1 " />
<polygon points="62,106 62,134 50,134 50,104 " />
<polygon points="62,106 65,108 60,111 " />
<polygon points="62,134 59.6,137.6 56,140 52.4,137.6 50,134 " />
<polygon points="62,134 61.2,142 59.4,149.6 56.6,156.7 52.9,163.2 48.2,169.1 42.7,174.4 36.3,179 29.1,183 21.1,186.3 12.3,188.8 11.6,187.1 19.5,182.8 26.4,178.3 32.4,173.7 37.5,168.9 41.7,163.8 44.9,158.4 47.4,152.8 49,146.9 49.9,140.6 50,134 " />
<polygon points="104,106 104,175 92,181 92,104 " />
<polygon points="104,106 107,108 102,111 " />
<polygon points="148,105 148,166 136,166 136,103 " />
<polygon points="148,105 151,107 146,110 " />
<polygon points="148,166 145.6,169.6 142,172 138.4,169.6 136,166 " />
<polygon points="148,166 148,167.2 148.2,168.1 148.4,168.7 148.5,169 148.7,169.2 148.9,169.4 149.2,169.5 149.8,169.7 150.7,169.9 152,170 152,182 149.4,181.8 146.9,181.4 144.5,180.6 142.2,179.3 140.2,177.7 138.6,175.7 137.3,173.4 136.5,171 136.1,168.5 136,166 " />
<polygon points="152,170 156.2,171.8 158,176 156.2,180.2 152,182 " />
<polygon points="152,170 183,170 183,182 152,182 " />
<polygon points="183,170 186.6,172.4 189,176 186.6,179.6 183,182 " />
<polygon points="177,171 183,145 185,145 183,171 " />
</g>
</svg>
