<svg xmlns="http://www.w3.org/2000/svg" xmlns:xlink="http://www.w3.org/1999/xlink" version="1.1" baseProfile="full" viewBox="0 0 200 200" width="200" height="200">
<g fill="black">
<polygon points="65.7,21.5 63.5,23.2 61.2,24.9 58.8,26.6 56.2,28.3 53.4,29.9 50.5,31.5 47.5,33.1 44.3,34.6 40.8,36.1 37.4,37.8 36.5,36.3 39.3,33.9 41.8,31.2 44.2,28.7 46.5,26.3 48.6,23.9 50.6,21.7 52.4,19.5 54.1,17.4 55.5,15.4 56.9,13.4 " />
<polygon points="56.9,13.4 65.7,21.5 57.2,13 " />
<polygon points="65.7,21.5 66.6,25 59.4,23.9 " />
<polygon points="38.2,36.7 41.4,37.9 44.6,38.8 47.6,39.9 50.5,41.2 53.3,42.6 55.9,44.1 58.4,45.7 60.8,47.5 63,49.4 65.1,51.4 55.3,58.4 54.3,56.5 53.2,54.5 51.9,52.5 50.4,50.5 48.7,48.5 46.8,46.5 44.8,44.4 42.5,42.3 40.2,40.1 37.5,38.3 " />
<polygon points="65.1,51.4 66.1,55.9 63.7,59.8 59.2,60.8 55.3,58.4 " />
<polygon points="112.7,21.5 110.5,23.2 108.2,24.9 105.8,26.6 103.2,28.3 100.4,29.9 97.5,31.5 94.5,33.1 91.3,34.6 87.8,36.1 84.4,37.8 83.5,36.3 86.3,33.9 88.8,31.2 91.2,28.7 93.5,26.3 95.6,23.9 97.6,21.7 99.4,19.5 101.1,17.4 102.5,15.4 103.9,13.4 " />
<polygon points="103.9,13.4 112.7,21.5 104.2,13 " />
<polygon points="112.7,21.5 113.6,25 106.4,23.9 " />
<polygon points="85.2,36.7 88.4,37.9 91.6,38.8 94.6,39.9 97.5,41.2 100.3,42.6 102.9,44.1 105.4,45.7 107.8,47.5 110,49.4 112.1,51.4 102.3,58.4 101.3,56.5 100.2,54.5 98.9,52.5 97.4,50.5 95.7,48.5 93.8,46.5 91.8,44.4 89.5,42.3 87.2,40.1 84.5,38.3 " />
<polygon points="112.1,51.4 113.1,55.9 110.7,59.8 106.2,60.8 102.3,58.4 " />
<polygon points="159.7,21.5 157.5,23.2 155.2,24.9 152.8,26.6 150.2,28.3 147.4,29.9 144.5,31.5 141.5,33.1 138.3,34.6 134.8,36.1 131.4,37.8 130.5,36.3 133.3,33.9 135.8,31.2 138.2,28.7 140.5,26.3 142.6,23.9 144.6,21.7 146.4,19.5 148.1,17.4 149.5,15.4 150.9,13.4 " />
<polygon points="150.9,13.4 159.7,21.5 151.2,13 " />
<polygon points="159.7,21.5 160.6,25 153.4,23.9 " />
<polygon points="132.2,36.7 135.4,37.9 138.6,38.8 141.6,39.9 144.5,41.2 147.3,42.6 149.9,44.1 152.4,45.7 154.8,47.5 157,49.4 159.1,51.4 149.3,58.4 148.3,56.5 147.2,54.5 145.9,52.5 144.4,50.5 142.7,48.5 140.8,46.5 138.8,44.4 136.5,42.3 134.2,40.1 131.5,38.3 " />
<polygon points="159.1,51.4 160.1,55.9 157.7,59.8 153.2,60.8 149.3,58.4 " />
<polygon points="54,65.6 54,115.1 42,121.1 42,59.6 " />
<polygon points="48,65.6 152,65.6 152,69.6 48,69.6 " />
<polygon points="158,67.6 158,114.1 146,120.1 146,67.6 " />
<polygon points="146,65.6 152,60.6 163,69.6 158,73.6 146,67.6 " />
<polygon points="48,86.9 152,86.9 152,90.9 48,90.9 " />
<polygon points="48,108.1 152,108.1 152,112.1 48,112.1 " />
<polygon points="16,129.3 184,129.3 184,133.3 16,133.3 " />
<polygon points="184,129.3 160,131.3 172,119.3 " />
<polygon points="106,65.6 106,181.4 94,187.4 94,65.6 " />
<polygon points="102,131.3 98.6,135.1 91.9,142.3 84.8,149.1 77.2,155.4 69.2,161.3 60.8,166.7 51.9,171.7 42.7,176.2 33,180.2 22.8,183.6 12.2,186.5 11.7,184.8 21.4,180.1 30.8,175.3 39.7,170.4 48.1,165.2 56.1,159.7 63.6,153.9 70.7,147.7 77.4,141.3 83.6,134.6 86.1,131.3 " />
<polygon points="107.3,131.4 114.2,136.8 121.1,142 128,146.9 134.9,151.4 141.9,155.6 149,159.4 156.3,162.9 163.7,166 171.3,168.7 179,171.1 174.9,183.6 166.8,180.4 158.9,176.8 151.3,172.7 144,168.3 136.8,163.5 130,158.2 123.4,152.5 117.2,146.4 111.3,139.8 106,132.7 " />
<polygon points="174.9,183.6 179,171.1 186.5,173.5 " />
</g>
</svg>
