<svg xmlns="http://www.w3.org/2000/svg" xmlns:xlink="http://www.w3.org/1999/xlink" version="1.1" baseProfile="full" viewBox="0 0 200 200" width="200" height="200">
<g fill="black">
<polygon points="17,45.5 79,45.5 79,49.5 17,49.5 " />
<polygon points="79,45.5 55,47.5 67,35.5 " />
<polygon points="51,45.5 51,133.9 39,133.9 39,45.5 " />
<polygon points="15.1,137.5 20.7,136.1 26.7,134.6 32.9,133 39.4,131.3 46.1,129.5 53.2,127.7 60.6,125.8 68.3,123.9 76.3,122.1 84.7,120.4 85.2,122.1 77.5,125.7 69.9,129 62.6,132.1 55.6,134.9 48.7,137.6 42.2,140.1 35.9,142.5 29.9,144.8 24.2,147 18.7,149 " />
<polygon points="18.7,149 15.1,137.5 13.2,138.1 " />
<polygon points="18.7,149 21.5,151.3 23.5,144.4 " />
<polygon points="101.2,25.5 101.2,102.4 89.2,102.4 89.2,19.5 " />
<polygon points="101.2,102.4 98.8,106 95.2,108.4 91.6,106 89.2,102.4 " />
<polygon points="101.2,102.4 100.5,114.8 99.1,126.3 96.8,136.9 93.7,146.7 89.9,155.6 85.2,163.6 79.7,170.6 73.4,176.5 66.4,181.3 58.7,185 57.9,183.4 64.2,178.3 69.7,172.6 74.6,166.5 78.7,159.7 82.1,152.1 84.9,143.8 87,134.7 88.4,124.8 89.2,114 89.2,102.4 " />
<polygon points="95.2,25.5 148,25.5 148,29.5 95.2,29.5 " />
<polygon points="154,27.5 154,163.3 142,163.3 142,27.5 " />
<polygon points="142,25.5 148,20.5 159,29.5 154,33.5 142,27.5 " />
<polygon points="154,163.3 151.6,166.9 148,169.3 144.4,166.9 142,163.3 " />
<polygon points="154,163.3 154,164.6 154.2,165.5 154.4,166.1 154.6,166.4 154.7,166.6 154.9,166.7 155.2,166.9 155.8,167.1 156.7,167.3 158,167.3 158,179.3 155.4,179.2 152.9,178.7 150.5,177.9 148.3,176.7 146.2,175.1 144.6,173.1 143.4,170.8 142.6,168.4 142.1,165.9 142,163.3 " />
<polygon points="158,167.3 162.2,169.1 164,173.3 162.2,177.5 158,179.3 " />
<polygon points="158,167.3 183.9,167.3 183.9,179.3 158,179.3 " />
<polygon points="183.9,167.3 187.5,169.7 189.9,173.3 187.5,176.9 183.9,179.3 " />
<polygon points="177.9,168.3 183.9,142.3 185.9,142.3 183.9,168.3 " />
<polygon points="110.3,65 113.5,67.5 116.7,70.1 119.6,72.9 122.3,76 124.8,79.2 127.1,82.7 129.2,86.3 131.1,90.1 132.7,94 134.2,98.1 122.5,100.8 121.9,97.2 121.1,93.5 120.2,90 119.1,86.5 117.9,83.1 116.4,79.7 114.8,76.3 113.1,73 111.2,69.6 109,66.3 " />
<polygon points="134.2,98.1 133.4,102.6 129.7,105.3 125.2,104.5 122.5,100.8 " />
</g>
</svg>
