<svg xmlns="http://www.w3.org/2000/svg" xmlns:xlink="http://www.w3.org/1999/xlink" version="1.1" baseProfile="full" viewBox="0 0 200 200" width="200" height="200">
<g fill="black">
<polygon points="17,45.5 79,45.5 79,49.5 17,49.5 " />
<polygon points="79,45.5 55,47.5 67,35.5 " />
<polygon points="51,45.5 51,133.9 39,133.9 39,45.5 " />
<polygon points="15.1,137.5 20.7,136.1 26.7,134.6 32.9,133 39.4,131.3 46.1,129.5 53.2,127.7 60.6,125.8 68.3,123.9 76.3,122.1 84.7,120.4 85.2,122.1 77.5,125.7 69.9,129 62.6,132.1 55.6,134.9 48.7,137.6 42.2,140.1 35.9,142.5 29.9,144.8 24.2,147 18.7,149 " />
<polygon points="18.7,149 15.1,137.5 13.2,138.1 " />
<polygon points="18.7,149 21.5,151.3 23.5,144.4 " />
<polygon points="101,25 101,102 89,102 89,19 " />
<polygon points="101,102 98.6,105.6 95,108 91.4,105.6 89,102 " />
<polygon points="101,102 100.3,114.3 98.8,125.8 96.5,136.5 93.4,146.3 89.6,155.2 84.9,163.2 79.4,170.2 73.1,176.2 66.1,181.1 58.4,184.7 57.5,183.2 63.9,178 69.4,172.3 74.2,166.1 78.4,159.3 81.8,151.7 84.6,143.4 86.7,134.3 88.2,124.3 88.9,113.6 89,102 " />
<polygon points="95,25 148,25 148,29 95,29 " />
<polygon points="154,27 154,163 142,163 142,27 " />
<polygon points="142,25 148,20 159,29 154,33 142,27 " />
<polygon points="154,163 151.6,166.6 148,169 144.4,166.6 142,163 " />
<polygon points="154,163 154,164.2 154.2,165.1 154.4,165.7 154.5,166 154.7,166.2 154.9,166.4 155.2,166.5 155.8,166.7 156.7,166.9 158,167 158,179 155.4,178.8 152.9,178.4 150.5,177.6 148.2,176.3 146.2,174.7 144.6,172.7 143.3,170.4 142.5,168 142.1,165.5 142,163 " />
<polygon points="158,167 162.2,168.8 164,173 162.2,177.2 158,179 " />
<polygon points="158,167 183,167 183,179 158,179 " />
<polygon points="183,167 186.6,169.4 189,173 186.6,176.6 183,179 " />
<polygon points="177,168 183,142 185,142 183,168 " />
</g>
</svg>
