<svg xmlns="http://www.w3.org/2000/svg" xmlns:xlink="http://www.w3.org/1999/xlink" version="1.1" baseProfile="full" viewBox="0 0 200 200" width="200" height="200">
<g fill="black">
<polygon points="14.1,43.4 73,43.4 73,47.4 14.1,47.4 " />
<polygon points="73,43.4 49,45.4 61,33.4 " />
<polygon points="46.7,43.4 46.7,137 34.7,137 34.7,43.4 " />
<polygon points="12.1,141.3 17.5,139.8 23.1,138.1 29,136.4 35.2,134.6 41.6,132.7 48.4,130.7 55.4,128.7 62.7,126.7 70.4,124.7 78.4,122.8 79,124.5 71.7,128.2 64.6,131.7 57.7,134.9 51,137.9 44.5,140.7 38.3,143.3 32.4,145.9 26.7,148.3 21.2,150.5 16.1,152.7 " />
<polygon points="16.1,152.7 12.1,141.3 10.2,142 " />
<polygon points="16.1,152.7 18.9,154.8 20.7,147.9 " />
<polygon points="74.2,69.5 81.3,71.3 88.2,73.8 94.8,76.9 101,80.5 107,84.6 112.7,89.3 118.1,94.3 123.3,99.9 128.1,105.9 132.6,112.3 122.3,118.5 118.7,112.3 114.8,106.5 110.7,101.1 106.3,95.9 101.6,91.1 96.6,86.7 91.3,82.5 85.7,78.5 79.8,74.8 73.6,71.1 " />
<polygon points="132.6,112.3 133.2,116.8 130.5,120.5 126,121.1 122.3,118.5 " />
<polygon points="111,28 111,90 99,90 99,28 " />
<polygon points="111,90 108.6,93.6 105,96 101.4,93.6 99,90 " />
<polygon points="110.9,90.4 109,106.1 106.1,120.6 102.3,133.9 97.6,146 91.9,156.8 85.3,166.2 77.8,174.3 69.5,181 60.2,186.2 50.3,189.8 49.6,188.1 58.4,182.9 66.2,176.8 73.1,169.8 79.2,161.7 84.5,152.6 89,142.4 92.7,131 95.6,118.4 97.7,104.6 99,89.5 " />
<polygon points="72,28 145,28 145,32 72,32 " />
<polygon points="150.9,30.1 150.6,57.5 151.1,82 152.4,103.5 154.6,122 157.5,137.6 161.3,150 165.6,159.3 170.3,165.5 175,168.8 180.1,170 179.8,181.9 170.1,179.8 161.9,174.1 155.3,165.4 150,154.2 145.9,140.3 142.7,123.8 140.4,104.5 139.1,82.4 138.6,57.5 139,29.8 " />
<polygon points="139,28 145,23 156,32 151,36 145,36 " />
<polygon points="180.1,170 184.3,171.9 185.9,176.1 184,180.3 179.8,181.9 " />
<polygon points="180.1,171 182.7,145 180.7,145 174.1,170.8 " />
</g>
</svg>
