<svg xmlns="http://www.w3.org/2000/svg" xmlns:xlink="http://www.w3.org/1999/xlink" version="1.1" baseProfile="full" viewBox="0 0 200 200" width="200" height="200">
<g fill="black">
<polygon points="22,26 178,26 178,30 22,30 " />
<polygon points="178,26 154,28 166,16 " />
<polygon points="63,47.5 60.2,50.4 57.3,53.4 54.3,56.4 51.2,59.5 47.9,62.6 44.6,65.8 41.1,69 37.5,72.2 33.6,75.3 29.6,78.6 28.3,77.3 31,73 33.7,68.8 36.4,64.8 39,61 41.7,57.2 44.2,53.6 46.7,50 49.1,46.6 51.4,43.2 53.7,39.9 " />
<polygon points="53.7,39.9 63,47.5 54.1,39.4 " />
<polygon points="63,47.5 64,51 56.9,50.3 " />
<polygon points="29.3,75.7 34.5,78.1 39.5,80.7 44.1,83.5 48.4,86.5 52.5,89.7 56.3,93 59.8,96.4 63,99.9 66,103.6 68.7,107.4 58.3,113.3 56.5,109.8 54.4,106.3 52.1,102.8 49.5,99.2 46.6,95.7 43.4,92.1 40,88.5 36.3,84.9 32.4,81.1 28.3,77.2 " />
<polygon points="68.7,107.4 69.2,111.9 66.4,115.6 61.9,116.1 58.3,113.3 " />
<polygon points="111,47.5 108.2,50.4 105.3,53.4 102.3,56.4 99.2,59.5 95.9,62.6 92.6,65.8 89.1,69 85.5,72.2 81.6,75.3 77.6,78.6 76.3,77.3 79,73 81.7,68.8 84.4,64.8 87,61 89.7,57.2 92.2,53.6 94.7,50 97.1,46.6 99.4,43.2 101.7,39.9 " />
<polygon points="101.7,39.9 111,47.5 102.1,39.4 " />
<polygon points="111,47.5 112,51 104.9,50.3 " />
<polygon points="77.3,75.7 82.5,78.1 87.5,80.7 92.1,83.5 96.4,86.5 100.5,89.7 104.3,93 107.8,96.4 111,99.9 114,103.6 116.7,107.4 106.3,113.3 104.5,109.8 102.4,106.3 100.1,102.8 97.5,99.2 94.6,95.7 91.4,92.1 88,88.5 84.3,84.9 80.4,81.1 76.3,77.2 " />
<polygon points="116.7,107.4 117.2,111.9 114.4,115.6 109.9,116.1 106.3,113.3 " />
<polygon points="159,47.5 156.2,50.4 153.3,53.4 150.3,56.4 147.2,59.5 143.9,62.6 140.6,65.8 137.1,69 133.5,72.2 129.6,75.3 125.6,78.6 124.3,77.3 127,73 129.7,68.8 132.4,64.8 135,61 137.7,57.2 140.2,53.6 142.7,50 145.1,46.6 147.4,43.2 149.7,39.9 " />
<polygon points="149.7,39.9 159,47.5 150.1,39.4 " />
<polygon points="159,47.5 160,51 152.9,50.3 " />
<polygon points="125.3,75.7 130.5,78.1 135.5,80.7 140.1,83.5 144.4,86.5 148.5,89.7 152.3,93 155.8,96.4 159,99.9 162,103.6 164.7,107.4 154.3,113.3 152.5,109.8 150.4,106.3 148.1,102.8 145.5,99.2 142.6,95.7 139.4,92.1 136,88.5 132.3,84.9 128.4,81.1 124.3,77.2 " />
<polygon points="164.7,107.4 165.2,111.9 162.4,115.6 157.9,116.1 154.3,113.3 " />
<polygon points="30,131 170,131 170,135 30,135 " />
<polygon points="170,131 146,133 158,121 " />
<polygon points="106,131 106,179 94,179 94,131 " />
<polygon points="17,175 183,175 183,179 17,179 " />
<polygon points="183,175 159,177 171,165 " />
</g>
</svg>
