<svg xmlns="http://www.w3.org/2000/svg" xmlns:xlink="http://www.w3.org/1999/xlink" version="1.1" baseProfile="full" viewBox="0 0 200 200" width="200" height="200">
<g fill="black">
<polygon points="16.1,45.4 75,45.4 75,49.4 16.1,49.4 " />
<polygon points="75,45.4 51,47.4 63,35.4 " />
<polygon points="48.7,45.4 48.7,139 36.7,139 36.7,45.4 " />
<polygon points="14.1,143.3 19.5,141.8 25.1,140.1 31,138.4 37.2,136.6 43.6,134.7 50.4,132.7 57.4,130.7 64.7,128.7 72.4,126.7 80.4,124.8 81,126.5 73.7,130.2 66.6,133.7 59.7,136.9 53,139.9 46.5,142.7 40.3,145.3 34.4,147.9 28.7,150.3 23.2,152.5 18.1,154.7 " />
<polygon points="18.1,154.7 14.1,143.3 12.2,144 " />
<polygon points="18.1,154.7 20.9,156.8 22.7,149.9 " />
<polygon points="69,96 142,96 142,100 69,100 " />
<polygon points="142,96 118,98 130,86 " />
<polygon points="113,40 113,92 101,92 101,38 " />
<polygon points="113,40 116,42 113,44 " />
<polygon points="113,92 110.6,95.6 107,98 103.4,95.6 101,92 " />
<polygon points="112.9,92 112,107.2 110.2,121.3 107.5,134.2 103.8,146 99.3,156.7 93.9,166.2 87.5,174.4 80.3,181.3 72.2,186.8 63.3,190.8 62.6,189.1 70.1,183.6 76.6,177.3 82.4,170.3 87.4,162.2 91.6,153.2 95,143.1 97.7,132 99.6,119.8 100.7,106.4 101,91.9 " />
<polygon points="74,30 147,30 147,34 74,34 " />
<polygon points="153,32 153.3,59.7 154.3,84.5 156.1,106.2 158.5,124.9 161.5,140.6 165.2,153 169.3,162.3 173.6,168.2 177.7,171.2 181.8,172 182.1,183.9 172.9,182.2 165.1,176.6 158.9,168.2 153.9,157.1 149.9,143.3 146.6,126.8 144.1,107.4 142.4,85.2 141.3,60 141,32 " />
<polygon points="141,30 147,25 158,34 153,38 147,38 " />
<polygon points="181.8,172 186,173.6 187.9,177.8 186.3,182 182.1,183.9 " />
<polygon points="181.8,173 183.1,146.9 181.1,147 175.8,173.1 " />
</g>
</svg>
