<svg xmlns="http://www.w3.org/2000/svg" xmlns:xlink="http://www.w3.org/1999/xlink" version="1.1" baseProfile="full" viewBox="0 0 200 200" width="200" height="200">
<g fill="black">
<polygon points="65.4,20.3 63.2,21.8 60.9,23.2 58.5,24.6 55.9,26 53.2,27.3 50.3,28.7 47.3,30 44.1,31.3 40.7,32.4 37.4,33.9 36.5,32.3 39.4,30.2 42,27.7 44.4,25.4 46.7,23.3 48.8,21.1 50.8,19.1 52.6,17.1 54.3,15.2 55.8,13.4 57.1,11.7 " />
<polygon points="56.4,12.4 65.4,20.3 57.3,11.4 " />
<polygon points="65.4,20.3 66,23.9 60.4,22.3 " />
<polygon points="38.2,32.7 41.3,33.7 44.5,34.4 47.5,35.3 50.3,36.3 53.1,37.5 55.6,38.7 58.1,40.1 60.4,41.5 62.6,43.1 64.7,44.8 55.4,52.4 54.5,50.8 53.4,49 52,47.3 50.5,45.5 48.9,43.6 47,41.8 44.9,39.9 42.7,38 40.3,36 37.5,34.3 " />
<polygon points="64.7,44.8 66,49.2 63.9,53.3 59.5,54.5 55.4,52.4 " />
<polygon points="112.4,20.3 110.2,21.8 107.9,23.2 105.5,24.6 102.9,26 100.2,27.3 97.3,28.7 94.3,30 91.1,31.3 87.7,32.4 84.4,33.9 83.5,32.3 86.4,30.2 89,27.7 91.4,25.4 93.7,23.3 95.8,21.1 97.8,19.1 99.6,17.1 101.3,15.2 102.8,13.4 104.1,11.7 " />
<polygon points="103.4,12.4 112.4,20.3 104.3,11.4 " />
<polygon points="112.4,20.3 113,23.9 107.4,22.3 " />
<polygon points="85.2,32.7 88.3,33.7 91.5,34.4 94.5,35.3 97.3,36.3 100.1,37.5 102.6,38.7 105.1,40.1 107.4,41.5 109.6,43.1 111.7,44.8 102.4,52.4 101.5,50.8 100.4,49 99,47.3 97.5,45.5 95.9,43.6 94,41.8 91.9,39.9 89.7,38 87.3,36 84.5,34.3 " />
<polygon points="111.7,44.8 113,49.2 110.9,53.3 106.5,54.5 102.4,52.4 " />
<polygon points="159.4,20.3 157.2,21.8 154.9,23.2 152.5,24.6 149.9,26 147.2,27.3 144.3,28.7 141.3,30 138.1,31.3 134.7,32.4 131.4,33.9 130.5,32.3 133.4,30.2 136,27.7 138.4,25.4 140.7,23.3 142.8,21.1 144.8,19.1 146.6,17.1 148.3,15.2 149.8,13.4 151.1,11.7 " />
<polygon points="150.4,12.4 159.4,20.3 151.3,11.4 " />
<polygon points="159.4,20.3 160,23.9 154.4,22.3 " />
<polygon points="132.2,32.7 135.3,33.7 138.5,34.4 141.5,35.3 144.3,36.3 147.1,37.5 149.6,38.7 152.1,40.1 154.4,41.5 156.6,43.1 158.7,44.8 149.4,52.4 148.5,50.8 147.4,49 146,47.3 144.5,45.5 142.9,43.6 141,41.8 138.9,39.9 136.7,38 134.3,36 131.5,34.3 " />
<polygon points="158.7,44.8 160,49.2 157.9,53.3 153.5,54.5 149.4,52.4 " />
<polygon points="53,60 53,111 41,117 41,54 " />
<polygon points="47,107 155,107 155,111 47,111 " />
<polygon points="161,62 161,111 149,117 149,62 " />
<polygon points="149,60 155,55 166,64 161,68 149,62 " />
<polygon points="47,60 155,60 155,64 47,64 " />
<polygon points="58,120 58,173 46,173 46,118 " />
<polygon points="58,120 61,122 56,125 " />
<polygon points="23.3,175.9 30.1,174.3 36.8,172.7 43.4,171.1 49.8,169.6 56.2,168.1 62.5,166.6 68.6,165.3 74.7,164 80.7,162.9 86.7,162.1 87.2,163.8 81.9,166.6 76.3,169.1 70.6,171.6 64.7,173.9 58.7,176.2 52.5,178.5 46.2,180.7 39.8,183 33.2,185.2 26.6,187.4 " />
<polygon points="26.6,187.4 23.3,175.9 21.3,176.5 " />
<polygon points="26.6,187.4 29.3,189.8 31.5,182.9 " />
<polygon points="106,118 106,174 94,174 94,116 " />
<polygon points="106,118 109,120 104,123 " />
<polygon points="75.2,174.9 81.4,173.5 87.6,172 93.8,170.6 100.2,169.2 106.5,167.8 113,166.5 119.5,165.2 126.2,164 132.9,162.9 139.7,162.1 140.2,163.8 133.9,166.6 127.6,169.1 121.3,171.5 115,173.8 108.8,176 102.7,178.1 96.6,180.2 90.5,182.3 84.5,184.4 78.6,186.4 " />
<polygon points="78.6,186.4 75.2,174.9 73.3,175.5 " />
<polygon points="78.6,186.4 81.3,188.8 83.5,181.9 " />
<polygon points="152,117.9 152.4,129.3 153.4,139.5 154.9,148.4 156.8,156 159.2,162.2 161.8,167 164.8,170.6 167.9,172.9 171.2,174.4 175.2,175 174.7,186.9 168,185.9 161.8,183.3 156.4,179.2 151.9,173.8 148.3,167.2 145.4,159.6 143.1,150.9 141.5,141.1 140.4,130.1 140,118 " />
<polygon points="140,119 152,117.9 139.9,115.7 " />
<polygon points="152,117.9 155,119.8 150,122.9 " />
<polygon points="175.2,175 179.3,176.9 180.9,181.2 179,185.3 174.7,186.9 " />
<polygon points="175,176 177,150 175,150 169,176 " />
<polygon points="113.2,119.6 116,120.7 118.8,121.4 121.5,122.2 124.1,123.2 126.6,124.3 128.9,125.4 131.2,126.6 133.4,127.9 135.4,129.2 137.4,130.7 128.5,138.7 127.5,137.1 126.4,135.4 125.2,133.7 123.8,132 122.3,130.3 120.6,128.5 118.8,126.6 116.9,124.7 114.8,122.8 112.4,121.2 " />
<polygon points="137.4,130.7 138.9,135 137,139.2 132.6,140.7 128.5,138.7 " />
<polygon points="112.3,138.6 114.8,139.7 117.5,140.5 120.2,141.4 122.7,142.4 125.2,143.6 127.5,144.8 129.9,146.2 132.1,147.6 134.3,149.1 136.4,150.7 127.5,158.8 126.3,156.9 125,155 123.7,153.2 122.2,151.3 120.7,149.5 119,147.6 117.3,145.7 115.5,143.8 113.6,141.8 111.4,140.2 " />
<polygon points="136.4,150.7 137.9,155 136,159.2 131.6,160.7 127.5,158.8 " />
<polygon points="65.3,119.6 67.8,120.7 70.5,121.4 73,122.3 75.5,123.3 77.9,124.3 80.1,125.4 82.3,126.6 84.4,127.9 86.5,129.3 88.4,130.7 79.5,138.7 78.5,137.1 77.4,135.4 76.2,133.7 74.9,132 73.5,130.2 71.9,128.4 70.2,126.6 68.5,124.7 66.6,122.8 64.4,121.2 " />
<polygon points="88.4,130.7 89.9,135 88,139.2 83.6,140.7 79.5,138.7 " />
<polygon points="63.3,138.7 65.7,139.7 68.3,140.5 70.8,141.4 73.3,142.4 75.8,143.6 78.3,144.8 80.7,146.1 83.1,147.5 85.5,149 87.8,150.5 79.7,159.3 78.1,157.3 76.5,155.4 74.8,153.4 73.1,151.5 71.4,149.6 69.7,147.6 67.9,145.7 66.1,143.8 64.4,141.8 62.4,140.2 " />
<polygon points="87.8,150.5 89.7,154.7 88.2,159 84,160.9 79.7,159.3 " />
<polygon points="131.7,75.4 125.4,79.4 118.9,83.3 112.3,86.9 105.4,90.3 98.4,93.4 91.1,96.3 83.7,98.9 76.1,101.3 68.3,103.3 60.2,104.8 59.7,103.1 67,99.7 74.2,96.3 81.2,92.9 88,89.4 94.6,85.8 101,82.1 107.2,78.2 113.2,74.2 119,70 124.6,65.7 " />
<polygon points="123.8,66.3 131.7,75.4 124.6,65.7 " />
<polygon points="131.7,75.4 131.9,79 126.5,76.7 " />
<polygon points="68.1,71.3 75.5,72 82.6,73.2 89.4,74.8 95.9,76.8 102.2,79.2 108.3,81.8 114,84.8 119.6,88 124.8,91.6 129.8,95.5 121.7,104.3 117.7,100.5 113.3,96.8 108.7,93.3 103.8,90 98.6,86.8 93,83.8 87.1,81 81,78.3 74.5,75.7 67.7,73 " />
<polygon points="129.8,95.5 131.7,99.7 130.2,104 126,105.9 121.7,104.3 " />
</g>
</svg>
