<svg xmlns="http://www.w3.org/2000/svg" xmlns:xlink="http://www.w3.org/1999/xlink" version="1.1" baseProfile="full" viewBox="0 0 200 200" width="200" height="200">
<g fill="black">
<polygon points="25,29 157,29 157,33 25,33 " />
<polygon points="163,31 163,97 151,103 151,31 " />
<polygon points="151,29 157,24 168,33 163,37 151,31 " />
<polygon points="39,87 157,87 157,91 39,91 " />
<polygon points="45,56 45,159 33,159 33,54 " />
<polygon points="45,56 48,58 43,61 " />
<polygon points="45,159 42.6,162.6 39,165 35.4,162.6 33,159 " />
<polygon points="45,159 45,160.2 45.2,161.1 45.4,161.7 45.5,162 45.7,162.2 45.9,162.4 46.2,162.5 46.8,162.7 47.7,162.9 49,163 49,175 46.4,174.8 43.9,174.4 41.5,173.6 39.2,172.3 37.2,170.7 35.6,168.7 34.3,166.4 33.5,164 33.1,161.5 33,159 " />
<polygon points="49,163 53.2,164.8 55,169 53.2,173.2 49,175 " />
<polygon points="49,163 176,163 176,175 49,175 " />
<polygon points="176,163 179.6,165.4 182,169 179.6,172.6 176,175 " />
<polygon points="170,164 176,138 178,138 176,164 " />
</g>
</svg>
