<svg xmlns="http://www.w3.org/2000/svg" xmlns:xlink="http://www.w3.org/1999/xlink" version="1.1" baseProfile="full" viewBox="0 0 200 200" width="200" height="200">
<g fill="black">
<polygon points="20,45 185,45 185,49 20,49 " />
<polygon points="185,45 161,47 173,35 " />
<polygon points="53,79 53,160 41,166 41,73 " />
<polygon points="47,79 156,79 156,83 47,83 " />
<polygon points="162,81 162,150 150,150 150,81 " />
<polygon points="150,79 156,74 167,83 162,87 150,81 " />
<polygon points="162,150 159.6,153.6 156,156 152.4,153.6 150,150 " />
<polygon points="162,150 161.8,152.5 161.4,155 160.6,157.4 159.3,159.7 157.7,161.7 155.7,163.3 153.4,164.6 151,165.4 148.5,165.8 146,166 146,154 147.2,153.9 148.1,153.7 148.7,153.5 149,153.4 149.2,153.2 149.4,153 149.5,152.7 149.7,152.1 149.9,151.2 150,150 " />
<polygon points="146,160 146,154 126,154 126,157 " />
<polygon points="107,16 107,184 95,190 95,14 " />
<polygon points="107,16 110,18 107,20 " />
</g>
</svg>
