<svg xmlns="http://www.w3.org/2000/svg" xmlns:xlink="http://www.w3.org/1999/xlink" version="1.1" baseProfile="full" viewBox="0 0 200 200" width="200" height="200">
<g fill="black">
<polygon points="38,29 158,29 158,33 38,33 " />
<polygon points="164,31 164,98 152,104 152,31 " />
<polygon points="152,29 158,24 169,33 164,37 152,31 " />
<polygon points="38,88 158,88 158,92 38,92 " />
<polygon points="44,29 44,159 32,159 32,23 " />
<polygon points="44,159 41.6,162.6 38,165 34.4,162.6 32,159 " />
<polygon points="44,159 44,160.2 44.2,161.1 44.4,161.7 44.5,162 44.7,162.2 44.9,162.4 45.2,162.5 45.8,162.7 46.7,162.9 48,163 48,175 45.4,174.8 42.9,174.4 40.5,173.6 38.2,172.3 36.2,170.7 34.6,168.7 33.3,166.4 32.5,164 32.1,161.5 32,159 " />
<polygon points="48,163 52.2,164.8 54,169 52.2,173.2 48,175 " />
<polygon points="48,163 176,163 176,175 48,175 " />
<polygon points="176,163 179.6,165.4 182,169 179.6,172.6 176,175 " />
<polygon points="170,164 176,138 178,138 176,164 " />
</g>
</svg>
