<svg xmlns="http://www.w3.org/2000/svg" xmlns:xlink="http://www.w3.org/1999/xlink" version="1.1" baseProfile="full" viewBox="0 0 200 200" width="200" height="200">
<g fill="black">
<polygon points="25,29 156,29 156,33 25,33 " />
<polygon points="162,31 162,96 150,102 150,31 " />
<polygon points="150,29 156,24 167,33 162,37 150,31 " />
<polygon points="40,86 156,86 156,90 40,90 " />
<polygon points="46,86 46,159 34,159 34,80 " />
<polygon points="46,159 43.6,162.6 40,165 36.4,162.6 34,159 " />
<polygon points="46,159 46,160.2 46.2,161.1 46.4,161.7 46.5,162 46.7,162.2 46.9,162.4 47.2,162.5 47.8,162.7 48.7,162.9 50,163 50,175 47.4,174.8 44.9,174.4 42.5,173.6 40.2,172.3 38.2,170.7 36.6,168.7 35.3,166.4 34.5,164 34.1,161.5 34,159 " />
<polygon points="50,163 54.2,164.8 56,169 54.2,173.2 50,175 " />
<polygon points="50,163 176,163 176,175 50,175 " />
<polygon points="176,163 179.6,165.4 182,169 179.6,172.6 176,175 " />
<polygon points="170,164 176,138 178,138 176,164 " />
</g>
</svg>
