<svg xmlns="http://www.w3.org/2000/svg" xmlns:xlink="http://www.w3.org/1999/xlink" version="1.1" baseProfile="full" viewBox="0 0 200 200" width="200" height="200">
<g fill="black">
<polygon points="79.2,13.8 82.9,15 86.5,16 89.9,17.3 93,18.7 95.9,20.3 98.6,22 101.1,24 103.3,26.1 105.3,28.5 107,31.1 96,35.7 95.6,33.9 94.9,32.1 93.9,30.2 92.7,28.2 91.1,26.1 89.2,24 87,21.9 84.5,19.7 81.8,17.4 78.5,15.4 " />
<polygon points="107,31.1 107,35.6 103.8,38.9 99.2,38.9 96,35.7 " />
<polygon points="14.3,43.9 185.6,43.9 185.6,47.9 14.3,47.9 " />
<polygon points="185.6,43.9 161.6,45.9 173.6,33.9 " />
<polygon points="106,43.9 106,182.6 94,188.6 94,43.9 " />
<polygon points="48.8,84.7 48.8,154 36.8,160 36.8,78.7 " />
<polygon points="42.8,84.7 157.1,84.7 157.1,88.7 42.8,88.7 " />
<polygon points="163.1,86.7 163.1,145.2 151.1,145.2 151.1,86.7 " />
<polygon points="151.1,84.7 157.1,79.7 168.1,88.7 163.1,92.7 151.1,86.7 " />
<polygon points="163.1,145.2 160.7,148.8 157.1,151.2 153.5,148.8 151.1,145.2 " />
<polygon points="163.1,145.2 162.9,147.8 162.5,150.2 161.7,152.7 160.5,154.9 158.8,156.9 156.8,158.6 154.5,159.8 152.1,160.6 149.6,161.1 147.1,161.2 147.1,149.2 148.3,149.1 149.2,149 149.8,148.8 150.1,148.6 150.3,148.4 150.5,148.3 150.7,147.9 150.8,147.3 151,146.4 151.1,145.2 " />
<polygon points="127.1,152.2 127.1,149.2 147.1,149.2 147.1,155.2 " />
</g>
</svg>
