<svg xmlns="http://www.w3.org/2000/svg" xmlns:xlink="http://www.w3.org/1999/xlink" version="1.1" baseProfile="full" viewBox="0 0 200 200" width="200" height="200">
<g fill="black">
<polygon points="106,15 106,52 94,52 94,13 " />
<polygon points="106,15 109,17 106,19 " />
<polygon points="14,48 186,48 186,52 14,52 " />
<polygon points="186,48 162,50 174,38 " />
<polygon points="49,84 49,162 37,168 37,78 " />
<polygon points="43,84 157,84 157,88 43,88 " />
<polygon points="163,86 163,151 151,151 151,86 " />
<polygon points="151,84 157,79 168,88 163,92 151,86 " />
<polygon points="163,151 160.6,154.6 157,157 153.4,154.6 151,151 " />
<polygon points="163,151 162.8,153.5 162.4,156 161.6,158.4 160.3,160.7 158.7,162.7 156.7,164.3 154.4,165.6 152,166.4 149.5,166.8 147,167 147,155 148.2,154.9 149.1,154.7 149.7,154.5 150,154.4 150.2,154.2 150.4,154 150.5,153.7 150.7,153.1 150.9,152.2 151,151 " />
<polygon points="147,161 147,155 127,155 127,158 " />
<polygon points="106,54 106,183 94,189 94,52 " />
<polygon points="106,54 109,56 106,58 " />
</g>
</svg>
