<svg xmlns="http://www.w3.org/2000/svg" xmlns:xlink="http://www.w3.org/1999/xlink" version="1.1" baseProfile="full" viewBox="0 0 200 200" width="200" height="200">
<g fill="black">
<polygon points="150.3,24.5 142.8,28.6 134.2,32.7 124.5,36.9 113.6,41.2 101.5,45.5 88.3,50 73.8,54.5 58.2,59 41.3,63.4 23.2,67.8 22.7,66.1 40.2,59.8 56.5,53.9 71.7,48.2 85.7,42.8 98.5,37.6 110,32.6 120.4,27.8 129.5,23.1 137.3,18.7 143.9,14.4 " />
<polygon points="143.9,14.4 150.3,24.5 151.4,23.9 " />
<polygon points="151.4,23.9 151.5,27.3 144.5,24.7 " />
<polygon points="55.2,18.4 68.2,21.6 80.2,25 91.2,28.6 101.2,32.3 110.2,36.1 118.2,40 125.3,44 131.4,48.1 136.7,52.4 141,57 131.3,64.1 128.6,60.4 124.7,56.5 119.6,52.3 113.5,48.1 106.3,43.7 98,39.2 88.7,34.7 78.4,30 67,25.2 54.6,20.1 " />
<polygon points="141,57 142,61.4 139.7,65.4 135.3,66.4 131.3,64.1 " />
<polygon points="15,74 182,74 182,78 15,78 " />
<polygon points="182,74 158,76 170,64 " />
<polygon points="106,58.3 101.5,66.7 96,75.1 89.5,83.5 82.1,92 73.6,100.4 64.2,108.9 53.8,117.4 42.4,125.9 30,134.3 16.5,142.7 15.4,141.2 27.7,131.3 39.1,121.7 49.6,112.4 59.1,103.3 67.6,94.5 75.1,85.8 81.6,77.4 87.1,69.2 91.6,61.2 95.1,53.5 " />
<polygon points="95.1,53.5 106,58.3 95.6,52.2 " />
<polygon points="106,58.3 108,61.3 100.9,62.6 " />
<polygon points="110,85 110,182 98,188 98,83 " />
<polygon points="110,85 113,87 110,89 " />
<polygon points="64,112 64,169 52,175 52,112 " />
<polygon points="60,109 154,109 154,113 60,113 " />
<polygon points="160,111 160,157 148,157 148,111 " />
<polygon points="148,109 154,104 165,113 160,117 148,111 " />
<polygon points="160,157 157.6,160.6 154,163 150.4,160.6 148,157 " />
<polygon points="160,157 159.8,159.5 159.4,162 158.6,164.4 157.3,166.7 155.7,168.7 153.7,170.3 151.4,171.6 149,172.4 146.5,172.8 144,173 144,161 145.2,160.9 146.1,160.7 146.7,160.5 147,160.4 147.2,160.2 147.4,160 147.5,159.7 147.7,159.1 147.9,158.2 148,157 " />
<polygon points="144,167 144,161 124,161 124,164 " />
</g>
</svg>
