<svg xmlns="http://www.w3.org/2000/svg" xmlns:xlink="http://www.w3.org/1999/xlink" version="1.1" baseProfile="full" viewBox="0 0 200 200" width="200" height="200">
<g fill="black">
<polygon points="64,20 64,68 52,74 52,18 " />
<polygon points="64,20 67,22 64,24 " />
<polygon points="148,20 148,68 136,74 136,18 " />
<polygon points="148,20 151,22 148,24 " />
<polygon points="106,20 106,68 94,74 94,18 " />
<polygon points="106,20 109,22 106,24 " />
<polygon points="19,45 185,45 185,49 19,49 " />
<polygon points="185,45 161,47 173,35 " />
<polygon points="31,74.7 32.1,78.3 33.3,81.8 34,85.4 34.4,88.9 34.5,92.5 34.2,96 33.5,99.6 32.6,103.1 31.2,106.5 29.6,109.9 19.7,103.1 21.5,100.9 23.1,98.7 24.6,96.3 25.8,93.8 26.9,91.2 27.8,88.3 28.5,85.3 29,82.1 29.4,78.7 29.3,75.1 " />
<polygon points="29.6,109.9 25.7,112.3 21.3,111.4 18.8,107.6 19.7,103.1 " />
<polygon points="33,82 172,82 172,86 33,86 " />
<polygon points="177.6,86 176.2,88.7 174.8,91.4 173.3,94 171.8,96.7 170.2,99.3 168.6,102 167,104.6 165.2,107.1 163.4,109.7 161.8,112.3 160.1,111.6 160.9,108.6 161.4,105.6 161.9,102.5 162.5,99.5 163.2,96.6 163.8,93.6 164.4,90.7 165.1,87.7 165.7,84.8 166.3,81.9 " />
<polygon points="166,82 172,77 183,86 178,90 172,90 " />
<polygon points="106,87 106,180 94,186 94,85 " />
<polygon points="106,87 109,89 106,91 " />
<polygon points="58,111 58,160 46,166 46,105 " />
<polygon points="52,111 147,111 147,115 52,115 " />
<polygon points="153,113 153,149 141,149 141,113 " />
<polygon points="141,111 147,106 158,115 153,119 141,113 " />
<polygon points="153,149 150.6,152.6 147,155 143.4,152.6 141,149 " />
<polygon points="153,149 152.8,151.5 152.4,154 151.6,156.4 150.3,158.7 148.7,160.7 146.7,162.3 144.4,163.6 142,164.4 139.5,164.8 137,165 137,153 138.2,152.9 139.1,152.7 139.7,152.5 140,152.4 140.2,152.2 140.4,152 140.5,151.7 140.7,151.1 140.9,150.2 141,149 " />
<polygon points="137,159 137,153 117,153 117,156 " />
</g>
</svg>
