<svg xmlns="http://www.w3.org/2000/svg" xmlns:xlink="http://www.w3.org/1999/xlink" version="1.1" baseProfile="full" viewBox="0 0 200 200" width="200" height="200">
<g fill="black">
<polygon points="64,20 64,76 52,82 52,18 " />
<polygon points="64,20 67,22 64,24 " />
<polygon points="148,20 148,75 136,81 136,18 " />
<polygon points="148,20 151,22 148,24 " />
<polygon points="58,69 142,69 142,73 58,73 " />
<polygon points="106,20 106,73 94,73 94,18 " />
<polygon points="106,20 109,22 106,24 " />
<polygon points="19,45 185,45 185,49 19,49 " />
<polygon points="185,45 161,47 173,35 " />
<polygon points="31,83.7 32.1,87.3 33.3,90.8 34,94.3 34.4,97.8 34.5,101.3 34.2,104.7 33.5,108.2 32.6,111.5 31.2,114.9 29.6,118.1 19.9,111 21.6,109.1 23.2,107 24.6,104.8 25.9,102.5 26.9,99.9 27.8,97.2 28.5,94.2 29.1,91.1 29.5,87.7 29.3,84.1 " />
<polygon points="29.6,118.1 25.6,120.4 21.2,119.4 18.9,115.4 19.9,111 " />
<polygon points="33,91 172,91 172,95 33,95 " />
<polygon points="177.6,95 176.2,97.7 174.7,100.3 173.3,103 171.8,105.6 170.2,108.1 168.6,110.6 166.9,113.1 165.2,115.5 163.3,117.9 161.8,120.3 160.1,119.6 161,116.8 161.4,113.9 162,111 162.6,108.1 163.2,105.3 163.8,102.4 164.4,99.6 165.1,96.7 165.7,93.8 166.3,90.9 " />
<polygon points="166,91 172,86 183,95 178,99 172,99 " />
<polygon points="106,96 106,185 94,191 94,94 " />
<polygon points="106,96 109,98 106,100 " />
<polygon points="58,119 58,166 46,172 46,113 " />
<polygon points="52,119 147,119 147,123 52,123 " />
<polygon points="153,121 153,155 141,155 141,121 " />
<polygon points="141,119 147,114 158,123 153,127 141,121 " />
<polygon points="153,155 150.6,158.6 147,161 143.4,158.6 141,155 " />
<polygon points="153,155 152.8,157.5 152.4,160 151.6,162.4 150.3,164.7 148.7,166.7 146.7,168.3 144.4,169.6 142,170.4 139.5,170.8 137,171 137,159 138.2,158.9 139.1,158.7 139.7,158.5 140,158.4 140.2,158.2 140.4,158 140.5,157.7 140.7,157.1 140.9,156.2 141,155 " />
<polygon points="137,165 137,159 117,159 117,162 " />
</g>
</svg>
