<svg xmlns="http://www.w3.org/2000/svg" xmlns:xlink="http://www.w3.org/1999/xlink" version="1.1" baseProfile="full" viewBox="0 0 200 200" width="200" height="200">
<g fill="black">
<polygon points="124,16 124,75 112,81 112,14 " />
<polygon points="124,16 127,18 122,21 " />
<polygon points="82,69 118,69 118,73 82,73 " />
<polygon points="17,45 187,45 187,49 17,49 " />
<polygon points="187,45 163,47 175,35 " />
<polygon points="108,99 108,184 96,190 96,97 " />
<polygon points="108,99 111,101 106,104 " />
<polygon points="62,119 62,171 50,177 50,113 " />
<polygon points="56,119 150,119 150,123 56,123 " />
<polygon points="156,121 156,159 144,159 144,121 " />
<polygon points="144,119 150,114 161,123 156,127 144,121 " />
<polygon points="156,159 153.6,162.6 150,165 146.4,162.6 144,159 " />
<polygon points="156,159 155.8,161.5 155.4,164 154.6,166.4 153.3,168.7 151.7,170.7 149.7,172.3 147.4,173.6 145,174.4 142.5,174.8 140,175 140,163 141.2,162.9 142.1,162.7 142.7,162.5 143,162.4 143.2,162.2 143.4,162 143.5,161.7 143.7,161.1 143.9,160.2 144,159 " />
<polygon points="140,169 140,163 120,163 120,166 " />
<polygon points="88,16 88,76 76,82 76,14 " />
<polygon points="88,16 91,18 86,21 " />
<polygon points="59,17 59,45 47,45 47,15 " />
<polygon points="59,17 62,19 57,22 " />
<polygon points="59,45 56.6,48.6 53,51 49.4,48.6 47,45 " />
<polygon points="59,45 58.2,51.4 56.7,57.5 54.5,63.3 51.4,68.8 47.6,73.9 43.2,78.7 38,83.1 32.2,87.1 25.6,90.7 18.4,93.7 17.5,92.2 23.6,87.4 28.9,82.8 33.6,78.2 37.5,73.6 40.8,69 43.3,64.3 45.1,59.6 46.4,54.8 47,49.9 47,45 " />
<polygon points="153,17 153,67 141,67 141,15 " />
<polygon points="153,17 156,19 151,22 " />
<polygon points="153,67 150.6,70.6 147,73 143.4,70.6 141,67 " />
<polygon points="153,67 152.9,68.2 152.9,69.2 153,69.9 153,70.4 153.2,70.7 153.4,71.1 153.8,71.5 154.5,71.9 155.6,72.2 157,72.5 157,81.5 154.5,81.5 152.2,81.2 149.9,80.6 147.7,79.6 145.7,78.2 144.1,76.3 142.7,74.2 141.8,71.9 141.2,69.5 141,67 " />
<polygon points="157,72.5 160.1,73.8 161.5,77 160.1,80.1 157,81.5 " />
<polygon points="157,72.5 179,72.5 179,81.5 157,81.5 " />
<polygon points="179,72.5 181.7,74.3 183.5,77 181.7,79.7 179,81.5 " />
<polygon points="174.5,73.5 179,59.5 181,59.5 179,73.5 " />
<polygon points="31.9,83.1 32.5,88.4 33.1,93.4 33.1,98.1 32.8,102.5 32.1,106.7 30.9,110.6 29.3,114.2 27.2,117.6 24.6,120.5 21.5,123.1 15.6,112.7 17.6,111.7 19.5,110.5 21.3,108.8 23,106.7 24.6,104 26.1,100.9 27.4,97.2 28.5,93 29.5,88.3 30.1,83.1 " />
<polygon points="21.5,123.1 17,123.6 13.3,120.8 12.8,116.3 15.6,112.7 " />
<polygon points="32,91.5 176,91.5 176,95.5 32,95.5 " />
<polygon points="181,96.8 179.3,98.6 177.4,100.5 175.4,102.4 173.2,104.5 170.9,106.6 168.4,108.8 165.7,111.1 162.8,113.4 159.7,115.8 156.6,118.4 155.3,117.2 157.7,113.9 159.6,110.6 161.6,107.5 163.3,104.5 165,101.7 166.5,99.1 167.9,96.6 169,94.3 170.1,92.2 170.9,90.2 " />
<polygon points="170,91.5 176,86.5 187,95.5 182,98.5 170,103.5 " />
</g>
</svg>
