<svg xmlns="http://www.w3.org/2000/svg" xmlns:xlink="http://www.w3.org/1999/xlink" version="1.1" baseProfile="full" viewBox="0 0 200 200" width="200" height="200">
<g fill="black">
<polygon points="52.5,19 52.5,181.2 41.5,186.7 41.5,17 " />
<polygon points="52.5,19 55.2,21 52.5,23 " />
<polygon points="29.5,50 29.5,147.2 18.5,152.7 18.5,44.5 " />
<polygon points="24,50 71,50 71,54 24,54 " />
<polygon points="76.5,52 76.5,136 65.5,136 65.5,52 " />
<polygon points="65.5,50 71,45 81.5,54 76.5,57.5 65.5,52 " />
<polygon points="76.5,136 74.3,139.3 71,141.5 67.7,139.3 65.5,136 " />
<polygon points="76.5,136 76.3,138.4 76,140.7 75.3,143 74.3,145.1 72.9,147.1 71.1,148.7 69.1,150 66.9,150.8 64.6,151.3 62.2,151.5 62.2,140.5 63.2,140.4 63.8,140.3 64.2,140.1 64.5,140 64.6,139.8 64.8,139.6 65,139.1 65.2,138.4 65.4,137.3 65.5,136 " />
<polygon points="62.2,146 62.2,140.5 46.8,140.5 46.8,143.2 " />
<polygon points="98.5,26 98.5,82 87.5,87.5 87.5,20.5 " />
<polygon points="93,26 174,26 174,30 93,30 " />
<polygon points="180,28 180,85 168,91 168,28 " />
<polygon points="168,26 174,21 185,30 180,34 168,28 " />
<polygon points="93,49 174,49 174,53 93,53 " />
<polygon points="93,75 174,75 174,79 93,79 " />
<polygon points="109,99 109,180 97,186 97,93 " />
<polygon points="103,99 163,99 163,103 103,103 " />
<polygon points="169,101 169,177 157,183 157,101 " />
<polygon points="157,99 163,94 174,103 169,107 157,101 " />
<polygon points="103,121 163,121 163,125 103,125 " />
<polygon points="103,169 163,169 163,173 103,173 " />
<polygon points="103,145 163,145 163,149 103,149 " />
</g>
</svg>
