<svg xmlns="http://www.w3.org/2000/svg" xmlns:xlink="http://www.w3.org/1999/xlink" version="1.1" baseProfile="full" viewBox="0 0 200 200" width="200" height="200">
<g fill="black">
<polygon points="105.1,24.2 101.7,31 98.2,37.5 94.6,43.9 90.7,50 86.7,55.9 82.5,61.6 78.2,67 73.6,72.2 68.7,77.1 63.6,81.5 62.3,80.4 65.8,74.7 69.3,69 72.8,63.2 76.2,57.4 79.5,51.4 82.7,45.4 85.7,39.1 88.6,32.7 91.4,26.2 94,19.5 " />
<polygon points="94,19.5 105.1,24.2 94.6,18.2 " />
<polygon points="105.1,24.2 107,27.3 100,28.6 " />
<polygon points="38.3,63.7 45.3,67 51.9,70.6 58.2,74.4 64,78.4 69.6,82.5 74.7,86.8 79.6,91.2 84.1,95.7 88.3,100.3 92.2,105.1 82.3,111.9 79.3,107.3 76,102.7 72.3,98.1 68.3,93.5 63.9,88.9 59.2,84.3 54.2,79.7 48.8,75 43.2,70.2 37.3,65.2 " />
<polygon points="92.2,105.1 93.1,109.5 90.7,113.4 86.2,114.3 82.3,111.9 " />
<polygon points="143.9,61.5 137,74.2 129.8,86.5 122.2,98.4 114.1,109.9 105.7,120.9 97,131.6 87.8,141.9 78.2,151.7 68.1,160.9 57.6,169.6 56.3,168.3 65.4,158.2 74.3,148 82.8,137.6 91,126.9 98.9,115.9 106.5,104.6 113.7,93 120.5,81.1 127,68.8 133.1,56.2 " />
<polygon points="133.1,56.2 143.9,61.5 133.7,55.1 " />
<polygon points="143.9,61.5 145.7,64.6 138.5,65.6 " />
<polygon points="28.8,167.9 42.5,165.4 56.1,163.1 69.4,160.9 82.5,158.8 95.4,156.7 108.1,154.8 120.6,153.1 132.8,151.5 144.9,150.1 156.8,149.1 157.1,150.8 145.6,153.9 133.8,156.7 121.7,159.5 109.5,162.3 97,165.1 84.3,167.9 71.3,170.7 58.1,173.7 44.7,176.6 31.1,179.6 " />
<polygon points="31.1,179.6 28.8,167.9 26.8,168.3 " />
<polygon points="31.1,179.6 33.7,182.2 36.4,175.5 " />
<polygon points="134.3,112.2 139.9,117.7 145.1,123.6 149.9,129.7 154.5,136.1 158.8,142.6 162.9,149.4 166.7,156.3 170.2,163.4 173.6,170.7 176.6,178.1 165.3,182.1 162.9,174.8 160.4,167.6 157.6,160.6 154.6,153.6 151.4,146.7 148,140 144.4,133.3 140.7,126.6 136.8,120 132.9,113.3 " />
<polygon points="176.6,178.1 176.3,182.7 172.9,185.8 168.4,185.5 165.3,182.1 " />
</g>
</svg>
