<svg xmlns="http://www.w3.org/2000/svg" xmlns:xlink="http://www.w3.org/1999/xlink" version="1.1" baseProfile="full" viewBox="0 0 200 200" width="200" height="200">
<g fill="black">
<polygon points="82.9,19.5 80.3,23.8 77.6,27.9 74.8,32.1 71.8,36.2 68.6,40.3 65.2,44.3 61.7,48.3 58,52.2 53.9,56 49.6,59.5 48.3,58.4 51,53.5 53.7,48.9 56.5,44.4 59.1,39.9 61.6,35.5 64,31.2 66.2,26.9 68.3,22.6 70.3,18.4 72.1,14.2 " />
<polygon points="72.1,14.2 82.9,19.5 72.7,13.1 " />
<polygon points="82.9,19.5 84.7,22.7 77.5,23.6 " />
<polygon points="25,57 99,57 99,61 25,61 " />
<polygon points="99,57 75,59 87,47 " />
<polygon points="19,112 99,112 99,116 19,116 " />
<polygon points="99,112 75,114 87,102 " />
<polygon points="70,57 70,107 58,107 58,57 " />
<polygon points="70,107 67.6,110.6 64,113 60.4,110.6 58,107 " />
<polygon points="70,107 69.3,118.9 67.9,130.1 65.8,140.6 63,150.2 59.4,159.1 55,167.1 50,174.2 44.2,180.4 37.6,185.6 30.4,189.7 29.5,188.2 35.2,182.7 40.2,176.8 44.6,170.4 48.4,163.4 51.5,155.8 54.1,147.5 56,138.5 57.3,128.7 57.9,118.2 58,107 " />
<polygon points="159.5,20 156.3,24.5 153,28.9 149.7,33.1 146.4,37.3 143,41.4 139.5,45.4 136,49.2 132.4,52.8 128.6,56.3 124.6,59.5 123.3,58.4 125.7,53.9 128.2,49.5 130.8,45.2 133.5,40.8 136.1,36.4 138.8,32 141.5,27.5 144.1,22.9 146.7,18.3 149.3,13.6 " />
<polygon points="149.3,13.6 159.5,20 149.9,12.8 " />
<polygon points="159.5,20 161,23.3 153.8,23.5 " />
<polygon points="106,57 180,57 180,61 106,61 " />
<polygon points="180,57 156,59 168,47 " />
<polygon points="105,112 186,112 186,116 105,116 " />
<polygon points="186,112 162,114 174,102 " />
<polygon points="145,57 145,184 133,190 133,57 " />
</g>
</svg>
