<svg xmlns="http://www.w3.org/2000/svg" xmlns:xlink="http://www.w3.org/1999/xlink" version="1.1" baseProfile="full" viewBox="0 0 200 200" width="200" height="200">
<g fill="black">
<polygon points="21,34 93,34 93,38 21,38 " />
<polygon points="93,34 69,36 81,24 " />
<polygon points="13,94 100,94 100,98 13,98 " />
<polygon points="100,94 76,96 88,84 " />
<polygon points="61,35 61,185 49,191 49,35 " />
<polygon points="102,34 174,34 174,38 102,38 " />
<polygon points="174,34 150,36 162,24 " />
<polygon points="104,94 187,94 187,98 104,98 " />
<polygon points="187,94 163,96 175,84 " />
<polygon points="142,35 142,185 130,191 130,35 " />
</g>
</svg>
