<svg xmlns="http://www.w3.org/2000/svg" xmlns:xlink="http://www.w3.org/1999/xlink" version="1.1" baseProfile="full" viewBox="0 0 200 200" width="200" height="200">
<g fill="black">
<polygon points="86.3,11.7 89.7,13.2 93.2,14.7 96.5,16.4 99.6,18.3 102.6,20.4 105.4,22.7 108,25.2 110.4,27.8 112.7,30.6 114.8,33.5 104.2,39.1 103.1,36.4 101.9,33.7 100.5,31.1 98.9,28.5 97.1,25.9 95.1,23.3 93,20.8 90.6,18.2 88.2,15.6 85.4,13.2 " />
<polygon points="114.8,33.5 115.2,38 112.4,41.6 107.8,42 104.2,39.1 " />
<polygon points="46,44 46,100 34,100 34,38 " />
<polygon points="46,100 43.6,103.6 40,106 36.4,103.6 34,100 " />
<polygon points="45.9,100.1 45,112.2 43.6,123.7 41.8,134.6 39.5,144.8 36.8,154.3 33.6,163.2 29.9,171.4 25.7,178.9 20.9,185.7 15.7,191.5 14.2,190.4 17.7,183.6 20.9,176.5 23.8,168.9 26.4,160.8 28.6,152.1 30.4,142.8 31.9,133 33,122.5 33.7,111.4 34,99.8 " />
<polygon points="40,44 177,44 177,48 40,48 " />
<polygon points="177,44 153,46 165,34 " />
</g>
</svg>
