<svg xmlns="http://www.w3.org/2000/svg" xmlns:xlink="http://www.w3.org/1999/xlink" version="1.1" baseProfile="full" viewBox="0 0 200 200" width="200" height="200">
<g fill="black">
<polygon points="105.4,31.5 174.9,31.5 174.9,35.5 105.4,35.5 " />
<polygon points="174.9,31.5 150.9,33.5 162.9,21.5 " />
<polygon points="98.6,90.7 183.9,90.7 183.9,94.7 98.6,94.7 " />
<polygon points="183.9,90.7 159.9,92.7 171.9,80.7 " />
<polygon points="146.4,31.5 146.4,176.6 134.4,182.6 134.4,31.5 " />
<polygon points="27,31 100,31 100,35 27,35 " />
<polygon points="100,31 76,33 88,21 " />
<polygon points="22.8,105 29.9,102.7 37.2,100.3 44.9,97.9 52.8,95.4 61,92.9 69.5,90.3 78.3,87.7 87.4,85 96.9,82.5 106.6,80.1 107.3,81.8 98.1,86.1 89.2,90.1 80.5,93.9 72.1,97.4 63.9,100.9 56,104.2 48.3,107.3 40.9,110.4 33.8,113.4 27,116.2 " />
<polygon points="27,116.2 22.8,105 20.9,105.7 " />
<polygon points="27,116.2 29.9,118.3 31.6,111.3 " />
<polygon points="74,31 74,112 62,112 62,31 " />
<polygon points="74,112 71.6,115.6 68,118 64.4,115.6 62,112 " />
<polygon points="74,112 73.1,120.9 71.3,129.4 68.5,137.6 64.7,145.4 60,152.8 54.3,159.7 47.7,166.2 40.2,172.2 31.8,177.8 22.4,182.7 21.5,181.2 29.6,174.7 36.8,168.1 43.1,161.6 48.5,154.9 52.9,148.1 56.4,141.2 59.1,134.2 60.9,127 61.8,119.6 62,112 " />
</g>
</svg>
