<svg xmlns="http://www.w3.org/2000/svg" xmlns:xlink="http://www.w3.org/1999/xlink" version="1.1" baseProfile="full" viewBox="0 0 200 200" width="200" height="200">
<g fill="black">
<polygon points="86.2,19.3 83.1,22.9 79.8,26.4 76.5,29.8 73,33.1 69.3,36.3 65.5,39.5 61.5,42.5 57.4,45.4 53.1,48.1 48.5,50.7 47.4,49.2 50.7,45.3 54,41.5 57.2,37.8 60.3,34.1 63.3,30.5 66.2,26.8 69,23.2 71.6,19.5 74.1,15.9 76.5,12.2 " />
<polygon points="76.5,12.2 86.2,19.3 77,11.6 " />
<polygon points="86.2,19.3 87.4,22.7 80.2,22.4 " />
<polygon points="27,51 99,51 99,55 27,55 " />
<polygon points="99,51 75,53 87,41 " />
<polygon points="21.2,116.9 29.2,114.9 37.1,112.9 44.8,110.9 52.5,109 59.9,107.1 67.3,105.2 74.5,103.5 81.6,101.8 88.7,100.4 95.7,99.1 96.2,100.8 89.9,104 83.3,106.9 76.5,109.7 69.6,112.5 62.5,115.2 55.2,117.9 47.8,120.5 40.2,123.2 32.5,125.8 24.6,128.4 " />
<polygon points="24.6,128.4 21.2,116.9 19.3,117.5 " />
<polygon points="24.6,128.4 27.4,130.7 29.5,123.9 " />
<polygon points="71,51 71,121 59,121 59,51 " />
<polygon points="71,121 68.6,124.6 65,127 61.4,124.6 59,121 " />
<polygon points="70.9,121.1 70,130.4 68.2,139.2 65.6,147.5 62.1,155.4 57.8,162.6 52.7,169.3 46.8,175.4 40.1,180.9 32.6,185.7 24.4,189.7 23.5,188.2 30.5,182.6 36.7,176.8 42.1,170.9 46.7,164.7 50.6,158.3 53.7,151.5 56.1,144.4 57.7,136.9 58.7,129.1 59,120.8 " />
<polygon points="159.2,20.3 156.3,23.6 153.3,26.9 150.1,30 146.9,33.1 143.5,36 140,38.8 136.3,41.5 132.5,44.1 128.6,46.4 124.5,48.7 123.4,47.2 126.4,43.8 129.3,40.4 132.2,37 134.9,33.6 137.6,30.3 140.2,26.9 142.7,23.6 145.1,20.2 147.3,16.7 149.5,13.2 " />
<polygon points="149.5,13.2 159.2,20.3 150,12.6 " />
<polygon points="159.2,20.3 160.5,23.7 153.3,23.4 " />
<polygon points="106,50 176,50 176,54 106,54 " />
<polygon points="176,50 152,52 164,40 " />
<polygon points="101,108 183,108 183,112 101,112 " />
<polygon points="183,108 159,110 171,98 " />
<polygon points="145,50 145,182 133,188 133,50 " />
</g>
</svg>
