<svg xmlns="http://www.w3.org/2000/svg" xmlns:xlink="http://www.w3.org/1999/xlink" version="1.1" baseProfile="full" viewBox="0 0 200 200" width="200" height="200">
<g fill="black">
<polygon points="30,59 171,59 171,63 30,63 " />
<polygon points="171,59 147,61 159,49 " />
<polygon points="21,110 182,110 182,114 21,114 " />
<polygon points="182,110 158,112 170,100 " />
<polygon points="79,60 79,123 67,123 67,60 " />
<polygon points="79,123 76.6,126.6 73,129 69.4,126.6 67,123 " />
<polygon points="78.9,123.1 77.8,133.1 75.5,142.5 71.9,151.2 67.1,159.2 61.2,166.5 54.1,173 46,178.6 36.8,183.5 26.5,187.6 15.2,190.8 14.7,189.1 25,184.1 34.2,178.8 42.2,173.2 49.1,167.3 54.7,160.9 59.3,154.2 62.7,147.1 65.2,139.5 66.6,131.4 67,122.8 " />
<polygon points="131,59 131,184 119,190 119,59 " />
<polygon points="43.3,18.7 48,20.6 52.5,22.8 56.7,25.3 60.5,28.1 64,31.2 67.3,34.5 70.2,38.1 72.7,42 74.9,46 76.8,50.3 65.3,53.8 64.4,50.2 63.2,46.7 61.8,43.3 60,39.9 57.9,36.5 55.4,33.2 52.7,30 49.6,26.7 46.2,23.4 42.4,20.2 " />
<polygon points="76.8,50.3 76.3,54.9 72.8,57.8 68.3,57.3 65.3,53.8 " />
<polygon points="151.3,23.2 148.2,27 145,30.8 141.7,34.6 138.2,38.4 134.6,42.3 130.8,46.2 126.9,50.1 122.7,54 118.3,57.8 113.6,61.6 112.3,60.3 115.5,55.3 118.7,50.5 121.9,45.9 125,41.4 128,37 130.9,32.7 133.7,28.5 136.4,24.3 139,20.3 141.5,16.3 " />
<polygon points="141.5,16.3 151.3,23.2 141.9,15.6 " />
<polygon points="151.3,23.2 152.6,26.6 145.4,26.4 " />
</g>
</svg>
