<svg xmlns="http://www.w3.org/2000/svg" xmlns:xlink="http://www.w3.org/1999/xlink" version="1.1" baseProfile="full" viewBox="0 0 200 200" width="200" height="200">
<g fill="black">
<polygon points="109,14 109,40 97,40 97,12 " />
<polygon points="109,14 112,16 107,19 " />
<polygon points="35,36 185,36 185,40 35,40 " />
<polygon points="185,36 161,38 173,26 " />
<polygon points="41,36 41,96 29,96 29,30 " />
<polygon points="41,96 38.6,99.6 35,102 31.4,99.6 29,96 " />
<polygon points="41,96 40.4,108.9 39.5,121.1 38,132.4 36.2,142.8 33.8,152.4 31,161.1 27.7,169 23.9,175.9 19.5,181.8 14.6,186.5 13.3,185.4 16.4,179.7 19.1,173.4 21.6,166.5 23.8,158.9 25.6,150.5 27,141.2 28.1,131.2 28.8,120.3 29.1,108.5 29,96 " />
<polygon points="155,59.6 146.7,61.7 138.3,63.7 129.9,65.5 121.3,67.2 112.7,68.6 104,69.8 95.2,70.8 86.2,71.6 77.2,72 68.1,72 67.9,70.3 76.8,68.2 85.5,66.3 94.1,64.3 102.6,62.3 111,60.3 119.3,58.1 127.5,55.8 135.6,53.4 143.5,50.8 151.4,48.1 " />
<polygon points="150.4,48.4 155,59.6 161.3,57.6 " />
<polygon points="161.3,57.6 161.5,60.7 154.7,57.6 " />
<polygon points="74,69.2 74,158.8 62,158.8 62,63.2 " />
<polygon points="47.2,156.3 53.5,155.1 60,153.8 66.7,152.4 73.6,150.9 80.8,149.2 88.2,147.5 95.8,145.6 103.7,143.7 111.8,141.8 120.2,139.9 120.8,141.6 113,145.4 105.4,148.8 97.8,151.9 90.4,154.7 83.2,157.4 76.2,159.8 69.3,162.1 62.6,164.2 56.1,166.2 49.8,168 " />
<polygon points="49.8,168 47.2,156.3 45.2,156.7 " />
<polygon points="49.8,168 52.4,170.5 55,163.7 " />
<polygon points="68,105.2 182,105.2 182,109.2 68,109.2 " />
<polygon points="182,105.2 158,107.2 170,95.2 " />
<polygon points="124.1,62.4 124.5,78.8 126,93.8 128.4,107.3 131.9,119.4 136.5,130 142.2,139.2 149.1,147.1 157.3,153.8 166.9,159.4 178.1,163.8 174.4,175.3 161.7,170.2 150.4,163.7 140.7,155.7 132.5,146.3 125.8,135.5 120.6,123.4 116.7,110 114.1,95.4 112.5,79.5 112.1,62.4 " />
<polygon points="178.1,163.8 181.5,166.8 182,171.4 179,174.8 174.4,175.3 " />
<polygon points="176.3,164.6 178.3,138.6 176.3,138.6 170.3,164.6 " />
<polygon points="53.3,175.6 150,175.6 150,179.6 53.3,179.6 " />
<polygon points="150,175.6 126,177.6 138,165.6 " />
</g>
</svg>
