<svg xmlns="http://www.w3.org/2000/svg" xmlns:xlink="http://www.w3.org/1999/xlink" version="1.1" baseProfile="full" viewBox="0 0 200 200" width="200" height="200">
<g fill="black">
<polygon points="108,15 108,47 96,47 96,13 " />
<polygon points="108,15 111,17 106,20 " />
<polygon points="37,43 184,43 184,47 37,47 " />
<polygon points="184,43 160,45 172,33 " />
<polygon points="43,43 43,102 31,102 31,37 " />
<polygon points="43,102 40.6,105.6 37,108 33.4,105.6 31,102 " />
<polygon points="43,102 42.4,113.5 41.2,124.5 39.5,135 37.2,144.8 34.3,154 30.8,162.5 26.7,170.4 21.9,177.6 16.6,184 10.6,189.6 9.3,188.3 13.6,181.7 17.4,174.8 20.8,167.5 23.7,159.7 26.1,151.4 28.1,142.7 29.6,133.3 30.5,123.4 31,113 31,102 " />
<polygon points="50,86 175,86 175,90 50,90 " />
<polygon points="175,86 151,88 163,76 " />
<polygon points="89,59 89,136 77,136 77,57 " />
<polygon points="89,59 92,61 87,64 " />
<polygon points="47,132 180,132 180,136 47,136 " />
<polygon points="180,132 156,134 168,122 " />
<polygon points="140,59 140,136 128,136 128,57 " />
<polygon points="140,59 143,61 138,64 " />
<polygon points="63.1,149.8 63.3,154.6 63.5,159.2 63.3,163.6 62.7,167.7 61.7,171.6 60.3,175.2 58.5,178.6 56.3,181.8 53.6,184.6 50.5,187 44.7,176.5 46.9,175.5 49,174.3 50.9,172.7 52.8,170.7 54.6,168.3 56.2,165.5 57.8,162.2 59.2,158.5 60.5,154.3 61.3,149.7 " />
<polygon points="50.5,187 46,187.4 42.4,184.6 41.9,180.1 44.7,176.5 " />
<polygon points="84.9,150.6 87.3,153 89.7,155.4 91.9,157.9 93.9,160.6 95.5,163.4 96.9,166.3 98,169.3 98.9,172.5 99.4,175.8 99.6,179.1 87.7,178 88.2,175.7 88.6,173.3 88.7,170.9 88.7,168.4 88.4,165.8 87.9,163.2 87.2,160.4 86.3,157.6 85.2,154.6 83.5,151.7 " />
<polygon points="99.6,179.1 97.4,183.1 93.1,184.5 89.1,182.3 87.7,178 " />
<polygon points="116,150.4 119.2,152.8 122.4,155 125.3,157.4 127.9,159.9 130.2,162.6 132.3,165.4 134,168.4 135.5,171.5 136.7,174.7 137.6,178 125.7,179.1 125.7,176.8 125.6,174.3 125.2,171.8 124.5,169.2 123.6,166.5 122.4,163.7 121,160.8 119.3,157.8 117.3,154.7 114.8,151.7 " />
<polygon points="137.6,178 136.2,182.3 132.2,184.5 127.8,183.1 125.7,179.1 " />
<polygon points="148.8,149.5 152.9,152 156.8,154.5 160.4,157.2 163.7,159.9 166.6,162.8 169.3,165.8 171.7,168.8 173.8,172 175.6,175.3 177.1,178.7 165.5,181.9 165,179.2 164.3,176.5 163.3,173.6 162,170.7 160.3,167.6 158.4,164.5 156.2,161.2 153.7,157.9 150.9,154.3 147.7,150.9 " />
<polygon points="177.1,178.7 176.5,183.2 172.9,186.1 168.4,185.5 165.5,181.9 " />
</g>
</svg>
