<svg xmlns="http://www.w3.org/2000/svg" xmlns:xlink="http://www.w3.org/1999/xlink" version="1.1" baseProfile="full" viewBox="0 0 200 200" width="200" height="200">
<g fill="black">
<polygon points="111.4,13.6 111.4,38 99.4,38 99.4,11.6 " />
<polygon points="111.4,13.6 114.4,15.6 109.4,18.6 " />
<polygon points="35.4,34 187.1,34 187.1,38 35.4,38 " />
<polygon points="187.1,34 163.1,36 175.1,24 " />
<polygon points="41.4,34 41.4,93.6 29.4,93.6 29.4,28 " />
<polygon points="41.4,93.6 39,97.1 35.4,99.6 31.8,97.1 29.4,93.6 " />
<polygon points="41.4,93.6 40.9,106.4 39.9,118.4 38.5,129.6 36.5,139.9 34.1,149.4 31.2,158 27.8,165.7 23.9,172.5 19.4,178.3 14.4,182.9 13.1,181.7 16.3,176.1 19.2,170 21.8,163.2 24,155.7 25.9,147.4 27.4,138.3 28.5,128.4 29.2,117.6 29.5,106 29.4,93.6 " />
<polygon points="142.2,113.1 141.5,125.7 139.5,137.3 136.2,147.8 131.6,157.2 125.8,165.5 118.7,172.6 110.5,178.4 101.2,182.9 90.9,186.1 79.5,187.9 79.2,186.2 89.7,182.5 98.9,178 106.9,172.9 113.6,167 119,160.3 123.4,152.8 126.7,144.4 129,135.1 130.1,124.7 130.2,113.3 " />
<polygon points="130.3,114.3 142.2,113.1 130.2,110.9 " />
<polygon points="142.2,113.1 145.3,115.1 140.3,118.2 " />
<polygon points="140.4,121.4 142.3,128.3 144.4,134.8 147,141 149.9,146.8 153.3,152.3 157.2,157.6 161.6,162.5 166.5,167.3 172,171.8 178,176 170.3,186.7 163.9,181.3 158.2,175.7 153.2,169.7 148.9,163.5 145.2,157 142.3,150.3 140.1,143.4 138.7,136.2 138.2,128.9 138.6,121.5 " />
<polygon points="170.3,186.7 178,176 181.2,178.4 " />
<polygon points="86.2,113.5 85.7,124.6 84.4,135 82.2,144.6 79.1,153.4 75,161.4 70,168.6 64.2,174.8 57.5,180.1 50,184.3 41.8,187.4 41.1,185.8 48.1,181 54.2,175.9 59.5,170.3 63.9,164.2 67.5,157.5 70.4,150.1 72.5,142.1 73.8,133.4 74.4,124 74.2,113.8 " />
<polygon points="74.2,114.8 86.2,113.5 74.1,111.5 " />
<polygon points="86.2,113.5 89.2,115.4 84.3,118.5 " />
<polygon points="78.3,143.2 82.1,144.7 85.8,146 89.3,147.5 92.6,149.2 95.8,150.9 98.7,152.7 101.5,154.7 104,156.7 106.4,158.9 108.6,161.1 98.8,168 97.7,165.9 96.3,163.7 94.8,161.5 93,159.2 91,156.9 88.7,154.6 86.2,152.2 83.6,149.7 80.7,147.1 77.4,144.8 " />
<polygon points="108.6,161.1 109.5,165.6 107.1,169.5 102.7,170.4 98.8,168 " />
<polygon points="50,64 175,64 175,68 50,68 " />
<polygon points="175,64 151,66 163,54 " />
<polygon points="89,45 89,105 77,105 77,43 " />
<polygon points="89,45 92,47 87,50 " />
<polygon points="47,101 180,101 180,105 47,105 " />
<polygon points="180,101 156,103 168,91 " />
<polygon points="140,45 140,105 128,105 128,43 " />
<polygon points="140,45 143,47 138,50 " />
</g>
</svg>
