<svg xmlns="http://www.w3.org/2000/svg" xmlns:xlink="http://www.w3.org/1999/xlink" version="1.1" baseProfile="full" viewBox="0 0 200 200" width="200" height="200">
<g fill="black">
<polygon points="106,14 106,39 94,39 94,12 " />
<polygon points="106,14 109,16 106,18 " />
<polygon points="32,35 183,35 183,39 32,39 " />
<polygon points="183,35 159,37 171,25 " />
<polygon points="38,35 38,115 26,115 26,29 " />
<polygon points="38,115 35.6,118.6 32,121 28.4,118.6 26,115 " />
<polygon points="38,115 37.4,125.6 36.5,135.6 35.1,144.8 33.3,153.3 31,161.1 28.3,168.1 25.1,174.3 21.4,179.7 17.2,184.2 12.6,187.6 11.3,186.3 14.3,181.8 16.9,176.9 19.2,171.5 21.2,165.5 22.9,158.8 24.2,151.5 25.2,143.4 25.8,134.7 26.1,125.2 26,115 " />
<polygon points="32,60 161,60 161,64 32,64 " />
<polygon points="167,62 167,94 155,100 155,62 " />
<polygon points="155,60 161,55 172,64 167,68 155,62 " />
<polygon points="81,46 81,92 69,92 69,44 " />
<polygon points="81,46 84,48 81,50 " />
<polygon points="124,46 124,92 112,92 112,44 " />
<polygon points="124,46 127,48 124,50 " />
<polygon points="32,88 161,88 161,92 32,92 " />
<polygon points="70,110 187,110 187,114 70,114 " />
<polygon points="187,110 163,112 175,100 " />
<polygon points="82.3,89.5 70.3,136.4 57.2,139.2 70.6,86.5 " />
<polygon points="65,131 172,131 172,135 65,135 " />
<polygon points="177.9,133.1 177.7,139.1 177.3,144.7 176.9,149.9 176.3,154.8 175.6,159.3 174.7,163.5 173.8,167.3 172.7,170.9 171.5,174.1 170,177.1 159.5,171.3 160.4,169.4 161.4,167 162.2,164.2 163,160.9 163.7,157.2 164.4,153.1 164.9,148.6 165.4,143.7 165.7,138.4 166,132.8 " />
<polygon points="166,131 172,126 183,135 178,139 172,139 " />
<polygon points="170,177.1 166.4,179.9 161.9,179.4 159.1,175.8 159.5,171.3 " />
<polygon points="170,177.1 168.7,179.2 167.2,181.2 165.6,183 163.7,184.6 161.7,185.9 159.5,187 157.3,187.9 154.9,188.5 152.5,188.8 150,189 150,177 151.3,176.9 152.6,176.7 153.7,176.4 154.7,176.1 155.6,175.6 156.4,175 157.3,174.3 158,173.5 158.8,172.5 159.5,171.3 " />
<polygon points="150,183 150,177 130,177 130,180 " />
<polygon points="54.9,144 55.4,149.2 55.8,154.3 55.8,159 55.5,163.5 54.8,167.7 53.8,171.7 52.5,175.4 50.7,178.8 48.6,182 46,184.8 38.6,175.4 40.5,174.2 42.3,172.6 44,170.6 45.7,168.2 47.3,165.3 48.7,161.9 50,158.1 51.2,153.8 52.3,149.1 53.1,144 " />
<polygon points="46,184.8 41.6,186 37.6,183.8 36.4,179.4 38.6,175.4 " />
<polygon points="71.3,144.2 73.8,146.8 76.4,149.3 78.7,151.9 80.7,154.7 82.5,157.6 84,160.5 85.2,163.6 86.1,166.8 86.8,170 87.1,173.3 75.1,172.6 75.6,170.3 75.8,167.9 75.9,165.5 75.7,162.9 75.3,160.2 74.7,157.4 73.9,154.5 72.9,151.5 71.7,148.3 69.9,145.3 " />
<polygon points="87.1,173.3 85.1,177.4 80.8,178.9 76.7,176.9 75.1,172.6 " />
<polygon points="96.3,143.8 99.1,145.5 102,147 104.7,148.8 107.2,150.8 109.6,152.9 111.7,155.3 113.6,157.9 115.3,160.7 116.8,163.6 118.1,166.7 106.4,169.4 106.2,166.9 105.7,164.5 105.2,162.1 104.4,159.7 103.4,157.3 102.2,154.9 100.8,152.4 99.3,150 97.5,147.5 95.2,145.3 " />
<polygon points="118.1,166.7 117.3,171.2 113.6,173.9 109.1,173.1 106.4,169.4 " />
<polygon points="124.3,141.6 126.8,142.8 129.6,143.7 132.2,144.8 134.7,146.2 137,147.8 139.3,149.6 141.5,151.6 143.5,153.8 145.4,156.2 147.1,158.7 136.2,163.8 135.6,161.5 134.8,159.3 133.9,157.1 132.8,155 131.7,152.9 130.3,150.9 128.9,148.9 127.3,146.9 125.5,144.8 123.4,143.2 " />
<polygon points="147.1,158.7 147.3,163.3 144.2,166.7 139.7,166.8 136.2,163.8 " />
</g>
</svg>
