<svg xmlns="http://www.w3.org/2000/svg" xmlns:xlink="http://www.w3.org/1999/xlink" version="1.1" baseProfile="full" viewBox="0 0 200 200" width="200" height="200">
<g fill="black">
<polygon points="43,37 43,116 31,116 31,31 " />
<polygon points="43,116 40.6,119.6 37,122 33.4,119.6 31,116 " />
<polygon points="43,116 42.4,125.1 41.4,133.8 39.8,142.1 37.8,150 35.2,157.5 32.2,164.6 28.6,171.1 24.5,177.2 19.8,182.7 14.6,187.5 13.3,186.4 16.8,180.4 19.9,174.4 22.7,168.2 25.2,161.7 27.2,154.9 28.8,147.8 29.9,140.4 30.7,132.6 31,124.5 31,116 " />
<polygon points="37,37 178,37 178,41 37,41 " />
<polygon points="178,37 154,39 166,27 " />
<polygon points="108,15 108,41 96,41 96,13 " />
<polygon points="108,15 111,17 108,19 " />
<polygon points="59,84 153,84 153,88 59,88 " />
<polygon points="159,86 159,135 147,141 147,86 " />
<polygon points="147,84 153,79 164,88 159,92 147,86 " />
<polygon points="59,125 153,125 153,129 59,129 " />
<polygon points="45,105 187,105 187,109 45,109 " />
<polygon points="187,105 163,107 175,95 " />
<polygon points="99,67 99,182 87,188 87,67 " />
<polygon points="128,67 128,182 116,188 116,67 " />
<polygon points="51,67 171,67 171,71 51,71 " />
<polygon points="171,67 147,69 159,57 " />
<polygon points="97.9,127 96.3,129.7 92.2,136.4 87.6,142.7 82.6,148.6 77.2,154.2 71.3,159.3 65,164.1 58.2,168.5 51.1,172.4 43.4,175.9 35.3,178.8 34.6,177.1 41.6,172.5 48.3,167.9 54.5,163.1 60.3,158.2 65.6,153.1 70.5,147.7 74.9,142.2 78.9,136.4 82.5,130.4 84.2,127 " />
<polygon points="127.2,127.4 131.4,132.4 135.5,137.2 139.6,141.6 143.8,145.8 148.1,149.6 152.5,153.1 157.1,156.3 161.8,159.2 166.7,161.7 171.8,164 166.1,175.9 160.6,172.6 155.4,169 150.4,165.1 145.8,160.8 141.5,156.2 137.6,151.3 133.9,146.1 130.7,140.5 127.9,134.6 125.6,128.3 " />
<polygon points="166.1,175.9 171.8,164 177.4,166.7 " />
<polygon points="72.2,42.4 74.9,43.2 77.7,43.8 80.4,44.7 82.9,46 85.4,47.5 87.6,49.3 89.7,51.4 91.6,53.8 93.3,56.4 94.8,59.3 83.3,62.9 83,60.6 82.5,58.5 81.9,56.5 81,54.5 80.1,52.6 78.9,50.8 77.5,49 75.8,47.2 73.9,45.4 71.6,44.1 " />
<polygon points="94.8,59.3 94.3,63.8 90.8,66.8 86.3,66.3 83.3,62.9 " />
<polygon points="143.9,47.5 142.3,49.7 140.5,52 138.7,54.2 136.8,56.4 134.7,58.6 132.5,60.8 130.2,62.9 127.7,65.1 125.1,67.2 122.6,69.5 121.3,68.4 123.1,65.6 124.5,62.6 125.9,59.7 127.2,56.9 128.5,54.3 129.6,51.7 130.7,49.2 131.6,46.8 132.4,44.4 133.1,42.2 " />
<polygon points="133.1,42.2 143.9,47.5 133.7,41.1 " />
<polygon points="143.9,47.5 145.7,50.7 138.5,51.6 " />
</g>
</svg>
