<svg xmlns="http://www.w3.org/2000/svg" xmlns:xlink="http://www.w3.org/1999/xlink" version="1.1" baseProfile="full" viewBox="0 0 200 200" width="200" height="200">
<g fill="black">
<polygon points="40,36 40,113 28,113 28,30 " />
<polygon points="40,113 37.6,116.6 34,119 30.4,116.6 28,113 " />
<polygon points="40,113 39.4,123.7 38.4,133.9 36.9,143.5 35,152.5 32.5,160.8 29.6,168.6 26.2,175.7 22.2,182.1 17.7,187.8 12.6,192.5 11.3,191.4 14.6,185.6 17.5,179.5 20.2,173 22.5,166 24.4,158.6 25.9,150.6 27,142 27.7,132.9 28,123.2 28,113 " />
<polygon points="34,36 180,36 180,40 34,40 " />
<polygon points="180,36 156,38 168,26 " />
<polygon points="106,17 106,40 94,40 94,15 " />
<polygon points="106,17 109,19 106,21 " />
<polygon points="114,44 114,63 102,63 102,42 " />
<polygon points="114,44 117,46 114,48 " />
<polygon points="48,59 177,59 177,63 48,63 " />
<polygon points="177,59 153,61 165,49 " />
<polygon points="67,72 67,121 55,127 55,66 " />
<polygon points="61,72 158,72 158,76 61,76 " />
<polygon points="164,74 164,120 152,126 152,74 " />
<polygon points="152,72 158,67 169,76 164,80 152,74 " />
<polygon points="61,110 158,110 158,114 61,114 " />
<polygon points="91,84 91,102 79,108 79,78 " />
<polygon points="85,84 133,84 133,88 85,88 " />
<polygon points="139,86 139,102 127,108 127,86 " />
<polygon points="127,84 133,79 144,88 139,92 127,86 " />
<polygon points="85,98 133,98 133,102 85,102 " />
<polygon points="44,147 173,147 173,151 44,151 " />
<polygon points="173,147 149,149 161,137 " />
<polygon points="113,134 113,185 101,191 101,132 " />
<polygon points="113,134 116,136 113,138 " />
<polygon points="113.2,149 108.1,153.3 102.2,158.2 96,162.7 89.4,167 82.5,170.9 75.2,174.5 67.5,177.7 59.5,180.6 51.1,183.2 42.3,185.2 33.2,186.8 32.7,185.1 41.2,181.6 49.3,178.1 57,174.5 64.3,170.8 71.2,166.9 77.8,162.9 83.9,158.6 89.6,154.1 94.9,149.5 95.4,149 " />
<polygon points="112.3,149 117.2,151.6 122.2,154.2 127.4,156.9 132.9,159.5 138.7,161.9 144.8,164.3 151.3,166.6 158.1,168.7 165.2,170.7 172.7,172.6 169.2,185.3 161.5,182.6 154.1,179.8 147.2,176.8 140.7,173.7 134.6,170.3 128.9,166.8 123.6,163 118.8,159.1 114.6,154.8 111.1,150.3 " />
<polygon points="169.2,185.3 172.7,172.6 180.8,174.9 " />
<polygon points="146.3,129 136.9,130.8 127.4,132.6 117.8,134.1 108,135.6 98.2,136.9 88.2,138.1 78.1,139.2 67.9,140 57.5,140.6 47.1,140.8 46.8,139.1 57.1,136.8 67.1,134.7 77.1,132.7 87,130.6 96.7,128.6 106.4,126.5 115.9,124.3 125.2,122 134.5,119.7 143.6,117.3 " />
<polygon points="143.6,117.3 146.3,129 154.2,127.2 " />
<polygon points="154.2,127.2 154.6,130.2 146.1,126 " />
</g>
</svg>
