<svg xmlns="http://www.w3.org/2000/svg" xmlns:xlink="http://www.w3.org/1999/xlink" version="1.1" baseProfile="full" viewBox="0 0 200 200" width="200" height="200">
<g fill="black">
<polygon points="111.4,13.6 111.4,38 99.4,38 99.4,11.6 " />
<polygon points="111.4,13.6 114.4,15.6 111.4,17.6 " />
<polygon points="35.4,34 187.1,34 187.1,38 35.4,38 " />
<polygon points="187.1,34 163.1,36 175.1,24 " />
<polygon points="41.4,34 41.4,93.6 29.4,93.6 29.4,28 " />
<polygon points="41.4,93.6 39,97.1 35.4,99.6 31.8,97.1 29.4,93.6 " />
<polygon points="41.4,93.6 40.9,106.4 39.9,118.4 38.5,129.6 36.5,139.9 34.1,149.4 31.2,158 27.8,165.7 23.9,172.5 19.4,178.3 14.4,182.9 13.1,181.7 16.3,176.1 19.2,170 21.8,163.2 24,155.7 25.9,147.4 27.4,138.3 28.5,128.4 29.2,117.6 29.5,106 29.4,93.6 " />
<polygon points="118.6,41.4 118.6,62.5 106.6,62.5 106.6,39.4 " />
<polygon points="118.6,41.4 121.6,43.4 118.6,45.4 " />
<polygon points="49.1,58.5 179.5,58.5 179.5,62.5 49.1,62.5 " />
<polygon points="179.5,58.5 155.5,60.5 167.5,48.5 " />
<polygon points="79,70.6 79,114.9 68,120.4 68,65.1 " />
<polygon points="73.5,70.6 153.4,70.6 153.4,74.6 73.5,74.6 " />
<polygon points="158.9,72.6 158.9,114.9 147.9,120.4 147.9,72.6 " />
<polygon points="147.9,70.6 153.4,65.6 163.9,74.6 158.9,78.1 147.9,72.6 " />
<polygon points="73.5,110.9 153.4,110.9 153.4,114.9 73.5,114.9 " />
<polygon points="99.4,82.7 99.4,102.8 88.4,108.3 88.4,77.2 " />
<polygon points="93.9,82.7 133,82.7 133,86.7 93.9,86.7 " />
<polygon points="138.5,84.7 138.5,102.8 127.5,108.3 127.5,84.7 " />
<polygon points="127.5,82.7 133,77.7 143.5,86.7 138.5,90.2 127.5,84.7 " />
<polygon points="93.9,98.8 133,98.8 133,102.8 93.9,102.8 " />
<polygon points="76,127.8 152.6,127.8 152.6,131.8 76,131.8 " />
<polygon points="152.6,127.8 128.6,129.8 140.6,117.8 " />
<polygon points="54.8,143.1 176.2,143.1 176.2,147.1 54.8,147.1 " />
<polygon points="176.2,143.1 152.2,145.1 164.2,133.1 " />
<polygon points="121.9,143.1 121.9,167.3 109.9,167.3 109.9,143.1 " />
<polygon points="121.9,167.3 119.5,170.9 115.9,173.3 112.3,170.9 109.9,167.3 " />
<polygon points="121.9,167.3 121.8,169.8 121.3,172.3 120.5,174.7 119.3,177 117.6,179 115.6,180.7 113.4,181.9 111,182.7 108.5,183.1 105.9,183.3 105.9,171.3 107.1,171.2 108,171 108.6,170.9 109,170.7 109.2,170.5 109.3,170.3 109.5,170 109.7,169.4 109.8,168.5 109.9,167.3 " />
<polygon points="105.9,177.3 105.9,171.3 85.9,171.3 85.9,174.3 " />
<polygon points="90.1,159.7 87.1,162.1 83.8,164.4 80.4,166.7 76.7,169 72.8,171.2 68.7,173.4 64.3,175.5 59.6,177.5 54.7,179.4 49.5,181.3 48.6,179.7 53,176.4 57.1,173.2 61,170.2 64.7,167.2 68.2,164.4 71.4,161.6 74.3,158.9 77,156.2 79.5,153.7 81.6,151.2 " />
<polygon points="81.6,151.2 90.1,159.7 81.9,150.9 " />
<polygon points="90.1,159.7 90.7,163.2 83.7,161.8 " />
<polygon points="140,153.4 144.2,154.3 148.3,155.2 152.3,156.4 156,157.9 159.7,159.6 163.1,161.5 166.4,163.6 169.5,166 172.4,168.5 175.1,171.2 165.5,178.5 163.9,175.9 162.1,173.4 160,170.9 157.7,168.5 155.2,166.1 152.5,163.8 149.6,161.6 146.4,159.3 143.1,157.1 139.4,155.1 " />
<polygon points="175.1,171.2 176.2,175.7 173.9,179.7 169.5,180.8 165.5,178.5 " />
</g>
</svg>
