<svg xmlns="http://www.w3.org/2000/svg" xmlns:xlink="http://www.w3.org/1999/xlink" version="1.1" baseProfile="full" viewBox="0 0 200 200" width="200" height="200">
<g fill="black">
<polygon points="79,95 79,122 67,122 67,93 " />
<polygon points="79,95 82,97 79,99 " />
<polygon points="79,122 76.6,125.6 73,128 69.4,125.6 67,122 " />
<polygon points="78.9,122.4 77.4,133 75.2,142.8 72.2,151.8 68.5,159.9 64,167.2 58.8,173.6 52.9,179 46.3,183.4 39,186.7 31.2,188.8 30.7,187.1 37.4,183.2 43.3,178.9 48.5,174.1 53,168.7 56.9,162.7 60.1,156 62.7,148.5 64.8,140.3 66.2,131.3 67,121.5 " />
<polygon points="136,94 136,181 124,187 124,92 " />
<polygon points="136,94 139,96 136,98 " />
<polygon points="16,131 185,131 185,135 16,135 " />
<polygon points="185,131 161,133 173,121 " />
</g>
</svg>
