<svg xmlns="http://www.w3.org/2000/svg" xmlns:xlink="http://www.w3.org/1999/xlink" version="1.1" baseProfile="full" viewBox="0 0 200 200" width="200" height="200">
<g fill="black">
<polygon points="22,28 178,28 178,32 22,32 " />
<polygon points="178,28 154,30 166,18 " />
<polygon points="14,92 186,92 186,96 14,96 " />
<polygon points="186,92 162,94 174,82 " />
<polygon points="79,28 79,90 67,90 67,28 " />
<polygon points="79,90 76.6,93.6 73,96 69.4,93.6 67,90 " />
<polygon points="79,90 78,105.1 75.9,119.1 72.5,132 67.9,143.8 62.1,154.4 55,163.7 46.8,171.8 37.4,178.6 26.8,183.9 15.3,187.8 14.6,186.1 25.1,180.5 34.3,174.1 42.3,167 49.1,159 54.8,150 59.4,140.1 62.9,129.2 65.3,117.2 66.7,104.1 67,90 " />
<polygon points="139,28 139,182 127,188 127,28 " />
</g>
</svg>
