<svg xmlns="http://www.w3.org/2000/svg" xmlns:xlink="http://www.w3.org/1999/xlink" version="1.1" baseProfile="full" viewBox="0 0 200 200" width="200" height="200">
<g fill="black">
<polygon points="77.8,20.8 60.9,140.6 48.2,144.9 66.1,17.1 " />
<polygon points="77.8,20.8 80.4,23.2 77.2,24.7 " />
<polygon points="65,59 142,59 142,63 65,63 " />
<polygon points="147.9,61.6 135.7,181.5 123.8,180.3 136,60.3 " />
<polygon points="136,59 142,54 153,63 148,67 136,61 " />
<polygon points="57,124 134,124 134,128 57,128 " />
<polygon points="18,177 185,177 185,181 18,181 " />
<polygon points="185,177 161,179 173,167 " />
</g>
</svg>
