<svg xmlns="http://www.w3.org/2000/svg" xmlns:xlink="http://www.w3.org/1999/xlink" version="1.1" baseProfile="full" viewBox="0 0 200 200" width="200" height="200">
<g fill="black">
<polygon points="59.3,22.2 55.7,26.6 51.9,31 48,35.3 43.8,39.5 39.5,43.8 34.9,48 30.2,52.1 25.2,56.1 19.9,59.9 14.3,63.6 13.1,62.3 17.3,57.1 21.5,52.2 25.5,47.4 29.5,42.7 33.2,38 36.8,33.4 40.3,28.8 43.5,24.3 46.6,19.8 49.5,15.3 " />
<polygon points="48.9,16.1 59.3,22.2 50,14.6 " />
<polygon points="59.3,22.2 60.6,25.6 54.8,25.2 " />
<polygon points="63,53.5 58.9,61 54.5,68.5 49.8,75.8 44.9,82.9 39.7,89.9 34.3,96.6 28.5,103.2 22.5,109.6 16.1,115.8 9.4,121.6 8,120.3 13.3,113.2 18.4,106.2 23.4,99.2 28.2,92.1 32.8,85 37.1,77.8 41.3,70.6 45.1,63.2 48.8,55.8 52.2,48.3 " />
<polygon points="51.8,49.2 63,53.5 52.8,47.1 " />
<polygon points="63,53.5 64.9,56.6 59.1,57.1 " />
<polygon points="45.3,90 45.3,184 33.3,190 33.3,88 " />
<polygon points="45.3,90 48.3,92 43.3,95 " />
<polygon points="101,15.5 101,67.5 89,67.5 89,13.5 " />
<polygon points="101,15.5 104,17.5 99,20.5 " />
<polygon points="74.9,29.4 74.9,70.5 62.9,76.5 62.9,27.4 " />
<polygon points="74.9,29.4 77.9,31.4 72.9,34.4 " />
<polygon points="68.9,63.5 121,63.5 121,67.5 68.9,67.5 " />
<polygon points="127,29.4 127,67.5 115,73.5 115,27.4 " />
<polygon points="127,29.4 130,31.4 125,34.4 " />
<polygon points="61,84 127,84 127,88 61,88 " />
<polygon points="127,84 103,86 115,74 " />
<polygon points="121.6,108 117.7,108.7 113.3,109.4 108.4,110 103,110.6 97.1,111.2 90.8,111.7 83.9,112.2 76.5,112.6 68.5,112.8 60.1,112.8 59.8,111.1 68.1,109.1 75.8,107.3 83,105.7 89.6,104.2 95.8,102.8 101.4,101.5 106.5,100.2 111,98.9 115,97.6 118.4,96.4 " />
<polygon points="117.4,96.7 121.6,108 128.6,106.1 " />
<polygon points="128.6,106.1 128.9,109.1 121.9,105.9 " />
<polygon points="57,131 133,131 133,135 57,135 " />
<polygon points="133,131 109,133 121,121 " />
<polygon points="101,105 101,163 89,163 89,105 " />
<polygon points="56.2,160.9 62.7,160.4 69.4,159.7 76.4,159 83.7,158.2 91.2,157.2 99,156.2 107,155.2 115.3,154.1 123.9,153 132.8,152.1 133.1,153.8 124.7,156.7 116.4,159.3 108.3,161.6 100.4,163.7 92.7,165.6 85.3,167.3 78,168.9 71,170.3 64.2,171.6 57.7,172.8 " />
<polygon points="57.7,172.8 56.2,160.9 54.2,161.1 " />
<polygon points="57.7,172.8 60,175.5 63.3,169.1 " />
<polygon points="154.6,15.8 152.6,25.8 150.4,35.4 148,44.8 145.3,53.8 142.4,62.4 139.3,70.8 135.8,78.8 132.1,86.4 128.1,93.6 123.6,100.4 122,99.5 124.6,92 127.2,84.3 129.7,76.4 132.1,68.3 134.3,60 136.4,51.3 138.2,42.4 139.9,33.3 141.4,23.8 142.7,14 " />
<polygon points="142.6,15 154.6,15.8 143,12 " />
<polygon points="154.6,15.8 157.2,18.3 151.8,20.5 " />
<polygon points="138.4,61 186.5,61 186.5,65 138.4,65 " />
<polygon points="186.5,61 166.5,63 176.5,52 " />
<polygon points="174.3,63.4 172,82.4 168.8,100 164.7,116.2 159.7,131.1 153.8,144.5 147,156.5 139.3,166.9 130.7,175.9 121.2,183.2 110.9,188.7 110,187.2 118.9,180.2 126.9,172.1 134.1,162.9 140.5,152.6 146.1,140.9 150.9,128 155,113.6 158.2,98 160.7,80.9 162.3,62.5 " />
<polygon points="135.5,73.9 138.4,88.4 141.6,101.8 145.2,114.3 149.4,125.7 154.1,136 159.2,145.4 165,153.6 171.2,160.9 177.9,167.2 185.1,172.6 177.5,183.3 169.5,176.5 162.3,168.7 155.9,160 150.3,150.4 145.5,139.9 141.5,128.5 138.3,116.2 135.8,103 134.3,89 133.7,74 " />
<polygon points="177.5,183.3 185.1,172.6 188.5,174.9 " />
</g>
</svg>
