<svg xmlns="http://www.w3.org/2000/svg" xmlns:xlink="http://www.w3.org/1999/xlink" version="1.1" baseProfile="full" viewBox="0 0 200 200" width="200" height="200">
<g fill="black">
<polygon points="59.3,22.2 55.7,26.6 51.9,31 48,35.3 43.8,39.5 39.5,43.8 34.9,48 30.2,52.1 25.2,56.1 19.9,59.9 14.3,63.6 13.1,62.3 17.3,57.1 21.5,52.2 25.5,47.4 29.5,42.7 33.2,38 36.8,33.4 40.3,28.8 43.5,24.3 46.6,19.8 49.5,15.3 " />
<polygon points="48.9,16.1 59.3,22.2 50,14.6 " />
<polygon points="59.3,22.2 60.6,25.6 54.8,25.2 " />
<polygon points="63,53.5 58.9,61 54.5,68.5 49.8,75.8 44.9,82.9 39.7,89.9 34.3,96.6 28.5,103.2 22.5,109.6 16.1,115.8 9.4,121.6 8,120.3 13.3,113.2 18.4,106.2 23.4,99.2 28.2,92.1 32.8,85 37.1,77.8 41.3,70.6 45.1,63.2 48.8,55.8 52.2,48.3 " />
<polygon points="51.8,49.2 63,53.5 52.8,47.1 " />
<polygon points="63,53.5 64.9,56.6 59.1,57.1 " />
<polygon points="45.3,90 45.3,184 33.3,190 33.3,88 " />
<polygon points="45.3,90 48.3,92 43.3,95 " />
<polygon points="100.5,16.2 100.5,76 88.5,76 88.5,14.2 " />
<polygon points="100.5,16.2 103.5,18.2 98.5,21.2 " />
<polygon points="74.4,32.2 74.4,83 62.4,89 62.4,30.2 " />
<polygon points="74.4,32.2 77.4,34.2 72.4,37.2 " />
<polygon points="68.4,72 120.5,72 120.5,76 68.4,76 " />
<polygon points="126.5,32.2 126.5,76 114.5,82 114.5,30.2 " />
<polygon points="126.5,32.2 129.5,34.2 124.5,37.2 " />
<polygon points="58,98 126,98 126,102 58,102 " />
<polygon points="126,98 114,100 120,92 " />
<polygon points="101,98 101,161 89,161 89,98 " />
<polygon points="60,126 128,126 128,130 60,130 " />
<polygon points="128,126 104,128 116,116 " />
<polygon points="55.7,162.9 62.2,161.8 69,160.5 76,159.1 83.3,157.7 90.8,156.1 98.6,154.3 106.7,152.5 115.1,150.7 123.7,148.9 132.7,147.1 133.2,148.8 124.8,152.5 116.6,155.8 108.6,158.9 100.7,161.6 93.1,164.2 85.6,166.7 78.4,168.9 71.5,171 64.7,172.9 58.2,174.6 " />
<polygon points="58.2,174.6 55.7,162.9 53.7,163.3 " />
<polygon points="58.2,174.6 60.8,177.1 63.4,170.4 " />
<polygon points="154.6,15.8 152.6,25.8 150.4,35.4 148,44.8 145.3,53.8 142.4,62.4 139.3,70.8 135.8,78.8 132.1,86.4 128.1,93.6 123.6,100.4 122,99.5 124.6,92 127.2,84.3 129.7,76.4 132.1,68.3 134.3,60 136.4,51.3 138.2,42.4 139.9,33.3 141.4,23.8 142.7,14 " />
<polygon points="142.6,15 154.6,15.8 143,12 " />
<polygon points="154.6,15.8 157.2,18.3 151.8,20.5 " />
<polygon points="138.4,61 186.5,61 186.5,65 138.4,65 " />
<polygon points="186.5,61 166.5,63 176.5,52 " />
<polygon points="174.3,63.4 172,82.4 168.8,100 164.7,116.2 159.7,131.1 153.8,144.5 147,156.5 139.3,166.9 130.7,175.9 121.2,183.2 110.9,188.7 110,187.2 118.9,180.2 126.9,172.1 134.1,162.9 140.5,152.6 146.1,140.9 150.9,128 155,113.6 158.2,98 160.7,80.9 162.3,62.5 " />
<polygon points="135.5,73.9 138.4,88.4 141.6,101.8 145.2,114.3 149.4,125.7 154.1,136 159.2,145.4 165,153.6 171.2,160.9 177.9,167.2 185.1,172.6 177.5,183.3 169.5,176.5 162.3,168.7 155.9,160 150.3,150.4 145.5,139.9 141.5,128.5 138.3,116.2 135.8,103 134.3,89 133.7,74 " />
<polygon points="177.5,183.3 185.1,172.6 188.5,174.9 " />
</g>
</svg>
