<svg xmlns="http://www.w3.org/2000/svg" xmlns:xlink="http://www.w3.org/1999/xlink" version="1.1" baseProfile="full" viewBox="0 0 200 200" width="200" height="200">
<g fill="black">
<polygon points="22,42 180,42 180,46 22,46 " />
<polygon points="180,42 156,44 168,32 " />
<polygon points="54,64 54,127 42,133 42,58 " />
<polygon points="48,64 151,64 151,68 48,68 " />
<polygon points="157,66 157,117 145,123 145,66 " />
<polygon points="145,64 151,59 162,68 157,72 145,66 " />
<polygon points="48,86 151,86 151,90 48,90 " />
<polygon points="106,20 106,115 94,115 94,18 " />
<polygon points="106,20 109,22 106,24 " />
<polygon points="48,111 151,111 151,115 48,115 " />
<polygon points="37.9,131.9 38.7,137.8 39.1,143.5 38.9,148.9 38.3,154 37.2,158.7 35.5,163.2 33.3,167.4 30.6,171.2 27.3,174.6 23.6,177.6 17.5,167.2 20.4,165.7 23,163.8 25.4,161.6 27.6,158.9 29.6,155.7 31.3,152 32.9,147.7 34.2,143 35.3,137.7 36.1,132 " />
<polygon points="23.6,177.6 19,178.1 15.4,175.4 14.8,170.9 17.5,167.2 " />
<polygon points="72,132.8 72,167.5 60,167.5 60,130.8 " />
<polygon points="72,132.8 75,134.8 72,136.8 " />
<polygon points="72,167.5 69.6,171.1 66,173.5 62.4,171.1 60,167.5 " />
<polygon points="72,167.5 72,168.7 72.2,169.6 72.4,170.2 72.5,170.5 72.7,170.7 72.9,170.9 73.2,171.1 73.8,171.2 74.7,171.4 76,171.5 76,183.5 73.4,183.3 70.9,182.9 68.5,182.1 66.2,180.9 64.2,179.2 62.6,177.2 61.3,174.9 60.5,172.5 60.1,170 60,167.5 " />
<polygon points="76,171.5 80.2,173.3 82,177.5 80.2,181.7 76,183.5 " />
<polygon points="76,171.5 147,171.5 147,183.5 76,183.5 " />
<polygon points="147,171.5 150.6,173.9 153,177.5 150.6,181.1 147,183.5 " />
<polygon points="141,172.5 147,146.5 149,146.5 147,172.5 " />
<polygon points="88.2,126 92.3,127.3 96.2,128.6 100,130.2 103.6,132 107.1,134.1 110.3,136.4 113.4,138.9 116.3,141.6 119,144.5 121.5,147.6 111.3,153.9 109.8,151 108.2,148.2 106.3,145.4 104.3,142.8 102,140.1 99.5,137.6 96.9,135 94,132.5 90.9,130 87.5,127.7 " />
<polygon points="121.5,147.6 122.2,152.1 119.5,155.9 115,156.5 111.3,153.9 " />
<polygon points="149.3,132.5 154.2,134.6 158.9,137 163.2,139.7 167.2,142.6 170.8,145.8 174.1,149.1 177,152.7 179.6,156.5 181.9,160.5 183.8,164.8 172.3,168.3 171.4,164.9 170.2,161.4 168.7,158 166.8,154.6 164.6,151.2 162,147.8 159.1,144.4 155.9,141 152.3,137.5 148.3,134 " />
<polygon points="183.8,164.8 183.3,169.3 179.8,172.3 175.3,171.8 172.3,168.3 " />
</g>
</svg>
