<svg xmlns="http://www.w3.org/2000/svg" xmlns:xlink="http://www.w3.org/1999/xlink" version="1.1" baseProfile="full" viewBox="0 0 200 200" width="200" height="200">
<g fill="black">
<polygon points="16,32 184,32 184,36 16,36 " />
<polygon points="184,32 160,34 172,22 " />
<polygon points="51,50 51,107 39,113 39,44 " />
<polygon points="45,50 155,50 155,54 45,54 " />
<polygon points="161,52 161,100 149,106 149,52 " />
<polygon points="149,50 155,45 166,54 161,58 149,52 " />
<polygon points="45,73 155,73 155,77 45,77 " />
<polygon points="45,96 155,96 155,100 45,100 " />
<polygon points="106,14 106,125 94,125 94,12 " />
<polygon points="106,14 109,16 106,18 " />
<polygon points="23.8,121.9 34.3,122 45.4,122 57,121.9 69.3,121.7 82.2,121.5 95.7,121.2 109.8,120.8 124.6,120.5 139.9,120.2 155.9,120.1 156,121.8 140.2,124 124.9,125.8 110.3,127.4 96.2,128.7 82.7,129.9 69.8,131 57.5,131.9 45.7,132.7 34.6,133.4 24.1,133.9 " />
<polygon points="24.1,133.9 23.8,121.9 21.8,122 " />
<polygon points="24.1,133.9 26.1,136.9 30,130.8 " />
<polygon points="127.2,103.5 134,105.1 140.4,107.1 146.3,109.4 151.8,111.9 156.9,114.6 161.6,117.5 165.9,120.6 169.8,123.9 173.3,127.4 176.3,131.2 166.3,137.7 164.4,134.5 162,131.3 159.2,128.1 155.9,124.9 152.1,121.7 147.9,118.5 143.2,115.2 138.1,112 132.5,108.6 126.6,105.1 " />
<polygon points="176.3,131.2 177.1,135.7 174.6,139.5 170.1,140.2 166.3,137.7 " />
<polygon points="37.9,138.5 38.6,143.8 39,148.8 38.8,153.6 38.2,158.2 37,162.6 35.3,166.6 33.1,170.4 30.4,173.9 27.1,177 23.4,179.6 17.9,169 20.7,167.7 23.3,166.1 25.6,164.2 27.8,161.9 29.7,159.2 31.5,156.1 33,152.4 34.3,148.3 35.4,143.7 36.1,138.6 " />
<polygon points="23.4,179.6 18.8,180 15.3,177.1 15,172.5 17.9,169 " />
<polygon points="72,139.3 72,168.9 60,168.9 60,137.3 " />
<polygon points="72,139.3 75,141.3 72,143.3 " />
<polygon points="72,168.9 69.6,172.5 66,174.9 62.4,172.5 60,168.9 " />
<polygon points="72,168.9 72,170.1 72.2,171 72.4,171.6 72.5,171.9 72.7,172.1 72.9,172.3 73.2,172.5 73.8,172.6 74.7,172.8 76,172.9 76,184.9 73.4,184.7 70.9,184.3 68.5,183.5 66.2,182.3 64.2,180.6 62.6,178.6 61.3,176.3 60.5,173.9 60.1,171.4 60,168.9 " />
<polygon points="76,172.9 80.2,174.7 82,178.9 80.2,183.1 76,184.9 " />
<polygon points="76,172.9 147,172.9 147,184.9 76,184.9 " />
<polygon points="147,172.9 150.6,175.3 153,178.9 150.6,182.5 147,184.9 " />
<polygon points="141,173.9 147,147.9 149,147.9 147,173.9 " />
<polygon points="88.2,133.1 92.2,134.2 96.1,135.2 99.9,136.5 103.4,138.1 106.8,139.8 110.1,141.8 113.1,143.9 116,146.3 118.7,148.8 121.2,151.5 111.3,158.4 109.9,155.8 108.3,153.3 106.5,150.9 104.4,148.5 102.2,146.1 99.7,143.8 97,141.5 94.1,139.2 91,136.8 87.5,134.8 " />
<polygon points="121.2,151.5 122.1,156 119.7,159.9 115.2,160.8 111.3,158.4 " />
<polygon points="149.3,138.8 154.1,140.7 158.7,142.7 163,145 166.9,147.5 170.5,150.2 173.8,153.1 176.8,156.2 179.4,159.6 181.7,163.1 183.6,166.9 172.3,170.9 171.5,167.9 170.3,164.9 168.8,161.9 167,158.9 164.8,155.9 162.3,152.8 159.3,149.8 156.1,146.7 152.5,143.5 148.4,140.4 " />
<polygon points="183.6,166.9 183.3,171.5 179.9,174.5 175.4,174.2 172.3,170.9 " />
</g>
</svg>
