<svg xmlns="http://www.w3.org/2000/svg" xmlns:xlink="http://www.w3.org/1999/xlink" version="1.1" baseProfile="full" viewBox="0 0 200 200" width="200" height="200">
<g fill="black">
<polygon points="168,24.5 154.3,26.4 140.4,28 126.3,29.4 112,30.5 97.5,31.3 82.8,31.9 67.9,32.2 52.8,32.2 37.5,31.7 22,30.9 22,29.1 37.4,27.9 52.6,26.8 67.6,25.6 82.4,24.3 96.9,22.9 111.2,21.2 125.2,19.4 139,17.4 152.6,15.1 166,12.7 " />
<polygon points="165,12.9 168,24.5 177.2,23 " />
<polygon points="177.2,23 177.6,25.9 170.1,22.1 " />
<polygon points="36.2,34 39.7,35.3 43.1,36.2 46.3,37.3 49.3,38.5 52.1,39.8 54.7,41.2 57,42.8 59.2,44.5 61.1,46.4 62.9,48.5 52.2,54.1 51.9,52.7 51.2,51.1 50.3,49.4 49.1,47.6 47.6,45.7 45.8,43.8 43.6,41.8 41.3,39.7 38.6,37.5 35.5,35.7 " />
<polygon points="62.9,48.5 63.2,53.1 60.3,56.6 55.8,57 52.2,54.1 " />
<polygon points="88.3,32.1 90.6,33.2 93,33.9 95.4,34.7 97.6,35.6 99.7,36.7 101.7,37.9 103.6,39.2 105.4,40.6 107.1,42.2 108.7,43.9 98.3,49.8 97.9,48.4 97.4,46.9 96.7,45.3 95.9,43.7 94.9,42.1 93.8,40.4 92.5,38.7 91,37 89.4,35.1 87.4,33.7 " />
<polygon points="108.7,43.9 109.2,48.4 106.4,52.1 101.9,52.6 98.3,49.8 " />
<polygon points="162.6,36.9 160.3,39.7 157.9,42.4 155.4,45 152.7,47.4 149.8,49.7 146.8,51.8 143.7,53.8 140.4,55.5 136.9,57.1 133.4,58.7 132.5,57.2 135.3,54.7 137.7,52 140.1,49.4 142.3,46.8 144.3,44.1 146.2,41.5 148,38.8 149.6,36.2 151,33.5 152.3,30.7 " />
<polygon points="151.8,31.6 162.6,36.9 152.8,29.8 " />
<polygon points="162.6,36.9 164.1,40.2 158.3,40.2 " />
<polygon points="34.4,53.8 34.9,58.3 35.5,62.6 35.5,66.7 35.2,70.5 34.5,74.2 33.4,77.7 31.7,80.9 29.7,83.9 27.1,86.5 24.1,88.7 18.7,78 20.7,77.3 22.5,76.4 24.2,75.1 25.9,73.4 27.4,71.3 28.8,68.7 30.1,65.7 31.2,62.2 32.2,58.3 32.6,53.9 " />
<polygon points="24.1,88.7 19.5,89 16,86 15.8,81.5 18.7,78 " />
<polygon points="34.5,60.6 176.3,60.6 176.3,64.6 34.5,64.6 " />
<polygon points="181.1,66.2 179.4,67.7 177.6,69.3 175.6,70.9 173.5,72.6 171.2,74.3 168.7,76.1 166.1,78 163.2,79.9 160.2,81.8 157.2,84.1 156,82.7 158.4,79.9 160.4,77 162.3,74.2 164.1,71.6 165.7,69.1 167.2,66.8 168.5,64.6 169.7,62.6 170.7,60.7 171.5,59 " />
<polygon points="170.3,60.6 176.3,55.6 187.3,64.6 182.3,67.6 170.3,72.6 " />
<polygon points="47.3,74.9 47.9,79.5 48.3,84 48.3,88.2 47.9,92.2 47,96 45.7,99.7 43.9,103.1 41.6,106.2 38.9,109 35.7,111.4 30.1,100.8 32.3,99.9 34.4,98.7 36.4,97.1 38.2,95.2 39.9,92.9 41.4,90.2 42.8,87.1 44,83.5 45,79.4 45.5,75 " />
<polygon points="35.7,111.4 31.2,111.8 27.6,109 27.2,104.4 30.1,100.8 " />
<polygon points="77.1,75.7 77.1,100.4 65.1,100.4 65.1,73.7 " />
<polygon points="77.1,75.7 80.1,77.7 75.1,80.7 " />
<polygon points="77.1,100.4 74.6,104 71.1,106.4 67.5,104 65.1,100.4 " />
<polygon points="77.1,100.4 77,101.6 77.1,102.5 77.2,103.2 77.3,103.6 77.4,104 77.6,104.3 78,104.6 78.7,104.9 79.7,105.2 81.1,105.4 81.1,115.4 78.6,115.3 76.2,115 73.9,114.3 71.7,113.2 69.7,111.7 68,109.9 66.7,107.7 65.8,105.4 65.3,102.9 65.1,100.4 " />
<polygon points="81.1,105.4 84.6,106.9 86.1,110.4 84.6,113.9 81.1,115.4 " />
<polygon points="81.1,105.4 139.9,105.4 139.9,115.4 81.1,115.4 " />
<polygon points="139.9,105.4 142.9,107.4 144.9,110.4 142.9,113.4 139.9,115.4 " />
<polygon points="134.9,106.4 139.9,88.4 141.9,88.4 139.9,106.4 " />
<polygon points="90.2,70 93.5,71 96.9,71.8 100.1,72.9 103.2,74.2 106.1,75.7 108.9,77.3 111.5,79.1 114,81.1 116.4,83.3 118.6,85.6 108.6,92.3 107.5,90.1 106.3,88 104.9,85.9 103.3,83.8 101.5,81.7 99.5,79.6 97.3,77.6 95,75.5 92.4,73.4 89.5,71.7 " />
<polygon points="118.6,85.6 119.4,90.1 116.9,93.9 112.4,94.8 108.6,92.3 " />
<polygon points="142.1,75 146.1,76.8 150.1,78.5 153.8,80.4 157.2,82.5 160.3,84.8 163.2,87.3 165.8,90 168.1,92.9 170.1,96 171.8,99.3 160.5,103.1 159.9,100.6 159,98.1 157.9,95.5 156.4,92.9 154.7,90.3 152.6,87.6 150.3,84.9 147.6,82.1 144.6,79.2 141.2,76.6 " />
<polygon points="171.8,99.3 171.5,103.8 168.1,106.9 163.5,106.5 160.5,103.1 " />
<polygon points="89.3,123.3 84.7,129 79.7,134.3 74.2,139.4 68.4,144.1 62.1,148.5 55.4,152.6 48.3,156.4 40.7,159.8 32.7,162.8 24.3,165.3 23.6,163.6 31.1,159.3 38.3,155 45,150.7 51.2,146.2 57,141.7 62.4,136.9 67.3,132.1 71.8,127 75.8,121.9 79.4,116.5 " />
<polygon points="78.9,117.3 89.3,123.3 79.9,115.8 " />
<polygon points="89.3,123.3 90.6,126.7 84.8,126.3 " />
<polygon points="75,131.1 140,131.1 140,135.1 75,135.1 " />
<polygon points="144.4,137.1 135.4,145.9 125.4,153.8 114.6,161 102.9,167.3 90.4,172.9 77,177.7 62.8,181.7 47.7,184.8 31.8,187.1 15.1,188.5 14.8,186.7 31.2,183.4 46.6,179.6 61,175.4 74.5,170.5 87,165.1 98.6,159.1 109.2,152.5 118.9,145.3 127.6,137.5 135.5,129.1 " />
<polygon points="134,131.1 140,126.1 151,135.1 146,138.1 134,143.1 " />
<polygon points="75.2,135.1 81.7,142 88.6,148.2 96.3,153.8 104.7,158.7 114,162.9 124.2,166.5 135.3,169.5 147.4,171.8 160.4,173.4 174.4,174.4 173.5,187.6 158.9,185.8 145.2,183.4 132.5,180.2 120.8,176.2 110.1,171.4 100.5,165.9 92,159.6 84.6,152.5 78.5,144.7 73.7,136.1 " />
<polygon points="173.5,187.6 174.4,174.4 185.4,175.1 " />
</g>
</svg>
