<svg xmlns="http://www.w3.org/2000/svg" xmlns:xlink="http://www.w3.org/1999/xlink" version="1.1" baseProfile="full" viewBox="0 0 200 200" width="200" height="200">
<g fill="black">
<polygon points="16,37 101,37 101,41 16,41 " />
<polygon points="101,37 77,39 89,27 " />
<polygon points="63,19 63,69 51,69 51,17 " />
<polygon points="63,19 66,21 63,23 " />
<polygon points="25,65 94,65 94,69 25,69 " />
<polygon points="94,65 70,67 82,55 " />
<polygon points="25.1,74.6 26.5,78.3 28,81.9 29.1,85.4 29.9,88.9 30.3,92.4 30.3,95.8 29.9,99.2 29.2,102.6 28.1,105.8 26.6,109 16.8,102 18.3,100.4 19.7,98.6 20.8,96.6 21.8,94.3 22.7,91.8 23.3,89 23.7,85.9 23.9,82.6 23.9,78.9 23.4,75.2 " />
<polygon points="26.6,109 22.7,111.4 18.2,110.4 15.8,106.5 16.8,102 " />
<polygon points="24,82 93,82 93,86 24,86 " />
<polygon points="98.6,85.8 97.3,88.3 95.9,90.7 94.3,93 92.7,95.2 90.9,97.3 89,99.4 87,101.3 84.9,103.1 82.6,104.7 80.6,106.6 79.3,105.3 80.8,103.2 81.8,100.7 82.8,98.3 83.7,95.9 84.5,93.6 85.2,91.2 85.9,88.9 86.4,86.6 86.9,84.3 87.3,82.1 " />
<polygon points="87,82 93,77 104,86 99,90 93,90 " />
<polygon points="26,114 89,114 89,118 26,118 " />
<polygon points="89,114 65,116 77,104 " />
<polygon points="120,26 120,50 108,50 108,20 " />
<polygon points="120,50 117.6,53.6 114,56 110.4,53.6 108,50 " />
<polygon points="119.9,50.3 119.1,54.1 117.8,57.7 116.1,61 114,64 111.5,66.8 108.7,69.3 105.6,71.5 102.1,73.4 98.3,75.1 94.4,76.7 93.5,75.2 96.8,72.7 99.6,70 101.9,67.3 103.8,64.7 105.4,62.1 106.6,59.6 107.4,57 107.9,54.6 108.1,52.1 108,49.6 " />
<polygon points="114,26 153,26 153,30 114,30 " />
<polygon points="159,28 159,57 147,57 147,28 " />
<polygon points="147,26 153,21 164,30 159,34 147,28 " />
<polygon points="159,57 156.6,60.6 153,63 149.4,60.6 147,57 " />
<polygon points="159,57 159,58.2 159.2,59.1 159.4,59.7 159.5,60 159.7,60.2 159.9,60.4 160.2,60.5 160.8,60.7 161.7,60.9 163,61 163,73 160.4,72.8 157.9,72.4 155.5,71.6 153.2,70.3 151.2,68.7 149.6,66.7 148.3,64.4 147.5,62 147.1,59.5 147,57 " />
<polygon points="163,61 167.2,62.8 169,67 167.2,71.2 163,73 " />
<polygon points="163,61 178,61 178,73 163,73 " />
<polygon points="178,61 181.6,63.4 184,67 181.6,70.6 178,73 " />
<polygon points="172,62 178,36 180,36 178,62 " />
<polygon points="99,81 162,81 162,85 99,85 " />
<polygon points="169,86.1 162.6,95 155.4,103 147.6,110.2 139.1,116.5 130.1,121.9 120.4,126.4 110.2,129.9 99.3,132.6 88,134.2 76,134.8 75.9,133.1 87.3,130.5 98,127.4 108,123.7 117.3,119.5 125.8,114.5 133.7,108.9 140.9,102.7 147.5,95.7 153.5,88.1 158.9,79.8 " />
<polygon points="158,81 164,76 175,85 170,89 164,89 " />
<polygon points="114.2,83.5 118.6,90 123.3,95.9 128.3,101.3 133.7,106.1 139.6,110.5 146,114.2 153,117.5 160.5,120.3 168.6,122.7 177.3,124.5 174.6,137.4 165.1,134.7 156.3,131.4 148.2,127.5 140.7,123 134,117.9 128,112.3 122.8,106 118.4,99.3 114.9,92 112.5,84.2 " />
<polygon points="174.6,137.4 177.3,124.5 186.4,126.4 " />
<polygon points="37.9,138.5 38.6,143.8 39,148.8 38.8,153.6 38.2,158.2 37,162.6 35.3,166.6 33.1,170.4 30.4,173.9 27.1,177 23.4,179.6 17.9,169 20.7,167.7 23.3,166.1 25.6,164.2 27.8,161.9 29.7,159.2 31.5,156.1 33,152.4 34.3,148.3 35.4,143.7 36.1,138.6 " />
<polygon points="23.4,179.6 18.8,180 15.3,177.1 15,172.5 17.9,169 " />
<polygon points="72,139.3 72,168.9 60,168.9 60,137.3 " />
<polygon points="72,139.3 75,141.3 72,143.3 " />
<polygon points="72,168.9 69.6,172.5 66,174.9 62.4,172.5 60,168.9 " />
<polygon points="72,168.9 72,170.1 72.2,171 72.4,171.6 72.5,171.9 72.7,172.1 72.9,172.3 73.2,172.5 73.8,172.6 74.7,172.8 76,172.9 76,184.9 73.4,184.7 70.9,184.3 68.5,183.5 66.2,182.3 64.2,180.6 62.6,178.6 61.3,176.3 60.5,173.9 60.1,171.4 60,168.9 " />
<polygon points="76,172.9 80.2,174.7 82,178.9 80.2,183.1 76,184.9 " />
<polygon points="76,172.9 147,172.9 147,184.9 76,184.9 " />
<polygon points="147,172.9 150.6,175.3 153,178.9 150.6,182.5 147,184.9 " />
<polygon points="141,173.9 147,147.9 149,147.9 147,173.9 " />
<polygon points="88.2,133.1 92.2,134.2 96.1,135.2 99.9,136.5 103.4,138.1 106.8,139.8 110.1,141.8 113.1,143.9 116,146.3 118.7,148.8 121.2,151.5 111.3,158.4 109.9,155.8 108.3,153.3 106.5,150.9 104.4,148.5 102.2,146.1 99.7,143.8 97,141.5 94.1,139.2 91,136.8 87.5,134.8 " />
<polygon points="121.2,151.5 122.1,156 119.7,159.9 115.2,160.8 111.3,158.4 " />
<polygon points="149.3,138.8 154.1,140.7 158.7,142.7 163,145 166.9,147.5 170.5,150.2 173.8,153.1 176.8,156.2 179.4,159.6 181.7,163.1 183.6,166.9 172.3,170.9 171.5,167.9 170.3,164.9 168.8,161.9 167,158.9 164.8,155.9 162.3,152.8 159.3,149.8 156.1,146.7 152.5,143.5 148.4,140.4 " />
<polygon points="183.6,166.9 183.3,171.5 179.9,174.5 175.4,174.2 172.3,170.9 " />
</g>
</svg>
