<svg xmlns="http://www.w3.org/2000/svg" xmlns:xlink="http://www.w3.org/1999/xlink" version="1.1" baseProfile="full" viewBox="0 0 200 200" width="200" height="200">
<g fill="black">
<polygon points="18.6,27.7 101.9,27.7 101.9,31.7 18.6,31.7 " />
<polygon points="101.9,27.7 77.9,29.7 89.9,17.7 " />
<polygon points="64.8,14.2 64.8,50.2 52.8,50.2 52.8,12.2 " />
<polygon points="64.8,14.2 67.8,16.2 64.8,18.2 " />
<polygon points="25.5,46.2 97,46.2 97,50.2 25.5,50.2 " />
<polygon points="97,46.2 73,48.2 85,36.2 " />
<polygon points="24.7,54.9 26,57.9 27.5,60.7 28.6,63.6 29.3,66.6 29.7,69.7 29.7,72.8 29.4,76 28.7,79.1 27.6,82.3 26.2,85.4 16.3,78.6 17.9,76.9 19.2,75.1 20.4,73.2 21.4,71.2 22.3,69 22.9,66.7 23.3,64.2 23.6,61.5 23.6,58.5 23,55.6 " />
<polygon points="26.2,85.4 22.4,87.8 17.9,86.9 15.4,83.1 16.3,78.6 " />
<polygon points="25.5,60.5 94.1,60.5 94.1,64.5 25.5,64.5 " />
<polygon points="99.7,64.6 98.6,66.2 97.5,67.8 96.3,69.5 95,71.2 93.7,73 92.3,74.7 90.7,76.5 89.1,78.3 87.4,80.1 86,82.2 84.5,81.3 85.4,79 85.8,76.6 86.3,74.3 86.7,72.1 87.1,69.9 87.5,67.9 87.8,65.9 88,64 88.3,62.2 88.4,60.5 " />
<polygon points="88.1,60.5 94.1,55.5 105.1,64.5 100.1,68.5 94.1,68.5 " />
<polygon points="51,77.5 50.6,85.9 49.6,93.7 48,100.9 45.7,107.5 42.7,113.6 39.2,118.9 35,123.6 30.2,127.4 24.8,130.4 19,132.5 18.2,130.9 22.8,127.3 26.7,123.4 30,119.2 32.8,114.7 35.1,109.8 36.9,104.5 38.2,98.6 39,92.3 39.3,85.3 39,77.8 " />
<polygon points="39,77.8 51,77.5 38.9,71.8 " />
<polygon points="45.1,77.7 77.4,77.7 77.4,81.7 45.1,81.7 " />
<polygon points="83.4,79.7 83.4,113.2 71.4,113.2 71.4,79.7 " />
<polygon points="71.4,77.7 77.4,72.7 88.4,81.7 83.4,85.7 71.4,79.7 " />
<polygon points="61.5,112.1 66.3,110.5 71.2,108.9 76.1,107.2 81.1,105.5 86.3,103.8 91.4,102 96.7,100.2 102.1,98.5 107.6,96.8 113.3,95.3 114.1,96.9 109.2,100.3 104.3,103.4 99.4,106.2 94.5,109 89.6,111.6 84.8,114.1 80,116.5 75.2,118.8 70.5,121.1 65.8,123.3 " />
<polygon points="65.8,123.3 61.5,112.1 59.6,112.8 " />
<polygon points="65.8,123.3 68.8,125.3 70.3,118.3 " />
<polygon points="128.5,18.8 128.5,35.8 116.5,35.8 116.5,12.8 " />
<polygon points="128.5,35.8 126.1,39.4 122.5,41.8 118.9,39.4 116.5,35.8 " />
<polygon points="128.5,35.8 127.9,39.9 127,43.7 125.7,47.4 124,50.9 122,54.2 119.7,57.3 117.1,60.1 114.1,62.7 110.8,65 107.4,67.3 106.2,66 108.8,63 110.8,59.8 112.6,56.7 114,53.7 115.1,50.7 115.9,47.7 116.5,44.8 116.7,41.8 116.7,38.8 116.5,35.8 " />
<polygon points="122.5,18.8 156.8,18.8 156.8,22.8 122.5,22.8 " />
<polygon points="162.8,20.8 162.8,49.1 150.8,49.1 150.8,20.8 " />
<polygon points="150.8,18.8 156.8,13.8 167.8,22.8 162.8,26.8 150.8,20.8 " />
<polygon points="162.8,49.1 160.4,52.7 156.8,55.1 153.2,52.7 150.8,49.1 " />
<polygon points="162.8,49.1 162.9,50.4 163,51.3 163.2,51.9 163.4,52.2 163.5,52.4 163.7,52.5 164.1,52.7 164.6,52.9 165.6,53.1 166.8,53.1 166.8,65.1 164.2,65 161.7,64.5 159.3,63.7 157.1,62.5 155,60.9 153.4,58.8 152.2,56.6 151.4,54.2 150.9,51.7 150.8,49.1 " />
<polygon points="166.8,53.1 171,54.9 172.8,59.1 171,63.3 166.8,65.1 " />
<polygon points="166.8,53.1 180.3,53.1 180.3,65.1 166.8,65.1 " />
<polygon points="180.3,53.1 183.9,55.5 186.3,59.1 183.9,62.7 180.3,65.1 " />
<polygon points="174.3,54.1 180.3,28.1 182.3,28.1 180.3,54.1 " />
<polygon points="106.8,70.8 164.6,70.8 164.6,74.8 106.8,74.8 " />
<polygon points="170.4,74.6 166.4,84.2 161.5,92.9 155.6,100.8 148.7,107.7 140.9,113.7 132.3,118.8 122.8,122.9 112.4,126 101.3,128.1 89.3,129.2 89,127.4 100.5,124.4 110.8,120.9 120.2,116.8 128.5,112.2 135.9,106.9 142.3,101 147.7,94.5 152.3,87.4 156,79.6 158.9,71 " />
<polygon points="158.6,70.8 164.6,65.8 175.6,74.8 170.6,78.8 164.6,78.8 " />
<polygon points="117.8,73.5 121.8,81.2 126.2,88 130.9,94 136,99.2 141.6,103.7 147.8,107.4 154.4,110.5 161.7,112.8 169.6,114.5 178.1,115.6 176.6,128.7 167,126.8 158.1,124.1 149.9,120.5 142.5,116.1 135.8,111 130,105 125.1,98.3 121.1,90.9 118,82.8 116,74 " />
<polygon points="176.6,128.7 178.1,115.6 188.5,116.8 " />
<polygon points="37.9,135.7 38.6,141.3 39,146.7 38.9,151.8 38.2,156.6 37.1,161.1 35.4,165.4 33.2,169.4 30.5,173.1 27.2,176.3 23.5,179.1 17.7,168.6 20.5,167.2 23.1,165.5 25.5,163.4 27.7,160.9 29.6,157.9 31.4,154.5 32.9,150.6 34.2,146.1 35.4,141.2 36.1,135.8 " />
<polygon points="23.5,179.1 18.9,179.5 15.3,176.7 14.9,172.2 17.7,168.6 " />
<polygon points="72,136.6 72,168.7 60,168.7 60,134.6 " />
<polygon points="72,136.6 75,138.6 72,140.6 " />
<polygon points="72,168.7 69.6,172.3 66,174.7 62.4,172.3 60,168.7 " />
<polygon points="72,168.7 72,169.9 72.2,170.8 72.4,171.4 72.5,171.7 72.7,171.9 72.9,172.1 73.2,172.3 73.8,172.4 74.7,172.6 76,172.7 76,184.7 73.4,184.5 70.9,184.1 68.5,183.3 66.2,182.1 64.2,180.4 62.6,178.4 61.3,176.1 60.5,173.7 60.1,171.2 60,168.7 " />
<polygon points="76,172.7 80.2,174.5 82,178.7 80.2,182.9 76,184.7 " />
<polygon points="76,172.7 147,172.7 147,184.7 76,184.7 " />
<polygon points="147,172.7 150.6,175.1 153,178.7 150.6,182.3 147,184.7 " />
<polygon points="141,173.7 147,147.7 149,147.7 147,173.7 " />
<polygon points="88.2,130.1 92.2,131.2 96.2,132.4 100,133.8 103.5,135.5 107,137.5 110.2,139.6 113.3,141.9 116.1,144.4 118.8,147.1 121.3,150.1 111.3,156.6 109.8,153.9 108.2,151.3 106.4,148.7 104.3,146.1 102.1,143.6 99.6,141.2 96.9,138.8 94,136.3 91,133.9 87.5,131.7 " />
<polygon points="121.3,150.1 122.1,154.6 119.6,158.4 115.1,159.2 111.3,156.6 " />
<polygon points="149.3,136.1 154.2,138.2 158.8,140.3 163.1,142.8 167,145.5 170.7,148.5 174,151.6 176.9,155 179.5,158.6 181.8,162.3 183.7,166.3 172.3,170.1 171.4,166.9 170.3,163.7 168.7,160.5 166.9,157.2 164.7,154 162.1,150.8 159.2,147.6 156,144.3 152.4,141 148.4,137.7 " />
<polygon points="183.7,166.3 183.3,170.9 179.9,173.9 175.3,173.5 172.3,170.1 " />
</g>
</svg>
