<svg xmlns="http://www.w3.org/2000/svg" xmlns:xlink="http://www.w3.org/1999/xlink" version="1.1" baseProfile="full" viewBox="0 0 200 200" width="200" height="200">
<g fill="black">
<polygon points="23.2,26.9 26.6,27.7 30.1,28.1 33.3,28.8 36.4,29.6 39.2,30.6 41.9,31.7 44.5,33 46.9,34.4 49.1,36 51.2,37.8 41.6,45.1 40.9,43.6 40,42 38.7,40.4 37.2,38.8 35.5,37.1 33.4,35.4 31.1,33.6 28.6,31.9 25.8,30 22.6,28.6 " />
<polygon points="51.2,37.8 52.3,42.2 50,46.2 45.6,47.3 41.6,45.1 " />
<polygon points="16,82.7 20.7,85.2 25.1,87.7 29,90.5 32.3,93.5 35.2,96.8 37.6,100.4 39.4,104.2 40.6,108.3 41.1,112.5 41.1,116.9 29.2,114.9 29.9,112.2 30.1,109.5 30,106.8 29.4,103.9 28.4,100.9 26.8,97.8 24.7,94.5 22.1,91.2 18.9,87.6 15.1,84.2 " />
<polygon points="41.1,116.9 38.6,120.8 34.1,121.8 30.3,119.3 29.2,114.9 " />
<polygon points="24.2,90.5 27.4,87.8 30.8,84.6 34.5,80.9 38.4,76.7 42.6,72 46.9,66.9 51.6,61.3 56.5,55.2 61.7,48.8 67.4,42.1 68.9,43 64.9,50.9 60.9,58.3 57,65 53.1,71.3 49.3,77.1 45.7,82.5 42.2,87.3 38.8,91.7 35.5,95.7 32.4,99.3 " />
<polygon points="85,21.5 85,83.2 73,89.2 73,15.5 " />
<polygon points="79,21.5 177,21.5 177,25.5 79,25.5 " />
<polygon points="177,21.5 153,23.5 165,11.5 " />
<polygon points="79,37.8 171,37.8 171,41.8 79,41.8 " />
<polygon points="171,37.8 147,39.8 159,27.8 " />
<polygon points="79,55.3 171,55.3 171,59.3 79,59.3 " />
<polygon points="171,55.3 147,57.3 159,45.3 " />
<polygon points="126,21.5 126,76.2 114,76.2 114,21.5 " />
<polygon points="79,72.2 171,72.2 171,76.2 79,76.2 " />
<polygon points="176.9,74 177.1,79.3 177,84.4 176.8,89.3 176.4,93.8 175.9,98.1 175.1,102.2 174.2,106 173.1,109.6 171.7,112.9 170.1,116 159.8,110 160.8,107.9 161.8,105.5 162.6,102.8 163.4,99.7 164,96.3 164.5,92.6 164.8,88.5 165,84.1 165.1,79.4 165,74.4 " />
<polygon points="165,72.2 171,67.2 182,76.2 177,80.2 171,80.2 " />
<polygon points="170.1,116 166.5,118.7 161.9,118.2 159.2,114.5 159.8,110 " />
<polygon points="170.1,116 168.8,118.1 167.3,120 165.6,121.8 163.7,123.3 161.7,124.7 159.5,125.8 157.3,126.6 154.9,127.2 152.4,127.5 150,127.7 150,115.7 151.4,115.6 152.6,115.4 153.7,115.1 154.8,114.8 155.7,114.3 156.6,113.7 157.4,113 158.2,112.2 159,111.2 159.8,110 " />
<polygon points="150,121.7 150,115.7 130,115.7 130,118.7 " />
<polygon points="58,96.3 159,96.3 159,100.3 58,100.3 " />
<polygon points="159,96.3 135,98.3 147,86.3 " />
<polygon points="99,81.1 99,98.3 87,98.3 87,79.1 " />
<polygon points="99,81.1 102,83.1 99,85.1 " />
<polygon points="99,98.3 96.6,101.8 93,104.3 89.4,101.8 87,98.3 " />
<polygon points="98.9,99.2 97.6,103.5 95.8,107.6 93.5,111.3 90.7,114.7 87.5,117.6 84,120.2 80,122.3 75.8,124 71.1,125.3 66.2,126.4 65.7,124.7 70,122.5 73.7,119.9 76.9,117.3 79.6,114.7 81.9,112 83.7,109.3 85.1,106.5 86.1,103.5 86.7,100.5 87,97.3 " />
<polygon points="131,81.1 131,118 119,124 119,79.1 " />
<polygon points="131,81.1 134,83.1 131,85.1 " />
<polygon points="37.9,128.7 38.8,135 39.2,141 39,146.7 38.4,152.1 37.2,157.1 35.6,161.8 33.4,166.2 30.7,170.2 27.4,173.8 23.7,176.9 17.4,166.7 20.2,165 22.8,163 25.2,160.6 27.5,157.6 29.5,154.1 31.3,150.2 32.8,145.6 34.1,140.5 35.2,134.9 36.1,128.8 " />
<polygon points="23.7,176.9 19.1,177.6 15.4,174.9 14.7,170.4 17.4,166.7 " />
<polygon points="72,129.7 72,167.2 60,167.2 60,127.7 " />
<polygon points="72,129.7 75,131.7 72,133.7 " />
<polygon points="72,167.2 69.6,170.7 66,173.2 62.4,170.7 60,167.2 " />
<polygon points="72,167.2 72,168.4 72.2,169.3 72.4,169.9 72.5,170.2 72.7,170.4 72.9,170.6 73.2,170.7 73.8,170.9 74.7,171.1 76,171.2 76,183.2 73.4,183 70.9,182.6 68.5,181.8 66.2,180.5 64.2,178.9 62.6,176.9 61.3,174.6 60.5,172.2 60.1,169.7 60,167.2 " />
<polygon points="76,171.2 80.2,173 82,177.2 80.2,181.3 76,183.2 " />
<polygon points="76,171.2 147,171.2 147,183.2 76,183.2 " />
<polygon points="147,171.2 150.6,173.6 153,177.2 150.6,180.7 147,183.2 " />
<polygon points="141,172.2 147,146.2 149,146.2 147,172.2 " />
<polygon points="88.2,122.6 92.3,124 96.3,125.4 100.1,127.1 103.7,129.1 107.2,131.4 110.5,133.8 113.5,136.5 116.4,139.4 119.1,142.6 121.6,145.9 111.3,151.9 109.8,148.8 108.1,145.8 106.2,142.9 104.2,140.1 101.9,137.3 99.4,134.6 96.8,131.9 93.9,129.3 90.8,126.7 87.5,124.2 " />
<polygon points="121.6,145.9 122.2,150.4 119.5,154.1 114.9,154.6 111.3,151.9 " />
<polygon points="149.3,129.4 154.3,131.7 159,134.3 163.3,137.2 167.3,140.4 170.9,143.8 174.2,147.4 177.2,151.2 179.8,155.3 182,159.6 183.9,164 172.3,167.4 171.4,163.7 170.2,160 168.6,156.3 166.7,152.7 164.5,149 161.9,145.5 159,141.9 155.8,138.3 152.2,134.6 148.3,130.9 " />
<polygon points="183.9,164 183.3,168.6 179.8,171.5 175.3,170.9 172.3,167.4 " />
</g>
</svg>
