<svg xmlns="http://www.w3.org/2000/svg" xmlns:xlink="http://www.w3.org/1999/xlink" version="1.1" baseProfile="full" viewBox="0 0 200 200" width="200" height="200">
<g fill="black">
<polygon points="25.6,25.7 29.2,26.5 32.7,27.1 36.1,27.9 39.2,28.9 42.2,30 45,31.3 47.6,32.7 50,34.3 52.3,36.1 54.4,38.1 44.6,45.1 43.9,43.4 42.8,41.7 41.6,40 40,38.2 38.2,36.4 36.1,34.6 33.8,32.7 31.1,30.9 28.3,28.9 25.1,27.4 " />
<polygon points="54.4,38.1 55.4,42.5 53,46.5 48.5,47.4 44.6,45.1 " />
<polygon points="18.3,86.3 23.2,89 27.7,91.8 31.6,94.9 35.1,98.3 38,101.9 40.3,105.8 42.1,109.9 43.3,114.3 43.9,118.9 43.8,123.6 31.9,121.6 32.6,118.5 32.8,115.4 32.7,112.3 32,109.2 30.9,105.9 29.3,102.4 27.2,98.9 24.4,95.3 21.2,91.5 17.3,87.8 " />
<polygon points="43.8,123.6 41.3,127.4 36.9,128.5 33,126 31.9,121.6 " />
<polygon points="26.6,95.3 29.9,92.3 33.5,88.7 37.2,84.7 41.2,80.1 45.5,74.9 50,69.3 54.7,63.2 59.7,56.6 65.1,49.6 70.9,42.2 72.4,43.1 68.3,51.6 64.3,59.5 60.2,66.8 56.2,73.6 52.4,79.9 48.7,85.6 45.1,90.9 41.7,95.7 38.3,99.9 35.1,103.7 " />
<polygon points="90,23.2 90,85.9 78,91.9 78,17.2 " />
<polygon points="84,23.2 178.7,23.2 178.7,27.2 84,27.2 " />
<polygon points="178.7,23.2 154.7,25.2 166.7,13.2 " />
<polygon points="130.9,23.2 130.9,85.9 118.9,85.9 118.9,23.2 " />
<polygon points="84,42.8 174,42.8 174,46.8 84,46.8 " />
<polygon points="174,42.8 154,44.8 164,33.8 " />
<polygon points="84,62.4 174,62.4 174,66.4 84,66.4 " />
<polygon points="174,62.4 154,64.4 164,53.4 " />
<polygon points="84,81.9 171.7,81.9 171.7,85.9 84,85.9 " />
<polygon points="177.7,83.9 177.6,89.8 177.3,95.3 176.9,100.3 176.3,105 175.6,109.3 174.6,113.2 173.4,116.7 171.9,120 170.1,122.9 167.9,125.4 159.7,116.6 160.4,115.7 161.3,114.3 162.2,112.4 163.1,109.8 163.8,106.8 164.5,103.2 165,99.1 165.4,94.5 165.6,89.5 165.7,83.9 " />
<polygon points="165.7,81.9 171.7,76.9 182.7,85.9 177.7,88.9 165.7,93.9 " />
<polygon points="167.9,125.4 163.6,126.9 159.4,125.1 157.8,120.8 159.7,116.6 " />
<polygon points="167.9,125.4 166.1,126.9 164.2,128.4 162.2,129.6 160.1,130.7 158,131.7 155.8,132.4 153.5,133 151.2,133.5 148.9,133.7 146.5,133.8 146.5,121.8 148,121.7 149.5,121.6 150.9,121.3 152.3,121 153.6,120.5 154.9,120 156.1,119.3 157.3,118.5 158.5,117.6 159.7,116.6 " />
<polygon points="146.5,127.8 146.5,121.8 126.5,121.8 126.5,124.8 " />
<polygon points="82.7,94.9 83.4,99 84.1,102.8 84.5,106.5 84.4,110 83.9,113.4 82.9,116.6 81.4,119.7 79.5,122.5 77,125 74.2,127.1 68.9,116.4 70.7,115.8 72.4,115 74,113.9 75.4,112.5 76.8,110.7 78.1,108.4 79.2,105.7 80.1,102.6 80.8,99.1 80.9,95.1 " />
<polygon points="74.2,127.1 69.6,127.4 66.1,124.4 65.9,119.8 68.9,116.4 " />
<polygon points="95.9,94.8 97.7,96.7 99.8,98.2 101.6,99.9 103.2,101.8 104.7,103.8 105.8,105.9 106.8,108.2 107.5,110.6 107.9,113.2 108,115.8 96.2,113.6 96.8,112.3 97.3,110.9 97.7,109.5 97.8,107.9 97.9,106.2 97.7,104.3 97.3,102.4 96.8,100.3 96,98 94.6,96.1 " />
<polygon points="108,115.8 105.5,119.6 101,120.6 97.2,118.1 96.2,113.6 " />
<polygon points="111,93 113.7,94.3 116.5,95.2 119,96.2 121.4,97.5 123.6,98.9 125.6,100.5 127.4,102.3 129,104.3 130.3,106.5 131.4,108.9 119.6,111.1 119.8,109.9 119.7,108.6 119.5,107.1 119,105.5 118.2,103.8 117.2,102 115.9,100.2 114.4,98.3 112.5,96.2 110.2,94.6 " />
<polygon points="131.4,108.9 130.4,113.3 126.7,115.9 122.2,114.9 119.6,111.1 " />
<polygon points="128.5,90.8 131.3,91.5 134.2,91.8 137,92.4 139.6,93.1 142,94 144.3,95.1 146.5,96.3 148.6,97.8 150.4,99.5 152.1,101.4 141.6,107.1 141.3,105.8 140.8,104.5 140.1,103 139.2,101.5 138,100 136.5,98.5 134.8,96.9 132.8,95.3 130.6,93.6 127.9,92.5 " />
<polygon points="152.1,101.4 152.6,105.9 149.7,109.5 145.2,109.9 141.6,107.1 " />
<polygon points="37.9,138.2 38.6,143.7 39,148.9 38.9,153.9 38.2,158.6 37.1,163.1 35.4,167.3 33.2,171.2 30.4,174.8 27.2,178 23.4,180.7 17.8,170.1 20.6,168.8 23.2,167.1 25.5,165.1 27.7,162.7 29.7,159.9 31.4,156.5 33,152.7 34.3,148.4 35.4,143.6 36.1,138.3 " />
<polygon points="23.4,180.7 18.9,181.1 15.3,178.3 14.9,173.7 17.8,170.1 " />
<polygon points="72,139.1 72,170.2 60,170.2 60,137.1 " />
<polygon points="72,139.1 75,141.1 70,144.1 " />
<polygon points="72,170.2 69.6,173.7 66,176.2 62.4,173.7 60,170.2 " />
<polygon points="72,170.2 72,171.4 72.2,172.3 72.4,172.9 72.5,173.2 72.7,173.4 72.9,173.6 73.2,173.7 73.8,173.9 74.7,174.1 76,174.2 76,186.2 73.4,186 70.9,185.6 68.5,184.8 66.2,183.5 64.2,181.9 62.6,179.9 61.3,177.6 60.5,175.2 60.1,172.7 60,170.2 " />
<polygon points="76,174.2 80.2,176 82,180.2 80.2,184.3 76,186.2 " />
<polygon points="76,174.2 147,174.2 147,186.2 76,186.2 " />
<polygon points="147,174.2 150.6,176.6 153,180.2 150.6,183.7 147,186.2 " />
<polygon points="141,175.2 147,149.2 149,149.2 147,175.2 " />
<polygon points="88.2,132.7 92.2,133.8 96.2,134.9 99.9,136.3 103.5,138 106.9,139.8 110.1,141.9 113.2,144.1 116.1,146.6 118.8,149.2 121.3,152.1 111.3,158.7 109.9,156.1 108.2,153.5 106.4,151 104.4,148.5 102.1,146 99.7,143.6 97,141.2 94.1,138.9 91,136.5 87.5,134.3 " />
<polygon points="121.3,152.1 122.1,156.5 119.6,160.4 115.1,161.2 111.3,158.7 " />
<polygon points="149.3,138.6 154.1,140.6 158.8,142.7 163.1,145.1 167,147.7 170.6,150.6 173.9,153.6 176.9,156.9 179.5,160.4 181.8,164.1 183.7,168 172.3,171.8 171.4,168.7 170.3,165.6 168.8,162.4 166.9,159.3 164.7,156.2 162.2,153 159.3,149.9 156,146.7 152.4,143.4 148.4,140.2 " />
<polygon points="183.7,168 183.3,172.5 179.9,175.6 175.4,175.2 172.3,171.8 " />
</g>
</svg>
