<svg xmlns="http://www.w3.org/2000/svg" xmlns:xlink="http://www.w3.org/1999/xlink" version="1.1" baseProfile="full" viewBox="0 0 200 200" width="200" height="200">
<g fill="black">
<polygon points="47,53 47,106 35,106 35,47 " />
<polygon points="47,106 44.6,109.6 41,112 37.4,109.6 35,106 " />
<polygon points="47,106 46.4,116.9 45.3,127.4 43.7,137.2 41.5,146.5 38.8,155.2 35.5,163.3 31.6,170.7 27.2,177.4 22.2,183.4 16.6,188.6 15.3,187.3 19.2,181.1 22.7,174.6 25.8,167.8 28.4,160.5 30.6,152.7 32.4,144.4 33.7,135.6 34.6,126.3 35,116.4 35,106 " />
<polygon points="41,53 179,53 179,57 41,57 " />
<polygon points="179,53 155,55 167,43 " />
<polygon points="126.2,20.5 130.1,21.6 134,22.6 137.6,23.7 141,25.1 144.2,26.5 147.2,28.1 150,29.9 152.6,31.8 155,33.8 157.2,36.1 147.3,42.9 146.3,41 145.1,39 143.6,37 141.9,34.9 139.8,32.8 137.5,30.7 134.9,28.6 132.1,26.4 129,24.1 125.5,22.2 " />
<polygon points="157.2,36.1 158.1,40.5 155.7,44.4 151.2,45.3 147.3,42.9 " />
<polygon points="118,16.7 119.7,46.5 122.5,73.2 126.3,96.7 131.2,117.1 137,134.2 143.8,148.1 151.3,158.7 159.6,166.3 168.5,171 178.3,173 177.6,184.9 164.5,182.3 152.6,176.1 142.3,166.6 133.4,154.1 125.9,138.7 119.6,120.4 114.5,99.1 110.6,74.8 107.7,47.5 106,17.2 " />
<polygon points="106,17.2 118,16.7 105.9,14.9 " />
<polygon points="118,16.7 121.1,18.6 115.2,22.8 " />
<polygon points="178.3,173 182.4,175 183.9,179.3 181.9,183.4 177.6,184.9 " />
<polygon points="178.3,174 182,148.2 180,148 172.3,173.6 " />
<polygon points="169.2,85 162.4,100.8 155,115.4 146.9,128.8 138.3,141 129.1,152 119.2,161.6 108.8,170 97.9,177.1 86.3,182.7 74.3,186.8 73.6,185.1 84.6,179.3 95,172.5 104.8,164.9 114,156.2 122.7,146.4 130.8,135.5 138.4,123.6 145.5,110.5 152,96.2 158,80.8 " />
<polygon points="158,80.8 169.2,85 158.5,79.4 " />
<polygon points="169.2,85 171.3,87.9 164.3,89.6 " />
<polygon points="53,111 108,111 108,115 53,115 " />
<polygon points="108,111 84,113 96,101 " />
</g>
</svg>
