<svg xmlns="http://www.w3.org/2000/svg" xmlns:xlink="http://www.w3.org/1999/xlink" version="1.1" baseProfile="full" viewBox="0 0 200 200" width="200" height="200">
<g fill="black">
<polygon points="47,54 47,106 35,106 35,48 " />
<polygon points="47,106 44.6,109.6 41,112 37.4,109.6 35,106 " />
<polygon points="47,106 46.4,116.9 45.3,127.4 43.7,137.2 41.5,146.5 38.8,155.2 35.5,163.3 31.6,170.7 27.2,177.4 22.2,183.4 16.6,188.6 15.3,187.3 19.2,181.1 22.7,174.6 25.8,167.8 28.4,160.5 30.6,152.7 32.4,144.4 33.7,135.6 34.6,126.3 35,116.4 35,106 " />
<polygon points="41,54 179,54 179,58 41,58 " />
<polygon points="179,54 155,56 167,44 " />
<polygon points="126.2,20.5 130.1,21.6 134,22.6 137.6,23.7 141,25.1 144.2,26.5 147.2,28.1 150,29.9 152.6,31.8 155,33.8 157.2,36.1 147.3,42.9 146.3,41 145.1,39 143.6,37 141.9,34.9 139.8,32.8 137.5,30.7 134.9,28.6 132.1,26.4 129,24.1 125.5,22.2 " />
<polygon points="157.2,36.1 158.1,40.5 155.7,44.4 151.2,45.3 147.3,42.9 " />
<polygon points="113,17.7 114.7,47.5 117.6,74.1 121.7,97.6 126.8,117.8 133,134.8 140.1,148.6 148.1,159.1 156.9,166.5 166.5,171.1 177.2,173 176.7,184.9 162.9,182.5 150.4,176.6 139.4,167.3 130,154.9 122,139.6 115.3,121.3 109.9,100 105.8,75.8 102.8,48.5 101,18.2 " />
<polygon points="101,18.2 113,17.7 100.9,15.9 " />
<polygon points="113,17.7 116.1,19.6 110.2,23.8 " />
<polygon points="177.2,173 181.3,175 182.9,179.2 180.9,183.3 176.7,184.9 " />
<polygon points="177.2,174 180.4,148.1 178.4,148 171.2,173.7 " />
<polygon points="168.1,85.1 160.9,100.9 153.1,115.5 144.7,128.9 135.6,141.1 126,152 115.8,161.7 105,170.1 93.6,177.1 81.7,182.7 69.3,186.8 68.6,185.1 80,179.2 90.8,172.5 101,164.8 110.6,156.1 119.7,146.3 128.2,135.5 136.2,123.5 143.7,110.3 150.6,96.1 157,80.6 " />
<polygon points="157,80.6 168.1,85.1 157.5,79.3 " />
<polygon points="168.1,85.1 170.2,88.1 163.1,89.6 " />
<polygon points="58.3,93.6 63.8,95.6 69.1,97.8 73.9,100.4 78.5,103.3 82.7,106.3 86.6,109.5 90.2,113 93.4,116.7 96.4,120.5 99,124.6 88.2,130 86.6,126.4 84.7,122.9 82.5,119.4 79.9,115.9 77,112.5 73.7,109.1 70.1,105.7 66.2,102.3 62,98.8 57.4,95.2 " />
<polygon points="99,124.6 99.2,129.1 96.3,132.6 91.7,132.9 88.2,130 " />
</g>
</svg>
