<svg xmlns="http://www.w3.org/2000/svg" xmlns:xlink="http://www.w3.org/1999/xlink" version="1.1" baseProfile="full" viewBox="0 0 200 200" width="200" height="200">
<g fill="black">
<polygon points="18.8,62 161.8,48 162.1,51.9 19.1,65.9 " />
<polygon points="161.8,48 138.1,52.3 148.8,39.2 " />
<polygon points="11.7,102 181.7,82 182.2,85.9 12.2,105.9 " />
<polygon points="181.7,82 158.1,86.8 168.6,73.4 " />
<polygon points="92,15 92.9,46.3 95.7,74.2 100.4,98.7 106.9,119.7 115.2,137.2 125.1,151.3 136.6,162.1 149.8,169.8 164.8,174.4 182,176 182,188 162.6,186.2 145,180.8 129.4,171.7 116,159.1 104.7,143.2 95.7,124 88.8,101.6 83.9,75.9 80.9,47.1 80,15 " />
<polygon points="80,15 92,15 80,12.6 " />
<polygon points="92,15 95,17 89,21 " />
<polygon points="182,176 186.2,177.8 188,182 186.2,186.2 182,188 " />
<polygon points="182,177 184,151 182,151 176,177 " />
<polygon points="165.1,105.4 153.3,119 140.7,131.5 127.3,142.9 113.1,153.1 98.2,162.1 82.5,169.9 66,176.5 48.8,181.9 30.8,186.1 12.1,188.8 11.8,187.1 29.9,182.4 47.2,176.8 63.6,170.4 79.2,163.1 93.9,154.7 107.8,145.4 121,135.1 133.3,123.8 144.8,111.4 155.6,98.1 " />
<polygon points="155.6,98.1 165.1,105.4 156,97.5 " />
<polygon points="165.1,105.4 166.2,108.8 159,108.3 " />
<polygon points="110.1,15.3 114.6,16 118.8,16.6 122.9,17.3 126.6,18.2 130.1,19.2 133.4,20.4 136.5,21.7 139.3,23.2 142,24.8 144.4,26.7 135.5,34.8 134.4,33.2 133,31.5 131.3,29.8 129.2,28 126.8,26.2 124,24.4 120.9,22.5 117.5,20.7 113.8,18.7 109.7,17.1 " />
<polygon points="144.4,26.7 145.9,31 144,35.2 139.6,36.7 135.5,34.8 " />
</g>
</svg>
