<svg xmlns="http://www.w3.org/2000/svg" xmlns:xlink="http://www.w3.org/1999/xlink" version="1.1" baseProfile="full" viewBox="0 0 200 200" width="200" height="200">
<g fill="black">
<polygon points="30,36 180,36 180,40 30,40 " />
<polygon points="180,36 156,38 168,26 " />
<polygon points="52,65 156,65 156,69 52,69 " />
<polygon points="162,67 162,118 150,124 150,67 " />
<polygon points="150,65 156,60 167,69 162,73 150,67 " />
<polygon points="52,108 156,108 156,112 52,112 " />
<polygon points="58,65 58,110 46,110 46,59 " />
<polygon points="58,110 55.6,113.6 52,116 48.4,113.6 46,110 " />
<polygon points="58,110 57.3,121.1 55.8,131.6 53.5,141.4 50.4,150.7 46.6,159.2 41.9,167.1 36.4,174.2 30.2,180.6 23.2,186.1 15.5,190.7 14.4,189.2 20.8,183.2 26.3,176.9 31.2,170.3 35.4,163.2 38.8,155.7 41.6,147.6 43.7,139.1 45.2,129.9 45.9,120.2 46,110 " />
</g>
</svg>
