<svg xmlns="http://www.w3.org/2000/svg" xmlns:xlink="http://www.w3.org/1999/xlink" version="1.1" baseProfile="full" viewBox="0 0 200 200" width="200" height="200">
<g fill="black">
<polygon points="164.6,31 152.5,33.9 140.6,36.6 129,38.9 117.5,41 106.2,42.7 95.1,44.1 84.3,45.2 73.6,45.9 63.2,46.1 53,45.8 52.9,44.1 62.9,42.3 73.1,40.5 83.4,38.7 94,36.6 104.7,34.3 115.6,31.8 126.8,29.1 138.1,26.1 149.6,22.9 161.4,19.4 " />
<polygon points="160.4,19.7 164.6,31 171.6,29 " />
<polygon points="171.6,29 171.9,32.1 164.8,28.9 " />
<polygon points="59,43 59,110 47,110 47,37 " />
<polygon points="59,110 56.6,113.6 53,116 49.4,113.6 47,110 " />
<polygon points="58.9,109.9 58.4,122.2 57.1,133.7 54.9,144.3 51.9,154 48.1,162.7 43.3,170.5 37.8,177.3 31.4,183 24.2,187.5 16.3,190.8 15.6,189.1 22.1,184.3 27.8,179 32.7,173.1 36.9,166.5 40.3,159.2 43.1,151.1 45.1,142.1 46.5,132.3 47.1,121.6 47,110 " />
<polygon points="53,65 161,65 161,69 53,69 " />
<polygon points="167,67 167,118 155,124 155,67 " />
<polygon points="155,65 161,60 172,69 167,73 155,67 " />
<polygon points="57,108 161,108 161,112 57,112 " />
</g>
</svg>
