<svg xmlns="http://www.w3.org/2000/svg" xmlns:xlink="http://www.w3.org/1999/xlink" version="1.1" baseProfile="full" viewBox="0 0 200 200" width="200" height="200">
<g fill="black">
<polygon points="82.2,19.4 87.8,20.6 93.2,21.9 98.3,23.6 103.1,25.4 107.7,27.4 112.1,29.5 116.2,31.8 120.1,34.3 123.7,36.8 127.1,39.6 118.6,48.1 116.2,45.3 113.4,42.6 110.4,39.9 107.1,37.3 103.6,34.6 99.7,32 95.6,29.4 91.2,26.7 86.5,23.9 81.6,21.1 " />
<polygon points="127.1,39.6 128.8,43.8 127.1,48.1 122.8,49.8 118.6,48.1 " />
<polygon points="59,55 162,55 162,59 59,59 " />
<polygon points="168,57 168,105 156,111 156,57 " />
<polygon points="156,55 162,50 173,59 168,63 156,57 " />
<polygon points="59,95 162,95 162,99 59,99 " />
<polygon points="65,55 65,106 53,106 53,49 " />
<polygon points="65,106 62.6,109.6 59,112 55.4,109.6 53,106 " />
<polygon points="65,106 64.2,116.8 62.5,127.1 59.8,136.8 56.2,146 51.7,154.5 46.2,162.4 39.9,169.6 32.6,176.1 24.4,181.8 15.4,186.7 14.5,185.2 22.2,178.8 29,172.1 34.9,165.2 40,158 44.2,150.4 47.6,142.4 50.2,134 51.9,125.1 52.8,115.8 53,106 " />
</g>
</svg>
