<svg xmlns="http://www.w3.org/2000/svg" xmlns:xlink="http://www.w3.org/1999/xlink" version="1.1" baseProfile="full" viewBox="0 0 200 200" width="200" height="200">
<g fill="black">
<polygon points="15.8,54.2 76.2,54.2 76.2,58.2 15.8,58.2 " />
<polygon points="76.2,54.2 52.2,56.2 64.2,44.2 " />
<polygon points="51.7,17 51.7,172.9 39.7,172.9 39.7,15 " />
<polygon points="51.7,17 54.7,19 51.7,21 " />
<polygon points="51.7,172.9 49.3,176.5 45.7,178.9 42.1,176.5 39.7,172.9 " />
<polygon points="51.7,172.9 51.5,175.4 51.1,177.9 50.3,180.3 49,182.6 47.4,184.6 45.4,186.2 43.1,187.5 40.7,188.3 38.2,188.7 35.7,188.9 35.7,176.9 36.9,176.8 37.8,176.6 38.4,176.4 38.7,176.3 38.9,176.1 39.1,175.9 39.2,175.6 39.4,175 39.6,174.1 39.7,172.9 " />
<polygon points="35.7,182.9 35.7,176.9 15.7,176.9 15.7,179.9 " />
<polygon points="14.8,117.7 20.9,115.1 27,112.4 33.2,109.7 39.2,107 45.3,104.4 51.4,101.7 57.4,99 63.5,96.4 69.6,93.9 75.8,91.6 76.7,93.2 71.4,97.3 66,101.1 60.5,104.8 54.9,108.4 49.2,111.9 43.5,115.3 37.7,118.7 31.8,122 25.9,125.3 20,128.5 " />
<polygon points="20,128.5 14.8,117.7 13,118.6 " />
<polygon points="20,128.5 23.1,130.4 24.1,123.2 " />
<polygon points="90.5,18 90.5,104 79.5,104 79.5,16 " />
<polygon points="90.5,18 93.2,20 90.5,22 " />
<polygon points="90.5,104 88.3,107.3 85,109.5 81.7,107.3 79.5,104 " />
<polygon points="90.5,104 89.9,117.1 88.8,129.3 87.1,140.4 84.8,150.7 81.9,159.9 78.4,168.1 74.3,175.2 69.6,181.3 64.3,186.1 58.4,189.6 57.5,188.3 61.9,183.6 65.7,178.3 69.1,172.2 72,165.3 74.5,157.5 76.5,148.8 78,139 79,128.3 79.5,116.6 79.5,104 " />
<polygon points="65,70 107,70 107,74 65,74 " />
<polygon points="112.5,72 112.5,166 101.5,166 101.5,72 " />
<polygon points="101.5,70 107,65 117.5,74 112.5,77.5 101.5,72 " />
<polygon points="112.5,166 110.3,169.3 107,171.5 103.7,169.3 101.5,166 " />
<polygon points="112.5,166 112.6,167.2 112.8,168.2 113,168.8 113.3,169.2 113.5,169.4 113.8,169.5 114.2,169.7 114.8,169.8 115.7,169.9 117,170 117,182 114.4,181.8 111.9,181.3 109.5,180.4 107.3,179.2 105.4,177.5 103.8,175.5 102.7,173.3 101.9,170.9 101.5,168.5 101.5,166 " />
<polygon points="117,170 121.2,171.8 123,176 121.2,180.2 117,182 " />
<polygon points="117,170 180,170 180,182 117,182 " />
<polygon points="180,170 183.6,172.4 186,176 183.6,179.6 180,182 " />
<polygon points="174,171 180,145 182,145 180,171 " />
<polygon points="120,54 171,54 171,58 120,58 " />
<polygon points="176.9,56 176.7,70.7 176.3,84.1 175.8,96.3 175.1,107.3 174.3,117 173.4,125.6 172.3,133 171.1,139.3 169.7,144.5 167.9,148.9 157.3,143.3 158.3,140.8 159.4,136.6 160.5,131 161.5,124.1 162.4,115.9 163.1,106.4 163.8,95.7 164.3,83.7 164.7,70.4 165,55.9 " />
<polygon points="165,54 171,49 182,58 177,62 171,62 " />
<polygon points="167.9,148.9 164.4,151.8 159.8,151.4 156.9,147.9 157.3,143.3 " />
<polygon points="167.9,148.9 166.6,151 165.2,153 163.5,154.9 161.7,156.5 159.7,157.9 157.6,159 155.3,159.9 152.9,160.5 150.5,160.8 148,161 148,149 149.3,148.9 150.6,148.7 151.7,148.4 152.6,148.1 153.5,147.6 154.3,147 155.1,146.4 155.8,145.5 156.6,144.5 157.3,143.3 " />
<polygon points="148,155 148,149 128,149 128,152 " />
<polygon points="152,19.9 151.5,41.9 150.3,62.2 148.4,80.8 145.7,97.8 142.3,113.2 138.2,126.8 133.2,138.8 127.5,149 120.9,157.3 113.5,163.6 112.4,162.3 117.9,154.9 122.8,146.3 127.2,136.2 130.9,124.5 134.1,111.2 136.6,96.3 138.4,79.7 139.6,61.5 140.1,41.6 140,20 " />
<polygon points="140,20 152,19.9 139.9,17.6 " />
<polygon points="152,19.9 155,21.9 149,25.9 " />
</g>
</svg>
