<svg xmlns="http://www.w3.org/2000/svg" xmlns:xlink="http://www.w3.org/1999/xlink" version="1.1" baseProfile="full" viewBox="0 0 200 200" width="200" height="200">
<g fill="black">
<polygon points="15.2,53 67.4,53 67.4,57 15.2,57 " />
<polygon points="67.4,53 47.4,55 57.4,44 " />
<polygon points="47,16 47,171 35,171 35,14 " />
<polygon points="47,16 50,18 45,21 " />
<polygon points="47,171 44.6,174.6 41,177 37.4,174.6 35,171 " />
<polygon points="47,171 46.8,173.5 46.4,176 45.6,178.4 44.3,180.7 42.7,182.7 40.7,184.3 38.4,185.6 36,186.4 33.5,186.8 31,187 31,175 32.2,174.9 33.1,174.7 33.7,174.5 34,174.4 34.2,174.2 34.4,174 34.5,173.7 34.7,173.1 34.9,172.2 35,171 " />
<polygon points="31,181 31,175 11,175 11,178 " />
<polygon points="13.7,116.2 19,113.6 24.3,110.9 29.6,108.3 34.9,105.6 40.2,102.9 45.4,100.3 50.7,97.6 56,95 61.4,92.5 66.9,90.2 67.8,91.7 63.4,95.7 58.9,99.6 54.2,103.2 49.4,106.8 44.6,110.2 39.6,113.6 34.7,117 29.7,120.3 24.6,123.5 19.5,126.7 " />
<polygon points="19.5,126.7 13.7,116.2 12,117.2 " />
<polygon points="19.5,126.7 22.7,128.4 23.3,121.2 " />
<polygon points="63.7,54 120.9,54 120.9,58 63.7,58 " />
<polygon points="120.9,54 100.9,56 110.9,45 " />
<polygon points="96.5,18 96.5,72 84.5,72 84.5,16 " />
<polygon points="96.5,18 99.5,20 94.5,23 " />
<polygon points="96.5,72 94.1,75.6 90.5,78 86.9,75.6 84.5,72 " />
<polygon points="96.5,72.3 95,89.4 93.1,105.3 90.9,119.9 88.3,133.3 85.4,145.4 82,156.3 78.3,165.9 74.1,174.2 69.4,181.1 64.3,186.5 63,185.4 66.2,179.1 69.3,171.9 72.1,163.6 74.7,154.2 77.1,143.5 79.2,131.6 81,118.4 82.4,104.1 83.6,88.5 84.5,71.6 " />
<polygon points="103,80 103,170 91,170 91,78 " />
<polygon points="103,80 106,82 101,85 " />
<polygon points="103,170 100.6,173.6 97,176 93.4,173.6 91,170 " />
<polygon points="103,170 103.1,171.2 103.2,172.1 103.4,172.7 103.6,173 103.7,173.2 103.9,173.4 104.3,173.5 104.9,173.7 105.8,173.9 107,174 107,186 104.4,185.8 101.9,185.4 99.5,184.6 97.3,183.3 95.3,181.7 93.6,179.7 92.4,177.4 91.6,175 91.1,172.5 91,170 " />
<polygon points="107,174 111.2,175.8 113,180 111.2,184.2 107,186 " />
<polygon points="107,174 187.6,174 187.6,186 107,186 " />
<polygon points="187.6,174 191.2,176.4 193.6,180 191.2,183.6 187.6,186 " />
<polygon points="181.6,175 187.6,149 189.6,149 187.6,175 " />
<polygon points="124.8,54.8 180,54.8 180,58.8 124.8,58.8 " />
<polygon points="186,56.8 185.9,71.7 185.6,85.3 185.3,97.6 184.7,108.8 184.1,118.7 183.2,127.5 182.2,135 181,141.4 179.6,146.8 177.8,151.3 167.1,145.8 168.2,143.1 169.3,138.9 170.4,133.2 171.3,126.1 172.1,117.8 172.8,108.1 173.3,97.2 173.7,85 173.9,71.5 174,56.8 " />
<polygon points="174,54.8 180,49.8 191,58.8 186,61.8 174,66.8 " />
<polygon points="177.8,151.3 174.3,154.2 169.8,153.9 166.8,150.4 167.1,145.8 " />
<polygon points="177.8,151.3 176.6,153.4 175.2,155.5 173.5,157.3 171.7,158.9 169.7,160.3 167.6,161.5 165.3,162.4 162.9,163 160.5,163.3 158,163.5 158,151.5 159.3,151.4 160.6,151.2 161.6,150.9 162.6,150.6 163.4,150.1 164.2,149.5 165,148.9 165.7,148 166.4,147 167.1,145.8 " />
<polygon points="158,157.5 158,151.5 138,151.5 138,154.5 " />
<polygon points="157.2,17.6 157.2,56 145.2,56 145.2,15.6 " />
<polygon points="157.2,17.6 160.2,19.6 155.2,22.6 " />
<polygon points="157.2,56 154.7,59.6 151.2,62 147.6,59.6 145.2,56 " />
<polygon points="157.2,56 156.5,72.3 155,87.5 152.7,101.6 149.6,114.5 145.8,126.2 141.1,136.8 135.5,146.2 129.2,154.2 122,160.9 114.1,166.1 113,164.6 119.4,158.1 125,150.9 129.9,142.7 134.2,133.6 137.7,123.5 140.6,112.2 142.8,99.9 144.3,86.4 145.1,71.7 145.2,56 " />
</g>
</svg>
