<svg xmlns="http://www.w3.org/2000/svg" xmlns:xlink="http://www.w3.org/1999/xlink" version="1.1" baseProfile="full" viewBox="0 0 200 200" width="200" height="200">
<g fill="black">
<polygon points="15.3,54.2 73.1,54.2 73.1,58.2 15.3,58.2 " />
<polygon points="73.1,54.2 53.1,56.2 63.1,45.2 " />
<polygon points="49.9,17 49.9,172.9 37.9,172.9 37.9,15 " />
<polygon points="49.9,17 52.9,19 49.9,21 " />
<polygon points="49.9,172.9 47.5,176.5 43.9,178.9 40.3,176.5 37.9,172.9 " />
<polygon points="49.9,172.9 49.7,175.4 49.3,177.9 48.5,180.3 47.2,182.6 45.6,184.6 43.6,186.2 41.3,187.5 38.9,188.3 36.4,188.7 33.9,188.9 33.9,176.9 35.1,176.8 36,176.6 36.6,176.4 36.9,176.3 37.1,176.1 37.3,175.9 37.4,175.6 37.6,175 37.8,174.1 37.9,172.9 " />
<polygon points="33.9,182.9 33.9,176.9 13.9,176.9 13.9,179.9 " />
<polygon points="14.1,117.8 20,115.1 25.9,112.4 31.7,109.8 37.6,107.1 43.4,104.4 49.2,101.7 55,99.1 60.8,96.4 66.7,94 72.7,91.6 73.6,93.2 68.6,97.2 63.5,101.1 58.2,104.8 52.9,108.4 47.4,111.8 42,115.3 36.4,118.6 30.8,122 25.2,125.2 19.5,128.5 " />
<polygon points="19.5,128.5 14.1,117.8 12.3,118.7 " />
<polygon points="19.5,128.5 22.6,130.2 23.5,123.1 " />
<polygon points="69.8,28 188.8,28 188.8,32 69.8,32 " />
<polygon points="188.8,28 164.8,30 176.8,18 " />
<polygon points="91.9,28 91.9,153 79.9,153 79.9,28 " />
<polygon points="85.9,65 116,65 116,69 85.9,69 " />
<polygon points="85.9,106 116,106 116,110 85.9,110 " />
<polygon points="69.1,152 73.4,150.6 77.8,149.2 82.3,147.8 86.8,146.5 91.4,145.2 96.1,143.9 100.9,142.8 105.7,141.7 110.6,140.8 115.7,140.1 116.2,141.8 111.8,144.3 107.4,146.6 103,148.8 98.7,151 94.4,153 90.1,155.1 85.9,157.1 81.8,159.1 77.7,161.1 73.7,163.1 " />
<polygon points="73.7,163.1 69.1,152 67.2,152.8 " />
<polygon points="73.7,163.1 76.7,165.1 78.1,158 " />
<polygon points="122,28 122,182 110,188 110,28 " />
<polygon points="116,46 178.3,46 178.3,50 116,50 " />
<polygon points="184.2,48.8 180.6,68.9 176.5,87.6 171.9,104.9 166.6,120.8 160.8,135.3 154.4,148.4 147.4,160 139.8,170.2 131.6,178.8 122.8,185.6 121.7,184.3 128.9,176.2 135.6,167 141.8,156.6 147.6,145 153,132.1 157.8,117.8 162.2,102.2 166.1,85.2 169.4,66.8 172.3,47.1 " />
<polygon points="172.3,46 178.3,41 189.3,50 184.3,54 178.3,54 " />
<polygon points="137.2,46.9 140.3,65.5 143.6,82.7 147.5,98.7 151.8,113.3 156.7,126.6 162.2,138.5 168.3,149.1 174.8,158.3 181.9,166.2 189.4,172.9 181.1,183 172.8,174.8 165.3,165.3 158.7,154.7 153,142.8 148,129.8 143.8,115.6 140.4,100.3 137.8,83.7 136.1,66 135.4,47 " />
<polygon points="181.1,183 189.4,172.9 191.9,174.9 " />
</g>
</svg>
