<svg xmlns="http://www.w3.org/2000/svg" xmlns:xlink="http://www.w3.org/1999/xlink" version="1.1" baseProfile="full" viewBox="0 0 200 200" width="200" height="200">
<g fill="black">
<polygon points="15.3,54.2 73.1,54.2 73.1,58.2 15.3,58.2 " />
<polygon points="73.1,54.2 53.1,56.2 63.1,45.2 " />
<polygon points="49.9,17 49.9,172.9 37.9,172.9 37.9,15 " />
<polygon points="49.9,17 52.9,19 47.9,22 " />
<polygon points="49.9,172.9 47.5,176.5 43.9,178.9 40.3,176.5 37.9,172.9 " />
<polygon points="49.9,172.9 49.7,175.4 49.3,177.9 48.5,180.3 47.2,182.6 45.6,184.6 43.6,186.2 41.3,187.5 38.9,188.3 36.4,188.7 33.9,188.9 33.9,176.9 35.1,176.8 36,176.6 36.6,176.4 36.9,176.3 37.1,176.1 37.3,175.9 37.4,175.6 37.6,175 37.8,174.1 37.9,172.9 " />
<polygon points="33.9,182.9 33.9,176.9 13.9,176.9 13.9,179.9 " />
<polygon points="14.1,117.8 20,115.1 25.9,112.4 31.7,109.8 37.6,107.1 43.4,104.4 49.2,101.7 55,99.1 60.8,96.4 66.7,94 72.7,91.6 73.6,93.2 68.6,97.2 63.5,101.1 58.2,104.8 52.9,108.4 47.4,111.8 42,115.3 36.4,118.6 30.8,122 25.2,125.2 19.5,128.5 " />
<polygon points="19.5,128.5 14.1,117.8 12.3,118.7 " />
<polygon points="19.5,128.5 22.6,130.2 23.5,123.1 " />
<polygon points="70.7,28 140.9,28 140.9,32 70.7,32 " />
<polygon points="140.9,28 120.9,30 130.9,19 " />
<polygon points="92.7,28 92.7,153 80.7,153 80.7,28 " />
<polygon points="122.6,28 122.6,182 110.6,188 110.6,28 " />
<polygon points="86.7,65 116.6,65 116.6,69 86.7,69 " />
<polygon points="86.7,106 116.6,106 116.6,110 86.7,110 " />
<polygon points="70,152 74.3,150.6 78.7,149.2 83.1,147.8 87.6,146.5 92.2,145.2 96.8,144 101.6,142.8 106.4,141.7 111.3,140.9 116.3,140.1 116.8,141.8 112.4,144.3 108.1,146.6 103.7,148.8 99.4,150.9 95.1,153 90.9,155.1 86.8,157.1 82.7,159.1 78.6,161.1 74.6,163.1 " />
<polygon points="74.6,163.1 70,152 68.1,152.8 " />
<polygon points="74.6,163.1 77.6,165.1 79,158 " />
<polygon points="118.6,46 178.4,46 178.4,50 118.6,50 " />
<polygon points="184.3,48.8 180.8,68.9 176.7,87.6 172.1,104.9 166.9,120.8 161.1,135.3 154.8,148.4 147.8,160 140.3,170.2 132.1,178.8 123.4,185.6 122.2,184.3 129.4,176.2 136,167 142.2,156.6 148,145 153.3,132.1 158.1,117.8 162.4,102.2 166.3,85.2 169.6,66.9 172.5,47.1 " />
<polygon points="172.4,46 178.4,41 189.4,50 184.4,53 172.4,58 " />
<polygon points="137.7,46.9 140.7,65.5 144.1,82.7 147.9,98.7 152.2,113.3 157.1,126.6 162.5,138.5 168.5,149.1 175,158.3 182.1,166.2 189.6,172.9 181.1,183 172.9,174.8 165.5,165.3 159,154.7 153.3,142.8 148.3,129.8 144.2,115.6 140.8,100.3 138.2,83.7 136.6,66 135.9,47 " />
<polygon points="181.1,183 189.6,172.9 192,174.9 " />
</g>
</svg>
