<svg xmlns="http://www.w3.org/2000/svg" xmlns:xlink="http://www.w3.org/1999/xlink" version="1.1" baseProfile="full" viewBox="0 0 200 200" width="200" height="200">
<g fill="black">
<polygon points="90.4,19.6 86.2,31.6 81.2,43.1 75.7,54 69.5,64.3 62.6,74.1 55.1,83.3 46.9,91.9 38.1,99.9 28.6,107.2 18.5,113.7 17.4,112.2 26.2,104.2 34.5,96 42.1,87.5 49.2,78.6 55.7,69.3 61.5,59.5 66.8,49.4 71.4,38.8 75.5,27.7 78.9,16.2 " />
<polygon points="78.6,17.2 90.4,19.6 79.4,14.6 " />
<polygon points="90.4,19.6 92.7,22.4 87.1,23.8 " />
<polygon points="67,61 183,61 183,65 67,65 " />
<polygon points="183,61 159,63 171,51 " />
<polygon points="144.8,64.3 139.3,82.6 132.1,99.6 123.1,115.3 112.5,129.7 100.2,142.7 86.2,154.4 70.6,164.6 53.4,173.5 34.6,180.9 14.2,186.8 13.7,185.1 33.2,177.4 51,168.7 67.1,159.1 81.5,148.4 94.2,136.7 105.2,123.9 114.6,110 122.4,95 128.5,78.9 133.1,61.6 " />
<polygon points="66,66.8 71.3,82.5 77.6,97 85.2,110.3 94.1,122.3 104.3,133.1 115.9,142.8 128.9,151.4 143.4,158.9 159.3,165.3 176.7,170.6 173.2,183.3 154.9,177 138.2,169.5 123.1,160.8 109.6,150.9 97.7,139.7 87.5,127.4 79,114 72.2,99.4 67.3,83.8 64.3,67.1 " />
<polygon points="173.2,183.3 176.7,170.6 184.9,172.9 " />
</g>
</svg>
