<svg xmlns="http://www.w3.org/2000/svg" xmlns:xlink="http://www.w3.org/1999/xlink" version="1.1" baseProfile="full" viewBox="0 0 200 200" width="200" height="200">
<g fill="black">
<polygon points="97,52 181,52 181,56 97,56 " />
<polygon points="181,52 157,54 169,42 " />
<polygon points="103,18 103,93 91,93 91,16 " />
<polygon points="103,18 106,20 103,22 " />
<polygon points="49,89 143,89 143,93 49,93 " />
<polygon points="148.7,92.7 143,106.8 135.9,119.9 127.3,132 117.3,143 105.9,153 93.1,161.9 78.9,169.8 63.4,176.6 46.5,182.3 28.2,186.8 27.7,185.1 45.2,178.7 61.2,171.7 75.8,164 88.9,155.6 100.5,146.4 110.7,136.5 119.4,125.8 126.7,114.4 132.6,102.2 137.2,89.2 " />
<polygon points="137,89 143,84 154,93 149,97 143,97 " />
<polygon points="67,91.7 71.6,104.2 77.1,115.6 83.8,125.9 91.6,135.3 100.6,143.7 110.9,151.2 122.5,157.9 135.4,163.6 149.8,168.5 165.5,172.5 162.4,185.4 145.9,180.4 130.9,174.5 117.2,167.6 105.1,159.6 94.4,150.7 85.3,140.8 77.7,129.9 71.8,118.1 67.6,105.5 65.3,92.1 " />
<polygon points="162.4,185.4 165.5,172.5 174.2,174.6 " />
</g>
</svg>
