<svg xmlns="http://www.w3.org/2000/svg" xmlns:xlink="http://www.w3.org/1999/xlink" version="1.1" baseProfile="full" viewBox="0 0 200 200" width="200" height="200">
<g fill="black">
<polygon points="16,86 100,86 100,90 16,90 " />
<polygon points="100,86 76,88 88,76 " />
<polygon points="70.2,70 66.4,78.3 62.2,86.3 57.5,94 52.3,101.4 46.7,108.5 40.7,115.3 34.1,121.7 27.1,127.8 19.6,133.5 11.5,138.7 10.4,137.2 17.1,130.6 23.4,123.9 29.4,117.2 34.9,110.3 40,103.4 44.7,96.2 48.9,88.9 52.7,81.4 56,73.6 59,65.7 " />
<polygon points="58.6,66.7 70.2,70 59.5,64.4 " />
<polygon points="70.2,70 72.3,73 66.6,74 " />
<polygon points="24,104 85,104 85,108 24,108 " />
<polygon points="90.1,109 88.2,111.3 86.2,113.6 84,115.7 81.8,117.8 79.5,119.7 77.1,121.5 74.5,123.2 71.9,124.8 69.1,126.1 66.5,127.7 65.4,126.2 67.5,124.1 69.2,121.7 70.9,119.3 72.4,117 73.9,114.7 75.3,112.3 76.6,110 77.7,107.7 78.8,105.3 79.8,102.9 " />
<polygon points="79,104 85,99 96,108 91,111 79,116 " />
<polygon points="69,124 69,171 57,171 57,122 " />
<polygon points="69,124 72,126 67,129 " />
<polygon points="69,171 66.6,174.6 63,177 59.4,174.6 57,171 " />
<polygon points="69,171 68.8,173.5 68.4,176 67.6,178.4 66.3,180.7 64.7,182.7 62.7,184.3 60.4,185.6 58,186.4 55.5,186.8 53,187 53,175 54.2,174.9 55.1,174.7 55.7,174.5 56,174.4 56.2,174.2 56.4,174 56.5,173.7 56.7,173.1 56.9,172.2 57,171 " />
<polygon points="53,181 53,175 33,175 33,178 " />
<polygon points="19.5,148.9 26.4,147.6 33.8,146.1 41.7,144.5 50,142.7 58.9,140.8 68.2,138.8 78,136.6 88.4,134.4 99.3,132.2 110.7,130.1 111.2,131.8 100.3,135.9 89.8,139.6 79.8,143 70.2,146.1 61,149 52.3,151.7 44.1,154.2 36.4,156.5 29.1,158.6 22.3,160.6 " />
<polygon points="22.3,160.6 19.5,148.9 17.6,149.3 " />
<polygon points="22.3,160.6 24.9,163 27.5,156.3 " />
<polygon points="138.1,16.2 135.4,26.2 132.3,35.9 128.9,45.2 125.2,54.2 121.1,62.9 116.7,71.2 111.9,79.2 106.8,86.8 101.2,93.9 95.2,100.5 93.8,99.4 98.1,91.7 102.2,83.9 106.2,76 109.9,67.9 113.4,59.5 116.5,50.8 119.4,41.9 122.1,32.8 124.4,23.3 126.4,13.6 " />
<polygon points="126.2,14.6 138.1,16.2 126.8,11.8 " />
<polygon points="138.1,16.2 140.6,18.8 135.1,20.7 " />
<polygon points="117.3,61 187.6,61 187.6,65 117.3,65 " />
<polygon points="187.6,61 163.6,63 175.6,51 " />
<polygon points="167,63.7 163.7,82.7 159.1,100.5 153.3,116.8 146.1,131.7 137.7,145.1 128,157 117,167.4 104.8,176.2 91.3,183.3 76.8,188.8 76.1,187.1 89.6,180 101.7,171.8 112.6,162.5 122.2,152 130.6,140.3 137.9,127.4 143.9,113.1 148.8,97.5 152.5,80.6 155,62.2 " />
<polygon points="112.6,73.8 116.3,88.2 120.6,101.6 125.6,113.9 131.3,125.1 137.9,135.4 145.2,144.6 153.4,152.9 162.3,160.2 172.2,166.5 182.9,172 177.1,183.9 165.6,177.2 155.1,169.5 145.7,160.8 137.3,151.1 130.1,140.5 123.9,129 118.9,116.6 114.9,103.3 112.2,89.1 110.8,74.1 " />
<polygon points="177.1,183.9 182.9,172 188.5,174.7 " />
<polygon points="96.9,21.6 90.1,28 83.1,34.2 75.8,40 68.2,45.4 60.3,50.5 52.1,55.3 43.7,59.7 34.9,63.7 25.8,67.2 16.3,70.3 15.6,68.6 24.2,63.8 32.4,58.9 40.4,54 48.1,48.8 55.6,43.5 62.7,38 69.5,32.2 76,26.2 82.2,19.9 88.1,13.4 " />
<polygon points="87.4,14.1 96.9,21.6 88.4,13.1 " />
<polygon points="96.9,21.6 97.7,25.1 92,23.9 " />
<polygon points="25.1,21.9 32.9,24.4 40.4,27.3 47.6,30.5 54.5,33.9 61.2,37.6 67.5,41.4 73.6,45.4 79.5,49.6 85.1,53.9 90.4,58.5 82.1,67.1 77.5,62.5 72.7,57.9 67.6,53.4 62.2,49 56.5,44.7 50.6,40.4 44.4,36.2 38,32.1 31.3,27.8 24.4,23.5 " />
<polygon points="90.4,58.5 92.2,62.7 90.6,67 86.4,68.7 82.1,67.1 " />
</g>
</svg>
