<svg xmlns="http://www.w3.org/2000/svg" xmlns:xlink="http://www.w3.org/1999/xlink" version="1.1" baseProfile="full" viewBox="0 0 200 200" width="200" height="200">
<g fill="black">
<polygon points="19,37 103,37 103,41 19,41 " />
<polygon points="103,37 79,39 91,27 " />
<polygon points="25,64 95,64 95,68 25,68 " />
<polygon points="95,64 71,66 83,54 " />
<polygon points="64,19 64,97 52,97 52,17 " />
<polygon points="64,19 67,21 62,24 " />
<polygon points="16,93 101,93 101,97 16,97 " />
<polygon points="101,93 77,95 89,83 " />
<polygon points="51,121 93,121 93,125 51,125 " />
<polygon points="98.9,123.3 98.4,130.1 97.7,136.5 96.7,142.5 95.6,148.1 94.2,153.4 92.5,158.2 90.6,162.7 88.4,166.8 86,170.5 83.2,173.8 74.5,165.6 76.4,163.3 78.1,160.7 79.8,157.6 81.3,154 82.7,149.9 83.9,145.4 84.9,140.4 85.8,134.9 86.5,129 87,122.6 " />
<polygon points="87,121 93,116 104,125 99,128 87,133 " />
<polygon points="83.2,173.8 79,175.6 74.7,174.1 72.9,169.9 74.5,165.6 " />
<polygon points="83.2,173.8 81.5,175.5 79.6,177.1 77.7,178.4 75.7,179.6 73.5,180.7 71.3,181.5 69.1,182.1 66.7,182.6 64.4,182.9 62,183 62,171 63.5,170.9 64.9,170.7 66.3,170.5 67.6,170.1 68.8,169.6 70,169 71.2,168.4 72.3,167.6 73.4,166.6 74.5,165.6 " />
<polygon points="42,174 42,171 62,171 62,177 " />
<polygon points="54.9,95 54.9,95.1 53.9,107.6 52.1,119.4 49.7,130.5 46.5,141.1 42.6,151 38.1,160.2 32.8,168.8 26.8,176.6 20,183.5 12.6,189.6 11.3,188.3 17.2,181 22.5,173.3 27.2,165.3 31.3,156.9 34.8,147.9 37.6,138.4 39.9,128.4 41.5,117.7 42.6,106.5 42.9,95 " />
<polygon points="141.7,16.2 139.1,26.2 136.2,35.8 132.9,45.2 129.4,54.2 125.5,62.8 121.3,71.2 116.8,79.1 111.9,86.7 106.5,93.8 100.8,100.5 99.3,99.4 103.4,91.8 107.2,84 110.9,76.1 114.4,67.9 117.7,59.5 120.7,50.9 123.4,42 125.9,32.9 128.1,23.4 130,13.7 " />
<polygon points="130.4,11.9 141.7,16.2 129.8,14.7 " />
<polygon points="141.7,16.2 144.2,18.7 138.7,20.6 " />
<polygon points="121.7,61 188.3,61 188.3,65 121.7,65 " />
<polygon points="188.3,61 164.3,63 176.3,51 " />
<polygon points="169,63.6 165.9,82.7 161.6,100.4 156,116.7 149.2,131.6 141.2,145 132,156.9 121.5,167.3 109.9,176.2 97.1,183.3 83.3,188.8 82.6,187.1 95.3,180 106.8,171.8 117,162.5 126.1,152.1 134.1,140.4 140.9,127.5 146.6,113.2 151.2,97.6 154.7,80.6 157.1,62.3 " />
<polygon points="117.3,73.8 120.8,88.3 124.9,101.6 129.7,113.9 135.2,125.2 141.4,135.5 148.4,144.7 156.1,153 164.6,160.3 173.9,166.6 184,172.1 178.1,183.8 167.1,177.1 157.2,169.4 148.2,160.7 140.3,151 133.5,140.4 127.7,128.9 122.9,116.5 119.3,103.2 116.7,89.1 115.5,74.1 " />
<polygon points="178.1,183.8 184,172.1 189.3,174.8 " />
</g>
</svg>
