<svg xmlns="http://www.w3.org/2000/svg" xmlns:xlink="http://www.w3.org/1999/xlink" version="1.1" baseProfile="full" viewBox="0 0 200 200" width="200" height="200">
<g fill="black">
<polygon points="27,41 86,41 86,45 27,45 " />
<polygon points="86,41 66,43 76,32 " />
<polygon points="63,14 63,82 51,82 51,12 " />
<polygon points="63,14 66,16 61,19 " />
<polygon points="16,78 109,78 109,82 16,82 " />
<polygon points="109,78 85,80 97,68 " />
<polygon points="108.9,28.4 101.9,41.6 94.3,54.3 86.1,66.5 77.3,78.3 67.9,89.6 57.8,100.5 47.2,110.9 36,120.7 24.1,130 11.5,138.7 10.4,137.2 21.6,127.1 32.4,116.8 42.6,106.2 52.2,95.4 61.3,84.2 69.8,72.7 77.8,60.9 85.1,48.7 91.9,36.2 98.1,23.3 " />
<polygon points="97.7,24.2 108.9,28.4 98.7,22.1 " />
<polygon points="108.9,28.4 110.8,31.5 105,32.1 " />
<polygon points="24,98 85,98 85,102 24,102 " />
<polygon points="90.3,102.6 88.4,105.4 86.4,108.1 84.2,110.6 82,112.9 79.6,115.1 77.2,117.2 74.6,119 71.9,120.7 69.1,122.1 66.5,123.7 65.4,122.2 67.5,120.1 69.2,117.6 70.8,115.2 72.3,112.7 73.8,110.3 75.1,107.8 76.4,105.2 77.5,102.6 78.6,100 79.6,97.3 " />
<polygon points="79,98 85,93 96,102 91,105 79,110 " />
<polygon points="69,120 69,171 57,171 57,118 " />
<polygon points="69,120 72,122 67,125 " />
<polygon points="69,171 66.6,174.6 63,177 59.4,174.6 57,171 " />
<polygon points="69,171 68.8,173.5 68.4,176 67.6,178.4 66.3,180.7 64.7,182.7 62.7,184.3 60.4,185.6 58,186.4 55.5,186.8 53,187 53,175 54.2,174.9 55.1,174.7 55.7,174.5 56,174.4 56.2,174.2 56.4,174 56.5,173.7 56.7,173.1 56.9,172.2 57,171 " />
<polygon points="53,181 53,175 33,175 33,178 " />
<polygon points="19.6,146.9 26.6,145.5 34.1,144 42,142.3 50.4,140.4 59.3,138.3 68.6,136.1 78.4,133.7 88.6,131.2 99.4,128.6 110.7,126.1 111.2,127.8 100.5,132.3 90.2,136.3 80.3,140 70.7,143.4 61.6,146.5 52.9,149.3 44.6,152 36.7,154.4 29.3,156.6 22.3,158.6 " />
<polygon points="22.3,158.6 19.6,146.9 17.6,147.3 " />
<polygon points="22.3,158.6 24.9,161.1 27.4,154.3 " />
<polygon points="138.1,16.2 135.4,26.2 132.3,35.9 128.9,45.2 125.2,54.2 121.1,62.9 116.7,71.2 111.9,79.2 106.8,86.8 101.2,93.9 95.2,100.5 93.8,99.4 98.1,91.7 102.2,83.9 106.2,76 109.9,67.9 113.4,59.5 116.5,50.8 119.4,41.9 122.1,32.8 124.4,23.3 126.4,13.6 " />
<polygon points="126.2,14.6 138.1,16.2 126.8,11.8 " />
<polygon points="138.1,16.2 140.6,18.8 135.1,20.7 " />
<polygon points="117.3,61 187.6,61 187.6,65 117.3,65 " />
<polygon points="187.6,61 163.6,63 175.6,51 " />
<polygon points="167,63.7 163.7,82.7 159.1,100.5 153.3,116.8 146.1,131.7 137.7,145.1 128,157 117,167.4 104.8,176.2 91.3,183.3 76.8,188.8 76.1,187.1 89.6,180 101.7,171.8 112.6,162.5 122.2,152 130.6,140.3 137.9,127.4 143.9,113.1 148.8,97.5 152.5,80.6 155,62.2 " />
<polygon points="112.6,73.8 116.3,88.2 120.6,101.6 125.6,113.9 131.3,125.1 137.9,135.4 145.2,144.6 153.4,152.9 162.3,160.2 172.2,166.5 182.9,172 177.1,183.9 165.6,177.2 155.1,169.5 145.7,160.8 137.3,151.1 130.1,140.5 123.9,129 118.9,116.6 114.9,103.3 112.2,89.1 110.8,74.1 " />
<polygon points="177.1,183.9 182.9,172 188.5,174.7 " />
</g>
</svg>
