<svg xmlns="http://www.w3.org/2000/svg" xmlns:xlink="http://www.w3.org/1999/xlink" version="1.1" baseProfile="full" viewBox="0 0 200 200" width="200" height="200">
<g fill="black">
<polygon points="57.4,28.3 57.4,147.6 45.4,153.6 45.4,22.3 " />
<polygon points="51.4,28.3 148.6,28.3 148.6,32.3 51.4,32.3 " />
<polygon points="154.6,30.3 154.6,141.6 142.6,147.6 142.6,30.3 " />
<polygon points="142.6,28.3 148.6,23.3 159.6,32.3 154.6,36.3 142.6,30.3 " />
<polygon points="51.4,78.4 148.6,78.4 148.6,82.4 51.4,82.4 " />
<polygon points="51.4,131.6 148.6,131.6 148.6,135.6 51.4,135.6 " />
<polygon points="14,169 186,169 186,173 14,173 " />
<polygon points="186,169 162,171 174,159 " />
</g>
</svg>
