<svg xmlns="http://www.w3.org/2000/svg" xmlns:xlink="http://www.w3.org/1999/xlink" version="1.1" baseProfile="full" viewBox="0 0 200 200" width="200" height="200">
<g fill="black">
<polygon points="59.6,26.4 59.6,104 47.6,110 47.6,20.4 " />
<polygon points="53.6,26.4 146.3,26.4 146.3,30.4 53.6,30.4 " />
<polygon points="152.3,28.4 152.3,101 140.3,107 140.3,28.4 " />
<polygon points="140.3,26.4 146.3,21.4 157.3,30.4 152.3,34.4 140.3,28.4 " />
<polygon points="53.6,58.7 146.3,58.7 146.3,62.7 53.6,62.7 " />
<polygon points="53.6,93 146.3,93 146.3,97 53.6,97 " />
<polygon points="51,118 51,182 39,182 39,112 " />
<polygon points="45,118 155,118 155,122 45,122 " />
<polygon points="161,120 161,182 149,182 149,120 " />
<polygon points="149,118 155,113 166,122 161,126 149,120 " />
<polygon points="88,118 88,182 76,182 76,118 " />
<polygon points="124,118 124,182 112,182 112,118 " />
<polygon points="12,178 188,178 188,182 12,182 " />
<polygon points="188,178 164,180 176,168 " />
</g>
</svg>
