<svg xmlns="http://www.w3.org/2000/svg" xmlns:xlink="http://www.w3.org/1999/xlink" version="1.1" baseProfile="full" viewBox="0 0 200 200" width="200" height="200">
<g fill="black">
<polygon points="27.2,30.7 173.7,30.7 173.7,34.7 27.2,34.7 " />
<polygon points="173.7,30.7 149.7,32.7 161.7,20.7 " />
<polygon points="86.6,30.7 86.6,97.6 74.6,97.6 74.6,30.7 " />
<polygon points="125.4,30.7 125.4,97.6 113.4,97.6 113.4,30.7 " />
<polygon points="29.5,46.9 34.6,49.1 39.4,51.2 43.8,53.6 47.9,56.2 51.6,58.9 54.9,61.8 57.9,64.8 60.6,68 62.9,71.4 64.8,74.9 53.5,79 52.7,76.4 51.6,73.6 50.1,70.7 48.2,67.8 45.9,64.7 43.2,61.6 40.1,58.5 36.7,55.2 32.9,51.9 28.6,48.5 " />
<polygon points="64.8,74.9 64.5,79.5 61.2,82.6 56.7,82.4 53.5,79 " />
<polygon points="170.6,52 168.2,55.2 165.6,58.3 162.8,61.3 159.9,64.3 156.7,67.3 153.3,70.3 149.7,73.2 145.8,76 141.7,78.7 137.4,81.4 136.2,80 139.5,76.2 142.5,72.4 145.4,68.8 148.1,65.3 150.6,61.9 153,58.5 155.1,55.3 157,52.1 158.7,49 160.2,45.9 " />
<polygon points="159.7,46.8 170.6,52 160.8,45 " />
<polygon points="170.6,52 172.1,55.3 166.3,55.3 " />
<polygon points="20.4,93.6 179.5,93.6 179.5,97.6 20.4,97.6 " />
<polygon points="179.5,93.6 155.5,95.6 167.5,83.6 " />
<polygon points="58.3,115.2 58.3,181 46.3,187 46.3,109.2 " />
<polygon points="52.3,115.2 147.6,115.2 147.6,119.2 52.3,119.2 " />
<polygon points="153.6,117.2 153.6,178 141.6,184 141.6,117.2 " />
<polygon points="141.6,115.2 147.6,110.2 158.6,119.2 153.6,123.2 141.6,117.2 " />
<polygon points="52.3,141.8 147.6,141.8 147.6,145.8 52.3,145.8 " />
<polygon points="52.3,170 147.6,170 147.6,174 52.3,174 " />
</g>
</svg>
