<svg xmlns="http://www.w3.org/2000/svg" xmlns:xlink="http://www.w3.org/1999/xlink" version="1.1" baseProfile="full" viewBox="0 0 200 200" width="200" height="200">
<g fill="black">
<polygon points="27,31 172,31 172,35 27,35 " />
<polygon points="172,31 148,33 160,21 " />
<polygon points="19,96 179,96 179,100 19,100 " />
<polygon points="179,96 155,98 167,86 " />
<polygon points="70,43.4 67.5,47.9 64.9,52.4 62.2,56.7 59.3,60.9 56.4,64.9 53.4,68.8 50.2,72.5 46.9,76.1 43.4,79.4 39.6,82.5 38.3,81.4 40.5,77.2 42.7,73 44.9,68.8 47.1,64.7 49.3,60.5 51.4,56.2 53.4,51.8 55.4,47.4 57.3,42.9 59.1,38.4 " />
<polygon points="59.1,38.4 70,43.4 59.6,37.2 " />
<polygon points="70,43.4 71.9,46.4 64.8,47.6 " />
<polygon points="27.6,78.9 31.9,78.2 36.6,77.4 41.5,76.5 46.6,75.6 52.1,74.5 57.8,73.5 63.8,72.3 70.1,71.2 76.8,70.1 83.7,69.1 84.2,70.8 77.8,73.7 71.6,76.3 65.6,78.6 59.8,80.8 54.3,82.7 49,84.6 43.9,86.3 39.1,87.8 34.6,89.3 30.3,90.6 " />
<polygon points="30.3,90.6 27.6,78.9 25.6,79.3 " />
<polygon points="30.3,90.6 32.9,93.1 35.4,86.3 " />
<polygon points="72.3,54.1 75.1,56.7 78,59.2 80.6,61.8 83.1,64.6 85.3,67.5 87.4,70.6 89.3,73.7 91.1,76.9 92.6,80.1 94,83.5 82.4,86.6 81.9,83.5 81.3,80.5 80.5,77.5 79.6,74.4 78.5,71.3 77.3,68.2 75.9,65 74.4,61.8 72.9,58.5 70.9,55.3 " />
<polygon points="94,83.5 93.3,88 89.7,90.9 85.2,90.2 82.4,86.6 " />
<polygon points="139,43.4 136.5,47.9 133.9,52.3 131.3,56.6 128.5,60.8 125.7,64.8 122.8,68.7 119.7,72.5 116.6,76 113.2,79.4 109.7,82.5 108.2,81.4 110.2,77.2 112.3,73 114.4,68.9 116.4,64.7 118.5,60.5 120.5,56.2 122.5,51.9 124.4,47.5 126.3,43 128.1,38.4 " />
<polygon points="128.1,38.4 139,43.4 128.6,37.2 " />
<polygon points="139,43.4 140.9,46.4 133.8,47.6 " />
<polygon points="100.4,78.9 104.2,78.2 108.4,77.4 112.9,76.5 117.8,75.6 123.1,74.5 128.6,73.5 134.6,72.3 140.9,71.2 147.6,70.1 154.7,69.1 155.2,70.8 148.6,73.7 142.4,76.3 136.4,78.6 130.7,80.8 125.3,82.7 120.3,84.5 115.6,86.2 111.2,87.8 107.2,89.2 103.4,90.5 " />
<polygon points="103.4,90.5 100.4,78.9 98.5,79.4 " />
<polygon points="103.4,90.5 106.1,92.9 108.5,86.1 " />
<polygon points="143.3,54.1 146,56.7 148.8,59.1 151.4,61.5 153.7,64 155.8,66.5 157.7,69.1 159.4,71.7 160.9,74.4 162.2,77.1 163.2,79.8 151.5,82.2 151.4,80.1 151.1,77.8 150.7,75.4 150,72.9 149.2,70.3 148.1,67.5 146.9,64.6 145.5,61.6 144,58.4 141.9,55.3 " />
<polygon points="163.2,79.8 162.3,84.3 158.5,86.9 154.1,86 151.5,82.2 " />
<polygon points="58,115 58,181 46,187 46,109 " />
<polygon points="52,115 147,115 147,119 52,119 " />
<polygon points="153,117 153,178 141,184 141,117 " />
<polygon points="141,115 147,110 158,119 153,123 141,117 " />
<polygon points="52,141 147,141 147,145 52,145 " />
<polygon points="52,170 147,170 147,174 52,174 " />
</g>
</svg>
