<svg xmlns="http://www.w3.org/2000/svg" xmlns:xlink="http://www.w3.org/1999/xlink" version="1.1" baseProfile="full" viewBox="0 0 200 200" width="200" height="200">
<g fill="black">
<polygon points="54.3,9.9 58,12.1 61.7,14.3 65.2,16.7 68.4,19.2 71.4,21.9 74.2,24.6 76.7,27.5 79.1,30.5 81.3,33.6 83.2,36.8 72.2,41.6 71.3,38.8 70.1,35.9 68.7,32.9 67.1,30 65.3,27 63.3,23.9 61.1,20.8 58.7,17.7 56.1,14.4 53.2,11.3 " />
<polygon points="83.2,36.8 83.3,41.3 80.2,44.7 75.6,44.8 72.2,41.6 " />
<polygon points="149.2,17.3 146.7,20 144.2,22.8 141.5,25.6 138.6,28.5 135.7,31.5 132.6,34.4 129.4,37.5 126,40.5 122.3,43.5 118.6,46.5 117.3,45.4 119.9,41.3 122.3,37.3 124.7,33.5 127.1,29.9 129.4,26.3 131.6,22.9 133.8,19.6 135.8,16.4 137.7,13.2 139.5,10.2 " />
<polygon points="139.5,10.2 149.2,17.3 140,9.6 " />
<polygon points="149.2,17.3 150.4,20.7 143.2,20.4 " />
<polygon points="38.8,44.7 38.8,113.1 26.8,119.1 26.8,38.7 " />
<polygon points="32.8,44.7 167.2,44.7 167.2,48.7 32.8,48.7 " />
<polygon points="173.2,46.7 173.2,107.1 161.2,113.1 161.2,46.7 " />
<polygon points="161.2,44.7 167.2,39.7 178.2,48.7 173.2,52.7 161.2,46.7 " />
<polygon points="106,44.7 106,101.1 94,101.1 94,44.7 " />
<polygon points="50.4,55.7 54,57.6 57.6,59.4 60.9,61.5 64.1,63.8 67.1,66.3 69.9,69 72.5,71.9 74.9,74.9 77.2,78.1 79.2,81.5 68.3,86.4 67.2,83.3 65.9,80.3 64.5,77.3 62.9,74.3 61.1,71.4 59.2,68.6 57,65.7 54.7,62.8 52.2,59.9 49.4,57.2 " />
<polygon points="79.2,81.5 79.3,86.1 76.2,89.5 71.6,89.5 68.3,86.4 " />
<polygon points="148.3,63.4 145.8,66.2 143.1,69.1 140.3,71.9 137.4,74.9 134.3,77.8 131.2,80.8 127.9,83.8 124.4,86.8 120.7,89.7 116.9,92.7 115.6,91.5 118.3,87.5 120.8,83.5 123.3,79.8 125.7,76.1 128.1,72.6 130.4,69.1 132.7,65.8 134.8,62.5 136.8,59.3 138.7,56.2 " />
<polygon points="138.7,56.2 148.3,63.4 139.2,55.6 " />
<polygon points="148.3,63.4 149.5,66.8 142.3,66.4 " />
<polygon points="32.8,97.1 167.2,97.1 167.2,101.1 32.8,101.1 " />
<polygon points="57.4,119.1 57.4,181.8 45.4,187.8 45.4,113.1 " />
<polygon points="51.4,119.1 148.6,119.1 148.6,123.1 51.4,123.1 " />
<polygon points="154.6,121.1 154.6,180.8 142.6,186.8 142.6,121.1 " />
<polygon points="142.6,119.1 148.6,114.1 159.6,123.1 154.6,127.1 142.6,121.1 " />
<polygon points="51.4,146.1 148.6,146.1 148.6,150.1 51.4,150.1 " />
<polygon points="51.4,174.8 148.6,174.8 148.6,178.8 51.4,178.8 " />
</g>
</svg>
