<svg xmlns="http://www.w3.org/2000/svg" xmlns:xlink="http://www.w3.org/1999/xlink" version="1.1" baseProfile="full" viewBox="0 0 200 200" width="200" height="200">
<g fill="black">
<polygon points="51,40 51,122 39,128 39,34 " />
<polygon points="45,40 154,40 154,44 45,44 " />
<polygon points="160,42 160,110 148,116 148,42 " />
<polygon points="148,40 154,35 165,44 160,48 148,42 " />
<polygon points="45,72 154,72 154,76 45,76 " />
<polygon points="45,106 154,106 154,110 45,110 " />
<polygon points="102,14.8 103.9,51.2 107.6,81.9 113,107.5 119.7,128.2 127.5,144.4 136.1,156.6 145.3,165.2 154.9,170.9 164.7,174 175,175 175,187 162.4,185.8 150,181.8 138.1,174.8 127.1,164.5 117.1,150.5 108.5,132.6 101.4,110.5 95.8,83.9 91.9,52.2 90,15.1 " />
<polygon points="90,15.1 102,14.8 89.9,12.7 " />
<polygon points="102,14.8 105,16.7 99.1,20.9 " />
<polygon points="175,175 179.2,176.8 181,181 179.2,185.2 175,187 " />
<polygon points="175,176 177,150 175,150 169,176 " />
<polygon points="162.7,123.8 151.5,134.5 139.7,144.3 127.2,153.2 114,161.1 100.2,168.2 85.7,174.3 70.5,179.5 54.7,183.6 38.2,186.8 21.1,188.8 20.8,187.1 37.4,183.1 53.3,178.5 68.4,173.2 82.7,167.3 96.4,160.6 109.3,153.1 121.5,144.9 133,135.9 143.8,126.1 153.9,115.6 " />
<polygon points="153.9,115.6 162.7,123.8 154.2,115.2 " />
<polygon points="162.7,123.8 163.5,127.3 156.4,126.1 " />
</g>
</svg>
