<svg xmlns="http://www.w3.org/2000/svg" xmlns:xlink="http://www.w3.org/1999/xlink" version="1.1" baseProfile="full" viewBox="0 0 200 200" width="200" height="200">
<g fill="black">
<polygon points="56,24 56,94 44,100 44,18 " />
<polygon points="50,24 146,24 146,28 50,28 " />
<polygon points="152,26 152,86 140,92 140,26 " />
<polygon points="140,24 146,19 157,28 152,32 140,26 " />
<polygon points="50,51 146,51 146,55 50,55 " />
<polygon points="50,78 146,78 146,82 50,82 " />
<polygon points="82.8,84.7 78,92.3 72.9,99.7 67.4,106.8 61.5,113.7 55.2,120.3 48.5,126.6 41.4,132.7 33.9,138.4 25.9,143.8 17.5,148.7 16.4,147.2 23.6,140.7 30.5,134.3 37,127.8 43.2,121.2 49,114.6 54.4,107.7 59.4,100.8 64,93.7 68.3,86.4 72.2,79 " />
<polygon points="72.2,79 82.8,84.7 72.7,78 " />
<polygon points="82.8,84.7 84.5,87.9 77.3,88.5 " />
<polygon points="62,103 166,103 166,107 62,107 " />
<polygon points="171.9,104.7 172.2,114.8 172,124.3 171.5,133.2 170.7,141.5 169.4,149.2 167.8,156.3 165.7,162.8 163.3,168.8 160.3,174.2 156.9,179 147.6,171.4 150.1,167.9 152.4,163.7 154.4,158.8 156.2,153.2 157.6,146.9 158.8,139.9 159.6,132.2 160,123.9 160.2,114.9 160,105.2 " />
<polygon points="160,103 166,98 177,107 172,111 166,111 " />
<polygon points="156.9,179 152.9,181.1 148.5,179.8 146.4,175.8 147.6,171.4 " />
<polygon points="156.9,179 155.3,180.8 153.6,182.5 151.7,184 149.7,185.3 147.6,186.4 145.4,187.3 143.1,188.1 140.8,188.6 138.4,188.9 136,189 136,177 137.4,176.9 138.8,176.7 140.1,176.4 141.3,176.1 142.5,175.6 143.5,175 144.6,174.3 145.6,173.5 146.6,172.5 147.6,171.4 " />
<polygon points="136,183 136,177 116,177 116,180 " />
<polygon points="124.1,126.6 118.6,129.3 112.8,131.9 106.7,134.3 100.4,136.6 93.7,138.8 86.8,140.8 79.6,142.7 72.1,144.3 64.3,145.7 56.2,146.8 55.7,145.1 63.3,142.1 70.6,139.2 77.6,136.4 84.3,133.6 90.7,130.9 96.8,128 102.6,125.2 108.1,122.2 113.3,119.3 118.1,116.3 " />
<polygon points="118.1,116.3 124.1,126.6 125.9,125.6 " />
<polygon points="125.9,125.6 126.1,129 118.9,126.2 " />
<polygon points="62,122 62,155 50,155 50,120 " />
<polygon points="62,122 65,124 62,126 " />
<polygon points="62,155 59.6,158.6 56,161 52.4,158.6 50,155 " />
<polygon points="62,155 62,156.2 62.2,157.1 62.4,157.7 62.5,158 62.7,158.2 62.9,158.4 63.2,158.5 63.8,158.7 64.7,158.9 66,159 66,171 63.4,170.8 60.9,170.4 58.5,169.6 56.2,168.3 54.2,166.7 52.6,164.7 51.3,162.4 50.5,160 50.1,157.5 50,155 " />
<polygon points="66,159 70.2,160.8 72,165 70.2,169.2 66,171 " />
<polygon points="66,159 131,159 131,171 66,171 " />
<polygon points="131,159 134.6,161.4 137,165 134.6,168.6 131,171 " />
<polygon points="125,160 131,134 133,134 131,160 " />
</g>
</svg>
