<svg xmlns="http://www.w3.org/2000/svg" xmlns:xlink="http://www.w3.org/1999/xlink" version="1.1" baseProfile="full" viewBox="0 0 200 200" width="200" height="200">
<g fill="black">
<polygon points="53,47 53,123 41,129 41,41 " />
<polygon points="47,47 154,47 154,51 47,51 " />
<polygon points="160,49 160,111 148,117 148,49 " />
<polygon points="148,47 154,42 165,51 160,55 148,49 " />
<polygon points="47,75 154,75 154,79 47,79 " />
<polygon points="47,107 154,107 154,111 47,111 " />
<polygon points="103,16.9 104.6,52.4 108.1,82.4 113.3,107.3 119.8,127.5 127.5,143.4 136,155.4 145,163.9 154.4,169.5 164.1,172.8 174.1,174 173.8,185.9 161.6,184.5 149.4,180.5 137.8,173.5 126.9,163.2 117.2,149.5 108.7,132 101.7,110.4 96.3,84.3 92.6,53.3 91,17 " />
<polygon points="91,17 103,16.9 90.9,14.7 " />
<polygon points="103,16.9 106,18.8 100.1,22.9 " />
<polygon points="174.1,174 178.3,175.9 179.9,180.1 178,184.3 173.8,185.9 " />
<polygon points="174.1,175 176.8,149 174.8,149 168.1,174.8 " />
<polygon points="162.6,123.8 151.5,134.3 139.7,143.9 127.3,152.6 114.1,160.4 100.4,167.2 86,173.1 70.9,178.1 55.3,182.1 39,185 22.1,186.8 21.8,185.1 38.2,181.3 53.9,176.9 68.9,171.8 83.1,166.1 96.7,159.6 109.5,152.3 121.6,144.3 133.1,135.5 143.8,125.9 153.9,115.6 " />
<polygon points="153.9,115.6 162.6,123.8 154.2,115.2 " />
<polygon points="162.6,123.8 163.4,127.3 156.3,126.1 " />
<polygon points="119.2,18.5 122.5,19.5 125.9,20.3 129,21.2 132,22.4 134.9,23.6 137.6,25 140.2,26.5 142.6,28.2 144.8,30 147,32 137.3,39.1 136.4,37.3 135.3,35.5 133.9,33.6 132.3,31.7 130.6,29.8 128.6,27.9 126.4,25.9 124,23.9 121.5,21.8 118.5,20.2 " />
<polygon points="147,32 148,36.4 145.7,40.4 141.3,41.4 137.3,39.1 " />
</g>
</svg>
