<svg xmlns="http://www.w3.org/2000/svg" xmlns:xlink="http://www.w3.org/1999/xlink" version="1.1" baseProfile="full" viewBox="0 0 200 200" width="200" height="200">
<g fill="black">
<polygon points="56,24 56,94 44,100 44,18 " />
<polygon points="50,24 146,24 146,28 50,28 " />
<polygon points="152,26 152,86 140,92 140,26 " />
<polygon points="140,24 146,19 157,28 152,32 140,26 " />
<polygon points="50,51 146,51 146,55 50,55 " />
<polygon points="50,78 146,78 146,82 50,82 " />
<polygon points="82.7,84.7 78,92.2 72.9,99.3 67.4,106.3 61.5,112.9 55.2,119.3 48.5,125.5 41.4,131.3 33.9,136.8 25.9,142 17.5,146.7 16.4,145.2 23.6,138.9 30.5,132.7 37,126.4 43.2,120 49,113.5 54.4,106.9 59.4,100.1 64.1,93.2 68.3,86.1 72.2,78.9 " />
<polygon points="72.2,78.9 82.7,84.7 72.8,77.9 " />
<polygon points="82.7,84.7 84.4,87.9 77.2,88.5 " />
<polygon points="62,103 166,103 166,107 62,107 " />
<polygon points="171.9,104.7 172.2,114.8 172,124.3 171.5,133.2 170.7,141.5 169.4,149.2 167.8,156.3 165.7,162.8 163.3,168.8 160.3,174.2 156.9,179 147.6,171.4 150.1,167.9 152.4,163.7 154.4,158.8 156.2,153.2 157.6,146.9 158.8,139.9 159.6,132.2 160,123.9 160.2,114.9 160,105.2 " />
<polygon points="160,103 166,98 177,107 172,111 166,111 " />
<polygon points="156.9,179 152.9,181.1 148.5,179.8 146.4,175.8 147.6,171.4 " />
<polygon points="156.9,179 155.3,180.8 153.6,182.5 151.7,184 149.7,185.3 147.6,186.4 145.4,187.3 143.1,188.1 140.8,188.6 138.4,188.9 136,189 136,177 137.4,176.9 138.8,176.7 140.1,176.4 141.3,176.1 142.5,175.6 143.5,175 144.6,174.3 145.6,173.5 146.6,172.5 147.6,171.4 " />
<polygon points="136,183 136,177 116,177 116,180 " />
<polygon points="107.5,113.5 105.1,119.9 102.3,126 99,131.7 95.3,137.1 91.2,142.1 86.7,146.7 81.8,150.9 76.4,154.7 70.6,158 64.4,160.7 63.5,159.2 68.5,154.8 73.1,150.5 77.3,146.1 81.1,141.5 84.5,136.8 87.6,131.9 90.2,126.8 92.5,121.6 94.4,116 95.9,110.3 " />
<polygon points="95.9,110.3 107.5,113.5 96.4,108.6 " />
<polygon points="107.5,113.5 109.8,116.3 102.9,118.5 " />
<polygon points="97.2,125.4 101.6,126.4 105.9,127.5 110.1,128.8 114.1,130.4 117.9,132.1 121.5,134.1 125,136.2 128.3,138.5 131.5,141 134.5,143.7 125.5,151.6 123.5,149 121.3,146.3 118.9,143.8 116.3,141.3 113.5,138.8 110.5,136.4 107.4,134.1 104,131.7 100.4,129.3 96.6,127.1 " />
<polygon points="134.5,143.7 135.9,148.1 133.9,152.2 129.6,153.6 125.5,151.6 " />
<polygon points="58,127 58,180 46,186 46,125 " />
<polygon points="58,127 61,129 58,131 " />
<polygon points="52,164 141,164 141,168 52,168 " />
<polygon points="141,164 117,166 129,154 " />
</g>
</svg>
