<svg xmlns="http://www.w3.org/2000/svg" xmlns:xlink="http://www.w3.org/1999/xlink" version="1.1" baseProfile="full" viewBox="0 0 200 200" width="200" height="200">
<g fill="black">
<polygon points="56,24 56,94 44,100 44,18 " />
<polygon points="50,24 146,24 146,28 50,28 " />
<polygon points="152,26 152,86 140,92 140,26 " />
<polygon points="140,24 146,19 157,28 152,32 140,26 " />
<polygon points="50,51 146,51 146,55 50,55 " />
<polygon points="50,78 146,78 146,82 50,82 " />
<polygon points="82.7,84.7 78,92.2 72.9,99.3 67.4,106.3 61.5,112.9 55.2,119.3 48.5,125.5 41.4,131.3 33.9,136.8 25.9,142 17.5,146.7 16.4,145.2 23.6,138.9 30.5,132.7 37,126.4 43.2,120 49,113.5 54.4,106.9 59.4,100.1 64.1,93.2 68.3,86.1 72.2,78.9 " />
<polygon points="71.7,79.8 82.7,84.7 72.8,77.9 " />
<polygon points="82.7,84.7 84.4,87.9 78.5,88.1 " />
<polygon points="62,103 166,103 166,107 62,107 " />
<polygon points="171.9,104.7 172.2,114.8 172,124.3 171.5,133.2 170.7,141.5 169.4,149.2 167.8,156.3 165.7,162.8 163.3,168.8 160.3,174.2 156.9,179 147.6,171.4 150.1,167.9 152.4,163.7 154.4,158.8 156.2,153.2 157.6,146.9 158.8,139.9 159.6,132.2 160,123.9 160.2,114.9 160,105.2 " />
<polygon points="160,103 166,98 177,107 172,110 160,115 " />
<polygon points="156.9,179 152.9,181.1 148.5,179.8 146.4,175.8 147.6,171.4 " />
<polygon points="156.9,179 155.3,180.8 153.6,182.5 151.7,184 149.7,185.3 147.6,186.4 145.4,187.3 143.1,188.1 140.8,188.6 138.4,188.9 136,189 136,177 137.4,176.9 138.8,176.7 140.1,176.4 141.3,176.1 142.5,175.6 143.5,175 144.6,174.3 145.6,173.5 146.6,172.5 147.6,171.4 " />
<polygon points="136,183 136,177 116,177 116,180 " />
<polygon points="128.2,120.3 123.6,125.6 118.6,130.6 113.2,135.3 107.5,139.8 101.3,144.1 94.7,148.1 87.8,151.8 80.4,155.2 72.6,158.2 64.3,160.8 63.6,159.1 70.9,154.7 77.9,150.4 84.4,146.1 90.6,141.7 96.3,137.2 101.6,132.6 106.5,127.9 110.9,123.1 114.9,118.2 118.5,113.2 " />
<polygon points="117.9,114 128.2,120.3 119,112.6 " />
<polygon points="128.2,120.3 129.4,123.7 123.6,123.2 " />
<polygon points="80.2,121.5 86,123 91.5,124.7 96.8,126.6 102,128.7 106.9,130.9 111.7,133.2 116.3,135.6 120.8,138.1 125.1,140.7 129.2,143.4 121.9,152.9 118.4,150 114.8,147 110.9,144.1 106.9,141.2 102.7,138.3 98.4,135.4 93.9,132.5 89.2,129.5 84.4,126.4 79.5,123.2 " />
<polygon points="129.2,143.4 131.4,147.3 130.3,151.8 126.4,154 121.9,152.9 " />
<polygon points="58,127 58,180 46,186 46,125 " />
<polygon points="58,127 61,129 56,132 " />
<polygon points="52,164 141,164 141,168 52,168 " />
<polygon points="141,164 117,166 129,154 " />
</g>
</svg>
