<svg xmlns="http://www.w3.org/2000/svg" xmlns:xlink="http://www.w3.org/1999/xlink" version="1.1" baseProfile="full" viewBox="0 0 200 200" width="200" height="200">
<g fill="black">
<polygon points="71.5,36.9 67.7,42.1 63.3,47 58.5,51.7 53.2,56.1 47.4,60.3 41.1,64.2 34.4,67.8 27.2,71.2 19.5,74.2 11.3,76.8 10.6,75.1 17.9,70.8 24.7,66.5 31.1,62.2 36.9,57.9 42.3,53.5 47.1,49.1 51.4,44.6 55.2,40 58.5,35.4 61.3,30.7 " />
<polygon points="61.3,30.7 71.5,36.9 61.8,29.8 " />
<polygon points="71.5,36.9 73,40.2 65.8,40.5 " />
<polygon points="72,23 138,23 138,27 72,27 " />
<polygon points="138,23 114,25 126,13 " />
<polygon points="132.2,25.5 136.1,30.3 140.1,34.8 144.3,39 148.7,42.9 153.5,46.6 158.7,50 164.2,53.1 170.1,55.9 176.4,58.4 183.2,60.7 178.7,73.2 171.5,70 164.8,66.4 158.5,62.5 152.8,58.3 147.6,53.8 142.9,48.9 138.8,43.7 135.3,38.2 132.5,32.4 130.6,26.2 " />
<polygon points="178.7,73.2 183.2,60.7 190.3,63.3 " />
<polygon points="47,63.3 47,126.1 35,132.1 35,57.3 " />
<polygon points="41,63.3 158.9,63.3 158.9,67.3 41,67.3 " />
<polygon points="164.9,65.3 164.9,120.1 152.9,126.1 152.9,65.3 " />
<polygon points="152.9,63.3 158.9,58.3 169.9,67.3 164.9,71.3 152.9,65.3 " />
<polygon points="106,63.3 106,114.1 94,114.1 94,63.3 " />
<polygon points="41,86.3 158.9,86.3 158.9,90.3 41,90.3 " />
<polygon points="41,110.1 158.9,110.1 158.9,114.1 41,114.1 " />
<polygon points="62.8,129.2 62.8,183.8 50.8,189.8 50.8,123.2 " />
<polygon points="56.8,129.2 143.2,129.2 143.2,133.2 56.8,133.2 " />
<polygon points="149.2,131.2 149.2,182.8 137.2,188.8 137.2,131.2 " />
<polygon points="137.2,129.2 143.2,124.2 154.2,133.2 149.2,137.2 137.2,131.2 " />
<polygon points="56.8,152.3 143.2,152.3 143.2,156.3 56.8,156.3 " />
<polygon points="56.8,176.8 143.2,176.8 143.2,180.8 56.8,180.8 " />
</g>
</svg>
