<svg xmlns="http://www.w3.org/2000/svg" xmlns:xlink="http://www.w3.org/1999/xlink" version="1.1" baseProfile="full" viewBox="0 0 200 200" width="200" height="200">
<g fill="black">
<polygon points="107.8,18.6 100.4,26.2 92.6,33.4 84.2,40.2 75.3,46.6 65.9,52.7 56,58.4 45.6,63.7 34.7,68.6 23.2,72.9 11.3,76.8 10.6,75.1 21.7,69.5 32.4,63.7 42.5,57.9 52.1,51.9 61.2,45.6 69.8,39.1 77.8,32.4 85.3,25.4 92.3,18.2 98.8,10.8 " />
<polygon points="98.8,10.8 107.8,18.6 99.1,10.3 " />
<polygon points="107.8,18.6 108.8,22.1 101.6,21.2 " />
<polygon points="101.3,18 108.9,23.6 116.4,29 124,34.1 131.8,38.9 139.8,43.4 148,47.5 156.4,51.3 165,54.8 173.9,57.9 183,60.7 178.9,73.2 169.5,69.6 160.4,65.7 151.6,61.3 143.1,56.5 135,51.4 127.2,45.8 119.7,39.9 112.6,33.5 106.1,26.7 100,19.3 " />
<polygon points="178.9,73.2 183,60.7 190.6,63.1 " />
<polygon points="62,59 138,59 138,63 62,63 " />
<polygon points="138,59 114,61 126,49 " />
<polygon points="46.5,75.7 46.5,129.8 34.5,135.8 34.5,69.7 " />
<polygon points="40.5,75.7 159.5,75.7 159.5,79.7 40.5,79.7 " />
<polygon points="165.5,77.7 165.5,123.8 153.5,129.8 153.5,77.7 " />
<polygon points="153.5,75.7 159.5,70.7 170.5,79.7 165.5,83.7 153.5,77.7 " />
<polygon points="106,75.7 106,117.8 94,117.8 94,75.7 " />
<polygon points="56.2,84.1 59.2,85.4 62.4,86.5 65.3,87.8 68.1,89.3 70.7,90.9 73.2,92.7 75.6,94.6 77.8,96.7 79.8,98.9 81.7,101.3 71.1,107 70.4,104.9 69.4,102.8 68.3,100.7 67,98.5 65.6,96.4 63.9,94.2 62.1,92.1 60.1,89.9 57.9,87.6 55.3,85.7 " />
<polygon points="81.7,101.3 82.1,105.8 79.3,109.4 74.7,109.9 71.1,107 " />
<polygon points="142.8,91.4 140.5,93.3 138.1,95.3 135.6,97.2 133,99.2 130.3,101.2 127.5,103.2 124.5,105.2 121.5,107.3 118.2,109.2 115,111.4 113.8,110 116.3,107.1 118.5,104.1 120.7,101.2 122.9,98.4 124.9,95.7 126.9,93 128.8,90.5 130.6,88 132.3,85.6 133.9,83.3 " />
<polygon points="133.9,83.3 142.8,91.4 134.3,82.9 " />
<polygon points="142.8,91.4 143.7,94.9 136.6,93.8 " />
<polygon points="40.5,113.8 159.5,113.8 159.5,117.8 40.5,117.8 " />
<polygon points="60.1,131.5 60.1,183.4 48.1,189.4 48.1,125.5 " />
<polygon points="54.1,131.5 145.9,131.5 145.9,135.5 54.1,135.5 " />
<polygon points="151.9,133.5 151.9,182.4 139.9,188.4 139.9,133.5 " />
<polygon points="139.9,131.5 145.9,126.5 156.9,135.5 151.9,139.5 139.9,133.5 " />
<polygon points="54.1,153.3 145.9,153.3 145.9,157.3 54.1,157.3 " />
<polygon points="54.1,176.4 145.9,176.4 145.9,180.4 54.1,180.4 " />
</g>
</svg>
