<svg xmlns="http://www.w3.org/2000/svg" xmlns:xlink="http://www.w3.org/1999/xlink" version="1.1" baseProfile="full" viewBox="0 0 200 200" width="200" height="200">
<g fill="black">
<polygon points="64,27 64,114 52,114 52,21 " />
<polygon points="64,114 61.6,117.6 58,120 54.4,117.6 52,114 " />
<polygon points="64,114 63.3,123.7 62,133 60.1,141.9 57.4,150.2 54.1,158.1 50.1,165.4 45.5,172.2 40.2,178.4 34.2,183.9 27.5,188.6 26.4,187.3 31.5,181.2 36,175 40,168.5 43.4,161.8 46.3,154.8 48.6,147.4 50.3,139.7 51.4,131.5 52,122.9 52,114 " />
<polygon points="58,27 147,27 147,31 58,31 " />
<polygon points="153,29 153,171 141,171 141,29 " />
<polygon points="141,27 147,22 158,31 153,35 141,29 " />
<polygon points="153,171 150.6,174.6 147,177 143.4,174.6 141,171 " />
<polygon points="153,171 152.8,173.5 152.4,176 151.6,178.4 150.3,180.7 148.7,182.7 146.7,184.3 144.4,185.6 142,186.4 139.5,186.8 137,187 137,175 138.2,174.9 139.1,174.7 139.7,174.5 140,174.4 140.2,174.2 140.4,174 140.5,173.7 140.7,173.1 140.9,172.2 141,171 " />
<polygon points="137,181 137,175 117,175 117,178 " />
<polygon points="58,71 147,71 147,75 58,75 " />
<polygon points="58,114 147,114 147,118 58,118 " />
</g>
</svg>
