<svg xmlns="http://www.w3.org/2000/svg" xmlns:xlink="http://www.w3.org/1999/xlink" version="1.1" baseProfile="full" viewBox="0 0 200 200" width="200" height="200">
<g fill="black">
<polygon points="39,33 95,33 95,37 39,37 " />
<polygon points="95,33 71,35 83,23 " />
<polygon points="22,59 98,59 98,63 22,63 " />
<polygon points="98,59 74,61 86,49 " />
<polygon points="70.7,18.9 67.8,33.9 64.3,47.8 60.4,60.5 55.9,72.1 51,82.5 45.5,91.8 39.5,99.8 33,106.5 25.9,111.9 18.4,115.7 17.5,114.2 23.5,108.9 29.1,102.8 34.2,95.8 39,87.9 43.3,78.9 47.3,68.7 50.8,57.5 53.9,45.2 56.6,31.7 58.9,17 " />
<polygon points="58.9,17 70.7,18.9 59.2,15 " />
<polygon points="70.7,18.9 73.4,21.3 66.9,24.3 " />
<polygon points="73,63 73,101 61,101 61,61 " />
<polygon points="73,63 76,65 73,67 " />
<polygon points="54.9,98 60.4,96.3 65.8,94.6 71,92.8 76.1,91 81.1,89.1 85.9,87.1 90.6,85.1 95.2,83.1 99.8,81.1 104.4,79.2 105.5,80.7 101.9,84.3 98,87.7 93.8,90.8 89.4,93.8 84.8,96.7 80,99.4 75,102 69.8,104.6 64.4,107 58.9,109.3 " />
<polygon points="58.9,109.3 54.9,98 53,98.6 " />
<polygon points="58.9,109.3 61.7,111.5 63.5,104.5 " />
<polygon points="45,33 45,63 33,63 33,27 " />
<polygon points="115,33 174,33 174,37 115,37 " />
<polygon points="174,33 150,35 162,23 " />
<polygon points="101,59 178,59 178,63 101,63 " />
<polygon points="178,59 154,61 166,49 " />
<polygon points="147.7,18.9 144.8,33.8 141.2,47.6 137.2,60.1 132.6,71.3 127.4,81.2 121.7,89.8 115.3,97.1 108.5,102.9 101.1,107.2 93.3,109.8 92.6,108.1 99.1,103.9 105,98.8 110.4,92.7 115.4,85.5 119.9,77.2 124,67.7 127.7,56.9 130.9,44.9 133.6,31.6 135.9,17 " />
<polygon points="135.9,17 147.7,18.9 136.2,15 " />
<polygon points="147.7,18.9 150.4,21.3 143.9,24.3 " />
<polygon points="150,63 150,92 138,92 138,61 " />
<polygon points="150,63 153,65 150,67 " />
<polygon points="150,92 147.6,95.6 144,98 140.4,95.6 138,92 " />
<polygon points="150,92 150,93.2 150.2,94.1 150.4,94.7 150.5,95 150.7,95.2 150.9,95.4 151.2,95.5 151.8,95.7 152.7,95.9 154,96 154,108 151.4,107.8 148.9,107.4 146.5,106.6 144.2,105.3 142.2,103.7 140.6,101.7 139.3,99.4 138.5,97 138.1,94.5 138,92 " />
<polygon points="154,96 158.2,97.8 160,102 158.2,106.2 154,108 " />
<polygon points="154,96 172,96 172,108 154,108 " />
<polygon points="172,96 175.6,98.4 178,102 175.6,105.6 172,108 " />
<polygon points="166,97 172,71 174,71 172,97 " />
<polygon points="121,33 121,63 109,63 109,27 " />
<polygon points="60.4,112.7 60.4,183.4 48.4,189.4 48.4,106.7 " />
<polygon points="54.4,112.7 146.5,112.7 146.5,116.7 54.4,116.7 " />
<polygon points="152.5,114.7 152.5,180.4 140.5,186.4 140.5,114.7 " />
<polygon points="140.5,112.7 146.5,107.7 157.5,116.7 152.5,120.7 140.5,114.7 " />
<polygon points="54.4,141.7 146.5,141.7 146.5,145.7 54.4,145.7 " />
<polygon points="54.4,172.4 146.5,172.4 146.5,176.4 54.4,176.4 " />
</g>
</svg>
