<svg xmlns="http://www.w3.org/2000/svg" xmlns:xlink="http://www.w3.org/1999/xlink" version="1.1" baseProfile="full" viewBox="0 0 200 200" width="200" height="200">
<g fill="black">
<polygon points="23,63 176,63 176,67 23,67 " />
<polygon points="176,63 152,65 164,53 " />
<polygon points="106,20 106,184 94,190 94,18 " />
<polygon points="106,20 109,22 106,24 " />
<polygon points="66,83 66,116 54,116 54,81 " />
<polygon points="66,83 69,85 66,87 " />
<polygon points="66,116 63.6,119.6 60,122 56.4,119.6 54,116 " />
<polygon points="66,116 65.3,125.5 63.8,134.5 61.5,142.9 58.5,150.7 54.7,157.8 50.1,164.1 44.7,169.8 38.6,174.7 31.8,178.7 24.4,181.8 23.5,180.1 29.8,175.5 35.2,170.5 39.9,165.3 43.9,159.7 47.2,153.6 49.9,147.2 51.9,140.2 53.2,132.7 53.9,124.6 54,116 " />
<polygon points="144,83 144,152 132,152 132,81 " />
<polygon points="144,83 147,85 144,87 " />
<polygon points="144,152 141.6,155.6 138,158 134.4,155.6 132,152 " />
<polygon points="144,152 144,153.2 144.2,154.1 144.4,154.7 144.5,155 144.7,155.2 144.9,155.4 145.2,155.5 145.8,155.7 146.7,155.9 148,156 148,168 145.4,167.8 142.9,167.4 140.5,166.6 138.2,165.3 136.2,163.7 134.6,161.7 133.3,159.4 132.5,157 132.1,154.5 132,152 " />
<polygon points="148,156 152.2,157.8 154,162 152.2,166.2 148,168 " />
<polygon points="148,156 174,156 174,168 148,168 " />
<polygon points="174,156 177.6,158.4 180,162 177.6,165.6 174,168 " />
<polygon points="168,157 174,131 176,131 174,157 " />
<polygon points="118.2,24.5 122.9,25.7 127.5,27 131.7,28.6 135.6,30.4 139.2,32.5 142.5,34.9 145.5,37.5 148.2,40.4 150.5,43.6 152.5,47 141.3,51.3 140.5,48.8 139.5,46.3 138.1,43.7 136.3,41.2 134.1,38.6 131.6,36.1 128.7,33.6 125.4,31.1 121.7,28.5 117.6,26.1 " />
<polygon points="152.5,47 152.3,51.5 149,54.7 144.5,54.6 141.3,51.3 " />
</g>
</svg>
