<svg xmlns="http://www.w3.org/2000/svg" xmlns:xlink="http://www.w3.org/1999/xlink" version="1.1" baseProfile="full" viewBox="0 0 200 200" width="200" height="200">
<g fill="black">
<polygon points="19,55 185,55 185,59 19,59 " />
<polygon points="185,55 161,57 173,45 " />
<polygon points="107,18 107,173 95,173 95,16 " />
<polygon points="107,18 110,20 107,22 " />
<polygon points="107,173 104.6,176.6 101,179 97.4,176.6 95,173 " />
<polygon points="107,173 106.8,175.5 106.4,178 105.6,180.4 104.3,182.7 102.7,184.7 100.7,186.3 98.4,187.6 96,188.4 93.5,188.8 91,189 91,177 92.2,176.9 93.1,176.7 93.7,176.5 94,176.4 94.2,176.2 94.4,176 94.5,175.7 94.7,175.1 94.9,174.2 95,173 " />
<polygon points="91,183 91,177 71,177 71,180 " />
<polygon points="67.5,80.4 64.2,91.1 60.4,101.3 56.1,111.3 51.3,120.8 46.1,130 40.4,138.8 34.2,147.2 27.6,155.2 20.4,162.6 12.6,169.6 11.3,168.3 17.5,160.1 23.3,151.9 28.9,143.4 34,134.8 38.7,125.9 43,116.7 46.8,107.3 50.3,97.6 53.3,87.7 55.9,77.4 " />
<polygon points="55.9,77.4 67.5,80.4 56.3,75.7 " />
<polygon points="67.5,80.4 69.9,83.1 63.1,85.5 " />
<polygon points="129.3,80 136.7,86.5 143.6,93.4 150,100.6 155.9,108 161.3,115.7 166.3,123.6 170.8,131.7 174.9,140.1 178.6,148.6 181.8,157.3 170.3,160.8 167.9,152.5 165,144.2 161.8,136.1 158.1,128 154,120.1 149.6,112.3 144.7,104.5 139.4,96.8 133.9,89.1 128,81.3 " />
<polygon points="181.8,157.3 181.3,161.9 177.8,164.8 173.3,164.3 170.3,160.8 " />
</g>
</svg>
