<svg xmlns="http://www.w3.org/2000/svg" xmlns:xlink="http://www.w3.org/1999/xlink" version="1.1" baseProfile="full" viewBox="0 0 200 200" width="200" height="200">
<g fill="black">
<polygon points="120.3,14.8 124.2,16.8 128.1,18.7 131.8,20.8 135.3,23 138.6,25.3 141.8,27.7 144.8,30.1 147.7,32.7 150.4,35.3 153,38 143.3,45.1 141.7,42.4 139.8,39.6 137.8,36.8 135.6,34 133.3,31.2 130.8,28.3 128.1,25.4 125.3,22.4 122.4,19.3 119.3,16.3 " />
<polygon points="153,38 154,42.4 151.7,46.4 147.3,47.4 143.3,45.1 " />
<polygon points="18,60 182,60 182,64 18,64 " />
<polygon points="182,60 158,62 170,50 " />
<polygon points="106,16 106,183 94,189 94,14 " />
<polygon points="106,16 109,18 104,21 " />
<polygon points="102.4,62 101.6,64 95.7,77.9 89.1,90.9 82,103.1 74.2,114.5 65.8,125.1 56.7,134.9 47.1,143.7 36.8,151.7 25.9,158.7 14.4,164.7 13.5,163.2 23.8,155.6 33.5,147.5 42.6,138.9 51.2,129.7 59.1,119.8 66.5,109.2 73.3,98 79.6,86 85.2,73.3 89.5,62 " />
<polygon points="106.2,62.5 112.7,74.6 119.4,86 126.2,96.6 133.3,106.5 140.7,115.5 148.4,123.8 156.4,131.3 164.7,138 173.3,144 182.2,149.2 175.7,160.7 166.2,154.3 157.3,147.2 148.8,139.3 140.8,130.7 133.4,121.3 126.5,111.2 120,100.4 114.2,88.8 109,76.4 104.5,63.2 " />
<polygon points="175.7,160.7 182.2,149.2 186.8,151.9 " />
</g>
</svg>
