<svg xmlns="http://www.w3.org/2000/svg" xmlns:xlink="http://www.w3.org/1999/xlink" version="1.1" baseProfile="full" viewBox="0 0 200 200" width="200" height="200">
<g fill="black">
<polygon points="16,56 185,56 185,60 16,60 " />
<polygon points="185,56 161,58 173,46 " />
<polygon points="106,16 106,183 94,189 94,14 " />
<polygon points="106,16 109,18 106,20 " />
<polygon points="103.5,58 102.6,60.1 96.6,73.6 90.1,86.6 82.9,99.1 75.1,111.1 66.6,122.5 57.5,133.3 47.8,143.6 37.4,153.3 26.3,162.3 14.5,170.7 13.4,169.2 23.8,159.5 33.7,149.5 43,139.1 51.7,128.5 59.8,117.4 67.3,106 74.2,94.1 80.5,81.8 86.2,69 90.4,58 " />
<polygon points="106.2,60.5 112.6,71.5 119.1,82 125.9,91.9 133.1,101.3 140.6,110.2 148.6,118.5 156.9,126.3 165.7,133.5 174.9,140.2 184.5,146.4 177.4,157.5 167.5,150.3 158.2,142.6 149.4,134.3 141.1,125.5 133.5,116.2 126.4,106.3 119.9,95.8 114,84.9 108.8,73.3 104.5,61.2 " />
<polygon points="177.4,157.5 184.5,146.4 188.5,148.9 " />
<polygon points="53,148 147,148 147,152 53,152 " />
<polygon points="147,148 123,150 135,138 " />
</g>
</svg>
