<svg xmlns="http://www.w3.org/2000/svg" xmlns:xlink="http://www.w3.org/1999/xlink" version="1.1" baseProfile="full" viewBox="0 0 200 200" width="200" height="200">
<g fill="black">
<polygon points="170.8,22.5 158.3,31.1 145.2,39.3 131.6,47.1 117.5,54.4 102.8,61.3 87.6,67.7 71.9,73.7 55.5,79.2 38.7,84.1 21.2,88.4 20.7,86.7 37.5,80.5 53.7,74.2 69.4,67.6 84.6,60.8 99.2,53.6 113.2,46.2 126.6,38.4 139.5,30.2 151.8,21.7 163.5,12.9 " />
<polygon points="163.6,12.9 170.8,22.5 162.7,13.5 " />
<polygon points="170.8,22.5 171,26.1 165.6,23.9 " />
<polygon points="37.2,23.9 51.7,27.6 65.7,31.7 79.1,36.2 92.1,41 104.6,46.1 116.6,51.3 128.1,56.9 139.2,62.6 149.7,68.6 159.8,74.8 153.1,84.7 143.7,78.3 133.8,71.9 123.4,65.7 112.5,59.7 101,53.8 89.1,48 76.7,42.3 63.8,36.8 50.5,31.2 36.6,25.6 " />
<polygon points="159.8,74.8 162.3,78.7 161.4,83.1 157.6,85.6 153.1,84.7 " />
<polygon points="23,108 176,108 176,112 23,112 " />
<polygon points="176,108 152,110 164,98 " />
<polygon points="106,82 106,183 94,189 94,80 " />
<polygon points="106,82 109,84 104,87 " />
<polygon points="66,122 66,142 54,142 54,120 " />
<polygon points="66,122 69,124 64,127 " />
<polygon points="66,142 63.6,145.6 60,148 56.4,145.6 54,142 " />
<polygon points="66,142 65.2,148.3 63.7,154.3 61.3,159.9 58.1,165 54.1,169.5 49.5,173.5 44.2,176.9 38.2,179.8 31.5,182.1 24.2,183.8 23.7,182.1 30.1,178.6 35.6,175.1 40.5,171.5 44.5,167.8 47.8,163.9 50.3,159.9 52.1,155.8 53.3,151.4 53.9,146.8 54,142 " />
<polygon points="144,122 144,161 132,161 132,120 " />
<polygon points="144,122 147,124 142,127 " />
<polygon points="144,161 141.6,164.6 138,167 134.4,164.6 132,161 " />
<polygon points="144,161 144,162.2 144.2,163.1 144.4,163.7 144.5,164 144.7,164.2 144.9,164.4 145.2,164.5 145.8,164.7 146.7,164.9 148,165 148,177 145.4,176.8 142.9,176.4 140.5,175.6 138.2,174.3 136.2,172.7 134.6,170.7 133.3,168.4 132.5,166 132.1,163.5 132,161 " />
<polygon points="148,165 152.2,166.8 154,171 152.2,175.2 148,177 " />
<polygon points="148,165 174,165 174,177 148,177 " />
<polygon points="174,165 177.6,167.4 180,171 177.6,174.6 174,177 " />
<polygon points="168,166 174,140 176,140 174,166 " />
</g>
</svg>
