<svg xmlns="http://www.w3.org/2000/svg" xmlns:xlink="http://www.w3.org/1999/xlink" version="1.1" baseProfile="full" viewBox="0 0 200 200" width="200" height="200">
<g fill="black">
<polygon points="162,18.7 151.2,27.9 140,36.6 128.3,44.8 116.1,52.6 103.5,60 90.4,66.9 76.8,73.2 62.8,79.1 48.2,84.4 33.2,89 32.6,87.3 46.8,80.8 60.6,74.2 74,67.3 86.8,60.2 99.2,52.7 111.1,44.8 122.5,36.7 133.4,28.1 143.8,19.2 153.8,9.9 " />
<polygon points="153.8,9.9 162,18.7 154,9.7 " />
<polygon points="162,18.7 162.5,22.2 155.5,20.6 " />
<polygon points="47,21 59.5,24.9 71.5,29.4 83.1,34.1 94.3,39.2 105,44.6 115.3,50.2 125.2,56.1 134.7,62.2 143.8,68.6 152.5,75.2 144.7,84.4 136.8,77.6 128.5,70.9 119.7,64.5 110.4,58.2 100.8,52 90.7,46 80.2,40 69.3,34.2 58,28.4 46.3,22.6 " />
<polygon points="152.5,75.2 154.5,79.2 153.2,83.6 149.1,85.7 144.7,84.4 " />
<polygon points="19,102.3 185.9,102.3 185.9,106.3 19,106.3 " />
<polygon points="185.9,102.3 161.9,104.3 173.9,92.3 " />
<polygon points="107.5,80.5 107.5,172.4 95.5,172.4 95.5,78.5 " />
<polygon points="107.5,80.5 110.5,82.5 107.5,84.5 " />
<polygon points="107.5,172.4 105.1,176 101.5,178.4 97.9,176 95.5,172.4 " />
<polygon points="107.5,172.4 107.3,175 106.9,177.5 106.1,179.9 104.8,182.1 103.2,184.2 101.2,185.8 98.9,187 96.5,187.8 94,188.3 91.5,188.4 91.5,176.4 92.7,176.3 93.6,176.2 94.2,176 94.5,175.8 94.7,175.7 94.9,175.5 95,175.1 95.2,174.6 95.4,173.6 95.5,172.4 " />
<polygon points="91.5,182.4 91.5,176.4 71.5,176.4 71.5,179.4 " />
<polygon points="67.4,120.6 64,127.2 60.1,133.6 55.8,139.7 51,145.6 45.7,151.2 40,156.5 33.9,161.6 27.2,166.3 20.1,170.6 12.5,174.5 11.5,173 17.9,167.5 23.9,162.1 29.5,156.6 34.7,151.1 39.4,145.5 43.7,139.9 47.5,134.1 50.9,128.1 53.8,122.1 56.3,115.9 " />
<polygon points="56.3,115.9 67.4,120.6 56.9,114.6 " />
<polygon points="67.4,120.6 69.4,123.6 62.3,124.9 " />
<polygon points="129.9,118.3 137.2,121.9 143.9,125.8 150.2,130 156,134.4 161.4,138.9 166.3,143.6 170.9,148.5 175,153.5 178.7,158.7 181.9,164 171.1,169.4 168.8,164.5 166.1,159.6 163,154.7 159.4,149.8 155.4,144.9 150.9,140 146,135.1 140.7,130.1 135,125 129,119.8 " />
<polygon points="181.9,164 182.1,168.6 179.2,172.1 174.6,172.3 171.1,169.4 " />
</g>
</svg>
