<svg xmlns="http://www.w3.org/2000/svg" xmlns:xlink="http://www.w3.org/1999/xlink" version="1.1" baseProfile="full" viewBox="0 0 200 200" width="200" height="200">
<g fill="black">
<polygon points="20,40 180,40 180,44 20,44 " />
<polygon points="180,40 156,42 168,30 " />
<polygon points="55,61 55,133 43,139 43,55 " />
<polygon points="49,61 151,61 151,65 49,65 " />
<polygon points="157,63 157,127 145,133 145,63 " />
<polygon points="145,61 151,56 162,65 157,69 145,63 " />
<polygon points="49,89 151,89 151,93 49,93 " />
<polygon points="49,117 151,117 151,121 49,121 " />
<polygon points="106,15 106,184 94,190 94,13 " />
<polygon points="106,15 109,17 104,20 " />
<polygon points="102.3,119 100,122.2 93.7,130.9 87,139 79.7,146.6 72,153.7 63.9,160.2 55.3,166.2 46.2,171.6 36.7,176.4 26.7,180.4 16.3,183.8 15.6,182.1 25.1,177 34.2,171.6 42.8,166 50.9,160 58.5,153.7 65.7,146.9 72.4,139.7 78.7,132.2 84.5,124.2 87.8,119 " />
<polygon points="106.3,119.3 112.3,125.4 118.3,131.4 124.6,137.2 131.2,142.7 138.1,148.1 145.3,153.1 152.9,158 160.8,162.6 169.1,166.9 177.8,171 172.1,182.9 163.2,177.9 154.7,172.7 146.7,167.2 139.2,161.3 132.1,155.3 125.5,148.9 119.4,142.2 113.9,135.3 109,128 104.8,120.3 " />
<polygon points="172.1,182.9 177.8,171 183.4,173.7 " />
</g>
</svg>
