<svg xmlns="http://www.w3.org/2000/svg" xmlns:xlink="http://www.w3.org/1999/xlink" version="1.1" baseProfile="full" viewBox="0 0 200 200" width="200" height="200">
<g fill="black">
<polygon points="16,58 97,58 97,62 16,62 " />
<polygon points="97,58 73,60 85,48 " />
<polygon points="63,17 63,183 51,189 51,15 " />
<polygon points="63,17 66,19 61,22 " />
<polygon points="62.8,65.4 59.3,77.1 55.5,88.3 51.4,99 47,109.2 42.3,119 37.3,128.2 31.9,136.9 26.2,145.1 20.1,152.6 13.7,159.5 12.2,158.4 17.1,150.4 21.7,142.2 26.2,133.6 30.5,124.7 34.6,115.4 38.4,105.7 42,95.5 45.3,85 48.3,73.9 51.1,62.5 " />
<polygon points="58.3,81.6 62.5,83.2 66.7,84.9 70.7,87.1 74.7,89.5 78.5,92.2 82.2,95.1 85.8,98.2 89.3,101.6 92.7,105.2 96,109 86.3,116.1 83.8,112.2 81.3,108.5 78.6,105 75.8,101.6 73,98.3 70,95.1 67,92.1 63.9,89.1 60.7,86.1 57.4,83.2 " />
<polygon points="96,109 97.1,113.5 94.7,117.4 90.3,118.4 86.3,116.1 " />
<polygon points="102,57 186,57 186,61 102,61 " />
<polygon points="186,57 162,59 174,47 " />
<polygon points="144,16 144,183 132,189 132,14 " />
<polygon points="144,16 147,18 142,21 " />
<polygon points="142.1,59 141.7,60.5 137.8,73.2 133.4,85.3 128.7,96.8 123.5,107.8 118,118.2 112,128 105.6,137.2 98.7,145.7 91.4,153.5 83.6,160.6 82.3,159.3 88.5,151 94.5,142.4 100.1,133.5 105.4,124.1 110.4,114.2 115.1,103.9 119.4,93 123.3,81.7 126.9,69.8 129.7,59 " />
<polygon points="143,59.8 146.3,70.5 149.8,80.8 153.5,90.7 157.4,100.2 161.7,109.3 166.4,118 171.5,126.2 176.9,134.1 182.7,141.6 188.9,148.6 179,157.3 172.8,149.2 167.1,140.7 162,131.9 157.4,122.7 153.2,113.1 149.6,103.2 146.6,93 144.1,82.4 142.3,71.4 141.2,60.1 " />
<polygon points="179,157.3 188.9,148.6 189.6,149.4 " />
</g>
</svg>
