<svg xmlns="http://www.w3.org/2000/svg" xmlns:xlink="http://www.w3.org/1999/xlink" version="1.1" baseProfile="full" viewBox="0 0 200 200" width="200" height="200">
<g fill="black">
<polygon points="18,45 184,45 184,49 18,49 " />
<polygon points="184,45 160,47 172,35 " />
<polygon points="106,18 106,182 94,188 94,16 " />
<polygon points="106,18 109,20 106,22 " />
<polygon points="51,68 51,133 39,139 39,62 " />
<polygon points="45,68 156,68 156,72 45,72 " />
<polygon points="162,70 162,127 150,133 150,70 " />
<polygon points="150,68 156,63 167,72 162,76 150,70 " />
<polygon points="45,117 156,117 156,121 45,121 " />
<polygon points="99,123.2 92.7,131.7 86,139.7 78.8,147.2 71.2,154.1 63.1,160.5 54.6,166.4 45.7,171.7 36.3,176.4 26.5,180.4 16.3,183.8 15.6,182.1 24.9,177 33.8,171.7 42.2,166.1 50.2,160.2 57.8,153.9 64.9,147.2 71.5,140.2 77.8,132.8 83.6,124.9 88.9,116.7 " />
<polygon points="106.3,120.2 113,127.2 119.6,133.8 126.4,140 133.2,145.6 140.2,150.7 147.4,155.3 154.7,159.4 162.3,163 170.1,166.1 178,168.7 173.9,181.2 165.3,177.7 157.1,173.6 149.2,169 141.7,163.8 134.5,158.1 127.7,151.9 121.3,145.1 115.2,137.8 109.7,129.8 104.8,121.3 " />
<polygon points="173.9,181.2 178,168.7 185.5,171.2 " />
<polygon points="56.3,79.8 60.2,81.8 64,83.8 67.6,85.9 70.9,88.1 74.1,90.4 77,92.8 79.7,95.3 82.3,97.9 84.6,100.6 86.7,103.4 76.2,109.3 75.1,106.7 73.8,104.1 72.3,101.4 70.5,98.7 68.5,96 66.3,93.1 63.9,90.3 61.2,87.3 58.4,84.2 55.3,81.3 " />
<polygon points="86.7,103.4 87.2,107.9 84.4,111.6 79.9,112.1 76.2,109.3 " />
<polygon points="144.4,83.1 141.7,86.5 138.9,89.8 135.9,93 132.9,96.2 129.7,99.3 126.4,102.4 122.9,105.4 119.3,108.2 115.5,110.9 111.6,113.6 110.3,112.3 113.1,108.5 115.8,104.8 118.4,101.1 121,97.5 123.5,94 125.8,90.5 128.1,86.9 130.3,83.4 132.4,79.9 134.4,76.5 " />
<polygon points="134.4,76.5 144.4,83.1 134.9,75.7 " />
<polygon points="144.4,83.1 145.8,86.4 138.6,86.4 " />
</g>
</svg>
