<svg xmlns="http://www.w3.org/2000/svg" xmlns:xlink="http://www.w3.org/1999/xlink" version="1.1" baseProfile="full" viewBox="0 0 200 200" width="200" height="200">
<g fill="black">
<polygon points="16,41 185,41 185,45 16,45 " />
<polygon points="185,41 161,43 173,31 " />
<polygon points="106,17 106,92 94,98 94,15 " />
<polygon points="106,17 109,19 106,21 " />
<polygon points="102.3,43 100.1,46.1 95,53 89.3,59.7 82.9,66.2 75.8,72.3 68.1,78.3 59.7,84 50.6,89.4 40.9,94.6 30.5,99.4 19.3,103.8 18.6,102.1 28.7,96 38.3,89.9 47.1,83.9 55.3,77.8 62.8,71.6 69.6,65.4 75.7,59.1 81.1,52.7 85.8,46.3 87.8,43 " />
<polygon points="106.3,43.2 112.8,49 119.2,54.7 125.8,60 132.5,65.1 139.4,69.9 146.5,74.3 153.9,78.4 161.5,82.2 169.3,85.7 177.4,88.8 172.5,101.1 164.1,97.1 156,92.7 148.3,88 140.9,82.9 133.8,77.4 127.2,71.6 120.9,65.4 115,58.8 109.6,51.8 104.9,44.3 " />
<polygon points="172.5,101.1 177.4,88.8 183.9,91.5 " />
<polygon points="68,103 68,183 56,183 56,97 " />
<polygon points="62,103 139,103 139,107 62,107 " />
<polygon points="145,105 145,183 133,183 133,105 " />
<polygon points="133,103 139,98 150,107 145,111 133,105 " />
<polygon points="62,153 139,153 139,157 62,157 " />
<polygon points="62,127 139,127 139,131 62,131 " />
<polygon points="19,179 180,179 180,183 19,183 " />
<polygon points="180,179 156,181 168,169 " />
</g>
</svg>
