<svg xmlns="http://www.w3.org/2000/svg" xmlns:xlink="http://www.w3.org/1999/xlink" version="1.1" baseProfile="full" viewBox="0 0 200 200" width="200" height="200">
<g fill="black">
<polygon points="108.7,18.6 106.7,20.1 104.6,21.7 102.5,23.2 100.3,24.7 98.1,26.2 95.9,27.7 93.6,29.1 91.2,30.4 88.8,31.7 86.6,33.3 85.3,32 87.1,29.9 88.5,27.6 90,25.3 91.5,23.1 92.9,20.9 94.4,18.8 95.8,16.7 97.2,14.6 98.5,12.5 99.9,10.4 " />
<polygon points="99.9,10.4 108.7,18.6 100.2,10.1 " />
<polygon points="108.7,18.6 109.6,22.1 102.4,21 " />
<polygon points="62,30.6 62,105.1 50,111.1 50,24.6 " />
<polygon points="56,30.6 145,30.6 145,34.6 56,34.6 " />
<polygon points="151,32.6 151,67.9 139,73.9 139,32.6 " />
<polygon points="139,30.6 145,25.6 156,34.6 151,38.6 139,32.6 " />
<polygon points="56,47.3 145,47.3 145,51.3 56,51.3 " />
<polygon points="56,63.9 145,63.9 145,67.9 56,67.9 " />
<polygon points="56,79 185,79 185,83 56,83 " />
<polygon points="185,79 161,81 173,69 " />
<polygon points="56,94.1 169,94.1 169,98.1 56,98.1 " />
<polygon points="174.9,95.7 175.3,102.1 175.4,108 175.4,113.4 175.1,118.3 174.7,122.8 174.1,126.9 173.2,130.5 172,133.8 170.4,136.8 168.3,139.5 159.9,130.8 160.4,130.3 161,129.1 161.7,127.2 162.3,124.6 162.8,121.3 163.2,117.5 163.4,113.1 163.4,108.1 163.3,102.5 163,96.4 " />
<polygon points="163,94.1 169,89.1 180,98.1 175,102.1 169,102.1 " />
<polygon points="168.3,139.5 164,141.1 159.8,139.3 158.2,135.1 159.9,130.8 " />
<polygon points="168.3,139.5 166.5,141.1 164.6,142.5 162.7,143.8 160.6,145 158.5,145.9 156.3,146.7 154,147.3 151.7,147.8 149.4,148 147,148.1 147,136.1 148.5,136.1 150,135.9 151.4,135.6 152.7,135.3 154,134.8 155.2,134.2 156.4,133.6 157.6,132.8 158.8,131.9 159.9,130.8 " />
<polygon points="147,142.1 147,136.1 127,136.1 127,139.1 " />
<polygon points="17,122 157,122 157,126 17,126 " />
<polygon points="157,122 133,124 145,112 " />
<polygon points="106,104 106,183 94,189 94,102 " />
<polygon points="106,104 109,106 106,108 " />
<polygon points="101.4,124 98.9,127.3 92.7,135.3 85.9,142.7 78.6,149.6 70.6,155.9 62.1,161.7 53,166.9 43.4,171.6 33.3,175.7 22.5,179.1 11.2,181.8 10.7,180.1 21.2,175.5 31.1,170.8 40.5,165.7 49.2,160.4 57.3,154.7 64.8,148.6 71.7,142.2 78.1,135.4 83.8,128.2 86.6,124 " />
<polygon points="107.3,124.2 114,130.6 120.7,136.6 127.4,142.3 134.4,147.5 141.5,152.3 148.9,156.7 156.6,160.6 164.4,164.1 172.6,167.1 181,169.7 176.9,182.2 168.1,178.8 159.5,174.8 151.4,170.3 143.6,165.4 136.2,160 129.1,154 122.6,147.6 116.4,140.8 110.8,133.3 105.8,125.3 " />
<polygon points="176.9,182.2 181,169.7 188.6,172.1 " />
</g>
</svg>
