<svg xmlns="http://www.w3.org/2000/svg" xmlns:xlink="http://www.w3.org/1999/xlink" version="1.1" baseProfile="full" viewBox="0 0 200 200" width="200" height="200">
<g fill="black">
<polygon points="11.9,59.3 76.6,59.3 76.6,63.3 11.9,63.3 " />
<polygon points="76.6,59.3 52.6,61.3 64.6,49.3 " />
<polygon points="51.5,16.8 51.5,182.1 39.5,188.1 39.5,14.8 " />
<polygon points="51.5,16.8 54.5,18.8 49.5,21.8 " />
<polygon points="49.1,61.3 48.9,62.4 46.7,72.1 44.2,81.6 41.5,90.8 38.4,99.8 35,108.6 31.2,117.1 27.2,125.3 22.8,133.2 17.9,140.8 12.6,147.9 11.1,147 14.6,138.9 18,130.8 21.2,122.6 24.2,114.2 27,105.7 29.5,97 31.8,88.1 33.8,79 35.6,69.8 36.8,61.3 " />
<polygon points="48.4,85.7 51.6,86.9 54.9,88 58,89.2 60.9,90.7 63.8,92.4 66.4,94.2 69,96.2 71.4,98.3 73.7,100.7 75.9,103.1 65.7,109.5 64.6,107.1 63.4,104.8 62,102.6 60.5,100.3 58.8,98.1 56.9,95.9 54.9,93.7 52.7,91.5 50.3,89.2 47.6,87.3 " />
<polygon points="75.9,103.1 76.6,107.7 73.9,111.4 69.4,112.1 65.7,109.5 " />
<polygon points="67.1,26 129.7,26 129.7,30 67.1,30 " />
<polygon points="134.7,31.4 132.4,33.9 130,36.5 127.5,39.3 124.8,42.1 121.9,45 118.8,48 115.5,51 112,54.2 108.3,57.3 104.4,60.6 103.1,59.3 105.9,55.1 108.4,51 110.9,47.1 113.3,43.4 115.6,39.9 117.7,36.5 119.7,33.3 121.6,30.2 123.2,27.3 124.8,24.5 " />
<polygon points="123.7,26 129.7,21 140.7,30 135.7,33 123.7,38 " />
<polygon points="80.9,40.7 85.3,42.4 89.7,44.3 93.7,46.6 97.5,49.1 101.1,51.8 104.5,54.7 107.7,57.9 110.6,61.2 113.3,64.8 115.8,68.5 105.1,74 103.6,70.6 101.9,67.2 99.9,63.9 97.8,60.7 95.4,57.5 92.8,54.4 89.9,51.4 86.9,48.3 83.6,45.2 80,42.2 " />
<polygon points="115.8,68.5 116.1,73.1 113.2,76.6 108.6,76.9 105.1,74 " />
<polygon points="62.6,79 132.4,79 132.4,83 62.6,83 " />
<polygon points="137.8,83.6 136.1,86.2 134.2,88.9 132.2,91.6 130,94.4 127.7,97.3 125.2,100.2 122.5,103.2 119.6,106.3 116.5,109.3 113.4,112.5 112,111.4 114.1,107.5 115.9,103.6 117.7,100 119.4,96.5 121,93.1 122.5,89.9 123.8,86.8 125,83.8 126.1,81 127,78.3 " />
<polygon points="126.4,79 132.4,74 143.4,83 138.4,86 126.4,91 " />
<polygon points="110.7,79 110.7,172 98.7,172 98.7,79 " />
<polygon points="110.7,172 108.3,175.6 104.7,178 101.1,175.6 98.7,172 " />
<polygon points="110.7,172 110.5,174.5 110.1,177 109.3,179.4 108,181.7 106.4,183.7 104.4,185.3 102.1,186.6 99.7,187.4 97.2,187.8 94.7,188 94.7,176 95.9,175.9 96.8,175.7 97.4,175.5 97.7,175.4 97.9,175.2 98.1,175 98.2,174.7 98.4,174.1 98.6,173.2 98.7,172 " />
<polygon points="74.7,179 74.7,176 94.7,176 94.7,182 " />
<polygon points="110.9,81 110.4,82.6 107.2,91.8 103.6,100.6 99.7,109 95.5,117 90.9,124.6 85.9,131.8 80.6,138.5 74.9,144.7 68.8,150.5 62.3,155.6 61.1,154.3 66.1,147.9 70.8,141.3 75.3,134.6 79.6,127.6 83.5,120.3 87.2,112.8 90.6,104.9 93.6,96.7 96.4,88.1 98.4,81 " />
<polygon points="124.9,61 188,61 188,65 124.9,65 " />
<polygon points="188,61 164,63 176,51 " />
<polygon points="162.5,17 162.5,184 150.5,190 150.5,15 " />
<polygon points="162.5,17 165.5,19 160.5,22 " />
<polygon points="160.9,63 160.8,63.8 158.4,77.5 155.7,90.5 152.8,102.7 149.5,114.1 146.1,124.7 142.3,134.6 138.3,143.6 133.9,151.8 129.2,159.1 124.1,165.5 122.6,164.4 125.9,157.2 129.1,149.5 132.2,141.1 135.2,132 138,122.2 140.6,111.7 143,100.4 145.2,88.4 147.2,75.6 148.8,63 " />
<polygon points="159.4,63.8 162.7,76.2 165.8,87.8 168.9,98.7 172,108.8 175.2,118.1 178.5,126.6 181.8,134.2 185.3,141.1 188.8,147.1 192.3,152.3 181.4,159.6 177.9,153.2 174.6,146.2 171.6,138.4 168.8,130 166.3,120.8 163.9,110.9 161.9,100.4 160,89 158.6,76.9 157.6,64.1 " />
<polygon points="181.4,159.6 192.3,152.3 182.1,160.7 " />
</g>
</svg>
