<svg xmlns="http://www.w3.org/2000/svg" xmlns:xlink="http://www.w3.org/1999/xlink" version="1.1" baseProfile="full" viewBox="0 0 200 200" width="200" height="200">
<g fill="black">
<polygon points="106,17 106,63 94,63 94,15 " />
<polygon points="106,17 109,19 106,21 " />
<polygon points="101,37 167,37 167,41 101,41 " />
<polygon points="167,37 143,39 155,27 " />
<polygon points="63,25 63,63 51,63 51,23 " />
<polygon points="63,25 66,27 63,29 " />
<polygon points="19,59 184,59 184,63 19,63 " />
<polygon points="184,59 160,61 172,49 " />
<polygon points="42,85 42,134 30,134 30,79 " />
<polygon points="42,134 39.6,137.6 36,140 32.4,137.6 30,134 " />
<polygon points="41.9,134.3 41,141.6 39.7,148.6 38,155.2 35.9,161.4 33.4,167.3 30.5,172.7 27.1,177.7 23.4,182.3 19.2,186.2 14.6,189.6 13.3,188.3 16.3,183.7 19.1,179.1 21.5,174.3 23.7,169.3 25.5,164.1 27,158.6 28.2,152.9 29.1,146.8 29.7,140.4 30,133.6 " />
<polygon points="36,85 178,85 178,89 36,89 " />
<polygon points="178,85 154,87 166,75 " />
<polygon points="128.2,65.5 131.7,66.7 135.1,67.5 138.3,68.3 141.2,69.2 143.9,70.1 146.4,70.9 148.7,71.8 150.9,72.6 152.8,73.5 154.6,74.5 146.7,83.5 146,82.4 145,81.1 143.7,79.7 142.1,78.2 140.3,76.6 138.2,74.8 135.9,73 133.4,71.1 130.7,69 127.5,67.2 " />
<polygon points="154.6,74.5 156.6,78.6 155.2,82.9 151.1,84.9 146.7,83.5 " />
<polygon points="123,68.4 125.4,88.3 128.6,106.1 132.6,121.9 137.4,135.6 143,147.3 149.2,156.9 156.1,164.4 163.6,170.1 171.7,173.9 180.7,176 179.2,187.9 167.8,185.2 157.4,180.3 148,173.3 139.7,164.2 132.5,153.1 126.3,140.2 121.1,125.4 116.9,108.6 113.5,90 111.1,69.5 " />
<polygon points="111.1,69.5 123,68.4 110.9,67.4 " />
<polygon points="123,68.4 126.2,70.1 120.6,74.6 " />
<polygon points="180.7,176 184.7,178.3 185.9,182.7 183.6,186.7 179.2,187.9 " />
<polygon points="180.6,177 186,151.5 184,151.2 174.7,176.2 " />
<polygon points="172.2,111 167.3,122.6 161.8,133.4 155.8,143.3 149.3,152.4 142.3,160.7 134.9,168 126.9,174.5 118.5,180 109.6,184.4 100.3,187.8 99.6,186.1 107.8,181.1 115.5,175.5 122.8,169.4 129.6,162.6 135.9,155.2 141.8,147 147.2,138.1 152.2,128.5 156.8,118 161,106.8 " />
<polygon points="161,106.8 172.2,111 161.5,105.4 " />
<polygon points="172.2,111 174.4,113.9 167.4,115.6 " />
<polygon points="51,110 113,110 113,114 51,114 " />
<polygon points="113,110 89,112 101,100 " />
<polygon points="87,110 87,170 75,170 75,110 " />
<polygon points="87,170 84.6,173.6 81,176 77.4,173.6 75,170 " />
<polygon points="87,170 86.8,172.5 86.4,175 85.6,177.4 84.3,179.7 82.7,181.7 80.7,183.3 78.4,184.6 76,185.4 73.5,185.8 71,186 71,174 72.2,173.9 73.1,173.7 73.7,173.5 74,173.4 74.2,173.2 74.4,173 74.5,172.7 74.7,172.1 74.9,171.2 75,170 " />
<polygon points="71,180 71,174 51,174 51,177 " />
<polygon points="65.7,135.9 64.4,141.1 62.8,146.3 60.7,151.2 58.4,156 55.7,160.7 52.6,165.1 49.2,169.4 45.4,173.4 41.2,177.2 36.6,180.6 35.3,179.3 38.4,174.6 41.2,170.1 43.8,165.6 46.1,161.2 48.2,156.7 49.9,152.2 51.3,147.8 52.5,143.2 53.3,138.7 53.9,134 " />
<polygon points="53.9,134 65.7,135.9 54.2,132 " />
<polygon points="65.7,135.9 68.4,138.3 61.9,141.3 " />
<polygon points="94.3,133.9 97.4,136.1 100.5,138.1 103.4,140.4 106.1,142.7 108.6,145.2 110.9,147.8 112.9,150.5 114.8,153.4 116.4,156.3 117.9,159.4 106.3,162.8 105.9,160.2 105.3,157.6 104.5,155 103.5,152.3 102.3,149.6 100.9,146.8 99.3,144 97.5,141.1 95.5,138.1 93.1,135.3 " />
<polygon points="117.9,159.4 117.3,163.9 113.8,166.8 109.3,166.3 106.3,162.8 " />
</g>
</svg>
