<svg xmlns="http://www.w3.org/2000/svg" xmlns:xlink="http://www.w3.org/1999/xlink" version="1.1" baseProfile="full" viewBox="0 0 200 200" width="200" height="200">
<g fill="black">
<polygon points="110,15 110,59 98,59 98,13 " />
<polygon points="110,15 113,17 110,19 " />
<polygon points="104,32 169,32 169,36 104,36 " />
<polygon points="169,32 145,34 157,22 " />
<polygon points="66,22 66,59 54,59 54,20 " />
<polygon points="66,22 69,24 66,26 " />
<polygon points="19,55 185,55 185,59 19,59 " />
<polygon points="185,55 161,57 173,45 " />
<polygon points="41,80 41,120 29,120 29,74 " />
<polygon points="41,120 38.6,123.6 35,126 31.4,123.6 29,120 " />
<polygon points="41,120 40.4,129.3 39.4,138.2 38,146.5 36.1,154.3 33.7,161.5 30.9,168.1 27.6,174 23.7,179.4 19.4,183.9 14.6,187.6 13.3,186.3 16.5,181.5 19.3,176.4 21.7,171 23.9,165.2 25.7,158.9 27.1,152.2 28.1,144.9 28.8,137.1 29.1,128.8 29,120 " />
<polygon points="35,80 181,80 181,84 35,84 " />
<polygon points="181,80 157,82 169,70 " />
<polygon points="134.3,58.6 136.8,59.7 139.4,60.5 142,61.3 144.4,62.3 146.7,63.3 148.9,64.5 151,65.7 153,67 154.9,68.4 156.8,69.9 147.4,77.4 146.6,75.8 145.7,74.2 144.7,72.5 143.5,70.8 142.2,69.1 140.8,67.4 139.2,65.6 137.4,63.7 135.6,61.7 133.4,60.2 " />
<polygon points="156.8,69.9 158,74.3 155.8,78.3 151.4,79.5 147.4,77.4 " />
<polygon points="126,61.2 129.1,82.5 132.7,101.5 137,118.3 141.8,132.8 147.1,145 152.9,154.9 159.1,162.6 165.5,168 172.3,171.4 179.5,173 178.4,184.9 168.3,182.7 158.9,178 150.4,170.9 143,161.7 136.4,150.4 130.5,137 125.4,121.6 121,104.1 117.2,84.4 114.1,62.7 " />
<polygon points="114.1,62.7 126,61.2 113.9,60.6 " />
<polygon points="126,61.2 129.2,62.8 123.8,67.5 " />
<polygon points="179.5,173 183.5,175.1 184.9,179.5 182.8,183.5 178.4,184.9 " />
<polygon points="179.4,174 183.7,148.2 181.7,148.1 173.4,173.4 " />
<polygon points="171.4,97.6 166.5,111.4 160.8,124.1 154.4,135.8 147.3,146.4 139.3,156 130.7,164.3 121.4,171.6 111.3,177.6 100.6,182.4 89.2,185.8 88.7,184.1 99,178.9 108.6,173 117.4,166.3 125.5,158.8 132.9,150.4 139.6,141.1 145.7,130.8 151.1,119.6 155.8,107.4 159.9,94.2 " />
<polygon points="159.9,94.2 171.4,97.6 160.4,92.6 " />
<polygon points="171.4,97.6 173.7,100.4 166.8,102.5 " />
<polygon points="49,99 111,99 111,103 49,103 " />
<polygon points="111,99 87,101 99,89 " />
<polygon points="87,99 87,161 75,161 75,99 " />
<polygon points="66.9,119.2 66.2,124.7 65.2,130 63.8,135.2 62,140.2 59.9,145 57.4,149.6 54.6,154 51.3,158.2 47.7,162 43.6,165.5 42.3,164.4 44.7,159.8 46.9,155.3 48.9,150.8 50.6,146.4 52,141.9 53.2,137.4 54,132.8 54.6,128.2 54.9,123.5 54.9,118.7 " />
<polygon points="54.9,118.7 66.9,119.2 55,116.4 " />
<polygon points="66.9,119.2 69.8,121.3 63.7,125.1 " />
<polygon points="115.1,121.2 110.2,130.8 104.9,139.7 99,147.9 92.5,155.4 85.6,162.2 78.1,168.3 70.1,173.7 61.7,178.2 52.7,182 43.3,184.8 42.6,183.1 51.1,178.5 59,173.6 66.4,168.2 73.3,162.4 79.6,156.1 85.5,149.3 90.8,142 95.7,134.1 100.1,125.6 104,116.5 " />
<polygon points="104,116.5 115.1,121.2 104.6,115.2 " />
<polygon points="115.1,121.2 117,124.3 110,125.6 " />
</g>
</svg>
