<svg xmlns="http://www.w3.org/2000/svg" xmlns:xlink="http://www.w3.org/1999/xlink" version="1.1" baseProfile="full" viewBox="0 0 200 200" width="200" height="200">
<g fill="black">
<polygon points="109,18 109,81 97,81 97,16 " />
<polygon points="109,18 112,20 107,23 " />
<polygon points="103,44 177,44 177,48 103,48 " />
<polygon points="177,44 153,46 165,34 " />
<polygon points="74.7,62.9 72.9,70.2 70.4,77.3 67.3,84 63.7,90.5 59.4,96.6 54.6,102.4 49.2,107.8 43.2,112.9 36.7,117.5 29.5,121.7 28.4,120.2 34.3,114.6 39.6,108.9 44.4,103.3 48.7,97.6 52.4,91.8 55.6,85.9 58.2,79.9 60.3,73.7 61.8,67.4 62.9,61 " />
<polygon points="62.7,61.9 74.7,62.9 63.2,59 " />
<polygon points="74.7,62.9 77.3,65.4 71.9,67.5 " />
<polygon points="65,77 153,77 153,81 65,81 " />
<polygon points="158.6,80.8 152.2,96.6 144.2,111.2 134.6,124.7 123.5,137.1 110.9,148.2 96.9,158.2 81.4,167 64.4,174.5 46,180.8 26.2,185.8 25.7,184.1 44.8,177.2 62.3,169.6 78.2,161.2 92.6,151.9 105.5,141.7 116.8,130.6 126.6,118.6 134.9,105.7 141.8,91.9 147.3,77.1 " />
<polygon points="147,77 153,72 164,81 159,84 147,89 " />
<polygon points="65.2,98.5 69.7,99.6 74,101.1 78.3,103 82.5,105.3 86.7,108 90.7,111 94.6,114.3 98.5,117.9 102.3,121.8 106,126 96.4,133.2 93.5,129 90.5,125 87.5,121.2 84.5,117.7 81.3,114.4 78.1,111.3 74.8,108.3 71.4,105.5 68,102.8 64.5,100.2 " />
<polygon points="106,126 107,130.4 104.8,134.4 100.3,135.4 96.4,133.2 " />
</g>
</svg>
