<svg xmlns="http://www.w3.org/2000/svg" xmlns:xlink="http://www.w3.org/1999/xlink" version="1.1" baseProfile="full" viewBox="0 0 200 200" width="200" height="200">
<g fill="black">
<polygon points="20,29 180,29 180,33 20,33 " />
<polygon points="180,29 156,31 168,19 " />
<polygon points="100.4,31 99.6,33 94.1,45.9 88.1,58.1 81.6,69.6 74.5,80.5 66.8,90.7 58.7,100.3 50,109.1 40.7,117.1 30.9,124.3 20.5,130.7 19.4,129.2 28.5,121.3 37.1,113.1 45.3,104.5 52.9,95.3 60.1,85.7 66.7,75.4 72.9,64.7 78.5,53.3 83.7,41.4 87.5,31 " />
<polygon points="76,66 150,66 150,70 76,70 " />
<polygon points="155.6,69.9 148.2,88.5 139.5,105.6 129.6,121.2 118.5,135.3 106.1,147.8 92.6,158.7 77.9,168 62.1,175.7 45.2,181.6 27.2,185.8 26.7,184.1 43.9,178 59.9,170.8 74.6,162.4 88,152.6 100.3,141.6 111.4,129.3 121.3,115.6 130.1,100.5 137.7,84 144.3,66 " />
<polygon points="144,66 150,61 161,70 156,73 144,78 " />
<polygon points="71.2,93.4 76.4,94.5 81.5,95.9 86.3,97.7 90.8,99.9 95.1,102.3 99.1,105.1 102.9,108.2 106.4,111.6 109.6,115.3 112.6,119.3 102.3,125.4 100.3,121.8 98.2,118.4 95.7,115.1 93,112 90,108.9 86.7,106 83.1,103.2 79.3,100.5 75.1,97.8 70.6,95.1 " />
<polygon points="112.6,119.3 113.2,123.8 110.5,127.5 105.9,128.1 102.3,125.4 " />
</g>
</svg>
