<svg xmlns="http://www.w3.org/2000/svg" xmlns:xlink="http://www.w3.org/1999/xlink" version="1.1" baseProfile="full" viewBox="0 0 200 200" width="200" height="200">
<g fill="black">
<polygon points="17,37 103,37 103,41 17,41 " />
<polygon points="103,37 79,39 91,27 " />
<polygon points="65,16 65,68 53,68 53,14 " />
<polygon points="65,16 68,18 65,20 " />
<polygon points="25,64 98,64 98,68 25,68 " />
<polygon points="98,64 74,66 86,54 " />
<polygon points="24.1,75.7 25.7,80 27.2,84.2 28.3,88.5 29,92.8 29.3,97.1 29.3,101.3 28.9,105.6 28.2,109.7 27.1,113.9 25.7,118 14.9,112.6 16.7,109.6 18.2,106.6 19.4,103.4 20.5,100 21.4,96.5 22,92.8 22.4,88.9 22.6,84.9 22.7,80.6 22.3,76.1 " />
<polygon points="25.7,118 22.2,120.9 17.6,120.6 14.7,117.1 14.9,112.6 " />
<polygon points="25,85 95,85 95,89 25,89 " />
<polygon points="100.8,88.4 99.7,90.8 98.6,93.3 97.4,95.8 96.1,98.3 94.8,100.9 93.3,103.5 91.8,106.1 90.1,108.8 88.3,111.4 86.8,114.3 85.1,113.6 85.9,110.5 86.3,107.4 86.8,104.3 87.2,101.4 87.6,98.5 88,95.7 88.4,93.1 88.7,90.5 88.9,87.9 89.1,85.5 " />
<polygon points="89,85 95,80 106,89 101,93 95,93 " />
<polygon points="49.9,108.8 49.5,120.5 48.5,131.4 46.9,141.5 44.6,150.7 41.7,159.1 38.1,166.6 33.9,173.2 29,178.8 23.5,183.4 17.4,186.7 16.5,185.2 21,180.5 24.9,175.4 28.4,169.7 31.3,163.4 33.7,156.3 35.6,148.5 37,139.8 37.8,130.4 38.1,120.1 37.9,109.1 " />
<polygon points="37.9,109.1 49.9,108.8 37.8,103.1 " />
<polygon points="44,109 73,109 73,113 44,113 " />
<polygon points="79,111 79,152 67,152 67,111 " />
<polygon points="67,109 73,104 84,113 79,117 67,111 " />
<polygon points="79,152 76.6,155.6 73,158 69.4,155.6 67,152 " />
<polygon points="79,152 79,153.2 79.2,154.1 79.4,154.7 79.5,155 79.7,155.2 79.9,155.4 80.2,155.5 80.8,155.7 81.7,155.9 83,156 83,168 80.4,167.8 77.9,167.4 75.5,166.6 73.2,165.3 71.2,163.7 69.6,161.7 68.3,159.4 67.5,157 67.1,154.5 67,152 " />
<polygon points="83,156 87.2,157.8 89,162 87.2,166.2 83,168 " />
<polygon points="83,156 101,156 101,168 83,168 " />
<polygon points="101,156 104.6,158.4 107,162 104.6,165.6 101,168 " />
<polygon points="95,157 101,131 103,131 101,157 " />
<polygon points="130,24 130,48 118,48 118,18 " />
<polygon points="130,48 127.6,51.6 124,54 120.4,51.6 118,48 " />
<polygon points="130,48 129.5,53.4 128.6,58.8 127.4,63.9 125.8,68.9 123.9,73.6 121.6,78.1 119,82.4 115.9,86.5 112.5,90.2 108.6,93.5 107.3,92.4 109.5,88 111.5,83.7 113.3,79.4 114.8,75.1 116,70.8 117,66.4 117.6,61.9 118,57.4 118.1,52.7 118,48 " />
<polygon points="124,24 159,24 159,28 124,28 " />
<polygon points="165,26 165,72 153,72 153,26 " />
<polygon points="153,24 159,19 170,28 165,32 153,26 " />
<polygon points="165,72 162.6,75.6 159,78 155.4,75.6 153,72 " />
<polygon points="165,72 165,73.2 165.2,74.1 165.4,74.7 165.5,75 165.7,75.2 165.9,75.4 166.2,75.5 166.8,75.7 167.7,75.9 169,76 169,88 166.4,87.8 163.9,87.4 161.5,86.6 159.2,85.3 157.2,83.7 155.6,81.7 154.3,79.4 153.5,77 153.1,74.5 153,72 " />
<polygon points="169,76 173.2,77.8 175,82 173.2,86.2 169,88 " />
<polygon points="169,76 183,76 183,88 169,88 " />
<polygon points="183,76 186.6,78.4 189,82 186.6,85.6 183,88 " />
<polygon points="177,77 183,51 185,51 183,77 " />
<polygon points="108,99 167,99 167,103 108,103 " />
<polygon points="172.8,102.2 168.9,115.9 164,128.4 158.1,139.7 151.2,149.8 143.3,158.6 134.4,166.2 124.6,172.4 114,177.3 102.4,180.8 90.1,182.8 89.8,181.1 101.3,177.2 111.8,172.4 121.2,166.8 129.6,160.3 137.1,152.8 143.7,144.3 149.3,134.8 154.1,124.2 158,112.5 161.1,99.7 " />
<polygon points="161,99 167,94 178,103 173,107 167,107 " />
<polygon points="119,101.7 123.3,113.4 127.8,123.8 132.7,133.1 138.1,141.2 144,148.1 150.4,153.9 157.2,158.6 164.6,162.2 172.5,164.8 181,166.4 178.9,179.5 168.9,176.8 159.6,172.9 151.2,167.8 143.7,161.6 137,154.3 131.2,145.9 126.3,136.4 122.3,126 119.3,114.6 117.3,102.1 " />
<polygon points="178.9,179.5 181,166.4 190.7,168.1 " />
</g>
</svg>
