<svg xmlns="http://www.w3.org/2000/svg" xmlns:xlink="http://www.w3.org/1999/xlink" version="1.1" baseProfile="full" viewBox="0 0 200 200" width="200" height="200">
<g fill="black">
<polygon points="70,25 70,47 58,47 58,19 " />
<polygon points="70,47 67.6,50.6 64,53 60.4,50.6 58,47 " />
<polygon points="69.9,47.1 68.9,55.3 66.8,62.9 63.6,70.1 59.3,76.7 54.1,82.8 48,88.2 40.9,93.1 32.9,97.3 24.1,100.9 14.3,103.8 13.6,102.1 22.5,97.4 30.3,92.6 37.2,87.6 43,82.5 47.8,77.1 51.6,71.6 54.5,65.8 56.5,59.8 57.7,53.4 58,46.8 " />
<polygon points="64,25 132,25 132,29 64,29 " />
<polygon points="138,27 138,75 126,75 126,27 " />
<polygon points="126,25 132,20 143,29 138,33 126,27 " />
<polygon points="138,75 135.6,78.6 132,81 128.4,78.6 126,75 " />
<polygon points="138,75 138,76.2 138.2,77.1 138.4,77.7 138.5,78 138.7,78.2 138.9,78.4 139.2,78.5 139.8,78.7 140.7,78.9 142,79 142,91 139.4,90.8 136.9,90.4 134.5,89.6 132.2,88.3 130.2,86.7 128.6,84.7 127.3,82.4 126.5,80 126.1,77.5 126,75 " />
<polygon points="142,79 146.2,80.8 148,85 146.2,89.2 142,91 " />
<polygon points="142,79 178,79 178,91 142,91 " />
<polygon points="178,79 181.6,81.4 184,85 181.6,88.6 178,91 " />
<polygon points="172,80 178,54 180,54 178,80 " />
<polygon points="33,103 143,103 143,107 33,107 " />
<polygon points="148.3,107.6 140.9,120.3 132.1,132 122,142.7 110.6,152.3 98,160.8 84.1,168.2 68.9,174.6 52.6,179.8 34.9,183.9 16.1,186.8 15.8,185.1 34.1,180.2 50.9,174.7 66.5,168.5 80.6,161.5 93.4,153.6 104.9,145 115,135.5 123.8,125.3 131.3,114.2 137.6,102.3 " />
<polygon points="137,103 143,98 154,107 149,111 143,111 " />
<polygon points="57.2,105.4 64.8,116.4 73.2,126.4 82.3,135.4 92.4,143.4 103.5,150.4 115.6,156.5 128.8,161.7 143,165.9 158.3,169.1 174.8,171.4 173.1,184.5 155.9,181.4 139.8,177.2 124.9,172 111.2,165.7 98.6,158.4 87.3,150 77.3,140.6 68.6,130.2 61.3,118.7 55.6,106.2 " />
<polygon points="173.1,184.5 174.8,171.4 185,172.7 " />
</g>
</svg>
