<svg xmlns="http://www.w3.org/2000/svg" xmlns:xlink="http://www.w3.org/1999/xlink" version="1.1" baseProfile="full" viewBox="0 0 200 200" width="200" height="200">
<g fill="black">
<polygon points="64.2,28.7 47.1,161.6 34.5,166 53,21.3 " />
<polygon points="43,145 178,145 178,149 43,149 " />
<polygon points="178,145 154,147 166,135 " />
<polygon points="58,28 147,28 147,32 58,32 " />
<polygon points="152.9,30.2 151.7,55.3 150.2,78.1 148.6,98.5 146.8,116.7 144.9,132.5 142.8,146.1 140.5,157.4 138,166.5 135.1,173.7 131.3,179.1 122.8,170.6 124.4,168.2 126.6,162.7 128.8,154.6 131,144 133,130.9 134.9,115.4 136.7,97.5 138.2,77.2 139.7,54.6 141,29.7 " />
<polygon points="141,28 147,23 158,32 153,36 147,36 " />
<polygon points="131.3,179.1 127,180.8 122.8,179.1 121.1,174.9 122.8,170.6 " />
<polygon points="131.3,179.1 129.5,180.8 127.6,182.3 125.7,183.6 123.6,184.7 121.5,185.7 119.3,186.5 117,187.2 114.7,187.6 112.4,187.9 110,188 110,176 111.5,175.9 112.9,175.7 114.3,175.5 115.7,175.1 116.9,174.6 118.1,174.1 119.3,173.4 120.5,172.6 121.7,171.7 122.8,170.6 " />
<polygon points="110,182 110,176 90,176 90,179 " />
<polygon points="85.2,42.5 89.3,43.9 93.2,45.3 96.9,47.1 100.3,49.2 103.6,51.6 106.5,54.4 109.2,57.4 111.7,60.8 113.8,64.4 115.7,68.2 104.3,72 103.5,68.8 102.4,65.7 101.1,62.7 99.6,59.8 97.8,57 95.8,54.3 93.4,51.7 90.8,49.1 87.8,46.5 84.5,44.2 " />
<polygon points="115.7,68.2 115.3,72.8 111.9,75.8 107.3,75.4 104.3,72 " />
<polygon points="77.2,99.5 81.7,100.7 86,102.2 90.1,104.1 93.9,106.4 97.5,109 100.8,112 103.9,115.2 106.7,118.9 109.2,122.8 111.4,127 100.3,131.3 99.1,127.7 97.6,124.2 95.9,120.9 94,117.7 91.8,114.7 89.3,111.8 86.6,109 83.6,106.3 80.2,103.6 76.5,101.2 " />
<polygon points="111.4,127 111.3,131.5 108,134.7 103.5,134.6 100.3,131.3 " />
<polygon points="16,86 184,86 184,90 16,90 " />
<polygon points="184,86 160,88 172,76 " />
</g>
</svg>
