<svg xmlns="http://www.w3.org/2000/svg" xmlns:xlink="http://www.w3.org/1999/xlink" version="1.1" baseProfile="full" viewBox="0 0 200 200" width="200" height="200">
<g fill="black">
<polygon points="56.1,36.3 47.1,181.3 34.7,186.5 44.5,29.6 " />
<polygon points="42,165 156,165 156,169 42,169 " />
<polygon points="50,36 161,36 161,40 50,40 " />
<polygon points="166.9,38.2 161.6,175.2 149.4,180.7 155,37.7 " />
<polygon points="155,36 161,31 172,40 167,44 155,38 " />
<polygon points="112,36.3 104.8,169.3 92.9,168.6 100.1,35.6 " />
<polygon points="12,100 190,100 190,104 12,104 " />
<polygon points="190,100 166,102 178,90 " />
</g>
</svg>
