<svg xmlns="http://www.w3.org/2000/svg" xmlns:xlink="http://www.w3.org/1999/xlink" version="1.1" baseProfile="full" viewBox="0 0 200 200" width="200" height="200">
<g fill="black">
<polygon points="66.3,16.9 63,24.8 59.2,32.4 55.1,39.7 50.5,46.7 45.6,53.4 40.2,59.8 34.5,65.8 28.3,71.6 21.6,76.8 14.5,81.6 13.4,80.3 19.1,74 24.5,67.8 29.6,61.5 34.3,55.1 38.7,48.5 42.7,41.7 46.3,34.8 49.5,27.7 52.4,20.4 55,12.9 " />
<polygon points="55,12.9 66.3,16.9 55.5,11.5 " />
<polygon points="66.3,16.9 68.5,19.8 61.5,21.5 " />
<polygon points="49,39 177,39 177,43 49,43 " />
<polygon points="177,39 153,41 165,29 " />
<polygon points="64.2,65.1 46.6,170.9 33.7,174.9 53.3,57.2 " />
<polygon points="43,154.1 178,154.1 178,158.1 43,158.1 " />
<polygon points="178,154.1 154,156.1 166,144.1 " />
<polygon points="58,64.1 147,64.1 147,68.1 58,68.1 " />
<polygon points="152.9,66.4 151.7,85.8 150.2,103.3 148.7,119.1 147,133 145.1,145.2 143.1,155.7 140.8,164.5 138.4,171.6 135.5,177.3 131.5,181.7 124.2,172.2 125.4,170.8 127.3,167 129.3,161.1 131.3,153.1 133.3,143.2 135.1,131.4 136.7,117.7 138.3,102.2 139.7,84.9 141,65.7 " />
<polygon points="141,64.1 147,59.1 158,68.1 153,72.1 147,72.1 " />
<polygon points="131.5,181.7 127.1,182.9 123.1,180.6 122,176.2 124.2,172.2 " />
<polygon points="131.5,181.7 129.6,183.1 127.7,184.4 125.6,185.5 123.5,186.4 121.4,187.2 119.2,187.9 116.9,188.4 114.6,188.8 112.3,189 110,189.1 110,177.1 111.6,177 113.1,176.9 114.6,176.7 116.1,176.3 117.5,175.9 118.9,175.4 120.3,174.7 121.6,174 122.9,173.2 124.2,172.2 " />
<polygon points="110,183.1 110,177.1 90,177.1 90,180.1 " />
<polygon points="85.2,75.5 89.1,76.5 92.9,77.4 96.5,78.6 99.9,80 103,81.7 106,83.7 108.7,85.9 111.2,88.3 113.4,91.1 115.3,94 104.3,98.8 103.6,96.5 102.7,94.3 101.5,92.1 100,89.9 98.2,87.7 96.2,85.5 93.8,83.4 91.1,81.2 88.1,79 84.6,77.2 " />
<polygon points="115.3,94 115.3,98.6 112.1,101.9 107.6,101.9 104.3,98.8 " />
<polygon points="77.2,119.4 81.5,120.3 85.7,121.2 89.7,122.5 93.4,124 97,125.8 100.3,128 103.3,130.4 106.1,133 108.7,136 110.9,139.2 100.2,144.6 99.2,142 97.9,139.4 96.3,136.9 94.4,134.5 92.2,132.1 89.8,129.8 87,127.5 83.9,125.3 80.5,123 76.6,121.1 " />
<polygon points="110.9,139.2 111.2,143.8 108.3,147.3 103.7,147.6 100.2,144.6 " />
<polygon points="16,108.7 184,108.7 184,112.7 16,112.7 " />
<polygon points="184,108.7 160,110.7 172,98.7 " />
</g>
</svg>
