<svg xmlns="http://www.w3.org/2000/svg" xmlns:xlink="http://www.w3.org/1999/xlink" version="1.1" baseProfile="full" viewBox="0 0 200 200" width="200" height="200">
<g fill="black">
<polygon points="64.2,28.7 47.1,161.6 34.5,166 53,21.3 " />
<polygon points="43,145 178,145 178,149 43,149 " />
<polygon points="178,145 154,147 166,135 " />
<polygon points="58,28 147,28 147,32 58,32 " />
<polygon points="152.9,30.2 151.7,55.3 150.2,78.1 148.6,98.5 146.8,116.7 144.9,132.5 142.8,146.1 140.5,157.4 138,166.5 135.1,173.7 131.3,179.1 122.8,170.6 124.4,168.2 126.6,162.7 128.8,154.6 131,144 133,130.9 134.9,115.4 136.7,97.5 138.2,77.2 139.7,54.6 141,29.7 " />
<polygon points="141,28 147,23 158,32 153,36 147,36 " />
<polygon points="131.3,179.1 127,180.8 122.8,179.1 121.1,174.9 122.8,170.6 " />
<polygon points="131.3,179.1 129.5,180.8 127.6,182.3 125.7,183.6 123.6,184.7 121.5,185.7 119.3,186.5 117,187.2 114.7,187.6 112.4,187.9 110,188 110,176 111.5,175.9 112.9,175.7 114.3,175.5 115.7,175.1 116.9,174.6 118.1,174.1 119.3,173.4 120.5,172.6 121.7,171.7 122.8,170.6 " />
<polygon points="110,182 110,176 90,176 90,179 " />
<polygon points="108.1,28.6 95.7,149.6 83.8,148.3 96.2,27.3 " />
<polygon points="16,86 184,86 184,90 16,90 " />
<polygon points="184,86 160,88 172,76 " />
</g>
</svg>
