<svg xmlns="http://www.w3.org/2000/svg" xmlns:xlink="http://www.w3.org/1999/xlink" version="1.1" baseProfile="full" viewBox="0 0 200 200" width="200" height="200">
<g fill="black">
<polygon points="149.8,28 139.7,30.8 129.6,33.3 119.3,35.7 108.8,37.8 98.3,39.7 87.7,41.3 77,42.7 66.1,43.8 55.1,44.5 44,44.8 43.9,43.1 54.6,40.8 65.3,38.5 75.9,36.2 86.3,33.9 96.6,31.4 106.8,28.7 116.8,25.9 126.7,23 136.5,19.8 146.2,16.5 " />
<polygon points="145.2,16.8 149.8,28 156,26 " />
<polygon points="156,26 156.3,29.1 149.4,26 " />
<polygon points="50,42 50,153 38,153 38,36 " />
<polygon points="18.6,151.9 26.3,150.4 34.2,148.7 42.5,146.8 51,144.8 59.7,142.6 68.7,140.3 78,137.8 87.6,135.2 97.4,132.7 107.6,130.1 108.3,131.8 98.7,136.2 89.3,140.3 80.1,144 71,147.5 62.2,150.7 53.6,153.7 45.2,156.5 37,159 29,161.4 21.3,163.6 " />
<polygon points="21.3,163.6 18.6,151.9 16.6,152.3 " />
<polygon points="21.3,163.6 23.9,166 26.4,159.3 " />
<polygon points="44,87 183,87 183,91 44,91 " />
<polygon points="183,87 159,89 171,77 " />
<polygon points="111,33 111.5,53.6 113.3,72.5 116.3,89.5 120.6,104.8 126.3,118.2 133.4,130 141.9,140.1 152.1,148.6 164,155.7 177.8,161.2 174.1,172.7 158.7,166.4 145.1,158.4 133.4,148.6 123.6,137 115.6,123.7 109.3,108.7 104.6,92.2 101.4,74.1 99.5,54.3 99,33 " />
<polygon points="177.8,161.2 181.2,164.3 181.7,168.8 178.6,172.2 174.1,172.7 " />
<polygon points="176,162 178,136 176,136 170,162 " />
<polygon points="26,175 144,175 144,179 26,179 " />
<polygon points="144,175 120,177 132,165 " />
</g>
</svg>
