<svg xmlns="http://www.w3.org/2000/svg" xmlns:xlink="http://www.w3.org/1999/xlink" version="1.1" baseProfile="full" viewBox="0 0 200 200" width="200" height="200">
<g fill="black">
<polygon points="151.9,27 141.4,30 130.8,32.7 120.2,35.3 109.4,37.5 98.6,39.5 87.7,41.2 76.6,42.7 65.5,43.8 54.3,44.5 43,44.8 42.9,43 53.9,40.7 64.8,38.5 75.6,36.2 86.3,33.8 96.8,31.2 107.3,28.5 117.7,25.5 127.9,22.4 138.1,19.1 148.1,15.6 " />
<polygon points="147.2,15.9 151.9,27 157.9,25 " />
<polygon points="157.9,25 158.1,28.1 151.3,25.1 " />
<polygon points="49,41.9 49,164.3 37,164.3 37,35.9 " />
<polygon points="18.6,162.9 26.3,161.5 34.3,159.9 42.5,158.1 51,156.2 59.8,154.1 68.8,151.9 78,149.6 87.6,147.2 97.5,144.8 107.7,142.3 108.2,144.1 98.7,148.3 89.3,152.3 80,155.9 71,159.2 62.1,162.3 53.5,165.1 45.1,167.8 36.9,170.3 29,172.5 21.2,174.6 " />
<polygon points="21.2,174.6 18.6,162.9 16.7,163.3 " />
<polygon points="21.2,174.6 23.8,177.1 26.4,170.4 " />
<polygon points="43,87.7 183,87.7 183,91.7 43,91.7 " />
<polygon points="183,87.7 159,89.7 171,77.7 " />
<polygon points="112,36.2 112.5,58.6 114.3,78.8 117.3,96.9 121.6,112.7 127.2,126.3 134.1,137.9 142.5,147.4 152.3,155 163.8,160.9 177.3,165 174.6,176.7 159.4,172 145.9,165.2 134.2,156.1 124.4,144.9 116.5,131.7 110.2,116.5 105.6,99.4 102.4,80.3 100.5,59.3 100,36.2 " />
<polygon points="177.3,165 181,167.7 181.8,172.2 179.1,175.9 174.6,176.7 " />
<polygon points="176,165.9 178,139.9 176,139.9 170,165.9 " />
<polygon points="92.2,159.5 96.3,160.8 100.2,161.9 103.9,163.3 107.3,164.8 110.5,166.6 113.4,168.5 116,170.6 118.4,172.9 120.6,175.5 122.4,178.2 111.3,183 110.8,181 110,179 108.9,176.9 107.4,174.7 105.6,172.5 103.5,170.3 101,168 98.2,165.7 95.1,163.2 91.5,161.1 " />
<polygon points="122.4,178.2 122.4,182.8 119.2,186.1 114.6,186.1 111.3,183 " />
</g>
</svg>
