<svg xmlns="http://www.w3.org/2000/svg" xmlns:xlink="http://www.w3.org/1999/xlink" version="1.1" baseProfile="full" viewBox="0 0 200 200" width="200" height="200">
<g fill="black">
<polygon points="107,39 107,150 95,150 95,37 " />
<polygon points="107,39 110,41 107,43 " />
<polygon points="107,150 104.6,153.6 101,156 97.4,153.6 95,150 " />
<polygon points="107,150 106.8,152.5 106.4,155 105.6,157.4 104.3,159.7 102.7,161.7 100.7,163.3 98.4,164.6 96,165.4 93.5,165.8 91,166 91,154 92.2,153.9 93.1,153.7 93.7,153.5 94,153.4 94.2,153.2 94.4,153 94.5,152.7 94.7,152.1 94.9,151.2 95,150 " />
<polygon points="91,160 91,154 71,154 71,157 " />
<polygon points="30.3,51.7 35.7,53.8 40.9,56.3 45.7,59.1 50.2,62.1 54.5,65.3 58.5,68.8 62.2,72.4 65.6,76.2 68.8,80.2 71.7,84.4 61.3,90.3 59.3,86.4 57,82.6 54.5,78.9 51.7,75.2 48.6,71.5 45.3,67.9 41.7,64.3 37.8,60.7 33.7,57 29.4,53.2 " />
<polygon points="71.7,84.4 72.2,88.9 69.4,92.6 64.9,93.1 61.3,90.3 " />
<polygon points="18.2,136.1 25.5,132.9 32.8,129.5 40.2,126.1 47.5,122.7 54.9,119.1 62.3,115.5 69.7,111.9 77.2,108.3 84.8,104.7 92.5,101.2 93.4,102.7 86.7,107.9 79.9,112.9 73,117.6 66,122.1 59,126.6 51.9,130.8 44.8,135 37.7,139.1 30.6,143 23.5,146.9 " />
<polygon points="23.5,146.9 18.2,136.1 16.4,137 " />
<polygon points="23.5,146.9 26.6,148.7 27.6,141.6 " />
<polygon points="167.6,54.9 164.1,60 160.5,65.2 156.7,70.3 152.8,75.3 148.8,80.4 144.6,85.4 140.2,90.3 135.6,95.2 130.8,100 125.6,104.5 124.3,103.4 127.8,97.5 131.4,91.9 135,86.3 138.5,80.9 141.9,75.4 145.2,70.1 148.4,64.7 151.5,59.4 154.4,54 157.3,48.8 " />
<polygon points="157.3,48.8 167.6,54.9 157.8,47.9 " />
<polygon points="167.6,54.9 169.2,58.1 162,58.5 " />
<polygon points="102.2,92.5 112,95.8 121.4,99.5 130.2,103.5 138.5,107.7 146.3,112.2 153.7,116.9 160.6,121.8 167,126.9 173,132.2 178.5,137.8 169.5,145.6 164.9,140.2 159.8,134.8 154.2,129.6 148.1,124.4 141.6,119.3 134.5,114.2 127,109.2 118.9,104.3 110.4,99.3 101.5,94.2 " />
<polygon points="178.5,137.8 179.9,142.1 177.9,146.2 173.6,147.6 169.5,145.6 " />
</g>
</svg>
