<svg xmlns="http://www.w3.org/2000/svg" xmlns:xlink="http://www.w3.org/1999/xlink" version="1.1" baseProfile="full" viewBox="0 0 200 200" width="200" height="200">
<g fill="black">
<polygon points="106,16 106,172 94,172 94,14 " />
<polygon points="106,16 109,18 106,20 " />
<polygon points="106,172 103.6,175.6 100,178 96.4,175.6 94,172 " />
<polygon points="106,172 105.8,174.5 105.4,177 104.6,179.4 103.3,181.7 101.7,183.7 99.7,185.3 97.4,186.6 95,187.4 92.5,187.8 90,188 90,176 91.2,175.9 92.1,175.7 92.7,175.5 93,175.4 93.2,175.2 93.4,175 93.5,174.7 93.7,174.1 93.9,173.2 94,172 " />
<polygon points="90,182 90,176 70,176 70,179 " />
<polygon points="18,68 73,68 73,72 18,72 " />
<polygon points="78.9,70.7 76.3,84.2 72.8,96.8 68.5,108.7 63.2,119.8 57.1,130.2 50.1,139.7 42.2,148.3 33.5,156.1 23.9,162.9 13.4,168.7 12.5,167.2 21.6,159.9 29.9,152.1 37.3,143.9 44,135.1 49.8,125.7 54.9,115.7 59.1,105.1 62.5,93.8 65.2,81.8 67,69.2 " />
<polygon points="67,68 73,63 84,72 79,76 73,76 " />
<polygon points="175.5,60.9 171.5,64.3 167.2,67.8 162.6,71.4 157.7,75 152.4,78.7 146.8,82.5 140.8,86.3 134.4,90.2 127.7,94 120.5,97.7 119.4,96.2 125.5,90.8 131.3,85.8 136.9,81 142.2,76.4 147.2,72 151.8,67.8 156.1,63.7 160.1,59.8 163.7,56 167,52.4 " />
<polygon points="167,52.4 175.5,60.9 167.3,52.1 " />
<polygon points="175.5,60.9 176.2,64.4 169.1,63 " />
<polygon points="105.9,26.9 109.1,46.6 113.2,64.7 118.2,81.4 124.3,96.5 131.5,110.2 139.8,122.4 149.2,133.1 159.6,142.4 171.1,150.4 183.8,157 178.1,168.9 164.4,160.9 152.1,151.5 141.1,140.6 131.5,128.3 123.4,114.7 116.7,99.8 111.3,83.5 107.4,66 105,47.1 104.1,27 " />
<polygon points="178.1,168.9 183.8,157 189.4,159.7 " />
</g>
</svg>
