<svg xmlns="http://www.w3.org/2000/svg" xmlns:xlink="http://www.w3.org/1999/xlink" version="1.1" baseProfile="full" viewBox="0 0 200 200" width="200" height="200">
<g fill="black">
<polygon points="67.2,11.4 74.3,12.4 81.1,13.9 87.5,15.7 93.5,17.9 99.2,20.2 104.5,22.8 109.5,25.7 114.2,28.8 118.5,32.1 122.4,35.7 113.5,43.7 110.6,40.4 107.4,37.1 103.7,33.9 99.7,30.7 95.2,27.7 90.3,24.7 85,21.8 79.3,19 73.2,16.1 66.7,13.1 " />
<polygon points="122.4,35.7 123.9,40 122,44.2 117.6,45.7 113.5,43.7 " />
<polygon points="34,58 100,58 100,62 34,62 " />
<polygon points="106,60 106,173 94,173 94,60 " />
<polygon points="94,58 100,53 111,62 106,66 94,60 " />
<polygon points="106,173 103.6,176.6 100,179 96.4,176.6 94,173 " />
<polygon points="106,173 105.8,175.5 105.4,178 104.6,180.4 103.3,182.7 101.7,184.7 99.7,186.3 97.4,187.6 95,188.4 92.5,188.8 90,189 90,177 91.2,176.9 92.1,176.7 92.7,176.5 93,176.4 93.2,176.2 93.4,176 93.5,175.7 93.7,175.1 93.9,174.2 94,173 " />
<polygon points="90,183 90,177 70,177 70,180 " />
<polygon points="16,91 71,91 71,95 16,95 " />
<polygon points="76.8,94.1 74,104.7 70.4,114.7 65.9,124.3 60.5,133.3 54.4,141.7 47.4,149.6 39.6,156.9 31,163.5 21.6,169.5 11.4,174.7 10.5,173.2 19.5,166.4 27.7,159.3 35.1,152.1 41.7,144.5 47.5,136.7 52.6,128.5 56.8,119.9 60.3,110.9 63.1,101.6 65.1,91.8 " />
<polygon points="65,91 71,86 82,95 77,99 71,99 " />
<polygon points="174.2,69.1 170.1,72.3 165.7,75.5 161.1,78.9 156.1,82.4 150.8,86 145.3,89.7 139.4,93.4 133.1,97.2 126.5,101 119.5,104.7 118.4,103.2 124.3,97.9 130,92.8 135.5,88.1 140.7,83.6 145.7,79.3 150.4,75.1 154.8,71.1 158.9,67.3 162.7,63.6 166.2,60.1 " />
<polygon points="166.2,60.1 174.2,69.1 166.4,60 " />
<polygon points="174.2,69.1 174.7,72.7 167.7,70.9 " />
<polygon points="106.1,67.7 110.8,80.3 115.9,92.2 121.8,103.3 128.2,113.6 135.5,123.1 143.4,131.9 152.2,140 161.6,147.4 171.9,154.1 183,160.1 176.9,171.8 165.2,164.7 154.5,156.8 144.7,148.2 135.9,138.8 128,128.8 121.2,118 115.3,106.5 110.5,94.4 106.8,81.6 104.3,68.1 " />
<polygon points="176.9,171.8 183,160.1 188.1,162.8 " />
</g>
</svg>
