<svg xmlns="http://www.w3.org/2000/svg" xmlns:xlink="http://www.w3.org/1999/xlink" version="1.1" baseProfile="full" viewBox="0 0 200 200" width="200" height="200">
<g fill="black">
<polygon points="55.9,51.9 57,60.9 57.4,69.3 57,77.3 56,84.8 54.3,91.8 52,98.2 49,104.2 45.2,109.5 40.8,114.3 35.7,118.4 29.3,108.3 33.4,105.6 37.2,102.4 40.6,98.6 43.7,94 46.4,88.8 48.7,82.9 50.5,76.3 52,68.9 53.2,60.8 54.1,52 " />
<polygon points="35.7,118.4 31.2,119.1 27.4,116.5 26.7,112 29.3,108.3 " />
<polygon points="171.7,62.7 166.8,67.5 161.8,72.1 156.7,76.7 151.3,81.2 145.8,85.6 140.2,89.9 134.3,94.1 128.3,98.2 122,102 115.5,105.7 114.4,104.2 119.7,99 125,94 130.2,89 135.3,84.1 140.2,79.2 145,74.3 149.7,69.4 154.2,64.5 158.6,59.6 162.9,54.6 " />
<polygon points="162.2,55.4 171.7,62.7 163.2,54.3 " />
<polygon points="171.7,62.7 172.5,66.3 166.8,65.1 " />
<polygon points="106,19 104.8,45.7 101.9,70.2 97.2,92.6 90.7,112.9 82.5,130.9 72.4,146.7 60.7,160.1 47.2,171.2 32,179.8 15.2,185.8 14.7,184.1 30.2,176.4 43.9,166.9 55.9,155.5 66.3,142.3 74.9,127 82,109.7 87.4,90.2 91.2,68.6 93.4,44.9 94,19 " />
<polygon points="94,20 106,19 94,16.6 " />
<polygon points="106,19 109,21 104,24 " />
<polygon points="104.9,34 106.8,55.4 109.7,75.1 113.9,93 119.4,109.2 126.1,123.6 134.1,136.3 143.3,147.3 153.8,156.7 165.5,164.6 178.6,170.9 173.3,183 159,175.3 146.3,165.9 135.1,154.8 125.6,142.1 117.8,127.8 111.5,112 106.9,94.7 103.9,75.9 102.6,55.7 103.1,34 " />
<polygon points="173.3,183 178.6,170.9 184.8,173.6 " />
</g>
</svg>
