<svg xmlns="http://www.w3.org/2000/svg" xmlns:xlink="http://www.w3.org/1999/xlink" version="1.1" baseProfile="full" viewBox="0 0 200 200" width="200" height="200">
<g fill="black">
<polygon points="43.8,68.7 44.5,77 44.5,84.8 44.1,92.1 43.2,99 41.8,105.3 40,111.2 37.8,116.5 35,121.4 31.8,125.8 28,129.6 20.7,120.1 23.6,117.9 26.4,115 29,111.6 31.5,107.4 33.8,102.6 35.8,97.2 37.6,91 39.2,84.2 40.7,76.7 42,68.6 " />
<polygon points="28,129.6 23.6,130.7 19.6,128.5 18.4,124.1 20.7,120.1 " />
<polygon points="70.2,70.9 73.7,75.1 76.7,79.6 79.3,84.3 81.4,89.2 83.3,94.2 84.7,99.4 85.8,104.7 86.6,110.1 87.1,115.6 87.1,121.3 75.2,120.5 75.7,115.5 75.9,110.7 75.9,105.8 75.6,101 75,96.2 74.2,91.4 73.1,86.6 71.8,81.8 70.3,76.8 68.7,71.8 " />
<polygon points="87.1,121.3 85.1,125.3 80.7,126.8 76.7,124.8 75.2,120.5 " />
<polygon points="108.3,70.7 112.6,74.8 116.5,79.2 120,83.8 123,88.6 125.7,93.6 128.1,98.7 130,104 131.6,109.3 132.9,114.8 133.7,120.5 121.8,121.3 121.6,116.3 121.1,111.4 120.3,106.5 119.2,101.7 117.9,96.8 116.2,91.9 114.2,87 112,82.1 109.5,77 106.9,71.8 " />
<polygon points="133.7,120.5 132.2,124.8 128.2,126.8 123.8,125.3 121.8,121.3 " />
<polygon points="148.3,69.2 153.6,73.8 158.4,78.7 162.7,83.7 166.7,88.9 170.2,94.3 173.4,99.7 176.2,105.3 178.6,110.9 180.6,116.7 182.3,122.6 170.5,124.9 169.6,119.6 168.4,114.3 166.8,109 165,103.6 162.7,98.3 160.2,92.8 157.3,87.4 154.1,81.9 150.6,76.2 146.9,70.4 " />
<polygon points="182.3,122.6 181.3,127 177.5,129.6 173.1,128.6 170.5,124.9 " />
</g>
</svg>
