<svg xmlns="http://www.w3.org/2000/svg" xmlns:xlink="http://www.w3.org/1999/xlink" version="1.1" baseProfile="full" viewBox="0 0 200 200" width="200" height="200">
<g fill="black">
<polygon points="43.3,14.8 47,16.7 50.6,18.5 54,20.7 57.2,23.1 60.2,25.6 62.9,28.4 65.4,31.3 67.7,34.4 69.7,37.6 71.5,41.1 60.3,45.2 59.5,42.3 58.5,39.3 57.2,36.4 55.8,33.5 54.1,30.7 52.2,27.8 50.1,24.9 47.8,22 45.2,19 42.3,16.3 " />
<polygon points="71.5,41.1 71.3,45.6 68,48.8 63.4,48.5 60.3,45.2 " />
<polygon points="116.2,19 109,36.3 101.2,52.8 92.7,68.4 83.6,83.1 73.8,96.9 63.4,109.8 52.4,121.8 40.8,132.8 28.5,142.8 15.5,151.7 14.4,150.2 26,139.9 37.1,128.9 47.6,117.3 57.5,105 66.9,92 75.7,78.1 83.9,63.5 91.5,48.1 98.5,31.9 105,14.8 " />
<polygon points="104.6,15.7 116.2,19 105.5,13.4 " />
<polygon points="116.2,19 118.3,21.9 112.6,23 " />
<polygon points="22,54 140,54 140,58 22,58 " />
<polygon points="145.1,57 138.1,88 125.8,88 133.8,56 " />
<polygon points="134,54 140,49 151,58 146,61 134,66 " />
<polygon points="76,86 156,86 156,90 76,90 " />
<polygon points="161.1,89 154.1,120 141.8,120 149.8,88 " />
<polygon points="150,86 156,81 167,90 162,93 150,98 " />
<polygon points="51,118 172,118 172,122 51,122 " />
<polygon points="177.9,120.2 177.5,128.1 176.8,135.5 176,142.4 175.1,148.7 174,154.6 172.7,160 171.2,165 169.6,169.4 167.7,173.5 165.5,177.1 155.6,170.3 157.1,167.9 158.5,164.8 159.8,161.2 161.1,157 162.2,152.1 163.3,146.8 164.1,140.8 164.9,134.3 165.5,127.2 166,119.7 " />
<polygon points="166,118 172,113 183,122 178,125 166,130 " />
<polygon points="165.5,177.1 161.7,179.5 157.2,178.6 154.7,174.8 155.6,170.3 " />
<polygon points="165.5,177.1 164.1,179.1 162.4,180.9 160.7,182.5 158.7,184 156.7,185.2 154.5,186.2 152.2,187 149.8,187.5 147.4,187.8 145,188 145,176 146.4,175.9 147.7,175.7 148.9,175.4 150,175.1 151.1,174.6 152,174 153,173.3 153.9,172.5 154.8,171.5 155.6,170.3 " />
<polygon points="145,182 145,176 125,176 125,179 " />
<polygon points="45.9,138 46.4,143.6 46.8,149.1 46.7,154.2 46.2,159 45.4,163.6 44.1,167.9 42.5,171.9 40.4,175.6 37.9,178.9 34.9,182 27.8,172.3 30,170.9 32.1,169.1 34.1,166.8 36,164.1 37.7,160.9 39.3,157.3 40.7,153.1 42,148.5 43.2,143.5 44.1,138 " />
<polygon points="34.9,182 30.5,183 26.5,180.7 25.5,176.3 27.8,172.3 " />
<polygon points="67.2,137.4 69.5,140.6 71.7,143.8 73.6,147 75.2,150.3 76.5,153.7 77.5,157.1 78.2,160.6 78.6,164.2 78.7,167.7 78.5,171.3 66.7,168.7 67.6,166.2 68.2,163.7 68.7,160.9 68.9,158.1 68.9,155.2 68.8,152.1 68.4,148.8 67.7,145.4 67,141.8 65.6,138.3 " />
<polygon points="78.5,171.3 75.8,175 71.3,175.9 67.6,173.2 66.7,168.7 " />
<polygon points="91.3,135 94.2,137.2 97.1,139.3 99.8,141.6 102.2,144.1 104.4,146.8 106.3,149.6 108,152.6 109.5,155.7 110.7,158.9 111.6,162.3 99.7,163.6 99.7,161 99.5,158.4 99.1,155.8 98.5,153.2 97.7,150.5 96.7,147.7 95.4,144.9 93.9,142 92.3,139.1 90.1,136.3 " />
<polygon points="111.6,162.3 110.3,166.7 106.3,168.9 101.9,167.6 99.7,163.6 " />
<polygon points="118.3,131.6 121.6,133 125,134.3 128.2,135.9 131.2,137.7 134,139.8 136.5,142 138.9,144.5 141,147.2 142.9,150 144.6,153.1 133.3,157.1 132.7,154.6 132,152.2 131,149.8 129.8,147.4 128.4,145 126.7,142.6 124.8,140.2 122.6,137.8 120.3,135.3 117.4,133.2 " />
<polygon points="144.6,153.1 144.3,157.7 140.9,160.8 136.4,160.5 133.3,157.1 " />
</g>
</svg>
