<svg xmlns="http://www.w3.org/2000/svg" xmlns:xlink="http://www.w3.org/1999/xlink" version="1.1" baseProfile="full" viewBox="0 0 200 200" width="200" height="200">
<g fill="black">
<polygon points="42.5,27.5 43.2,29.7 44.2,31.9 44.9,34.2 45.3,36.5 45.4,39 45.2,41.5 44.7,44 44,46.5 42.9,49 41.6,51.5 32.3,43.9 33.8,42.7 35.1,41.4 36.4,40.2 37.4,38.8 38.4,37.3 39.2,35.8 39.9,34 40.5,32.2 41,30.1 40.7,28 " />
<polygon points="41.6,51.5 37.5,53.6 33.1,52.3 31,48.3 32.3,43.9 " />
<polygon points="96.9,28.3 95.1,30.4 93.1,32.5 91.1,34.5 88.9,36.4 86.6,38.3 84.2,40.1 81.7,41.8 79,43.5 76.1,45 73.4,46.8 72.3,45.4 74.5,43.1 76.3,40.5 78,38 79.6,35.6 81.1,33.2 82.4,30.9 83.7,28.7 84.7,26.5 85.7,24.3 86.5,22.2 " />
<polygon points="86,23.1 96.9,28.3 87.1,21.3 " />
<polygon points="96.9,28.3 98.4,31.6 92.6,31.6 " />
<polygon points="70.8,16.3 70.2,25.9 68.9,34.9 66.6,43.2 63.6,50.9 59.6,57.7 54.9,63.8 49.3,69.1 43,73.4 35.9,76.8 28.2,79.2 27.5,77.5 34.1,73.4 39.9,69 44.8,64.3 48.9,59.1 52.3,53.4 55,47.2 57,40.5 58.3,33.1 58.9,25.1 58.8,16.5 " />
<polygon points="58.8,17.5 70.8,16.3 58.7,14.1 " />
<polygon points="70.8,16.3 73.8,18.2 68.9,21.3 " />
<polygon points="61.1,51.1 65.3,52.2 69.5,53.2 73.6,54.6 77.5,56.1 81.2,57.8 84.9,59.7 88.4,61.8 91.7,64 94.9,66.4 98,68.9 89.4,77.2 87.2,74.6 84.9,72 82.4,69.5 79.8,67 76.9,64.5 74,62.2 70.8,59.8 67.5,57.4 64.1,55 60.4,52.8 " />
<polygon points="98,68.9 99.7,73.2 97.9,77.4 93.6,79 89.4,77.2 " />
<polygon points="116.5,27.5 117.2,29.7 118.2,31.9 118.9,34.2 119.3,36.5 119.4,39 119.2,41.5 118.7,44 118,46.5 116.9,49 115.6,51.5 106.3,43.9 107.8,42.7 109.1,41.4 110.4,40.2 111.4,38.8 112.4,37.3 113.2,35.8 113.9,34 114.5,32.2 115,30.1 114.7,28 " />
<polygon points="115.6,51.5 111.5,53.6 107.1,52.3 105,48.3 106.3,43.9 " />
<polygon points="170.9,28.3 169.1,30.4 167.1,32.5 165.1,34.5 162.9,36.4 160.6,38.3 158.2,40.1 155.7,41.8 153,43.5 150.1,45 147.4,46.8 146.3,45.4 148.5,43.1 150.3,40.5 152,38 153.6,35.6 155.1,33.2 156.4,30.9 157.7,28.7 158.7,26.5 159.7,24.3 160.5,22.2 " />
<polygon points="160,23.1 170.9,28.3 161.1,21.3 " />
<polygon points="170.9,28.3 172.4,31.6 166.6,31.6 " />
<polygon points="144.8,16.3 144.2,25.9 142.9,34.9 140.6,43.2 137.6,50.9 133.6,57.7 128.9,63.8 123.3,69.1 117,73.4 109.9,76.8 102.2,79.2 101.5,77.5 108.1,73.4 113.9,69 118.8,64.3 122.9,59.1 126.3,53.4 129,47.2 131,40.5 132.3,33.1 132.9,25.1 132.8,16.5 " />
<polygon points="132.8,17.5 144.8,16.3 132.7,14.1 " />
<polygon points="144.8,16.3 147.8,18.2 142.9,21.3 " />
<polygon points="135.1,51.1 139.3,52.2 143.5,53.2 147.6,54.6 151.5,56.1 155.2,57.8 158.9,59.7 162.4,61.8 165.7,64 168.9,66.4 172,68.9 163.4,77.2 161.2,74.6 158.9,72 156.4,69.5 153.8,67 150.9,64.5 148,62.2 144.8,59.8 141.5,57.4 138.1,55 134.4,52.8 " />
<polygon points="172,68.9 173.7,73.2 171.9,77.4 167.6,79 163.4,77.2 " />
<polygon points="31.9,74.2 32.7,80.6 33.3,86.7 33.3,92.4 33,97.6 32.3,102.6 31.1,107.1 29.5,111.4 27.5,115.2 24.9,118.7 21.8,121.6 15,111.8 17,110.5 19,108.8 20.9,106.5 22.7,103.7 24.4,100.2 25.9,96.2 27.2,91.5 28.3,86.3 29.3,80.6 30.1,74.2 " />
<polygon points="21.8,121.6 17.4,122.5 13.5,120.1 12.6,115.6 15,111.8 " />
<polygon points="32,85 176,85 176,89 32,89 " />
<polygon points="181.2,89.9 179.5,92.1 177.7,94.5 175.7,96.9 173.5,99.5 171.2,102.2 168.7,104.9 166,107.8 163,110.8 159.8,113.8 156.7,117.1 155.2,116 157.5,112.1 159.4,108.2 161.3,104.5 163.1,101 164.7,97.8 166.2,94.7 167.6,91.8 168.8,89.1 169.8,86.5 170.7,84.2 " />
<polygon points="170,85 176,80 187,89 182,92 170,97 " />
<polygon points="76,108.7 76,132.2 64,132.2 64,102.7 " />
<polygon points="76,132.2 73.6,135.8 70,138.2 66.4,135.8 64,132.2 " />
<polygon points="75.9,132.7 74.3,141.6 71.8,149.8 68.5,157.2 64.2,163.9 59.1,169.9 53.2,174.9 46.5,179.2 39.1,182.5 31,184.9 22.2,186.4 21.7,184.6 29.7,181.3 36.8,177.6 43,173.6 48.3,169.1 52.8,164.2 56.5,158.8 59.4,152.9 61.7,146.4 63.2,139.3 64,131.6 " />
<polygon points="70,108.7 127,108.7 127,112.7 70,112.7 " />
<polygon points="133,110.7 133,166.3 121,166.3 121,110.7 " />
<polygon points="121,108.7 127,103.7 138,112.7 133,116.7 121,110.7 " />
<polygon points="133,166.3 130.6,169.9 127,172.3 123.4,169.9 121,166.3 " />
<polygon points="133,166.3 133,167.5 133.2,168.4 133.4,169 133.5,169.3 133.7,169.5 133.9,169.7 134.2,169.8 134.8,170 135.7,170.2 137,170.3 137,182.3 134.4,182.1 131.9,181.7 129.5,180.9 127.2,179.6 125.2,178 123.6,176 122.3,173.7 121.5,171.3 121.1,168.8 121,166.3 " />
<polygon points="137,170.3 141.2,172.1 143,176.3 141.2,180.5 137,182.3 " />
<polygon points="137,170.3 175,170.3 175,182.3 137,182.3 " />
<polygon points="175,170.3 178.6,172.7 181,176.3 178.6,179.9 175,182.3 " />
<polygon points="169,171.3 175,145.3 177,145.3 175,171.3 " />
</g>
</svg>
