<svg xmlns="http://www.w3.org/2000/svg" xmlns:xlink="http://www.w3.org/1999/xlink" version="1.1" baseProfile="full" viewBox="0 0 200 200" width="200" height="200">
<g fill="black">
<polygon points="34.5,30 34.5,140 23.5,145.5 23.5,24.5 " />
<polygon points="29,30 100,30 100,34 29,34 " />
<polygon points="100,30 76,32 88,20 " />
<polygon points="29,124 102,124 102,128 29,128 " />
<polygon points="102,124 78,126 90,114 " />
<polygon points="67,55 89,55 89,59 67,59 " />
<polygon points="95,57 95,103 83,109 83,57 " />
<polygon points="83,55 89,50 100,59 95,63 83,57 " />
<polygon points="67,93 89,93 89,97 67,97 " />
<polygon points="72.5,30 72.5,66 61.5,71.5 61.5,30 " />
<polygon points="72.5,93 72.5,128 61.5,128 61.5,87.5 " />
<polygon points="114,29 168,29 168,33 114,33 " />
<polygon points="174,31 174,80 162,86 162,31 " />
<polygon points="162,29 168,24 179,33 174,37 162,31 " />
<polygon points="114,70 168,70 168,74 114,74 " />
<polygon points="120,29 120,118 108,118 108,23 " />
<polygon points="120,118 117.6,121.6 114,124 110.4,121.6 108,118 " />
<polygon points="120,118 120,119.2 120.2,120.1 120.4,120.7 120.5,121 120.7,121.2 120.9,121.4 121.2,121.5 121.8,121.7 122.7,121.9 124,122 124,134 121.4,133.8 118.9,133.4 116.5,132.6 114.2,131.3 112.2,129.7 110.6,127.7 109.3,125.4 108.5,123 108.1,120.5 108,118 " />
<polygon points="124,122 128.2,123.8 130,128 128.2,132.2 124,134 " />
<polygon points="124,122 178,122 178,134 124,134 " />
<polygon points="178,122 181.6,124.4 184,128 181.6,131.6 178,134 " />
<polygon points="172,123 178,97 180,97 178,123 " />
<polygon points="43.8,146.3 44.1,151.6 44.2,156.6 43.7,161.4 42.8,166 41.4,170.3 39.6,174.3 37.2,178 34.4,181.4 31,184.3 27.3,186.9 22,176.1 24.8,174.9 27.5,173.4 29.9,171.5 32.2,169.3 34.3,166.6 36.2,163.5 38,159.9 39.6,155.8 41,151.3 42,146.2 " />
<polygon points="27.3,186.9 22.7,187.1 19.3,184.2 19,179.6 22,176.1 " />
<polygon points="70.3,147.2 73.2,149.8 76.1,152.4 78.7,155.2 80.9,158.1 82.8,161.2 84.4,164.5 85.6,167.8 86.5,171.4 87.1,175 87.2,178.7 75.3,177.4 75.8,174.9 76.2,172.2 76.2,169.6 76,166.8 75.6,164 74.9,161 73.9,158 72.6,154.8 71.1,151.5 69,148.4 " />
<polygon points="87.2,178.7 85,182.7 80.6,184 76.6,181.8 75.3,177.4 " />
<polygon points="108.3,147 112.2,149.5 115.9,152 119.3,154.6 122.4,157.4 125.1,160.4 127.5,163.5 129.6,166.8 131.3,170.2 132.6,173.7 133.6,177.4 121.7,178.7 121.6,176.1 121.3,173.4 120.7,170.6 119.8,167.7 118.5,164.7 116.9,161.6 115,158.4 112.8,155.1 110.2,151.7 107.2,148.4 " />
<polygon points="133.6,177.4 132.3,181.8 128.3,184 123.9,182.7 121.7,178.7 " />
<polygon points="148.3,146 153.3,148.7 157.9,151.4 162.2,154.4 166,157.4 169.6,160.6 172.7,163.9 175.5,167.3 178,170.8 180.1,174.4 181.8,178.2 170.3,181.7 169.6,178.8 168.6,175.7 167.2,172.5 165.4,169.3 163.3,165.9 160.8,162.4 157.9,158.9 154.7,155.2 151.2,151.4 147.2,147.5 " />
<polygon points="181.8,178.2 181.3,182.8 177.8,185.7 173.3,185.2 170.3,181.7 " />
<polygon points="52.5,54 52.5,103.7 43.5,108.2 43.5,52 " />
<polygon points="52.5,54 54.7,56 52.5,58 " />
</g>
</svg>
