<svg xmlns="http://www.w3.org/2000/svg" xmlns:xlink="http://www.w3.org/1999/xlink" version="1.1" baseProfile="full" viewBox="0 0 200 200" width="200" height="200">
<g fill="black">
<polygon points="44.9,23.9 45.5,25.8 46.5,27.7 47.2,29.6 47.6,31.7 47.7,33.9 47.6,36.2 47.1,38.5 46.3,40.8 45.3,43 43.9,45.3 35.2,37 36.6,36.2 37.8,35.2 39,34.3 40,33.3 40.9,32.2 41.7,30.9 42.4,29.5 43,28 43.5,26.2 43.2,24.4 " />
<polygon points="43.9,45.3 39.8,47.1 35.5,45.5 33.6,41.3 35.2,37 " />
<polygon points="98.2,25.3 96.5,27.1 94.6,28.9 92.5,30.5 90.4,32.1 88.2,33.7 85.8,35.2 83.3,36.6 80.7,37.9 77.9,39.1 75.3,40.7 74.2,39.2 76.4,37.2 78.2,34.8 79.9,32.6 81.5,30.4 83,28.3 84.3,26.3 85.5,24.3 86.6,22.4 87.5,20.5 88.3,18.6 " />
<polygon points="87.7,19.5 98.2,25.3 88.8,17.9 " />
<polygon points="98.2,25.3 99.6,28.7 93.8,28.4 " />
<polygon points="72.8,14.2 72.3,22.7 70.9,30.6 68.7,37.9 65.6,44.6 61.7,50.6 56.9,55.8 51.4,60.3 45.2,64 38.3,66.8 30.7,68.8 30.1,67.1 36.7,63.4 42.4,59.4 47.3,55.2 51.3,50.7 54.6,45.8 57.2,40.5 59.1,34.8 60.4,28.6 60.9,21.8 60.8,14.4 " />
<polygon points="60.8,15.4 72.8,14.2 60.8,12.1 " />
<polygon points="72.8,14.2 75.8,16.1 70.9,19.2 " />
<polygon points="63.1,44.2 67.3,45 71.4,45.8 75.3,46.9 79.1,48.1 82.8,49.5 86.3,51.1 89.7,52.8 93,54.6 96.2,56.6 99.2,58.7 91.1,67.6 89,65.3 86.7,63 84.3,60.8 81.7,58.6 78.9,56.4 76,54.3 72.9,52.2 69.6,50 66.2,47.8 62.6,45.9 " />
<polygon points="99.2,58.7 101.1,62.9 99.6,67.2 95.4,69.1 91.1,67.6 " />
<polygon points="117.8,23.9 118.4,25.8 119.4,27.7 120.1,29.6 120.5,31.7 120.6,33.9 120.5,36.2 120,38.5 119.2,40.8 118.2,43 116.8,45.3 108.1,37 109.5,36.2 110.7,35.2 111.9,34.3 112.9,33.3 113.8,32.2 114.6,30.9 115.3,29.5 115.9,28 116.3,26.2 116,24.4 " />
<polygon points="116.8,45.3 112.7,47.1 108.4,45.5 106.5,41.3 108.1,37 " />
<polygon points="171.1,25.3 169.3,27.1 167.4,28.9 165.4,30.5 163.3,32.1 161.1,33.7 158.7,35.2 156.2,36.6 153.6,37.9 150.8,39.1 148.2,40.7 147.1,39.2 149.3,37.2 151.1,34.8 152.8,32.6 154.4,30.4 155.9,28.3 157.2,26.3 158.4,24.3 159.5,22.4 160.4,20.5 161.2,18.6 " />
<polygon points="160.6,19.5 171.1,25.3 161.7,17.9 " />
<polygon points="171.1,25.3 172.5,28.7 166.7,28.4 " />
<polygon points="145.7,14.2 145.2,22.7 143.8,30.6 141.6,37.9 138.5,44.6 134.5,50.6 129.8,55.8 124.3,60.3 118.1,64 111.2,66.8 103.6,68.8 103,67.1 109.6,63.4 115.3,59.4 120.2,55.2 124.2,50.7 127.5,45.8 130.1,40.5 132,34.8 133.2,28.6 133.8,21.8 133.7,14.4 " />
<polygon points="133.7,15.4 145.7,14.2 133.6,12.1 " />
<polygon points="145.7,14.2 148.7,16.1 143.8,19.2 " />
<polygon points="136,44.2 140.2,45 144.3,45.8 148.2,46.9 152,48.1 155.7,49.5 159.2,51.1 162.6,52.8 165.9,54.6 169.1,56.6 172.1,58.7 164,67.6 161.9,65.3 159.6,63 157.2,60.8 154.6,58.6 151.8,56.4 148.9,54.3 145.8,52.2 142.5,50 139.1,47.8 135.4,45.9 " />
<polygon points="172.1,58.7 174,62.9 172.5,67.2 168.3,69.1 164,67.6 " />
<polygon points="34.4,64.4 35.1,70 35.6,75.2 35.7,80.2 35.4,84.8 34.7,89.1 33.6,93.2 32,97 30,100.4 27.4,103.5 24.4,106.2 18.2,95.9 20.1,95 22,93.6 23.8,91.8 25.5,89.5 27.2,86.6 28.6,83.2 29.9,79.3 31,74.9 32,69.9 32.6,64.5 " />
<polygon points="24.4,106.2 19.9,106.8 16.1,104.2 15.5,99.7 18.2,95.9 " />
<polygon points="34.5,73.4 176.3,73.4 176.3,77.4 34.5,77.4 " />
<polygon points="181.4,78.6 179.7,80.5 177.9,82.5 175.9,84.6 173.8,86.7 171.5,89 169,91.3 166.3,93.7 163.5,96.2 160.3,98.8 157.3,101.6 155.9,100.4 158.2,97 160.2,93.5 162,90.3 163.8,87.2 165.4,84.3 166.9,81.5 168.2,79 169.3,76.6 170.4,74.3 171.2,72.3 " />
<polygon points="170.3,73.4 176.3,68.4 187.3,77.4 182.3,80.4 170.3,85.4 " />
<polygon points="42,104 140,104 140,108 42,108 " />
<polygon points="145.9,106 146.2,119.6 147.1,131.7 148.9,142.3 151.4,151.4 154.6,159 158.3,165.1 162.6,169.9 167.5,173.4 173.1,175.7 179.5,177 178.4,188.9 169.6,187.2 161.7,183.8 154.6,178.8 148.7,172.3 143.8,164.4 140,155.2 137.2,144.8 135.2,133.1 134.2,120.1 134,105.9 " />
<polygon points="134,104 140,99 151,108 146,111 134,116 " />
<polygon points="179.5,177 183.5,179.2 184.9,183.5 182.7,187.5 178.4,188.9 " />
<polygon points="179,178 181,152 179,152 173,178 " />
<polygon points="27,146 130,146 130,150 27,150 " />
<polygon points="130,146 106,148 118,136 " />
<polygon points="84,116 84,185 72,191 72,114 " />
<polygon points="84,116 87,118 82,121 " />
</g>
</svg>
