<svg xmlns="http://www.w3.org/2000/svg" xmlns:xlink="http://www.w3.org/1999/xlink" version="1.1" baseProfile="full" viewBox="0 0 200 200" width="200" height="200">
<g fill="black">
<polygon points="146,27 136.5,28.3 126.7,29.5 116.5,30.7 105.9,31.9 95,32.9 83.8,34 72.1,34.9 60.1,35.8 47.8,36.4 35,36.8 34.9,35.1 47.4,32.7 59.5,30.5 71.3,28.4 82.8,26.5 93.9,24.5 104.6,22.6 115,20.8 125,18.9 134.7,17.1 144,15.2 " />
<polygon points="144,15.2 146,27 155.2,25.5 " />
<polygon points="155.2,25.5 155.6,28.4 146.9,23.8 " />
<polygon points="22,45 178,45 178,49 22,49 " />
<polygon points="178,45 154,47 166,35 " />
<polygon points="53,63 53,112 41,118 41,57 " />
<polygon points="47,63 153,63 153,67 47,67 " />
<polygon points="159,65 159,111 147,117 147,65 " />
<polygon points="147,63 153,58 164,67 159,71 147,65 " />
<polygon points="47,105 153,105 153,109 47,109 " />
<polygon points="36,127 168,127 168,131 36,131 " />
<polygon points="168,127 144,129 156,117 " />
<polygon points="106,32 106,151 94,151 94,30 " />
<polygon points="106,32 109,34 106,36 " />
<polygon points="19,147 181,147 181,151 19,151 " />
<polygon points="181,147 157,149 169,137 " />
<polygon points="59.2,72.6 62.6,73.8 66,74.8 69.2,76.2 72.3,77.8 75.2,79.6 77.9,81.6 80.4,83.8 82.8,86.2 85,88.8 87,91.6 76.2,97 75.4,94.5 74.3,92.2 73.1,89.8 71.7,87.5 70,85.2 68.2,82.9 66.1,80.7 63.8,78.4 61.3,76.1 58.5,74.2 " />
<polygon points="87,91.6 87.2,96.1 84.3,99.6 79.7,99.9 76.2,97 " />
<polygon points="143.5,78 141.2,80.7 138.8,83.3 136.2,85.9 133.4,88.4 130.4,90.9 127.2,93.4 123.9,95.8 120.3,98.1 116.4,100.3 112.5,102.7 111.4,101.2 114.5,98 117.3,94.6 119.9,91.5 122.4,88.4 124.7,85.4 126.8,82.5 128.8,79.6 130.5,76.9 132,74.2 133.4,71.5 " />
<polygon points="133.4,71.5 143.5,78 133.9,70.8 " />
<polygon points="143.5,78 144.9,81.3 137.7,81.5 " />
<polygon points="48.5,154.4 48.6,158.6 48.8,162.6 48.4,166.5 47.7,170.2 46.5,173.7 44.8,177 42.7,180.1 40.2,182.9 37.2,185.4 33.9,187.5 29.1,176.5 31.6,175.7 33.9,174.6 36,173.3 38,171.8 39.8,169.8 41.6,167.5 43.2,164.8 44.6,161.7 45.9,158.2 46.7,154.3 " />
<polygon points="33.9,187.5 29.3,187.5 26,184.4 26,179.8 29.1,176.5 " />
<polygon points="72.4,154.8 74.9,156.9 77.5,158.8 79.8,160.9 81.9,163.1 83.7,165.5 85.2,168 86.5,170.7 87.4,173.5 87.9,176.4 88.2,179.5 76.3,178.1 76.8,176.3 77.1,174.5 77.3,172.7 77.2,170.6 76.9,168.5 76.4,166.2 75.6,163.8 74.5,161.3 73.1,158.6 71.1,156.1 " />
<polygon points="88.2,179.5 85.9,183.4 81.5,184.7 77.5,182.4 76.3,178.1 " />
<polygon points="106.6,154.6 110,156.6 113.3,158.4 116.4,160.4 119.2,162.4 121.7,164.7 123.9,167 125.8,169.5 127.5,172.2 128.8,175.1 129.7,178.1 117.8,179.5 117.9,177.7 117.8,175.8 117.4,173.8 116.6,171.6 115.6,169.2 114.3,166.8 112.6,164.2 110.6,161.5 108.4,158.7 105.5,156.1 " />
<polygon points="129.7,178.1 128.5,182.4 124.5,184.7 120.1,183.4 117.8,179.5 " />
<polygon points="142.6,153.8 146.9,156 151.1,158 154.9,160.1 158.4,162.4 161.6,164.8 164.5,167.2 167.1,169.8 169.3,172.5 171.3,175.4 172.9,178.4 161.6,182.3 161.1,180.2 160.4,177.9 159.2,175.5 157.8,172.9 156,170.3 153.8,167.5 151.3,164.6 148.4,161.6 145.3,158.4 141.6,155.4 " />
<polygon points="172.9,178.4 172.6,182.9 169.2,186 164.7,185.7 161.6,182.3 " />
</g>
</svg>
