<svg xmlns="http://www.w3.org/2000/svg" xmlns:xlink="http://www.w3.org/1999/xlink" version="1.1" baseProfile="full" viewBox="0 0 200 200" width="200" height="200">
<g fill="black">
<polygon points="157.8,27 149.4,27.9 140.6,28.9 131.5,29.9 122,30.9 112.1,31.9 101.8,33 91.2,34.1 80.2,35.1 68.9,36.1 57.1,36.8 56.8,35.1 68.3,32.3 79.4,29.8 90.2,27.6 100.7,25.5 110.8,23.5 120.6,21.7 130,19.9 139.1,18.2 147.8,16.7 156.1,15.2 " />
<polygon points="156.1,15.2 157.8,27 167.6,25.6 " />
<polygon points="167.6,25.6 168,28.6 159.3,23.8 " />
<polygon points="42,75 154,75 154,79 42,79 " />
<polygon points="65.6,32.3 63.5,39 61.2,45.4 58.6,51.6 55.8,57.5 52.7,63.1 49.3,68.5 45.6,73.5 41.6,78.3 37.3,82.6 32.6,86.6 31.3,85.3 34.4,80.2 37.3,75.1 40.1,70 42.7,64.7 45.1,59.3 47.3,53.7 49.3,47.9 51,42 52.6,35.9 53.9,29.5 " />
<polygon points="53.9,29.5 65.6,32.3 54.3,27.8 " />
<polygon points="65.6,32.3 68,34.9 61.3,37.5 " />
<polygon points="88.3,36.6 92,38.2 95.7,39.8 99,41.8 102.1,44 104.8,46.6 107.1,49.4 109.2,52.6 110.8,56.1 112,59.7 112.8,63.7 100.8,64.3 100.9,61.5 100.8,58.8 100.3,56.2 99.6,53.6 98.5,51.1 97.1,48.5 95.3,45.9 93.1,43.2 90.6,40.6 87.4,38.2 " />
<polygon points="112.8,63.7 111.2,67.9 107.1,69.9 102.8,68.4 100.8,64.3 " />
<polygon points="129.2,34.5 134.4,35.8 139.3,37.3 143.9,39 148.1,41 152,43.2 155.7,45.6 159,48.2 162,51.1 164.7,54.2 167,57.6 156.2,63 155.1,60.3 153.7,57.6 151.9,55 149.7,52.3 147.1,49.6 144.2,46.9 140.9,44.2 137.1,41.5 133.1,38.8 128.6,36.1 " />
<polygon points="167,57.6 167.2,62.1 164.3,65.6 159.7,65.9 156.2,63 " />
<polygon points="160,77 160,144 148,150 148,77 " />
<polygon points="148,75 154,70 165,79 160,83 148,77 " />
<polygon points="19,104 188,104 188,108 19,108 " />
<polygon points="188,104 164,106 176,94 " />
<polygon points="36,134 154,134 154,138 36,138 " />
<polygon points="107,75 107,176 95,176 95,75 " />
<polygon points="107,176 104.6,179.6 101,182 97.4,179.6 95,176 " />
<polygon points="107,176 106.8,178.5 106.4,181 105.6,183.4 104.3,185.7 102.7,187.7 100.7,189.3 98.4,190.6 96,191.4 93.5,191.8 91,192 91,180 92.2,179.9 93.1,179.7 93.7,179.5 94,179.4 94.2,179.2 94.4,179 94.5,178.7 94.7,178.1 94.9,177.2 95,176 " />
<polygon points="91,186 91,180 71,180 71,183 " />
</g>
</svg>
