<svg xmlns="http://www.w3.org/2000/svg" xmlns:xlink="http://www.w3.org/1999/xlink" version="1.1" baseProfile="full" viewBox="0 0 200 200" width="200" height="200">
<g fill="black">
<polygon points="139.9,24.7 130.7,29.1 121.3,33.3 111.7,37.2 101.9,40.9 92,44.3 81.8,47.5 71.5,50.3 60.9,52.9 50.1,55.1 39.2,56.8 38.7,55.1 49.2,51.4 59.4,47.8 69.5,44.1 79.3,40.3 89,36.3 98.5,32.2 107.7,28 116.8,23.5 125.6,18.9 134.2,14.1 " />
<polygon points="142.4,23.4 139.9,24.7 133.4,14.6 " />
<polygon points="142.4,23.4 142.5,26.7 136.5,24.2 " />
<polygon points="60.2,56.5 62.5,57.3 64.9,57.6 67.1,58.1 69.3,58.6 71.4,59.2 73.4,59.9 75.3,60.7 77.1,61.6 78.8,62.6 80.5,63.7 71.5,71.6 71,70.5 70.4,69.2 69.6,68 68.6,66.6 67.5,65.2 66.2,63.8 64.8,62.4 63.3,60.8 61.6,59.2 59.5,58.2 " />
<polygon points="80.5,63.7 81.9,68.1 79.9,72.2 75.6,73.6 71.5,71.6 " />
<polygon points="96.3,46.6 98.3,47.6 100.6,48.1 102.7,48.7 104.7,49.4 106.7,50.2 108.5,51 110.2,51.8 111.9,52.8 113.5,53.8 115,55 105.4,62.2 105,61 104.6,59.8 104,58.5 103.2,57.2 102.3,55.8 101.2,54.3 100,52.8 98.7,51.2 97.3,49.4 95.4,48.2 " />
<polygon points="115,55 116,59.4 113.8,63.4 109.3,64.4 105.4,62.2 " />
<polygon points="144.6,61.4 139.5,64.4 134.1,67.1 128.4,69.7 122.4,72.1 116,74.3 109.4,76.3 102.3,78.1 95,79.7 87.2,80.9 79.1,81.8 78.8,80.1 86.3,77.2 93.5,74.5 100.4,71.8 106.8,69.1 112.9,66.4 118.7,63.6 124,60.7 129,57.7 133.5,54.7 137.7,51.6 " />
<polygon points="144.9,61.2 144.6,61.4 136.9,52.2 " />
<polygon points="144.9,61.2 145,64.8 139.6,62.5 " />
</g>
</svg>
