<svg xmlns="http://www.w3.org/2000/svg" xmlns:xlink="http://www.w3.org/1999/xlink" version="1.1" baseProfile="full" viewBox="0 0 200 200" width="200" height="200">
<g fill="black">
<polygon points="152,20 152,183 140,189 140,18 " />
<polygon points="152,20 155,22 152,24 " />
<polygon points="47,114 146,114 146,118 47,118 " />
<polygon points="82,31 82,94 70,100 70,29 " />
<polygon points="82,31 85,33 82,35 " />
<polygon points="76,78 146,78 146,82 76,82 " />
<polygon points="86.9,115.8 86.4,127.3 84.9,137.9 82.5,147.8 79.2,156.7 74.9,164.8 69.7,171.9 63.6,178 56.6,183.1 48.8,187 40.3,189.8 39.6,188.1 47,183.7 53.5,178.7 59,173.3 63.7,167.3 67.5,160.6 70.6,153.3 72.8,145.2 74.3,136.3 75,126.6 75,116.1 " />
</g>
</svg>
