<svg xmlns="http://www.w3.org/2000/svg" xmlns:xlink="http://www.w3.org/1999/xlink" version="1.1" baseProfile="full" viewBox="0 0 200 200" width="200" height="200">
<g fill="black">
<polygon points="23,45 179,45 179,49 23,49 " />
<polygon points="179,45 155,47 167,35 " />
<polygon points="105,18 105,90 93,90 93,16 " />
<polygon points="105,18 108,20 105,22 " />
<polygon points="105,90 102.6,93.6 99,96 95.4,93.6 93,90 " />
<polygon points="104.9,89.8 104.2,106.4 101.6,121.6 97.1,135.5 90.8,148 82.7,158.9 72.9,168.3 61.3,176.1 48.2,182.3 33.4,186.9 17.1,189.8 16.8,188.1 32.3,183.3 46,177.4 57.9,170.5 67.9,162.6 76.2,153.5 82.8,143.3 87.7,131.9 91.1,119.3 92.8,105.4 93,90.1 " />
<polygon points="100,96.8 103.4,109.9 107.7,121.8 112.7,132.3 118.6,141.7 125.5,149.9 133.3,156.9 142,162.9 151.7,167.8 162.5,171.6 174.3,174.5 171.6,187.4 158.5,183.5 146.7,178.5 136,172.2 126.6,164.7 118.5,156 111.7,146.3 106.2,135.5 102.1,123.7 99.4,110.8 98.2,97.1 " />
<polygon points="171.6,187.4 174.3,174.5 183.3,176.4 " />
<polygon points="83.5,58.9 79.2,65 74.6,70.7 69.6,76.1 64.3,81.3 58.7,86.1 52.7,90.6 46.4,94.7 39.7,98.5 32.7,101.9 25.4,104.8 24.5,103.1 30.8,98.6 36.8,94 42.5,89.4 47.9,84.7 53,79.8 57.7,74.7 62.1,69.5 66.2,64.1 69.9,58.5 73.3,52.7 " />
<polygon points="73.3,52.7 83.5,58.9 73.8,51.8 " />
<polygon points="83.5,58.9 85.1,62.2 77.8,62.5 " />
<polygon points="38.2,56.6 43.6,58.1 48.8,60.1 53.6,62.5 58.2,65.2 62.6,68.2 66.7,71.5 70.6,75.1 74.2,78.9 77.5,83 80.6,87.3 70.3,93.4 68.1,89.4 65.7,85.5 63,81.7 60.1,78.1 57,74.6 53.6,71.2 49.9,67.9 46,64.7 41.9,61.5 37.5,58.2 " />
<polygon points="80.6,87.3 81.2,91.9 78.5,95.5 73.9,96.1 70.3,93.4 " />
<polygon points="79.1,109.4 74.3,114.9 69.2,120.3 63.8,125.3 58.2,130.1 52.2,134.7 46,139 39.6,142.9 32.8,146.6 25.7,149.9 18.4,152.8 17.5,151.1 23.9,146.6 30,142.1 35.9,137.5 41.5,132.9 46.9,128.1 51.9,123.2 56.8,118.2 61.3,113 65.6,107.6 69.6,102.1 " />
<polygon points="69.6,102.1 79.1,109.4 70,101.5 " />
<polygon points="79.1,109.4 80.3,112.8 73.1,112.3 " />
<polygon points="35.3,107.7 40,109.5 44.5,111.7 48.8,114.2 53,117.1 57,120.2 60.8,123.5 64.4,127.1 67.9,130.9 71.3,135 74.4,139.2 64.3,145.6 61.9,141.4 59.4,137.4 56.8,133.5 54,129.8 51.1,126.2 48,122.7 44.8,119.3 41.4,115.9 37.9,112.6 34.4,109.2 " />
<polygon points="74.4,139.2 75.1,143.7 72.5,147.5 68,148.2 64.3,145.6 " />
<polygon points="164.4,60.1 160.2,65.7 155.6,71.1 150.8,76.2 145.6,81.1 140.2,85.8 134.5,90.2 128.4,94.3 122.1,98.2 115.4,101.7 108.4,104.7 107.5,103.2 113.4,98.5 119,93.8 124.5,89.1 129.6,84.4 134.4,79.5 139,74.6 143.3,69.5 147.3,64.3 151,59 154.4,53.5 " />
<polygon points="154.4,53.5 164.4,60.1 154.9,52.7 " />
<polygon points="164.4,60.1 165.8,63.4 158.6,63.4 " />
<polygon points="120.2,57.6 125.7,59.3 130.8,61.5 135.7,63.9 140.2,66.7 144.6,69.7 148.7,73 152.5,76.5 156.1,80.2 159.4,84.1 162.5,88.3 152.3,94.5 150.1,90.6 147.7,86.9 145.1,83.2 142.1,79.6 139,76.1 135.6,72.7 131.9,69.3 128,66 123.8,62.6 119.4,59.2 " />
<polygon points="162.5,88.3 163.2,92.8 160.5,96.5 156,97.2 152.3,94.5 " />
<polygon points="176.3,106.2 171.5,112.1 166.5,117.7 161.4,122.9 156.1,127.7 150.6,132.1 144.9,136.2 139,139.8 133,143 126.8,145.7 120.3,147.8 119.6,146.1 125,142.3 130.2,138.4 135.3,134.4 140.3,130.2 145,125.7 149.7,121 154.1,116 158.4,110.7 162.5,105.1 166.5,99.3 " />
<polygon points="166.5,99.3 176.3,106.2 167,98.6 " />
<polygon points="176.3,106.2 177.6,109.6 170.3,109.4 " />
<polygon points="129.3,104.7 134.4,106.7 139.2,109.1 143.8,111.9 148.2,115 152.4,118.5 156.3,122.2 160,126.1 163.5,130.3 166.8,134.8 169.8,139.5 159.2,145.2 157,140.7 154.7,136.4 152.1,132.2 149.3,128.2 146.3,124.4 143.1,120.6 139.7,117 136.1,113.4 132.3,109.8 128.4,106.2 " />
<polygon points="169.8,139.5 170.2,144 167.4,147.6 162.8,148 159.2,145.2 " />
</g>
</svg>
