<svg xmlns="http://www.w3.org/2000/svg" xmlns:xlink="http://www.w3.org/1999/xlink" version="1.1" baseProfile="full" viewBox="0 0 200 200" width="200" height="200">
<g fill="black">
<polygon points="157.3,27 147.6,28.8 137.7,30.5 127.5,32 117.2,33.3 106.5,34.5 95.7,35.4 84.6,36.2 73.3,36.8 61.8,37 50,36.8 49.9,35.1 61.5,33.2 72.8,31.4 83.9,29.7 94.8,27.9 105.4,26.1 115.7,24.1 125.8,22.1 135.7,19.9 145.3,17.7 154.6,15.3 " />
<polygon points="153.7,15.5 157.3,27 165.3,25.2 " />
<polygon points="165.3,25.2 165.6,28.2 158.4,24.7 " />
<polygon points="56.3,35.8 53.8,42.2 50.9,48.3 47.7,54.3 44.1,60 40.1,65.6 35.8,70.9 31.1,76 26,80.9 20.5,85.4 14.5,89.6 13.4,88.3 17.8,82.7 22.1,77.2 26.1,71.8 29.7,66.4 33.1,60.9 36.1,55.3 38.8,49.7 41.1,44 43.1,38.2 44.8,32.3 " />
<polygon points="44.8,32.3 56.3,35.8 46.6,26.5 " />
<polygon points="83.3,37.8 86.5,39.6 89.8,41.2 92.9,43.1 95.7,45.2 98.4,47.5 100.8,49.9 103.1,52.5 105.1,55.2 107,58.1 108.6,61.1 97.3,65.1 96.7,62.6 95.9,60 95,57.5 93.8,54.9 92.4,52.3 90.9,49.7 89.1,47.1 87.1,44.5 84.9,41.7 82.3,39.3 " />
<polygon points="108.6,61.1 108.3,65.7 104.9,68.8 100.4,68.5 97.3,65.1 " />
<polygon points="130.2,34.6 136.1,36.5 141.6,38.8 146.8,41.4 151.7,44.3 156.4,47.4 160.9,50.7 165.1,54.3 169,58 172.7,61.9 176.2,66.1 166.3,72.9 163.8,69 161,65.1 157.9,61.3 154.6,57.6 151,54 147.2,50.4 143.1,46.9 138.8,43.4 134.2,39.8 129.4,36.2 " />
<polygon points="176.2,66.1 177.1,70.5 174.7,74.4 170.2,75.3 166.3,72.9 " />
<polygon points="54,74 54,105 42,105 42,68 " />
<polygon points="54,105 51.6,108.6 48,111 44.4,108.6 42,105 " />
<polygon points="54,105 53.3,115.2 51.9,125 49.8,134.4 46.9,143.3 43.4,151.8 39.1,159.9 34,167.4 28.3,174.4 21.8,180.9 14.6,186.6 13.3,185.3 19,178.3 24.1,171.1 28.5,163.9 32.4,156.3 35.5,148.6 38.1,140.5 40,132.1 41.3,123.4 41.9,114.4 42,105 " />
<polygon points="48,74 135,74 135,78 48,78 " />
<polygon points="140,77 137,102 124.9,102 128.9,76 " />
<polygon points="129,74 135,69 146,78 141,81 129,86 " />
<polygon points="48,100 155,100 155,104 48,104 " />
<polygon points="160,103 157,127 144.9,127 148.9,102 " />
<polygon points="149,100 155,95 166,104 161,107 149,112 " />
<polygon points="46,125 175,125 175,129 46,129 " />
<polygon points="181,127 180.9,133.5 180.7,139.6 180.3,145.4 179.9,150.8 179.3,155.8 178.5,160.5 177.6,164.8 176.5,168.7 175.3,172.4 173.8,175.7 163.1,170.3 164.1,168 165,165.2 165.9,162 166.7,158.3 167.4,154.1 167.9,149.5 168.4,144.5 168.7,139.1 168.9,133.2 169,127 " />
<polygon points="169,125 175,120 186,129 181,132 169,137 " />
<polygon points="173.8,175.7 170.3,178.6 165.7,178.4 162.8,174.9 163.1,170.3 " />
<polygon points="173.8,175.7 172.6,177.9 171.1,179.9 169.5,181.8 167.7,183.4 165.7,184.8 163.6,186 161.3,186.9 158.9,187.5 156.5,187.8 154,188 154,176 155.3,175.9 156.5,175.7 157.6,175.4 158.6,175.1 159.4,174.6 160.2,174.1 161,173.4 161.7,172.5 162.4,171.5 163.1,170.3 " />
<polygon points="154,182 154,176 134,176 134,179 " />
<polygon points="62.9,139.9 63.6,145.6 64.2,151 64.3,156 64,160.9 63.4,165.4 62.4,169.6 61,173.6 59.1,177.3 56.8,180.7 54,183.8 46.5,174.4 48.6,173 50.5,171.2 52.4,169 54.1,166.3 55.7,163.1 57.1,159.4 58.4,155.3 59.4,150.6 60.4,145.5 61.1,140 " />
<polygon points="54,183.8 49.6,185 45.6,182.8 44.4,178.4 46.5,174.4 " />
<polygon points="78.3,140.3 80.9,143.5 83.5,146.5 85.7,149.7 87.7,153 89.4,156.3 90.8,159.7 91.8,163.1 92.6,166.6 93.1,170.1 93.2,173.6 81.3,172.3 81.9,169.8 82.2,167.2 82.4,164.4 82.3,161.6 82,158.5 81.4,155.4 80.6,152.1 79.6,148.6 78.5,144.9 76.8,141.3 " />
<polygon points="93.2,173.6 91,177.6 86.6,178.9 82.6,176.7 81.3,172.3 " />
<polygon points="99.3,138.9 102.4,140.9 105.6,142.8 108.5,145 111.2,147.4 113.7,150 116,152.8 118,155.7 119.9,158.8 121.6,162.1 123,165.5 111.4,168.6 110.9,165.7 110.3,162.8 109.5,159.9 108.4,157.1 107.2,154.3 105.9,151.5 104.3,148.7 102.5,145.8 100.5,142.9 98.2,140.3 " />
<polygon points="123,165.5 122.3,170 118.7,172.9 114.2,172.2 111.4,168.6 " />
<polygon points="124.3,135.6 127.6,137 131,138.3 134.2,139.8 137.2,141.5 140.1,143.4 142.7,145.5 145.1,147.8 147.4,150.3 149.4,153 151.2,155.8 140.3,160.6 139.5,158.2 138.6,155.9 137.5,153.5 136.2,151.2 134.7,148.8 132.9,146.5 130.9,144.1 128.7,141.8 126.3,139.3 123.4,137.2 " />
<polygon points="151.2,155.8 151.3,160.4 148.2,163.7 143.6,163.7 140.3,160.6 " />
</g>
</svg>
