<svg xmlns="http://www.w3.org/2000/svg" xmlns:xlink="http://www.w3.org/1999/xlink" version="1.1" baseProfile="full" viewBox="0 0 200 200" width="200" height="200">
<g fill="black">
<polygon points="45,28 45,112 33,112 33,22 " />
<polygon points="45,112 42.6,115.6 39,118 35.4,115.6 33,112 " />
<polygon points="44.9,112.1 44.2,123.7 43,134.5 41.3,144.5 39.2,153.6 36.5,162 33.3,169.4 29.7,176 25.5,181.7 20.7,186.2 15.5,189.7 14.4,188.2 17.9,183.6 21.1,178.6 23.9,172.9 26.3,166.5 28.4,159.4 30.1,151.5 31.4,142.9 32.3,133.3 32.8,123 33,111.8 " />
<polygon points="39,28 164,28 164,32 39,32 " />
<polygon points="170,30 170,60 158,66 158,30 " />
<polygon points="158,28 164,23 175,32 170,36 158,30 " />
<polygon points="39,52 164,52 164,56 39,56 " />
<polygon points="118,67 118,101 106,107 106,65 " />
<polygon points="118,67 121,69 116,72 " />
<polygon points="53,77 98,77 98,81 53,81 " />
<polygon points="98,77 78,79 88,68 " />
<polygon points="127,77 170,77 170,81 127,81 " />
<polygon points="170,77 150,79 160,68 " />
<polygon points="127,96 170,96 170,100 127,100 " />
<polygon points="170,96 150,98 160,87 " />
<polygon points="53,96 98,96 98,100 53,100 " />
<polygon points="98,96 78,98 88,87 " />
<polygon points="58,124 165,124 165,128 58,128 " />
<polygon points="165,124 145,126 155,115 " />
<polygon points="74.4,134.7 63.9,167.4 50.7,169.4 63.5,129.2 " />
<polygon points="74.4,134.7 76.6,137.6 71.2,138.8 " />
<polygon points="62,155 178,155 178,159 62,159 " />
<polygon points="178,155 154,157 166,145 " />
<polygon points="117,115 117,184 105,190 105,113 " />
<polygon points="117,115 120,117 115,120 " />
</g>
</svg>
