<svg xmlns="http://www.w3.org/2000/svg" xmlns:xlink="http://www.w3.org/1999/xlink" version="1.1" baseProfile="full" viewBox="0 0 200 200" width="200" height="200">
<g fill="black">
<polygon points="45,28 45,112 33,112 33,22 " />
<polygon points="45,112 42.6,115.6 39,118 35.4,115.6 33,112 " />
<polygon points="44.9,112.1 44.2,123.7 43,134.5 41.3,144.5 39.2,153.6 36.5,162 33.3,169.4 29.7,176 25.5,181.7 20.7,186.2 15.5,189.7 14.4,188.2 17.9,183.6 21.1,178.6 23.9,172.9 26.3,166.5 28.4,159.4 30.1,151.5 31.4,142.9 32.3,133.3 32.8,123 33,111.8 " />
<polygon points="39,28 164,28 164,32 39,32 " />
<polygon points="170,30 170,60 158,66 158,30 " />
<polygon points="158,28 164,23 175,32 170,36 158,30 " />
<polygon points="39,52 164,52 164,56 39,56 " />
<polygon points="76.6,114.3 75.2,118.6 73.6,122.9 71.8,127.1 69.8,131.2 67.7,135.3 65.3,139.4 62.8,143.3 60,147.1 56.9,150.8 53.7,154.4 52.2,153.5 54,149 55.6,144.7 57.2,140.4 58.7,136.2 60.1,132.1 61.4,127.9 62.5,123.8 63.4,119.7 64.2,115.7 64.9,111.6 " />
<polygon points="64.7,112.6 76.6,114.3 65.3,109.8 " />
<polygon points="76.6,114.3 79.1,116.9 73.5,118.7 " />
<polygon points="66,129 171,129 171,133 66,133 " />
<polygon points="171,129 147,131 159,119 " />
<polygon points="42,157 181,157 181,161 42,161 " />
<polygon points="181,157 157,159 169,147 " />
<polygon points="118,65 118,185 106,191 106,63 " />
<polygon points="118,65 121,67 116,70 " />
<polygon points="53,77 98,77 98,81 53,81 " />
<polygon points="98,77 78,79 88,68 " />
<polygon points="127,77 170,77 170,81 127,81 " />
<polygon points="170,77 150,79 160,68 " />
<polygon points="127,96 170,96 170,100 127,100 " />
<polygon points="170,96 150,98 160,87 " />
<polygon points="53,96 98,96 98,100 53,100 " />
<polygon points="98,96 78,98 88,87 " />
</g>
</svg>
