<svg xmlns="http://www.w3.org/2000/svg" xmlns:xlink="http://www.w3.org/1999/xlink" version="1.1" baseProfile="full" viewBox="0 0 200 200" width="200" height="200">
<g fill="black">
<polygon points="24,74 181,74 181,78 24,78 " />
<polygon points="181,74 157,76 169,64 " />
<polygon points="106,16.7 105.9,44.4 103.9,69.8 99.8,92.9 93.8,113.8 85.8,132.3 75.7,148.5 63.7,162.2 49.7,173.4 33.8,181.9 16.2,187.8 15.7,186.1 32.2,178.5 46.5,169 59,157.6 69.5,144.1 78.2,128.6 85,110.8 90,90.8 93.2,68.6 94.5,44.1 94,17.2 " />
<polygon points="94,17.2 106,16.7 93.9,14.9 " />
<polygon points="106,16.7 109.1,18.6 103.2,22.8 " />
<polygon points="103,76.8 106.7,89 111.1,100.4 116.5,111.3 122.8,121.6 130.2,131.3 138.6,140.5 148.1,149.2 158.6,157.4 170.3,165 183.1,172.2 176.8,183.7 163.6,175.6 151.5,166.8 140.7,157.4 131.1,147.5 122.8,137 115.7,126 110,114.5 105.6,102.5 102.6,90 101.2,77.1 " />
<polygon points="176.8,183.7 183.1,172.2 188,174.8 " />
<polygon points="125.3,22.7 129.1,24.4 132.9,26 136.5,28 139.8,30.1 142.9,32.4 145.8,34.9 148.5,37.6 151,40.5 153.2,43.5 155.2,46.8 144.2,51.6 143.3,48.9 142.1,46.1 140.8,43.3 139.1,40.6 137.3,37.9 135.2,35.1 132.9,32.4 130.3,29.7 127.5,26.8 124.4,24.2 " />
<polygon points="155.2,46.8 155.3,51.3 152.2,54.7 147.6,54.8 144.2,51.6 " />
</g>
</svg>
