<svg xmlns="http://www.w3.org/2000/svg" xmlns:xlink="http://www.w3.org/1999/xlink" version="1.1" baseProfile="full" viewBox="0 0 200 200" width="200" height="200">
<g fill="black">
<polygon points="23,60 178,60 178,64 23,64 " />
<polygon points="178,60 154,62 166,50 " />
<polygon points="89.9,15.1 88.4,37.2 85.6,58.1 81.5,77.7 76.2,96 69.6,113.1 61.7,128.8 52.6,143.2 42.2,156.2 30.5,167.7 17.5,177.7 16.4,176.2 27.8,165 38,152.8 47.1,139.5 55,125.3 61.8,109.8 67.3,93.2 71.8,75.5 75,56.5 77,36.2 77.9,14.8 " />
<polygon points="77.9,15.8 89.9,15.1 78,12.5 " />
<polygon points="89.9,15.1 92.9,17.2 87.8,20.1 " />
<polygon points="72,84 143,84 143,88 72,88 " />
<polygon points="150.7,87.5 145.5,102.6 139.2,116.6 131.8,129.5 123.2,141.3 113.5,151.9 102.7,161.3 90.9,169.6 78.1,176.6 64.1,182.4 49.2,186.8 48.7,185.1 62.7,178.9 75.5,171.9 87.3,164.1 97.9,155.5 107.4,146 115.8,135.6 123.2,124.2 129.6,111.9 134.9,98.6 139.2,84.4 " />
<polygon points="139,84 145,79 156,88 151,91 139,96 " />
<polygon points="89.1,86.7 94.4,99.9 100.3,112.1 106.9,123.2 114.3,133.2 122.4,142.3 131.4,150.3 141.2,157.3 151.9,163.4 163.4,168.5 175.9,172.7 172,185.2 158.6,180 146.3,173.7 135,166.4 124.7,158 115.6,148.6 107.6,138.2 100.7,126.9 95,114.6 90.5,101.3 87.3,87.1 " />
<polygon points="172,185.2 175.9,172.7 183.6,175.1 " />
<polygon points="108.3,11.9 112,14.1 115.7,16.3 119.1,18.6 122.3,21.1 125.3,23.6 128.1,26.2 130.6,29 133,31.8 135.2,34.7 137.1,37.7 126.2,42.8 125.3,40.1 124.1,37.3 122.7,34.5 121.2,31.7 119.3,28.8 117.3,25.8 115.1,22.7 112.7,19.6 110.1,16.4 107.2,13.3 " />
<polygon points="137.1,37.7 137.3,42.2 134.2,45.7 129.7,45.8 126.2,42.8 " />
</g>
</svg>
