<svg xmlns="http://www.w3.org/2000/svg" xmlns:xlink="http://www.w3.org/1999/xlink" version="1.1" baseProfile="full" viewBox="0 0 200 200" width="200" height="200">
<g fill="black">
<polygon points="65,22 65,185 53,191 53,20 " />
<polygon points="65,22 68,24 65,26 " />
<polygon points="18.3,53.7 21.8,55.2 25.3,56.9 28.6,59 31.7,61.5 34.6,64.2 37.3,67.3 39.8,70.7 42,74.3 44,78.2 45.8,82.3 34.3,85.8 33.5,82.1 32.4,78.6 31.2,75.3 29.9,72 28.3,69 26.5,66 24.6,63.2 22.4,60.4 20.1,57.7 17.4,55.2 " />
<polygon points="45.8,82.3 45.3,86.9 41.8,89.8 37.3,89.3 34.3,85.8 " />
<polygon points="14.3,130.1 18.7,128.3 23.2,126.4 27.6,124.5 32,122.6 36.4,120.7 40.7,118.7 45.1,116.8 49.5,114.8 53.9,113 58.5,111.2 59.4,112.7 55.9,116.1 52.2,119.3 48.4,122.3 44.5,125.2 40.5,128 36.4,130.7 32.2,133.4 28,136 23.8,138.5 19.4,140.9 " />
<polygon points="19.4,140.9 14.3,130.1 12.5,131 " />
<polygon points="19.4,140.9 22.5,142.8 23.6,135.6 " />
<polygon points="74,73.5 183.4,73.5 183.4,77.5 74,77.5 " />
<polygon points="183.4,73.5 159.4,75.5 171.4,63.5 " />
<polygon points="128.6,23.3 128.6,81.2 116.6,81.2 116.6,21.3 " />
<polygon points="128.6,23.3 131.6,25.3 128.6,27.3 " />
<polygon points="128.6,81.2 126.2,84.8 122.6,87.2 119,84.8 116.6,81.2 " />
<polygon points="128.6,81.7 126.6,97.5 123.6,112.2 119.6,125.9 114.7,138.6 108.7,150.2 101.8,160.6 94,169.9 85.1,178 75.4,184.8 64.7,190.3 63.9,188.7 73.2,181.7 81.6,174.1 89,165.6 95.6,156.3 101.3,146.2 106.1,135.1 110,123 113.1,109.9 115.3,95.8 116.6,80.7 " />
<polygon points="127.2,67.9 130,83.2 133.3,97.5 137.3,110.8 141.9,123.2 147.2,134.5 153.3,145 160.1,154.5 167.6,163 175.8,170.7 184.8,177.5 177.1,188.2 167.5,180 158.8,171 151.2,161 144.5,150.2 138.8,138.6 134,126.1 130.3,112.8 127.6,98.7 125.9,83.7 125.4,68 " />
<polygon points="177.1,188.2 184.8,177.5 188,179.8 " />
<polygon points="142.2,25.8 146.3,27.6 150.4,29.3 154.1,31.4 157.6,33.6 160.7,36.1 163.7,38.8 166.3,41.8 168.6,44.9 170.7,48.3 172.4,51.8 160.9,55.5 160.3,52.7 159.4,49.9 158.2,47.1 156.7,44.3 154.9,41.5 152.9,38.7 150.4,35.9 147.7,33 144.7,30.1 141.3,27.4 " />
<polygon points="172.4,51.8 171.9,56.4 168.5,59.4 163.9,58.9 160.9,55.5 " />
</g>
</svg>
