<svg xmlns="http://www.w3.org/2000/svg" xmlns:xlink="http://www.w3.org/1999/xlink" version="1.1" baseProfile="full" viewBox="0 0 200 200" width="200" height="200">
<g fill="black">
<polygon points="76.9,16.7 76.9,181.3 64.9,187.3 64.9,14.7 " />
<polygon points="76.9,16.7 79.9,18.7 74.9,21.7 " />
<polygon points="16,108.8 70.9,108.8 70.9,112.8 16,112.8 " />
<polygon points="37.8,27.5 37.8,87.5 25.8,93.5 25.8,25.5 " />
<polygon points="37.8,27.5 40.8,29.5 35.8,32.5 " />
<polygon points="31.8,71.5 70.9,71.5 70.9,75.5 31.8,75.5 " />
<polygon points="43.1,108.8 43.1,126.4 31.1,126.4 31.1,108.8 " />
<polygon points="43.1,126.4 40.7,130 37.1,132.4 33.5,130 31.1,126.4 " />
<polygon points="43.1,126.4 42.6,134.1 41.5,141.5 40,148.5 38,155.3 35.5,161.7 32.6,167.8 29.1,173.5 25.1,178.7 20.6,183.5 15.6,187.8 14.3,186.6 17.7,181.2 20.7,175.7 23.4,170.2 25.7,164.6 27.6,158.8 29.1,152.8 30.2,146.6 30.9,140.1 31.2,133.4 31.1,126.4 " />
<polygon points="84.2,67 183.7,67 183.7,71 84.2,71 " />
<polygon points="183.7,67 159.7,69 171.7,57 " />
<polygon points="134.4,14 134.4,75 122.4,75 122.4,12 " />
<polygon points="134.4,14 137.4,16 132.4,19 " />
<polygon points="134.4,75 132,78.6 128.4,81 124.8,78.6 122.4,75 " />
<polygon points="134.4,75.3 132.6,91.9 129.8,107.4 126.2,121.8 121.7,135.1 116.3,147.2 110,158.3 102.8,168.1 94.7,176.6 85.7,183.9 75.9,189.7 74.9,188.2 83.3,180.9 90.8,172.9 97.5,164.1 103.4,154.4 108.6,143.7 112.9,131.9 116.5,119.2 119.3,105.4 121.3,90.5 122.5,74.6 " />
<polygon points="132.7,60.9 135.4,77 138.5,92.2 142.1,106.3 146.4,119.4 151.3,131.4 156.9,142.5 163.1,152.6 170,161.6 177.5,169.7 185.7,176.9 177.2,187 168.5,178.4 160.7,168.9 153.8,158.5 147.8,147.2 142.6,135 138.4,121.9 135.1,108 132.6,93.2 131.2,77.5 130.9,61 " />
<polygon points="177.2,187 185.7,176.9 188.1,178.9 " />
<polygon points="146.3,16.7 150.2,18.6 153.9,20.6 157.4,22.8 160.6,25.2 163.6,27.9 166.3,30.8 168.7,33.9 170.9,37.2 172.7,40.8 174.3,44.5 162.7,47.7 162.2,44.6 161.4,41.6 160.3,38.7 159,35.7 157.4,32.8 155.6,29.9 153.5,27 151.1,24 148.4,21 145.4,18.2 " />
<polygon points="174.3,44.5 173.7,49 170.1,51.8 165.6,51.2 162.7,47.7 " />
</g>
</svg>
