<svg xmlns="http://www.w3.org/2000/svg" xmlns:xlink="http://www.w3.org/1999/xlink" version="1.1" baseProfile="full" viewBox="0 0 200 200" width="200" height="200">
<g fill="black">
<polygon points="24,31 176,31 176,35 24,35 " />
<polygon points="176,31 152,33 164,21 " />
<polygon points="106,31 106,174 94,174 94,31 " />
<polygon points="33,97 167,97 167,101 33,101 " />
<polygon points="167,97 143,99 155,87 " />
<polygon points="14,170 186,170 186,174 14,174 " />
<polygon points="186,170 162,172 174,160 " />
<polygon points="125.3,114.7 130,116.8 134.5,119.1 138.8,121.7 142.9,124.6 146.7,127.7 150.5,131.1 154,134.6 157.4,138.3 160.5,142.2 163.5,146.3 153.3,152.5 151.1,148.5 148.8,144.7 146.3,140.9 143.6,137.2 140.8,133.6 137.8,130.1 134.6,126.7 131.3,123.2 127.9,119.7 124.3,116.2 " />
<polygon points="163.5,146.3 164.2,150.8 161.5,154.5 157,155.2 153.3,152.5 " />
</g>
</svg>
