<svg xmlns="http://www.w3.org/2000/svg" xmlns:xlink="http://www.w3.org/1999/xlink" version="1.1" baseProfile="full" viewBox="0 0 200 200" width="200" height="200">
<g fill="black">
<polygon points="67,17 67,52 55,52 55,15 " />
<polygon points="67,17 70,19 67,21 " />
<polygon points="16,48 102,48 102,52 16,52 " />
<polygon points="102,48 78,50 90,38 " />
<polygon points="67,56.3 64.5,61.1 61.9,65.8 59.2,70.5 56.3,75.2 53.3,79.8 50.2,84.3 46.9,88.8 43.4,93.2 39.7,97.4 35.7,101.5 34.2,100.4 36.5,95.3 38.9,90.3 41.3,85.3 43.6,80.4 45.9,75.6 48.1,70.8 50.2,65.9 52.3,61.1 54.2,56.3 56.1,51.4 " />
<polygon points="56.1,51.4 67,56.3 56.6,50.2 " />
<polygon points="67,56.3 69,59.3 61.9,60.6 " />
<polygon points="18.3,84.7 22.8,86.6 27.1,88.9 31.1,91.7 34.9,94.8 38.4,98.3 41.7,102.1 44.8,106.1 47.6,110.5 50.2,115.1 52.5,120.1 41.3,124.2 39.8,119.7 38.1,115.4 36.3,111.2 34.2,107.3 31.9,103.5 29.4,99.8 26.7,96.3 23.8,92.9 20.7,89.5 17.3,86.2 " />
<polygon points="52.5,120.1 52.3,124.6 49,127.8 44.4,127.5 41.3,124.2 " />
<polygon points="91,78.4 85.9,88.3 80.7,98.2 75.4,108 69.9,117.7 64.3,127.4 58.6,137 52.7,146.6 46.7,156 40.3,165.3 33.7,174.4 32.2,173.5 37.1,163.4 42,153.3 47,143.3 52,133.4 56.9,123.4 61.7,113.4 66.4,103.4 71.1,93.4 75.6,83.4 80.1,73.3 " />
<polygon points="80.1,73.3 91,78.4 80.6,72.1 " />
<polygon points="91,78.4 92.8,81.5 85.7,82.6 " />
<polygon points="18.5,173.9 25.9,172.4 33.2,171 40.4,169.6 47.4,168.2 54.4,166.8 61.2,165.4 67.9,164.2 74.6,163 81.2,161.9 87.7,161.1 88.2,162.8 82.2,165.6 76,168.1 69.7,170.5 63.2,172.8 56.5,175 49.7,177.2 42.8,179.3 35.8,181.4 28.6,183.5 21.3,185.6 " />
<polygon points="21.3,185.6 18.5,173.9 16.6,174.3 " />
<polygon points="21.3,185.6 23.9,188 26.5,181.3 " />
<polygon points="73.2,125.4 77.1,130.2 80.6,135.2 83.6,140.4 86.4,145.8 88.8,151.3 90.9,157 92.8,162.7 94.3,168.5 95.6,174.4 96.6,180.4 84.7,181.5 84.4,176 83.8,170.5 83,165 82,159.5 80.7,154 79.3,148.5 77.6,143.1 75.7,137.6 73.8,132 71.7,126.3 " />
<polygon points="96.6,180.4 95.2,184.8 91.2,186.9 86.9,185.5 84.7,181.5 " />
<polygon points="151,17 151,52 139,52 139,15 " />
<polygon points="151,17 154,19 151,21 " />
<polygon points="105,48 187,48 187,52 105,52 " />
<polygon points="187,48 163,50 175,38 " />
<polygon points="149.2,55 146.9,60.1 144.4,65.1 141.8,70 139,75 136.1,79.9 133.1,84.7 129.8,89.6 126.4,94.3 122.7,98.9 118.7,103.4 117.2,102.5 119.5,97 121.8,91.6 124.1,86.3 126.4,81.1 128.6,76 130.7,70.9 132.7,65.8 134.6,60.8 136.3,55.7 138,50.7 " />
<polygon points="138,50.7 149.2,55 138.5,49.4 " />
<polygon points="149.2,55 151.3,58 144.2,59.6 " />
<polygon points="100.3,85.7 104.8,87.6 109.1,89.9 113.2,92.7 117,95.8 120.6,99.2 124,103 127.2,107.1 130.1,111.4 132.9,116 135.4,120.9 124.3,125.4 122.6,120.9 120.8,116.5 118.7,112.3 116.5,108.4 114.1,104.5 111.6,100.9 108.8,97.4 105.8,93.9 102.7,90.6 99.3,87.2 " />
<polygon points="135.4,120.9 135.3,125.5 132.1,128.7 127.5,128.6 124.3,125.4 " />
<polygon points="174,78.3 169.1,88.3 164.1,98.2 158.9,108.1 153.6,118 148.1,127.9 142.5,137.7 136.7,147.5 130.6,157.2 124.3,166.9 117.7,176.4 116.2,175.5 121,165 125.9,154.6 130.9,144.4 135.8,134.2 140.6,124 145.3,113.8 149.9,103.7 154.4,93.6 158.8,83.5 163.1,73.4 " />
<polygon points="163.1,73.4 174,78.3 163.6,72.2 " />
<polygon points="174,78.3 175.9,81.4 168.8,82.6 " />
<polygon points="101.5,173.9 109,172.4 116.4,171 123.7,169.6 130.9,168.2 138.2,166.8 145.3,165.4 152.5,164.1 159.6,162.9 166.6,161.9 173.7,161.1 174.2,162.8 167.6,165.6 160.9,168.1 154.1,170.5 147.2,172.8 140.2,175 133.2,177.2 126.1,179.3 118.9,181.4 111.6,183.5 104.3,185.6 " />
<polygon points="104.3,185.6 101.5,173.9 99.6,174.3 " />
<polygon points="104.3,185.6 106.9,188 109.5,181.3 " />
<polygon points="160.2,125.4 163.9,130.2 167.2,135.3 170.2,140.5 172.9,145.9 175.3,151.3 177.4,156.9 179.3,162.6 180.9,168.4 182.4,174.3 183.5,180.2 171.6,181.7 171.1,176.1 170.4,170.6 169.5,165 168.5,159.5 167.2,154 165.7,148.5 164.1,143 162.4,137.5 160.5,131.9 158.6,126.3 " />
<polygon points="183.5,180.2 182.3,184.6 178.3,186.9 173.9,185.7 171.6,181.7 " />
</g>
</svg>
