<svg xmlns="http://www.w3.org/2000/svg" xmlns:xlink="http://www.w3.org/1999/xlink" version="1.1" baseProfile="full" viewBox="0 0 200 200" width="200" height="200">
<g fill="black">
<polygon points="15.5,43.9 74.3,43.9 74.3,47.9 15.5,47.9 " />
<polygon points="74.3,43.9 50.3,45.9 62.3,33.9 " />
<polygon points="47.5,43.9 47.5,149.5 35.5,149.5 35.5,43.9 " />
<polygon points="18.4,92.3 71.4,92.3 71.4,96.3 18.4,96.3 " />
<polygon points="71.4,92.3 51.4,94.3 61.4,83.3 " />
<polygon points="14.5,151.9 20,150.4 25.7,148.7 31.5,147 37.5,145.1 43.6,143.2 49.9,141.3 56.3,139.2 63,137.2 69.8,135.2 76.9,133.4 77.6,135 71.3,138.8 65,142.2 58.8,145.3 52.7,148.3 46.7,151.1 40.8,153.8 35,156.4 29.3,158.8 23.8,161.1 18.3,163.3 " />
<polygon points="18.3,163.3 14.5,151.9 12.6,152.6 " />
<polygon points="18.3,163.3 21.2,165.5 23.1,158.5 " />
<polygon points="89,27 89,86 77,92 77,21 " />
<polygon points="83,27 173,27 173,31 83,31 " />
<polygon points="179,29 179,86 167,92 167,29 " />
<polygon points="167,27 173,22 184,31 179,35 167,29 " />
<polygon points="93,52 162,52 162,56 93,56 " />
<polygon points="162,52 138,54 150,42 " />
<polygon points="93,77 162,77 162,81 93,81 " />
<polygon points="162,77 138,79 150,67 " />
<polygon points="98,99 98,180 86,186 86,93 " />
<polygon points="92,99 163,99 163,103 92,103 " />
<polygon points="169,101 169,177 157,183 157,101 " />
<polygon points="157,99 163,94 174,103 169,107 157,101 " />
<polygon points="92,122 163,122 163,126 92,126 " />
<polygon points="92,169 163,169 163,173 92,173 " />
<polygon points="92,145 163,145 163,149 92,149 " />
</g>
</svg>
