<svg xmlns="http://www.w3.org/2000/svg" xmlns:xlink="http://www.w3.org/1999/xlink" version="1.1" baseProfile="full" viewBox="0 0 200 200" width="200" height="200">
<g fill="black">
<polygon points="26,39 177,39 177,43 26,43 " />
<polygon points="177,39 153,41 165,29 " />
<polygon points="70,18 70,115 58,115 58,16 " />
<polygon points="70,18 73,20 70,22 " />
<polygon points="139,18 139,115 127,115 127,16 " />
<polygon points="139,18 142,20 139,22 " />
<polygon points="17,111 186,111 186,115 17,115 " />
<polygon points="186,111 162,113 174,101 " />
<polygon points="64,61 133,61 133,65 64,65 " />
<polygon points="64,86 133,86 133,90 64,90 " />
<polygon points="49,111 49,185 37,191 37,111 " />
<polygon points="43,174 178,174 178,178 43,178 " />
<polygon points="178,174 154,176 166,164 " />
<polygon points="90.9,112.8 90.4,121.2 88.9,129 86.4,136.3 82.9,142.9 78.6,148.8 73.3,154 67.2,158.4 60.3,162 52.6,164.8 44.2,166.8 43.7,165.1 51.2,161.3 57.7,157.3 63.4,153.1 68,148.5 71.8,143.6 74.8,138.4 77,132.8 78.4,126.7 79.1,120.2 79,113.1 " />
<polygon points="120,111 120,144 108,144 108,111 " />
<polygon points="120,144 117.6,147.6 114,150 110.4,147.6 108,144 " />
<polygon points="120,144 120,145.2 120.2,146.1 120.4,146.7 120.5,147 120.7,147.2 120.9,147.4 121.2,147.5 121.8,147.7 122.7,147.9 124,148 124,160 121.4,159.8 118.9,159.4 116.5,158.6 114.2,157.3 112.2,155.7 110.6,153.7 109.3,151.4 108.5,149 108.1,146.5 108,144 " />
<polygon points="124,148 128.2,149.8 130,154 128.2,158.2 124,160 " />
<polygon points="124,148 157,148 157,160 124,160 " />
<polygon points="157,148 160.6,150.4 163,154 160.6,157.6 157,160 " />
<polygon points="151,149 157,123 159,123 157,149 " />
</g>
</svg>
