<svg xmlns="http://www.w3.org/2000/svg" xmlns:xlink="http://www.w3.org/1999/xlink" version="1.1" baseProfile="full" viewBox="0 0 200 200" width="200" height="200">
<g fill="black">
<polygon points="106,39 106,93 94,99 94,39 " />
<polygon points="49,39 49,96 37,102 37,33 " />
<polygon points="43,39 157,39 157,43 43,43 " />
<polygon points="163,41 163,88 151,88 151,41 " />
<polygon points="151,39 157,34 168,43 163,47 151,41 " />
<polygon points="163,88 160.6,91.6 157,94 153.4,91.6 151,88 " />
<polygon points="163,88 162.8,90.5 162.4,93 161.6,95.4 160.3,97.7 158.7,99.7 156.7,101.3 154.4,102.6 152,103.4 149.5,103.8 147,104 147,92 148.2,91.9 149.1,91.7 149.7,91.5 150,91.4 150.2,91.2 150.4,91 150.5,90.7 150.7,90.1 150.9,89.2 151,88 " />
<polygon points="147,98 147,92 127,92 127,95 " />
<polygon points="43,55 156,55 156,59 43,59 " />
<polygon points="43,72 157,72 157,76 43,76 " />
<polygon points="39,16 141,16 141,20 39,20 " />
<polygon points="144.4,22.9 141.7,24.2 138.8,25.4 135.6,26.7 132.1,27.9 128.3,29.1 124.2,30.3 119.7,31.5 114.9,32.7 109.7,33.7 104.2,34.8 103.7,33.1 108.7,30.7 113.3,28.2 117.5,25.9 121.5,23.8 125.1,21.8 128.3,19.8 131.2,18 133.7,16.2 135.8,14.6 137.5,13 " />
<polygon points="135,16 141,11 152,20 147,23 135,28 " />
<polygon points="76.2,23.4 80.2,24.1 84.2,24.5 87.9,25.2 91.5,25.9 94.9,26.8 98.1,27.7 101.1,28.7 103.9,29.9 106.6,31 109.2,32.4 101.9,42 100.4,40.4 98.6,38.8 96.6,37.2 94.3,35.5 91.8,33.8 89,32.1 86,30.4 82.8,28.6 79.4,26.7 75.7,25.1 " />
<polygon points="109.2,32.4 111.4,36.3 110.4,40.8 106.4,43 101.9,42 " />
</g>
</svg>
