<svg xmlns="http://www.w3.org/2000/svg" xmlns:xlink="http://www.w3.org/1999/xlink" version="1.1" baseProfile="full" viewBox="0 0 200 200" width="200" height="200">
<g fill="black">
<polygon points="20,48 180,48 180,52 20,52 " />
<polygon points="180,48 156,50 168,38 " />
<polygon points="49,64 49,122 37,128 37,58 " />
<polygon points="43,64 153,64 153,68 43,68 " />
<polygon points="159,66 159,116 147,122 147,66 " />
<polygon points="147,64 153,59 164,68 159,72 147,66 " />
<polygon points="104,29 104,110 92,110 92,27 " />
<polygon points="104,29 107,31 102,34 " />
<polygon points="43,84 153,84 153,88 43,88 " />
<polygon points="43,106 153,106 153,110 43,110 " />
<polygon points="117.1,27.3 120.7,27.7 124.3,27.8 127.7,28.1 130.9,28.5 133.9,29 136.8,29.7 139.6,30.4 142.2,31.3 144.7,32.2 147.1,33.3 140,43 138.7,41.7 137.2,40.3 135.5,38.9 133.5,37.5 131.3,36.1 128.8,34.7 126.1,33.2 123.2,31.7 120.1,30.2 116.7,29 " />
<polygon points="147.1,33.3 149.4,37.3 148.4,41.7 144.5,44.1 140,43 " />
</g>
</svg>
