<svg xmlns="http://www.w3.org/2000/svg" xmlns:xlink="http://www.w3.org/1999/xlink" version="1.1" baseProfile="full" viewBox="0 0 200 200" width="200" height="200">
<g fill="black">
<polygon points="27,34 177,34 177,38 27,38 " />
<polygon points="177,34 153,36 165,24 " />
<polygon points="55,52 55,110 43,116 43,46 " />
<polygon points="49,52 151,52 151,56 49,56 " />
<polygon points="157,54 157,107 145,113 145,54 " />
<polygon points="145,52 151,47 162,56 157,60 145,54 " />
<polygon points="107,14 107,104 95,110 95,12 " />
<polygon points="107,14 110,16 105,19 " />
<polygon points="49,72 151,72 151,76 49,76 " />
<polygon points="49,92 151,92 151,96 49,96 " />
<polygon points="123.2,12.4 126.8,13.2 130.3,13.7 133.7,14.3 136.8,15.1 139.7,15.9 142.4,16.8 144.9,17.8 147.2,19 149.4,20.3 151.4,21.7 142.5,29.7 141.8,28.5 140.9,27.1 139.7,25.7 138.1,24.1 136.2,22.5 134.1,20.9 131.6,19.2 128.9,17.4 126,15.6 122.6,14.1 " />
<polygon points="151.4,21.7 152.9,26.1 150.9,30.2 146.6,31.6 142.5,29.7 " />
</g>
</svg>
