<svg xmlns="http://www.w3.org/2000/svg" xmlns:xlink="http://www.w3.org/1999/xlink" version="1.1" baseProfile="full" viewBox="0 0 200 200" width="200" height="200">
<g fill="black">
<polygon points="39,16.8 141,16.8 141,20.8 39,20.8 " />
<polygon points="144.2,23.9 141.6,25 138.7,26.2 135.5,27.3 132,28.4 128.2,29.6 124.1,30.7 119.6,31.8 114.8,32.8 109.7,33.7 104.2,34.8 103.7,33.1 108.7,30.7 113.3,28.4 117.6,26.2 121.6,24.1 125.2,22.1 128.4,20.3 131.3,18.5 133.9,16.8 136,15.2 137.7,13.8 " />
<polygon points="135,16.8 141,11.8 152,20.8 147,23.8 135,28.8 " />
<polygon points="76.2,23.7 80.2,24.5 84.2,25 87.9,25.7 91.5,26.4 94.8,27.2 98,28.1 100.9,29 103.7,30 106.4,31.1 108.8,32.2 102.1,42.1 100.6,40.6 98.7,39.1 96.7,37.6 94.4,36 91.8,34.3 89,32.6 86,30.9 82.8,29 79.4,27.1 75.6,25.4 " />
<polygon points="108.8,32.2 111.3,36 110.4,40.5 106.6,43 102.1,42.1 " />
<polygon points="47,38.1 47,106 35,112 35,32.1 " />
<polygon points="41,38.1 158.9,38.1 158.9,42.1 41,42.1 " />
<polygon points="164.9,40.1 164.9,100 152.9,106 152.9,40.1 " />
<polygon points="152.9,38.1 158.9,33.1 169.9,42.1 164.9,46.1 152.9,40.1 " />
<polygon points="106,38.1 106,94 94,94 94,38.1 " />
<polygon points="41,63.7 158.9,63.7 158.9,67.7 41,67.7 " />
<polygon points="41,90 158.9,90 158.9,94 41,94 " />
</g>
</svg>
