<svg xmlns="http://www.w3.org/2000/svg" xmlns:xlink="http://www.w3.org/1999/xlink" version="1.1" baseProfile="full" viewBox="0 0 200 200" width="200" height="200">
<g fill="black">
<polygon points="39,57 39,182 27,188 27,51 " />
<polygon points="33,57 167,57 167,61 33,61 " />
<polygon points="173,59 173,176 161,182 161,59 " />
<polygon points="161,57 167,52 178,61 173,65 161,59 " />
<polygon points="106,15 106,170 94,170 94,13 " />
<polygon points="106,15 109,17 106,19 " />
<polygon points="33,110 167,110 167,114 33,114 " />
<polygon points="33,166 167,166 167,170 33,170 " />
</g>
</svg>
