<svg xmlns="http://www.w3.org/2000/svg" xmlns:xlink="http://www.w3.org/1999/xlink" version="1.1" baseProfile="full" viewBox="0 0 200 200" width="200" height="200">
<g fill="black">
<polygon points="67,67 67,152 55,158 55,61 " />
<polygon points="61,67 141,67 141,71 61,71 " />
<polygon points="147,69 147,149 135,155 135,69 " />
<polygon points="135,67 141,62 152,71 147,75 135,69 " />
<polygon points="61,103 141,103 141,107 61,107 " />
<polygon points="107,33 107,145 95,145 95,33 " />
<polygon points="61,141 141,141 141,145 61,145 " />
<polygon points="19,33 183,33 183,37 19,37 " />
<polygon points="183,33 159,35 171,23 " />
<polygon points="38,60 38,184 26,190 26,58 " />
<polygon points="38,60 41,62 38,64 " />
<polygon points="32,168 169,168 169,172 32,172 " />
<polygon points="175,60 175,178 163,184 163,58 " />
<polygon points="175,60 178,62 175,64 " />
</g>
</svg>
