<svg xmlns="http://www.w3.org/2000/svg" xmlns:xlink="http://www.w3.org/1999/xlink" version="1.1" baseProfile="full" viewBox="0 0 200 200" width="200" height="200">
<g fill="black">
<polygon points="18,32 182,32 182,36 18,36 " />
<polygon points="182,32 158,34 170,22 " />
<polygon points="36,59 36,174 24,180 24,57 " />
<polygon points="36,59 39,61 34,64 " />
<polygon points="30,170 170,170 170,174 30,174 " />
<polygon points="176,59 176,178 164,184 164,57 " />
<polygon points="176,59 179,61 174,64 " />
<polygon points="66.6,58.6 66.6,152.8 54.6,158.8 54.6,52.6 " />
<polygon points="60.6,58.6 140.3,58.6 140.3,62.6 60.6,62.6 " />
<polygon points="146.3,60.6 146.3,149.8 134.3,155.8 134.3,60.6 " />
<polygon points="134.3,58.6 140.3,53.6 151.3,62.6 146.3,66.6 134.3,60.6 " />
<polygon points="106.5,58.6 106.5,145.8 94.5,145.8 94.5,58.6 " />
<polygon points="60.6,99.6 140.3,99.6 140.3,103.6 60.6,103.6 " />
<polygon points="60.6,141.8 140.3,141.8 140.3,145.8 60.6,145.8 " />
</g>
</svg>
