<svg xmlns="http://www.w3.org/2000/svg" xmlns:xlink="http://www.w3.org/1999/xlink" version="1.1" baseProfile="full" viewBox="0 0 200 200" width="200" height="200">
<g fill="black">
<polygon points="46,52 46,139 34,145 34,46 " />
<polygon points="40,52 150,52 150,56 40,56 " />
<polygon points="156,54 156,133 144,139 144,54 " />
<polygon points="144,52 150,47 161,56 156,60 144,54 " />
<polygon points="40,87 150,87 150,91 40,91 " />
<polygon points="40,123 150,123 150,127 40,127 " />
<polygon points="101,24 101,165 89,165 89,22 " />
<polygon points="101,24 104,26 101,28 " />
<polygon points="101,165 98.6,168.6 95,171 91.4,168.6 89,165 " />
<polygon points="101,165 101,166.2 101.2,167.1 101.4,167.7 101.5,168 101.7,168.1 101.8,168.3 102.2,168.4 102.7,168.6 103.6,168.8 104.9,168.8 105,180.8 102.5,180.7 100,180.3 97.5,179.5 95.3,178.3 93.2,176.7 91.6,174.7 90.3,172.4 89.5,170 89.1,167.5 89,165 " />
<polygon points="104.9,168.8 109.1,170.6 110.9,174.7 109.2,179 105,180.8 " />
<polygon points="104.9,168.8 171.9,168 172,179.9 105,180.8 " />
<polygon points="171.9,168 176.7,170.3 177.9,173.9 176.8,177.5 172,179.9 " />
<polygon points="171.9,169 173.5,142.9 171.5,143 165.9,169 " />
</g>
</svg>
