<svg xmlns="http://www.w3.org/2000/svg" xmlns:xlink="http://www.w3.org/1999/xlink" version="1.1" baseProfile="full" viewBox="0 0 200 200" width="200" height="200">
<g fill="black">
<polygon points="76.4,24.2 71.6,26.9 66.9,29.7 62.1,32.5 57.4,35.3 52.8,38.2 48.2,41.1 43.6,44 39,46.9 34.3,49.7 29.6,52.4 28.4,51 31.9,46.8 35.6,42.7 39.5,38.8 43.6,35 47.8,31.4 52,27.8 56.4,24.2 60.9,20.8 65.4,17.4 70,14 " />
<polygon points="70,14 76.4,24.2 77.5,23.5 " />
<polygon points="77.5,23.5 77.7,26.9 70.6,24.3 " />
<polygon points="30.2,50.3 35.8,51.7 41.1,53.5 46.1,55.5 50.9,57.8 55.5,60.2 59.8,62.8 63.9,65.5 67.8,68.4 71.5,71.5 74.9,74.7 65.9,82.7 63.4,79.5 60.6,76.3 57.6,73.2 54.3,70.2 50.7,67.2 46.9,64.2 42.9,61.2 38.7,58.2 34.2,55.1 29.5,51.9 " />
<polygon points="74.9,74.7 76.4,79.1 74.4,83.2 70.1,84.6 65.9,82.7 " />
<polygon points="124.6,23.9 120.4,26.7 116.1,29.6 111.7,32.4 107,35.4 102.1,38.3 97.1,41.2 91.8,44.1 86.3,47 80.6,49.8 74.5,52.5 73.6,50.9 78.5,46.6 83.4,42.5 88.2,38.7 92.8,34.9 97.3,31.3 101.6,27.8 105.7,24.3 109.7,21 113.5,17.7 117.1,14.5 " />
<polygon points="117.1,14.5 124.6,23.9 117.2,14.4 " />
<polygon points="124.6,23.9 124.9,27.5 118,25.2 " />
<polygon points="75.3,49.3 81.5,50.9 87.3,52.8 92.7,55 97.7,57.3 102.5,59.9 106.9,62.6 111,65.4 114.8,68.4 118.2,71.6 121.3,74.9 111.8,82.2 109.7,79.1 107.2,76.1 104.4,73 101.2,70 97.7,66.9 93.8,63.8 89.5,60.7 84.9,57.6 79.9,54.4 74.6,51 " />
<polygon points="121.3,74.9 122.4,79.4 120.2,83.3 115.7,84.4 111.8,82.2 " />
<polygon points="171.1,24 166.8,26.8 162.3,29.6 157.7,32.5 153.1,35.3 148.3,38.2 143.4,41.2 138.3,44.1 133.1,47 127.7,49.8 122.1,52.4 121.1,51 125.6,46.7 130.1,42.6 134.6,38.7 139,35 143.4,31.3 147.7,27.8 151.9,24.3 156,20.9 160.1,17.6 164,14.3 " />
<polygon points="164,14.3 171.1,24 164,14.3 " />
<polygon points="171.1,24 171.3,27.6 164.5,25.1 " />
<polygon points="122.9,49.3 129.5,50.9 135.6,52.8 141.2,54.9 146.4,57.3 151.2,59.8 155.5,62.6 159.5,65.4 163,68.5 166.1,71.8 168.8,75.4 158.4,81.3 156.9,78.6 155,75.7 152.6,72.8 149.7,69.8 146.4,66.8 142.5,63.8 138.1,60.7 133.2,57.6 128,54.3 122.2,50.9 " />
<polygon points="168.8,75.4 169.3,79.9 166.6,83.6 162,84.1 158.4,81.3 " />
<polygon points="48.9,97.5 48.9,181.7 36.9,187.7 36.9,91.5 " />
<polygon points="42.9,97.5 160.2,97.5 160.2,101.5 42.9,101.5 " />
<polygon points="166.2,99.5 166.2,175.7 154.2,181.7 154.2,99.5 " />
<polygon points="154.2,97.5 160.2,92.5 171.2,101.5 166.2,105.5 154.2,99.5 " />
<polygon points="42.9,129.7 160.2,129.7 160.2,133.7 42.9,133.7 " />
<polygon points="108,97.5 108,169.7 96,169.7 96,97.5 " />
<polygon points="42.9,165.7 160.2,165.7 160.2,169.7 42.9,169.7 " />
</g>
</svg>
