<svg xmlns="http://www.w3.org/2000/svg" xmlns:xlink="http://www.w3.org/1999/xlink" version="1.1" baseProfile="full" viewBox="0 0 200 200" width="200" height="200">
<g fill="black">
<polygon points="39,35 39,181 27,187 27,29 " />
<polygon points="33,35 167,35 167,39 33,39 " />
<polygon points="173,37 173,175 161,181 161,37 " />
<polygon points="161,35 167,30 178,39 173,43 161,37 " />
<polygon points="106,35 106,169 94,169 94,35 " />
<polygon points="33,99 167,99 167,103 33,103 " />
<polygon points="33,165 167,165 167,169 33,169 " />
</g>
</svg>
