<svg xmlns="http://www.w3.org/2000/svg" xmlns:xlink="http://www.w3.org/1999/xlink" version="1.1" baseProfile="full" viewBox="0 0 200 200" width="200" height="200">
<g fill="black">
<polygon points="35.3,25.8 39.1,27.9 42.8,30.2 46.1,32.9 49.2,35.9 52,39.3 54.5,42.9 56.7,46.8 58.6,51 60.1,55.4 61.4,60 49.6,61.9 49.1,58 48.5,54.1 47.6,50.4 46.5,46.9 45.1,43.4 43.5,40.1 41.6,36.8 39.4,33.6 37,30.3 34.2,27.3 " />
<polygon points="61.4,60 60.3,64.5 56.4,66.9 52,65.8 49.6,61.9 " />
<polygon points="78.3,18.8 82.1,20.9 85.8,23.1 89.2,25.7 92.3,28.5 95.3,31.6 97.9,34.9 100.3,38.5 102.5,42.3 104.4,46.3 106,50.5 94.4,53.6 93.7,49.9 92.7,46.3 91.6,42.8 90.3,39.5 88.7,36.1 86.9,32.9 84.8,29.7 82.6,26.5 80.1,23.3 77.2,20.3 " />
<polygon points="106,50.5 105.3,55.1 101.7,57.9 97.2,57.2 94.4,53.6 " />
<polygon points="163.9,25.5 160.8,31.1 157.5,36.8 154,42.6 150.4,48.4 146.5,54.3 142.5,60.3 138.2,66.3 133.7,72.4 128.9,78.4 123.7,84.4 122.2,83.5 125.7,76.4 129.1,69.5 132.6,62.9 135.9,56.4 139.2,50 142.3,43.8 145.2,37.8 148,31.8 150.6,26 153.1,20.2 " />
<polygon points="153.1,20.2 163.9,25.5 153.7,19.1 " />
<polygon points="163.9,25.5 165.8,28.6 158.6,29.6 " />
<polygon points="50,87 50,182 38,188 38,81 " />
<polygon points="44,87 158,87 158,91 44,91 " />
<polygon points="164,89 164,176 152,182 152,89 " />
<polygon points="152,87 158,82 169,91 164,95 152,89 " />
<polygon points="44,126 158,126 158,130 44,130 " />
<polygon points="107,87 107,170 95,170 95,87 " />
<polygon points="44,166 158,166 158,170 44,170 " />
</g>
</svg>
