<svg xmlns="http://www.w3.org/2000/svg" xmlns:xlink="http://www.w3.org/1999/xlink" version="1.1" baseProfile="full" viewBox="0 0 200 200" width="200" height="200">
<g fill="black">
<polygon points="54.5,26.2 54.5,97.6 42.5,103.6 42.5,20.2 " />
<polygon points="48.5,26.2 152.4,26.2 152.4,30.2 48.5,30.2 " />
<polygon points="158.4,28.2 158.4,94.6 146.4,100.6 146.4,28.2 " />
<polygon points="146.4,26.2 152.4,21.2 163.4,30.2 158.4,34.2 146.4,28.2 " />
<polygon points="106.5,26.2 106.5,90.6 94.5,90.6 94.5,26.2 " />
<polygon points="48.5,55.9 152.4,55.9 152.4,59.9 48.5,59.9 " />
<polygon points="48.5,86.6 152.4,86.6 152.4,90.6 48.5,90.6 " />
<polygon points="19.3,112.2 182.8,112.2 182.8,116.2 19.3,116.2 " />
<polygon points="182.8,112.2 158.8,114.2 170.8,102.2 " />
<polygon points="80.1,112.2 80.1,134 68.1,134 68.1,112.2 " />
<polygon points="80.1,134 77.7,137.6 74.1,140 70.5,137.6 68.1,134 " />
<polygon points="80.1,134.3 79,141.6 77,148.4 74.2,154.8 70.6,160.6 66.3,165.9 61.3,170.6 55.6,174.8 49.2,178.3 42.1,181.2 34.4,183.4 33.7,181.7 40.5,177.8 46.4,173.7 51.6,169.5 56.1,165.1 59.8,160.5 62.8,155.7 65.1,150.6 66.7,145.3 67.7,139.6 68.1,133.6 " />
<polygon points="136,112.2 136,176.9 124,182.9 124,112.2 " />
</g>
</svg>
