<svg xmlns="http://www.w3.org/2000/svg" xmlns:xlink="http://www.w3.org/1999/xlink" version="1.1" baseProfile="full" viewBox="0 0 200 200" width="200" height="200">
<g fill="black">
<polygon points="51,24 51,80 39,86 39,18 " />
<polygon points="45,24 155,24 155,28 45,28 " />
<polygon points="161,26 161,80 149,86 149,26 " />
<polygon points="149,24 155,19 166,28 161,32 149,26 " />
<polygon points="45,50 155,50 155,54 45,54 " />
<polygon points="45,76 155,76 155,80 45,80 " />
<polygon points="18,108 85,108 85,112 18,112 " />
<polygon points="85,108 61,110 73,98 " />
<polygon points="115,108 182,108 182,112 115,112 " />
<polygon points="182,108 158,110 170,98 " />
<polygon points="58,86 58,130 46,136 46,84 " />
<polygon points="58,86 61,88 58,90 " />
<polygon points="154,86 154,130 142,136 142,84 " />
<polygon points="154,86 157,88 154,90 " />
<polygon points="23,138 177,138 177,142 23,142 " />
<polygon points="177,138 153,140 165,128 " />
<polygon points="35,160 165,160 165,164 35,164 " />
<polygon points="165,160 141,162 153,150 " />
<polygon points="106,24 106,184 94,190 94,24 " />
</g>
</svg>
