<svg xmlns="http://www.w3.org/2000/svg" xmlns:xlink="http://www.w3.org/1999/xlink" version="1.1" baseProfile="full" viewBox="0 0 200 200" width="200" height="200">
<g fill="black">
<polygon points="53,28.5 53,99.1 41,105.1 41,22.5 " />
<polygon points="47,28.5 152.9,28.5 152.9,32.5 47,32.5 " />
<polygon points="158.9,30.5 158.9,93.1 146.9,99.1 146.9,30.5 " />
<polygon points="146.9,28.5 152.9,23.5 163.9,32.5 158.9,36.5 146.9,30.5 " />
<polygon points="106,28.5 106,87.1 94,87.1 94,28.5 " />
<polygon points="47,55.4 152.9,55.4 152.9,59.4 47,59.4 " />
<polygon points="47,83.1 152.9,83.1 152.9,87.1 47,87.1 " />
<polygon points="29,114 172,114 172,118 29,118 " />
<polygon points="172,114 148,116 160,104 " />
<polygon points="84,95 84,151 72,151 72,93 " />
<polygon points="84,95 87,97 84,99 " />
<polygon points="130,95 130,151 118,151 118,93 " />
<polygon points="130,95 133,97 130,99 " />
<polygon points="17,147 183,147 183,151 17,151 " />
<polygon points="183,147 159,149 171,137 " />
<polygon points="84.9,165.3 80.6,168.1 76.1,170.8 71.2,173.4 66,175.9 60.4,178.4 54.5,180.8 48.3,183 41.7,185.2 34.7,187.1 27.3,188.8 26.6,187.1 33.3,183.6 39.6,180.2 45.6,177 51.3,173.9 56.6,170.8 61.5,167.8 66.1,164.8 70.2,161.8 74,158.8 77.4,155.9 " />
<polygon points="77.4,155.9 84.9,165.3 77.5,155.8 " />
<polygon points="84.9,165.3 85.2,168.9 78.3,166.6 " />
<polygon points="116.1,158.3 121.6,158.6 126.9,159.4 132.1,160.6 137.1,162.1 142.1,164 146.9,166.1 151.5,168.5 156.1,171.3 160.5,174.2 164.8,177.5 156.7,186.4 153.3,183.1 149.8,179.9 146.1,177 142.2,174.2 138.2,171.5 134,169.1 129.7,166.7 125.2,164.5 120.6,162.3 115.7,160 " />
<polygon points="164.8,177.5 166.7,181.6 165.2,186 161,187.9 156.7,186.4 " />
</g>
</svg>
