<svg xmlns="http://www.w3.org/2000/svg" xmlns:xlink="http://www.w3.org/1999/xlink" version="1.1" baseProfile="full" viewBox="0 0 200 200" width="200" height="200">
<g fill="black">
<polygon points="41,30 152,30 152,34 41,34 " />
<polygon points="158,32 158,72 146,78 146,32 " />
<polygon points="146,30 152,25 163,34 158,38 146,32 " />
<polygon points="18,49 187,49 187,53 18,53 " />
<polygon points="187,49 163,51 175,39 " />
<polygon points="41,68 152,68 152,72 41,72 " />
<polygon points="32,87 169,87 169,91 32,91 " />
<polygon points="169,87 145,89 157,77 " />
<polygon points="18,105 186,105 186,109 18,109 " />
<polygon points="186,105 162,107 174,95 " />
<polygon points="107,15 107,109 95,109 95,13 " />
<polygon points="107,15 110,17 107,19 " />
<polygon points="68,122 68,164 56,170 56,116 " />
<polygon points="62,122 139,122 139,126 62,126 " />
<polygon points="145,124 145,164 133,170 133,124 " />
<polygon points="133,122 139,117 150,126 145,130 133,124 " />
<polygon points="107,122 107,164 95,164 95,122 " />
<polygon points="62,141 139,141 139,145 62,145 " />
<polygon points="62,160 139,160 139,164 62,164 " />
<polygon points="42,118 42,183 30,189 30,116 " />
<polygon points="42,118 45,120 42,122 " />
<polygon points="36,176 164,176 164,180 36,180 " />
<polygon points="170,118 170,182 158,188 158,116 " />
<polygon points="170,118 173,120 170,122 " />
</g>
</svg>
