<svg xmlns="http://www.w3.org/2000/svg" xmlns:xlink="http://www.w3.org/1999/xlink" version="1.1" baseProfile="full" viewBox="0 0 200 200" width="200" height="200">
<g fill="black">
<polygon points="21,35 179,35 179,39 21,39 " />
<polygon points="179,35 155,37 167,25 " />
<polygon points="43,57 147,57 147,61 43,61 " />
<polygon points="153,59 153,117 141,123 141,59 " />
<polygon points="141,57 147,52 158,61 153,65 141,59 " />
<polygon points="14,83 186,83 186,87 14,87 " />
<polygon points="186,83 162,85 174,73 " />
<polygon points="43,109 147,109 147,113 43,113 " />
<polygon points="106,16 106,170 94,170 94,14 " />
<polygon points="106,16 109,18 104,21 " />
<polygon points="100,136 169,136 169,140 100,140 " />
<polygon points="169,136 145,138 157,126 " />
<polygon points="65.5,123.4 62.9,131.3 59.8,139 56.2,146.3 52,153.2 47.4,159.8 42.2,166.1 36.6,171.9 30.4,177.3 23.7,182.3 16.5,186.7 15.4,185.2 21.3,179.4 26.7,173.4 31.7,167.5 36.3,161.3 40.4,155 44,148.6 47.2,141.9 49.9,135 52.1,127.8 53.9,120.5 " />
<polygon points="53.6,121.4 65.5,123.4 54.3,118.7 " />
<polygon points="65.5,123.4 68,126 62.4,127.7 " />
<polygon points="58.9,131.9 61.7,140.3 66.1,147.3 72.2,153.1 80.3,157.9 90.5,161.8 102.9,164.8 117.7,166.7 134.7,167.7 154,167.5 175.5,166.4 176.4,179.5 154.2,180.1 134.2,179.4 116.4,177.7 100.8,174.7 87.4,170.6 76.3,165.2 67.5,158.5 61.2,150.6 57.7,141.7 57.1,132 " />
<polygon points="176.4,179.5 175.5,166.4 186.6,165.7 " />
</g>
</svg>
