<svg xmlns="http://www.w3.org/2000/svg" xmlns:xlink="http://www.w3.org/1999/xlink" version="1.1" baseProfile="full" viewBox="0 0 200 200" width="200" height="200">
<g fill="black">
<path d="M 135.4 185.1 L 117.5 184.6 L 101.5 182.9 L 87.2 180.0 L 74.9 175.7 L 64.5 170.2 L 56.1 163.4 L 50.1 155.3 L 49.253417587280275 153.16002769470214 L 48.9 153.8 L 44.7 160.2 L 40.1 166.3 L 35.0 172.0 L 29.4 177.3 L 23.2 182.2 L 16.5 186.7 L 15.4 185.2 L 20.6 179.4 L 25.5 173.6 L 29.9 167.8 L 34.0 161.8 L 37.6 155.7 L 40.7 149.4 L 43.4 143.0 L 45.6 136.4 L 47.5 129.7 L 48.9 122.7 L 48.91366024017334 122.70291881561279 L 49.3 120.9 L 60.6 125.2 L 63.1 127.7 L 59.51812868118286 128.9373737335205 L 58.4 132.8 L 55.7 140.1 L 52.6 147.1 L 51.18330421447754 149.66536808013916 L 53.5 152.9 L 60.1 159.0 L 68.1 164.0 L 77.8 167.9 L 89.4 170.9 L 94.0 171.557142829895 L 94.0 118.0 L 35.0 118.0 L 35.0 114.0 L 150.0 114.0 L 150.0 91.0 L 24.0 91.0 L 24.0 87.0 L 150.0 87.0 L 150.0 65.0 L 35.0 65.0 L 35.0 61.0 L 94.0 61.0 L 94.0 14.2 L 106.0 16.2 L 109.0 18.2 L 106.0 20.0 L 106.0 35.5 L 161.0 35.5 L 171.0 25.5 L 183.0 35.5 L 183.0 39.5 L 106.0 39.5 L 106.0 61.0 L 150.0 61.0 L 156.0 56.0 L 167.0 65.0 L 162.0 69.0 L 162.0 122.0 L 150.0 128.0 L 150.0 118.0 L 106.0 118.0 L 106.0 142.0 L 147.0 142.0 L 157.0 132.0 L 169.0 142.0 L 169.0 146.0 L 106.0 146.0 L 106.0 172.97254905700683 L 118.0 173.6 L 135.1 173.3 L 154.2 171.9 L 175.1 169.4 L 185.3 168.1 L 176.8 182.5 L 155.2 184.4 Z " />
</g>
</svg>
