<svg xmlns="http://www.w3.org/2000/svg" xmlns:xlink="http://www.w3.org/1999/xlink" version="1.1" baseProfile="full" viewBox="0 0 200 200" width="200" height="200">
<g fill="black">
<polygon points="35.1,43.7 36.8,48.1 38.5,52.3 39.7,56.5 40.5,60.6 40.9,64.6 40.9,68.5 40.5,72.4 39.6,76.1 38.3,79.7 36.6,83.1 26.9,76 28.5,74.2 29.9,72.1 31.2,69.7 32.2,67.1 33.1,64.1 33.6,60.7 34,57.1 34.1,53.1 34,48.7 33.4,44.2 " />
<polygon points="36.6,83.1 32.6,85.4 28.2,84.4 25.9,80.4 26.9,76 " />
<polygon points="36,53 172,53 172,57 36,57 " />
<polygon points="177.3,57.6 175.5,60.3 173.7,63 171.9,65.8 169.9,68.6 167.9,71.5 165.8,74.4 163.7,77.3 161.4,80.3 159,83.2 156.7,86.4 155.2,85.5 156.5,81.9 157.5,78.2 158.7,74.7 159.8,71.3 161,67.9 162.1,64.6 163.3,61.4 164.4,58.3 165.5,55.3 166.6,52.3 " />
<polygon points="166,53 172,48 183,57 178,61 172,61 " />
<polygon points="37,34 169,34 169,38 37,38 " />
<polygon points="169,34 145,36 157,24 " />
<polygon points="107,17 107,57 95,57 95,15 " />
<polygon points="107,17 110,19 107,21 " />
<polygon points="64.9,67.9 64.9,107 52.9,113 52.9,61.9 " />
<polygon points="58.9,67.9 144,67.9 144,71.9 58.9,71.9 " />
<polygon points="150,69.9 150,107 138,113 138,69.9 " />
<polygon points="138,67.9 144,62.9 155,71.9 150,75.9 138,69.9 " />
<polygon points="107.5,67.9 107.5,107 95.5,107 95.5,67.9 " />
<polygon points="58.9,85.2 144,85.2 144,89.2 58.9,89.2 " />
<polygon points="58.9,103 144,103 144,107 58.9,107 " />
<polygon points="107,119 107,170 95,170 95,119 " />
<polygon points="101,145 154,145 154,149 101,149 " />
<polygon points="154,145 130,147 142,135 " />
<polygon points="64.8,130.6 63.3,138.3 61,145.7 57.9,152.6 54.1,159.1 49.5,165 44.3,170.5 38.3,175.4 31.7,179.8 24.4,183.6 16.3,186.8 15.6,185.1 22.4,180.3 28.6,175.4 34.1,170.4 38.8,165.3 42.8,159.9 46.1,154.3 48.8,148.4 50.8,142.4 52.1,136 52.9,129.3 " />
<polygon points="52.9,129.3 64.8,130.6 53.1,127.2 " />
<polygon points="64.8,130.6 67.6,132.9 61.2,136.2 " />
<polygon points="56.2,152.4 60.9,156.2 66.8,159.6 74.2,162.6 83.3,165.2 94.2,167.3 106.9,169 121.5,170.1 137.8,170.7 155.9,170.8 175.8,170.4 176.1,183.5 155.8,183.3 137.3,182.5 120.6,181.1 105.6,179.1 92.4,176.5 81,173.2 71.4,169.3 63.7,164.7 58,159.3 54.7,153.3 " />
<polygon points="176.1,183.5 175.8,170.4 187.5,170.1 " />
<polygon points="30,119 167,119 167,123 30,123 " />
<polygon points="172.6,122.8 171.5,124.7 170.3,126.6 169,128.6 167.5,130.6 166,132.6 164.3,134.7 162.6,136.8 160.6,138.9 158.5,141 156.7,143.4 155.2,142.5 156.5,139.8 157.3,136.9 158,134.3 158.8,131.7 159.4,129.3 160,127 160.4,124.8 160.8,122.8 161.1,120.8 161.3,119.1 " />
<polygon points="161,119 167,114 178,123 173,127 167,127 " />
</g>
</svg>
