<svg xmlns="http://www.w3.org/2000/svg" xmlns:xlink="http://www.w3.org/1999/xlink" version="1.1" baseProfile="full" viewBox="0 0 200 200" width="200" height="200">
<g fill="black">
<polygon points="149.4,127 139.7,129.1 130,131.1 120.3,133.1 110.5,135.1 100.7,137.1 90.9,139.1 81,141 71.1,142.8 61.2,144.4 51.2,145.8 50.7,144.1 60.3,140.7 69.9,137.6 79.5,134.6 89.1,131.7 98.7,128.9 108.3,126.1 117.9,123.4 127.5,120.7 137,118 146.6,115.4 " />
<polygon points="157.1,125.1 149.4,127 145.6,115.6 " />
<polygon points="157.1,125.1 157.4,128.1 150.2,124.8 " />
<polygon points="57,110 57,166 45,166 45,108 " />
<polygon points="57,110 60,112 55,115 " />
<polygon points="57,166 54.6,169.6 51,172 47.4,169.6 45,166 " />
<polygon points="57,166 57,167.2 57.2,168.1 57.4,168.7 57.5,169 57.7,169.2 57.9,169.4 58.2,169.5 58.8,169.7 59.7,169.9 61,170 61,182 58.4,181.8 55.9,181.4 53.5,180.6 51.2,179.3 49.2,177.7 47.6,175.7 46.3,173.4 45.5,171 45.1,168.5 45,166 " />
<polygon points="61,170 65.2,171.8 67,176 65.2,180.2 61,182 " />
<polygon points="61,170 170,170 170,182 61,182 " />
<polygon points="170,170 173.6,172.4 176,176 173.6,179.6 170,182 " />
<polygon points="164,171 170,145 172,145 170,171 " />
<polygon points="52.3,18.6 52.3,97.4 40.3,103.4 40.3,12.6 " />
<polygon points="46.3,18.6 150.6,18.6 150.6,22.6 46.3,22.6 " />
<polygon points="156.6,20.6 156.6,101.4 144.6,107.4 144.6,20.6 " />
<polygon points="144.6,18.6 150.6,13.6 161.6,22.6 156.6,26.6 144.6,20.6 " />
<polygon points="46.3,54.9 150.6,54.9 150.6,58.9 46.3,58.9 " />
<polygon points="46.3,93.4 150.6,93.4 150.6,97.4 46.3,97.4 " />
</g>
</svg>
