<svg xmlns="http://www.w3.org/2000/svg" xmlns:xlink="http://www.w3.org/1999/xlink" version="1.1" baseProfile="full" viewBox="0 0 200 200" width="200" height="200">
<g fill="black">
<polygon points="99.2,21.3 97.3,23.2 95.3,25.1 93.3,27 91.2,28.9 89,30.8 86.7,32.7 84.3,34.7 81.7,36.6 79.1,38.4 76.6,40.6 75.3,39.3 77.2,36.7 78.7,33.9 80.2,31.2 81.7,28.5 83.1,26 84.5,23.5 85.9,21.1 87.2,18.8 88.4,16.5 89.5,14.2 " />
<polygon points="89.5,14.2 99.2,21.3 90,13.6 " />
<polygon points="99.2,21.3 100.5,24.7 93.3,24.4 " />
<polygon points="52,38 52,103 40,109 40,32 " />
<polygon points="46,38 150,38 150,42 46,42 " />
<polygon points="156,40 156,105 144,111 144,40 " />
<polygon points="144,38 150,33 161,42 156,46 144,40 " />
<polygon points="46,68 150,68 150,72 46,72 " />
<polygon points="46,99 150,99 150,103 46,103 " />
<polygon points="149.4,129 139.7,131.1 130,133.1 120.2,135.1 110.5,137 100.7,138.9 90.9,140.7 81,142.5 71.1,144.1 61.2,145.6 51.1,146.8 50.8,145.1 60.3,141.9 69.9,138.9 79.5,136.1 89.1,133.3 98.7,130.6 108.3,128 117.9,125.3 127.5,122.6 137,120 146.6,117.4 " />
<polygon points="146.6,117.4 149.4,129 157.1,127.1 " />
<polygon points="157.1,127.1 157.4,130.1 149,126 " />
<polygon points="57,112 57,166 45,166 45,110 " />
<polygon points="57,112 60,114 57,116 " />
<polygon points="57,166 54.6,169.6 51,172 47.4,169.6 45,166 " />
<polygon points="57,166 57,167.2 57.2,168.1 57.4,168.7 57.5,169 57.7,169.2 57.9,169.4 58.2,169.5 58.8,169.7 59.7,169.9 61,170 61,182 58.4,181.8 55.9,181.4 53.5,180.6 51.2,179.3 49.2,177.7 47.6,175.7 46.3,173.4 45.5,171 45.1,168.5 45,166 " />
<polygon points="61,170 65.2,171.8 67,176 65.2,180.2 61,182 " />
<polygon points="61,170 170,170 170,182 61,182 " />
<polygon points="170,170 173.6,172.4 176,176 173.6,179.6 170,182 " />
<polygon points="164,171 170,145 172,145 170,171 " />
</g>
</svg>
