<svg xmlns="http://www.w3.org/2000/svg" xmlns:xlink="http://www.w3.org/1999/xlink" version="1.1" baseProfile="full" viewBox="0 0 200 200" width="200" height="200">
<g fill="black">
<polygon points="106.3,18.8 105.1,21 103.8,23.3 102.4,25.6 100.8,27.8 99.2,30.1 97.5,32.3 95.7,34.6 93.7,36.8 91.6,39 89.7,41.4 88.2,40.5 89.4,37.7 90.2,34.8 91.1,32.1 91.8,29.4 92.5,26.8 93.2,24.3 93.7,21.9 94.2,19.5 94.6,17.2 94.9,15 " />
<polygon points="94.6,16 106.3,18.8 95.4,13.5 " />
<polygon points="106.3,18.8 108.5,21.6 102.8,22.9 " />
<polygon points="71,39 129,39 129,43 71,43 " />
<polygon points="135,41 135,99 123,105 123,41 " />
<polygon points="123,39 129,34 140,43 135,47 123,41 " />
<polygon points="71,65 129,65 129,69 71,69 " />
<polygon points="71,91 129,91 129,95 71,95 " />
<polygon points="77,39 77,178 65,184 65,33 " />
<polygon points="71,120 142,120 142,124 71,124 " />
<polygon points="142,120 118,122 130,110 " />
<polygon points="71,149 142,149 142,153 71,153 " />
<polygon points="142,149 118,151 130,139 " />
</g>
</svg>
