<svg xmlns="http://www.w3.org/2000/svg" xmlns:xlink="http://www.w3.org/1999/xlink" version="1.1" baseProfile="full" viewBox="0 0 200 200" width="200" height="200">
<g fill="black">
<polygon points="99.5,18.2 98.2,20.2 96.7,22.2 95.2,24.2 93.6,26.2 92,28.2 90.2,30.3 88.4,32.3 86.4,34.3 84.3,36.4 82.6,38.6 81,37.7 82.3,35.1 83.1,32.3 83.9,29.7 84.7,27.1 85.5,24.7 86.2,22.3 86.9,19.9 87.5,17.6 88.1,15.4 88.6,13.3 " />
<polygon points="88.6,13.3 99.5,18.2 89.1,12.1 " />
<polygon points="99.5,18.2 101.4,21.2 94.3,22.4 " />
<polygon points="76.8,36.1 76.8,101.7 64.8,107.7 64.8,30.1 " />
<polygon points="70.8,36.1 129.7,36.1 129.7,40.1 70.8,40.1 " />
<polygon points="135.7,38.1 135.7,103.7 123.7,109.7 123.7,38.1 " />
<polygon points="123.7,36.1 129.7,31.1 140.7,40.1 135.7,44.1 123.7,38.1 " />
<polygon points="70.8,65.6 129.7,65.6 129.7,69.6 70.8,69.6 " />
<polygon points="70.8,97.7 129.7,97.7 129.7,101.7 70.8,101.7 " />
<polygon points="135.4,126.9 130,128.7 124.4,130.6 118.5,132.4 112.4,134.1 106,135.8 99.4,137.5 92.5,139 85.4,140.5 77.9,141.8 70.2,142.8 69.7,141.1 76.9,138.1 83.9,135.3 90.6,132.7 97.2,130.2 103.4,127.8 109.4,125.3 115.1,122.9 120.6,120.5 125.8,118.2 130.7,115.8 " />
<polygon points="130.7,115.8 135.4,126.9 139.6,125.1 " />
<polygon points="139.6,125.1 139.8,128.2 132.1,125 " />
<polygon points="76,114 76,166 64,166 64,112 " />
<polygon points="76,114 79,116 76,118 " />
<polygon points="76,166 73.6,169.6 70,172 66.4,169.6 64,166 " />
<polygon points="76,166 76,167.2 76.2,168.1 76.4,168.7 76.5,169 76.7,169.2 76.9,169.4 77.2,169.5 77.8,169.7 78.7,169.9 80,170 80,182 77.4,181.8 74.9,181.4 72.5,180.6 70.2,179.3 68.2,177.7 66.6,175.7 65.3,173.4 64.5,171 64.1,168.5 64,166 " />
<polygon points="80,170 84.2,171.8 86,176 84.2,180.2 80,182 " />
<polygon points="80,170 134,170 134,182 80,182 " />
<polygon points="134,170 137.6,172.4 140,176 137.6,179.6 134,182 " />
<polygon points="128,171 134,145 136,145 134,171 " />
</g>
</svg>
