<svg xmlns="http://www.w3.org/2000/svg" xmlns:xlink="http://www.w3.org/1999/xlink" version="1.1" baseProfile="full" viewBox="0 0 200 200" width="200" height="200">
<g fill="black">
<polygon points="102.9,17.5 101.3,19.7 99.7,21.8 97.9,23.9 96.1,26.1 94.3,28.2 92.3,30.3 90.2,32.3 88.1,34.3 85.7,36.3 83.7,38.5 82.2,37.4 83.7,34.8 84.8,32 85.9,29.3 86.9,26.7 87.9,24.2 88.9,21.7 89.8,19.2 90.6,16.8 91.4,14.5 92.1,12.2 " />
<polygon points="91.7,13.1 102.9,17.5 92.7,11.1 " />
<polygon points="102.9,17.5 104.7,20.7 98.8,21.1 " />
<polygon points="56,36 56,102 44,108 44,30 " />
<polygon points="50,36 150,36 150,40 50,40 " />
<polygon points="156,38 156,99 144,105 144,38 " />
<polygon points="144,36 150,31 161,40 156,44 144,38 " />
<polygon points="50,62 150,62 150,66 50,66 " />
<polygon points="50,91 150,91 150,95 50,95 " />
<polygon points="27,119 85,119 85,123 27,123 " />
<polygon points="85,119 65,121 75,110 " />
<polygon points="116,119 172,119 172,123 116,123 " />
<polygon points="172,119 152,121 162,110 " />
<polygon points="27,137 85,137 85,141 27,141 " />
<polygon points="85,137 65,139 75,128 " />
<polygon points="116,137 172,137 172,141 116,141 " />
<polygon points="172,137 152,139 162,128 " />
<polygon points="17,160 185,160 185,164 17,164 " />
<polygon points="185,160 165,162 175,151 " />
<polygon points="106,149 106,185 94,191 94,147 " />
<polygon points="106,149 109,151 104,154 " />
<polygon points="106,107 106,138 94,144 94,105 " />
<polygon points="106,107 109,109 104,112 " />
</g>
</svg>
