<svg xmlns="http://www.w3.org/2000/svg" xmlns:xlink="http://www.w3.org/1999/xlink" version="1.1" baseProfile="full" viewBox="0 0 200 200" width="200" height="200">
<g fill="black">
<polygon points="102.9,22.5 101.3,24.7 99.6,26.8 97.9,28.9 96.1,31 94.2,33 92.2,34.9 90.2,36.9 88,38.7 85.7,40.5 83.6,42.5 82.3,41.4 83.7,39 84.8,36.4 85.9,33.8 87,31.3 88,28.9 88.9,26.5 89.8,24.1 90.7,21.8 91.4,19.4 92.1,17.2 " />
<polygon points="91.7,18.1 102.9,22.5 92.7,16.1 " />
<polygon points="102.9,22.5 104.7,25.7 98.8,26.1 " />
<polygon points="56,40 56,98 44,104 44,34 " />
<polygon points="50,40 150,40 150,44 50,44 " />
<polygon points="156,42 156,98 144,104 144,42 " />
<polygon points="144,40 150,35 161,44 156,48 144,42 " />
<polygon points="50,66 150,66 150,70 50,70 " />
<polygon points="50,94 150,94 150,98 50,98 " />
<polygon points="13,159 187,159 187,163 13,163 " />
<polygon points="187,159 163,161 175,149 " />
<polygon points="106,100 106,184 94,190 94,98 " />
<polygon points="106,100 109,102 104,105 " />
<polygon points="41.1,113.2 46.4,113.4 51.5,113.5 56.3,113.9 60.7,114.5 64.9,115.2 68.7,116.1 72.3,117.1 75.6,118.4 78.7,119.8 81.5,121.4 73.8,130.6 72.4,129.1 70.5,127.6 68.2,126 65.5,124.4 62.4,122.8 58.8,121.2 54.9,119.7 50.6,118.1 45.9,116.4 40.8,115 " />
<polygon points="81.5,121.4 83.6,125.5 82.3,129.9 78.2,131.9 73.8,130.6 " />
<polygon points="30.1,144.9 35.7,143.5 41.4,142 47.3,140.5 53.3,139 59.4,137.6 65.8,136.1 72.2,134.7 78.9,133.3 85.7,132.1 92.7,131.1 93.2,132.8 86.8,135.8 80.4,138.5 74.1,141 68,143.4 61.9,145.7 56,147.9 50.3,150.1 44.6,152.2 39.1,154.3 33.7,156.4 " />
<polygon points="33.7,156.4 30.1,144.9 28.2,145.5 " />
<polygon points="33.7,156.4 36.6,158.6 38.5,151.7 " />
<polygon points="155.5,118.8 151.4,120.3 147.1,121.6 142.8,122.9 138.3,124.1 133.8,125.3 129.1,126.3 124.3,127.2 119.4,127.9 114.3,128.4 109.2,128.8 108.7,127.1 113.4,125 118,123 122.5,121.1 126.9,119.2 131.2,117.4 135.3,115.5 139.3,113.6 143.2,111.7 146.9,109.8 150.6,107.9 " />
<polygon points="149.7,108.3 155.5,118.8 159.3,117.1 " />
<polygon points="159.3,117.1 159.5,120.3 153.2,117.7 " />
<polygon points="109.1,131.3 114.4,131.8 119.7,132.5 124.9,133.5 130,134.7 135.2,136 140.3,137.4 145.4,139 150.5,140.6 155.6,142.4 160.6,144.2 155.8,155.2 151.1,152.9 146.4,150.5 141.8,148.3 137.1,146.1 132.3,144 127.6,141.8 122.9,139.7 118.1,137.6 113.4,135.4 108.7,133.1 " />
<polygon points="160.6,144.2 163.8,147.6 163.7,152.2 160.3,155.3 155.8,155.2 " />
</g>
</svg>
