<svg xmlns="http://www.w3.org/2000/svg" xmlns:xlink="http://www.w3.org/1999/xlink" version="1.1" baseProfile="full" viewBox="0 0 200 200" width="200" height="200">
<g fill="black">
<polygon points="102.9,22.5 101.3,24.7 99.6,26.8 97.9,28.9 96.1,31 94.2,33 92.2,34.9 90.2,36.9 88,38.7 85.7,40.5 83.6,42.5 82.3,41.4 83.7,39 84.8,36.4 85.9,33.8 87,31.3 88,28.9 88.9,26.5 89.8,24.1 90.7,21.8 91.4,19.4 92.1,17.2 " />
<polygon points="92.1,17.2 102.9,22.5 92.7,16.1 " />
<polygon points="102.9,22.5 104.7,25.7 97.5,26.6 " />
<polygon points="56,40 56,105 44,111 44,34 " />
<polygon points="50,40 150,40 150,44 50,44 " />
<polygon points="156,42 156,102 144,108 144,42 " />
<polygon points="144,40 150,35 161,44 156,48 144,42 " />
<polygon points="50,66 150,66 150,70 50,70 " />
<polygon points="50,94 150,94 150,98 50,98 " />
<polygon points="27,121 85,121 85,125 27,125 " />
<polygon points="85,121 61,123 73,111 " />
<polygon points="116,121 172,121 172,125 116,125 " />
<polygon points="172,121 148,123 160,111 " />
<polygon points="27,139 85,139 85,143 27,143 " />
<polygon points="85,139 61,141 73,129 " />
<polygon points="116,139 172,139 172,143 116,143 " />
<polygon points="172,139 148,141 160,129 " />
<polygon points="17,156 185,156 185,160 17,160 " />
<polygon points="185,156 161,158 173,146 " />
<polygon points="106,104 106,186 94,192 94,102 " />
<polygon points="106,104 109,106 106,108 " />
</g>
</svg>
