<svg xmlns="http://www.w3.org/2000/svg" xmlns:xlink="http://www.w3.org/1999/xlink" version="1.1" baseProfile="full" viewBox="0 0 200 200" width="200" height="200">
<g fill="black">
<polygon points="51,118 51,182 39,182 39,112 " />
<polygon points="45,118 155,118 155,122 45,122 " />
<polygon points="161,120 161,182 149,182 149,120 " />
<polygon points="149,118 155,113 166,122 161,126 149,120 " />
<polygon points="88,118 88,182 76,182 76,118 " />
<polygon points="124,118 124,182 112,182 112,118 " />
<polygon points="12,178 188,178 188,182 12,182 " />
<polygon points="188,178 164,180 176,168 " />
<polygon points="18.3,46 183.7,46 183.7,50 18.3,50 " />
<polygon points="183.7,46 159.7,48 171.7,36 " />
<polygon points="106.2,17.3 102.4,33.1 97.5,47.6 91.4,60.9 84.2,72.9 75.8,83.7 66.2,93.1 55.6,101.1 43.9,107.7 31.2,112.8 17.5,116.4 17,114.7 29.8,109.3 41.4,103 51.8,95.7 61.1,87.5 69.3,78.2 76.4,67.9 82.4,56.5 87.4,43.9 91.4,30.2 94.4,15.2 " />
<polygon points="94.4,15.2 106.2,17.3 94.7,13.3 " />
<polygon points="106.2,17.3 108.8,19.8 102.2,22.7 " />
<polygon points="104.8,47.3 111,55 117.2,62.2 123.7,69.2 130.5,75.7 137.7,81.8 145.2,87.5 153.1,92.8 161.5,97.7 170.2,102.2 179.3,106.3 173.8,118.3 164.4,113.3 155.4,107.8 146.9,101.9 138.9,95.5 131.5,88.8 124.6,81.5 118.3,73.9 112.5,65.8 107.5,57.3 103.2,48.2 " />
<polygon points="173.8,118.3 179.3,106.3 185.2,109 " />
<polygon points="83.4,80.2 87.5,80.9 91.5,81.7 95.3,82.9 99.1,84.3 102.7,85.9 106.1,87.8 109.4,89.9 112.6,92.2 115.6,94.7 118.5,97.5 109.1,105 107.3,102.3 105.3,99.7 103.2,97.2 100.8,94.8 98.3,92.5 95.6,90.2 92.7,88 89.7,85.9 86.4,83.7 82.9,81.9 " />
<polygon points="118.5,97.5 119.7,101.9 117.6,105.9 113.2,107.2 109.1,105 " />
</g>
</svg>
