<svg xmlns="http://www.w3.org/2000/svg" xmlns:xlink="http://www.w3.org/1999/xlink" version="1.1" baseProfile="full" viewBox="0 0 200 200" width="200" height="200">
<g fill="black">
<polygon points="32.9,17.3 36.5,18.6 40.1,19.5 43.3,20.6 46.3,21.8 49.1,23 51.6,24.3 53.9,25.8 56,27.4 57.9,29.2 59.5,31.2 48.7,36.4 48.6,35.3 48.1,34 47.3,32.5 46.2,30.8 44.7,29 42.9,27.1 40.7,25.1 38.2,23.1 35.5,20.8 32.2,18.9 " />
<polygon points="59.5,31.2 59.7,35.8 56.7,39.2 52.1,39.4 48.7,36.4 " />
<polygon points="15.1,41.3 18.7,42.6 22.3,43.6 25.6,44.7 28.6,46 31.4,47.3 33.9,48.8 36.3,50.5 38.4,52.2 40.3,54.2 41.9,56.5 30.9,61.2 30.7,60 30.2,58.5 29.4,56.9 28.3,55.1 26.8,53.3 25,51.3 22.8,49.3 20.4,47.1 17.6,44.9 14.4,43 " />
<polygon points="41.9,56.5 41.9,61 38.8,64.4 34.2,64.4 30.9,61.2 " />
<polygon points="17.9,86.9 23.5,87.2 28.8,87.8 33.5,89.1 37.9,91.2 41.6,94 44.8,97.6 47.2,101.9 48.8,106.7 49.7,112 49.8,117.7 37.9,116.5 38.4,112.2 38.4,108.4 38,105.1 37.1,102.1 35.7,99.3 33.6,96.8 30.8,94.4 27.3,92.2 22.9,90.2 17.7,88.7 " />
<polygon points="49.8,117.7 47.6,121.7 43.2,123.1 39.2,120.9 37.9,116.5 " />
<polygon points="34.4,93 36,91 38.2,87.8 41.2,83.6 44.8,78.3 49,72 54,64.5 59.7,56.1 66.1,46.6 73.3,36.1 81.4,24.6 82.9,25.5 76.6,38 70.7,49.3 65.3,59.4 60.5,68.4 56.3,76.3 52.7,83.1 49.8,88.8 47.5,93.3 45.8,96.8 44.7,99.1 " />
<polygon points="111.4,18.1 108.7,24.8 105.7,31.3 102.3,37.5 98.6,43.5 94.5,49.3 90.1,54.8 85.3,60 80.2,64.9 74.7,69.4 68.8,73.6 67.6,72.2 72.1,66.7 76.3,61.2 80.3,55.8 84,50.2 87.4,44.6 90.6,38.8 93.4,32.9 95.9,26.9 98.1,20.7 100,14.4 " />
<polygon points="100,14.4 111.4,18.1 100.5,12.9 " />
<polygon points="111.4,18.1 113.6,20.9 106.7,22.9 " />
<polygon points="92.9,38.2 170,38.2 170,42.2 92.9,42.2 " />
<polygon points="175.3,42.9 173.9,44.6 172.2,46.4 170.3,48.4 168,50.5 165.4,52.9 162.5,55.5 159.2,58.3 155.6,61.3 151.5,64.5 147.3,68.1 146,66.8 149.4,62.4 152.3,58.2 155,54.4 157.4,50.9 159.5,47.8 161.2,44.9 162.6,42.5 163.7,40.3 164.4,38.6 164.7,37.4 " />
<polygon points="164,38.2 170,33.2 181,42.2 176,46.2 170,46.2 " />
<polygon points="130.4,47.9 128.2,59.1 125,69.5 120.8,79 115.6,87.7 109.4,95.4 102.3,102.2 94.3,108 85.4,112.8 75.6,116.6 65,119.2 64.5,117.5 74.1,113 82.8,108.1 90.5,102.6 97.2,96.6 102.9,90 107.8,82.7 111.7,74.7 114.8,66.1 117.1,56.7 118.5,46.5 " />
<polygon points="118.5,46.5 130.4,47.9 118.8,44.4 " />
<polygon points="130.4,47.9 133.2,50.3 126.7,53.5 " />
<polygon points="127,52.6 129.3,61.1 132.1,68.9 135.4,76 139.4,82.4 143.9,88.1 149.1,93.3 155,97.9 161.6,101.9 169,105.5 177.1,108.5 172.6,120.9 163.6,116.8 155.5,112 148.3,106.6 142,100.6 136.6,93.9 132.2,86.7 128.8,78.9 126.5,70.6 125.2,61.9 125.2,52.8 " />
<polygon points="172.6,120.9 177.1,108.5 184.1,111.1 " />
<polygon points="51,127.2 51,181.3 39,181.3 39,121.2 " />
<polygon points="45,127.2 155,127.2 155,131.2 45,131.2 " />
<polygon points="161,129.2 161,181.3 149,181.3 149,129.2 " />
<polygon points="149,127.2 155,122.2 166,131.2 161,135.2 149,129.2 " />
<polygon points="88,127.2 88,181.3 76,181.3 76,127.2 " />
<polygon points="124,127.2 124,181.3 112,181.3 112,127.2 " />
<polygon points="12,177.3 188,177.3 188,181.3 12,181.3 " />
<polygon points="188,177.3 164,179.3 176,167.3 " />
</g>
</svg>
