<svg xmlns="http://www.w3.org/2000/svg" xmlns:xlink="http://www.w3.org/1999/xlink" version="1.1" baseProfile="full" viewBox="0 0 200 200" width="200" height="200">
<g fill="black">
<polygon points="31.6,21 35.4,21.8 39.1,22.4 42.6,23.2 45.8,24.1 48.9,25.2 51.8,26.4 54.6,27.8 57.1,29.4 59.5,31.1 61.6,33.1 52.1,40.4 51.3,38.7 50.2,37 48.8,35.3 47.1,33.5 45.1,31.7 42.9,29.9 40.4,28.1 37.6,26.2 34.5,24.3 31.1,22.7 " />
<polygon points="61.6,33.1 62.8,37.5 60.5,41.5 56.1,42.6 52.1,40.4 " />
<polygon points="24,80.7 29,83.4 33.7,86.1 37.8,89.1 41.4,92.4 44.5,96 46.9,99.8 48.8,103.9 50.1,108.3 50.6,112.8 50.5,117.5 38.7,115.4 39.3,112.5 39.6,109.5 39.4,106.5 38.7,103.4 37.6,100.1 35.8,96.8 33.5,93.3 30.6,89.7 27.1,85.9 23,82.2 " />
<polygon points="50.5,117.5 48,121.3 43.6,122.4 39.7,119.9 38.7,115.4 " />
<polygon points="33.1,89.4 36.6,86.4 40.3,83 44.2,79 48.4,74.5 52.9,69.4 57.6,63.9 62.6,57.9 67.8,51.4 73.4,44.5 79.4,37.3 80.9,38.2 76.6,46.7 72.2,54.5 67.9,61.7 63.7,68.4 59.6,74.6 55.7,80.3 51.9,85.5 48.3,90.2 44.7,94.4 41.4,98.2 " />
<polygon points="120.4,17.9 118,23.1 115.3,28.1 112.1,32.9 108.6,37.5 104.8,41.9 100.5,46.2 95.9,50.2 91,54 85.6,57.5 79.8,60.7 78.7,59.2 83.2,54.5 87.4,50 91.3,45.5 94.9,41 98.2,36.6 101,32.1 103.6,27.6 105.8,23.1 107.6,18.5 109.1,13.9 " />
<polygon points="108.8,14.8 120.4,17.9 109.7,12.4 " />
<polygon points="120.4,17.9 122.6,20.8 116.9,22 " />
<polygon points="98.7,41.1 165.4,41.1 165.4,45.1 98.7,45.1 " />
<polygon points="169.7,47.2 167.7,48.6 165.6,50.1 163.3,51.6 160.8,53.2 158.1,54.9 155.2,56.7 152,58.5 148.6,60.4 145,62.2 141.3,64.4 140.2,63 143.3,60 146,57 148.6,54.2 150.9,51.5 153.1,49 155.1,46.7 156.9,44.5 158.5,42.5 159.9,40.6 161,38.9 " />
<polygon points="159.4,41.1 165.4,36.1 176.4,45.1 171.4,48.1 159.4,53.1 " />
<polygon points="126.3,50.3 125.3,62.1 122.9,73 119.3,83 114.2,92 107.8,100 100.2,106.9 91.4,112.7 81.4,117.4 70.2,120.9 57.9,123.3 57.5,121.6 69,117.3 79.1,112.5 87.9,107.1 95.3,101.1 101.4,94.5 106.3,87.1 110,79.1 112.5,70.4 114,60.8 114.3,50.3 " />
<polygon points="114.3,51.3 126.3,50.3 114.3,47.9 " />
<polygon points="126.3,50.3 129.3,52.3 124.3,55.3 " />
<polygon points="124.3,65.3 126.3,71.7 128.7,77.5 131.7,82.9 135.3,87.8 139.6,92.4 144.6,96.6 150.4,100.6 157,104.2 164.5,107.6 172.8,110.6 168.2,123 159.3,119 151.3,114.5 144.2,109.6 138,104.4 132.7,98.7 128.5,92.6 125.2,86.1 123.1,79.4 122.2,72.5 122.5,65.4 " />
<polygon points="168.2,123 172.8,110.6 179.7,113.2 " />
<polygon points="51,132 51,185.5 39,185.5 39,126 " />
<polygon points="45,132 155,132 155,136 45,136 " />
<polygon points="161,134 161,185.5 149,185.5 149,134 " />
<polygon points="149,132 155,127 166,136 161,140 149,134 " />
<polygon points="88,132 88,185.5 76,185.5 76,132 " />
<polygon points="124,132 124,185.5 112,185.5 112,132 " />
<polygon points="12,181.5 188,181.5 188,185.5 12,185.5 " />
<polygon points="188,181.5 164,183.5 176,171.5 " />
</g>
</svg>
