<svg xmlns="http://www.w3.org/2000/svg" xmlns:xlink="http://www.w3.org/1999/xlink" version="1.1" baseProfile="full" viewBox="0 0 200 200" width="200" height="200">
<g fill="black">
<polygon points="17,36 180,36 180,40 17,40 " />
<polygon points="180,36 156,38 168,26 " />
<polygon points="108.8,17.7 102.7,67.7 90.8,66.2 97.1,14.2 " />
<polygon points="108.8,17.7 111.5,20 108.3,21.6 " />
<polygon points="62,63 62,179 50,179 50,57 " />
<polygon points="56,63 143,63 143,67 56,67 " />
<polygon points="149,65 149,179 137,179 137,65 " />
<polygon points="137,63 143,58 154,67 149,71 137,65 " />
<polygon points="56,89 143,89 143,93 56,93 " />
<polygon points="56,118 143,118 143,122 56,122 " />
<polygon points="56,147 143,147 143,151 56,151 " />
<polygon points="17,175 180,175 180,179 17,179 " />
<polygon points="180,175 156,177 168,165 " />
</g>
</svg>
