<svg xmlns="http://www.w3.org/2000/svg" xmlns:xlink="http://www.w3.org/1999/xlink" version="1.1" baseProfile="full" viewBox="0 0 200 200" width="200" height="200">
<g fill="black">
<polygon points="18,37 184,37 184,41 18,41 " />
<polygon points="184,37 160,39 172,27 " />
<polygon points="111.9,18.3 108.8,66.3 96.8,65.6 100,15.6 " />
<polygon points="111.9,18.3 114.7,20.5 111.6,22.3 " />
<polygon points="76,64 76,159 64,165 64,58 " />
<polygon points="70,64 148,64 148,68 70,68 " />
<polygon points="154,66 154,156 142,162 142,66 " />
<polygon points="142,64 148,59 159,68 154,72 142,66 " />
<polygon points="70,90 148,90 148,94 70,94 " />
<polygon points="70,119 148,119 148,123 70,123 " />
<polygon points="70,148 148,148 148,152 70,152 " />
<polygon points="42,75 42,185 30,191 30,73 " />
<polygon points="42,75 45,77 42,79 " />
<polygon points="36,174 180,174 180,178 36,178 " />
<polygon points="180,174 156,176 168,164 " />
</g>
</svg>
