<svg xmlns="http://www.w3.org/2000/svg" xmlns:xlink="http://www.w3.org/1999/xlink" version="1.1" baseProfile="full" viewBox="0 0 200 200" width="200" height="200">
<g fill="black">
<polygon points="63,27 63,131 51,131 51,21 " />
<polygon points="57,27 143,27 143,31 57,31 " />
<polygon points="149,29 149,131 137,131 137,29 " />
<polygon points="137,27 143,22 154,31 149,35 137,29 " />
<polygon points="57,52 143,52 143,56 57,56 " />
<polygon points="57,77 143,77 143,81 57,81 " />
<polygon points="57,102 143,102 143,106 57,106 " />
<polygon points="17,127 183,127 183,131 17,131 " />
<polygon points="183,127 159,129 171,117 " />
<polygon points="106,127 106,185 94,191 94,127 " />
<polygon points="75.7,152.7 71.3,156.9 66.6,161 61.7,164.9 56.5,168.7 51,172.3 45.3,175.8 39.3,179.1 33,182.3 26.3,185.2 19.4,187.8 18.5,186.1 24.5,181.8 30.2,177.7 35.8,173.6 41,169.5 46,165.5 50.7,161.4 55.2,157.2 59.4,153.1 63.2,148.9 66.8,144.7 " />
<polygon points="66.2,145.4 75.7,152.7 67.2,144.3 " />
<polygon points="75.7,152.7 76.6,156.2 70.9,155.1 " />
<polygon points="127.3,143.6 132.5,145.4 137.5,147.5 142.2,150 146.8,152.7 151.1,155.8 155.2,159 159,162.5 162.7,166.2 166.1,170.1 169.3,174.2 159.3,180.7 156.9,176.8 154.4,173 151.6,169.3 148.6,165.6 145.5,162.1 142,158.7 138.4,155.3 134.6,152 130.6,148.6 126.4,145.2 " />
<polygon points="169.3,174.2 170.1,178.7 167.6,182.5 163.1,183.2 159.3,180.7 " />
</g>
</svg>
