<svg xmlns="http://www.w3.org/2000/svg" xmlns:xlink="http://www.w3.org/1999/xlink" version="1.1" baseProfile="full" viewBox="0 0 200 200" width="200" height="200">
<g fill="black">
<polygon points="23,36 178,36 178,40 23,40 " />
<polygon points="178,36 154,38 166,26 " />
<polygon points="107,14 107,63 95,63 95,12 " />
<polygon points="107,14 110,16 107,18 " />
<polygon points="66,59 66,135 54,141 54,53 " />
<polygon points="60,59 144,59 144,63 60,63 " />
<polygon points="150,61 150,134 138,140 138,61 " />
<polygon points="138,59 144,54 155,63 150,67 138,61 " />
<polygon points="60,82 144,82 144,86 60,86 " />
<polygon points="60,105 144,105 144,109 60,109 " />
<polygon points="60,128 144,128 144,132 60,132 " />
<polygon points="17,148 187,148 187,152 17,152 " />
<polygon points="187,148 163,150 175,138 " />
<polygon points="91,167.7 84.9,170.6 78.6,173.3 72,175.9 65.2,178.3 58.2,180.6 50.9,182.7 43.4,184.6 35.6,186.3 27.5,187.7 19.2,188.8 18.7,187.1 26.5,184.1 34.1,181.2 41.4,178.3 48.5,175.5 55.3,172.6 61.8,169.6 68,166.6 74,163.6 79.7,160.4 85.2,157.2 " />
<polygon points="85.2,157.2 91,167.7 93.2,166.5 " />
<polygon points="93.2,166.5 93.3,169.8 86,167 " />
<polygon points="114.1,161.2 121.5,161.5 128.6,162.2 135.3,163.2 141.7,164.5 147.8,166 153.5,167.8 158.9,169.9 164,172.1 168.8,174.6 173.2,177.4 165.9,186.9 162.5,184.1 158.8,181.5 154.6,178.9 149.9,176.4 144.9,174 139.5,171.7 133.6,169.5 127.4,167.4 120.8,165.2 113.8,163 " />
<polygon points="173.2,177.4 175.4,181.3 174.3,185.8 170.4,188 165.9,186.9 " />
</g>
</svg>
