<svg xmlns="http://www.w3.org/2000/svg" xmlns:xlink="http://www.w3.org/1999/xlink" version="1.1" baseProfile="full" viewBox="0 0 200 200" width="200" height="200">
<g fill="black">
<path d="M 22.2 188.8 L 21.7 187.1 L 29 183.5 L 36 180.1 L 42.9 176.8 L 49.4 173.5 L 55.7 170.2 L 61.7 166.9 L 67.4 163.6 L 72.9 160.3 L 78 156.9 L 82 154 L 82.8 153.5 L 86.1 158.5 L 90.2 163 L 90.4 166.5 L 86.8 165 L 83.9 166.6 L 78.1 169.6 L 72.1 172.5 L 65.8 175.3 L 59.3 177.9 L 52.4 180.5 L 45.3 182.9 L 37.9 185.1 L 30.2 187.1 Z M 161.6 187.7 L 157.5 185.8 L 154.5 182.2 L 151.1 178.9 L 147.3 175.7 L 143.1 172.6 L 138.6 169.7 L 133.6 167 L 128.2 164.4 L 122.5 161.9 L 116.3 159.5 L 109.8 157 L 110.1 155.3 L 117.2 155.8 L 124 156.8 L 130.4 158.2 L 136.5 160 L 142.3 162.1 L 147.8 164.6 L 152.9 167.4 L 157.8 170.5 L 162.2 173.9 L 166.4 177.7 L 167.9 182 L 166 186.2 Z M 24 167 L 24 68 L 36 70 L 39 72 L 36 73.8 L 36 145 L 58 145 L 58 57 L 70 63 L 99 63 L 99 42 L 20 42 L 20 38 L 99 38 L 99 14 L 111 16 L 114 18 L 111 19.8 L 111 38 L 163 38 L 173 28 L 185 38 L 185 42 L 111 42 L 111 63 L 140 63 L 146 58 L 157 67 L 152 71 L 152 145 L 165 145 L 175 135 L 187 145 L 187 149 L 36 149 L 36 161 Z M 70 145 L 140 145 L 140 126 L 70 126 Z M 70 122 L 140 122 L 140 105 L 70 105 Z M 70 101 L 140 101 L 140 85 L 70 85 Z M 70 81 L 140 81 L 140 67 L 70 67 Z " />
</g>
</svg>
