<svg xmlns="http://www.w3.org/2000/svg" xmlns:xlink="http://www.w3.org/1999/xlink" version="1.1" baseProfile="full" viewBox="0 0 200 200" width="200" height="200">
<g fill="black">
<polygon points="50.8,26.8 50.8,63.3 38.8,69.3 38.8,20.8 " />
<polygon points="44.8,26.8 155.2,26.8 155.2,30.8 44.8,30.8 " />
<polygon points="161.2,28.8 161.2,60.3 149.2,66.3 149.2,28.8 " />
<polygon points="149.2,26.8 155.2,21.8 166.2,30.8 161.2,34.8 149.2,28.8 " />
<polygon points="87.6,26.8 87.6,56.3 75.6,56.3 75.6,26.8 " />
<polygon points="124.4,26.8 124.4,56.3 112.4,56.3 112.4,26.8 " />
<polygon points="44.8,52.3 155.2,52.3 155.2,56.3 44.8,56.3 " />
<polygon points="106,62 106,177 94,183 94,60 " />
<polygon points="106,62 109,64 104,67 " />
<polygon points="32,95 88,95 88,99 32,99 " />
<polygon points="88,95 64,97 76,85 " />
<polygon points="32,141 88,141 88,145 32,145 " />
<polygon points="88,141 64,143 76,131 " />
<polygon points="113,93 166,93 166,97 113,97 " />
<polygon points="166,93 142,95 154,83 " />
<polygon points="113,139 166,139 166,143 113,143 " />
<polygon points="166,139 142,141 154,129 " />
</g>
</svg>
