<svg xmlns="http://www.w3.org/2000/svg" xmlns:xlink="http://www.w3.org/1999/xlink" version="1.1" baseProfile="full" viewBox="0 0 200 200" width="200" height="200">
<g fill="black">
<polygon points="40.5,25.4 40.5,75.1 28.5,81.1 28.5,19.4 " />
<polygon points="34.5,25.4 161.4,25.4 161.4,29.4 34.5,29.4 " />
<polygon points="167.4,27.4 167.4,70.1 155.4,76.1 155.4,27.4 " />
<polygon points="155.4,25.4 161.4,20.4 172.4,29.4 167.4,33.4 155.4,27.4 " />
<polygon points="82.8,25.4 82.8,68.1 70.8,68.1 70.8,25.4 " />
<polygon points="125.1,25.4 125.1,68.1 113.1,68.1 113.1,25.4 " />
<polygon points="34.5,64.1 161.4,64.1 161.4,68.1 34.5,68.1 " />
<polygon points="106,64 106,184 94,190 94,64 " />
<polygon points="32.1,92.3 36.7,92.9 41.3,93.6 45.7,94.8 49.9,96.2 54,98 58,100 61.8,102.3 65.5,104.8 69.1,107.7 72.4,110.7 63.5,118.7 61.1,115.7 58.5,112.8 55.8,110 52.9,107.4 49.9,104.9 46.6,102.6 43.2,100.3 39.6,98.2 35.7,96 31.7,94.1 " />
<polygon points="72.4,110.7 73.9,115.1 71.9,119.2 67.6,120.6 63.5,118.7 " />
<polygon points="22,161.2 26.5,159.1 31.5,156.8 36.8,154.4 42.4,151.8 48.4,149.1 54.9,146.2 61.6,143.3 68.8,140.2 76.5,137.2 84.5,134.1 85.4,135.8 78.2,140.6 71.3,145 64.7,149.1 58.4,153 52.4,156.6 46.8,160 41.5,163.2 36.5,166.3 31.9,169.1 27.7,171.7 " />
<polygon points="20.2,162.2 22,161.2 27.7,171.7 " />
<polygon points="31.5,166.2 30.9,173.4 27.7,171.7 " />
<polygon points="166.6,93.4 162.4,95.9 158,98.5 153.4,101 148.7,103.6 143.7,106.2 138.5,108.8 133.1,111.4 127.5,114 121.6,116.4 115.4,118.7 114.5,117.2 119.7,113.1 124.8,109.3 129.8,105.7 134.6,102.3 139.3,99 143.8,95.7 148,92.6 152.1,89.5 156,86.5 159.7,83.6 " />
<polygon points="166.9,93.2 166.6,93.4 158.9,84.2 " />
<polygon points="166.9,93.2 167,96.8 161.6,94.5 " />
<polygon points="113.2,133.5 118.7,134.6 124.2,136.2 129.9,138.2 135.6,140.5 141.4,143.2 147.3,146.1 153.3,149.2 159.4,152.7 165.6,156.4 171.9,160.3 165.1,170.2 159.3,165.8 153.6,161.7 148,157.8 142.6,154.1 137.3,150.6 132,147.2 127,144.1 122,141.1 117.2,138.1 112.6,135.1 " />
<polygon points="171.9,160.3 174.3,164.2 173.4,168.7 169.5,171.1 165.1,170.2 " />
</g>
</svg>
