<svg xmlns="http://www.w3.org/2000/svg" xmlns:xlink="http://www.w3.org/1999/xlink" version="1.1" baseProfile="full" viewBox="0 0 200 200" width="200" height="200">
<g fill="black">
<polygon points="41.8,22.8 41.8,76.5 29.8,82.5 29.8,16.8 " />
<polygon points="35.8,22.8 164.1,22.8 164.1,26.8 35.8,26.8 " />
<polygon points="170.1,24.8 170.1,70.5 158.1,76.5 158.1,24.8 " />
<polygon points="158.1,22.8 164.1,17.8 175.1,26.8 170.1,30.8 158.1,24.8 " />
<polygon points="84.6,22.8 84.6,64.5 72.6,64.5 72.6,22.8 " />
<polygon points="127.3,22.8 127.3,64.5 115.3,64.5 115.3,22.8 " />
<polygon points="35.8,60.5 164.1,60.5 164.1,64.5 35.8,64.5 " />
<polygon points="106,71 106,183 94,189 94,69 " />
<polygon points="106,71 109,73 104,76 " />
<polygon points="82.1,95.1 77,99.1 71.6,102.9 66,106.5 60.1,110.1 54,113.5 47.6,116.7 41,119.9 34,122.8 26.8,125.4 19.3,127.8 18.6,126.1 25.2,122 31.6,118 37.8,114.1 43.8,110.2 49.5,106.2 55,102.3 60.2,98.3 65.2,94.3 69.8,90.2 74.2,86.1 " />
<polygon points="73.5,86.8 82.1,95.1 74.4,85.9 " />
<polygon points="82.1,95.1 82.6,98.7 77.1,96.9 " />
<polygon points="82.1,133.1 77,137.1 71.6,140.9 66,144.5 60.1,148.1 54,151.5 47.6,154.7 41,157.9 34,160.8 26.8,163.4 19.3,165.8 18.6,164.1 25.2,160 31.6,156 37.8,152.1 43.8,148.2 49.5,144.2 55,140.3 60.2,136.3 65.2,132.3 69.8,128.2 74.2,124.1 " />
<polygon points="73.5,124.8 82.1,133.1 74.4,123.9 " />
<polygon points="82.1,133.1 82.6,136.7 77.1,134.9 " />
<polygon points="123.2,89.4 129.7,90.7 135.8,92.5 141.7,94.6 147.4,97 152.7,99.6 157.8,102.6 162.6,105.7 167.2,109.2 171.5,112.8 175.5,116.8 166.4,124.6 163.4,120.8 160,117.1 156.4,113.6 152.4,110.1 148.2,106.8 143.6,103.6 138.8,100.4 133.7,97.4 128.3,94.3 122.6,91.1 " />
<polygon points="175.5,116.8 176.9,121.1 174.9,125.2 170.6,126.6 166.4,124.6 " />
<polygon points="123.2,127.4 129.7,128.7 135.8,130.5 141.7,132.6 147.4,135 152.7,137.6 157.8,140.6 162.6,143.7 167.2,147.2 171.5,150.8 175.5,154.8 166.4,162.6 163.4,158.8 160,155.1 156.4,151.6 152.4,148.1 148.2,144.8 143.6,141.6 138.8,138.4 133.7,135.4 128.3,132.3 122.6,129.1 " />
<polygon points="175.5,154.8 176.9,159.1 174.9,163.2 170.6,164.6 166.4,162.6 " />
</g>
</svg>
