<svg xmlns="http://www.w3.org/2000/svg" xmlns:xlink="http://www.w3.org/1999/xlink" version="1.1" baseProfile="full" viewBox="0 0 200 200" width="200" height="200">
<g fill="black">
<polygon points="37,22 37,71.4 25,77.4 25,16 " />
<polygon points="31,22 169,22 169,26 31,26 " />
<polygon points="175,24 175,65.4 163,71.4 163,24 " />
<polygon points="163,22 169,17 180,26 175,30 163,24 " />
<polygon points="83,22 83,59.4 71,59.4 71,22 " />
<polygon points="129,22 129,59.4 117,59.4 117,22 " />
<polygon points="31,55.4 169,55.4 169,59.4 31,59.4 " />
<polygon points="74.5,75 69.3,82.3 64,89.5 58.4,96.5 52.6,103.3 46.5,109.9 40.3,116.4 33.8,122.6 27,128.6 19.9,134.3 12.5,139.6 11.4,138.3 17.4,131.5 23.2,124.8 29,118 34.7,111.3 40.1,104.4 45.3,97.5 50.4,90.4 55.2,83.2 59.9,76 64.3,68.6 " />
<polygon points="64.9,67.8 74.5,75 63.8,69.4 " />
<polygon points="74.5,75 76,78.3 70.1,78.2 " />
<polygon points="52,105 52,183 40,189 40,105 " />
<polygon points="118.4,76.1 113.1,83.4 107.7,90.5 102,97.4 96.2,104.1 90.3,110.7 84.2,117 77.9,123.1 71.3,128.9 64.6,134.4 57.6,139.6 56.3,138.3 62,131.7 67.5,125.1 73.1,118.6 78.5,111.9 83.8,105.2 89,98.3 94.1,91.3 99,84.2 103.8,76.9 108.4,69.5 " />
<polygon points="108.9,68.7 118.4,76.1 107.8,70.3 " />
<polygon points="118.4,76.1 119.8,79.4 114,79.2 " />
<polygon points="95,106 95,183 83,189 83,106 " />
<polygon points="149,75.9 148.2,92.9 146.6,108.7 144.1,123.2 140.7,136.5 136.4,148.5 131.2,159.3 125.1,168.6 118.1,176.6 110.1,183 101.4,187.8 100.5,186.3 107.7,180.1 114.1,173 119.7,164.9 124.5,155.8 128.5,145.5 131.7,134.1 134.2,121.4 135.9,107.5 136.8,92.3 137,75.9 " />
<polygon points="137,73.5 149,75.9 137,76.9 " />
<polygon points="149,75.9 152,77.9 147,80.9 " />
<polygon points="146.3,76.6 147.8,92 149.7,106.3 152.2,119.4 155.3,131.2 159,141.9 163.3,151.4 168.3,159.6 173.8,166.7 180,172.7 186.7,177.5 179.2,188.4 171.5,181.9 164.7,174.2 158.9,165.5 154.1,155.7 150.2,145 147.2,133.3 145,120.6 143.9,106.9 143.6,92.2 144.5,76.5 " />
<polygon points="179.2,188.4 186.7,177.5 190.3,180 " />
</g>
</svg>
