<svg xmlns="http://www.w3.org/2000/svg" xmlns:xlink="http://www.w3.org/1999/xlink" version="1.1" baseProfile="full" viewBox="0 0 200 200" width="200" height="200">
<g fill="black">
<polygon points="37,22.1 37,73.2 25,79.2 25,16.1 " />
<polygon points="31,22.1 169,22.1 169,26.1 31,26.1 " />
<polygon points="175,24.1 175,67.2 163,73.2 163,24.1 " />
<polygon points="163,22.1 169,17.1 180,26.1 175,30.1 163,24.1 " />
<polygon points="83,22.1 83,61.2 71,61.2 71,22.1 " />
<polygon points="129,22.1 129,61.2 117,61.2 117,22.1 " />
<polygon points="31,57.2 169,57.2 169,61.2 31,61.2 " />
<polygon points="149.4,81 142,82.3 133.7,83.6 124.4,84.9 114.1,86.2 102.8,87.5 90.5,88.7 77.2,89.9 62.8,91.1 47.5,92 31,92.8 30.9,91.1 47,88.3 62.2,85.7 76.4,83.4 89.5,81.2 101.6,79.1 112.7,77 122.7,75 131.7,73.1 139.7,71.2 146.6,69.3 " />
<polygon points="146.6,69.3 149.4,81 157.2,79.2 " />
<polygon points="157.2,79.2 157.5,82.2 149.1,78 " />
<polygon points="105,83 105,184 93,190 93,81 " />
<polygon points="105,83 108,85 105,87 " />
<polygon points="57,101 56.3,112.1 54.8,122.7 52.5,132.7 49.4,142.1 45.6,150.9 40.9,159.1 35.5,166.6 29.3,173.4 22.3,179.5 14.5,184.7 13.4,183.2 19.7,176.7 25.3,169.9 30.1,162.8 34.3,155.3 37.8,147.5 40.6,139.2 42.7,130.4 44.2,121.1 44.9,111.3 45,101 " />
<polygon points="45,101 57,101 45,98.6 " />
<polygon points="57,101 60,103 54,107 " />
<polygon points="47.2,136.5 51.9,137.9 56.5,139.6 60.7,141.8 64.7,144.3 68.4,147.3 71.8,150.6 75,154.2 77.8,158.2 80.4,162.5 82.6,167.1 71.3,171.2 70,167.1 68.5,163.3 66.8,159.7 64.7,156.2 62.4,152.9 59.9,149.7 57,146.7 53.8,143.8 50.4,140.9 46.5,138.2 " />
<polygon points="82.6,167.1 82.3,171.7 79,174.8 74.4,174.5 71.3,171.2 " />
<polygon points="149,95 148.3,107.4 147.1,119.1 145.3,129.9 142.8,139.9 139.7,149.1 136,157.4 131.6,164.7 126.5,171.1 120.8,176.5 114.5,180.7 113.4,179.2 118.1,173.8 122.3,167.9 125.9,161.4 129.1,154.2 131.7,146.3 133.8,137.7 135.4,128.2 136.5,117.9 137,106.9 137,95 " />
<polygon points="137,95 149,95 137,92.6 " />
<polygon points="149,95 152,97 146,101 " />
<polygon points="145.8,104 147,114.2 148.7,123.6 150.9,132.2 153.7,140.2 157.2,147.5 161.3,154 166,160 171.5,165.3 177.6,170.1 184.4,174.3 177.5,185.6 169.9,180 163.2,173.8 157.5,166.9 152.6,159.5 148.7,151.4 145.8,142.9 143.8,133.9 142.8,124.3 142.8,114.3 144,103.9 " />
<polygon points="177.5,185.6 184.4,174.3 188.7,176.9 " />
</g>
</svg>
