<svg xmlns="http://www.w3.org/2000/svg" xmlns:xlink="http://www.w3.org/1999/xlink" version="1.1" baseProfile="full" viewBox="0 0 200 200" width="200" height="200">
<g fill="black">
<polygon points="58.2,13.1 61.1,14.2 64,15 66.8,15.9 69.3,17 71.7,18.2 73.9,19.5 76,20.9 77.9,22.5 79.6,24.3 81.1,26.2 70.2,31.2 70.1,30 69.7,28.6 69,27.1 68.2,25.5 67,23.8 65.6,22 64,20.2 62.1,18.3 60,16.3 57.5,14.7 " />
<polygon points="81.1,26.2 81.3,30.8 78.2,34.2 73.6,34.3 70.2,31.2 " />
<polygon points="144.6,18.3 142.2,20.3 139.6,22.3 137,24.3 134.2,26.3 131.4,28.2 128.4,30.2 125.3,32 122.1,33.9 118.8,35.6 115.5,37.6 114.4,36.1 117,33.4 119.4,30.5 121.7,27.7 124,25.1 126.2,22.4 128.3,19.9 130.3,17.4 132.3,14.9 134.1,12.5 135.9,10.1 " />
<polygon points="135.9,10.1 144.6,18.3 136.2,9.7 " />
<polygon points="144.6,18.3 145.5,21.8 138.3,20.6 " />
<polygon points="23,34.9 172,34.9 172,38.9 23,38.9 " />
<polygon points="172,34.9 148,36.9 160,24.9 " />
<polygon points="43,59.2 161,59.2 161,63.2 43,63.2 " />
<polygon points="161,59.2 137,61.2 149,49.2 " />
<polygon points="17,81.7 183,81.7 183,85.7 17,85.7 " />
<polygon points="183,81.7 159,83.7 171,71.7 " />
<polygon points="106,36.9 105.9,37.7 103,50.7 98.6,63.1 92.8,74.9 85.5,86.1 76.9,96.7 67,106.7 55.6,116.1 42.9,124.9 28.8,132.9 13.4,140.3 12.5,138.6 26.9,129.7 39.9,120.5 51.5,111 61.7,101.3 70.5,91.3 77.9,80.9 83.9,70.2 88.6,59.2 92,47.8 93.8,36.9 " />
<polygon points="71,105 71,181 59,187 59,99 " />
<polygon points="65,105 147,105 147,109 65,109 " />
<polygon points="153,107 153,178 141,184 141,107 " />
<polygon points="141,105 147,100 158,109 153,113 141,107 " />
<polygon points="65,126 147,126 147,130 65,130 " />
<polygon points="65,170 147,170 147,174 65,174 " />
<polygon points="65,147 147,147 147,151 65,151 " />
</g>
</svg>
