<svg xmlns="http://www.w3.org/2000/svg" xmlns:xlink="http://www.w3.org/1999/xlink" version="1.1" baseProfile="full" viewBox="0 0 200 200" width="200" height="200">
<g fill="black">
<polygon points="104,16 104,53 92,53 92,14 " />
<polygon points="104,16 107,18 104,20 " />
<polygon points="32.2,39.5 34,43.2 35.7,46.8 37,50.4 37.8,54.1 38.1,57.8 38,61.5 37.3,65.1 36.2,68.7 34.6,72.2 32.4,75.6 23.4,67.8 25.3,65.9 27,63.9 28.4,61.8 29.6,59.5 30.5,57 31.1,54.2 31.5,51.1 31.5,47.7 31.4,44 30.5,40.2 " />
<polygon points="32.4,75.6 28.3,77.6 24,76.2 22,72.1 23.4,67.8 " />
<polygon points="33,49 172,49 172,53 33,53 " />
<polygon points="177.4,53.5 175.7,56 174,58.5 172.2,60.9 170.4,63.3 168.4,65.6 166.4,67.9 164.3,70.1 162.1,72.3 159.8,74.3 157.7,76.5 156.2,75.4 157.7,72.8 158.7,69.9 159.8,67.2 160.9,64.5 162,61.8 163,59.1 163.9,56.4 164.8,53.7 165.7,51.1 166.5,48.4 " />
<polygon points="166,49 172,44 183,53 178,57 172,57 " />
<polygon points="98,31 173,31 173,35 98,35 " />
<polygon points="173,31 149,33 161,21 " />
<polygon points="107,80.5 100,88.2 92.6,95.5 84.7,102.3 76.3,108.7 67.4,114.6 58.1,120.1 48.4,125.1 38.2,129.6 27.4,133.5 16.3,136.8 15.6,135.1 26,130 35.9,124.8 45.3,119.3 54.2,113.6 62.6,107.6 70.6,101.4 78.1,94.7 85.1,87.8 91.6,80.6 97.6,73 " />
<polygon points="97.6,73 107,80.5 98.1,72.5 " />
<polygon points="107,80.5 108.1,83.9 100.9,83.3 " />
<polygon points="99.3,83.9 106.2,88.1 113.1,92.1 120.2,96 127.4,99.6 134.9,102.9 142.7,106 150.7,108.8 159,111.3 167.6,113.6 176.5,115.5 173.4,128.4 164.2,125.6 155.3,122.5 146.8,119.1 138.6,115.4 130.8,111.3 123.4,106.9 116.4,102.1 109.7,97 103.6,91.4 98.1,85.3 " />
<polygon points="173.4,128.4 176.5,115.5 185.2,117.6 " />
<polygon points="62,122 62,184 50,190 50,116 " />
<polygon points="56,122 146,122 146,126 56,126 " />
<polygon points="152,124 152,181 140,187 140,124 " />
<polygon points="140,122 146,117 157,126 152,130 140,124 " />
<polygon points="56,173 146,173 146,177 56,177 " />
<polygon points="74.5,81.9 70.5,85.3 66.3,88.6 61.8,91.8 57.1,94.9 52.2,97.9 47,100.8 41.5,103.6 35.8,106.2 29.7,108.6 23.4,110.8 22.5,109.1 27.9,105.3 33.1,101.5 38.1,97.9 42.9,94.4 47.4,90.9 51.6,87.4 55.6,83.9 59.3,80.4 62.8,76.9 66,73.4 " />
<polygon points="66,73.4 74.5,81.9 66.3,73.1 " />
<polygon points="74.5,81.9 75.2,85.4 68.1,84 " />
<polygon points="120.1,79.2 125.6,79.2 130.9,79.4 136,79.9 141,80.7 145.8,81.6 150.5,82.8 155,84.1 159.3,85.7 163.5,87.4 167.5,89.3 161.3,99.6 158.1,97.4 154.7,95.3 151.1,93.3 147.3,91.4 143.3,89.6 139,87.8 134.5,86.1 129.8,84.4 124.9,82.7 119.8,81 " />
<polygon points="167.5,89.3 170.1,93 169.5,97.5 165.8,100.2 161.3,99.6 " />
<polygon points="56,138 146,138 146,142 56,142 " />
<polygon points="56,155 146,155 146,159 56,159 " />
<polygon points="54,64 146,64 146,68 54,68 " />
<polygon points="146,64 122,66 134,54 " />
</g>
</svg>
