<svg xmlns="http://www.w3.org/2000/svg" xmlns:xlink="http://www.w3.org/1999/xlink" version="1.1" baseProfile="full" viewBox="0 0 200 200" width="200" height="200">
<g fill="black">
<polygon points="40,92 160,92 160,96 40,96 " />
<polygon points="160,92 136,94 148,82 " />
<polygon points="17,120 183,120 183,124 17,124 " />
<polygon points="183,120 159,122 171,110 " />
<polygon points="106,120 106,174 94,174 94,120 " />
<polygon points="106,174 103.6,177.6 100,180 96.4,177.6 94,174 " />
<polygon points="106,174 105.8,176.5 105.4,179 104.6,181.4 103.3,183.7 101.7,185.7 99.7,187.3 97.4,188.6 95,189.4 92.5,189.8 90,190 90,178 91.2,177.9 92.1,177.7 92.7,177.5 93,177.4 93.2,177.2 93.4,177 93.5,176.7 93.7,176.1 93.9,175.2 94,174 " />
<polygon points="90,184 90,178 70,178 70,181 " />
<polygon points="68.6,142.9 65.1,147.8 61.2,152.6 57,157.3 52.4,161.8 47.5,166.2 42.3,170.5 36.7,174.6 30.7,178.6 24.3,182.3 17.4,185.7 16.5,184.2 22.1,179.2 27.4,174.3 32.5,169.5 37.2,164.8 41.6,160.1 45.7,155.4 49.3,150.8 52.7,146.1 55.7,141.4 58.3,136.7 " />
<polygon points="58.3,136.7 68.6,142.9 58.8,135.8 " />
<polygon points="68.6,142.9 70.1,146.2 62.9,146.5 " />
<polygon points="125.2,137.6 131.8,139.7 138,142.2 143.8,145.2 149.2,148.4 154.3,151.9 159.1,155.7 163.5,159.7 167.6,164 171.3,168.6 174.6,173.4 164.3,179.3 161.9,175 159.1,170.7 156,166.5 152.6,162.4 148.8,158.4 144.6,154.5 140.1,150.6 135.2,146.9 130,143.1 124.5,139.2 " />
<polygon points="174.6,173.4 175.2,177.9 172.4,181.5 167.9,182.1 164.3,179.3 " />
</g>
</svg>
