<svg xmlns="http://www.w3.org/2000/svg" xmlns:xlink="http://www.w3.org/1999/xlink" version="1.1" baseProfile="full" viewBox="0 0 200 200" width="200" height="200">
<g fill="black">
<polygon points="62,14 62,56 50,56 50,12 " />
<polygon points="62,14 65,16 62,18 " />
<polygon points="16,52 87,52 87,56 16,56 " />
<polygon points="92.2,56.8 86.7,65.8 80.7,74.6 74,83.1 66.8,91.4 59,99.4 50.7,107.1 41.8,114.5 32.3,121.6 22.2,128.4 11.5,134.7 10.4,133.2 19.9,125.3 29,117.5 37.5,109.6 45.4,101.6 52.9,93.5 59.7,85.3 66.1,77 71.8,68.5 77,59.9 81.7,51.1 " />
<polygon points="81,52 87,47 98,56 93,60 87,60 " />
<polygon points="62,97 62,183 50,189 50,97 " />
<polygon points="58.3,99.6 63.3,101.5 68.2,103.4 72.7,105.6 77,108 80.9,110.5 84.6,113.2 88,116 91.1,118.9 93.9,122 96.5,125.3 86.3,131.5 84.8,128.6 82.9,125.7 80.8,122.8 78.4,119.8 75.7,116.8 72.6,113.8 69.2,110.8 65.6,107.6 61.7,104.4 57.4,101.2 " />
<polygon points="96.5,125.3 97.2,129.8 94.5,133.5 90,134.2 86.3,131.5 " />
</g>
</svg>
