<svg xmlns="http://www.w3.org/2000/svg" xmlns:xlink="http://www.w3.org/1999/xlink" version="1.1" baseProfile="full" viewBox="0 0 200 200" width="200" height="200">
<g fill="black">
<polygon points="66.2,20 62.6,28.1 58.8,35.9 54.7,43.2 50.4,50.2 45.9,56.7 41.2,62.9 36.2,68.6 30.9,73.8 25.4,78.5 19.5,82.6 18.4,81.3 22.7,75.8 26.9,70.2 31.1,64.5 35,58.4 38.8,52.1 42.4,45.5 45.8,38.6 49.1,31.3 52.1,23.7 55,15.7 " />
<polygon points="55,15.7 66.2,20 55.5,14.4 " />
<polygon points="66.2,20 68.3,23 61.3,24.6 " />
<polygon points="53,36 94,36 94,40 53,40 " />
<polygon points="99.3,40.6 92.3,53.3 85,65.2 77.2,76.2 69.1,86.3 60.6,95.6 51.7,103.9 42.4,111.4 32.8,117.9 22.7,123.4 12.3,127.8 11.6,126.1 20.8,120.1 29.7,113.5 38.3,106.3 46.5,98.4 54.3,89.8 61.9,80.5 69,70.4 75.9,59.5 82.4,47.8 88.6,35.3 " />
<polygon points="88,36 94,31 105,40 100,44 94,44 " />
<polygon points="49.2,49.5 52.5,50.6 55.8,51.4 58.9,52.4 61.9,53.6 64.6,54.9 67.2,56.5 69.7,58.2 71.9,60.1 74,62.2 75.8,64.5 65.2,70.2 64.7,68.4 63.8,66.5 62.8,64.7 61.5,62.8 60,60.8 58.2,58.9 56.2,56.9 53.9,54.9 51.5,52.8 48.5,51.2 " />
<polygon points="75.8,64.5 76.2,69 73.4,72.6 68.8,73 65.2,70.2 " />
<polygon points="111,36 165,36 165,40 111,40 " />
<polygon points="170.4,40.5 168.4,43.7 166.2,46.9 163.8,50.2 161,53.7 158,57.1 154.8,60.7 151.2,64.4 147.4,68.1 143.1,71.8 138.6,75.6 137.3,74.3 140.5,69.5 143.5,64.8 146.3,60.4 149,56.2 151.4,52.3 153.5,48.5 155.4,44.9 157,41.5 158.4,38.4 159.5,35.4 " />
<polygon points="159,36 165,31 176,40 171,44 165,44 " />
<polygon points="106.1,19.6 111.7,31 117.5,41.6 123.7,51.5 130.4,60.7 137.6,69.2 145.3,76.9 153.6,84 162.5,90.3 171.9,96 181.9,101 176,112.9 165.5,106.8 155.6,100 146.5,92.4 138.1,84.2 130.5,75.2 123.6,65.6 117.5,55.2 112.2,44.2 107.8,32.6 104.4,20.2 " />
<polygon points="176,112.9 181.9,101 187.4,103.7 " />
<polygon points="38.3,64.7 41,65.9 44,67 46.7,68.3 49.3,69.9 51.8,71.6 54.2,73.4 56.4,75.5 58.4,77.7 60.4,80.1 62.1,82.7 51.2,87.8 50.6,85.5 49.7,83.3 48.8,81.1 47.7,78.9 46.4,76.7 45,74.6 43.4,72.4 41.6,70.3 39.7,68 37.4,66.2 " />
<polygon points="62.1,82.7 62.3,87.3 59.2,90.7 54.7,90.8 51.2,87.8 " />
<polygon points="69,96 138,96 138,100 69,100 " />
<polygon points="138,96 114,98 126,86 " />
<polygon points="33,125 171,125 171,129 33,129 " />
<polygon points="171,125 147,127 159,115 " />
<polygon points="109,125 109,173 97,173 97,125 " />
<polygon points="109,173 106.6,176.6 103,179 99.4,176.6 97,173 " />
<polygon points="109,173 108.8,175.5 108.4,178 107.6,180.4 106.3,182.7 104.7,184.7 102.7,186.3 100.4,187.6 98,188.4 95.5,188.8 93,189 93,177 94.2,176.9 95.1,176.7 95.7,176.5 96,176.4 96.2,176.2 96.4,176 96.5,175.7 96.7,175.1 96.9,174.2 97,173 " />
<polygon points="93,183 93,177 73,177 73,180 " />
<polygon points="72.9,149.6 68.9,153.6 64.6,157.5 60.1,161.2 55.4,164.8 50.4,168.3 45.1,171.6 39.6,174.7 33.8,177.7 27.8,180.4 21.4,182.7 20.5,181.2 25.9,177.1 31,173.1 36,169.2 40.7,165.4 45.2,161.5 49.4,157.6 53.4,153.7 57.1,149.8 60.6,145.8 63.7,141.8 " />
<polygon points="63.7,141.8 72.9,149.6 64.1,141.4 " />
<polygon points="72.9,149.6 73.8,153.1 66.7,152.2 " />
<polygon points="125.2,142.5 131.5,144 137.5,145.9 143.2,148.2 148.6,150.8 153.7,153.7 158.5,156.9 163.1,160.3 167.3,163.9 171.3,167.8 175,172 165.3,179.1 162.6,175.2 159.6,171.4 156.3,167.7 152.7,164.1 148.8,160.6 144.5,157.3 140,154 135.1,150.7 130,147.5 124.6,144.2 " />
<polygon points="175,172 176,176.4 173.7,180.4 169.3,181.4 165.3,179.1 " />
</g>
</svg>
