<svg xmlns="http://www.w3.org/2000/svg" xmlns:xlink="http://www.w3.org/1999/xlink" version="1.1" baseProfile="full" viewBox="0 0 200 200" width="200" height="200">
<g fill="black">
<polygon points="105,14 105,40 93,40 93,12 " />
<polygon points="105,14 108,16 105,18 " />
<polygon points="21,36 181,36 181,40 21,40 " />
<polygon points="181,36 157,38 169,26 " />
<polygon points="57,51 57,108 45,114 45,45 " />
<polygon points="51,51 149,51 149,55 51,55 " />
<polygon points="155,53 155,107 143,113 143,53 " />
<polygon points="143,51 149,46 160,55 155,59 143,53 " />
<polygon points="51,101 149,101 149,105 51,105 " />
<polygon points="82,66 82,90 70,96 70,60 " />
<polygon points="76,66 124,66 124,70 76,70 " />
<polygon points="130,68 130,90 118,96 118,68 " />
<polygon points="118,66 124,61 135,70 130,74 118,68 " />
<polygon points="76,86 124,86 124,90 76,90 " />
<polygon points="54,122 148,122 148,126 54,126 " />
<polygon points="148,122 124,124 136,112 " />
<polygon points="28,141 177,141 177,145 28,145 " />
<polygon points="177,141 153,143 165,131 " />
<polygon points="109,141 109,173 97,173 97,141 " />
<polygon points="109,173 106.6,176.6 103,179 99.4,176.6 97,173 " />
<polygon points="109,173 108.8,175.5 108.4,178 107.6,180.4 106.3,182.7 104.7,184.7 102.7,186.3 100.4,187.6 98,188.4 95.5,188.8 93,189 93,177 94.2,176.9 95.1,176.7 95.7,176.5 96,176.4 96.2,176.2 96.4,176 96.5,175.7 96.7,175.1 96.9,174.2 97,173 " />
<polygon points="93,183 93,177 73,177 73,180 " />
<polygon points="70.5,159.9 66.9,162.9 63,165.9 58.8,168.8 54.4,171.7 49.7,174.6 44.7,177.4 39.4,180.2 33.7,182.9 27.7,185.4 21.4,187.7 20.5,186.2 25.9,182.1 31,178.3 35.9,174.6 40.5,171.1 44.9,167.6 48.9,164.3 52.6,161 56.1,157.7 59.2,154.5 62,151.4 " />
<polygon points="62,151.4 70.5,159.9 62.3,151.1 " />
<polygon points="70.5,159.9 71.2,163.4 64.1,162 " />
<polygon points="132.2,153.4 137.4,154.5 142.5,155.8 147.3,157.5 152,159.5 156.3,161.8 160.5,164.3 164.5,167.1 168.2,170.1 171.7,173.4 175,177 165.3,184.2 163.1,180.8 160.6,177.6 157.9,174.5 154.9,171.5 151.6,168.6 148.1,165.8 144.4,163.1 140.4,160.4 136.1,157.7 131.6,155.1 " />
<polygon points="175,177 176,181.4 173.7,185.4 169.3,186.4 165.3,184.2 " />
</g>
</svg>
