<svg xmlns="http://www.w3.org/2000/svg" xmlns:xlink="http://www.w3.org/1999/xlink" version="1.1" baseProfile="full" viewBox="0 0 200 200" width="200" height="200">
<g fill="black">
<polygon points="38,118.2 38,175.5 26,181.5 26,112.2 " />
<polygon points="32,118.2 167,118.2 167,122.2 32,122.2 " />
<polygon points="173,120.2 173,168.5 161,168.5 161,120.2 " />
<polygon points="161,118.2 167,113.2 178,122.2 173,126.2 161,120.2 " />
<polygon points="173,168.5 170.6,172.1 167,174.5 163.4,172.1 161,168.5 " />
<polygon points="173,168.5 172.8,171.1 172.4,173.6 171.6,176 170.3,178.2 168.7,180.2 166.7,181.9 164.4,183.1 162,183.9 159.5,184.4 157,184.5 157,172.5 158.2,172.4 159.1,172.3 159.7,172.1 160,171.9 160.2,171.8 160.4,171.6 160.5,171.2 160.7,170.6 160.9,169.7 161,168.5 " />
<polygon points="157,178.5 157,172.5 137,172.5 137,175.5 " />
<polygon points="105.8,105.2 102.5,110.6 99.2,115.9 95.8,121.2 92.3,126.3 88.7,131.2 85,136.1 81.1,140.8 77.2,145.3 73,149.7 68.7,153.8 67.2,152.6 70,147.4 72.8,142.2 75.7,137.1 78.6,131.9 81.5,126.7 84.3,121.4 87.1,116 89.9,110.6 92.5,105.2 95.2,99.6 " />
<polygon points="94.7,100.5 105.8,105.2 95.7,98.6 " />
<polygon points="105.8,105.2 107.5,108.3 101.7,108.7 " />
<polygon points="56.3,148.2 64.2,147.7 72.2,147.2 80.3,146.8 88.5,146.4 96.8,146.1 105.2,145.8 113.8,145.7 122.4,145.6 131.1,145.8 139.9,146.3 140,148 131.3,149.6 122.7,151 114.2,152.2 105.9,153.4 97.6,154.5 89.4,155.6 81.3,156.8 73.3,157.9 65.4,159 57.6,160.2 " />
<polygon points="57.6,160.2 56.3,148.2 54.3,148.4 " />
<polygon points="57.6,160.2 59.9,162.9 63.2,156.5 " />
<polygon points="117.3,127.8 120.8,129.9 124.3,131.9 127.5,134 130.6,136.1 133.4,138.4 136,140.7 138.5,143 140.8,145.4 142.9,147.9 144.8,150.5 134.2,156.2 133.3,153.8 132.2,151.4 130.9,148.9 129.4,146.3 127.7,143.6 125.8,140.9 123.7,138.1 121.4,135.2 119,132.1 116.2,129.2 " />
<polygon points="144.8,150.5 145.2,155 142.4,158.6 137.8,159 134.2,156.2 " />
</g>
</svg>
