<svg xmlns="http://www.w3.org/2000/svg" xmlns:xlink="http://www.w3.org/1999/xlink" version="1.1" baseProfile="full" viewBox="0 0 200 200" width="200" height="200">
<g fill="black">
<polygon points="36,99 36,183 24,189 24,97 " />
<polygon points="36,99 39,101 36,103 " />
<polygon points="12,106 170,106 170,110 12,110 " />
<polygon points="176,108 176,173 164,173 164,108 " />
<polygon points="164,106 170,101 181,110 176,114 164,108 " />
<polygon points="176,173 173.6,176.6 170,179 166.4,176.6 164,173 " />
<polygon points="176,173 175.8,175.5 175.4,178 174.6,180.4 173.3,182.7 171.7,184.7 169.7,186.3 167.4,187.6 165,188.4 162.5,188.8 160,189 160,177 161.2,176.9 162.1,176.7 162.7,176.5 163,176.4 163.2,176.2 163.4,176 163.5,175.7 163.7,175.1 163.9,174.2 164,173 " />
<polygon points="160,183 160,177 140,177 140,180 " />
<polygon points="104.3,82.8 101.6,89.8 98.8,96.7 95.8,103.6 92.8,110.5 89.5,117.3 86.2,124.1 82.7,130.8 79,137.4 75,144 70.8,150.4 69.1,149.5 71.6,142.3 74.1,135.2 76.7,128.1 79.2,121.1 81.7,114.1 84.1,107 86.5,100 88.7,93 90.9,86 92.9,79 " />
<polygon points="92.9,79 104.3,82.8 93.4,77.5 " />
<polygon points="104.3,82.8 106.5,85.6 99.6,87.5 " />
<polygon points="50.1,146.9 57.5,146.2 65.1,145.4 72.9,144.6 81,143.8 89.3,143 97.9,142.1 106.7,141.2 115.8,140.4 125.2,139.6 134.8,139.1 135.1,140.8 125.8,143.4 116.7,145.7 107.7,147.7 99.1,149.6 90.6,151.4 82.4,153 74.4,154.6 66.6,156.1 59,157.4 51.7,158.8 " />
<polygon points="51.7,158.8 50.1,146.9 48.2,147.1 " />
<polygon points="51.7,158.8 54.1,161.5 57.3,155 " />
<polygon points="118.3,117.1 122.2,120 125.9,123.1 129.4,126.3 132.7,129.8 135.9,133.3 139,136.9 141.9,140.7 144.7,144.5 147.3,148.5 149.9,152.5 139.2,158.1 137.4,154 135.5,150 133.5,146 131.4,142.1 129.1,138.1 126.8,134.2 124.4,130.3 122,126.4 119.5,122.3 117,118.3 " />
<polygon points="149.9,152.5 150.2,157.1 147.3,160.6 142.8,161 139.2,158.1 " />
</g>
</svg>
