<svg xmlns="http://www.w3.org/2000/svg" xmlns:xlink="http://www.w3.org/1999/xlink" version="1.1" baseProfile="full" viewBox="0 0 200 200" width="200" height="200">
<g fill="black">
<polygon points="106,18 106,43 94,43 94,16 " />
<polygon points="106,18 109,20 106,22 " />
<polygon points="21,39 182,39 182,43 21,43 " />
<polygon points="182,39 158,41 170,29 " />
<polygon points="56,54 56,111 44,117 44,48 " />
<polygon points="50,54 150,54 150,58 50,58 " />
<polygon points="156,56 156,104 144,110 144,56 " />
<polygon points="144,54 150,49 161,58 156,62 144,56 " />
<polygon points="50,100 150,100 150,104 50,104 " />
<polygon points="81,67 81,88 69,94 69,61 " />
<polygon points="75,67 125,67 125,71 75,71 " />
<polygon points="131,69 131,88 119,94 119,69 " />
<polygon points="119,67 125,62 136,71 131,75 119,69 " />
<polygon points="75,84 125,84 125,88 75,88 " />
<polygon points="140.8,122 132.4,122.9 123.4,123.9 113.7,124.9 103.3,125.9 92.3,126.9 80.6,128 68.2,129.1 55.2,130.1 41.5,131.1 27.1,131.8 26.8,130.1 41,127.3 54.5,124.8 67.4,122.6 79.6,120.5 91.1,118.5 102.1,116.7 112.3,114.9 121.9,113.2 130.8,111.7 139.1,110.2 " />
<polygon points="139.1,110.2 140.8,122 150.6,120.6 " />
<polygon points="150.6,120.6 151,123.6 142.2,118.8 " />
<polygon points="19,140 181,140 181,144 19,144 " />
<polygon points="181,140 157,142 169,130 " />
<polygon points="106,126 106,185 94,191 94,124 " />
<polygon points="106,126 109,128 106,130 " />
<polygon points="100,142 95.2,146.2 88.3,152.2 81.1,157.9 73.4,163.1 65.4,168 57,172.4 48.2,176.4 39,180 29.5,183.2 19.5,185.8 9.2,187.8 8.7,186.1 18.4,182.2 27.6,178.2 36.5,174 44.9,169.6 52.9,165 60.5,160.1 67.7,154.9 74.4,149.5 80.8,143.7 82.4,142 " />
<polygon points="110.3,142 115.9,145.7 121.5,149.3 127.2,152.8 133.2,156.1 139.4,159.3 146,162.4 152.8,165.2 159.9,167.9 167.3,170.4 175,172.7 170.9,185.2 163,182.1 155.4,178.8 148.1,175.2 141.3,171.5 134.8,167.4 128.7,163.2 123,158.6 117.8,153.9 113.1,148.8 109,143.3 " />
<polygon points="170.9,185.2 175,172.7 182.5,175.1 " />
</g>
</svg>
