<svg xmlns="http://www.w3.org/2000/svg" xmlns:xlink="http://www.w3.org/1999/xlink" version="1.1" baseProfile="full" viewBox="0 0 200 200" width="200" height="200">
<g fill="black">
<polygon points="80,28.6 75.7,30.6 70.9,32.6 65.6,34.4 59.9,36.3 53.6,38.1 46.8,39.8 39.5,41.5 31.7,43.2 23.3,44.6 14.4,45.8 14,44.1 22.4,40.9 30.3,38 37.7,35.2 44.5,32.6 50.8,30.1 56.6,27.6 61.8,25.1 66.5,22.8 70.5,20.5 74,18.3 " />
<polygon points="74,18.3 80,28.6 81.8,27.6 " />
<polygon points="81.8,27.6 82,31 74.8,28.2 " />
<polygon points="12.3,74 85.5,74 85.5,78 12.3,78 " />
<polygon points="85.5,74 61.5,76 73.5,64 " />
<polygon points="56.3,33 56.3,183 44.3,189 44.3,33 " />
<polygon points="53.5,76 53.3,77.1 50.9,86.9 48.2,96.4 45.1,105.5 41.6,114.4 37.8,122.9 33.7,131 29.1,138.8 24.2,146.1 18.8,153.1 13,159.5 11.6,158.4 15.7,150.9 19.6,143.4 23.3,135.6 26.8,127.7 30,119.5 32.9,111.1 35.5,102.5 37.8,93.5 39.8,84.3 41.3,76 " />
<polygon points="53.5,97.5 57.1,98.7 60.7,99.7 64.1,101 67.4,102.5 70.5,104.1 73.5,106 76.3,108 79,110.2 81.5,112.5 83.9,115.1 74.1,121.9 72.8,119.5 71.3,117.2 69.6,114.8 67.8,112.5 65.8,110.2 63.6,108 61.2,105.7 58.6,103.5 55.8,101.2 52.7,99.2 " />
<polygon points="83.9,115.1 84.8,119.5 82.4,123.4 77.9,124.3 74.1,121.9 " />
<polygon points="85,42 186,42 186,46 85,46 " />
<polygon points="186,42 162,44 174,32 " />
<polygon points="134.6,19.3 131.5,29.7 127.7,39.6 123.2,48.9 118,57.5 112,65.5 105.5,72.8 98.2,79.4 90.3,85.4 81.6,90.5 72.4,94.7 71.5,93.2 79.6,87.3 87,81.1 93.7,74.6 99.8,67.7 105.2,60.4 110,52.6 114.2,44.4 117.7,35.6 120.6,26.4 122.9,16.6 " />
<polygon points="122.9,16.6 134.6,19.3 123.3,14.8 " />
<polygon points="134.6,19.3 137.1,21.9 130.3,24.4 " />
<polygon points="142,47 142,63 130,63 130,45 " />
<polygon points="142,47 145,49 142,51 " />
<polygon points="142,63 139.6,66.6 136,69 132.4,66.6 130,63 " />
<polygon points="142,63 142,64.2 142.2,65.1 142.4,65.7 142.5,66 142.7,66.2 142.9,66.4 143.2,66.5 143.8,66.7 144.7,66.9 146,67 146,79 143.4,78.8 140.9,78.4 138.5,77.6 136.2,76.3 134.2,74.7 132.6,72.7 131.3,70.4 130.5,68 130.1,65.5 130,63 " />
<polygon points="146,67 150.2,68.8 152,73 150.2,77.2 146,79 " />
<polygon points="146,67 177,67 177,79 146,79 " />
<polygon points="177,67 180.6,69.4 183,73 180.6,76.6 177,79 " />
<polygon points="171,68 177,42 179,42 177,68 " />
<polygon points="141.3,16.6 144.2,17.9 147.2,18.9 150,20 152.6,21.3 155.1,22.6 157.4,24.2 159.5,25.8 161.5,27.6 163.3,29.5 165,31.6 154.2,37 153.8,35.3 153.2,33.6 152.4,31.9 151.4,30 150.1,28.1 148.6,26.2 146.9,24.2 145,22.1 143,20 140.4,18.2 " />
<polygon points="165,31.6 165.2,36.1 162.3,39.6 157.7,39.9 154.2,37 " />
<polygon points="164.7,94 158.4,95.4 152.1,96.7 145.8,97.9 139.3,99 132.8,99.9 126.2,100.7 119.5,101.4 112.8,101.8 106,102 99.1,101.8 98.8,100.1 105.5,98.2 112,96.5 118.5,94.9 124.8,93.3 131.1,91.6 137.3,89.9 143.5,88.1 149.5,86.3 155.5,84.4 161.3,82.5 " />
<polygon points="161.3,82.5 164.7,94 171.4,92 " />
<polygon points="171.4,92 171.7,95.1 163.5,91.2 " />
<polygon points="103,80 103,107 91,107 91,78 " />
<polygon points="103,80 106,82 103,84 " />
<polygon points="103,107 100.6,110.6 97,113 93.4,110.6 91,107 " />
<polygon points="103,107 103,108.2 103.2,109.1 103.4,109.7 103.5,110 103.7,110.2 103.9,110.4 104.2,110.5 104.8,110.7 105.7,110.9 107,111 107,123 104.4,122.8 101.9,122.4 99.5,121.6 97.2,120.3 95.2,118.7 93.6,116.7 92.3,114.4 91.5,112 91.1,109.5 91,107 " />
<polygon points="107,111 111.2,112.8 113,117 111.2,121.2 107,123 " />
<polygon points="107,111 177,111 177,123 107,123 " />
<polygon points="177,111 180.6,113.4 183,117 180.6,120.6 177,123 " />
<polygon points="171,112 177,86 179,86 177,112 " />
<polygon points="104,133 104,183 92,189 92,127 " />
<polygon points="98,133 171,133 171,137 98,137 " />
<polygon points="177,135 177,180 165,186 165,135 " />
<polygon points="165,133 171,128 182,137 177,141 165,135 " />
<polygon points="98,152 171,152 171,156 98,156 " />
<polygon points="98,172 171,172 171,176 98,176 " />
</g>
</svg>
