<svg xmlns="http://www.w3.org/2000/svg" xmlns:xlink="http://www.w3.org/1999/xlink" version="1.1" baseProfile="full" viewBox="0 0 200 200" width="200" height="200">
<g fill="black">
<polygon points="106,22.2 106,56.9 94,56.9 94,20.2 " />
<polygon points="106,22.2 109,24.2 106,26.2 " />
<polygon points="37.2,43.8 38.3,48.8 39.2,53.7 39.7,58.3 39.8,62.9 39.5,67.2 38.9,71.4 38,75.4 36.6,79.3 34.9,83 32.8,86.4 23.5,78.8 25.5,76.7 27.3,74.4 28.9,71.8 30.4,68.8 31.7,65.6 32.8,61.9 33.8,58 34.5,53.7 35.2,49 35.5,44 " />
<polygon points="32.8,86.4 28.7,88.5 24.3,87.2 22.2,83.2 23.5,78.8 " />
<polygon points="34.4,52.9 170,52.9 170,56.9 34.4,56.9 " />
<polygon points="175.4,57.5 174,59.5 172.5,61.6 170.8,63.9 168.9,66.5 166.8,69.3 164.6,72.2 162.1,75.4 159.4,78.8 156.4,82.3 153.5,86.2 152,85.3 153.9,80.9 155.6,76.6 157.2,72.6 158.6,68.9 160,65.4 161.2,62.3 162.3,59.4 163.2,56.8 164,54.4 164.6,52.3 " />
<polygon points="164,52.9 170,47.9 181,56.9 176,60.9 170,60.9 " />
<polygon points="81.7,87.1 78.7,98.4 75.1,109.2 70.7,119.6 65.6,129.5 59.8,138.9 53.2,147.8 45.9,156.2 37.8,164 29,171.2 19.5,177.7 18.4,176.2 26.5,168.3 34,160.2 40.9,151.9 47.1,143.3 52.6,134.4 57.4,125.2 61.5,115.7 65,105.8 67.7,95.5 69.9,84.8 " />
<polygon points="69.9,84.8 81.7,87.1 70.2,82.9 " />
<polygon points="81.7,87.1 84.2,89.6 77.6,92.4 " />
<polygon points="120.1,80.7 124.4,91.2 128.9,101.3 133.7,110.8 138.9,119.7 144.4,128.2 150.5,136.1 156.9,143.5 163.8,150.4 171.1,156.8 178.9,162.7 171,173.2 162.9,166.2 155.4,158.7 148.5,150.7 142.2,142.2 136.6,133.2 131.5,123.7 127.1,113.8 123.4,103.4 120.4,92.5 118.3,81.1 " />
<polygon points="171,173.2 178.9,162.7 181.9,164.9 " />
</g>
</svg>
