<svg xmlns="http://www.w3.org/2000/svg" xmlns:xlink="http://www.w3.org/1999/xlink" version="1.1" baseProfile="full" viewBox="0 0 200 200" width="200" height="200">
<g fill="black">
<polygon points="82.6,11 86.2,12.2 89.8,13.2 93.1,14.5 96.3,15.9 99.2,17.6 101.9,19.5 104.4,21.6 106.6,23.9 108.6,26.4 110.3,29.2 99.1,33.6 98.7,31.6 98,29.6 97,27.6 95.7,25.5 94.2,23.3 92.4,21.2 90.2,19 87.8,16.8 85.1,14.6 81.9,12.7 " />
<polygon points="110.3,29.2 110.2,33.8 106.9,37 102.3,36.9 99.1,33.6 " />
<polygon points="31.4,32.7 32.3,37 33.2,41.1 33.7,45.2 33.8,49.1 33.5,52.9 32.8,56.7 31.7,60.3 30.1,63.7 28.2,67 25.9,70.1 17.6,61.4 19.6,59.8 21.4,58 23.1,55.9 24.6,53.6 25.9,50.9 27.1,48 28.1,44.7 28.8,41.1 29.5,37.2 29.6,32.9 " />
<polygon points="25.9,70.1 21.6,71.7 17.4,69.9 15.8,65.6 17.6,61.4 " />
<polygon points="28.4,40.1 174.4,40.1 174.4,44.1 28.4,44.1 " />
<polygon points="179.5,45.2 178.1,46.8 176.4,48.6 174.6,50.6 172.6,52.7 170.5,55 168.1,57.5 165.5,60.1 162.6,62.9 159.5,65.8 156.5,69.1 155.1,68 157.3,64.2 159.2,60.4 161,56.8 162.6,53.6 164.2,50.6 165.5,47.8 166.7,45.2 167.8,42.9 168.6,40.8 169.3,39 " />
<polygon points="168.4,40.1 174.4,35.1 185.4,44.1 180.4,48.1 174.4,48.1 " />
<polygon points="88,63.5 82.8,69.2 77.4,74.8 71.8,80.1 65.9,85.3 59.8,90.3 53.5,95.1 46.9,99.7 40,104 32.9,108.1 25.4,111.7 24.5,110.2 30.8,104.9 36.9,99.7 42.9,94.5 48.7,89.3 54.2,84 59.6,78.6 64.7,73.1 69.6,67.5 74.2,61.8 78.6,56 " />
<polygon points="78.6,56 88,63.5 79.1,55.5 " />
<polygon points="88,63.5 89.1,66.9 81.9,66.3 " />
<polygon points="113.3,56.6 120.1,59.2 126.6,62.3 132.7,65.8 138.6,69.8 144.2,74.1 149.5,78.7 154.4,83.6 159.1,88.9 163.5,94.4 167.6,100.3 157.3,106.4 154.1,100.8 150.6,95.4 146.8,90.1 142.8,85.1 138.4,80.3 133.8,75.6 128.8,71.1 123.6,66.8 118.2,62.5 112.4,58.2 " />
<polygon points="167.6,100.3 168.2,104.8 165.5,108.5 161,109.1 157.3,106.4 " />
</g>
</svg>
