<svg xmlns="http://www.w3.org/2000/svg" xmlns:xlink="http://www.w3.org/1999/xlink" version="1.1" baseProfile="full" viewBox="0 0 200 200" width="200" height="200">
<g fill="black">
<path d="M 15.3 102.8 L 14.6 101.1 L 21.5 96.8 L 27.9 92.6 L 33.9 88.5 L 39.5 84.4 L 44.5 80.3 L 49.1 76.1 L 53.1 72 L 56.7 67.8 L 59.8 63.7 L 61.9 60.3 L 61.8 60.3 L 62.9 58.7 L 72.4 66.1 L 73.8 69.4 L 69.9 69.3 L 68.8 70.7 L 64.7 75.1 L 60.1 79.2 L 55.1 83.2 L 49.6 87.1 L 43.7 90.7 L 37.3 94.1 L 30.5 97.3 L 23.2 100.2 Z M 174.7 101.1 L 168.6 98.4 L 162.8 95.3 L 157.3 92 L 152 88.3 L 147.1 84.4 L 142.5 80.2 L 138.2 75.7 L 134.2 70.9 L 130.8 65.8 L 128.2 61 L 78 61 L 78 57 L 114 57 L 124 47 L 136 57 L 136 61 L 131.4 61 L 133.9 63.1 L 138.5 66.9 L 143.1 70.4 L 147.8 73.8 L 152.6 76.9 L 157.6 79.7 L 162.7 82.4 L 168 84.7 L 173.5 86.9 L 179.2 88.8 L 186.2 91.3 Z M 17.2 75 L 13.4 72.5 L 12.7 68 L 15.2 64.2 L 17.2 63.1 L 19.2 61.5 L 21.1 59.5 L 22.8 56.9 L 24.5 53.8 L 26 50.1 L 27.3 45.8 L 28.4 41 L 29.4 35.6 L 30.1 29.7 L 31.9 29.7 L 32.7 35.7 L 33 39.6 L 94 39.6 L 94 14 L 106 16 L 109 18 L 106 19.8 L 106 39.6 L 170 39.6 L 170.6 39.1 L 170.8 38.6 L 171 38.7 L 176 34.6 L 187 43.6 L 182 46.6 L 178.2 48.2 L 177.6 48.9 L 175.6 51.1 L 173.4 53.5 L 171.1 55.9 L 168.6 58.5 L 165.9 61.1 L 162.9 63.9 L 159.8 66.6 L 156.6 69.7 L 155.3 68.6 L 157.6 64.9 L 159.5 61.2 L 161.4 57.7 L 163.2 54.4 L 164.8 51.4 L 166.3 48.5 L 167.7 45.7 L 168.7 43.6 L 33.2 43.6 L 33.3 46.6 L 32.9 51.6 L 32.2 56.2 L 31.1 60.5 L 29.5 64.5 L 27.4 68.2 L 24.8 71.5 L 21.7 74.3 Z " />
</g>
</svg>
