<svg xmlns="http://www.w3.org/2000/svg" xmlns:xlink="http://www.w3.org/1999/xlink" version="1.1" baseProfile="full" viewBox="0 0 200 200" width="200" height="200">
<g fill="black">
<polygon points="106,16 106,42 94,42 94,14 " />
<polygon points="106,16 109,18 104,21 " />
<polygon points="31.9,29.7 32.7,35.7 33.2,41.3 33.3,46.6 32.9,51.6 32.2,56.2 31.1,60.5 29.5,64.5 27.4,68.2 24.8,71.5 21.7,74.3 15.2,64.2 17.2,63.1 19.2,61.5 21.1,59.5 22.8,56.9 24.5,53.8 26,50.1 27.3,45.8 28.4,41 29.4,35.6 30.1,29.7 " />
<polygon points="21.7,74.3 17.2,75 13.4,72.5 12.7,68 15.2,64.2 " />
<polygon points="32,39.6 176,39.6 176,43.6 32,43.6 " />
<polygon points="181.1,44.6 179.4,46.7 177.6,48.9 175.6,51.1 173.4,53.5 171.1,55.9 168.6,58.5 165.9,61.1 162.9,63.9 159.8,66.6 156.6,69.7 155.3,68.6 157.6,64.9 159.5,61.2 161.4,57.7 163.2,54.4 164.8,51.4 166.3,48.5 167.7,45.7 168.9,43.2 169.9,40.8 170.8,38.6 " />
<polygon points="170,39.6 176,34.6 187,43.6 182,46.6 170,51.6 " />
<polygon points="85.5,52.5 82.3,60.6 78.3,68.1 73.2,74.9 67.3,81 60.5,86.3 52.8,90.9 44.4,94.8 35.1,98 25,100.3 14.1,101.8 13.8,100.1 24,96.6 33.3,92.9 41.6,88.8 48.9,84.4 55.3,79.6 60.8,74.3 65.3,68.7 69,62.7 71.8,56.2 73.9,49.3 " />
<polygon points="73.6,50.3 85.5,52.5 74.4,47.7 " />
<polygon points="85.5,52.5 87.8,55.2 82.2,56.8 " />
<polygon points="126,50 126,76 114,76 114,48 " />
<polygon points="126,50 129,52 124,55 " />
<polygon points="126,76 123.6,79.6 120,82 116.4,79.6 114,76 " />
<polygon points="126,76 126,77.2 126.2,78.1 126.4,78.7 126.5,79 126.7,79.2 126.9,79.4 127.2,79.5 127.8,79.7 128.7,79.9 130,80 130,92 127.4,91.8 124.9,91.4 122.5,90.6 120.2,89.3 118.2,87.7 116.6,85.7 115.3,83.4 114.5,81 114.1,78.5 114,76 " />
<polygon points="130,80 134.2,81.8 136,86 134.2,90.2 130,92 " />
<polygon points="130,80 178,80 178,92 130,92 " />
<polygon points="178,80 181.6,82.4 184,86 181.6,89.6 178,92 " />
<polygon points="172,81 178,55 180,55 178,81 " />
</g>
</svg>
