<svg xmlns="http://www.w3.org/2000/svg" xmlns:xlink="http://www.w3.org/1999/xlink" version="1.1" baseProfile="full" viewBox="0 0 200 200" width="200" height="200">
<g fill="black">
<polygon points="54.5,17.8 52.2,25.2 49.5,32.4 46.3,39.4 42.8,46.1 38.8,52.6 34.4,58.8 29.7,64.8 24.4,70.5 18.8,75.8 12.6,80.7 11.3,79.4 16,73.2 20.3,67 24.4,60.9 28.1,54.7 31.5,48.3 34.5,41.9 37.1,35.4 39.4,28.7 41.3,21.9 42.9,15 " />
<polygon points="42.6,16 54.5,17.8 43.3,13.2 " />
<polygon points="54.5,17.8 57,20.4 51.4,22.2 " />
<polygon points="42,38 106,38 106,42 42,42 " />
<polygon points="106,38 82,40 94,28 " />
<polygon points="49.3,39.7 53.3,41.6 57.3,43.4 60.9,45.4 64.4,47.7 67.5,50.1 70.4,52.8 73.1,55.6 75.5,58.6 77.6,61.7 79.5,65.1 68.3,69.4 67.5,66.6 66.5,63.9 65.2,61.1 63.6,58.3 61.8,55.5 59.7,52.7 57.3,49.9 54.6,47 51.7,44 48.4,41.3 " />
<polygon points="79.5,65.1 79.3,69.6 76,72.8 71.5,72.6 68.3,69.4 " />
<polygon points="133.5,17.8 131.2,25.1 128.5,32 125.3,38.7 121.7,45 117.7,51.1 113.4,56.9 108.6,62.3 103.3,67.4 97.7,72 91.5,76.2 90.4,74.8 95,69.3 99.4,63.7 103.5,58.1 107.2,52.5 110.5,46.6 113.5,40.7 116.2,34.5 118.4,28.2 120.3,21.7 121.9,15 " />
<polygon points="121.6,15.9 133.5,17.8 122.3,13.2 " />
<polygon points="133.5,17.8 136,20.5 130.4,22.2 " />
<polygon points="120,38 186,38 186,42 120,42 " />
<polygon points="186,38 162,40 174,28 " />
<polygon points="128.3,39.7 132.3,41.6 136.3,43.4 139.9,45.4 143.4,47.7 146.5,50.1 149.4,52.8 152.1,55.6 154.5,58.6 156.6,61.7 158.5,65.1 147.3,69.4 146.5,66.6 145.5,63.9 144.2,61.1 142.6,58.3 140.8,55.5 138.7,52.7 136.3,49.9 133.6,47 130.7,44 127.4,41.3 " />
<polygon points="158.5,65.1 158.3,69.6 155,72.8 150.5,72.6 147.3,69.4 " />
<polygon points="16,95 87,95 87,99 16,99 " />
<polygon points="87,95 63,97 75,85 " />
<polygon points="58,95 58,157 46,157 46,95 " />
<polygon points="15.1,162.9 20.9,161.4 27,159.8 33.3,158 39.9,156.1 46.8,154.1 53.9,152 61.4,149.8 69.1,147.5 77.2,145.3 85.6,143.1 86.3,144.8 78.6,148.8 71,152.6 63.7,156 56.5,159.1 49.6,162.1 42.9,164.9 36.5,167.5 30.3,170 24.4,172.3 18.7,174.4 " />
<polygon points="18.7,174.4 15.1,162.9 13.2,163.5 " />
<polygon points="18.7,174.4 21.5,176.7 23.5,169.7 " />
<polygon points="108,86 108,128 96,128 96,80 " />
<polygon points="108,128 105.6,131.6 102,134 98.4,131.6 96,128 " />
<polygon points="108,128 107.1,137.3 105.1,146.1 102.1,154.2 97.9,161.6 92.7,168.2 86.5,174 79.3,179 71.2,183.1 62.2,186.4 52.2,188.8 51.7,187.1 60.7,182.9 68.7,178.4 75.6,173.5 81.4,168.3 86.2,162.7 90,156.7 92.8,150.3 94.8,143.4 95.8,136 96,128 " />
<polygon points="102,86 154,86 154,90 102,90 " />
<polygon points="160,88 160,166 148,166 148,88 " />
<polygon points="148,86 154,81 165,90 160,94 148,88 " />
<polygon points="160,166 157.6,169.6 154,172 150.4,169.6 148,166 " />
<polygon points="160,166 160,167.2 160.2,168.1 160.4,168.7 160.5,169 160.7,169.2 160.9,169.4 161.2,169.5 161.8,169.7 162.7,169.9 164,170 164,182 161.4,181.8 158.9,181.4 156.5,180.6 154.2,179.3 152.2,177.7 150.6,175.7 149.3,173.4 148.5,171 148.1,168.5 148,166 " />
<polygon points="164,170 168.2,171.8 170,176 168.2,180.2 164,182 " />
<polygon points="164,170 184,170 184,182 164,182 " />
<polygon points="184,170 187.6,172.4 190,176 187.6,179.6 184,182 " />
<polygon points="178,171 184,145 186,145 184,171 " />
<polygon points="108.3,116.7 112.1,118.4 116,120 119.6,121.9 122.9,124.1 126.1,126.4 129.1,128.9 131.9,131.5 134.5,134.4 136.8,137.4 139,140.6 128.2,146 127.1,143.1 125.8,140.3 124.3,137.5 122.5,134.7 120.5,131.9 118.4,129.2 116,126.4 113.3,123.7 110.5,120.8 107.4,118.2 " />
<polygon points="139,140.6 139.2,145.1 136.3,148.6 131.7,148.9 128.2,146 " />
</g>
</svg>
