<svg xmlns="http://www.w3.org/2000/svg" xmlns:xlink="http://www.w3.org/1999/xlink" version="1.1" baseProfile="full" viewBox="0 0 200 200" width="200" height="200">
<g fill="black">
<polygon points="53.1,18.5 50.4,23.7 47.4,28.8 44.1,33.7 40.6,38.3 36.7,42.8 32.5,47 28,51 23.2,54.8 18,58.2 12.5,61.3 11.4,59.8 15.6,55.3 19.6,50.8 23.3,46.4 26.8,42 30,37.5 33,32.9 35.7,28.3 38.1,23.6 40.2,18.8 42,13.9 " />
<polygon points="41.6,14.8 53.1,18.5 42.6,12.6 " />
<polygon points="53.1,18.5 55.1,21.5 49.4,22.3 " />
<polygon points="37,32.6 103,32.6 103,36.6 37,36.6 " />
<polygon points="103,32.6 79,34.6 91,22.6 " />
<polygon points="48.2,35.4 51.8,36.2 55.4,36.9 58.7,37.9 61.8,39.1 64.6,40.5 67.2,42.3 69.6,44.3 71.7,46.6 73.5,49.2 74.9,52.1 63.4,55.2 63.2,53.5 62.8,51.8 62.2,50 61.2,48.2 59.9,46.3 58.2,44.4 56.1,42.5 53.7,40.6 50.9,38.6 47.6,37.1 " />
<polygon points="74.9,52.1 74.3,56.6 70.7,59.5 66.2,58.8 63.4,55.2 " />
<polygon points="135.1,18.5 132.4,23.7 129.4,28.8 126.1,33.7 122.6,38.3 118.7,42.8 114.5,47 110,51 105.2,54.8 100,58.2 94.5,61.3 93.4,59.8 97.6,55.3 101.6,50.8 105.3,46.4 108.8,42 112,37.5 115,32.9 117.7,28.3 120.1,23.6 122.2,18.8 124,13.9 " />
<polygon points="123.6,14.8 135.1,18.5 124.6,12.6 " />
<polygon points="135.1,18.5 137.1,21.5 131.4,22.3 " />
<polygon points="119,32.6 187,32.6 187,36.6 119,36.6 " />
<polygon points="187,32.6 163,34.6 175,22.6 " />
<polygon points="134.2,35.3 138,36.2 141.7,36.9 145.2,37.8 148.4,39 151.3,40.5 154,42.2 156.5,44.2 158.7,46.5 160.5,49.2 161.9,52.1 150.4,55.2 150.2,53.6 149.8,51.9 149.1,50.1 148.1,48.3 146.7,46.4 144.9,44.5 142.7,42.5 140.1,40.6 137.1,38.6 133.6,37.1 " />
<polygon points="161.9,52.1 161.3,56.6 157.7,59.5 153.2,58.8 150.4,55.2 " />
<polygon points="54.7,59.7 54.7,112 42.7,118 42.7,53.7 " />
<polygon points="48.7,59.7 151.3,59.7 151.3,63.7 48.7,63.7 " />
<polygon points="157.3,61.7 157.3,112 145.3,118 145.3,61.7 " />
<polygon points="145.3,59.7 151.3,54.7 162.3,63.7 157.3,67.7 145.3,61.7 " />
<polygon points="48.7,75.8 151.3,75.8 151.3,79.8 48.7,79.8 " />
<polygon points="48.7,91.2 151.3,91.2 151.3,95.2 48.7,95.2 " />
<polygon points="48.7,108 151.3,108 151.3,112 48.7,112 " />
<polygon points="17,125.9 183,125.9 183,129.9 17,129.9 " />
<polygon points="183,125.9 159,127.9 171,115.9 " />
<polygon points="102.4,114.1 96.6,121.4 90,128.4 82.8,134.9 74.8,141.1 66.2,146.9 56.8,152.2 46.8,157.2 36,161.7 24.5,165.7 12.2,169.2 11.7,167.5 23.1,162.2 33.8,156.8 43.8,151.3 53,145.7 61.4,139.8 69.1,133.8 76.1,127.5 82.3,121 87.7,114.3 92.4,107.4 " />
<polygon points="91.9,108.2 102.4,114.1 92.9,106.6 " />
<polygon points="102.4,114.1 103.8,117.4 97.9,117.1 " />
<polygon points="118.3,127.9 124.3,131.4 130.3,134.8 136.3,138.1 142.4,141.3 148.6,144.1 154.9,146.8 161.4,149.2 168,151.4 174.8,153.4 181.7,155.1 178.2,167.8 170.9,165.3 163.9,162.5 157.1,159.4 150.5,156.1 144.2,152.4 138.1,148.5 132.4,144.2 126.9,139.6 121.8,134.7 117.1,129.2 " />
<polygon points="178.2,167.8 181.7,155.1 189.9,157.4 " />
<polygon points="107.7,140.6 104.6,144.8 101.3,148.9 97.9,153 94.4,157.1 90.8,161.2 87,165.2 83.1,169.1 79,173 74.7,176.7 70.1,180.3 68.7,179.1 71.8,174.2 74.9,169.5 78.1,164.9 81.1,160.4 84.1,155.9 87,151.5 89.8,147.1 92.5,142.8 95.1,138.4 97.6,134.1 " />
<polygon points="97.1,134.9 107.7,140.6 98.1,133.3 " />
<polygon points="107.7,140.6 109.1,143.9 103.3,143.7 " />
<polygon points="53.6,175 60.7,174.7 68.1,174.4 75.7,174.1 83.6,173.8 91.7,173.5 100.1,173.2 108.7,173 117.6,172.8 126.8,172.8 136.3,173 136.4,174.8 127.1,176.6 118.1,178.2 109.3,179.5 100.7,180.8 92.4,181.9 84.4,183 76.6,184.1 69,185.1 61.7,186 54.7,186.9 " />
<polygon points="54.7,186.9 53.6,175 51.6,175.2 " />
<polygon points="54.7,186.9 56.9,189.8 60.4,183.4 " />
<polygon points="116.9,160 120.9,161.8 124.9,163.4 128.7,165.2 132.2,166.9 135.5,168.7 138.6,170.6 141.5,172.4 144.3,174.3 146.8,176.2 149.2,178.2 140.3,186.2 138.8,184.2 137.2,182 135.3,179.7 133.1,177.4 130.8,175 128.2,172.5 125.5,169.9 122.5,167.2 119.4,164.3 116,161.6 " />
<polygon points="149.2,178.2 150.7,182.5 148.8,186.7 144.4,188.2 140.3,186.2 " />
</g>
</svg>
