<svg xmlns="http://www.w3.org/2000/svg" xmlns:xlink="http://www.w3.org/1999/xlink" version="1.1" baseProfile="full" viewBox="0 0 200 200" width="200" height="200">
<g fill="black">
<polygon points="54.4,23.3 52.1,29.4 49.3,35.3 46.1,41 42.6,46.5 38.6,51.8 34.2,56.8 29.5,61.7 24.3,66.2 18.6,70.4 12.5,74.2 11.4,72.8 16.1,67.5 20.5,62.4 24.6,57.2 28.3,52.1 31.7,46.9 34.7,41.6 37.3,36.3 39.5,30.9 41.4,25.4 42.9,19.9 " />
<polygon points="42.6,20.8 54.4,23.3 43.4,18.3 " />
<polygon points="54.4,23.3 56.7,26 51.1,27.5 " />
<polygon points="42,38.7 106,38.7 106,42.7 42,42.7 " />
<polygon points="106,38.7 82,40.7 94,28.7 " />
<polygon points="49.2,40.4 53.2,41.8 57.1,43.1 60.7,44.7 64,46.4 67.1,48.2 70,50.2 72.7,52.4 75.1,54.8 77.2,57.3 79.1,60 68.2,65.2 67.6,63.1 66.6,60.9 65.4,58.7 63.9,56.4 62.1,54.1 60,51.7 57.6,49.3 54.9,46.8 51.9,44.3 48.5,42 " />
<polygon points="79.1,60 79.3,64.6 76.2,68 71.7,68.2 68.2,65.2 " />
<polygon points="133.4,23.3 131.5,28.1 129.2,32.7 126.6,37.1 123.6,41.4 120.2,45.4 116.6,49.2 112.6,52.7 108.3,56 103.6,59 98.5,61.6 97.4,60.1 101.2,56 104.7,52.1 108,48.1 110.9,44.2 113.5,40.3 115.8,36.3 117.8,32.3 119.5,28.2 120.8,24.1 121.9,19.9 " />
<polygon points="121.6,20.8 133.4,23.3 122.4,18.3 " />
<polygon points="133.4,23.3 135.7,26 130.1,27.5 " />
<polygon points="120,38.7 186,38.7 186,42.7 120,42.7 " />
<polygon points="186,38.7 162,40.7 174,28.7 " />
<polygon points="128.2,40.4 132.2,41.8 136.1,43.1 139.7,44.7 143,46.4 146.1,48.2 149,50.2 151.7,52.4 154.1,54.8 156.2,57.3 158.1,60 147.2,65.2 146.6,63.1 145.6,60.9 144.4,58.7 142.9,56.4 141.1,54.1 139,51.7 136.6,49.3 133.9,46.8 130.9,44.3 127.5,42 " />
<polygon points="158.1,60 158.3,64.6 155.2,68 150.7,68.2 147.2,65.2 " />
<polygon points="21,78 180,78 180,82 21,82 " />
<polygon points="180,78 160,80 170,69 " />
<polygon points="105,59 105,82 93,82 93,57 " />
<polygon points="105,59 108,61 103,64 " />
<polygon points="65,94 65,133 53,133 53,94 " />
<polygon points="30,94 170,94 170,98 30,98 " />
<polygon points="170,94 150,96 160,85 " />
<polygon points="146,94 146,133 134,133 134,94 " />
<polygon points="30,129 170,129 170,133 30,133 " />
<polygon points="170,129 150,131 160,120 " />
<polygon points="111.3,131 102.2,136 96,139.4 89.3,142.8 82.1,146 74.4,149.1 66.3,152.1 57.7,155 48.6,157.8 39,160.4 28.9,162.7 18.2,164.8 17.7,163.1 27.7,159.1 37.3,155.3 46.4,151.6 55,147.9 63.1,144.3 70.7,140.6 77.7,137 84.2,133.3 87.9,131 " />
<polygon points="74,149 74,176 62,176 62,147 " />
<polygon points="74,149 77,151 72,154 " />
<polygon points="30.2,175.9 38.1,175.2 46.1,174.4 54.3,173.6 62.6,172.8 71.1,172 79.7,171.1 88.5,170.2 97.4,169.4 106.5,168.6 115.8,168.1 116.1,169.8 107.1,172.4 98.3,174.7 89.5,176.7 80.9,178.6 72.3,180.4 63.9,182 55.7,183.6 47.5,185.1 39.6,186.5 31.7,187.8 " />
<polygon points="31.7,187.8 30.2,175.9 28.2,176.1 " />
<polygon points="31.7,187.8 34,190.5 37.3,184.1 " />
<polygon points="165.1,143.2 162,145.2 158.8,147.3 155.5,149.3 152.1,151.3 148.5,153.2 144.8,155.1 140.9,156.9 136.9,158.6 132.7,160.1 128.4,161.7 127.5,160.2 131.1,157.4 134.5,154.5 137.8,151.8 141,149.1 144,146.5 147,144 149.7,141.4 152.4,139 154.9,136.5 157.3,134 " />
<polygon points="156.5,134.7 165.1,143.2 157.4,133.9 " />
<polygon points="165.1,143.2 165.5,146.7 160,144.9 " />
<polygon points="100.2,131.4 105.6,137.8 111.2,143.8 117.1,149.3 123.5,154.3 130.4,158.8 137.9,162.9 145.9,166.5 154.5,169.6 163.6,172.3 173.4,174.5 170.5,187.4 160.1,184.3 150.3,180.7 141.3,176.5 132.9,171.8 125.2,166.5 118.2,160.7 112,154.4 106.6,147.6 102.1,140.2 98.6,132.3 " />
<polygon points="170.5,187.4 173.4,174.5 182.2,176.5 " />
<polygon points="16,112 184,112 184,116 16,116 " />
<polygon points="184,112 164,114 174,103 " />
</g>
</svg>
