<svg xmlns="http://www.w3.org/2000/svg" xmlns:xlink="http://www.w3.org/1999/xlink" version="1.1" baseProfile="full" viewBox="0 0 200 200" width="200" height="200">
<g fill="black">
<polygon points="53.1,18.5 50.4,23.7 47.4,28.8 44.1,33.7 40.6,38.3 36.7,42.8 32.5,47 28,51 23.2,54.8 18,58.2 12.5,61.3 11.4,59.8 15.6,55.3 19.6,50.8 23.3,46.4 26.8,42 30,37.5 33,32.9 35.7,28.3 38.1,23.6 40.2,18.8 42,13.9 " />
<polygon points="41.6,14.8 53.1,18.5 42.6,12.6 " />
<polygon points="53.1,18.5 55.1,21.5 49.4,22.3 " />
<polygon points="37,32.6 103,32.6 103,36.6 37,36.6 " />
<polygon points="103,32.6 79,34.6 91,22.6 " />
<polygon points="48.2,35.4 51.8,36.2 55.4,36.9 58.7,37.9 61.8,39.1 64.6,40.5 67.2,42.3 69.6,44.3 71.7,46.6 73.5,49.2 74.9,52.1 63.4,55.2 63.2,53.5 62.8,51.8 62.2,50 61.2,48.2 59.9,46.3 58.2,44.4 56.1,42.5 53.7,40.6 50.9,38.6 47.6,37.1 " />
<polygon points="74.9,52.1 74.3,56.6 70.7,59.5 66.2,58.8 63.4,55.2 " />
<polygon points="135.1,18.5 132.4,23.7 129.4,28.8 126.1,33.7 122.6,38.3 118.7,42.8 114.5,47 110,51 105.2,54.8 100,58.2 94.5,61.3 93.4,59.8 97.6,55.3 101.6,50.8 105.3,46.4 108.8,42 112,37.5 115,32.9 117.7,28.3 120.1,23.6 122.2,18.8 124,13.9 " />
<polygon points="123.6,14.8 135.1,18.5 124.6,12.6 " />
<polygon points="135.1,18.5 137.1,21.5 131.4,22.3 " />
<polygon points="119,32.6 187,32.6 187,36.6 119,36.6 " />
<polygon points="187,32.6 163,34.6 175,22.6 " />
<polygon points="134.2,35.3 138,36.2 141.7,36.9 145.2,37.8 148.4,39 151.3,40.5 154,42.2 156.5,44.2 158.7,46.5 160.5,49.2 161.9,52.1 150.4,55.2 150.2,53.6 149.8,51.9 149.1,50.1 148.1,48.3 146.7,46.4 144.9,44.5 142.7,42.5 140.1,40.6 137.1,38.6 133.6,37.1 " />
<polygon points="161.9,52.1 161.3,56.6 157.7,59.5 153.2,58.8 150.4,55.2 " />
<polygon points="54.7,59.7 54.7,112 42.7,118 42.7,53.7 " />
<polygon points="48.7,59.7 151.3,59.7 151.3,63.7 48.7,63.7 " />
<polygon points="157.3,61.7 157.3,112 145.3,118 145.3,61.7 " />
<polygon points="145.3,59.7 151.3,54.7 162.3,63.7 157.3,67.7 145.3,61.7 " />
<polygon points="48.7,75.8 151.3,75.8 151.3,79.8 48.7,79.8 " />
<polygon points="48.7,91.2 151.3,91.2 151.3,95.2 48.7,95.2 " />
<polygon points="48.7,108 151.3,108 151.3,112 48.7,112 " />
<polygon points="17,125.9 183,125.9 183,129.9 17,129.9 " />
<polygon points="183,125.9 159,127.9 171,115.9 " />
<polygon points="102.4,114.1 96.6,121.4 90,128.4 82.8,134.9 74.8,141.1 66.2,146.9 56.8,152.2 46.8,157.2 36,161.7 24.5,165.7 12.2,169.2 11.7,167.5 23.1,162.2 33.8,156.8 43.8,151.3 53,145.7 61.4,139.8 69.1,133.8 76.1,127.5 82.3,121 87.7,114.3 92.4,107.4 " />
<polygon points="91.9,108.2 102.4,114.1 92.9,106.6 " />
<polygon points="102.4,114.1 103.8,117.4 97.9,117.1 " />
<polygon points="118.3,127.9 124.3,131.4 130.3,134.8 136.3,138.1 142.4,141.3 148.6,144.1 154.9,146.8 161.4,149.2 168,151.4 174.8,153.4 181.7,155.1 178.2,167.8 170.9,165.3 163.9,162.5 157.1,159.4 150.5,156.1 144.2,152.4 138.1,148.5 132.4,144.2 126.9,139.6 121.8,134.7 117.1,129.2 " />
<polygon points="178.2,167.8 181.7,155.1 189.9,157.4 " />
<polygon points="87.8,147.6 83.5,152 78.9,156.2 74.2,160.2 69.3,164 64.2,167.7 58.9,171.2 53.3,174.5 47.6,177.6 41.6,180.3 35.4,182.7 34.5,181.2 39.7,177.1 44.7,173 49.6,169.1 54.4,165.1 58.9,161.1 63.3,157 67.4,152.8 71.4,148.5 75.2,144.2 78.8,139.8 " />
<polygon points="78.1,140.5 87.8,147.6 79.1,139.3 " />
<polygon points="87.8,147.6 88.8,151.1 83,150.1 " />
<polygon points="117.8,140.8 114.4,145 110.9,149.1 107.3,153.2 103.5,157.3 99.5,161.3 95.5,165.3 91.2,169.2 86.8,173.1 82.1,176.8 77.2,180.3 75.9,179.1 79.4,174.1 82.9,169.4 86.4,164.8 89.8,160.3 93.1,155.8 96.3,151.4 99.4,146.9 102.4,142.6 105.3,138.2 108,133.9 " />
<polygon points="107.4,134.7 117.8,140.8 108.5,133.2 " />
<polygon points="117.8,140.8 119.1,144.2 113.3,143.7 " />
<polygon points="59.4,175 67.1,174.7 75.2,174.4 83.5,174.1 92.1,173.8 101,173.5 110.2,173.2 119.6,173 129.3,172.8 139.3,172.8 149.6,173 149.8,174.8 139.6,176.6 129.7,178.2 120.1,179.5 110.7,180.8 101.7,181.9 92.8,183 84.3,184.1 76,185.1 68,186 60.3,187 " />
<polygon points="60.3,187 59.4,175 57.4,175.1 " />
<polygon points="60.3,187 62.5,189.8 66,183.5 " />
<polygon points="128.3,160 132.7,161.7 137,163.3 141.1,165 144.9,166.8 148.5,168.6 151.8,170.5 155,172.3 157.9,174.2 160.7,176.1 163.2,178.1 154.7,186.5 153,184.4 151.1,182.2 149,179.9 146.6,177.6 144,175.1 141.1,172.6 138,170 134.7,167.3 131.2,164.4 127.4,161.6 " />
<polygon points="163.2,178.1 164.9,182.4 163.2,186.6 158.9,188.3 154.7,186.5 " />
</g>
</svg>
