<svg xmlns="http://www.w3.org/2000/svg" xmlns:xlink="http://www.w3.org/1999/xlink" version="1.1" baseProfile="full" viewBox="0 0 200 200" width="200" height="200">
<g fill="black">
<polygon points="107.3,21.2 105.5,23 103.6,24.8 101.5,26.7 99.2,28.6 96.9,30.5 94.3,32.4 91.6,34.4 88.7,36.4 85.6,38.3 82.6,40.6 81.3,39.3 83.8,36.4 85.8,33.4 87.7,30.6 89.6,27.9 91.3,25.3 92.8,22.9 94.2,20.6 95.5,18.4 96.5,16.3 97.5,14.3 " />
<polygon points="97.5,14.3 107.3,21.2 97.9,13.6 " />
<polygon points="107.3,21.2 108.6,24.6 101.4,24.4 " />
<polygon points="54,38 54,111 42,117 42,32 " />
<polygon points="48,38 152,38 152,42 48,42 " />
<polygon points="158,40 158,111 146,117 146,40 " />
<polygon points="146,38 152,33 163,42 158,46 146,40 " />
<polygon points="60,70 142,70 142,74 60,74 " />
<polygon points="142,70 118,72 130,60 " />
<polygon points="102.4,72 99.9,75.3 96.6,79.5 92.9,83.5 89.1,87.2 84.9,90.6 80.6,93.8 76,96.6 71.2,99.2 66.2,101.5 60.9,103.4 55.3,104.8 54.6,103.1 59.2,99.9 63.6,96.8 67.7,93.7 71.6,90.5 75.3,87.1 78.7,83.7 81.9,80.1 84.8,76.4 87.5,72.6 87.8,72 " />
<polygon points="105,48 105,99 93,105 93,46 " />
<polygon points="105,48 108,50 105,52 " />
<polygon points="100.1,78.3 103.9,78.9 107.7,79.3 111.3,80 114.9,80.9 118.4,82.1 121.8,83.4 125.2,84.9 128.4,86.6 131.6,88.4 134.6,90.5 126.8,99.5 124.6,97.3 122.4,95.1 120,93 117.5,90.9 114.8,89 112.1,87.1 109.2,85.2 106.2,83.4 103.1,81.6 99.7,80.1 " />
<polygon points="134.6,90.5 136.6,94.6 135.2,98.9 131.1,100.9 126.8,99.5 " />
<polygon points="67.3,47.8 69.8,49.5 72.5,50.7 74.9,51.9 77.2,53.2 79.2,54.3 81.2,55.5 82.9,56.7 84.6,57.8 86.1,59 87.4,60.2 77.3,66.6 77.1,65.6 76.7,64.3 76.1,62.9 75.3,61.3 74.3,59.6 73,57.7 71.6,55.7 70.1,53.6 68.4,51.3 66.2,49.3 " />
<polygon points="87.4,60.2 88.1,64.7 85.5,68.5 81,69.2 77.3,66.6 " />
<polygon points="129.4,55.1 127.8,56.6 126.2,58.2 124.5,59.8 122.7,61.4 120.8,63.2 118.7,64.9 116.6,66.7 114.3,68.5 111.8,70.4 109.6,72.5 108.3,71.4 110,68.8 111.2,66.1 112.5,63.5 113.7,61 114.9,58.7 115.9,56.4 116.9,54.3 117.9,52.2 118.7,50.3 119.4,48.5 " />
<polygon points="119.4,48.5 129.4,55.1 119.9,47.7 " />
<polygon points="129.4,55.1 130.8,58.4 123.6,58.4 " />
<polygon points="48,107 152,107 152,111 48,111 " />
<polygon points="18,125 184,125 184,129 18,129 " />
<polygon points="184,125 160,127 172,115 " />
<polygon points="77.3,127 68,153.7 54.7,155.4 65.9,123.1 " />
<polygon points="64,145 151,145 151,149 64,149 " />
<polygon points="156.9,147.7 156.3,152.5 155.6,156.9 154.8,161 153.9,164.8 153,168.4 152,171.6 151,174.6 149.8,177.2 148.4,179.7 146.9,181.9 137.5,174.4 138.2,173.4 139,171.9 139.8,170.1 140.7,167.8 141.5,165.1 142.3,162.1 143,158.7 143.7,154.9 144.4,150.7 145,146.2 " />
<polygon points="145,145 151,140 162,149 157,153 151,153 " />
<polygon points="146.9,181.9 142.9,184 138.4,182.8 136.3,178.8 137.5,174.4 " />
<polygon points="146.9,181.9 145.3,183.7 143.5,185.4 141.7,186.9 139.7,188.3 137.6,189.4 135.4,190.3 133.1,191 130.8,191.6 128.4,191.9 126,192 126,180 127.4,179.9 128.8,179.7 130.1,179.4 131.3,179.1 132.4,178.6 133.5,178 134.5,177.3 135.6,176.5 136.5,175.5 137.5,174.4 " />
<polygon points="126,186 126,180 106,180 106,183 " />
</g>
</svg>
