<svg xmlns="http://www.w3.org/2000/svg" xmlns:xlink="http://www.w3.org/1999/xlink" version="1.1" baseProfile="full" viewBox="0 0 200 200" width="200" height="200">
<g fill="black">
<polygon points="105.9,17.5 104.3,19.5 102.5,21.5 100.6,23.3 98.5,25.1 96.3,26.8 93.8,28.4 91.2,30 88.4,31.5 85.4,32.9 82.5,34.7 81.4,33.2 83.9,31 85.9,28.4 87.8,26.1 89.4,23.8 90.9,21.6 92.2,19.5 93.2,17.5 94.1,15.6 94.7,13.8 95.1,12.2 " />
<polygon points="95.1,12.2 105.9,17.5 95.7,11.1 " />
<polygon points="105.9,17.5 107.7,20.7 100.5,21.6 " />
<polygon points="55,33 55,106 43,112 43,27 " />
<polygon points="49,33 152,33 152,37 49,37 " />
<polygon points="158,35 158,106 146,112 146,35 " />
<polygon points="146,33 152,28 163,37 158,41 146,35 " />
<polygon points="59,106 143,106 143,110 59,110 " />
<polygon points="143,106 119,108 131,96 " />
<polygon points="130.1,49 124.1,49.9 118.1,50.6 111.9,51.2 105.7,51.6 99.4,52 93.1,52.2 86.6,52.2 80.2,52 73.6,51.6 67,50.8 66.9,49.1 73.4,47.8 79.8,46.7 86.1,45.6 92.4,44.6 98.5,43.5 104.5,42.4 110.5,41.2 116.3,40 122.1,38.7 127.8,37.3 " />
<polygon points="127.8,37.3 130.1,49 138.8,47.3 " />
<polygon points="138.8,47.3 139.1,50.3 130.6,45.9 " />
<polygon points="73.2,51.4 75.3,52.1 77.5,52.4 79.6,52.9 81.6,53.6 83.6,54.5 85.4,55.6 87.2,56.9 88.8,58.4 90.3,60.2 91.6,62.1 80.3,66.2 80.3,64.9 80.1,63.7 79.8,62.4 79.4,61.1 78.8,59.7 78,58.3 77,56.9 75.8,55.5 74.4,54 72.6,53.1 " />
<polygon points="91.6,62.1 91.3,66.6 88,69.8 83.4,69.5 80.3,66.2 " />
<polygon points="127.3,56.2 125.6,57.8 123.9,59.5 122.2,61.1 120.4,62.8 118.6,64.6 116.7,66.3 114.7,68 112.7,69.8 110.5,71.5 108.7,73.5 107.2,72.4 108.6,70.1 109.5,67.5 110.5,65 111.5,62.6 112.6,60.3 113.6,58 114.6,55.7 115.6,53.6 116.5,51.4 117.5,49.3 " />
<polygon points="117.5,49.3 127.3,56.2 117.9,48.6 " />
<polygon points="127.3,56.2 128.6,59.6 121.4,59.4 " />
<polygon points="63,71 139,71 139,75 63,75 " />
<polygon points="139,71 115,73 127,61 " />
<polygon points="107,50 107,96 95,102 95,48 " />
<polygon points="107,50 110,52 107,54 " />
<polygon points="104.6,73 101.9,76.3 98.9,79.9 95.6,83.2 92.1,86.2 88.4,88.9 84.5,91.3 80.4,93.3 76.1,95 71.6,96.3 67,97.2 62.2,97.8 61.7,96.1 65.9,94.1 69.8,91.8 73.4,89.5 76.8,87.1 79.9,84.6 82.8,81.9 85.4,79.1 87.8,76.1 90,73 90,73 " />
<polygon points="105.2,74.5 108.8,75.7 112.3,76.6 115.7,77.7 119,79 122,80.3 125,81.8 127.8,83.3 130.4,85 133,86.8 135.3,88.7 126.5,96.8 125.1,94.8 123.6,92.8 121.8,90.8 119.9,88.7 117.8,86.7 115.5,84.6 113,82.5 110.4,80.4 107.6,78.1 104.5,76.2 " />
<polygon points="135.3,88.7 136.9,93 135,97.2 130.7,98.7 126.5,96.8 " />
<polygon points="19.8,116.9 182.1,116.9 182.1,120.9 19.8,120.9 " />
<polygon points="182.1,116.9 158.1,118.9 170.1,106.9 " />
<polygon points="92.2,120.3 74.7,149 61.4,147.8 82,114.1 " />
<polygon points="72.2,139.6 146.5,139.6 146.5,143.6 72.2,143.6 " />
<polygon points="152.5,142 151.8,147.8 150.8,153.2 149.3,158.3 147.4,163.1 145,167.4 142.1,171.3 138.8,174.8 135,177.8 130.8,180.2 126.2,182.1 122.2,170.8 125.4,169.5 128.2,167.8 130.7,165.9 132.9,163.6 134.9,160.9 136.5,157.9 138,154.4 139.1,150.5 140,146 140.5,141.2 " />
<polygon points="140.5,139.6 146.5,134.6 157.5,143.6 152.5,147.6 146.5,147.6 " />
<polygon points="126.2,182.1 121.7,181.8 118.6,178.5 118.9,173.9 122.2,170.8 " />
<polygon points="126.2,182.1 124.1,182.8 122,183.5 119.9,184 117.8,184.5 115.7,184.9 113.5,185.2 111.3,185.5 109.2,185.7 107,185.8 104.8,185.8 104.8,173.8 106.6,173.8 108.4,173.7 110.1,173.5 111.9,173.3 113.6,173.1 115.4,172.7 117.1,172.3 118.8,171.9 120.5,171.4 122.2,170.8 " />
<polygon points="104.8,179.8 104.8,173.8 84.8,173.8 84.8,176.8 " />
</g>
</svg>
