<svg xmlns="http://www.w3.org/2000/svg" xmlns:xlink="http://www.w3.org/1999/xlink" version="1.1" baseProfile="full" viewBox="0 0 200 200" width="200" height="200">
<g fill="black">
<polygon points="109.6,24.5 105,30.4 100.2,36.3 95.1,42.2 89.7,48 84,53.7 78.1,59.4 71.9,65 65.4,70.5 58.5,75.8 51.3,81 50.1,79.6 55.9,73 61.7,66.6 67.3,60.3 72.6,54.1 77.8,48 82.6,41.9 87.3,35.8 91.7,29.7 95.8,23.7 99.7,17.7 " />
<polygon points="99.7,17.7 109.6,24.5 100.2,17 " />
<polygon points="109.6,24.5 110.9,27.8 103.7,27.7 " />
<polygon points="151.9,52.3 143.1,60.7 133.7,68.9 124,77.1 113.7,85.1 103,93.1 91.9,101 80.3,108.8 68.2,116.5 55.5,123.9 42.3,131.1 41.4,129.6 53.5,120.7 65.2,112 76.5,103.5 87.4,94.9 97.8,86.4 107.8,77.9 117.4,69.4 126.5,60.9 135.2,52.4 143.4,43.9 " />
<polygon points="143.4,43.9 151.9,52.3 143.7,43.6 " />
<polygon points="151.9,52.3 152.7,55.9 145.6,54.5 " />
<polygon points="42.3,124.3 54.4,123.5 66.2,122.8 77.9,122.1 89.4,121.5 100.7,120.9 111.8,120.5 122.8,120.1 133.5,119.9 144.1,119.9 154.4,120.2 154.6,122 144.3,123.7 133.9,125.3 123.3,126.7 112.5,128 101.4,129.4 90.2,130.7 78.8,132.1 67.2,133.4 55.4,134.8 43.4,136.2 " />
<polygon points="43.4,136.2 42.3,124.3 40.3,124.5 " />
<polygon points="43.4,136.2 45.7,139 49.1,132.7 " />
<polygon points="125.9,92.4 130.9,95.1 135.7,98.3 140.2,101.7 144.6,105.3 148.7,109.2 152.7,113.2 156.5,117.5 160.1,121.8 163.6,126.4 166.9,131.1 156.6,137.3 154.1,132.6 151.3,128 148.5,123.5 145.5,119.1 142.3,114.8 139.1,110.6 135.6,106.4 132.1,102.2 128.5,98.1 124.8,93.8 " />
<polygon points="166.9,131.1 167.5,135.7 164.9,139.4 160.3,140 156.6,137.3 " />
<polygon points="50.9,74.2 58.3,73.6 65.6,72.9 72.9,72.3 80.1,71.7 87.3,71.1 94.4,70.5 101.5,70 108.6,69.6 115.7,69.4 122.7,69.4 123,71.2 116.2,73.2 109.4,75 102.5,76.5 95.5,78 88.5,79.5 81.4,80.9 74.2,82.2 67,83.5 59.8,84.8 52.4,86.1 " />
<polygon points="52.4,86.1 50.9,74.2 48.9,74.5 " />
<polygon points="52.4,86.1 54.8,88.8 58,82.4 " />
<polygon points="61.9,145 62.4,149.7 62.7,154.4 62.6,158.9 62.1,163.3 61.2,167.6 60,171.7 58.4,175.6 56.4,179.4 54,182.9 51.2,186.3 43,177.5 45.5,175.5 47.9,173.2 50,170.6 52,167.9 53.7,164.8 55.4,161.4 56.8,157.8 58.1,153.8 59.3,149.5 60.1,145 " />
<polygon points="51.2,186.3 46.9,187.8 42.8,186 41.2,181.7 43,177.5 " />
<polygon points="97.2,141.3 99.7,144.3 102.2,147.1 104.5,150 106.5,153 108.3,156 110,159 111.4,162 112.6,165.1 113.7,168.2 114.6,171.3 102.6,172.7 102.7,170.1 102.5,167.5 102.2,164.7 101.8,161.8 101.2,158.8 100.4,155.8 99.5,152.5 98.4,149.2 97.3,145.7 95.7,142.3 " />
<polygon points="114.6,171.3 113.3,175.7 109.3,177.9 104.9,176.6 102.6,172.7 " />
<polygon points="136.3,137.6 140.5,139.2 144.7,140.8 148.6,142.6 152.3,144.5 155.8,146.6 159,148.9 162.1,151.2 165,153.7 167.7,156.3 170.2,159.1 160.3,165.9 158.8,163.3 157.2,160.7 155.3,158 153.1,155.4 150.7,152.8 148.1,150.1 145.3,147.4 142.2,144.7 139,141.9 135.4,139.2 " />
<polygon points="170.2,159.1 171.1,163.6 168.6,167.4 164.2,168.3 160.3,165.9 " />
</g>
</svg>
