<svg xmlns="http://www.w3.org/2000/svg" xmlns:xlink="http://www.w3.org/1999/xlink" version="1.1" baseProfile="full" viewBox="0 0 200 200" width="200" height="200">
<g fill="black">
<polygon points="106.9,19.5 103.8,22.8 100.5,26.1 96.9,29.6 93,33.3 88.9,37.1 84.4,41 79.7,45.1 74.7,49.2 69.3,53.4 63.6,57.6 62.3,56.3 66.7,50.7 71,45.4 75.1,40.4 79,35.7 82.7,31.2 86.2,26.9 89.4,22.9 92.4,19 95.2,15.4 97.7,11.9 " />
<polygon points="97.7,11.9 106.9,19.5 98.1,11.4 " />
<polygon points="106.9,19.5 108,23 100.8,22.3 " />
<polygon points="40.2,44.5 46.2,46 51.8,48 57.2,50.4 62.3,53.1 67.1,56.1 71.7,59.4 76,62.9 80,66.7 83.8,70.8 87.3,75.1 77.3,81.8 74.8,77.7 72,73.8 68.9,70 65.5,66.3 61.9,62.8 58,59.3 53.8,56 49.3,52.7 44.5,49.5 39.5,46.2 " />
<polygon points="87.3,75.1 88.1,79.6 85.6,83.4 81.1,84.3 77.3,81.8 " />
<polygon points="150.7,45.8 144.7,51.6 138.5,57.5 131.9,63.5 124.9,69.7 117.7,76 110,82.4 102,88.9 93.6,95.5 84.8,102.1 75.5,108.6 74.4,107.3 82.3,99.2 90.1,91.4 97.7,84 104.9,76.8 111.9,69.8 118.5,63 124.9,56.3 130.9,49.9 136.5,43.7 141.9,37.6 " />
<polygon points="141.9,37.6 150.7,45.8 142.2,37.2 " />
<polygon points="150.7,45.8 151.5,49.3 144.4,48.1 " />
<polygon points="21.7,108.9 31.1,108.7 41.6,108.4 53.1,107.8 65.7,107.1 79.3,106.2 93.9,105.2 109.6,104 126.3,102.7 144,101.4 162.8,100.1 163.1,101.8 144.5,105.1 126.9,108 110.3,110.5 94.7,112.7 80.1,114.7 66.5,116.4 54,117.8 42.4,119.1 31.8,120.1 22.2,120.9 " />
<polygon points="22.2,120.9 21.7,108.9 19.7,109 " />
<polygon points="22.2,120.9 24.3,123.8 28.1,117.6 " />
<polygon points="139.3,80.8 145.4,84.1 151,87.6 156.1,91.2 160.9,95 165.2,98.8 169.2,102.6 172.7,106.6 175.9,110.5 178.7,114.6 181.2,118.7 170.2,123.7 168.8,120.1 166.9,116.4 164.7,112.6 162,108.6 159,104.6 155.6,100.4 151.7,96.1 147.5,91.7 143,87.1 138.2,82.3 " />
<polygon points="181.2,118.7 181.3,123.3 178.2,126.7 173.6,126.8 170.2,123.7 " />
<polygon points="106,108 106,183 94,189 94,108 " />
<polygon points="68.7,133.7 65.2,139 61.4,144.2 57.3,149.4 52.8,154.4 48,159.3 42.8,164.1 37.3,168.7 31.5,173.3 25.2,177.6 18.5,181.7 17.4,180.2 22.8,174.7 27.9,169.3 32.8,164 37.4,158.8 41.7,153.6 45.6,148.4 49.3,143.3 52.6,138.1 55.6,133 58.2,127.9 " />
<polygon points="58.2,127.9 68.7,133.7 58.8,126.9 " />
<polygon points="68.7,133.7 70.4,136.9 63.2,137.5 " />
<polygon points="129.3,126.8 135.6,130.1 141.5,133.7 147,137.6 152.1,141.6 156.9,145.8 161.3,150 165.4,154.5 169.2,159 172.7,163.7 175.8,168.5 165.2,174.2 163,169.7 160.4,165.2 157.5,160.6 154.3,156.1 150.7,151.6 146.8,147.1 142.6,142.5 138.1,137.9 133.3,133.2 128.3,128.3 " />
<polygon points="175.8,168.5 176.2,173 173.4,176.6 168.8,177 165.2,174.2 " />
</g>
</svg>
