<svg xmlns="http://www.w3.org/2000/svg" xmlns:xlink="http://www.w3.org/1999/xlink" version="1.1" baseProfile="full" viewBox="0 0 200 200" width="200" height="200">
<g fill="black">
<polygon points="69.3,16.8 66.1,25 62.4,33.1 58.5,40.8 54.2,48.4 49.5,55.6 44.5,62.7 39.1,69.4 33.4,75.8 27.2,81.9 20.6,87.6 19.3,86.3 24.4,79.4 29.2,72.5 33.8,65.5 38.2,58.4 42.2,51.2 46,43.9 49.4,36.4 52.6,28.8 55.4,21 57.9,13 " />
<polygon points="57.9,13 69.3,16.8 58.4,11.5 " />
<polygon points="69.3,16.8 71.5,19.6 64.6,21.5 " />
<polygon points="52,44 169,44 169,48 52,48 " />
<polygon points="169,44 145,46 157,34 " />
<polygon points="15,95 185,95 185,99 15,99 " />
<polygon points="185,95 161,97 173,85 " />
<polygon points="106,44 106,172 94,172 94,44 " />
<polygon points="48,115 48,184 36,190 36,113 " />
<polygon points="48,115 51,117 48,119 " />
<polygon points="42,168 158,168 158,172 42,172 " />
<polygon points="164,115 164,178 152,184 152,113 " />
<polygon points="164,115 167,117 164,119 " />
</g>
</svg>
