<svg xmlns="http://www.w3.org/2000/svg" xmlns:xlink="http://www.w3.org/1999/xlink" version="1.1" baseProfile="full" viewBox="0 0 200 200" width="200" height="200">
<g fill="black">
<polygon points="41,32 41,181 29,187 29,26 " />
<polygon points="35,32 166,32 166,36 35,36 " />
<polygon points="172,34 172,172 160,172 160,34 " />
<polygon points="160,32 166,27 177,36 172,40 160,34 " />
<polygon points="172,172 169.6,175.6 166,178 162.4,175.6 160,172 " />
<polygon points="172,172 171.8,174.5 171.4,177 170.6,179.4 169.3,181.7 167.7,183.7 165.7,185.3 163.4,186.6 161,187.4 158.5,187.8 156,188 156,176 157.2,175.9 158.1,175.7 158.7,175.5 159,175.4 159.2,175.2 159.4,175 159.5,174.7 159.7,174.1 159.9,173.2 160,172 " />
<polygon points="156,182 156,176 136,176 136,179 " />
<polygon points="95.8,45.5 93.6,62.1 90.8,77.8 87.3,92.7 83.2,106.8 78.4,119.9 73,132.2 66.9,143.5 60.2,153.9 52.8,163.3 44.6,171.6 43.3,170.3 49.7,161 55.7,151 61.1,140.4 66.1,129.1 70.4,117 74.3,104.1 77.5,90.4 80.2,75.9 82.3,60.6 83.9,44.4 " />
<polygon points="83.9,44.4 95.8,45.5 84.1,42.2 " />
<polygon points="95.8,45.5 98.6,47.8 92.3,51.2 " />
<polygon points="47.3,68.9 54.7,74.4 61.5,80.3 67.8,86.6 73.6,93.2 79,100.1 83.9,107.2 88.3,114.6 92.3,122.3 95.8,130.2 98.8,138.3 87.3,141.8 85.1,134.1 82.4,126.6 79.3,119.1 75.8,111.9 71.9,104.7 67.5,97.7 62.7,90.8 57.5,84 52,77.1 46.1,70.3 " />
<polygon points="98.8,138.3 98.3,142.9 94.8,145.8 90.3,145.3 87.3,141.8 " />
<polygon points="144.8,47.7 141.4,67.9 137.5,86.6 133,103.6 128,119.1 122.3,133.1 116.1,145.4 109.4,156.1 102,165.2 94,172.4 85.4,177.7 84.5,176.2 91.4,169.6 97.8,161.7 103.8,152.5 109.4,141.9 114.5,129.8 119.1,116.2 123.3,101 127,84.3 130.2,66 132.9,46.1 " />
<polygon points="132.9,46.1 144.8,47.7 133.1,44.1 " />
<polygon points="144.8,47.7 147.5,50.1 141,53.3 " />
<polygon points="100.3,70.8 107.3,75 113.9,79.8 120.3,85.2 126.3,91.1 132,97.6 137.4,104.5 142.6,111.9 147.4,119.8 152,128.1 156.3,136.8 145.3,141.5 141.7,133 138,124.9 134,117.1 129.7,109.7 125.2,102.7 120.5,96.1 115.5,89.7 110.3,83.7 104.9,77.9 99.2,72.3 " />
<polygon points="156.3,136.8 156.3,141.4 153.1,144.7 148.6,144.7 145.3,141.5 " />
</g>
</svg>
