<svg xmlns="http://www.w3.org/2000/svg" xmlns:xlink="http://www.w3.org/1999/xlink" version="1.1" baseProfile="full" viewBox="0 0 200 200" width="200" height="200">
<g fill="black">
<polygon points="37,71 37,137 25,143 25,65 " />
<polygon points="31,71 169,71 169,75 31,75 " />
<polygon points="175,73 175,131 163,137 163,73 " />
<polygon points="163,71 169,66 180,75 175,79 163,73 " />
<polygon points="83,71 83,125 71,125 71,71 " />
<polygon points="129,71 129,125 117,125 117,71 " />
<polygon points="31,121 169,121 169,125 31,125 " />
</g>
</svg>
