<svg xmlns="http://www.w3.org/2000/svg" xmlns:xlink="http://www.w3.org/1999/xlink" version="1.1" baseProfile="full" viewBox="0 0 200 200" width="200" height="200">
<g fill="black">
<polygon points="39,28 39,181 27,187 27,22 " />
<polygon points="33,28 167,28 167,32 33,32 " />
<polygon points="173,30 173,170 161,170 161,30 " />
<polygon points="161,28 167,23 178,32 173,36 161,30 " />
<polygon points="173,170 170.6,173.6 167,176 163.4,173.6 161,170 " />
<polygon points="173,170 172.8,172.5 172.4,175 171.6,177.4 170.3,179.7 168.7,181.7 166.7,183.3 164.4,184.6 162,185.4 159.5,185.8 157,186 157,174 158.2,173.9 159.1,173.7 159.7,173.5 160,173.4 160.2,173.2 160.4,173 160.5,172.7 160.7,172.1 160.9,171.2 161,170 " />
<polygon points="157,180 157,174 137,174 137,177 " />
<polygon points="64.3,42.8 67.5,44.6 70.7,46.2 73.8,48 76.5,50.1 79.1,52.2 81.5,54.5 83.7,57 85.6,59.6 87.3,62.4 88.8,65.3 77.3,68.9 76.9,66.6 76.3,64.3 75.5,61.9 74.5,59.5 73.2,57 71.7,54.5 70,52 68.1,49.4 65.9,46.7 63.3,44.3 " />
<polygon points="88.8,65.3 88.3,69.8 84.8,72.8 80.3,72.3 77.3,68.9 " />
<polygon points="135.7,48.8 133.7,51.4 131.6,54.1 129.3,56.9 126.9,59.8 124.3,62.7 121.6,65.7 118.7,68.8 115.5,72 112.1,75.2 108.7,78.5 107.2,77.4 109.6,73.3 111.8,69.2 113.9,65.3 115.9,61.6 117.8,58.1 119.6,54.8 121.2,51.6 122.7,48.5 124,45.6 125.2,42.8 " />
<polygon points="125.2,42.8 135.7,48.8 125.8,41.9 " />
<polygon points="135.7,48.8 137.3,52 130.1,52.5 " />
<polygon points="51,76 149,76 149,80 51,80 " />
<polygon points="149,76 125,78 137,66 " />
<polygon points="106,76 106,113 94,113 94,76 " />
<polygon points="65,109 146,109 146,113 65,113 " />
<polygon points="146,109 122,111 134,99 " />
<polygon points="71,109 71,142 59,142 59,103 " />
<polygon points="71,142 68.6,145.6 65,148 61.4,145.6 59,142 " />
<polygon points="71,142 71,143.2 71.2,144.1 71.4,144.7 71.5,145 71.7,145.2 71.9,145.4 72.2,145.5 72.8,145.7 73.7,145.9 75,146 75,158 72.4,157.8 69.9,157.4 67.5,156.6 65.2,155.3 63.2,153.7 61.6,151.7 60.3,149.4 59.5,147 59.1,144.5 59,142 " />
<polygon points="75,146 79.2,147.8 81,152 79.2,156.2 75,158 " />
<polygon points="75,146 137,146 137,158 75,158 " />
<polygon points="137,146 140.6,148.4 143,152 140.6,155.6 137,158 " />
</g>
</svg>
