<svg xmlns="http://www.w3.org/2000/svg" xmlns:xlink="http://www.w3.org/1999/xlink" version="1.1" baseProfile="full" viewBox="0 0 200 200" width="200" height="200">
<g fill="black">
<polygon points="51.2,14.5 54.9,15.7 58.6,16.6 62.1,17.7 65.3,18.9 68.4,20.3 71.3,21.8 73.9,23.4 76.5,25.1 78.8,26.9 81,29 71.4,36.2 70.4,34.4 69.2,32.5 67.8,30.6 66,28.6 64.1,26.6 61.9,24.6 59.4,22.5 56.7,20.3 53.8,18.1 50.5,16.2 " />
<polygon points="81,29 82,33.4 79.8,37.4 75.3,38.4 71.4,36.2 " />
<polygon points="145.7,21.7 143.4,23.7 140.9,25.7 138.2,27.7 135.4,29.7 132.4,31.8 129.2,34 125.8,36.1 122.2,38.2 118.4,40.3 114.5,42.7 113.4,41.2 116.5,38 119.4,34.8 122.1,31.7 124.7,28.7 127.2,25.9 129.5,23.3 131.6,20.7 133.5,18.2 135.3,15.9 136.8,13.7 " />
<polygon points="136.2,14.4 145.7,21.7 137.2,13.3 " />
<polygon points="145.7,21.7 146.6,25.2 140.9,24.1 " />
<polygon points="25,40 177,40 177,44 25,44 " />
<polygon points="177,40 153,42 165,30 " />
<polygon points="34,62 171,62 171,66 34,66 " />
<polygon points="171,62 151,64 161,53 " />
<polygon points="20,84 185,84 185,88 20,88 " />
<polygon points="185,84 161,86 173,74 " />
<polygon points="107,40 107,88 95,88 95,40 " />
<polygon points="105.5,117.2 105.5,175.5 93.5,175.5 93.5,115.2 " />
<polygon points="105.5,117.2 108.5,119.2 103.5,122.2 " />
<polygon points="105.5,175.5 103.1,179.1 99.5,181.5 95.9,179.1 93.5,175.5 " />
<polygon points="105.5,175.5 105.3,178 104.9,180.5 104.1,182.9 102.8,185.2 101.2,187.2 99.2,188.9 96.9,190.1 94.5,190.9 92,191.3 89.5,191.5 89.5,179.5 90.7,179.4 91.6,179.3 92.2,179.1 92.5,178.9 92.7,178.7 92.9,178.6 93,178.2 93.2,177.6 93.4,176.7 93.5,175.5 " />
<polygon points="89.5,185.5 89.5,179.5 69.5,179.5 69.5,182.5 " />
<polygon points="22,137 73.9,137 73.9,141 22,141 " />
<polygon points="79.7,140.8 77,146.9 73.4,152.5 69,157.6 63.9,162.3 58,166.5 51.4,170.3 44,173.6 35.9,176.4 27.1,178.8 17.5,180.5 17,178.8 25.9,175.1 33.9,171.4 41.2,167.6 47.5,163.7 53,159.6 57.7,155.4 61.5,151 64.5,146.6 66.7,142 68.2,137.2 " />
<polygon points="67.9,137 73.9,132 84.9,141 79.9,144 67.9,149 " />
<polygon points="169,139.1 165.4,140.3 161.5,141.5 157.2,142.8 152.7,144 147.9,145.3 142.7,146.6 137.2,147.8 131.4,149 125.2,150.1 118.6,151.1 118.1,149.3 124.1,146.5 129.8,143.9 135.2,141.6 140.3,139.4 145.1,137.3 149.6,135.3 153.7,133.4 157.5,131.5 161,129.8 164.2,128.1 " />
<polygon points="163.2,128.5 169,139.1 173,137.3 " />
<polygon points="173,137.3 173.2,140.5 166.8,137.9 " />
<polygon points="105.2,121.6 108.2,129.3 111.9,136.1 116.4,142.4 121.9,148 128.3,153.1 135.9,157.7 144.5,161.8 154.3,165.4 165.2,168.5 177.4,171.1 174.6,184.1 161.9,180.6 150.2,176.5 139.8,171.8 130.6,166.5 122.6,160.5 115.9,153.8 110.6,146.6 106.6,138.8 104.2,130.5 103.4,121.9 " />
<polygon points="174.6,184.1 177.4,171.1 186.4,173 " />
<polygon points="81.2,89.6 84.9,91 88.5,92 91.9,93.2 95,94.5 97.8,95.9 100.4,97.3 102.9,98.9 105.1,100.6 107,102.4 108.8,104.4 98.2,110.2 97.9,108.9 97.2,107.3 96.3,105.7 94.9,103.8 93.3,101.9 91.4,99.9 89.1,97.8 86.6,95.6 83.8,93.2 80.5,91.2 " />
<polygon points="108.8,104.4 109.2,109 106.4,112.6 101.8,113 98.2,110.2 " />
<polygon points="20,113 178,113 178,117 20,117 " />
<polygon points="178,113 154,115 166,103 " />
</g>
</svg>
