<svg xmlns="http://www.w3.org/2000/svg" xmlns:xlink="http://www.w3.org/1999/xlink" version="1.1" baseProfile="full" viewBox="0 0 200 200" width="200" height="200">
<g fill="black">
<polygon points="51.2,14.5 54.9,15.7 58.6,16.6 62.1,17.7 65.3,18.9 68.4,20.3 71.3,21.8 73.9,23.4 76.5,25.1 78.8,26.9 81,29 71.4,36.2 70.4,34.4 69.2,32.5 67.8,30.6 66,28.6 64.1,26.6 61.9,24.6 59.4,22.5 56.7,20.3 53.8,18.1 50.5,16.2 " />
<polygon points="81,29 82,33.4 79.8,37.4 75.3,38.4 71.4,36.2 " />
<polygon points="145.7,21.7 143.4,23.7 140.9,25.7 138.2,27.7 135.4,29.7 132.4,31.8 129.2,34 125.8,36.1 122.2,38.2 118.4,40.3 114.5,42.7 113.4,41.2 116.5,38 119.4,34.8 122.1,31.7 124.7,28.7 127.2,25.9 129.5,23.3 131.6,20.7 133.5,18.2 135.3,15.9 136.8,13.7 " />
<polygon points="136.8,13.7 145.7,21.7 137.2,13.3 " />
<polygon points="145.7,21.7 146.6,25.2 139.5,24.1 " />
<polygon points="25,40 177,40 177,44 25,44 " />
<polygon points="177,40 153,42 165,30 " />
<polygon points="34,62 171,62 171,66 34,66 " />
<polygon points="171,62 147,64 159,52 " />
<polygon points="20,84 185,84 185,88 20,88 " />
<polygon points="185,84 161,86 173,74 " />
<polygon points="107,40 107,88 95,88 95,40 " />
<polygon points="69.1,92.2 75.4,92.4 81.4,92.6 87,93.1 92.3,93.8 97.2,94.6 101.7,95.5 105.9,96.5 109.7,97.6 113.2,98.9 116.5,100.3 110.3,110.6 108.2,109 105.5,107.4 102.5,105.8 98.9,104.2 94.9,102.6 90.5,101 85.7,99.3 80.5,97.7 74.8,95.8 68.8,94 " />
<polygon points="116.5,100.3 119.1,104 118.5,108.5 114.8,111.2 110.3,110.6 " />
<polygon points="48,113 104,113 104,117 48,117 " />
<polygon points="110,115 110,173 98,173 98,115 " />
<polygon points="98,113 104,108 115,117 110,121 98,115 " />
<polygon points="110,173 107.6,176.6 104,179 100.4,176.6 98,173 " />
<polygon points="110,173 109.8,175.5 109.4,178 108.6,180.4 107.3,182.7 105.7,184.7 103.7,186.3 101.4,187.6 99,188.4 96.5,188.8 94,189 94,177 95.2,176.9 96.1,176.7 96.7,176.5 97,176.4 97.2,176.2 97.4,176 97.5,175.7 97.7,175.1 97.9,174.2 98,173 " />
<polygon points="94,183 94,177 74,177 74,180 " />
<polygon points="22,130 83,130 83,134 22,134 " />
<polygon points="88.3,134.6 84.3,141 79.6,147 74,152.6 67.7,158 60.7,163.1 53,167.9 44.4,172.4 35.2,176.6 25.1,180.4 14.3,183.8 13.6,182.1 23.6,176.9 32.8,171.8 41.2,166.7 48.9,161.5 55.7,156.3 61.7,151 66.9,145.6 71.2,140.2 74.8,134.8 77.6,129.3 " />
<polygon points="77,130 83,125 94,134 89,138 83,138 " />
<polygon points="172.5,120.5 168.5,122.8 164.3,125.1 159.8,127.4 155.2,129.7 150.3,132 145.2,134.3 139.9,136.6 134.3,138.8 128.5,140.9 122.3,142.8 121.6,141.1 126.8,137.5 131.9,134 136.8,130.8 141.6,127.7 146.2,124.6 150.5,121.7 154.7,118.8 158.6,116 162.3,113.3 165.7,110.6 " />
<polygon points="165.7,110.6 172.5,120.5 173,120.1 " />
<polygon points="173,120.1 173.1,123.7 166.2,121.1 " />
<polygon points="106.2,118.3 113.2,127 120.2,135 127.3,142.2 134.5,148.6 141.9,154.2 149.5,159 157.4,163 165.4,166.3 173.7,168.7 182.2,170.5 179.7,183.4 170.2,180.8 161,177.2 152.3,172.9 144,167.6 136.2,161.6 128.9,154.8 122,147.1 115.6,138.7 109.8,129.4 104.7,119.3 " />
<polygon points="179.7,183.4 182.2,170.5 191.5,172.3 " />
</g>
</svg>
