<svg xmlns="http://www.w3.org/2000/svg" xmlns:xlink="http://www.w3.org/1999/xlink" version="1.1" baseProfile="full" viewBox="0 0 200 200" width="200" height="200">
<g fill="black">
<polygon points="58.3,14.8 61.7,16.8 65.1,18.6 68.2,20.6 71.1,22.7 73.7,25 76.1,27.4 78.2,30 80.1,32.7 81.7,35.6 83,38.6 71.4,41.5 71.2,39.3 70.7,37 70,34.7 69,32.3 67.7,29.7 66.2,27.2 64.4,24.5 62.3,21.8 60,18.9 57.2,16.3 " />
<polygon points="83,38.6 82.3,43.1 78.7,45.9 74.2,45.1 71.4,41.5 " />
<polygon points="145,19.5 142.4,22.2 139.6,24.9 136.8,27.6 133.8,30.4 130.8,33.1 127.6,35.8 124.3,38.6 120.9,41.3 117.2,43.9 113.6,46.6 112.3,45.3 115,41.6 117.4,38 119.9,34.4 122.4,31 124.8,27.7 127.1,24.4 129.4,21.2 131.6,18.1 133.6,15 135.6,12 " />
<polygon points="135.6,12 145,19.5 136.1,11.5 " />
<polygon points="145,19.5 146.1,22.9 138.9,22.3 " />
<polygon points="30,44 169,44 169,48 30,48 " />
<polygon points="169,44 145,46 157,34 " />
<polygon points="106,47 106,94 94,94 94,47 " />
<polygon points="42,67 158,67 158,71 42,71 " />
<polygon points="158,67 134,69 146,57 " />
<polygon points="19,90 183,90 183,94 19,94 " />
<polygon points="183,90 159,92 171,80 " />
<polygon points="17.2,113.9 75.1,113.9 75.1,117.9 17.2,117.9 " />
<polygon points="75.1,113.9 51.1,115.9 63.1,103.9 " />
<polygon points="15.5,159.1 23,157.2 30.6,155.1 38.1,153 45.7,150.7 53.3,148.4 60.9,145.9 68.6,143.4 76.3,140.9 84.1,138.4 92,136 92.7,137.6 85.6,141.9 78.4,145.8 71,149.5 63.7,153 56.2,156.3 48.8,159.5 41.3,162.5 33.9,165.3 26.4,168 18.8,170.6 " />
<polygon points="18.8,170.6 15.5,159.1 13.6,159.6 " />
<polygon points="18.8,170.6 21.6,172.9 23.8,166.1 " />
<polygon points="117.7,98.1 114.8,102.6 111.5,106.9 107.7,110.9 103.6,114.8 99,118.5 94,122.1 88.5,125.4 82.7,128.5 76.4,131.3 69.6,133.8 68.7,132.2 74.5,128 79.8,123.9 84.8,120 89.3,116 93.4,112.1 97,108.2 100.2,104.3 102.9,100.4 105.2,96.5 107,92.7 " />
<polygon points="107,92.7 117.7,98.1 107.6,91.6 " />
<polygon points="117.7,98.1 119.5,101.3 112.3,102.1 " />
<polygon points="92.9,116.6 174,116.6 174,120.6 92.9,120.6 " />
<polygon points="177.6,123.4 175.3,124.5 172.9,125.7 170.2,126.9 167.3,128.2 164.1,129.6 160.7,131 157.1,132.4 153.1,133.9 148.9,135.3 144.5,137 143.6,135.4 147.5,132.8 151,130 154.3,127.5 157.3,125.1 160.2,122.8 162.8,120.8 165.1,118.8 167.2,117 168.9,115.3 170.5,113.7 " />
<polygon points="168,116.6 174,111.6 185,120.6 180,124.6 174,124.6 " />
<polygon points="125.1,124.9 123.9,135.4 121.1,145 116.5,153.8 110.4,161.5 102.7,168.3 93.6,174 83.1,178.8 71.2,182.7 57.8,185.5 43.1,187.4 42.8,185.6 57,181.9 69.5,177.6 80.4,172.8 89.7,167.5 97.4,161.7 103.4,155.4 107.9,148.6 111,141.3 112.7,133.5 113.1,124.9 " />
<polygon points="113.1,124.9 125.1,124.9 113.1,122.5 " />
<polygon points="125.1,124.9 128.1,126.9 122.1,130.9 " />
<polygon points="123.8,137.7 125.9,143 128.6,147.7 132,152 136.2,156 141.3,159.8 147.4,163.4 154.4,166.7 162.5,169.8 171.7,172.7 181.9,175.3 178.6,188.1 167.9,184.6 158.2,180.8 149.6,176.7 142.1,172.1 135.6,167.2 130.3,161.9 126.2,156.2 123.3,150.3 121.9,144.1 122,137.8 " />
<polygon points="178.6,188.1 181.9,175.3 190.3,177.5 " />
</g>
</svg>
