<svg xmlns="http://www.w3.org/2000/svg" xmlns:xlink="http://www.w3.org/1999/xlink" version="1.1" baseProfile="full" viewBox="0 0 200 200" width="200" height="200">
<g fill="black">
<polygon points="57.2,12.6 60.4,13.8 63.6,14.8 66.6,16 69.5,17.3 72.2,18.8 74.8,20.4 77.2,22.2 79.4,24 81.5,26.1 83.5,28.3 73.3,34.5 72.5,32.6 71.5,30.6 70.3,28.6 68.9,26.6 67.4,24.6 65.6,22.5 63.6,20.4 61.5,18.3 59.2,16 56.4,14.2 " />
<polygon points="83.5,28.3 84.2,32.8 81.5,36.5 77,37.2 73.3,34.5 " />
<polygon points="142,19.5 139.9,21.4 137.6,23.4 135.2,25.4 132.7,27.5 130.1,29.6 127.3,31.7 124.3,33.9 121.2,36.1 117.9,38.2 114.6,40.6 113.3,39.3 115.9,36.2 118.2,32.9 120.4,29.9 122.5,27 124.5,24.2 126.4,21.5 128.2,19 129.8,16.5 131.3,14.2 132.7,11.9 " />
<polygon points="132.7,11.9 142,19.5 133.1,11.4 " />
<polygon points="142,19.5 143,23 135.8,22.3 " />
<polygon points="27,38 174,38 174,42 27,42 " />
<polygon points="174,38 150,40 162,28 " />
<polygon points="107,38 107,80 95,80 95,38 " />
<polygon points="38,57 164,57 164,61 38,61 " />
<polygon points="164,57 140,59 152,47 " />
<polygon points="18,76 186,76 186,80 18,80 " />
<polygon points="186,76 162,78 174,66 " />
<polygon points="55.4,82.2 54.4,85.5 53.2,88.9 51.5,92.2 49.4,95.4 46.9,98.4 44,101.3 40.7,104 37.2,106.6 33.3,109 29,111.3 24.4,100.3 28.4,98.9 32.1,97.4 35.5,95.8 38.8,94.2 41.7,92.4 44.5,90.5 47,88.5 49.5,86.4 51.8,84.1 53.7,81.5 " />
<polygon points="29,111.3 24.5,111.3 21.2,108.1 21.2,103.5 24.4,100.3 " />
<polygon points="75.3,81.1 77.3,83 79.5,84.6 81.5,86.3 83.4,88.1 85,90 86.5,91.9 87.8,93.9 89,96 89.9,98.2 90.7,100.5 78.7,101.5 79,100.1 79.1,98.6 79.1,97 78.9,95.2 78.6,93.3 78.1,91.3 77.4,89.1 76.5,86.9 75.5,84.5 74,82.3 " />
<polygon points="90.7,100.5 89.2,104.8 85.2,106.9 80.9,105.5 78.7,101.5 " />
<polygon points="109.3,80.6 111.8,81.8 114.5,82.7 117,83.9 119.4,85.3 121.7,86.9 123.8,88.8 125.8,90.9 127.6,93.1 129.2,95.6 130.7,98.2 119.3,102 119,99.9 118.5,97.8 117.9,95.8 117.1,93.8 116.1,91.8 115,89.8 113.7,87.8 112.2,85.8 110.5,83.8 108.4,82.2 " />
<polygon points="130.7,98.2 130.3,102.8 126.9,105.8 122.3,105.4 119.3,102 " />
<polygon points="146.2,81.5 150.2,82.5 154.2,83.6 158,84.9 161.7,86.5 165.2,88.2 168.6,90.2 171.9,92.3 175,94.7 177.9,97.2 180.7,99.8 171.4,107.4 169.6,104.7 167.6,102.1 165.5,99.6 163.2,97.1 160.7,94.7 158,92.3 155.2,90 152.2,87.6 149,85.3 145.5,83.2 " />
<polygon points="180.7,99.8 182,104.2 179.8,108.3 175.4,109.5 171.4,107.4 " />
<polygon points="42,109 163,109 163,113 42,113 " />
<polygon points="163,109 139,111 151,99 " />
<polygon points="32,130 172,130 172,134 32,134 " />
<polygon points="172,130 148,132 160,120 " />
<polygon points="19,150 184,150 184,154 19,154 " />
<polygon points="184,150 160,152 172,140 " />
<polygon points="107,109 107,132 95,132 95,109 " />
<polygon points="107,132 104.6,135.6 101,138 97.4,135.6 95,132 " />
<polygon points="107,132 105.7,141.9 102.6,151.1 97.6,159.3 90.9,166.5 82.6,172.7 72.8,177.9 61.4,182.3 48.5,185.7 34.1,188.3 18.1,189.8 17.8,188.1 33.4,184.5 47.1,180.6 59.1,176.1 69.4,171.2 77.8,165.7 84.4,159.8 89.4,153.5 92.7,146.8 94.5,139.7 95,132 " />
<polygon points="105.3,152 111.3,155.9 117.3,159.5 123.5,162.8 129.9,165.8 136.7,168.3 143.7,170.5 151.1,172.3 158.9,173.7 167,174.7 175.5,175.4 174.4,188.5 165.3,187.1 156.6,185.3 148.3,183 140.5,180.2 133.1,176.9 126.2,173.2 119.7,169 113.8,164.3 108.6,159.1 104,153.3 " />
<polygon points="174.4,188.5 175.5,175.4 186.3,176.3 " />
</g>
</svg>
