<svg xmlns="http://www.w3.org/2000/svg" xmlns:xlink="http://www.w3.org/1999/xlink" version="1.1" baseProfile="full" viewBox="0 0 200 200" width="200" height="200">
<g fill="black">
<polygon points="25,20 87,20 87,24 25,24 " />
<polygon points="93,22 93,80 81,86 81,22 " />
<polygon points="81,20 87,15 98,24 93,28 81,22 " />
<polygon points="35.2,28.4 38.6,29.3 42.1,29.9 45.3,30.7 48.3,31.6 51.1,32.8 53.8,34.1 56.3,35.6 58.6,37.3 60.7,39.2 62.6,41.3 52.3,47.4 51.7,45.8 51,44.2 49.9,42.5 48.6,40.8 47,39 45.1,37.2 42.9,35.4 40.5,33.5 37.8,31.6 34.6,30.1 " />
<polygon points="62.6,41.3 63.2,45.9 60.5,49.5 55.9,50.1 52.3,47.4 " />
<polygon points="22.7,61.9 28.2,61 33.8,60.1 39.5,59.1 45.4,58.1 51.4,57 57.6,56 63.9,54.9 70.3,53.8 76.9,52.9 83.7,52.1 84.2,53.8 77.9,56.6 71.7,59 65.5,61.2 59.4,63.3 53.5,65.3 47.6,67.1 41.8,68.9 36.2,70.5 30.6,72.1 25.2,73.6 " />
<polygon points="25.2,73.6 22.7,61.9 20.7,62.3 " />
<polygon points="25.2,73.6 27.8,76.1 30.4,69.4 " />
<polygon points="106,20 166,20 166,24 106,24 " />
<polygon points="172,22 172,80 160,86 160,22 " />
<polygon points="160,20 166,15 177,24 172,28 160,22 " />
<polygon points="116.2,27.5 119.5,28.5 122.7,29.2 125.8,30 128.7,30.9 131.4,31.8 133.9,32.8 136.2,33.9 138.5,35.1 140.5,36.3 142.4,37.7 133.5,45.7 132.8,44.4 131.8,42.9 130.6,41.4 129.2,39.8 127.5,38.2 125.6,36.4 123.4,34.6 121.1,32.8 118.5,30.8 115.5,29.2 " />
<polygon points="142.4,37.7 143.9,42.1 141.9,46.2 137.6,47.6 133.5,45.7 " />
<polygon points="101.9,60.9 107.3,60.2 112.9,59.5 118.6,58.7 124.4,57.9 130.3,57 136.3,56.1 142.5,55.3 148.7,54.4 155.2,53.7 161.7,53.1 162.2,54.8 156,57.4 150,59.6 143.9,61.7 138,63.5 132.1,65.3 126.3,67 120.6,68.5 115,70 109.4,71.4 104,72.7 " />
<polygon points="104,72.7 101.9,60.9 99.9,61.2 " />
<polygon points="104,72.7 106.5,75.3 109.4,68.7 " />
</g>
</svg>
