<svg xmlns="http://www.w3.org/2000/svg" xmlns:xlink="http://www.w3.org/1999/xlink" version="1.1" baseProfile="full" viewBox="0 0 200 200" width="200" height="200">
<g fill="black">
<polygon points="58.2,13.6 61.7,15 65.2,16.2 68.4,17.5 71.3,19 74,20.6 76.5,22.4 78.7,24.3 80.7,26.4 82.4,28.8 83.8,31.3 72.3,34.8 72.2,33.4 71.8,31.8 71.2,30 70.2,28.1 68.9,26.1 67.3,24 65.3,21.8 63.1,19.6 60.5,17.2 57.4,15.2 " />
<polygon points="83.8,31.3 83.3,35.9 79.8,38.8 75.3,38.3 72.3,34.8 " />
<polygon points="141,20.5 139.1,22.2 137.2,23.9 135.1,25.8 132.8,27.8 130.5,29.9 128,32 125.3,34.3 122.5,36.6 119.5,38.9 116.6,41.5 115.3,40.4 117.5,37.1 119.3,33.8 121.1,30.7 122.9,27.7 124.6,24.9 126.2,22.3 127.7,19.7 129.1,17.4 130.4,15.1 131.6,13 " />
<polygon points="131.6,13 141,20.5 132.1,12.5 " />
<polygon points="141,20.5 142.1,23.9 134.9,23.3 " />
<polygon points="31,39 168,39 168,43 31,43 " />
<polygon points="168,39 144,41 156,29 " />
<polygon points="106,39 106,75 94,75 94,39 " />
<polygon points="45,55 159,55 159,59 45,59 " />
<polygon points="159,55 135,57 147,45 " />
<polygon points="21,71 181,71 181,75 21,75 " />
<polygon points="181,71 157,73 169,61 " />
<polygon points="47.7,75.1 47.5,77.9 47.4,80.9 46.9,83.7 46,86.5 44.7,89.2 43.1,91.8 41,94.2 38.7,96.5 36,98.5 33,100.4 28.4,89.3 30.9,88.6 33.2,87.8 35.2,86.9 37.2,85.8 39,84.6 40.7,83.1 42.2,81.5 43.7,79.6 45.1,77.4 45.9,74.8 " />
<polygon points="33,100.4 28.4,100.3 25.2,97.1 25.2,92.5 28.4,89.3 " />
<polygon points="72.3,74.7 75.2,76.2 78.2,77.4 81,78.7 83.5,80.2 85.9,81.8 88.1,83.6 90.1,85.6 91.9,87.6 93.5,89.9 94.8,92.3 83.3,95.8 83.2,94.2 82.9,92.5 82.3,90.7 81.5,88.9 80.5,86.9 79.2,84.8 77.6,82.7 75.9,80.5 73.9,78.2 71.3,76.2 " />
<polygon points="94.8,92.3 94.3,96.9 90.8,99.8 86.3,99.3 83.3,95.8 " />
<polygon points="105.3,73.7 107.4,74.9 109.8,75.8 112.1,76.8 114.2,78.1 116.3,79.5 118.3,81 120.2,82.7 121.9,84.6 123.6,86.6 125.1,88.7 114.2,93.7 113.8,91.8 113.2,89.9 112.6,88.1 111.8,86.2 110.9,84.3 109.9,82.5 108.7,80.6 107.5,78.7 106.1,76.7 104.3,75.2 " />
<polygon points="125.1,88.7 125.3,93.3 122.2,96.7 117.6,96.8 114.2,93.7 " />
<polygon points="145.3,74.7 148.4,76.3 151.6,77.5 154.6,78.9 157.4,80.2 160,81.6 162.5,83 164.8,84.4 166.9,85.8 168.9,87.3 170.8,88.9 161.4,96.4 160.6,94.8 159.6,93.1 158.4,91.3 157,89.4 155.3,87.4 153.5,85.3 151.5,83.1 149.4,80.9 147.1,78.4 144.3,76.2 " />
<polygon points="170.8,88.9 172,93.3 169.8,97.3 165.4,98.5 161.4,96.4 " />
<polygon points="54.2,85.6 57,86.7 59.8,87.5 62.5,88.4 65.1,89.6 67.6,90.8 70,92.2 72.2,93.8 74.4,95.4 76.4,97.2 78.3,99.1 68.3,105.8 67.5,104 66.6,102.1 65.5,100.3 64.3,98.4 62.9,96.5 61.4,94.7 59.7,92.7 57.8,90.8 55.8,88.8 53.4,87.2 " />
<polygon points="78.3,99.1 79.1,103.6 76.6,107.4 72.1,108.3 68.3,105.8 " />
<polygon points="145,91.5 142.8,93.4 140.6,95.3 138.3,97.2 136,99 133.5,100.8 130.9,102.6 128.2,104.4 125.4,106.1 122.4,107.7 119.5,109.6 118.4,108.3 120.6,105.8 122.6,103 124.5,100.4 126.3,97.9 128.1,95.4 129.8,93 131.4,90.7 132.9,88.4 134.3,86.1 135.7,83.9 " />
<polygon points="135.7,83.9 145,91.5 136.1,83.4 " />
<polygon points="145,91.5 146,95 138.8,94.3 " />
<polygon points="30,107 168,107 168,111 30,111 " />
<polygon points="168,107 144,109 156,97 " />
<polygon points="105,108 105,142 93,142 93,108 " />
<polygon points="42,123 157,123 157,127 42,127 " />
<polygon points="157,123 133,125 145,113 " />
<polygon points="20,138 180,138 180,142 20,142 " />
<polygon points="180,138 156,140 168,128 " />
<polygon points="104.9,141.4 103.1,150.4 99.8,158.6 95,165.9 88.8,172.2 81.2,177.5 72.5,181.8 62.5,185.2 51.2,187.7 38.7,189.3 25,189.8 24.9,188.1 38.2,185.5 50,182.5 60.4,179 69.3,175 76.6,170.4 82.5,165.4 87,159.9 90.1,154 92.1,147.6 92.9,140.5 " />
<polygon points="92.9,140.5 104.9,141.4 93,138.3 " />
<polygon points="104.9,141.4 107.7,143.6 101.5,147.1 " />
<polygon points="25,156 175,156 175,160 25,160 " />
<polygon points="175,156 151,158 163,146 " />
<polygon points="104.3,158.1 108.4,160.7 112.8,163 117.6,165.2 123.1,167.2 129.1,169 135.8,170.5 143.2,171.9 151.3,173 160,173.8 169.5,174.4 168.4,187.5 158.6,186.2 149.4,184.6 140.9,182.7 133.2,180.4 126.1,177.8 119.8,174.9 114.2,171.6 109.4,167.9 105.6,163.8 102.9,159.3 " />
<polygon points="168.4,187.5 169.5,174.4 180.3,175.2 " />
</g>
</svg>
