<svg xmlns="http://www.w3.org/2000/svg" xmlns:xlink="http://www.w3.org/1999/xlink" version="1.1" baseProfile="full" viewBox="0 0 200 200" width="200" height="200">
<g fill="black">
<polygon points="20,33 180,33 180,37 20,37 " />
<polygon points="180,33 156,35 168,23 " />
<polygon points="63,33 63,153 51,153 51,33 " />
<polygon points="57,70 139,70 139,74 57,74 " />
<polygon points="57,106 139,106 139,110 57,110 " />
<polygon points="21.3,149.9 32.7,148.9 45.1,147.8 58.7,146.6 73.4,145.2 89.2,143.7 106.1,142.1 124.1,140.4 143.2,138.6 163.5,136.8 184.8,135.1 185.1,136.8 163.9,140.6 143.9,143.9 124.9,146.9 107,149.6 90.2,152.1 74.5,154.4 59.9,156.6 46.4,158.5 33.9,160.2 22.6,161.8 " />
<polygon points="22.6,161.8 21.3,149.9 19.3,150.1 " />
<polygon points="22.6,161.8 24.9,164.6 28.2,158.2 " />
<polygon points="145,33 145,183 133,189 133,33 " />
</g>
</svg>
