<svg xmlns="http://www.w3.org/2000/svg" xmlns:xlink="http://www.w3.org/1999/xlink" version="1.1" baseProfile="full" viewBox="0 0 200 200" width="200" height="200">
<g fill="black">
<polygon points="20,33 180,33 180,37 20,37 " />
<polygon points="180,33 156,35 168,23 " />
<polygon points="63,33 63,151 51,151 51,33 " />
<polygon points="57,70 139,70 139,74 57,74 " />
<polygon points="57,106 139,106 139,110 57,110 " />
<polygon points="20.7,154 184.7,134 185.2,137.9 21.2,157.9 " />
<polygon points="184.7,134 161.1,138.9 171.6,125.5 " />
<polygon points="145,33 145,183 133,189 133,33 " />
</g>
</svg>
