<svg xmlns="http://www.w3.org/2000/svg" xmlns:xlink="http://www.w3.org/1999/xlink" version="1.1" baseProfile="full" viewBox="0 0 200 200" width="200" height="200">
<g fill="black">
<polygon points="20,33 180,33 180,37 20,37 " />
<polygon points="180,33 156,35 168,23 " />
<polygon points="63,33 63,153 51,153 51,33 " />
<polygon points="57,70 139,70 139,74 57,74 " />
<polygon points="57,106 139,106 139,110 57,110 " />
<polygon points="21.1,149.9 28.6,149.1 37.1,148.3 46.5,147.4 56.8,146.3 68.1,145.2 80.4,144 93.5,142.7 107.7,141.4 122.8,140.2 138.8,139.1 139.1,140.8 123.3,144 108.4,146.8 94.4,149.3 81.4,151.5 69.3,153.6 58.1,155.5 47.9,157.3 38.6,158.9 30.2,160.4 22.8,161.8 " />
<polygon points="22.8,161.8 21.1,149.9 19.1,150.1 " />
<polygon points="22.8,161.8 25.2,164.5 28.3,158 " />
<polygon points="145,33 145,183 133,189 133,33 " />
</g>
</svg>
