<svg xmlns="http://www.w3.org/2000/svg" xmlns:xlink="http://www.w3.org/1999/xlink" version="1.1" baseProfile="full" viewBox="0 0 200 200" width="200" height="200">
<g fill="black">
<polygon points="43,36 146,36 146,40 43,40 " />
<polygon points="152,38 152,100 140,106 140,38 " />
<polygon points="140,36 146,31 157,40 152,44 140,38 " />
<polygon points="41,92 146,92 146,96 41,96 " />
<polygon points="21,64 182,64 182,68 21,68 " />
<polygon points="182,64 158,66 170,54 " />
<polygon points="106,15 106,185 94,191 94,13 " />
<polygon points="106,15 109,17 106,19 " />
<polygon points="32,120 166,120 166,124 32,124 " />
<polygon points="166,120 142,122 154,110 " />
<polygon points="19,147 182,147 182,151 19,151 " />
<polygon points="182,147 158,149 170,137 " />
</g>
</svg>
