<svg xmlns="http://www.w3.org/2000/svg" xmlns:xlink="http://www.w3.org/1999/xlink" version="1.1" baseProfile="full" viewBox="0 0 200 200" width="200" height="200">
<g fill="black">
<polygon points="56.7,23.4 56.7,68.5 44.7,74.5 44.7,17.4 " />
<polygon points="50.7,23.4 149.3,23.4 149.3,27.4 50.7,27.4 " />
<polygon points="155.3,25.4 155.3,65.5 143.3,71.5 143.3,25.4 " />
<polygon points="143.3,23.4 149.3,18.4 160.3,27.4 155.3,31.4 143.3,25.4 " />
<polygon points="50.7,57.5 149.3,57.5 149.3,61.5 50.7,61.5 " />
<polygon points="48.8,83.2 48.8,183.2 36.8,189.2 36.8,77.2 " />
<polygon points="42.8,83.2 157.2,83.2 157.2,87.2 42.8,87.2 " />
<polygon points="163.2,85.2 163.2,171.7 151.2,171.7 151.2,85.2 " />
<polygon points="151.2,83.2 157.2,78.2 168.2,87.2 163.2,91.2 151.2,85.2 " />
<polygon points="163.2,171.7 160.7,175.3 157.2,177.7 153.6,175.3 151.2,171.7 " />
<polygon points="163.2,171.7 163,174.2 162.6,176.7 161.8,179.1 160.5,181.4 158.9,183.4 156.9,185 154.6,186.3 152.2,187.1 149.7,187.5 147.2,187.7 147.2,175.7 148.4,175.6 149.3,175.4 149.9,175.2 150.2,175.1 150.4,174.9 150.6,174.7 150.7,174.4 150.9,173.8 151.1,172.9 151.2,171.7 " />
<polygon points="147.2,181.7 147.2,175.7 127.2,175.7 127.2,178.7 " />
<polygon points="42.8,112.7 157.2,112.7 157.2,116.7 42.8,116.7 " />
<polygon points="42.8,142.2 157.2,142.2 157.2,146.2 42.8,146.2 " />
</g>
</svg>
