<svg xmlns="http://www.w3.org/2000/svg" xmlns:xlink="http://www.w3.org/1999/xlink" version="1.1" baseProfile="full" viewBox="0 0 200 200" width="200" height="200">
<g fill="black">
<polygon points="31,39 31,99 19,105 19,37 " />
<polygon points="31,39 34,41 29,44 " />
<polygon points="25,83 52,83 52,87 25,87 " />
<polygon points="10,114 52,114 52,118 10,118 " />
<polygon points="35.9,115.8 35.6,125.2 34.9,134 33.6,142.3 31.9,150 29.8,157.1 27.1,163.6 24,169.5 20.4,174.7 16.2,179.1 11.6,182.6 10.3,181.3 13.3,176.7 15.9,171.8 18.1,166.6 20,160.9 21.6,154.8 22.8,148.1 23.7,140.9 24.2,133.2 24.2,124.9 24,116.1 " />
<polygon points="57.5,47 57.5,133 46.5,133 46.5,41.5 " />
<polygon points="57.5,133 55.3,136.3 52,138.5 48.7,136.3 46.5,133 " />
<polygon points="57.5,133 56.9,142.2 55.7,150.7 53.9,158.5 51.5,165.7 48.5,172.1 44.8,177.8 40.5,182.7 35.6,186.7 30.2,189.7 24.3,191.7 23.6,190.2 28.4,186.7 32.4,182.9 36,178.7 39,174 41.4,168.8 43.4,162.9 45,156.4 46,149.3 46.5,141.5 46.5,133 " />
<polygon points="52,47 181,47 181,51 52,51 " />
<polygon points="181,47 157,49 169,37 " />
<polygon points="149.2,17.6 152.2,18.6 155.2,19.4 158,20.4 160.7,21.5 163.3,22.8 165.8,24.2 168.1,25.7 170.3,27.4 172.4,29.2 174.3,31.1 164.3,37.8 163.5,36 162.6,34.2 161.5,32.3 160.2,30.5 158.7,28.6 157.1,26.7 155.2,24.8 153.2,22.8 151,20.8 148.5,19.2 " />
<polygon points="174.3,31.1 175.1,35.6 172.6,39.4 168.1,40.3 164.3,37.8 " />
<polygon points="141.9,18 142,46.6 143,72.4 144.9,95.3 147.8,115.3 151.5,132.4 156.1,146.6 161.4,157.7 167.3,165.9 173.6,171.3 180.4,174.1 177.5,185.8 167.3,181.4 158.4,174 151,163.8 144.9,150.9 139.9,135.5 136,117.4 133,96.6 131,73.1 130,46.9 129.9,17.9 " />
<polygon points="129.9,18.9 141.9,18 130,15.5 " />
<polygon points="141.9,18 144.9,20.1 139.9,23 " />
<polygon points="180.4,174.1 184,176.9 184.8,181.4 182,185 177.5,185.8 " />
<polygon points="179,175 181,149 179,149 173,175 " />
<polygon points="175.7,71.9 171.9,90.2 167.4,107.2 162.3,122.7 156.6,136.8 150.2,149.4 143.1,160.6 135.4,170.3 127,178.5 118,185 108.4,189.7 107.5,188.2 115.7,181.9 123.3,174.6 130.3,166.2 136.7,156.5 142.7,145.5 148,133.1 152.8,119.4 157.1,104.3 160.8,87.8 163.9,69.9 " />
<polygon points="163.7,70.9 175.7,71.9 164.2,68 " />
<polygon points="175.7,71.9 178.3,74.4 172.9,76.5 " />
<polygon points="75.5,73 75.5,176 66.5,180.5 66.5,68.5 " />
<polygon points="71,73 126,73 126,77 71,77 " />
<polygon points="126,73 106,75 116,64 " />
<polygon points="71,160 129,160 129,164 71,164 " />
<polygon points="129,160 105,162 117,150 " />
<polygon points="71,96 114,96 114,100 71,100 " />
<polygon points="120,98 120,139 108,145 108,98 " />
<polygon points="108,96 114,91 125,100 120,104 108,98 " />
<polygon points="71,129 114,129 114,133 71,133 " />
<polygon points="99.5,73 99.5,100 88.5,100 88.5,73 " />
<polygon points="99.5,129 99.5,164 88.5,164 88.5,129 " />
</g>
</svg>
