<svg xmlns="http://www.w3.org/2000/svg" xmlns:xlink="http://www.w3.org/1999/xlink" version="1.1" baseProfile="full" viewBox="0 0 200 200" width="200" height="200">
<g fill="black">
<polygon points="103.6,21.4 101.4,22.7 99.1,24.1 96.7,25.4 94.2,26.7 91.7,28 89,29.2 86.3,30.4 83.5,31.6 80.6,32.6 77.8,33.9 76.9,32.4 79.2,30.5 81.3,28.2 83.3,26.1 85.3,24 87.2,22 89.1,20 90.9,18 92.6,16.1 94.2,14.2 95.8,12.3 " />
<polygon points="95.8,12.3 103.6,21.4 95.9,12.2 " />
<polygon points="103.6,21.4 104.1,24.9 97.1,23.1 " />
<polygon points="54.2,31.2 54.2,96 42.2,102 42.2,25.2 " />
<polygon points="48.2,31.2 152.7,31.2 152.7,35.2 48.2,35.2 " />
<polygon points="158.7,33.2 158.7,96 146.7,102 146.7,33.2 " />
<polygon points="146.7,31.2 152.7,26.2 163.7,35.2 158.7,39.2 146.7,33.2 " />
<polygon points="48.2,51.3 152.7,51.3 152.7,55.3 48.2,55.3 " />
<polygon points="48.2,70.8 152.7,70.8 152.7,74.8 48.2,74.8 " />
<polygon points="48.2,92 152.7,92 152.7,96 48.2,96 " />
<polygon points="13,157 187,157 187,161 13,161 " />
<polygon points="187,157 163,159 175,147 " />
<polygon points="106,98 106,182 94,188 94,96 " />
<polygon points="106,98 109,100 106,102 " />
<polygon points="41.1,111.2 46.4,111.4 51.5,111.5 56.3,111.9 60.7,112.5 64.9,113.2 68.7,114.1 72.3,115.1 75.6,116.4 78.7,117.8 81.5,119.4 73.8,128.6 72.4,127.1 70.5,125.6 68.2,124 65.5,122.4 62.4,120.8 58.8,119.2 54.9,117.7 50.6,116.1 45.9,114.4 40.8,113 " />
<polygon points="81.5,119.4 83.6,123.5 82.3,127.9 78.2,129.9 73.8,128.6 " />
<polygon points="30.1,142.9 35.7,141.5 41.4,140 47.3,138.5 53.3,137 59.4,135.6 65.8,134.1 72.2,132.7 78.9,131.3 85.7,130.1 92.7,129.1 93.2,130.8 86.8,133.8 80.4,136.5 74.1,139 68,141.4 61.9,143.7 56,145.9 50.3,148.1 44.6,150.2 39.1,152.3 33.7,154.4 " />
<polygon points="33.7,154.4 30.1,142.9 28.2,143.5 " />
<polygon points="33.7,154.4 36.6,156.6 38.5,149.7 " />
<polygon points="155.5,116.8 151.4,118.3 147.1,119.6 142.8,120.9 138.3,122.1 133.8,123.3 129.1,124.3 124.3,125.2 119.4,125.9 114.3,126.4 109.2,126.8 108.7,125.1 113.4,123 118,121 122.5,119.1 126.9,117.2 131.2,115.4 135.3,113.5 139.3,111.6 143.2,109.7 146.9,107.8 150.6,105.9 " />
<polygon points="150.6,105.9 155.5,116.8 159.3,115.1 " />
<polygon points="159.3,115.1 159.5,118.3 151.9,115.2 " />
<polygon points="109.1,129.3 114.4,129.8 119.7,130.5 124.9,131.5 130,132.7 135.2,134 140.3,135.4 145.4,137 150.5,138.6 155.6,140.4 160.6,142.2 155.8,153.2 151.1,150.9 146.4,148.5 141.8,146.3 137.1,144.1 132.3,142 127.6,139.8 122.9,137.7 118.1,135.6 113.4,133.4 108.7,131.1 " />
<polygon points="160.6,142.2 163.8,145.6 163.7,150.2 160.3,153.3 155.8,153.2 " />
</g>
</svg>
