<svg xmlns="http://www.w3.org/2000/svg" xmlns:xlink="http://www.w3.org/1999/xlink" version="1.1" baseProfile="full" viewBox="0 0 200 200" width="200" height="200">
<g fill="black">
<polygon points="103.6,21.4 101.4,22.7 99.1,24.1 96.7,25.4 94.2,26.7 91.7,28 89,29.2 86.3,30.4 83.5,31.6 80.6,32.6 77.8,33.9 76.9,32.4 79.2,30.5 81.3,28.2 83.3,26.1 85.3,24 87.2,22 89.1,20 90.9,18 92.6,16.1 94.2,14.2 95.8,12.3 " />
<polygon points="95,13 103.6,21.4 95.9,12.2 " />
<polygon points="103.6,21.4 104.1,24.9 98.6,23.1 " />
<polygon points="54.2,31.2 54.2,103 42.2,109 42.2,25.2 " />
<polygon points="48.2,31.2 152.7,31.2 152.7,35.2 48.2,35.2 " />
<polygon points="158.7,33.2 158.7,100 146.7,106 146.7,33.2 " />
<polygon points="146.7,31.2 152.7,26.2 163.7,35.2 158.7,39.2 146.7,33.2 " />
<polygon points="48.2,51.3 152.7,51.3 152.7,55.3 48.2,55.3 " />
<polygon points="48.2,70.8 152.7,70.8 152.7,74.8 48.2,74.8 " />
<polygon points="48.2,92 152.7,92 152.7,96 48.2,96 " />
<polygon points="13,157 187,157 187,161 13,161 " />
<polygon points="187,157 163,159 175,147 " />
<polygon points="106,98 106,182 94,188 94,96 " />
<polygon points="106,98 109,100 104,103 " />
<polygon points="26,117 174,117 174,121 26,121 " />
<polygon points="174,117 154,119 164,108 " />
<polygon points="26,138 174,138 174,142 26,142 " />
<polygon points="174,138 154,140 164,129 " />
</g>
</svg>
