<svg xmlns="http://www.w3.org/2000/svg" xmlns:xlink="http://www.w3.org/1999/xlink" version="1.1" baseProfile="full" viewBox="0 0 200 200" width="200" height="200">
<g fill="black">
<polygon points="30.6,29 30.6,184 18.6,190 18.6,23 " />
<polygon points="24.6,29 96.7,29 96.7,33 24.6,33 " />
<polygon points="96.7,29 72.7,31 84.7,19 " />
<polygon points="63.5,29 63.5,76 51.5,76 51.5,29 " />
<polygon points="24.6,72 85.4,72 85.4,76 24.6,76 " />
<polygon points="91.4,74 91.4,131 79.4,137 79.4,74 " />
<polygon points="79.4,72 85.4,67 96.4,76 91.4,80 79.4,74 " />
<polygon points="24.6,121 85.4,121 85.4,125 24.6,125 " />
<polygon points="63.5,121 63.5,172 51.5,172 51.5,121 " />
<polygon points="24.6,168 99.1,168 99.1,172 24.6,172 " />
<polygon points="99.1,168 75.1,170 87.1,158 " />
<polygon points="141,19.8 140.6,48.4 139,74.5 136,98.1 131.6,119.2 126,137.8 118.9,153.9 110.5,167.3 100.7,178 89.5,185.9 77.3,190.8 76.6,189.1 87.5,182.7 96.9,174.2 105.1,163.5 112.1,150.5 117.9,135.1 122.6,117.1 126,96.7 128.3,73.7 129.2,48.1 129,20.1 " />
<polygon points="129,20.1 141,19.8 128.9,17.7 " />
<polygon points="141,19.8 144,21.8 138.1,25.9 " />
<polygon points="138.9,30.9 140.6,50.3 142.9,68.5 145.6,85.5 149.1,101.4 153.2,116.2 158,129.8 163.5,142.2 169.6,153.5 176.5,163.6 183.9,172.6 174,181.3 166.2,170.8 159.4,159.3 153.4,146.8 148.4,133.2 144.2,118.7 140.9,103.2 138.5,86.6 137,69.1 136.5,50.5 137.1,31 " />
<polygon points="174,181.3 183.9,172.6 184.7,173.5 " />
</g>
</svg>
