<svg xmlns="http://www.w3.org/2000/svg" xmlns:xlink="http://www.w3.org/1999/xlink" version="1.1" baseProfile="full" viewBox="0 0 200 200" width="200" height="200">
<g fill="black">
<polygon points="48,41 182,41 182,45 48,45 " />
<polygon points="182,41 158,43 170,31 " />
<polygon points="53.5,41 53.5,118 42.5,118 42.5,35.5 " />
<polygon points="53.5,118 51.3,121.3 48,123.5 44.7,121.3 42.5,118 " />
<polygon points="53.4,118.2 52.5,126.8 51,135 49.1,142.9 46.6,150.5 43.6,157.7 40,164.5 36,170.9 31.4,177 26.2,182.5 20.5,187.5 19.4,186.4 23.6,180.3 27.4,174.1 30.8,167.9 33.8,161.4 36.3,154.7 38.5,147.8 40.1,140.7 41.3,133.3 42.1,125.6 42.5,117.7 " />
<polygon points="17.3,57.7 19.9,59 22.7,60.1 25.4,61.4 28,62.9 30.5,64.6 32.9,66.4 35.2,68.4 37.4,70.6 39.5,72.9 41.6,75.3 31.3,81.5 30.2,79 29.1,76.7 27.8,74.3 26.5,72.1 25.1,69.8 23.6,67.6 22,65.4 20.3,63.3 18.5,61.1 16.3,59.2 " />
<polygon points="41.6,75.3 42.2,79.8 39.5,83.5 35,84.1 31.3,81.5 " />
<polygon points="12.1,129.4 14.7,126.6 17.3,123.7 20,121 22.8,118.3 25.7,115.6 28.6,113 31.7,110.5 34.8,108 38.1,105.7 41.3,103.3 42.6,104.6 40.3,107.8 38.1,111.2 36,114.4 33.8,117.6 31.7,120.8 29.6,124 27.6,127.1 25.6,130.2 23.7,133.4 21.8,136.5 " />
<polygon points="144.9,17.1 144.8,45.5 145.7,71 147.5,93.6 150.3,113.3 154,130.1 158.6,143.9 163.9,154.7 169.8,162.5 176.2,167.5 183.1,170.1 180.8,181.8 170.3,178 161.2,170.9 153.6,161 147.4,148.4 142.4,133.3 138.5,115.4 135.6,94.9 133.7,71.6 132.8,45.6 132.9,16.8 " />
<polygon points="132.9,17.8 144.9,17.1 133,14.5 " />
<polygon points="144.9,17.1 147.9,19.1 142.8,22 " />
<polygon points="183.1,170.1 186.9,172.6 187.8,177.1 185.3,180.9 180.8,181.8 " />
<polygon points="182,171 184,145 182,145 176,171 " />
<polygon points="148.2,11.5 151.1,12.4 154.2,13 157,13.9 159.8,14.9 162.5,16.2 165.1,17.6 167.5,19.2 169.9,21 172.1,23 174.2,25.1 164.3,31.9 163.3,29.9 162.2,27.9 161,26 159.6,24.1 158,22.2 156.3,20.3 154.4,18.4 152.3,16.5 150.1,14.6 147.5,13.2 " />
<polygon points="174.2,25.1 175.1,29.5 172.7,33.4 168.2,34.3 164.3,31.9 " />
<polygon points="180.5,77.4 175.7,93.1 170.3,107.8 164.3,121.3 157.7,133.8 150.5,145.2 142.6,155.5 134.2,164.7 125.2,172.7 115.6,179.4 105.4,184.7 104.5,183.2 113.4,176.3 121.6,168.7 129.4,160.2 136.6,150.9 143.3,140.6 149.5,129.4 155.1,117.2 160.3,103.9 164.8,89.7 168.9,74.4 " />
<polygon points="168.6,75.4 180.5,77.4 169.3,72.7 " />
<polygon points="180.5,77.4 182.9,80.1 177.3,81.8 " />
<polygon points="72.9,62.1 72.9,168.5 61.9,174 61.9,56.6 " />
<polygon points="67.4,62.1 124.8,62.1 124.8,66.1 67.4,66.1 " />
<polygon points="124.8,62.1 104.8,64.1 114.8,53.1 " />
<polygon points="99.6,62.1 99.6,94.1 87.6,94.1 87.6,62.1 " />
<polygon points="67.4,90.1 115.8,90.1 115.8,94.1 67.4,94.1 " />
<polygon points="121.8,92.1 121.8,131.9 109.8,137.9 109.8,92.1 " />
<polygon points="109.8,90.1 115.8,85.1 126.8,94.1 121.8,98.1 109.8,92.1 " />
<polygon points="67.4,121.9 115.8,121.9 115.8,125.9 67.4,125.9 " />
<polygon points="99.6,121.9 99.6,156.5 87.6,156.5 87.6,121.9 " />
<polygon points="67.4,152.5 126.7,152.5 126.7,156.5 67.4,156.5 " />
<polygon points="126.7,152.5 102.7,154.5 114.7,142.5 " />
</g>
</svg>
