<svg xmlns="http://www.w3.org/2000/svg" xmlns:xlink="http://www.w3.org/1999/xlink" version="1.1" baseProfile="full" viewBox="0 0 200 200" width="200" height="200">
<g fill="black">
<polygon points="38,29 38,184 26,190 26,23 " />
<polygon points="32,29 179,29 179,33 32,33 " />
<polygon points="179,29 155,31 167,19 " />
<polygon points="105,29 105,76 93,76 93,29 " />
<polygon points="32,72 156,72 156,76 32,76 " />
<polygon points="162,74 162,131 150,137 150,74 " />
<polygon points="150,72 156,67 167,76 162,80 150,74 " />
<polygon points="32,121 156,121 156,125 32,125 " />
<polygon points="105,121 105,172 93,172 93,121 " />
<polygon points="32,168 184,168 184,172 32,172 " />
<polygon points="184,168 160,170 172,158 " />
</g>
</svg>
