<svg xmlns="http://www.w3.org/2000/svg" xmlns:xlink="http://www.w3.org/1999/xlink" version="1.1" baseProfile="full" viewBox="0 0 200 200" width="200" height="200">
<g fill="black">
<polygon points="85.1,81.9 80.2,83.4 75.3,84.7 70.2,86 65.1,87.1 59.8,88.1 54.5,89 49,89.8 43.5,90.4 37.9,90.8 32.1,90.8 31.8,89.1 37.1,87.1 42.4,85.2 47.6,83.4 52.6,81.7 57.6,79.9 62.5,78.2 67.3,76.4 71.9,74.5 76.5,72.6 80.9,70.7 " />
<polygon points="80.9,70.7 85.1,81.9 90.3,80 " />
<polygon points="90.3,80 90.5,83.1 82.6,79.7 " />
<polygon points="38,88 38,185 26,191 26,86 " />
<polygon points="38,88 41,90 38,92 " />
<polygon points="32,130 85,130 85,134 32,134 " />
<polygon points="85,130 61,132 73,120 " />
<polygon points="32,174 170,174 170,178 32,178 " />
<polygon points="176,90 176,182 164,188 164,90 " />
<polygon points="164,88 170,83 181,92 176,96 164,90 " />
<polygon points="116,88 170,88 170,92 116,92 " />
<polygon points="116,130 170,130 170,134 116,134 " />
<polygon points="29,20 171,20 171,24 29,24 " />
<polygon points="171,20 147,22 159,10 " />
<polygon points="15,56 190,56 190,60 15,60 " />
<polygon points="190,56 166,58 178,46 " />
<polygon points="107,23 107,176 95,176 95,23 " />
</g>
</svg>
