<svg xmlns="http://www.w3.org/2000/svg" xmlns:xlink="http://www.w3.org/1999/xlink" version="1.1" baseProfile="full" viewBox="0 0 200 200" width="200" height="200">
<g fill="black">
<polygon points="104.1,32.9 98.1,34.8 92,36.6 85.8,38.3 79.6,40 73.2,41.6 66.8,43.1 60.3,44.6 53.7,45.9 47,47 40.2,47.8 39.7,46.1 46,43.3 52.2,40.7 58.5,38.3 64.6,35.9 70.7,33.5 76.7,31.1 82.6,28.8 88.5,26.4 94.2,24 99.9,21.7 " />
<polygon points="99.9,21.7 104.1,32.9 109.4,31 " />
<polygon points="109.4,31 109.6,34.1 101.6,30.6 " />
<polygon points="46,44 46,183 34,189 34,42 " />
<polygon points="46,44 49,46 46,48 " />
<polygon points="40,105 96,105 96,109 40,109 " />
<polygon points="96,105 72,107 84,95 " />
<polygon points="40,167 162,167 162,171 40,171 " />
<polygon points="168,47 168,177 156,183 156,47 " />
<polygon points="156,45 162,40 173,49 168,53 156,47 " />
<polygon points="112,45 162,45 162,49 112,49 " />
<polygon points="109,105 162,105 162,109 109,109 " />
</g>
</svg>
