<svg xmlns="http://www.w3.org/2000/svg" xmlns:xlink="http://www.w3.org/1999/xlink" version="1.1" baseProfile="full" viewBox="0 0 200 200" width="200" height="200">
<g fill="black">
<polygon points="84.3,34.6 80.7,36.3 76.9,37.9 72.9,39.5 68.7,40.9 64.2,42.2 59.5,43.4 54.6,44.5 49.4,45.5 43.9,46.2 38.2,46.8 37.7,45.1 43,42.8 47.9,40.6 52.6,38.5 57.1,36.5 61.3,34.5 65.2,32.4 68.8,30.4 72.1,28.4 75.2,26.4 77.9,24.4 " />
<polygon points="77.9,24.4 84.3,34.6 85.5,33.8 " />
<polygon points="85.5,33.8 85.6,37.3 78.6,34.6 " />
<polygon points="44,42 44,136 32,142 32,40 " />
<polygon points="44,42 47,44 44,46 " />
<polygon points="38,77 84,77 84,81 38,81 " />
<polygon points="84,77 64,79 74,68 " />
<polygon points="120,120 163,120 163,124 120,124 " />
<polygon points="169,41 169,130 157,136 157,41 " />
<polygon points="157,39 163,34 174,43 169,47 157,41 " />
<polygon points="120,39 163,39 163,43 120,43 " />
<polygon points="120,77 163,77 163,81 120,81 " />
<polygon points="109,17 109,92 97,92 97,15 " />
<polygon points="109,17 112,19 109,21 " />
<polygon points="109,92 106.6,95.6 103,98 99.4,95.6 97,92 " />
<polygon points="109,92 107.8,106.9 104.9,120.8 100.2,133.5 93.8,145.1 85.7,155.5 75.9,164.6 64.5,172.3 51.6,178.8 37.2,184 21.2,187.8 20.7,186.1 35.9,180.4 49.3,174 61,166.8 71,158.8 79.2,149.9 85.9,140.2 90.9,129.6 94.5,118.1 96.5,105.5 97,92 " />
<polygon points="105.9,82.9 108.3,99 111.7,113.4 116,126.2 121.5,137.3 128,146.9 135.5,155 144.2,161.7 153.9,166.9 164.9,170.8 177.1,173.5 174.8,186.4 161.1,182.8 148.8,177.5 137.8,170.7 128.4,162.3 120.4,152.5 114.1,141.2 109.2,128.6 105.9,114.7 104.2,99.5 104.1,83 " />
<polygon points="174.8,186.4 177.1,173.5 186.6,175.1 " />
<polygon points="38,120 85,120 85,124 38,124 " />
<polygon points="85,120 65,122 75,111 " />
</g>
</svg>
