<svg xmlns="http://www.w3.org/2000/svg" xmlns:xlink="http://www.w3.org/1999/xlink" version="1.1" baseProfile="full" viewBox="0 0 200 200" width="200" height="200">
<g fill="black">
<polygon points="103,28.7 97,31.5 90.9,34.2 84.6,36.8 78.1,39.2 71.5,41.5 64.8,43.6 57.9,45.6 50.9,47.3 43.6,48.7 36.2,49.8 35.7,48.1 42.5,45.1 49.2,42.2 55.8,39.3 62.2,36.5 68.4,33.6 74.5,30.7 80.4,27.7 86.2,24.6 91.8,21.4 97.2,18.2 " />
<polygon points="105.2,27.5 103,28.7 96.3,18.7 " />
<polygon points="105.2,27.5 105.3,30.8 99.4,28.4 " />
<polygon points="42,47 42,182 30,188 30,41 " />
<polygon points="102,44 164,44 164,48 102,48 " />
<polygon points="170,46 170,176 158,182 158,46 " />
<polygon points="158,44 164,39 175,48 170,52 158,46 " />
<polygon points="36,103 164,103 164,107 36,107 " />
<polygon points="36,166 164,166 164,170 36,170 " />
</g>
</svg>
