<svg xmlns="http://www.w3.org/2000/svg" xmlns:xlink="http://www.w3.org/1999/xlink" version="1.1" baseProfile="full" viewBox="0 0 200 200" width="200" height="200">
<g fill="black">
<polygon points="82.6,95 78.9,95.6 75.1,96.3 71,96.9 66.8,97.5 62.4,98 57.7,98.6 52.9,99 47.8,99.4 42.6,99.7 37.1,99.8 36.8,98.1 41.9,96.2 46.9,94.5 51.6,92.9 56.2,91.4 60.6,90 64.7,88.6 68.7,87.3 72.5,86 76,84.7 79.4,83.4 " />
<polygon points="89.6,93.1 82.6,95 78.4,83.7 " />
<polygon points="89.6,93.1 89.9,96.1 82.9,92.9 " />
<polygon points="43,98 43,182 31,188 31,96 " />
<polygon points="43,98 46,100 41,103 " />
<polygon points="37,132 86,132 86,136 37,136 " />
<polygon points="86,132 66,134 76,123 " />
<polygon points="37,171 162,171 162,175 37,175 " />
<polygon points="168,99 168,179 156,185 156,99 " />
<polygon points="156,97 162,92 173,101 168,105 156,99 " />
<polygon points="116,97 162,97 162,101 116,101 " />
<polygon points="117,132 162,132 162,136 117,136 " />
<polygon points="158.1,26.9 148.7,29.7 138.6,32.2 127.8,34.5 116.3,36.4 104.1,38 91.1,39.3 77.5,40.3 63,40.9 47.9,41.1 32,40.8 31.9,39.1 47.7,37.3 62.6,35.6 76.8,33.7 90.2,31.8 102.8,29.6 114.7,27.2 125.7,24.6 135.9,21.9 145.3,18.9 154,15.7 " />
<polygon points="163.4,25 158.1,26.9 153,16 " />
<polygon points="163.4,25 163.6,28.1 157,25.2 " />
<polygon points="17,65 183,65 183,69 17,69 " />
<polygon points="183,65 159,67 171,55 " />
<polygon points="106,34 106,173 94,173 94,34 " />
</g>
</svg>
