<svg xmlns="http://www.w3.org/2000/svg" xmlns:xlink="http://www.w3.org/1999/xlink" version="1.1" baseProfile="full" viewBox="0 0 200 200" width="200" height="200">
<g fill="black">
<polygon points="106,75.8 106,93.6 94,93.6 94,73.8 " />
<polygon points="106,75.8 109,77.8 104,80.8 " />
<polygon points="33.8,86.6 34.5,89.3 35.3,91.9 35.8,94.6 35.9,97.3 35.6,100 34.9,102.7 33.7,105.3 32.2,107.8 30.2,110.2 27.9,112.3 21.5,102.2 23.3,101.4 24.9,100.6 26.4,99.7 27.7,98.6 28.9,97.3 29.9,95.8 30.8,94 31.6,91.9 32.2,89.5 32.1,86.9 " />
<polygon points="27.9,112.3 23.4,113 19.7,110.4 18.9,105.9 21.5,102.2 " />
<polygon points="30.8,90.4 173.9,90.4 173.9,94.4 30.8,94.4 " />
<polygon points="178.3,96.4 176.8,97.3 175.2,98.3 173.5,99.4 171.5,100.6 169.4,101.9 167.1,103.3 164.6,104.8 162,106.3 159,107.9 156.2,110 155,108.6 157.4,106.1 159.4,103.4 161.2,100.9 162.9,98.6 164.4,96.5 165.8,94.5 167,92.7 168,91.1 168.8,89.6 169.5,88.3 " />
<polygon points="167.9,90.4 173.9,85.4 184.9,94.4 179.9,97.4 167.9,102.4 " />
<polygon points="87.8,98.5 84.5,103.7 80.4,108.4 75.4,112.5 69.6,116 63.1,119.1 55.7,121.8 47.6,124 38.7,125.8 29,127.1 18.5,127.8 18.2,126.1 28.3,123.4 37.5,120.6 45.7,117.8 53,114.7 59.4,111.5 64.7,108.1 69.1,104.6 72.6,101 75.1,97.3 76.8,93.6 " />
<polygon points="76.4,94.6 87.8,98.5 77.3,92.4 " />
<polygon points="87.8,98.5 89.7,101.5 83.9,102.3 " />
<polygon points="124.7,95 124.7,108.6 113.7,108.6 113.7,93 " />
<polygon points="124.7,95 127.4,97 122.7,100 " />
<polygon points="124.7,108.6 122.5,111.9 119.2,114.1 115.9,111.9 113.7,108.6 " />
<polygon points="124.7,108.6 124.6,109.9 124.6,110.9 124.7,111.7 124.8,112.2 125,112.7 125.3,113.1 125.8,113.6 126.6,114 127.7,114.3 129.2,114.6 129.2,122.6 126.8,122.6 124.5,122.3 122.3,121.7 120.2,120.8 118.3,119.4 116.7,117.7 115.4,115.6 114.5,113.4 113.9,111 113.7,108.6 " />
<polygon points="129.2,114.6 132,115.8 133.2,118.6 132,121.4 129.2,122.6 " />
<polygon points="129.2,114.6 174.8,114.6 174.8,122.6 129.2,122.6 " />
<polygon points="174.8,114.6 177.2,116.2 178.8,118.6 177.2,121 174.8,122.6 " />
<polygon points="170.8,115.6 174.8,105.6 176.8,105.6 174.8,115.6 " />
<polygon points="104.5,117.3 104.5,136.3 93.5,136.3 93.5,115.3 " />
<polygon points="104.5,117.3 107.2,119.3 102.5,122.3 " />
<polygon points="17,132.3 184,132.3 184,136.3 17,136.3 " />
<polygon points="184,132.3 164,134.3 174,123.3 " />
<polygon points="78,150.3 146,150.3 146,154.3 78,154.3 " />
<polygon points="152,152.3 151.8,157.3 151.4,162 150.7,166.3 149.7,170.3 148.4,173.9 146.6,177.2 144.4,180.2 141.7,182.7 138.6,184.6 135.1,185.8 132.1,174.2 133.4,173.8 134.4,173.1 135.4,172.2 136.4,170.8 137.4,169 138.2,166.7 139,163.9 139.5,160.5 139.8,156.7 140,152.3 " />
<polygon points="140,150.3 146,145.3 157,154.3 152,157.3 140,162.3 " />
<polygon points="135.1,185.8 130.6,185.1 127.8,181.5 128.5,177 132.1,174.2 " />
<polygon points="135.1,185.8 133.1,186.3 131,186.8 128.9,187.2 126.8,187.6 124.6,187.9 122.5,188.1 120.4,188.3 118.2,188.4 116.1,188.5 114,188.6 114,176.6 115.8,176.5 117.6,176.5 119.5,176.3 121.3,176.2 123.1,176 124.9,175.7 126.7,175.4 128.5,175.1 130.3,174.7 132.1,174.2 " />
<polygon points="114,182.6 114,176.6 94,176.6 94,179.6 " />
<polygon points="86.9,137.1 85.6,144.7 83.1,151.9 79.6,158.6 75,164.7 69.4,170.2 62.8,175.1 55.3,179.5 46.9,183.4 37.5,186.6 27.2,189.2 26.7,187.5 36.2,183 44.6,178.5 52,173.9 58.3,169.1 63.5,164.1 67.7,158.9 70.9,153.6 73.1,148.1 74.4,142.4 74.9,136.4 " />
<polygon points="74.8,137.4 86.9,137.1 75,134.2 " />
<polygon points="86.9,137.1 89.8,139.2 84.6,142 " />
<polygon points="91.1,24.2 88.9,24.9 86.7,25.6 84.4,26.3 82,26.9 79.5,27.5 77,28.1 74.4,28.6 71.7,29 68.9,29.3 66.3,30 65.6,28.3 68.1,27.1 70.3,25.4 72.4,23.9 74.5,22.3 76.4,20.9 78.3,19.4 80.2,18 81.9,16.6 83.5,15.2 85.1,13.8 " />
<polygon points="84.2,14.3 91.1,24.2 92.8,23.1 " />
<polygon points="92.8,23.1 93,26.5 87.2,24.1 " />
<polygon points="54,27.2 54,74.9 42,80.9 42,21.2 " />
<polygon points="48,27.2 153,27.2 153,31.2 48,31.2 " />
<polygon points="159,29.2 159,73.9 147,79.9 147,29.2 " />
<polygon points="147,27.2 153,22.2 164,31.2 159,35.2 147,29.2 " />
<polygon points="48,46.8 153,46.8 153,50.8 48,50.8 " />
<polygon points="48,67.9 153,67.9 153,71.9 48,71.9 " />
</g>
</svg>
