<svg xmlns="http://www.w3.org/2000/svg" xmlns:xlink="http://www.w3.org/1999/xlink" version="1.1" baseProfile="full" viewBox="0 0 200 200" width="200" height="200">
<g fill="black">
<polygon points="102.3,23.4 100.1,24.2 97.8,25 95.5,25.8 93.1,26.6 90.7,27.3 88.2,28 85.5,28.7 82.8,29.3 80,29.8 77.3,30.7 76.6,29 79,27.6 81.2,25.7 83.3,24 85.3,22.4 87.3,20.8 89.2,19.2 91,17.7 92.7,16.1 94.4,14.7 95.9,13.2 " />
<polygon points="95.1,13.7 102.3,23.4 103.5,22.6 " />
<polygon points="103.5,22.6 103.7,26.1 98,23.7 " />
<polygon points="54,27.8 54,74.9 42,80.9 42,21.8 " />
<polygon points="48,27.8 152,27.8 152,31.8 48,31.8 " />
<polygon points="158,29.8 158,74.9 146,80.9 146,29.8 " />
<polygon points="146,27.8 152,22.8 163,31.8 158,35.8 146,29.8 " />
<polygon points="48,42.1 152,42.1 152,46.1 48,46.1 " />
<polygon points="48,55.9 152,55.9 152,59.9 48,59.9 " />
<polygon points="48,70.9 152,70.9 152,74.9 48,74.9 " />
<polygon points="33.8,85.8 34.5,88.6 35.4,91.2 35.8,93.9 35.9,96.7 35.6,99.4 34.9,102.1 33.7,104.7 32.2,107.2 30.2,109.6 27.9,111.8 21.5,101.6 23.3,100.9 24.9,100.1 26.4,99.1 27.7,98 28.9,96.7 29.9,95.2 30.8,93.3 31.6,91.2 32.2,88.8 32.1,86.2 " />
<polygon points="27.9,111.8 23.4,112.5 19.7,109.9 18.9,105.4 21.5,101.6 " />
<polygon points="30.8,89.7 173.9,89.7 173.9,93.7 30.8,93.7 " />
<polygon points="178.3,95.7 176.8,96.6 175.2,97.7 173.5,98.8 171.5,100 169.4,101.3 167.1,102.7 164.7,104.2 162,105.7 159,107.4 156.2,109.4 155,108.1 157.4,105.6 159.4,102.8 161.2,100.3 162.9,98 164.4,95.9 165.7,93.9 166.9,92.1 168,90.4 168.8,88.9 169.5,87.6 " />
<polygon points="167.9,89.7 173.9,84.7 184.9,93.7 179.9,96.7 167.9,101.7 " />
<polygon points="87.1,98.2 84,103.4 79.9,108.1 75,112.3 69.2,115.9 62.7,119 55.4,121.7 47.3,123.9 38.4,125.8 28.7,127.1 18.1,127.8 17.8,126.1 27.9,123.3 37.1,120.5 45.4,117.7 52.7,114.6 59,111.4 64.3,108 68.6,104.5 72,100.9 74.4,97.2 76,93.6 " />
<polygon points="75.6,94.5 87.1,98.2 76.6,92.3 " />
<polygon points="87.1,98.2 89.1,101.2 83.3,102 " />
<polygon points="124.5,95 124.5,108 113.5,108 113.5,93 " />
<polygon points="124.5,95 127.2,97 122.5,100 " />
<polygon points="124.5,108 122.3,111.3 119,113.5 115.7,111.3 113.5,108 " />
<polygon points="124.5,108 124.4,109.3 124.4,110.3 124.5,111.1 124.6,111.6 124.8,112.1 125.1,112.5 125.6,113 126.4,113.4 127.5,113.7 129,114 129,122 126.6,122 124.3,121.7 122.1,121.1 120,120.2 118.1,118.8 116.5,117.1 115.2,115 114.3,112.8 113.7,110.4 113.5,108 " />
<polygon points="129,114 131.8,115.2 133,118 131.8,120.8 129,122 " />
<polygon points="129,114 174,114 174,122 129,122 " />
<polygon points="174,114 176.4,115.6 178,118 176.4,120.4 174,122 " />
<polygon points="170,115 174,105 176,105 174,115 " />
<polygon points="104.5,117.3 104.5,136.3 93.5,136.3 93.5,115.3 " />
<polygon points="104.5,117.3 107.2,119.3 102.5,122.3 " />
<polygon points="17,132.3 184,132.3 184,136.3 17,136.3 " />
<polygon points="184,132.3 164,134.3 174,123.3 " />
<polygon points="78,150.3 146,150.3 146,154.3 78,154.3 " />
<polygon points="152,152.3 151.8,157.3 151.4,162 150.7,166.3 149.7,170.3 148.4,173.9 146.6,177.2 144.4,180.2 141.7,182.7 138.6,184.6 135.1,185.8 132.1,174.2 133.4,173.8 134.4,173.1 135.4,172.2 136.4,170.8 137.4,169 138.2,166.7 139,163.9 139.5,160.5 139.8,156.7 140,152.3 " />
<polygon points="140,150.3 146,145.3 157,154.3 152,157.3 140,162.3 " />
<polygon points="135.1,185.8 130.6,185.1 127.8,181.5 128.5,177 132.1,174.2 " />
<polygon points="135.1,185.8 133.1,186.3 131,186.8 128.9,187.2 126.8,187.6 124.6,187.9 122.5,188.1 120.4,188.3 118.2,188.4 116.1,188.5 114,188.6 114,176.6 115.8,176.5 117.6,176.5 119.5,176.3 121.3,176.2 123.1,176 124.9,175.7 126.7,175.4 128.5,175.1 130.3,174.7 132.1,174.2 " />
<polygon points="114,182.6 114,176.6 94,176.6 94,179.6 " />
<polygon points="86.9,137.1 85.6,144.7 83.1,151.9 79.6,158.6 75,164.7 69.4,170.2 62.8,175.1 55.3,179.5 46.9,183.4 37.5,186.6 27.2,189.2 26.7,187.5 36.2,183 44.6,178.5 52,173.9 58.3,169.1 63.5,164.1 67.7,158.9 70.9,153.6 73.1,148.1 74.4,142.4 74.9,136.4 " />
<polygon points="74.8,137.4 86.9,137.1 75,134.2 " />
<polygon points="86.9,137.1 89.8,139.2 84.6,142 " />
</g>
</svg>
