<svg xmlns="http://www.w3.org/2000/svg" xmlns:xlink="http://www.w3.org/1999/xlink" version="1.1" baseProfile="full" viewBox="0 0 200 200" width="200" height="200">
<g fill="black">
<polygon points="97.1,24.9 92.2,26.4 87.1,27.8 81.9,29.1 76.5,30.4 70.9,31.6 65.1,32.8 59.2,33.8 53,34.7 46.7,35.4 40.1,35.8 39.8,34.1 45.8,31.7 51.8,29.5 57.5,27.4 63.1,25.4 68.6,23.5 73.8,21.5 78.9,19.6 83.7,17.6 88.4,15.6 92.9,13.7 " />
<polygon points="92,14 97.1,24.9 102.3,23 " />
<polygon points="102.3,23 102.5,26.1 95.8,23.3 " />
<polygon points="46,33 46,103 34,109 34,27 " />
<polygon points="40,58 97,58 97,62 40,62 " />
<polygon points="97,58 73,60 85,48 " />
<polygon points="110,29 160,29 160,33 110,33 " />
<polygon points="166,31 166,95 154,101 154,31 " />
<polygon points="154,29 160,24 171,33 166,37 154,31 " />
<polygon points="109,58 160,58 160,62 109,62 " />
<polygon points="40,87 160,87 160,91 40,91 " />
<polygon points="85.5,96.9 80.6,104 75.2,110.7 69.3,117.1 63.1,123.1 56.4,128.8 49.3,134.2 41.7,139.2 33.7,143.9 25.3,148.1 16.4,151.8 15.5,150.1 23.4,144.8 30.8,139.4 37.9,133.9 44.5,128.3 50.8,122.5 56.5,116.5 61.9,110.4 66.8,104 71.3,97.4 75.3,90.7 " />
<polygon points="74.8,91.5 85.5,96.9 75.8,89.8 " />
<polygon points="85.5,96.9 87.1,100.2 81.2,100.2 " />
<polygon points="67,112 173,112 173,116 67,116 " />
<polygon points="179,114 178.9,122.6 178.6,130.7 178.2,138.2 177.6,145.1 176.8,151.6 175.9,157.5 174.7,162.9 173.4,167.7 171.8,172.1 170,176 159.4,170.3 160.7,167.6 162,164.1 163.1,160 164.1,155.3 164.9,149.9 165.7,143.9 166.2,137.3 166.6,130.1 166.9,122.3 167,114 " />
<polygon points="167,112 173,107 184,116 179,119 167,124 " />
<polygon points="170,176 166.4,178.9 161.9,178.4 159,174.8 159.4,170.3 " />
<polygon points="170,176 168.7,178.2 167.2,180.1 165.6,181.9 163.7,183.5 161.7,184.9 159.6,186 157.3,186.9 154.9,187.5 152.5,187.8 150,188 150,176 151.3,175.9 152.6,175.7 153.7,175.4 154.7,175.1 155.6,174.6 156.4,174 157.2,173.3 158,172.5 158.7,171.5 159.4,170.3 " />
<polygon points="150,182 150,176 130,176 130,179 " />
<polygon points="53.9,133.9 54.7,140 55.2,145.8 55.1,151.2 54.5,156.4 53.4,161.2 51.9,165.8 49.9,170 47.3,173.9 44.3,177.4 40.7,180.4 34.3,170.3 36.9,168.7 39.4,166.8 41.7,164.5 43.8,161.7 45.7,158.4 47.5,154.5 48.9,150.2 50.2,145.3 51.3,139.9 52.1,134 " />
<polygon points="40.7,180.4 36.2,181.1 32.4,178.6 31.7,174 34.3,170.3 " />
<polygon points="73.2,132.4 75.7,136.2 78.1,139.8 80.2,143.4 81.9,147 83.3,150.6 84.4,154.2 85.2,157.8 85.6,161.3 85.7,164.9 85.5,168.4 73.8,165.7 74.6,163.4 75.2,161 75.6,158.3 75.7,155.4 75.7,152.2 75.4,148.9 74.8,145.3 74,141.5 73.1,137.4 71.6,133.3 " />
<polygon points="85.5,168.4 82.8,172.1 78.3,172.9 74.6,170.2 73.8,165.7 " />
<polygon points="95.3,129.9 98.4,132.1 101.6,134.3 104.5,136.7 107.1,139.3 109.6,142.1 111.8,145.1 113.8,148.3 115.5,151.7 117,155.2 118.2,158.8 106.5,161.2 106.1,158.1 105.6,155.1 104.9,152.1 104,149.1 102.9,146.1 101.6,143.2 100.1,140.2 98.3,137.2 96.5,134.1 94.1,131.3 " />
<polygon points="118.2,158.8 117.3,163.3 113.5,165.9 109.1,165 106.5,161.2 " />
<polygon points="119.3,125.6 123.1,127.2 126.8,128.6 130.3,130.3 133.6,132.2 136.6,134.4 139.4,136.7 142,139.2 144.4,141.9 146.5,144.8 148.4,147.9 137.3,152.5 136.5,149.9 135.6,147.4 134.3,144.9 132.9,142.4 131.2,139.9 129.2,137.3 126.9,134.8 124.4,132.2 121.6,129.6 118.4,127.2 " />
<polygon points="148.4,147.9 148.3,152.5 145.1,155.7 140.5,155.7 137.3,152.5 " />
</g>
</svg>
