<svg xmlns="http://www.w3.org/2000/svg" xmlns:xlink="http://www.w3.org/1999/xlink" version="1.1" baseProfile="full" viewBox="0 0 200 200" width="200" height="200">
<g fill="black">
<polygon points="109.3,22.2 102.8,30.2 95.7,37.9 88,45.2 79.7,52.2 70.9,58.8 61.4,65 51.3,70.9 40.6,76.3 29.3,81.3 17.3,85.8 16.6,84.1 27.6,77.9 38,71.6 47.9,65.3 57.1,58.7 65.7,52 73.7,45.1 81.1,38 87.8,30.6 94,23.1 99.5,15.3 " />
<polygon points="99.5,15.3 109.3,22.2 100,14.6 " />
<polygon points="109.3,22.2 110.6,25.6 103.4,25.4 " />
<polygon points="102.3,24.1 109,29.5 115.7,34.7 122.7,39.7 130,44.3 137.5,48.7 145.5,52.7 153.8,56.4 162.4,59.8 171.5,62.9 180.9,65.6 177,78.3 167.3,74.7 157.9,70.7 149.1,66.4 140.6,61.7 132.7,56.6 125.2,51.2 118.2,45.3 111.8,39.1 106,32.5 100.9,25.3 " />
<polygon points="177,78.3 180.9,65.6 188.7,68 " />
<polygon points="56,74 143,74 143,78 56,78 " />
<polygon points="143,74 119,76 131,64 " />
<polygon points="25,99 178,99 178,103 25,103 " />
<polygon points="178,99 154,101 166,89 " />
<polygon points="57,127 57,184 45,190 45,121 " />
<polygon points="51,127 149,127 149,131 51,131 " />
<polygon points="155,129 155,178 143,184 143,129 " />
<polygon points="143,127 149,122 160,131 155,135 143,129 " />
<polygon points="51,168 149,168 149,172 51,172 " />
<polygon points="106,74 106,131 94,131 94,74 " />
</g>
</svg>
