<svg xmlns="http://www.w3.org/2000/svg" xmlns:xlink="http://www.w3.org/1999/xlink" version="1.1" baseProfile="full" viewBox="0 0 200 200" width="200" height="200">
<g fill="black">
<polygon points="156,26.9 144.7,30.3 133,33.5 120.9,36.4 108.5,39 95.6,41.4 82.3,43.6 68.6,45.4 54.5,47 40,48.1 25,48.8 24.9,47.1 39.5,44.4 53.7,41.7 67.5,38.9 80.9,36.1 93.9,33.1 106.4,30 118.4,26.7 130.1,23.2 141.3,19.5 152,15.6 " />
<polygon points="152,15.6 156,26.9 161.7,25 " />
<polygon points="161.7,25 161.9,28.1 153.9,24.5 " />
<polygon points="16,77 184,77 184,81 16,81 " />
<polygon points="184,77 160,79 172,67 " />
<polygon points="106,35 106,122 94,122 94,35 " />
<polygon points="56,118 56,184 44,190 44,112 " />
<polygon points="50,118 150,118 150,122 50,122 " />
<polygon points="156,120 156,178 144,184 144,120 " />
<polygon points="144,118 150,113 161,122 156,126 144,120 " />
<polygon points="50,168 150,168 150,172 50,172 " />
</g>
</svg>
