<svg xmlns="http://www.w3.org/2000/svg" xmlns:xlink="http://www.w3.org/1999/xlink" version="1.1" baseProfile="full" viewBox="0 0 200 200" width="200" height="200">
<g fill="black">
<polygon points="109.3,18.2 102.8,26.2 95.7,33.9 88,41.2 79.7,48.2 70.9,54.8 61.4,61 51.3,66.9 40.6,72.3 29.3,77.3 17.3,81.8 16.6,80.1 27.6,73.9 38,67.6 47.9,61.3 57.1,54.7 65.7,48 73.7,41.1 81.1,34 87.8,26.6 94,19.1 99.5,11.3 " />
<polygon points="99.5,11.3 109.3,18.2 100,10.6 " />
<polygon points="109.3,18.2 110.6,21.6 103.4,21.4 " />
<polygon points="102.3,20.1 109,25.5 115.7,30.7 122.7,35.7 130,40.3 137.5,44.7 145.5,48.7 153.8,52.4 162.4,55.8 171.5,58.9 180.9,61.6 177,74.3 167.3,70.7 157.9,66.7 149.1,62.4 140.6,57.7 132.7,52.6 125.2,47.2 118.2,41.3 111.8,35.1 106,28.5 100.9,21.3 " />
<polygon points="177,74.3 180.9,61.6 188.7,64 " />
<polygon points="56,77 143,77 143,81 56,81 " />
<polygon points="143,77 119,79 131,67 " />
<polygon points="25,107 178,107 178,111 25,111 " />
<polygon points="178,107 154,109 166,97 " />
<polygon points="57,127 57,184 45,190 45,121 " />
<polygon points="51,127 149,127 149,131 51,131 " />
<polygon points="155,129 155,178 143,184 143,129 " />
<polygon points="143,127 149,122 160,131 155,135 143,129 " />
<polygon points="51,168 149,168 149,172 51,172 " />
<polygon points="106,53 106,111 94,111 94,51 " />
<polygon points="106,53 109,55 106,57 " />
</g>
</svg>
