<svg xmlns="http://www.w3.org/2000/svg" xmlns:xlink="http://www.w3.org/1999/xlink" version="1.1" baseProfile="full" viewBox="0 0 200 200" width="200" height="200">
<g fill="black">
<polygon points="99.3,26.8 94.1,28.2 88.8,29.6 83.2,30.9 77.5,32.2 71.7,33.4 65.6,34.5 59.3,35.5 52.9,36.4 46.2,37.1 39.3,37.5 39,35.7 45.4,33.3 51.7,31.1 57.8,29.1 63.7,27.1 69.5,25.2 75,23.2 80.4,21.3 85.6,19.3 90.5,17.4 95.3,15.4 " />
<polygon points="94.4,15.8 99.3,26.8 104.9,24.8 " />
<polygon points="104.9,24.8 105.1,27.9 98.4,25 " />
<polygon points="45.2,34.6 45.2,99.1 33.2,105.1 33.2,28.6 " />
<polygon points="39.2,59.4 99.3,59.4 99.3,63.4 39.2,63.4 " />
<polygon points="99.3,59.4 75.3,61.4 87.3,49.4 " />
<polygon points="113,30.6 165.8,30.6 165.8,34.6 113,34.6 " />
<polygon points="171.8,32.6 171.8,98.1 159.8,104.1 159.8,32.6 " />
<polygon points="159.8,30.6 165.8,25.6 176.8,34.6 171.8,38.6 159.8,32.6 " />
<polygon points="111.9,59.4 165.8,59.4 165.8,63.4 111.9,63.4 " />
<polygon points="39.2,88.1 165.8,88.1 165.8,92.1 39.2,92.1 " />
<polygon points="63.8,103.6 50.4,129.5 36.9,129.3 54.1,96.3 " />
<polygon points="63.8,103.6 65.6,106.8 60.2,107.6 " />
<polygon points="46,123 175,123 175,127 46,127 " />
<polygon points="181,125 180.9,132.6 180.6,139.7 180.2,146.3 179.6,152.4 178.9,157.9 177.9,162.9 176.8,167.5 175.4,171.6 173.7,175.2 171.7,178.5 162.1,171.3 163.1,169.6 164.2,167.2 165.2,164.1 166.2,160.4 167,156 167.7,151 168.2,145.4 168.6,139.1 168.9,132.3 169,125 " />
<polygon points="169,123 175,118 186,127 181,130 169,135 " />
<polygon points="171.7,178.5 167.8,180.8 163.3,179.7 161,175.8 162.1,171.3 " />
<polygon points="171.7,178.5 170.2,180.4 168.5,182.1 166.7,183.7 164.7,185.1 162.6,186.3 160.5,187.3 158.2,188 155.8,188.5 153.4,188.8 151,189 151,177 152.4,176.9 153.8,176.7 155,176.4 156.1,176.1 157.2,175.6 158.3,175 159.2,174.3 160.2,173.5 161.1,172.5 162.1,171.3 " />
<polygon points="151,183 151,177 131,177 131,180 " />
<polygon points="45.7,141.1 45.6,146.8 45.2,152.3 44.5,157.4 43.5,162.2 42.2,166.7 40.6,170.9 38.7,174.7 36.4,178.2 33.8,181.4 30.8,184.2 24,174.3 26.3,173 28.5,171.3 30.6,169.1 32.8,166.5 34.8,163.3 36.8,159.8 38.7,155.7 40.5,151.2 42.3,146.3 43.9,140.8 " />
<polygon points="30.8,184.2 26.3,185.1 22.5,182.6 21.6,178.2 24,174.3 " />
<polygon points="68.2,140.4 70.5,143.8 72.8,147 74.9,150.2 76.7,153.4 78.2,156.5 79.6,159.7 80.8,162.8 81.7,165.8 82.4,168.9 83,172 71,172 71.3,169.7 71.4,167.2 71.4,164.6 71.2,161.8 70.9,158.8 70.4,155.6 69.7,152.3 68.9,148.7 68,145 66.6,141.3 " />
<polygon points="71,172 72.8,176.2 77,178 81.2,176.2 83,172 " />
<polygon points="93.3,138.9 96.2,140.7 99.2,142.4 102,144.4 104.6,146.6 107,148.9 109.3,151.5 111.4,154.2 113.4,157 115.1,160 116.7,163.2 105.3,167 104.7,164.2 104,161.4 103.1,158.7 102,156 100.8,153.4 99.4,150.7 97.9,148.1 96.2,145.4 94.4,142.7 92.2,140.3 " />
<polygon points="116.7,163.2 116.3,167.8 112.9,170.8 108.3,170.4 105.3,167 " />
<polygon points="121.2,134.6 125.2,136.1 129,137.6 132.6,139.2 135.9,141.1 138.9,143.1 141.6,145.3 144.1,147.8 146.3,150.4 148.2,153.2 149.8,156.3 138.3,159.9 137.9,157.7 137.3,155.6 136.4,153.3 135.1,151 133.5,148.6 131.6,146.2 129.3,143.7 126.7,141.2 123.8,138.5 120.4,136.2 " />
<polygon points="149.8,156.3 149.3,160.8 145.8,163.8 141.3,163.3 138.3,159.9 " />
</g>
</svg>
