<svg xmlns="http://www.w3.org/2000/svg" xmlns:xlink="http://www.w3.org/1999/xlink" version="1.1" baseProfile="full" viewBox="0 0 200 200" width="200" height="200">
<g fill="black">
<polygon points="99.1,25 93.9,26.2 88.6,27.5 83.1,28.6 77.4,29.7 71.6,30.8 65.5,31.7 59.3,32.6 52.8,33.3 46.2,33.9 39.3,34.2 39,32.4 45.4,30.1 51.7,28.1 57.9,26.2 63.8,24.3 69.6,22.5 75.1,20.7 80.5,18.9 85.7,17.1 90.7,15.3 95.5,13.5 " />
<polygon points="94.5,13.8 99.1,25 105.3,23 " />
<polygon points="105.3,23 105.6,26.1 98.7,23 " />
<polygon points="45.2,31.3 45.2,95.6 33.2,101.6 33.2,25.3 " />
<polygon points="39.2,53.7 99.3,53.7 99.3,57.7 39.2,57.7 " />
<polygon points="99.3,53.7 75.3,55.7 87.3,43.7 " />
<polygon points="113,27.7 165.8,27.7 165.8,31.7 113,31.7 " />
<polygon points="171.8,29.7 171.8,87.6 159.8,93.6 159.8,29.7 " />
<polygon points="159.8,27.7 165.8,22.7 176.8,31.7 171.8,35.7 159.8,29.7 " />
<polygon points="111.9,53.7 165.8,53.7 165.8,57.7 111.9,57.7 " />
<polygon points="39.2,79.6 165.8,79.6 165.8,83.6 39.2,83.6 " />
<polygon points="62,92 62,145 50,151 50,90 " />
<polygon points="62,92 65,94 60,97 " />
<polygon points="56,107 169,107 169,111 56,111 " />
<polygon points="169,107 149,109 159,98 " />
<polygon points="56,129 175,129 175,133 56,133 " />
<polygon points="181,131 180.9,137.8 180.6,144.2 180.2,150.1 179.7,155.6 179,160.5 178,165.1 176.9,169.1 175.6,172.8 173.9,176.1 171.9,179 162.7,171.4 163.6,170.1 164.5,168.1 165.5,165.5 166.4,162.3 167.1,158.5 167.8,154.1 168.3,149.1 168.7,143.6 168.9,137.6 169,131 " />
<polygon points="169,129 175,124 186,133 181,136 169,141 " />
<polygon points="171.9,179 167.9,181.1 163.5,179.9 161.4,175.8 162.7,171.4 " />
<polygon points="171.9,179 170.3,180.9 168.6,182.5 166.7,184 164.7,185.3 162.6,186.4 160.4,187.4 158.1,188.1 155.8,188.6 153.4,188.9 151,189 151,177 152.4,176.9 153.8,176.7 155.1,176.4 156.3,176.1 157.5,175.6 158.6,175 159.6,174.3 160.7,173.5 161.7,172.5 162.7,171.4 " />
<polygon points="151,183 151,177 131,177 131,180 " />
<polygon points="45.7,146.1 45.4,151.3 45.1,156.2 44.4,160.9 43.4,165.2 42.1,169.3 40.5,173.2 38.5,176.7 36.3,179.9 33.6,182.9 30.7,185.4 24.3,175.3 26.5,174.1 28.7,172.6 30.9,170.8 33,168.5 35,165.8 37,162.6 38.8,159.1 40.6,155.1 42.4,150.7 43.9,145.8 " />
<polygon points="30.7,185.4 26.2,186.1 22.4,183.5 21.7,179 24.3,175.3 " />
<polygon points="68.2,145.4 70.4,148.4 72.7,151.1 74.7,153.9 76.5,156.7 78.1,159.4 79.5,162.1 80.7,164.8 81.7,167.5 82.4,170.2 83,173 71,173 71.3,171.2 71.5,169.2 71.5,166.9 71.3,164.5 71,161.9 70.5,159.1 69.9,156.1 69.1,153 68.1,149.6 66.7,146.3 " />
<polygon points="71,173 72.8,177.2 77,179 81.2,177.2 83,173 " />
<polygon points="93.3,143.8 96.1,145.4 99.1,146.9 101.8,148.6 104.4,150.5 106.8,152.5 109.1,154.7 111.2,157.1 113.2,159.6 114.9,162.2 116.5,165 105.3,169.2 104.7,166.8 104,164.4 103.2,162 102.1,159.7 100.9,157.3 99.6,154.9 98.1,152.4 96.4,150 94.5,147.5 92.2,145.3 " />
<polygon points="116.5,165 116.3,169.6 113,172.8 108.4,172.5 105.3,169.2 " />
<polygon points="121.2,139.5 125.1,140.9 128.9,142.1 132.5,143.6 135.7,145.2 138.7,147 141.5,149 144,151.2 146.2,153.7 148.1,156.3 149.7,159.2 138.3,163 138,161.1 137.4,159.1 136.5,157 135.2,154.9 133.6,152.7 131.7,150.4 129.4,148.1 126.8,145.8 123.9,143.3 120.5,141.2 " />
<polygon points="149.7,159.2 149.3,163.8 145.9,166.8 141.3,166.4 138.3,163 " />
</g>
</svg>
