<svg xmlns="http://www.w3.org/2000/svg" xmlns:xlink="http://www.w3.org/1999/xlink" version="1.1" baseProfile="full" viewBox="0 0 200 200" width="200" height="200">
<g fill="black">
<polygon points="40,33 162,33 162,37 40,37 " />
<polygon points="162,33 138,35 150,23 " />
<polygon points="19,81 183,81 183,85 19,85 " />
<polygon points="183,81 159,83 171,71 " />
<polygon points="106,33 106,120 94,120 94,33 " />
<polygon points="58,120 58,183 46,189 46,114 " />
<polygon points="52,120 148,120 148,124 52,124 " />
<polygon points="154,122 154,177 142,183 142,122 " />
<polygon points="142,120 148,115 159,124 154,128 142,122 " />
<polygon points="52,167 148,167 148,171 52,171 " />
</g>
</svg>
