<svg xmlns="http://www.w3.org/2000/svg" xmlns:xlink="http://www.w3.org/1999/xlink" version="1.1" baseProfile="full" viewBox="0 0 200 200" width="200" height="200">
<g fill="black">
<polygon points="59,28 59,169 47,169 47,22 " />
<polygon points="53,28 141,28 141,32 53,32 " />
<polygon points="147,30 147,110 135,116 135,30 " />
<polygon points="135,28 141,23 152,32 147,36 135,30 " />
<polygon points="53,100 141,100 141,104 53,104 " />
<polygon points="53,64 141,64 141,68 53,68 " />
<polygon points="24.3,171.9 31.5,170.2 38.9,168.4 46.5,166.4 54.5,164.3 62.6,162.1 71.1,159.8 79.8,157.4 88.7,154.9 98,152.5 107.6,150.1 108.3,151.8 99.3,156.1 90.5,160 81.9,163.6 73.5,167 65.3,170.2 57.3,173.2 49.5,176 41.9,178.6 34.6,181.1 27.5,183.5 " />
<polygon points="27.5,183.5 24.3,171.9 22.4,172.4 " />
<polygon points="27.5,183.5 30.2,185.8 32.5,179 " />
<polygon points="173,125.2 169.1,128.1 165,130.9 160.8,133.8 156.4,136.6 152,139.3 147.4,142 142.7,144.6 137.8,147.2 132.7,149.5 127.4,151.7 126.5,150.2 130.7,146.3 134.8,142.7 139,139.2 143.1,135.8 147,132.4 150.9,129.1 154.7,125.8 158.3,122.5 161.9,119.2 165.3,116 " />
<polygon points="165.3,116 173,125.2 165.5,115.9 " />
<polygon points="173,125.2 173.5,128.8 166.5,126.8 " />
<polygon points="94.2,102.5 101.4,114.4 108.6,125.2 116.1,135 123.9,143.7 132,151.3 140.4,157.8 149.1,163.3 158.2,167.7 167.6,171.1 177.4,173.5 174.5,186.4 163.6,182.9 153.2,178.4 143.4,172.7 134.2,165.9 125.6,158.1 117.7,149.2 110.3,139.3 103.6,128.3 97.7,116.3 92.5,103.2 " />
<polygon points="174.5,186.4 177.4,173.5 186.3,175.5 " />
</g>
</svg>
