<svg xmlns="http://www.w3.org/2000/svg" xmlns:xlink="http://www.w3.org/1999/xlink" version="1.1" baseProfile="full" viewBox="0 0 200 200" width="200" height="200">
<g fill="black">
<polygon points="66,20 66,125 54,125 54,18 " />
<polygon points="66,20 69,22 66,24 " />
<polygon points="66,125 63.6,128.6 60,131 56.4,128.6 54,125 " />
<polygon points="66,125 65.2,135.8 63.5,145.8 60.9,154.9 57.3,163.1 52.7,170.3 47.2,176.5 40.9,181.6 33.7,185.5 25.8,188.3 17.2,189.8 16.7,188.1 24.5,184.7 31.1,180.8 36.9,176.4 41.7,171.3 45.7,165.6 48.9,159.1 51.3,151.9 53,143.8 53.8,134.8 54,125 " />
<polygon points="37,48 37,139 25,145 25,46 " />
<polygon points="37,48 40,50 37,52 " />
<polygon points="31,123 88,123 88,127 31,127 " />
<polygon points="94,48 94,133 82,139 82,46 " />
<polygon points="94,48 97,50 94,52 " />
<polygon points="149,20 149,184 137,190 137,18 " />
<polygon points="149,20 152,22 149,24 " />
<polygon points="119,48 119,139 107,145 107,46 " />
<polygon points="119,48 122,50 119,52 " />
<polygon points="113,123 171,123 171,127 113,127 " />
<polygon points="177,48 177,133 165,139 165,46 " />
<polygon points="177,48 180,50 177,52 " />
</g>
</svg>
