<svg xmlns="http://www.w3.org/2000/svg" xmlns:xlink="http://www.w3.org/1999/xlink" version="1.1" baseProfile="full" viewBox="0 0 200 200" width="200" height="200">
<g fill="black">
<polygon points="13,34.7 187,34.7 187,38.7 13,38.7 " />
<polygon points="187,34.7 163,36.7 175,24.7 " />
<polygon points="78,14.5 78,55.9 66,61.9 66,12.5 " />
<polygon points="78,14.5 81,16.5 78,18.5 " />
<polygon points="134,14.5 134,55.9 122,61.9 122,12.5 " />
<polygon points="134,14.5 137,16.5 134,18.5 " />
<polygon points="66.3,64.5 64,68.2 61.6,72 59,75.9 56.2,79.7 53.3,83.5 50.2,87.4 47,91.3 43.5,95.1 39.7,98.8 35.8,102.5 34.3,101.4 36.8,96.7 39.3,92 41.7,87.6 44,83.2 46.3,79 48.4,74.9 50.4,70.8 52.2,66.8 54,63 55.6,59.2 " />
<polygon points="55.6,59.2 66.3,64.5 56.1,58 " />
<polygon points="66.3,64.5 68.1,67.6 61,68.5 " />
<polygon points="18.8,93.8 23.3,95.5 27.6,97.3 31.7,99.4 35.6,101.7 39.4,104.2 43,106.8 46.4,109.6 49.6,112.6 52.7,115.8 55.6,119.1 45.7,126 43.8,122.8 41.6,119.6 39.3,116.4 36.8,113.4 34.1,110.3 31.2,107.3 28.1,104.3 24.9,101.4 21.5,98.3 17.9,95.4 " />
<polygon points="55.6,119.1 56.5,123.5 54.1,127.4 49.6,128.4 45.7,126 " />
<polygon points="87,96.5 82.8,105.4 78.2,114.1 73.3,122.6 67.9,131 62.1,139.2 56,147.2 49.4,155 42.4,162.6 34.9,169.9 26.9,176.9 25.6,175.6 32.1,167.3 38.3,159.1 44.2,150.9 49.8,142.7 55.1,134.4 60,126.1 64.5,117.7 68.7,109.2 72.5,100.6 75.9,91.9 " />
<polygon points="75.9,91.9 87,96.5 76.5,90.6 " />
<polygon points="87,96.5 89,99.5 82,100.9 " />
<polygon points="17.3,171.8 24.8,170.5 32.2,169.3 39.4,168.1 46.5,166.9 53.3,165.7 60.1,164.6 66.6,163.6 73,162.6 79.3,161.8 85.5,161.2 86,162.9 80.3,165.4 74.4,167.8 68.2,169.9 61.8,172 55.3,174 48.5,176 41.6,177.9 34.5,179.8 27.2,181.7 19.7,183.5 " />
<polygon points="19.7,183.5 17.3,171.8 15.3,172.1 " />
<polygon points="19.7,183.5 22.2,186.1 25,179.4 " />
<polygon points="69.5,138.4 72.8,140.9 76,143.5 79,146.3 81.8,149.2 84.4,152.4 86.9,155.7 89.3,159.1 91.4,162.7 93.4,166.4 95.3,170.3 84,174.3 83,170.7 81.8,167.1 80.6,163.6 79.2,160.1 77.7,156.6 76,153.2 74.2,149.8 72.4,146.4 70.5,143 68.3,139.7 " />
<polygon points="95.3,170.3 95,174.8 91.7,177.9 87.1,177.7 84,174.3 " />
<polygon points="148.3,62.2 145.2,67.2 142.1,72 138.9,76.8 135.6,81.5 132.2,86.2 128.7,90.7 125,95.1 121.2,99.3 117.2,103.4 112.9,107.3 111.5,106.2 114.2,101.1 116.9,96.2 119.7,91.3 122.4,86.4 125.1,81.5 127.7,76.6 130.3,71.7 132.8,66.7 135.3,61.7 137.6,56.6 " />
<polygon points="137.6,56.6 148.3,62.2 138.2,55.6 " />
<polygon points="148.3,62.2 150,65.4 142.8,66.1 " />
<polygon points="95,91.4 100.1,93.5 105,95.8 109.6,98.4 113.9,101.3 118.1,104.3 122,107.6 125.6,111 129.1,114.6 132.3,118.4 135.2,122.4 125,128.7 122.9,124.9 120.6,121.2 118.1,117.6 115.3,114 112.3,110.5 109.1,107 105.6,103.6 102,100.1 98.1,96.6 94.1,93 " />
<polygon points="135.2,122.4 135.9,126.9 133.3,130.6 128.8,131.3 125,128.7 " />
<polygon points="175.5,89.2 169,100.1 162.5,110.6 156,120.7 149.5,130.4 142.9,139.7 136.3,148.6 129.6,157 122.9,164.9 116,172.4 109,179.2 107.6,178 113.1,170 118.6,161.7 124.3,153.1 130.1,144.2 135.9,135 141.7,125.4 147.5,115.5 153.3,105.2 159.1,94.5 165,83.4 " />
<polygon points="165,83.4 175.5,89.2 165.5,82.4 " />
<polygon points="175.5,89.2 177.1,92.4 170,93 " />
<polygon points="91.7,176.5 100.1,175.4 108.5,174.2 116.9,173.1 125.2,171.9 133.6,170.7 141.9,169.4 150.2,168.2 158.6,167 167,166 175.4,165.1 175.8,166.9 167.8,169.7 159.7,172.3 151.6,174.7 143.4,176.9 135.2,179 127,181 118.7,182.9 110.4,184.8 102.1,186.6 93.7,188.3 " />
<polygon points="93.7,188.3 91.7,176.5 89.8,176.8 " />
<polygon points="93.7,188.3 96.2,191 99.1,184.4 " />
<polygon points="156.4,133.8 160.7,138 164.7,142.4 168.3,146.9 171.6,151.5 174.6,156.2 177.5,160.9 180,165.7 182.4,170.6 184.5,175.5 186.4,180.4 174.8,183.7 173.7,179.1 172.4,174.4 170.8,169.7 169.1,164.9 167.1,160.1 165,155.3 162.7,150.4 160.2,145.4 157.6,140.2 155,134.9 " />
<polygon points="186.4,180.4 185.8,184.9 182.3,187.8 177.7,187.3 174.8,183.7 " />
</g>
</svg>
