<svg xmlns="http://www.w3.org/2000/svg" xmlns:xlink="http://www.w3.org/1999/xlink" version="1.1" baseProfile="full" viewBox="0 0 200 200" width="200" height="200">
<g fill="black">
<polygon points="16.5,36.1 184.4,36.1 184.4,40.1 16.5,40.1 " />
<polygon points="184.4,36.1 160.4,38.1 172.4,26.1 " />
<polygon points="79.4,17 79.4,56.4 67.4,62.4 67.4,15 " />
<polygon points="79.4,17 82.4,19 79.4,21 " />
<polygon points="133.5,17 133.5,56.4 121.5,62.4 121.5,15 " />
<polygon points="133.5,17 136.5,19 133.5,21 " />
<polygon points="107,55 107,79 95,79 95,53 " />
<polygon points="107,55 110,57 107,59 " />
<polygon points="22,75 182,75 182,79 22,79 " />
<polygon points="182,75 158,77 170,65 " />
<polygon points="55,75 55,102 43,102 43,75 " />
<polygon points="55,102 52.6,105.6 49,108 45.4,105.6 43,102 " />
<polygon points="55,102 55,103.2 55.2,104.1 55.4,104.7 55.5,105 55.7,105.2 55.9,105.4 56.2,105.5 56.8,105.7 57.7,105.9 59,106 59,118 56.4,117.8 53.9,117.4 51.5,116.6 49.2,115.3 47.2,113.7 45.6,111.7 44.3,109.4 43.5,107 43.1,104.5 43,102 " />
<polygon points="59,106 63.2,107.8 65,112 63.2,116.2 59,118 " />
<polygon points="59,106 167,106 167,118 59,118 " />
<polygon points="167,106 170.6,108.4 173,112 170.6,115.6 167,118 " />
<polygon points="66,127 66,144 54,144 54,125 " />
<polygon points="66,127 69,129 66,131 " />
<polygon points="66,144 63.6,147.6 60,150 56.4,147.6 54,144 " />
<polygon points="66,144 65.2,151.4 63.4,158.4 60.7,164.7 57.1,170.4 52.5,175.4 47.1,179.6 41,183.1 34.1,185.8 26.5,187.7 18.1,188.8 17.8,187.1 25.4,184.1 32,180.8 37.7,177.4 42.5,173.6 46.4,169.5 49.4,165.2 51.6,160.5 53.1,155.5 53.9,150 54,144 " />
<polygon points="107,128 107,181 95,187 95,126 " />
<polygon points="107,128 110,130 107,132 " />
<polygon points="150,127 150,171 138,171 138,125 " />
<polygon points="150,127 153,129 150,131 " />
<polygon points="150,171 147.6,174.6 144,177 140.4,174.6 138,171 " />
<polygon points="150,171 150,172.2 150.2,173.1 150.4,173.7 150.5,174 150.7,174.2 150.9,174.4 151.2,174.5 151.8,174.7 152.7,174.9 154,175 154,187 151.4,186.8 148.9,186.4 146.5,185.6 144.2,184.3 142.2,182.7 140.6,180.7 139.3,178.4 138.5,176 138.1,173.5 138,171 " />
<polygon points="154,175 158.2,176.8 160,181 158.2,185.2 154,187 " />
<polygon points="154,175 180,175 180,187 154,187 " />
<polygon points="180,175 183.6,177.4 186,181 183.6,184.6 180,187 " />
<polygon points="174,176 180,150 182,150 180,176 " />
</g>
</svg>
