<svg xmlns="http://www.w3.org/2000/svg" xmlns:xlink="http://www.w3.org/1999/xlink" version="1.1" baseProfile="full" viewBox="0 0 200 200" width="200" height="200">
<g fill="black">
<polygon points="19,31.7 180.9,31.7 180.9,35.7 19,35.7 " />
<polygon points="180.9,31.7 156.9,33.7 168.9,21.7 " />
<polygon points="79.9,13.5 79.9,51.1 67.9,57.1 67.9,11.5 " />
<polygon points="79.9,13.5 82.9,15.5 79.9,17.5 " />
<polygon points="132,13.5 132,51.1 120,57.1 120,11.5 " />
<polygon points="132,13.5 135,15.5 132,17.5 " />
<polygon points="58,58.3 58,149.5 46,155.5 46,52.3 " />
<polygon points="52,58.3 148,58.3 148,62.3 52,62.3 " />
<polygon points="154,60.3 154,143.5 142,149.5 142,60.3 " />
<polygon points="142,58.3 148,53.3 159,62.3 154,66.3 142,60.3 " />
<polygon points="52,83.1 148,83.1 148,87.1 52,87.1 " />
<polygon points="52,107.9 148,107.9 148,111.9 52,111.9 " />
<polygon points="52,133.5 148,133.5 148,137.5 52,137.5 " />
<polygon points="89.6,139.4 86.7,147.3 82.6,154.6 77.4,161.2 71.1,167.1 63.8,172.2 55.4,176.6 46.1,180.4 35.8,183.5 24.5,185.9 12.1,187.5 11.8,185.8 23.6,182.2 34.2,178.4 43.6,174.4 51.9,169.9 59,165.2 65,160.1 69.8,154.7 73.5,149 76.2,143 77.9,136.6 " />
<polygon points="77.9,136.6 89.6,139.4 78.3,134.9 " />
<polygon points="89.6,139.4 92,142 85.3,144.6 " />
<polygon points="122,133.5 122,168.1 110,168.1 110,133.5 " />
<polygon points="122,168.1 119.6,171.7 116,174.1 112.4,171.7 110,168.1 " />
<polygon points="122,168.1 122,169.4 122.2,170.3 122.4,170.9 122.5,171.2 122.7,171.4 122.9,171.5 123.2,171.7 123.8,171.9 124.7,172.1 126,172.1 126,184.1 123.4,184 120.9,183.5 118.5,182.7 116.2,181.5 114.2,179.9 112.6,177.9 111.3,175.6 110.5,173.2 110.1,170.7 110,168.1 " />
<polygon points="126,172.1 130.2,173.9 132,178.1 130.2,182.3 126,184.1 " />
<polygon points="126,172.1 182,172.1 182,184.1 126,184.1 " />
<polygon points="182,172.1 185.6,174.5 188,178.1 185.6,181.7 182,184.1 " />
<polygon points="176,173.1 182,147.1 184,147.1 182,173.1 " />
</g>
</svg>
