<svg xmlns="http://www.w3.org/2000/svg" xmlns:xlink="http://www.w3.org/1999/xlink" version="1.1" baseProfile="full" viewBox="0 0 200 200" width="200" height="200">
<g fill="black">
<polygon points="18.4,38.5 184.5,38.5 184.5,42.5 18.4,42.5 " />
<polygon points="184.5,38.5 160.5,40.5 172.5,28.5 " />
<polygon points="80.7,20.5 80.7,57.8 68.7,63.8 68.7,18.5 " />
<polygon points="80.7,20.5 83.7,22.5 78.7,25.5 " />
<polygon points="134.2,20.5 134.2,57.8 122.2,63.8 122.2,18.5 " />
<polygon points="134.2,20.5 137.2,22.5 132.2,25.5 " />
<polygon points="28,68 172,68 172,72 28,72 " />
<polygon points="172,68 152,70 162,59 " />
<polygon points="25,136 175,136 175,140 25,140 " />
<polygon points="175,136 155,138 165,127 " />
<polygon points="20,179 181,179 181,183 20,183 " />
<polygon points="181,179 157,181 169,169 " />
<polygon points="106,68 106,183 94,183 94,68 " />
<polygon points="45,157 155,157 155,161 45,161 " />
<polygon points="155,157 135,159 145,148 " />
<polygon points="51.8,86.8 51.8,119.1 39.8,125.1 39.8,80.8 " />
<polygon points="45.8,86.8 153.1,86.8 153.1,90.8 45.8,90.8 " />
<polygon points="159.1,88.8 159.1,118.1 147.1,124.1 147.1,88.8 " />
<polygon points="147.1,86.8 153.1,81.8 164.1,90.8 159.1,94.8 147.1,88.8 " />
<polygon points="45.8,112.1 153.1,112.1 153.1,116.1 45.8,116.1 " />
</g>
</svg>
