<svg xmlns="http://www.w3.org/2000/svg" xmlns:xlink="http://www.w3.org/1999/xlink" version="1.1" baseProfile="full" viewBox="0 0 200 200" width="200" height="200">
<g fill="black">
<polygon points="13,33.5 187,33.5 187,37.5 13,37.5 " />
<polygon points="187,33.5 163,35.5 175,23.5 " />
<polygon points="78,14.8 78,53.4 66,59.4 66,12.8 " />
<polygon points="78,14.8 81,16.8 78,18.8 " />
<polygon points="134,14.8 134,53.4 122,59.4 122,12.8 " />
<polygon points="134,14.8 137,16.8 134,18.8 " />
<polygon points="58,64.6 58,147.8 46,153.8 46,58.6 " />
<polygon points="52,64.6 148,64.6 148,68.6 52,68.6 " />
<polygon points="154,66.6 154,135.8 142,141.8 142,66.6 " />
<polygon points="142,64.6 148,59.6 159,68.6 154,72.6 142,66.6 " />
<polygon points="52,87 148,87 148,91 52,91 " />
<polygon points="52,108.2 148,108.2 148,112.2 52,112.2 " />
<polygon points="52,131.8 148,131.8 148,135.8 52,135.8 " />
<polygon points="89.6,137.2 86.7,145.3 82.7,152.9 77.5,159.7 71.2,165.9 63.9,171.3 55.5,176.1 46.2,180.2 35.9,183.7 24.5,186.4 12.1,188.4 11.8,186.6 23.5,182.7 34.1,178.6 43.5,174.2 51.8,169.5 58.9,164.4 64.9,159.1 69.7,153.4 73.4,147.4 76.1,141.1 77.9,134.5 " />
<polygon points="77.9,134.5 89.6,137.2 78.3,132.7 " />
<polygon points="89.6,137.2 92.1,139.8 85.3,142.4 " />
<polygon points="122,131.8 122,166.3 110,166.3 110,131.8 " />
<polygon points="122,166.3 119.6,169.9 116,172.3 112.4,169.9 110,166.3 " />
<polygon points="122,166.3 122,167.5 122.2,168.5 122.4,169 122.5,169.4 122.7,169.6 122.9,169.7 123.2,169.9 123.8,170.1 124.7,170.2 126,170.3 126,182.3 123.4,182.2 120.9,181.7 118.5,180.9 116.2,179.7 114.2,178.1 112.6,176 111.3,173.8 110.5,171.4 110.1,168.9 110,166.3 " />
<polygon points="126,170.3 130.2,172.1 132,176.3 130.2,180.5 126,182.3 " />
<polygon points="126,170.3 182,170.3 182,182.3 126,182.3 " />
<polygon points="182,170.3 185.6,172.7 188,176.3 185.6,179.9 182,182.3 " />
<polygon points="176,171.3 182,145.3 184,145.3 182,171.3 " />
<polygon points="134.6,142.1 138.2,143.2 141.9,144.1 145.2,145.2 148.4,146.4 151.3,147.8 154,149.4 156.5,151.2 158.7,153.2 160.7,155.3 162.5,157.7 151.5,162.7 151.2,161.1 150.5,159.4 149.6,157.6 148.3,155.8 146.7,153.8 144.8,151.8 142.6,149.8 140,147.7 137.2,145.5 133.9,143.7 " />
<polygon points="162.5,157.7 162.6,162.3 159.5,165.7 154.9,165.8 151.5,162.7 " />
</g>
</svg>
