<svg xmlns="http://www.w3.org/2000/svg" xmlns:xlink="http://www.w3.org/1999/xlink" version="1.1" baseProfile="full" viewBox="0 0 200 200" width="200" height="200">
<g fill="black">
<polygon points="94,36 164,36 164,40 94,40 " />
<polygon points="164,36 140,38 152,26 " />
<polygon points="100,17 100,61 88,61 88,15 " />
<polygon points="100,17 103,19 100,21 " />
<polygon points="35,59 168,59 168,63 35,63 " />
<polygon points="41,59 41,130 29,130 29,53 " />
<polygon points="41,130 38.6,133.6 35,136 31.4,133.6 29,130 " />
<polygon points="40.9,130.1 40.2,138.9 39,147.2 37.4,154.9 35.3,162.1 32.7,168.7 29.6,174.7 26,180.1 22,184.7 17.5,188.6 12.5,191.7 11.4,190.2 14.8,185.9 17.8,181.4 20.5,176.6 22.8,171.4 24.7,165.7 26.3,159.6 27.5,152.9 28.4,145.8 28.9,138.1 29,129.8 " />
<polygon points="173.6,63 172.3,65.2 170.9,67.5 169.4,69.8 167.8,72.1 166,74.4 164.2,76.8 162.2,79.1 160.1,81.5 157.8,83.8 155.7,86.4 154.2,85.5 155.6,82.5 156.6,79.4 157.6,76.5 158.5,73.7 159.4,71 160.1,68.4 160.8,65.8 161.4,63.4 161.9,61.1 162.3,58.9 " />
<polygon points="162,59 168,54 179,63 174,67 168,67 " />
<polygon points="47.7,128 181.7,109 182.2,112.9 48.2,131.9 " />
<polygon points="181.7,109 158.2,114.3 168.4,100.8 " />
<polygon points="100,77 100,165 88,165 88,75 " />
<polygon points="100,77 103,79 100,81 " />
<polygon points="100,165 97.6,168.6 94,171 90.4,168.6 88,165 " />
<polygon points="100,165 100,166.2 100.2,167.1 100.4,167.7 100.5,168 100.7,168.2 100.9,168.4 101.2,168.5 101.8,168.7 102.7,168.9 104,169 104,181 101.4,180.8 98.9,180.4 96.5,179.6 94.2,178.3 92.2,176.7 90.6,174.7 89.3,172.4 88.5,170 88.1,167.5 88,165 " />
<polygon points="104,169 108.2,170.8 110,175 108.2,179.2 104,181 " />
<polygon points="104,169 178,169 178,181 104,181 " />
<polygon points="178,169 181.6,171.4 184,175 181.6,178.6 178,181 " />
<polygon points="172,170 178,144 180,144 178,170 " />
</g>
</svg>
