<svg xmlns="http://www.w3.org/2000/svg" xmlns:xlink="http://www.w3.org/1999/xlink" version="1.1" baseProfile="full" viewBox="0 0 200 200" width="200" height="200">
<g fill="black">
<polygon points="102,14 102,51 90,51 90,12 " />
<polygon points="102,14 105,16 102,18 " />
<polygon points="96,27 165,27 165,31 96,31 " />
<polygon points="165,27 141,29 153,17 " />
<polygon points="41,47 41,111 29,111 29,41 " />
<polygon points="41,111 38.6,114.6 35,117 31.4,114.6 29,111 " />
<polygon points="41,111 40.4,121.3 39.4,131.1 37.8,140.2 35.8,148.8 33.3,156.7 30.2,164 26.6,170.6 22.5,176.4 17.8,181.5 12.6,185.6 11.3,184.3 14.9,179 18,173.5 20.8,167.5 23.2,161.1 25.1,154.2 26.7,146.7 27.9,138.7 28.7,130 29,120.8 29,111 " />
<polygon points="35,47 176,47 176,51 35,51 " />
<polygon points="180.9,52.4 179.1,54.2 177.2,56.1 175.3,57.9 173.3,59.8 171.2,61.7 169,63.7 166.8,65.6 164.4,67.5 161.9,69.4 159.6,71.5 158.3,70.4 159.9,67.8 161.3,65 162.6,62.3 163.9,59.7 165.2,57.2 166.5,54.7 167.7,52.3 168.9,50 170,47.7 171,45.5 " />
<polygon points="170,47 176,42 187,51 182,55 176,55 " />
<polygon points="44.8,76 152.8,67 153.1,70.9 45.1,79.9 " />
<polygon points="152.8,67 129,70.9 140,58 " />
<polygon points="96,55 96,86 84,86 84,53 " />
<polygon points="96,55 99,57 96,59 " />
<polygon points="96,86 93.6,89.6 90,92 86.4,89.6 84,86 " />
<polygon points="96,86 96,87.2 96.2,88.1 96.4,88.7 96.5,89 96.7,89.2 96.9,89.4 97.2,89.5 97.8,89.7 98.7,89.9 100,90 100,102 97.4,101.8 94.9,101.4 92.5,100.6 90.2,99.3 88.2,97.7 86.6,95.7 85.3,93.4 84.5,91 84.1,88.5 84,86 " />
<polygon points="100,90 104.2,91.8 106,96 104.2,100.2 100,102 " />
<polygon points="100,90 170,90 170,102 100,102 " />
<polygon points="170,90 173.6,92.4 176,96 173.6,99.6 170,102 " />
<polygon points="164,91 170,65 172,65 170,91 " />
</g>
</svg>
