<svg xmlns="http://www.w3.org/2000/svg" xmlns:xlink="http://www.w3.org/1999/xlink" version="1.1" baseProfile="full" viewBox="0 0 200 200" width="200" height="200">
<g fill="black">
<polygon points="102,14 102,53 90,53 90,12 " />
<polygon points="102,14 105,16 102,18 " />
<polygon points="96,28 165,28 165,32 96,32 " />
<polygon points="165,28 141,30 153,18 " />
<polygon points="41,49 41,111 29,111 29,43 " />
<polygon points="41,111 38.6,114.6 35,117 31.4,114.6 29,111 " />
<polygon points="41,111 40.4,121.3 39.4,131.1 37.8,140.2 35.8,148.8 33.3,156.7 30.2,164 26.6,170.6 22.5,176.4 17.8,181.5 12.6,185.6 11.3,184.3 14.9,179 18,173.5 20.8,167.5 23.2,161.1 25.1,154.2 26.7,146.7 27.9,138.7 28.7,130 29,120.8 29,111 " />
<polygon points="35,49 176,49 176,53 35,53 " />
<polygon points="180.9,54.4 179.1,56.2 177.2,58.1 175.3,59.9 173.3,61.8 171.2,63.7 169,65.7 166.8,67.6 164.4,69.5 161.9,71.4 159.6,73.5 158.3,72.4 159.9,69.8 161.3,67 162.6,64.3 163.9,61.7 165.2,59.2 166.5,56.7 167.7,54.3 168.9,52 170,49.7 171,47.5 " />
<polygon points="170,49 176,44 187,53 182,57 176,57 " />
<polygon points="44.8,79 152.8,70 153.1,73.9 45.1,82.9 " />
<polygon points="152.8,70 129,73.9 140,61 " />
<polygon points="96,58 96,91 84,91 84,56 " />
<polygon points="96,58 99,60 96,62 " />
<polygon points="96,91 93.6,94.6 90,97 86.4,94.6 84,91 " />
<polygon points="96,91 96,92.2 96.2,93.1 96.4,93.7 96.5,94 96.7,94.2 96.9,94.4 97.2,94.5 97.8,94.7 98.7,94.9 100,95 100,107 97.4,106.8 94.9,106.4 92.5,105.6 90.2,104.3 88.2,102.7 86.6,100.7 85.3,98.4 84.5,96 84.1,93.5 84,91 " />
<polygon points="100,95 104.2,96.8 106,101 104.2,105.2 100,107 " />
<polygon points="100,95 170,95 170,107 100,107 " />
<polygon points="170,95 173.6,97.4 176,101 173.6,104.6 170,107 " />
<polygon points="164,96 170,70 172,70 170,96 " />
<polygon points="100,117 100,181 88,181 88,115 " />
<polygon points="100,117 103,119 100,121 " />
<polygon points="132,117 132,181 120,181 120,115 " />
<polygon points="132,117 135,119 132,121 " />
<polygon points="49.3,124 53.3,127 57.1,130.1 60.6,133.4 63.8,136.8 66.8,140.4 69.6,144.1 72.2,148 74.6,151.9 76.7,156 78.6,160.1 67.3,164.1 66.2,160.2 64.9,156.4 63.4,152.6 61.8,148.7 59.9,144.9 57.9,141.1 55.6,137.2 53.3,133.3 50.8,129.3 48,125.3 " />
<polygon points="78.6,160.1 78.3,164.7 74.9,167.8 70.4,167.5 67.3,164.1 " />
<polygon points="171.7,129.7 169.2,133.5 166.6,137.4 163.9,141.3 161,145.4 157.9,149.5 154.7,153.6 151.3,157.8 147.7,162.1 143.8,166.3 139.7,170.5 138.2,169.4 140.7,164.1 143.3,159 145.8,154.2 148.3,149.5 150.8,144.9 153.1,140.5 155.3,136.1 157.4,132 159.4,127.9 161.2,123.9 " />
<polygon points="161.2,123.9 171.7,129.7 161.8,123 " />
<polygon points="171.7,129.7 173.4,132.9 166.2,133.5 " />
<polygon points="34,177 186,177 186,181 34,181 " />
<polygon points="186,177 162,179 174,167 " />
</g>
</svg>
