<svg xmlns="http://www.w3.org/2000/svg" xmlns:xlink="http://www.w3.org/1999/xlink" version="1.1" baseProfile="full" viewBox="0 0 200 200" width="200" height="200">
<g fill="black">
<polygon points="56,23 56,76 44,82 44,17 " />
<polygon points="50,23 152,23 152,27 50,27 " />
<polygon points="158,25 158,70 146,76 146,25 " />
<polygon points="146,23 152,18 163,27 158,31 146,25 " />
<polygon points="50,60 152,60 152,64 50,64 " />
<polygon points="53,96 53,148 41,154 41,90 " />
<polygon points="47,96 156,96 156,100 47,100 " />
<polygon points="162,98 162,136 150,142 150,98 " />
<polygon points="150,96 156,91 167,100 162,104 150,98 " />
<polygon points="47,132 156,132 156,136 47,136 " />
<polygon points="107,60 107,172 95,172 95,60 " />
<polygon points="25.4,173.9 38.9,173 52.5,172.1 66.2,171.3 79.9,170.5 93.8,169.7 107.8,169 121.9,168.3 136.1,167.7 150.4,167.3 164.9,167.1 165,168.8 150.8,171 136.6,173 122.5,174.8 108.5,176.5 94.6,178.2 80.7,179.7 67,181.3 53.4,182.8 39.9,184.3 26.5,185.8 " />
<polygon points="26.5,185.8 25.4,173.9 23.4,174.1 " />
<polygon points="26.5,185.8 28.7,188.7 32.2,182.3 " />
<polygon points="138.3,146.7 144.1,149 149.5,151.6 154.4,154.5 159.1,157.6 163.3,160.8 167.2,164.3 170.7,167.9 173.9,171.7 176.7,175.6 179.2,179.7 168.2,184.7 166.8,181.2 165,177.7 162.9,174.1 160.3,170.5 157.4,166.9 154.1,163.3 150.4,159.7 146.4,156 142.1,152.2 137.4,148.2 " />
<polygon points="179.2,179.7 179.3,184.3 176.2,187.7 171.6,187.8 168.2,184.7 " />
</g>
</svg>
