<svg xmlns="http://www.w3.org/2000/svg" xmlns:xlink="http://www.w3.org/1999/xlink" version="1.1" baseProfile="full" viewBox="0 0 200 200" width="200" height="200">
<g fill="black">
<polygon points="51,23 51,60 39,66 39,21 " />
<polygon points="51,23 54,25 51,27 " />
<polygon points="45,49 158,49 158,53 45,53 " />
<polygon points="164,23 164,57 152,63 152,21 " />
<polygon points="164,23 167,25 164,27 " />
<polygon points="109,15 109,40 97,40 97,13 " />
<polygon points="109,15 112,17 109,19 " />
<polygon points="109,40 106.6,43.6 103,46 99.4,43.6 97,40 " />
<polygon points="109,40 108.4,46.3 107.2,52.2 105.5,57.8 103.2,62.9 100.3,67.6 96.9,71.8 93,75.4 88.6,78.5 83.7,81 78.3,82.8 77.6,81.1 81.7,77.8 85.3,74.3 88.4,70.8 91,67.2 93.1,63.3 94.7,59.2 95.9,54.9 96.7,50.2 97,45.3 97,40 " />
<polygon points="17,80 186,80 186,84 17,84 " />
<polygon points="186,80 162,82 174,70 " />
<polygon points="54,103 54,152 42,158 42,97 " />
<polygon points="48,103 156,103 156,107 48,107 " />
<polygon points="162,105 162,140 150,146 150,105 " />
<polygon points="150,103 156,98 167,107 162,111 150,105 " />
<polygon points="48,136 156,136 156,140 48,140 " />
<polygon points="107,80 107,172 95,172 95,80 " />
<polygon points="24.6,172.9 38.3,172.4 52,172 65.9,171.5 79.9,171.1 94,170.7 108.1,170.4 122.4,170.1 136.8,169.9 151.3,169.9 165.9,170.1 166,171.8 151.5,173.6 137.1,175.2 122.8,176.6 108.6,177.9 94.4,179.2 80.4,180.4 66.5,181.5 52.7,182.7 38.9,183.8 25.3,184.9 " />
<polygon points="25.3,184.9 24.6,172.9 22.6,173 " />
<polygon points="25.3,184.9 27.5,187.8 31.1,181.5 " />
<polygon points="137.2,150.6 143.2,152.5 148.8,154.6 154,157.1 159,159.8 163.6,162.6 167.9,165.6 171.9,168.7 175.6,172 179,175.4 182.1,179.1 172.3,185.9 170.2,182.6 167.7,179.3 165,175.9 161.8,172.6 158.4,169.3 154.6,166 150.5,162.7 146.1,159.3 141.4,155.8 136.5,152.2 " />
<polygon points="182.1,179.1 183.1,183.5 180.7,187.4 176.2,188.3 172.3,185.9 " />
</g>
</svg>
