<svg xmlns="http://www.w3.org/2000/svg" xmlns:xlink="http://www.w3.org/1999/xlink" version="1.1" baseProfile="full" viewBox="0 0 200 200" width="200" height="200">
<g fill="black">
<polygon points="54,41 54,88 42,88 42,35 " />
<polygon points="48,41 150,41 150,45 48,45 " />
<polygon points="156,43 156,88 144,88 144,43 " />
<polygon points="144,41 150,36 161,45 156,49 144,43 " />
<polygon points="87,41 87,88 75,88 75,41 " />
<polygon points="123,41 123,88 111,88 111,41 " />
<polygon points="17,84 184,84 184,88 17,88 " />
<polygon points="184,84 160,86 172,74 " />
<polygon points="104.7,19.8 102.1,22 99.4,24.3 96.5,26.7 93.6,29.1 90.6,31.5 87.4,33.9 84.2,36.3 80.8,38.7 77.2,41.1 73.6,43.6 72.3,42.3 75,38.9 77.6,35.4 80.1,32.1 82.6,28.9 85,25.8 87.3,22.8 89.6,19.9 91.8,17.1 93.9,14.3 95.9,11.6 " />
<polygon points="96.2,11.2 104.7,19.8 95.2,12.3 " />
<polygon points="104.7,19.8 105.5,23.3 99.8,22.1 " />
<polygon points="103.3,97 97.5,101.5 91.3,105.7 84.7,109.6 77.7,113.3 70.4,116.6 62.6,119.6 54.3,122.3 45.7,124.7 36.7,126.6 27.2,128.1 26.7,126.4 35.6,123 44,119.6 52,116.2 59.6,112.6 66.7,108.9 73.3,105.1 79.5,101.1 85.2,96.9 90.4,92.6 95.2,88.1 " />
<polygon points="95.4,87.9 103.3,97 94.4,88.8 " />
<polygon points="103.3,97 103.8,100.5 98.2,98.9 " />
<polygon points="88.3,102.7 98.4,109.2 106.7,116.1 113.3,123.3 118.1,130.9 121.1,138.9 122.1,147.2 121.1,155.7 118,164.2 113,172.5 106.3,180.7 97.8,172.2 104,165.6 108.5,159.2 111.4,152.9 112.8,146.8 112.8,140.5 111.1,133.9 107.8,127 102.7,119.7 95.9,112.1 87.3,104.2 " />
<polygon points="106.3,180.7 102,182.4 97.8,180.7 96.1,176.4 97.8,172.2 " />
<polygon points="106.3,180.7 104.5,182.3 102.6,183.8 100.7,185.1 98.6,186.3 96.5,187.3 94.3,188.1 92,188.7 89.7,189.2 87.4,189.4 85,189.5 85,177.5 86.5,177.5 87.9,177.3 89.3,177 90.6,176.7 91.9,176.2 93.1,175.6 94.3,175 95.5,174.2 96.6,173.2 97.8,172.2 " />
<polygon points="65,180.5 65,177.5 85,177.5 85,183.5 " />
<polygon points="103.7,120.9 96.5,125.9 89.1,130.4 81.5,134.6 73.7,138.2 65.6,141.5 57.3,144.2 48.8,146.5 40.1,148.3 31.2,149.6 22.1,150.2 21.8,148.4 30.5,145.8 38.8,143.1 46.9,140.2 54.7,137.1 62.3,133.6 69.6,129.9 76.6,125.8 83.4,121.4 89.9,116.6 96.2,111.5 " />
<polygon points="116.1,136.8 107.9,143.6 99.3,149.6 90.3,155 80.9,159.8 71.1,163.9 60.9,167.4 50.2,170.1 39.2,172.2 27.8,173.5 16,174 15.9,172.2 27.2,169.7 38.1,167 48.5,163.8 58.4,160.2 67.8,156.1 76.7,151.5 85.2,146.4 93.2,140.8 100.7,134.7 107.8,128.1 " />
<polygon points="153.5,107.8 150,110.8 146.3,113.6 142.4,116.3 138.5,118.8 134.3,121.2 130,123.3 125.6,125.3 121,127.1 116.2,128.6 111.3,129.8 110.6,128.2 114.7,125.4 118.7,122.6 122.5,119.8 126.2,117 129.7,114.3 133.1,111.4 136.3,108.5 139.4,105.5 142.2,102.5 145,99.4 " />
<polygon points="145.3,99.1 153.5,107.8 144.3,100.1 " />
<polygon points="153.5,107.8 154.3,111.3 148.6,110 " />
<polygon points="123.3,124.1 128.6,129.6 133.8,134.9 139.1,139.9 144.5,144.5 150.1,148.8 155.8,152.8 161.7,156.4 167.8,159.7 174.1,162.6 180.5,165.3 175.4,177.4 168.5,173.9 161.9,169.9 155.7,165.7 149.7,161 144.1,156 138.8,150.6 133.9,144.8 129.3,138.7 125.2,132.1 121.8,125.1 " />
<polygon points="175.4,177.4 180.5,165.3 186.8,167.9 " />
</g>
</svg>
