<svg xmlns="http://www.w3.org/2000/svg" xmlns:xlink="http://www.w3.org/1999/xlink" version="1.1" baseProfile="full" viewBox="0 0 200 200" width="200" height="200">
<g fill="black">
<polygon points="54,41 54,88 42,88 42,35 " />
<polygon points="48,41 150,41 150,45 48,45 " />
<polygon points="156,43 156,88 144,88 144,43 " />
<polygon points="144,41 150,36 161,45 156,49 144,43 " />
<polygon points="87,41 87,88 75,88 75,41 " />
<polygon points="123,41 123,88 111,88 111,41 " />
<polygon points="17,84 184,84 184,88 17,88 " />
<polygon points="184,84 160,86 172,74 " />
<polygon points="104.7,19.8 102.1,22 99.4,24.3 96.5,26.7 93.6,29.1 90.6,31.5 87.4,33.9 84.2,36.3 80.8,38.7 77.2,41.1 73.6,43.6 72.3,42.3 75,38.9 77.6,35.4 80.1,32.1 82.6,28.9 85,25.8 87.3,22.8 89.6,19.9 91.8,17.1 93.9,14.3 95.9,11.6 " />
<polygon points="95.9,11.6 104.7,19.8 96.2,11.2 " />
<polygon points="104.7,19.8 105.5,23.3 98.4,22.1 " />
<polygon points="124.6,94.8 119.4,99.5 113.8,104 107.8,108.3 101.3,112.6 94.3,116.7 86.9,120.7 79,124.5 70.6,128.2 61.7,131.6 52.3,134.8 51.6,133.1 60.1,128.2 68.2,123.4 75.9,118.8 83,114.1 89.8,109.5 96,104.9 101.7,100.3 106.9,95.7 111.7,91.1 115.9,86.5 " />
<polygon points="115.9,86.5 124.6,94.8 116.2,86.2 " />
<polygon points="124.6,94.8 125.4,98.3 118.3,97.1 " />
<polygon points="106,113 106,184 94,190 94,111 " />
<polygon points="106,113 109,115 106,117 " />
<polygon points="103.2,112.5 108.6,121 114.4,128.9 120.5,136.2 127.2,143 134.4,149.2 142.1,154.8 150.4,159.8 159.3,164.3 168.9,168.3 179,171.7 174.9,184.2 164.1,179.8 154,174.9 144.7,169.3 136.1,163 128.2,156.2 121.2,148.8 114.9,140.8 109.5,132.2 105,123 101.5,113.2 " />
<polygon points="174.9,184.2 179,171.7 186.5,174.2 " />
<polygon points="168.6,113.8 165.2,116.9 161.6,120.1 157.8,123.4 153.8,126.7 149.7,130 145.3,133.4 140.7,136.7 136,140.1 130.9,143.4 125.5,146.6 124.4,145.3 128.4,140.5 132.4,136.1 136.4,131.8 140.2,127.7 143.9,123.8 147.4,119.9 150.8,116.2 154,112.5 157,109 159.9,105.6 " />
<polygon points="159.9,105.6 168.6,113.8 160.2,105.2 " />
<polygon points="168.6,113.8 169.4,117.3 162.3,116.1 " />
<polygon points="67,103.5 63.2,107.5 59.1,111.4 54.8,115.1 50.2,118.7 45.4,122.2 40.4,125.5 35.1,128.7 29.5,131.6 23.6,134.3 17.4,136.7 16.5,135.2 21.7,131.1 26.6,127.1 31.4,123.3 35.9,119.4 40.1,115.6 44.2,111.7 47.9,107.8 51.4,103.9 54.7,99.9 57.7,96 " />
<polygon points="57.7,96 67,103.5 58.1,95.4 " />
<polygon points="67,103.5 68.1,106.9 60.9,106.3 " />
<polygon points="81.6,144.8 75.6,150.3 69.5,155.5 63.2,160.5 56.7,165.2 50,169.6 43.1,173.7 36,177.6 28.7,181.1 21.1,184.1 13.3,186.8 12.6,185.1 19.4,180.7 26.1,176.3 32.6,171.9 38.9,167.4 45.1,162.7 51,157.8 56.8,152.7 62.4,147.5 67.8,142.1 72.9,136.5 " />
<polygon points="72.9,136.5 81.6,144.8 73.2,136.2 " />
<polygon points="81.6,144.8 82.3,148.4 75.2,147.1 " />
</g>
</svg>
