<svg xmlns="http://www.w3.org/2000/svg" xmlns:xlink="http://www.w3.org/1999/xlink" version="1.1" baseProfile="full" viewBox="0 0 200 200" width="200" height="200">
<g fill="black">
<polygon points="57.2,22.7 53.9,27 50.5,31.3 46.9,35.5 43.1,39.7 39.1,43.9 34.9,48 30.6,52 26,56 21.2,59.8 16,63.4 14.8,62.1 18.5,57.1 22.2,52.2 25.8,47.5 29.3,42.9 32.6,38.4 35.8,33.9 38.9,29.4 41.8,25 44.5,20.6 47.1,16.2 " />
<polygon points="46.6,17 57.2,22.7 47.6,15.4 " />
<polygon points="57.2,22.7 58.6,26.1 52.7,25.8 " />
<polygon points="60.6,53.3 56.8,60.8 52.8,68.1 48.5,75.2 44.1,82.2 39.3,89 34.4,95.7 29.1,102.2 23.6,108.4 17.7,114.5 11.5,120.2 10.2,119 14.8,112 19.4,105.1 23.8,98.3 28.1,91.4 32.2,84.4 36.1,77.4 39.8,70.3 43.3,63.1 46.5,55.8 49.6,48.5 " />
<polygon points="49.2,49.4 60.6,53.3 50.1,47.2 " />
<polygon points="60.6,53.3 62.5,56.4 56.7,57.1 " />
<polygon points="44.5,89.2 44.5,181.3 32.5,187.3 32.5,87.2 " />
<polygon points="44.5,89.2 47.5,91.2 42.5,94.2 " />
<polygon points="100.7,17.9 93,64 80.9,64 89.2,14 " />
<polygon points="100.7,17.9 103.3,20.4 98.1,22 " />
<polygon points="66,34 121,34 121,38 66,38 " />
<polygon points="127,36 127,66 115,66 115,36 " />
<polygon points="115,34 121,29 132,38 127,42 115,36 " />
<polygon points="63,62 142,62 142,66 63,66 " />
<polygon points="142,62 130,64 136,56 " />
<polygon points="82,80 82,115 70,121 70,74 " />
<polygon points="76,80 124,80 124,84 76,84 " />
<polygon points="130,82 130,112 118,118 118,82 " />
<polygon points="118,80 124,75 135,84 130,88 118,82 " />
<polygon points="76,104 124,104 124,108 76,108 " />
<polygon points="63,132 138,132 138,136 63,136 " />
<polygon points="138,132 118,134 128,123 " />
<polygon points="84,132 84,162 72,162 72,132 " />
<polygon points="54,158 144,158 144,162 54,162 " />
<polygon points="144,158 120,160 132,148 " />
<polygon points="115,116 115,182 103,188 103,114 " />
<polygon points="115,116 118,118 113,121 " />
<polygon points="141.6,30.6 183.1,30.6 183.1,34.6 141.6,34.6 " />
<polygon points="183.1,30.6 163.1,32.6 173.1,21.6 " />
<polygon points="137.9,71.2 188.1,71.2 188.1,75.2 137.9,75.2 " />
<polygon points="188.1,71.2 168.1,73.2 178.1,62.2 " />
<polygon points="169.3,71.2 169.3,172.1 157.3,172.1 157.3,71.2 " />
<polygon points="169.3,172.1 166.9,175.7 163.3,178.1 159.7,175.7 157.3,172.1 " />
<polygon points="169.3,172.1 169.2,174.7 168.7,177.2 167.9,179.6 166.7,181.8 165.1,183.9 163,185.5 160.8,186.7 158.4,187.5 155.9,188 153.3,188.1 153.3,176.1 154.6,176.1 155.5,175.9 156.1,175.7 156.4,175.5 156.6,175.4 156.7,175.2 156.9,174.9 157.1,174.3 157.3,173.4 157.3,172.1 " />
<polygon points="153.3,182.1 153.3,176.1 133.3,176.1 133.3,179.1 " />
</g>
</svg>
