<svg xmlns="http://www.w3.org/2000/svg" xmlns:xlink="http://www.w3.org/1999/xlink" version="1.1" baseProfile="full" viewBox="0 0 200 200" width="200" height="200">
<g fill="black">
<polygon points="55.5,22.7 52.3,27.1 49,31.4 45.5,35.6 41.8,39.8 38,44 34,48.1 29.7,52.2 25.3,56.2 20.6,60 15.6,63.7 14.3,62.4 17.9,57.4 21.4,52.5 24.8,47.8 28.2,43.2 31.4,38.7 34.5,34.1 37.4,29.6 40.2,25.2 42.8,20.8 45.3,16.4 " />
<polygon points="44.8,17.2 55.5,22.7 45.8,15.5 " />
<polygon points="55.5,22.7 56.9,26 51.1,25.9 " />
<polygon points="58.8,53.5 55.1,61 51.2,68.3 47.1,75.5 42.8,82.5 38.2,89.4 33.4,96.1 28.3,102.6 23,108.9 17.3,115 11.3,120.7 9.9,119.6 14.3,112.6 18.7,105.7 22.9,98.8 27.1,91.9 31,84.9 34.7,77.9 38.3,70.7 41.6,63.5 44.8,56.2 47.7,48.8 " />
<polygon points="47.3,49.7 58.8,53.5 48.3,47.5 " />
<polygon points="58.8,53.5 60.7,56.5 55,57.3 " />
<polygon points="43.3,89.6 43.3,182.2 31.3,188.2 31.3,87.6 " />
<polygon points="43.3,89.6 46.3,91.6 41.3,94.6 " />
<polygon points="101.8,16.7 96,62 83.9,62 90.1,13.2 " />
<polygon points="101.8,16.7 104.5,19.1 99.3,20.8 " />
<polygon points="69,35 121,35 121,39 69,39 " />
<polygon points="127,37 127,64 115,64 115,37 " />
<polygon points="115,35 121,30 132,39 127,43 115,37 " />
<polygon points="63,60 145,60 145,64 63,64 " />
<polygon points="145,60 129,62 137,53 " />
<polygon points="81,75 81,97 69,103 69,69 " />
<polygon points="75,75 125,75 125,79 75,79 " />
<polygon points="131,77 131,97 119,103 119,77 " />
<polygon points="119,75 125,70 136,79 131,83 119,77 " />
<polygon points="75,93 125,93 125,97 75,97 " />
<polygon points="56,111 147,111 147,115 56,115 " />
<polygon points="147,111 127,113 137,102 " />
<polygon points="78,130 78,173 66,179 66,124 " />
<polygon points="72,130 129,130 129,134 72,134 " />
<polygon points="135,132 135,161 123,161 123,132 " />
<polygon points="123,130 129,125 140,134 135,138 123,132 " />
<polygon points="135,161 132.6,164.6 129,167 125.4,164.6 123,161 " />
<polygon points="135,161 134.8,163.5 134.4,166 133.6,168.4 132.3,170.7 130.7,172.7 128.7,174.3 126.4,175.6 124,176.4 121.5,176.8 119,177 119,165 120.2,164.9 121.1,164.7 121.7,164.5 122,164.4 122.2,164.2 122.4,164 122.5,163.7 122.7,163.1 122.9,162.2 123,161 " />
<polygon points="119,171 119,165 99,165 99,168 " />
<polygon points="105,111 105,182 93,188 93,111 " />
<polygon points="142.8,30.6 183.3,30.6 183.3,34.6 142.8,34.6 " />
<polygon points="183.3,30.6 163.3,32.6 173.3,21.6 " />
<polygon points="139.3,71.2 188.2,71.2 188.2,75.2 139.3,75.2 " />
<polygon points="188.2,71.2 168.2,73.2 178.2,62.2 " />
<polygon points="170,71.2 170,172.1 158,172.1 158,71.2 " />
<polygon points="170,172.1 167.6,175.7 164,178.1 160.4,175.7 158,172.1 " />
<polygon points="170,172.1 169.9,174.7 169.4,177.2 168.6,179.6 167.4,181.8 165.7,183.9 163.7,185.5 161.5,186.7 159.1,187.5 156.6,188 154,188.1 154,176.1 155.2,176.1 156.1,175.9 156.7,175.7 157.1,175.5 157.3,175.4 157.4,175.2 157.6,174.9 157.8,174.3 157.9,173.4 158,172.1 " />
<polygon points="154,182.1 154,176.1 134,176.1 134,179.1 " />
</g>
</svg>
