<svg xmlns="http://www.w3.org/2000/svg" xmlns:xlink="http://www.w3.org/1999/xlink" version="1.1" baseProfile="full" viewBox="0 0 200 200" width="200" height="200">
<g fill="black">
<polygon points="106,14.5 106,39.3 94,39.3 94,12.5 " />
<polygon points="106,14.5 109,16.5 106,18.5 " />
<polygon points="20,35.3 182,35.3 182,39.3 20,39.3 " />
<polygon points="182,35.3 158,37.3 170,25.3 " />
<polygon points="87.4,48.4 82.3,52.7 76.9,56.9 71.3,61 65.5,64.9 59.4,68.6 53.1,72.2 46.6,75.6 39.8,78.8 32.7,81.7 25.3,84.2 24.6,82.6 31,78.3 37.2,74.1 43.2,69.9 49,65.8 54.6,61.6 60,57.4 65.1,53.1 70,48.7 74.7,44.3 79.1,39.8 " />
<polygon points="79.1,39.8 87.4,48.4 79.3,39.5 " />
<polygon points="87.4,48.4 88,51.9 81,50.4 " />
<polygon points="113.2,41.4 119.9,43.1 126.3,45.3 132.4,47.8 138.2,50.7 143.7,53.9 148.9,57.3 153.8,61 158.5,64.9 162.8,69.1 166.9,73.5 157.4,80.9 154.3,76.6 150.8,72.4 147.1,68.4 143.1,64.5 138.8,60.8 134.1,57.1 129.2,53.6 123.9,50.1 118.4,46.6 112.5,43 " />
<polygon points="166.9,73.5 168,78 165.8,81.9 161.4,83.1 157.4,80.9 " />
<polygon points="112,116.2 103.9,122.1 95.4,127.8 86.5,133.2 77.1,138.4 67.2,143.4 57,148.1 46.2,152.5 35.1,156.7 23.4,160.4 11.2,163.8 10.7,162.1 22,156.9 33,151.7 43.6,146.5 53.6,141.2 63.3,135.9 72.4,130.3 81.1,124.7 89.4,118.9 97.1,113 104.4,106.9 " />
<polygon points="104.4,106.9 112,116.2 104.5,106.8 " />
<polygon points="112,116.2 112.3,119.8 105.4,117.7 " />
<polygon points="71,140 71,178 59,178 59,140 " />
<polygon points="36.9,175.9 45.9,174.6 55,173.3 64.1,172 73.2,170.6 82.4,169.2 91.6,167.9 100.8,166.5 110,165.2 119.4,164.1 128.8,163.1 129.1,164.8 120.2,167.8 111.1,170.5 102.1,173 93.1,175.3 84,177.6 75,179.7 66,181.8 56.9,183.8 47.9,185.8 39,187.7 " />
<polygon points="39,187.7 36.9,175.9 34.9,176.2 " />
<polygon points="39,187.7 41.4,190.3 44.4,183.7 " />
<polygon points="166.7,123.8 164,126.1 161.2,128.5 158.1,131 154.9,133.5 151.6,136.1 148,138.8 144.2,141.5 140.2,144.2 136,146.9 131.5,149.6 130.4,148.3 133.8,144.3 137,140.5 140.1,136.9 143.1,133.4 146,130.2 148.7,127 151.2,124 153.6,121.1 155.8,118.3 157.9,115.6 " />
<polygon points="157.9,115.6 166.7,123.8 158.2,115.2 " />
<polygon points="166.7,123.8 167.5,127.3 160.4,126.1 " />
<polygon points="104.2,118.3 110.7,126.2 117.2,133.5 123.9,140.3 130.9,146.6 138.3,152.3 145.9,157.4 153.9,162.1 162.2,166.1 170.9,169.7 180,172.7 175.9,185.2 166.2,181.3 157,176.7 148.3,171.6 140.1,165.9 132.4,159.5 125.2,152.7 118.6,145.2 112.6,137.2 107.3,128.5 102.7,119.3 " />
<polygon points="175.9,185.2 180,172.7 187.5,175.2 " />
<polygon points="108.5,63.3 104.3,67.9 99.9,72.4 95.3,77 90.6,81.5 85.7,86 80.7,90.4 75.4,94.7 70,99 64.2,103.1 58.2,107 57.1,105.6 61.7,100.3 66.3,95 70.9,90 75.3,85 79.7,80 83.9,75.1 87.9,70.2 91.8,65.4 95.6,60.5 99.2,55.7 " />
<polygon points="99.2,55.7 108.5,63.3 99.6,55.2 " />
<polygon points="108.5,63.3 109.5,66.7 102.4,66 " />
<polygon points="35.7,101.8 45.6,101.4 55.9,101 66.5,100.7 77.4,100.3 88.7,99.9 100.3,99.6 112.3,99.3 124.6,99 137.3,98.9 150.3,99.1 150.4,100.8 137.5,102.7 124.9,104.4 112.7,105.8 100.8,107.1 89.2,108.4 78,109.6 67.1,110.7 56.6,111.7 46.4,112.8 36.6,113.7 " />
<polygon points="36.6,113.7 35.7,101.8 33.7,101.9 " />
<polygon points="36.6,113.7 38.8,116.6 42.3,110.3 " />
<polygon points="122.8,84.6 128.5,86.3 133.9,88.1 138.9,90.1 143.7,92.1 148.1,94.2 152.3,96.3 156.2,98.5 159.9,100.7 163.3,102.9 166.5,105.1 158.5,114.1 156.2,111.7 153.5,109.2 150.6,106.7 147.3,104 143.8,101.3 140,98.6 135.9,95.7 131.5,92.7 126.9,89.5 122.1,86.2 " />
<polygon points="166.5,105.1 168.4,109.2 167,113.6 162.9,115.5 158.5,114.1 " />
</g>
</svg>
