<svg xmlns="http://www.w3.org/2000/svg" xmlns:xlink="http://www.w3.org/1999/xlink" version="1.1" baseProfile="full" viewBox="0 0 200 200" width="200" height="200">
<g fill="black">
<polygon points="106,14.6 106,42.6 94,42.6 94,12.6 " />
<polygon points="106,14.6 109,16.6 104,19.6 " />
<polygon points="15,38.6 185,38.6 185,42.6 15,42.6 " />
<polygon points="185,38.6 161,40.6 173,28.6 " />
<polygon points="28,60 178,60 178,64 28,64 " />
<polygon points="178,60 158,62 168,51 " />
<polygon points="72,60 72,114 60,114 60,60 " />
<polygon points="140,60 140,114 128,114 128,60 " />
<polygon points="19,85 185,85 185,89 19,89 " />
<polygon points="185,85 161,87 173,75 " />
<polygon points="28,110 178,110 178,114 28,114 " />
<polygon points="178,110 154,112 166,100 " />
<polygon points="110.1,112 103.8,116.6 96.4,122 88.7,127.3 80.6,132.4 72.1,137.3 63.3,142.1 54.1,146.7 44.5,151.1 34.5,155.3 24.1,159.2 13.3,162.8 12.6,161.1 22.6,155.8 32.2,150.5 41.6,145.3 50.5,140 59.1,134.8 67.3,129.4 75.1,124 82.5,118.5 89.5,113 90.6,112 " />
<polygon points="72,136 72,177 60,177 60,136 " />
<polygon points="36.8,174.9 45.8,173.4 54.9,171.9 64,170.4 73.1,168.8 82.3,167.3 91.5,165.7 100.7,164.1 110,162.6 119.3,161.3 128.7,160.1 129.2,161.8 120.2,165 111.2,167.9 102.2,170.6 93.1,173.1 84.1,175.5 75.1,177.9 66.1,180.2 57.1,182.4 48.1,184.6 39.1,186.6 " />
<polygon points="34.8,175.3 36.8,174.9 39.1,186.6 " />
<polygon points="44.4,182.6 41.6,189.2 39.1,186.6 " />
<polygon points="171.7,129.4 168.5,131.3 165,133.3 161.3,135.4 157.4,137.5 153.2,139.6 148.8,141.9 144.2,144.1 139.2,146.4 133.9,148.6 128.4,150.7 127.5,149.2 132.1,145.4 136.5,141.9 140.8,138.6 144.9,135.5 148.8,132.6 152.4,129.7 155.8,127 159,124.5 161.9,122 164.6,119.7 " />
<polygon points="164.6,119.7 171.7,129.4 163.8,120.3 " />
<polygon points="171.7,129.4 171.9,133 166.5,130.7 " />
<polygon points="106.2,112.5 111.5,121.2 117.1,129.4 123.2,136.9 129.7,143.8 136.9,150.2 144.7,156 153.1,161.2 162.1,165.9 171.8,170.1 182.1,173.7 177.8,186.2 166.9,181.6 156.7,176.4 147.2,170.6 138.5,164.2 130.7,157.2 123.6,149.5 117.4,141.3 112.1,132.5 107.7,123.2 104.5,113.2 " />
<polygon points="177.8,186.2 182.1,173.7 189.4,176.2 " />
</g>
</svg>
