<svg xmlns="http://www.w3.org/2000/svg" xmlns:xlink="http://www.w3.org/1999/xlink" version="1.1" baseProfile="full" viewBox="0 0 200 200" width="200" height="200">
<g fill="black">
<polygon points="21,40 180,40 180,44 21,44 " />
<polygon points="180,40 156,42 168,30 " />
<polygon points="105,13 105,44 93,44 93,11 " />
<polygon points="105,13 108,15 103,18 " />
<polygon points="30,110 170,110 170,114 30,114 " />
<polygon points="170,110 146,112 158,100 " />
<polygon points="108.9,112 102.9,116.5 96.6,121.2 89.9,125.8 82.6,130.3 74.9,134.7 66.8,138.9 58.1,143 48.9,147 39.3,150.9 29,154.5 18.3,157.8 17.6,156.1 27.6,151 37,146 46.1,141.1 54.6,136.3 62.6,131.5 70.2,126.7 77.2,121.9 83.6,117.1 89.6,112.2 89.8,112 " />
<polygon points="74,136 74,173 62,173 62,134 " />
<polygon points="74,136 77,138 72,141 " />
<polygon points="29.9,175.9 37.8,174.8 45.8,173.6 54,172.4 62.3,171.1 70.8,169.8 79.5,168.4 88.3,167 97.2,165.6 106.4,164.3 115.7,163.1 116.2,164.8 107.3,168 98.4,170.8 89.7,173.4 81.1,175.8 72.6,178.1 64.2,180.2 55.9,182.2 47.8,184.2 39.8,186 32,187.7 " />
<polygon points="27.9,176.2 29.9,175.9 32,187.7 " />
<polygon points="37.4,183.7 34.5,190.3 32,187.7 " />
<polygon points="165.9,125.5 162.9,128.7 159.6,131.8 156.3,134.8 152.8,137.8 149.1,140.7 145.3,143.5 141.4,146.2 137.3,148.9 133,151.3 128.5,153.7 127.4,152.2 130.8,148.6 134.1,144.9 137.3,141.4 140.4,138 143.5,134.6 146.4,131.3 149.1,127.9 151.8,124.6 154.3,121.2 156.7,117.9 " />
<polygon points="157.1,117.4 165.9,125.5 156,118.7 " />
<polygon points="165.9,125.5 167,129 161.2,128.1 " />
<polygon points="100.2,112.5 105.6,121.8 111.3,130.4 117.4,138.2 124,145.3 131,151.8 138.5,157.5 146.5,162.5 155.1,166.9 164.2,170.6 173.9,173.6 170,186.3 159.5,182.2 149.8,177.4 140.7,171.9 132.3,165.6 124.6,158.6 117.7,150.9 111.6,142.5 106.3,133.4 101.9,123.7 98.5,113.2 " />
<polygon points="170,186.3 173.9,173.6 181.6,176 " />
<polygon points="71,53.3 71,96.9 59,102.9 59,51.3 " />
<polygon points="71,53.3 74,55.3 69,58.3 " />
<polygon points="139,53.3 139,95.9 127,101.9 127,51.3 " />
<polygon points="139,53.3 142,55.3 137,58.3 " />
<polygon points="19,65.5 182,65.5 182,69.5 19,69.5 " />
<polygon points="182,65.5 158,67.5 170,55.5 " />
<polygon points="65,89.9 133,89.9 133,93.9 65,93.9 " />
</g>
</svg>
