<svg xmlns="http://www.w3.org/2000/svg" xmlns:xlink="http://www.w3.org/1999/xlink" version="1.1" baseProfile="full" viewBox="0 0 200 200" width="200" height="200">
<g fill="black">
<polygon points="107,16 107,42 95,42 95,14 " />
<polygon points="107,16 110,18 107,20 " />
<polygon points="18,38 185,38 185,42 18,42 " />
<polygon points="185,38 161,40 173,28 " />
<polygon points="34,57 147,57 147,61 34,61 " />
<polygon points="153,59 153,111 141,111 141,59 " />
<polygon points="141,57 147,52 158,61 153,65 141,59 " />
<polygon points="68,57 68,111 56,111 56,57 " />
<polygon points="19,81 185,81 185,85 19,85 " />
<polygon points="185,81 161,83 173,71 " />
<polygon points="26,107 181,107 181,111 26,111 " />
<polygon points="181,107 157,109 169,97 " />
<polygon points="111.9,109 105.8,113.6 98.1,119.4 90,125 81.6,130.5 72.9,135.8 63.9,140.8 54.5,145.7 44.7,150.4 34.7,154.9 24.2,159 13.3,162.8 12.6,161.1 22.6,155.6 32.3,150.1 41.7,144.6 50.8,139.1 59.5,133.6 67.9,127.9 76,122.2 83.7,116.3 91.1,110.4 92.7,109 " />
<polygon points="72,136 72,178 60,178 60,136 " />
<polygon points="36.8,175.9 45.8,174.4 54.9,172.9 64,171.4 73.1,169.8 82.3,168.3 91.5,166.7 100.7,165.1 110,163.6 119.3,162.3 128.7,161.1 129.2,162.8 120.2,166 111.2,168.9 102.2,171.6 93.1,174.1 84.1,176.5 75.1,178.9 66.1,181.2 57.1,183.4 48.1,185.6 39.1,187.6 " />
<polygon points="39.1,187.6 36.8,175.9 34.8,176.3 " />
<polygon points="39.1,187.6 41.6,190.2 44.4,183.6 " />
<polygon points="171.9,127.3 168.7,129.4 165.2,131.6 161.4,133.8 157.5,136.1 153.3,138.4 148.9,140.7 144.2,143 139.2,145.3 134,147.6 128.4,149.7 127.5,148.2 132.1,144.4 136.5,140.9 140.8,137.5 144.9,134.4 148.7,131.3 152.3,128.4 155.7,125.6 158.9,123 161.8,120.4 164.4,117.9 " />
<polygon points="164.4,117.9 171.9,127.3 164.5,117.8 " />
<polygon points="171.9,127.3 172.2,130.9 165.4,128.7 " />
<polygon points="106.1,109.6 111.5,118.9 117.1,127.5 123.2,135.5 129.8,142.8 137,149.5 144.7,155.6 153.1,161 162.1,165.9 171.8,170.1 182.1,173.7 177.8,186.2 166.8,181.6 156.6,176.3 147.1,170.3 138.5,163.7 130.6,156.3 123.6,148.4 117.4,139.8 112,130.5 107.7,120.7 104.5,110.2 " />
<polygon points="177.8,186.2 182.1,173.7 189.4,176.2 " />
</g>
</svg>
