<svg xmlns="http://www.w3.org/2000/svg" xmlns:xlink="http://www.w3.org/1999/xlink" version="1.1" baseProfile="full" viewBox="0 0 200 200" width="200" height="200">
<g fill="black">
<polygon points="107,16 107,42 95,42 95,14 " />
<polygon points="107,16 110,18 107,20 " />
<polygon points="22,38 183,38 183,42 22,42 " />
<polygon points="183,38 159,40 171,28 " />
<polygon points="62,57 62,117 50,123 50,51 " />
<polygon points="56,57 148,57 148,61 56,61 " />
<polygon points="154,59 154,112 142,118 142,59 " />
<polygon points="142,57 148,52 159,61 154,65 142,59 " />
<polygon points="16,81 187,81 187,85 16,85 " />
<polygon points="187,81 163,83 175,71 " />
<polygon points="56,106 148,106 148,110 56,110 " />
<polygon points="109.1,108 104.1,112.3 96.7,118.6 88.9,124.6 80.8,130.5 72.2,136.2 63.3,141.8 53.9,147.1 44.2,152.2 34,157 23.4,161.6 12.3,165.8 11.6,164.1 21.7,158.2 31.5,152.3 40.9,146.5 50,140.6 58.6,134.6 66.9,128.6 74.7,122.5 82.2,116.3 89.2,110 91.2,108 " />
<polygon points="72,135 72,178 60,178 60,135 " />
<polygon points="36.8,175.9 45.8,174.4 54.9,172.9 64,171.4 73.1,169.8 82.3,168.3 91.5,166.7 100.7,165.1 110,163.6 119.3,162.3 128.7,161.1 129.2,162.8 120.2,166 111.2,168.9 102.2,171.6 93.1,174.1 84.1,176.5 75.1,178.9 66.1,181.2 57.1,183.4 48.1,185.6 39.1,187.6 " />
<polygon points="39.1,187.6 36.8,175.9 34.8,176.3 " />
<polygon points="39.1,187.6 41.6,190.2 44.4,183.6 " />
<polygon points="171.9,127.3 168.7,129.4 165.2,131.6 161.4,133.8 157.5,136.1 153.3,138.4 148.9,140.7 144.2,143 139.2,145.3 134,147.6 128.4,149.7 127.5,148.2 132.1,144.4 136.5,140.9 140.8,137.5 144.9,134.4 148.7,131.3 152.3,128.4 155.7,125.6 158.9,123 161.8,120.4 164.4,117.9 " />
<polygon points="164.4,117.9 171.9,127.3 164.5,117.8 " />
<polygon points="171.9,127.3 172.2,130.9 165.4,128.7 " />
<polygon points="107.2,108.5 112.6,118.1 118.3,126.9 124.4,135.1 130.9,142.6 137.8,149.4 145.3,155.5 153.2,161 161.7,165.9 170.7,170.1 180.3,173.8 175.6,186.1 165.4,181.5 155.8,176.2 146.9,170.1 138.7,163.4 131.3,156 124.5,147.9 118.5,139.2 113.2,129.9 108.9,119.9 105.5,109.2 " />
<polygon points="175.6,186.1 180.3,173.8 187.2,176.3 " />
</g>
</svg>
