<svg xmlns="http://www.w3.org/2000/svg" xmlns:xlink="http://www.w3.org/1999/xlink" version="1.1" baseProfile="full" viewBox="0 0 200 200" width="200" height="200">
<g fill="black">
<polygon points="38,40 163,40 163,44 38,44 " />
<polygon points="163,40 139,42 151,30 " />
<polygon points="107,19 107,70 95,70 95,17 " />
<polygon points="107,19 110,21 107,23 " />
<polygon points="64,83 64,121 52,127 52,77 " />
<polygon points="58,83 143,83 143,87 58,87 " />
<polygon points="149,85 149,118 137,124 137,85 " />
<polygon points="137,83 143,78 154,87 149,91 137,85 " />
<polygon points="58,110 143,110 143,114 58,114 " />
<polygon points="104.4,112 100.4,116 93.8,122.5 86.8,128.6 79.4,134.3 71.6,139.7 63.5,144.8 55,149.4 46.2,153.7 36.9,157.6 27.3,161 17.3,163.8 16.6,162.1 25.8,157.4 34.7,152.7 43.1,147.9 51.2,142.9 58.9,137.6 66.2,132.2 73.1,126.5 79.6,120.5 85.8,114.3 87.8,112 " />
<polygon points="77,139 77,168 65,174 65,137 " />
<polygon points="77,139 80,141 77,143 " />
<polygon points="35.4,173.9 42.5,172.4 49.9,170.9 57.5,169.5 65.5,168 73.8,166.5 82.3,165 91.2,163.6 100.4,162.3 109.9,161.1 119.8,160.1 120.1,161.8 110.7,164.8 101.5,167.5 92.6,170 84,172.5 75.6,174.8 67.6,177 59.8,179.2 52.4,181.4 45.3,183.5 38.4,185.5 " />
<polygon points="38.4,185.5 35.4,173.9 33.5,174.4 " />
<polygon points="38.4,185.5 41.1,187.9 43.5,181.1 " />
<polygon points="166.9,134.3 163.8,136.2 160.7,138.1 157.3,140 153.9,141.8 150.2,143.7 146.4,145.6 142.4,147.5 138.3,149.3 133.9,151 129.4,152.7 128.5,151.2 132.3,148.2 135.8,145.2 139.3,142.3 142.6,139.6 145.8,137 148.8,134.4 151.7,131.9 154.5,129.5 157,127.1 159.5,124.8 " />
<polygon points="159.5,124.8 166.9,134.3 159.5,124.8 " />
<polygon points="166.9,134.3 167.2,137.9 160.3,135.6 " />
<polygon points="101.2,113.5 106.8,123.1 112.8,131.9 119.1,139.7 125.8,146.7 133.1,152.9 140.8,158.2 149.1,162.7 157.9,166.4 167.3,169.3 177.3,171.5 174.6,184.4 163.7,181.3 153.4,177.3 143.9,172.4 135.1,166.6 127,160 119.8,152.5 113.4,144.1 107.8,135 103.1,125 99.5,114.2 " />
<polygon points="174.6,184.4 177.3,171.5 186.4,173.3 " />
<polygon points="19,66 182,66 182,70 19,70 " />
<polygon points="182,66 158,68 170,56 " />
</g>
</svg>
