<svg xmlns="http://www.w3.org/2000/svg" xmlns:xlink="http://www.w3.org/1999/xlink" version="1.1" baseProfile="full" viewBox="0 0 200 200" width="200" height="200">
<g fill="black">
<polygon points="19,38 180,38 180,42 19,42 " />
<polygon points="180,38 156,40 168,28 " />
<polygon points="86.3,11.8 89.5,13.6 92.7,15.1 95.6,16.6 98.4,18.3 101,20 103.3,21.8 105.5,23.6 107.5,25.5 109.4,27.5 111,29.6 100.2,35 99.8,33.3 99.1,31.5 98.2,29.5 97.1,27.5 95.7,25.3 94.1,23.1 92.2,20.7 90.2,18.2 88,15.6 85.3,13.3 " />
<polygon points="111,29.6 111.2,34.1 108.3,37.6 103.7,37.9 100.2,35 " />
<polygon points="128,38 128,55 116,55 116,38 " />
<polygon points="128,55 125.6,58.6 122,61 118.4,58.6 116,55 " />
<polygon points="128,55 128,56.2 128.2,57.1 128.4,57.7 128.5,58 128.7,58.2 128.9,58.4 129.2,58.5 129.8,58.7 130.7,58.9 132,59 132,71 129.4,70.8 126.9,70.4 124.5,69.6 122.2,68.3 120.2,66.7 118.6,64.7 117.3,62.4 116.5,60 116.1,57.5 116,55 " />
<polygon points="132,59 136.2,60.8 138,65 136.2,69.2 132,71 " />
<polygon points="132,59 174,59 174,71 132,71 " />
<polygon points="174,59 177.6,61.4 180,65 177.6,68.6 174,71 " />
<polygon points="77.4,46.1 73.5,51.1 69.2,56 64.6,60.8 59.7,65.3 54.4,69.6 48.7,73.7 42.7,77.7 36.3,81.3 29.6,84.7 22.4,87.7 21.5,86.2 27.6,81.5 33.4,76.9 38.8,72.3 44,67.8 48.8,63.2 53.2,58.6 57.3,53.9 61,49.2 64.4,44.4 67.4,39.5 " />
<polygon points="67.4,39.5 77.4,46.1 67.9,38.7 " />
<polygon points="77.4,46.1 78.8,49.4 71.6,49.5 " />
<polygon points="64,79 64,121 52,127 52,73 " />
<polygon points="58,79 142,79 142,83 58,83 " />
<polygon points="148,81 148,114 136,120 136,81 " />
<polygon points="136,79 142,74 153,83 148,87 136,81 " />
<polygon points="58,110 142,110 142,114 58,114 " />
<polygon points="106.7,112 102.1,116.2 93.9,123.6 85.6,130.4 77.2,136.8 68.7,142.8 60,148.2 51.3,153.2 42.5,157.7 33.5,161.7 24.5,165.1 15.3,167.8 14.6,166.1 22.9,161.6 31.2,156.9 39.3,152 47.4,146.7 55.4,141.2 63.2,135.2 71,128.9 78.7,122.2 86.3,115.1 89.4,112 " />
<polygon points="75,137 75,182 63,182 63,137 " />
<polygon points="63.9,177 67.9,175.9 72.3,174.6 77,173.3 81.9,171.9 87.2,170.4 92.8,168.8 98.7,167.1 105,165.4 111.6,163.7 118.6,162.1 119.3,163.8 113,167.3 106.9,170.4 101.1,173.3 95.5,175.9 90.2,178.3 85.1,180.6 80.4,182.8 75.9,184.7 71.8,186.6 67.9,188.3 " />
<polygon points="67.9,188.3 63.9,177 62,177.6 " />
<polygon points="67.9,188.3 70.8,190.5 72.5,183.5 " />
<polygon points="169.6,124.4 166.1,126.5 162.4,128.7 158.5,130.8 154.5,133.1 150.3,135.4 145.9,137.7 141.4,140 136.6,142.3 131.6,144.5 126.4,146.7 125.5,145.2 129.7,141.4 133.8,137.9 137.9,134.6 141.9,131.4 145.7,128.3 149.4,125.4 152.9,122.6 156.3,119.8 159.6,117.2 162.7,114.6 " />
<polygon points="162.7,114.6 169.6,124.4 169.8,124.3 " />
<polygon points="169.8,124.3 170,127.8 163.1,125.3 " />
<polygon points="108.2,122.4 113.9,129.5 119.8,136.1 126,142.4 132.5,148.2 139.5,153.5 146.9,158.4 154.7,162.9 163,166.9 171.8,170.5 181.1,173.7 176.8,186.2 167,182.1 157.8,177.5 149.2,172.4 141.1,166.9 133.7,160.8 126.8,154.3 120.7,147.3 115.2,139.8 110.5,131.8 106.7,123.3 " />
<polygon points="176.8,186.2 181.1,173.7 188.4,176.2 " />
</g>
</svg>
