<svg xmlns="http://www.w3.org/2000/svg" xmlns:xlink="http://www.w3.org/1999/xlink" version="1.1" baseProfile="full" viewBox="0 0 200 200" width="200" height="200">
<g fill="black">
<polygon points="26,41 177,41 177,45 26,45 " />
<polygon points="177,41 153,43 165,31 " />
<polygon points="106,20 106,45 94,45 94,18 " />
<polygon points="106,20 109,22 106,24 " />
<polygon points="86,59 143,59 143,63 86,63 " />
<polygon points="143,59 119,61 131,49 " />
<polygon points="133.2,61.4 137.4,65.8 141.4,70.1 145.4,74.2 149.4,78.2 153.4,81.9 157.6,85.5 161.9,88.8 166.3,91.8 170.8,94.7 175.4,97.4 168.5,108.5 163.7,105 159.1,101.2 154.7,97.1 150.6,92.9 146.7,88.4 143.1,83.7 139.7,78.7 136.6,73.5 133.9,68.1 131.7,62.3 " />
<polygon points="168.5,108.5 175.4,97.4 179.6,99.9 " />
<polygon points="74.3,69.2 70.3,74.2 65.9,79.1 61.3,83.8 56.4,88.3 51.1,92.6 45.6,96.7 39.8,100.6 33.7,104.3 27.2,107.7 20.4,110.7 19.5,109.2 25.2,104.5 30.6,99.9 35.9,95.4 40.8,90.8 45.5,86.2 49.9,81.6 53.9,76.9 57.7,72.1 61.2,67.3 64.4,62.4 " />
<polygon points="64.4,62.4 74.3,69.2 64.9,61.7 " />
<polygon points="74.3,69.2 75.6,72.5 68.4,72.4 " />
<polygon points="66,81 66,122 54,128 54,75 " />
<polygon points="60,81 140,81 140,85 60,85 " />
<polygon points="146,83 146,119 134,125 134,83 " />
<polygon points="134,81 140,76 151,85 146,89 134,83 " />
<polygon points="60,111 140,111 140,115 60,115 " />
<polygon points="104.1,113 100.4,116.9 93.7,123.8 86.6,130.2 79.2,136.3 71.6,141.9 63.6,147.2 55.3,152.1 46.8,156.5 37.9,160.5 28.8,163.9 19.3,166.8 18.6,165.1 27.2,160.4 35.6,155.7 43.6,150.7 51.4,145.6 58.8,140.2 65.9,134.5 72.8,128.6 79.3,122.3 85.5,115.8 87.9,113 " />
<polygon points="78,142 78,172 66,178 66,140 " />
<polygon points="78,142 81,144 78,146 " />
<polygon points="36.7,174.9 43.5,173.8 50.6,172.6 57.9,171.4 65.6,170.1 73.5,168.8 81.8,167.4 90.3,166 99.1,164.6 108.3,163.3 117.7,162.1 118.2,163.8 109.1,167 100.3,169.8 91.7,172.4 83.4,174.8 75.4,177 67.6,179.2 60.1,181.2 52.8,183.1 45.8,184.9 39.1,186.6 " />
<polygon points="39.1,186.6 36.7,174.9 34.8,175.3 " />
<polygon points="39.1,186.6 41.7,189.2 44.4,182.5 " />
<polygon points="169.4,135.5 166.3,137.2 163,138.8 159.6,140.5 156,142.2 152.3,143.8 148.4,145.5 144.4,147.1 140.2,148.7 135.8,150.2 131.4,151.7 130.5,150.2 134.3,147.4 137.9,144.5 141.5,141.9 144.9,139.3 148.2,136.9 151.4,134.5 154.5,132.1 157.4,129.9 160.1,127.7 162.8,125.5 " />
<polygon points="162.8,125.5 169.4,135.5 170.1,135 " />
<polygon points="170.1,135 170.3,138.6 163.3,136 " />
<polygon points="101.2,114.5 107.2,123.1 113.4,131.1 119.9,138.5 126.8,145.3 134.1,151.4 141.9,156.8 150.1,161.7 158.9,166 168.1,169.6 177.9,172.6 174,185.3 163.6,181.3 153.7,176.6 144.5,171.2 135.9,165.2 128,158.5 120.8,151.1 114.3,143.1 108.5,134.5 103.6,125.2 99.6,115.2 " />
<polygon points="174,185.3 177.9,172.6 185.6,175 " />
</g>
</svg>
