<svg xmlns="http://www.w3.org/2000/svg" xmlns:xlink="http://www.w3.org/1999/xlink" version="1.1" baseProfile="full" viewBox="0 0 200 200" width="200" height="200">
<g fill="black">
<polygon points="19,25 183,25 183,29 19,29 " />
<polygon points="183,25 159,27 171,15 " />
<polygon points="41,48 41,86 29,92 29,42 " />
<polygon points="35,48 165,48 165,52 35,52 " />
<polygon points="171,50 171,86 159,92 159,50 " />
<polygon points="159,48 165,43 176,52 171,56 159,50 " />
<polygon points="83,25 83,89 71,95 71,25 " />
<polygon points="130,25 130,83 118,89 118,25 " />
<polygon points="77,73 124,73 124,77 77,77 " />
</g>
</svg>
