<svg xmlns="http://www.w3.org/2000/svg" xmlns:xlink="http://www.w3.org/1999/xlink" version="1.1" baseProfile="full" viewBox="0 0 200 200" width="200" height="200">
<g fill="black">
<polygon points="17,21 183,21 183,25 17,25 " />
<polygon points="183,21 159,23 171,11 " />
<polygon points="45,39 45,93 33,99 33,33 " />
<polygon points="39,39 161,39 161,43 39,43 " />
<polygon points="167,41 167,87 155,93 155,41 " />
<polygon points="155,39 161,34 172,43 167,47 155,41 " />
<polygon points="84,21 84,41 72,41 72,21 " />
<polygon points="84,41 81.6,44.6 78,47 74.4,44.6 72,41 " />
<polygon points="83.9,41.5 82.8,46.6 80.9,51.3 78.3,55.6 75.1,59.4 71.2,62.8 66.9,65.7 62,68.1 56.6,70.2 50.6,71.7 44.2,72.8 43.7,71.1 49.5,68.4 54.5,65.5 58.9,62.6 62.6,59.7 65.7,56.6 68,53.5 69.8,50.4 71,47.2 71.7,43.9 72,40.4 " />
<polygon points="118,23 118,50 106,50 106,23 " />
<polygon points="118,50 115.6,53.6 112,56 108.4,53.6 106,50 " />
<polygon points="118,50 117.8,51.2 117.8,52.2 117.8,52.9 117.9,53.5 118,53.9 118.2,54.4 118.7,54.8 119.4,55.3 120.5,55.7 122,56 122,64 119.6,64 117.3,63.8 115,63.3 112.9,62.3 110.9,61 109.2,59.2 107.9,57.2 106.9,54.9 106.3,52.5 106,50 " />
<polygon points="122,56 124.8,57.2 126,60 124.8,62.8 122,64 " />
<polygon points="122,56 148,56 148,64 122,64 " />
<polygon points="148,56 150.4,57.6 152,60 150.4,62.4 148,64 " />
<polygon points="39,77 161,77 161,81 39,81 " />
</g>
</svg>
