<svg xmlns="http://www.w3.org/2000/svg" xmlns:xlink="http://www.w3.org/1999/xlink" version="1.1" baseProfile="full" viewBox="0 0 200 200" width="200" height="200">
<g fill="black">
<polygon points="20,49 184,49 184,53 20,53 " />
<polygon points="184,49 160,51 172,39 " />
<polygon points="41,83 41,148 29,154 29,77 " />
<polygon points="35,83 169,83 169,87 35,87 " />
<polygon points="175,85 175,142 163,148 163,85 " />
<polygon points="163,83 169,78 180,87 175,91 163,85 " />
<polygon points="35,132 169,132 169,136 35,136 " />
<polygon points="85,49 85,136 73,136 73,49 " />
<polygon points="130,49 130,136 118,136 118,49 " />
</g>
</svg>
