<svg xmlns="http://www.w3.org/2000/svg" xmlns:xlink="http://www.w3.org/1999/xlink" version="1.1" baseProfile="full" viewBox="0 0 200 200" width="200" height="200">
<g fill="black">
<polygon points="15,26 185,26 185,30 15,30 " />
<polygon points="185,26 161,28 173,16 " />
<polygon points="40,51 40,101 28,107 28,45 " />
<polygon points="34,51 166,51 166,55 34,55 " />
<polygon points="172,53 172,95 160,101 160,53 " />
<polygon points="160,51 166,46 177,55 172,59 160,53 " />
<polygon points="84,26 84,89 72,89 72,26 " />
<polygon points="128,26 128,89 116,89 116,26 " />
<polygon points="34,85 166,85 166,89 34,89 " />
</g>
</svg>
