<svg xmlns="http://www.w3.org/2000/svg" xmlns:xlink="http://www.w3.org/1999/xlink" version="1.1" baseProfile="full" viewBox="0 0 200 200" width="200" height="200">
<g fill="black">
<polygon points="53.6,18.7 50.5,26.2 47.3,33.6 43.8,40.8 40.2,47.8 36.3,54.6 32.2,61.3 27.8,67.8 23.2,74 18.3,80 13,85.6 11.6,84.6 15.2,77.8 18.7,71.1 22.2,64.4 25.6,57.6 28.8,50.7 31.8,43.7 34.7,36.7 37.4,29.5 39.9,22.2 42.2,14.8 " />
<polygon points="42.2,14.8 53.6,18.7 42.7,13.3 " />
<polygon points="53.6,18.7 55.7,21.6 48.8,23.4 " />
<polygon points="40.6,29.6 70.9,29.6 70.9,33.6 40.6,33.6 " />
<polygon points="76.5,33.7 74.9,36.9 73.2,40 71.3,43.1 69.3,46 67.2,48.9 64.9,51.7 62.5,54.4 60,57 57.2,59.4 54.6,61.9 53.2,60.8 55,57.7 56.4,54.4 57.8,51.3 59.2,48.2 60.4,45.1 61.6,42 62.6,38.9 63.6,35.8 64.5,32.7 65.2,29.6 " />
<polygon points="64.9,29.6 70.9,24.6 81.9,33.6 76.9,37.6 70.9,37.6 " />
<polygon points="39.1,59.3 39.1,124.7 27.1,124.7 27.1,53.3 " />
<polygon points="39.1,124.7 36.7,128.3 33.1,130.7 29.5,128.3 27.1,124.7 " />
<polygon points="39.1,124.7 38.6,133.4 37.8,141.6 36.7,149.3 35.2,156.6 33.4,163.3 31.3,169.5 28.7,175.2 25.8,180.4 22.4,184.9 18.7,188.6 17.2,187.5 19.2,182.9 21,178 22.6,172.8 24,167.3 25.2,161.3 26.1,154.9 26.7,148.1 27.1,140.8 27.2,133 27.1,124.7 " />
<polygon points="33.1,59.3 82.2,59.3 82.2,63.3 33.1,63.3 " />
<polygon points="88.2,61.3 88.2,171.1 76.2,171.1 76.2,61.3 " />
<polygon points="76.2,59.3 82.2,54.3 93.2,63.3 88.2,67.3 76.2,61.3 " />
<polygon points="88.2,171.1 85.8,174.7 82.2,177.1 78.6,174.7 76.2,171.1 " />
<polygon points="88.2,171.1 88.1,173.7 87.6,176.2 86.8,178.6 85.6,180.9 84,182.9 81.9,184.5 79.7,185.7 77.3,186.6 74.8,187 72.2,187.1 72.2,175.1 73.5,175.1 74.4,174.9 75,174.7 75.3,174.5 75.5,174.4 75.6,174.2 75.8,173.9 76,173.3 76.2,172.4 76.2,171.1 " />
<polygon points="72.2,181.1 72.2,175.1 52.2,175.1 52.2,178.1 " />
<polygon points="63.7,61.3 63.7,135.6 51.7,135.6 51.7,61.3 " />
<polygon points="33.1,95 82.2,95 82.2,99 33.1,99 " />
<polygon points="33.1,131.6 82.2,131.6 82.2,135.6 33.1,135.6 " />
<polygon points="99,26 166,26 166,30 99,30 " />
<polygon points="172,28 171.9,34.8 171.8,41.1 171.5,47 171.2,52.4 170.7,57.3 170.2,61.8 169.5,65.8 168.7,69.4 167.8,72.6 166.7,75.5 155.8,70.3 156.4,68.7 157.1,66.5 157.7,63.6 158.3,60.1 158.8,56.1 159.2,51.5 159.5,46.4 159.8,40.8 159.9,34.6 160,28 " />
<polygon points="160,26 166,21 177,30 172,34 166,34 " />
<polygon points="166.7,75.5 163.2,78.5 158.7,78.3 155.6,74.9 155.8,70.3 " />
<polygon points="166.7,75.5 165.5,77.7 164.1,79.8 162.5,81.6 160.7,83.3 158.7,84.8 156.6,85.9 154.3,86.8 151.9,87.5 149.5,87.8 147,88 147,76 148.3,75.9 149.5,75.7 150.6,75.4 151.5,75.1 152.3,74.6 153.1,74.1 153.8,73.4 154.5,72.6 155.2,71.6 155.8,70.3 " />
<polygon points="147,82 147,76 127,76 127,79 " />
<polygon points="134.9,28 134.9,28.1 134,37.3 132.3,46 129.8,54.2 126.5,61.7 122.3,68.7 117.4,74.9 111.7,80.5 105.3,85.4 98.2,89.5 90.4,92.8 89.5,91.1 96.2,86.3 102,81.2 107.1,75.9 111.5,70.2 115.1,64.2 118,57.9 120.2,51.1 121.8,43.8 122.7,36.1 122.9,28 " />
<polygon points="109,110 173,110 173,114 109,114 " />
<polygon points="173,110 153,112 163,101 " />
<polygon points="152,91 152,180 140,186 140,89 " />
<polygon points="152,91 155,93 152,95 " />
<polygon points="115,110 115,149 103,149 103,104 " />
<polygon points="92,145 183,145 183,149 92,149 " />
<polygon points="183,145 159,147 171,135 " />
</g>
</svg>
