<svg xmlns="http://www.w3.org/2000/svg" xmlns:xlink="http://www.w3.org/1999/xlink" version="1.1" baseProfile="full" viewBox="0 0 200 200" width="200" height="200">
<g fill="black">
<polygon points="55.3,17.9 52.1,25.5 48.7,32.9 45,40.2 41.2,47.3 37.1,54.2 32.8,60.9 28.2,67.5 23.4,73.8 18.2,79.8 12.7,85.5 11.2,84.4 15.1,77.6 18.9,70.8 22.6,64 26.2,57.1 29.6,50.2 32.9,43.1 35.9,36 38.8,28.7 41.5,21.3 44,13.9 " />
<polygon points="44.5,12.4 55.3,17.9 43.6,14.8 " />
<polygon points="55.3,17.9 57.4,20.8 51.7,21.9 " />
<polygon points="42,29 74,29 74,33 42,33 " />
<polygon points="79.6,33.1 77.9,36.3 76.1,39.5 74.1,42.5 72,45.5 69.8,48.5 67.4,51.3 64.9,54 62.3,56.6 59.4,59 56.6,61.5 55.3,60.4 57.2,57.2 58.7,53.9 60.3,50.7 61.7,47.6 63.1,44.4 64.4,41.3 65.5,38.2 66.6,35.1 67.5,32 68.3,28.8 " />
<polygon points="68,29 74,24 85,33 80,36 68,41 " />
<polygon points="40,59 40,125 28,125 28,53 " />
<polygon points="40,125 37.6,128.6 34,131 30.4,128.6 28,125 " />
<polygon points="40,125 39.5,133.7 38.7,142 37.5,149.8 36,157.2 34.1,164 31.8,170.3 29.1,176 26.1,181.2 22.6,185.7 18.7,189.5 17.2,188.4 19.4,183.7 21.3,178.8 23.1,173.5 24.6,167.9 25.8,161.9 26.8,155.5 27.5,148.5 28,141.2 28.1,133.3 28,125 " />
<polygon points="34,59 86,59 86,63 34,63 " />
<polygon points="92,61 92,172 80,172 80,61 " />
<polygon points="80,59 86,54 97,63 92,67 80,61 " />
<polygon points="92,172 89.6,175.6 86,178 82.4,175.6 80,172 " />
<polygon points="92,172 91.8,174.5 91.4,177 90.6,179.4 89.3,181.7 87.7,183.7 85.7,185.3 83.4,186.6 81,187.4 78.5,187.8 76,188 76,176 77.2,175.9 78.1,175.7 78.7,175.5 79,175.4 79.2,175.2 79.4,175 79.5,174.7 79.7,174.1 79.9,173.2 80,172 " />
<polygon points="56,179 56,176 76,176 76,182 " />
<polygon points="66,61 66,136 54,136 54,61 " />
<polygon points="34,95 86,95 86,99 34,99 " />
<polygon points="34,132 86,132 86,136 34,136 " />
<polygon points="98.8,20 174.1,20 174.1,24 98.8,24 " />
<polygon points="180.1,22 180,28.8 179.9,35.2 179.6,41.1 179.3,46.6 178.8,51.6 178.2,56.1 177.5,60.3 176.7,64 175.7,67.4 174.5,70.4 163.6,65.4 164.3,63.5 165,61.1 165.7,58 166.3,54.4 166.9,50.3 167.3,45.6 167.6,40.5 167.9,34.8 168,28.6 168.1,22 " />
<polygon points="168.1,20 174.1,15 185.1,24 180.1,27 168.1,32 " />
<polygon points="174.5,70.4 171.1,73.4 166.5,73.3 163.5,69.9 163.6,65.4 " />
<polygon points="174.5,70.4 173.3,72.6 172,74.7 170.4,76.6 168.6,78.3 166.7,79.7 164.5,80.9 162.2,81.8 159.9,82.5 157.4,82.8 154.9,83 154.9,71 156.2,70.9 157.4,70.7 158.5,70.4 159.4,70.1 160.2,69.6 160.9,69.1 161.6,68.4 162.3,67.6 163,66.6 163.6,65.4 " />
<polygon points="134.9,74 134.9,71 154.9,71 154.9,77 " />
<polygon points="142.2,22 142.1,22.7 140.4,30.8 138,38.5 135.1,45.9 131.5,53 127.4,59.7 122.6,66 117.3,71.8 111.3,77.3 104.8,82.3 97.6,86.7 96.5,85.2 102.3,79.4 107.6,73.5 112.3,67.5 116.5,61.5 120.1,55.2 123.2,48.8 125.8,42.2 127.8,35.4 129.2,28.4 130,22 " />
<polygon points="125.7,89.1 124.1,95.3 122.2,101.4 120.2,107.2 117.9,112.8 115.4,118.3 112.8,123.5 109.9,128.4 106.7,133.1 103.3,137.5 99.5,141.5 98,140.4 100,135.5 102,130.5 104,125.5 105.8,120.4 107.6,115.1 109.1,109.8 110.6,104.2 111.8,98.6 113,92.8 113.9,86.8 " />
<polygon points="114.3,84.9 125.7,89.1 113.8,87.7 " />
<polygon points="125.7,89.1 128.3,91.6 122.8,93.6 " />
<polygon points="111.4,111 182.1,111 182.1,115 111.4,115 " />
<polygon points="182.1,111 158.1,113 170.1,101 " />
<polygon points="97,145 187.9,145 187.9,149 97,149 " />
<polygon points="187.9,145 163.9,147 175.9,135 " />
<polygon points="148.5,84 148.5,182 136.5,188 136.5,82 " />
<polygon points="148.5,84 151.5,86 146.5,89 " />
</g>
</svg>
