<svg xmlns="http://www.w3.org/2000/svg" xmlns:xlink="http://www.w3.org/1999/xlink" version="1.1" baseProfile="full" viewBox="0 0 200 200" width="200" height="200">
<g fill="black">
<polygon points="48,28 152,28 152,32 48,32 " />
<polygon points="152,28 128,30 140,18 " />
<polygon points="15,52 185,52 185,56 15,56 " />
<polygon points="185,52 161,54 173,42 " />
<polygon points="70,80 127,80 127,84 70,84 " />
<polygon points="127,80 103,82 115,70 " />
<polygon points="70,107 127,107 127,111 70,111 " />
<polygon points="127,107 103,109 115,97 " />
<polygon points="78,132 78,183 66,189 66,126 " />
<polygon points="72,132 124,132 124,136 72,136 " />
<polygon points="130,134 130,177 118,183 118,134 " />
<polygon points="118,132 124,127 135,136 130,140 118,134 " />
<polygon points="72,167 124,167 124,171 72,171 " />
</g>
</svg>
