<svg xmlns="http://www.w3.org/2000/svg" xmlns:xlink="http://www.w3.org/1999/xlink" version="1.1" baseProfile="full" viewBox="0 0 200 200" width="200" height="200">
<g fill="black">
<polygon points="62,27 126,27 126,31 62,31 " />
<polygon points="126,27 102,29 114,17 " />
<polygon points="53,54 139,54 139,58 53,58 " />
<polygon points="139,54 115,56 127,44 " />
<polygon points="63,81 126,81 126,85 63,85 " />
<polygon points="126,81 102,83 114,71 " />
<polygon points="63,107 126,107 126,111 63,111 " />
<polygon points="126,107 102,109 114,97 " />
<polygon points="75,133 75,182 63,188 63,127 " />
<polygon points="69,133 119,133 119,137 69,137 " />
<polygon points="125,135 125,179 113,185 113,135 " />
<polygon points="113,133 119,128 130,137 125,141 113,135 " />
<polygon points="69,171 119,171 119,175 69,175 " />
</g>
</svg>
