<svg xmlns="http://www.w3.org/2000/svg" xmlns:xlink="http://www.w3.org/1999/xlink" version="1.1" baseProfile="full" viewBox="0 0 200 200" width="200" height="200">
<g fill="black">
<polygon points="78.5,25 74.2,30.8 69.6,36.5 64.6,41.9 59.3,47 53.7,52 47.8,56.7 41.5,61.2 34.8,65.4 27.8,69.3 20.4,72.7 19.5,71.2 25.7,66.1 31.7,61 37.4,56 42.8,51 47.9,45.8 52.7,40.6 57.1,35.2 61.2,29.8 64.9,24.2 68.3,18.6 " />
<polygon points="67.8,19.4 78.5,25 68.9,17.8 " />
<polygon points="78.5,25 79.9,28.3 74.1,28.2 " />
<polygon points="122.3,18.6 128.7,21.2 134.8,24.1 140.6,27.3 146.2,30.8 151.5,34.5 156.5,38.4 161.3,42.5 165.8,46.8 170,51.3 174,56 164.3,63.1 161.2,58.5 157.8,54 154.1,49.5 150.2,45.2 146,41 141.5,36.8 136.8,32.7 131.9,28.6 126.7,24.4 121.4,20.2 " />
<polygon points="174,56 175,60.4 172.7,64.4 168.3,65.4 164.3,63.1 " />
<polygon points="107.9,48.5 101.5,59.5 94.5,69.8 86.7,79.6 78.2,88.6 68.9,97.1 59,104.8 48.4,111.9 37.1,118.3 25,124 12.3,128.8 11.6,127.1 23.3,120.6 34.4,113.7 44.7,106.5 54.3,98.9 63.2,90.8 71.4,82.2 78.9,73.2 85.7,63.7 91.7,53.7 97.1,43.2 " />
<polygon points="96.7,44.1 107.9,48.5 97.7,42.1 " />
<polygon points="107.9,48.5 109.7,51.7 103.8,52.1 " />
<polygon points="101.2,49.4 108.1,58.2 115.1,66.6 122.3,74.4 129.8,81.7 137.7,88.4 145.9,94.6 154.4,100.2 163.4,105.3 172.7,109.8 182.5,113.8 177.4,126.1 167.2,121.1 157.5,115.5 148.3,109.4 139.6,102.7 131.5,95.4 123.9,87.6 116.8,79.1 110.4,70.1 104.6,60.5 99.7,50.3 " />
<polygon points="177.4,126.1 182.5,113.8 188.9,116.5 " />
<polygon points="61.9,118.6 61.9,180.3 49.9,186.3 49.9,112.6 " />
<polygon points="55.9,118.6 144,118.6 144,122.6 55.9,122.6 " />
<polygon points="150,120.6 150,177.3 138,183.3 138,120.6 " />
<polygon points="138,118.6 144,113.6 155,122.6 150,126.6 138,120.6 " />
<polygon points="55.9,169.3 144,169.3 144,173.3 55.9,173.3 " />
</g>
</svg>
