<svg xmlns="http://www.w3.org/2000/svg" xmlns:xlink="http://www.w3.org/1999/xlink" version="1.1" baseProfile="full" viewBox="0 0 200 200" width="200" height="200">
<g fill="black">
<polygon points="25,29 178,29 178,33 25,33 " />
<polygon points="178,29 154,31 166,19 " />
<polygon points="108.2,31 106.1,34 101.6,40.3 96.3,46.3 90.3,52.1 83.6,57.7 76.3,63.1 68.1,68.3 59.3,73.3 49.8,78.1 39.4,82.6 28.3,86.8 27.6,85.1 37.7,79.2 47.2,73.4 55.9,67.7 63.9,62 71.1,56.3 77.6,50.6 83.3,44.9 88.2,39.2 92.4,33.5 93.9,31 " />
<polygon points="78.3,58.1 89.7,69.9 99.3,81.7 107,93.5 112.9,105.4 117,117.3 119.3,129.1 119.7,140.9 118.1,152.7 114.6,164.2 109.2,175.5 99,169.3 104.1,159.8 107.7,150.1 109.7,140.1 110,129.9 108.8,119.2 105.8,108.1 101.2,96.6 94.8,84.6 86.7,72.2 77,59.3 " />
<polygon points="109.2,175.5 105.5,178.1 101,177.5 98.3,173.8 99,169.3 " />
<polygon points="109.2,175.5 107.9,177.5 106.3,179.5 104.6,181.2 102.7,182.7 100.7,184 98.5,185.1 96.2,185.9 93.9,186.5 91.4,186.8 89,187 89,175 90.4,174.9 91.6,174.7 92.8,174.4 93.8,174.1 94.8,173.6 95.7,173 96.5,172.3 97.4,171.5 98.2,170.5 99,169.3 " />
<polygon points="89,181 89,175 69,175 69,178 " />
<polygon points="99.3,85 92.9,91.1 86.2,96.9 79,102.3 71.6,107.5 63.7,112.3 55.6,116.7 47.1,120.9 38.2,124.7 28.9,128 19.3,130.8 18.6,129.1 27.4,124.5 35.9,119.8 44,115.1 51.8,110.2 59.2,105.1 66.2,99.9 72.8,94.4 79.1,88.8 85,82.9 90.6,76.9 " />
<polygon points="113.6,111.7 106.8,119.3 99.6,126.6 92,133.4 84,139.7 75.7,145.6 67,151.1 57.9,156.1 48.4,160.6 38.5,164.5 28.3,167.8 27.6,166.1 37,161 46,155.8 54.6,150.4 62.8,144.7 70.7,138.8 78.2,132.5 85.3,125.9 92,119 98.3,111.8 104.3,104.2 " />
<polygon points="166.5,64.9 162.9,68 159.2,71 155.3,74 151.4,76.8 147.4,79.6 143.3,82.3 139.1,84.9 134.7,87.4 130.1,89.6 125.4,91.7 124.5,90.2 128.1,86.6 131.6,83.1 135.2,79.8 138.7,76.4 142.1,73.1 145.5,69.8 148.7,66.5 151.9,63.1 155,59.8 158,56.4 " />
<polygon points="158,56.4 166.5,64.9 158.3,56.1 " />
<polygon points="166.5,64.9 167.2,68.4 160.1,67 " />
<polygon points="111,31.8 115.1,49.7 119.8,66.3 125.2,81.6 131.3,95.5 138.1,108.2 145.6,119.5 153.9,129.6 162.9,138.3 172.7,145.9 183.2,152.2 176.7,163.7 165.3,156 154.9,147 145.5,136.8 137.2,125.3 129.9,112.7 123.6,98.9 118.4,83.9 114.1,67.8 111.1,50.5 109.2,32.1 " />
<polygon points="176.7,163.7 183.2,152.2 187.9,154.9 " />
<polygon points="50.3,91.7 57.1,94.7 63.4,98.1 69.2,102 74.5,106.3 79.4,110.8 83.8,115.7 87.8,120.9 91.3,126.4 94.3,132.2 96.8,138.3 85.3,141.9 83.7,136.5 81.7,131.3 79.2,126.2 76.3,121.2 73,116.4 69.2,111.6 64.9,107 60.1,102.4 55,97.8 49.4,93.2 " />
<polygon points="96.8,138.3 96.3,142.8 92.8,145.8 88.3,145.3 85.3,141.9 " />
</g>
</svg>
