<svg xmlns="http://www.w3.org/2000/svg" xmlns:xlink="http://www.w3.org/1999/xlink" version="1.1" baseProfile="full" viewBox="0 0 200 200" width="200" height="200">
<g fill="black">
<polygon points="28,26 174,26 174,30 28,30 " />
<polygon points="174,26 150,28 162,16 " />
<polygon points="103.3,31.7 98.5,39.6 93.1,47 87,53.9 80.4,60.4 73.2,66.4 65.4,72 57,77 48,81.6 38.5,85.5 28.3,88.8 27.6,87.1 36.8,82 45.5,76.8 53.5,71.5 60.9,65.8 67.7,60 73.9,53.8 79.5,47.3 84.4,40.6 88.8,33.6 92.6,26.2 " />
<polygon points="90.3,47.2 100.7,60 109.1,72.9 115.6,85.7 120.1,98.5 122.6,111.3 123.1,124 121.6,136.6 118,148.9 112.4,161 104.8,172.7 95.3,165.4 102.6,155.2 108.1,144.9 111.8,134.3 113.9,123.3 114.2,112 112.7,100.3 109.4,88.1 104.4,75.3 97.5,62.1 88.9,48.3 " />
<polygon points="104.8,172.7 100.8,174.9 96.4,173.8 94.2,169.8 95.3,165.4 " />
<polygon points="104.8,172.7 103.2,174.6 101.5,176.3 99.7,177.9 97.7,179.2 95.6,180.4 93.4,181.3 91.2,182 88.8,182.5 86.4,182.9 84,183 84,171 85.4,170.9 86.8,170.7 88,170.4 89.2,170.1 90.3,169.6 91.4,169 92.4,168.3 93.4,167.5 94.4,166.5 95.3,165.4 " />
<polygon points="84,177 84,171 64,171 64,174 " />
<polygon points="106.7,72.6 99.5,80.9 92.1,88.6 84.3,95.6 76.4,101.9 68.1,107.5 59.6,112.3 50.8,116.4 41.8,119.8 32.6,122.2 23.2,123.8 22.7,122.1 31.4,118.6 39.8,114.8 47.9,110.5 55.8,105.8 63.3,100.4 70.6,94.6 77.6,88.1 84.4,81.1 90.9,73.5 97.2,65.3 " />
<polygon points="118.9,98.3 110.7,109.3 102,119.4 92.8,128.4 83.3,136.5 73.4,143.4 63,149.4 52.3,154.2 41.2,158 29.8,160.5 18.1,161.8 17.8,160.1 28.9,156.8 39.5,152.9 49.6,148.2 59.3,142.8 68.5,136.5 77.4,129.3 85.9,121.2 93.9,112.3 101.6,102.4 109,91.6 " />
<polygon points="155,52.3 152.3,57.2 149.3,61.9 146,66.4 142.4,70.7 138.5,74.7 134.3,78.5 129.8,82.1 125,85.3 119.9,88.2 114.4,90.7 113.5,89.2 117.7,85.1 121.7,81.1 125.5,77.2 129,73.2 132.2,69.1 135.1,65 137.8,60.7 140.1,56.4 142.2,52 144.1,47.4 " />
<polygon points="144.1,47.4 155,52.3 144.6,46.2 " />
<polygon points="155,52.3 157,55.3 149.9,56.6 " />
<polygon points="127.1,80.6 131.9,91.7 136.6,102 141.4,111.6 146.2,120.5 151.3,128.6 156.5,135.9 161.9,142.5 167.4,148.3 173.1,153.3 178.9,157.6 171,168.3 164.7,162.7 158.8,156.3 153.2,149.4 148.1,141.7 143.3,133.3 138.8,124.3 134.8,114.6 131.1,104.2 127.9,93 125.4,81.2 " />
<polygon points="171,168.3 178.9,157.6 182,159.9 " />
<polygon points="48.3,84 52.6,87.4 56.7,90.8 60.3,94.4 63.5,98.2 66.4,102.1 68.9,106.1 71.1,110.2 72.9,114.5 74.4,118.8 75.5,123.2 63.6,124.8 63.3,121.2 62.8,117.5 61.9,113.8 60.7,110 59.2,106.1 57.3,102.2 55.2,98.1 52.8,94 50.1,89.7 47,85.3 " />
<polygon points="75.5,123.2 74.3,127.6 70.3,129.9 65.9,128.7 63.6,124.8 " />
</g>
</svg>
