<svg xmlns="http://www.w3.org/2000/svg" xmlns:xlink="http://www.w3.org/1999/xlink" version="1.1" baseProfile="full" viewBox="0 0 200 200" width="200" height="200">
<g fill="black">
<polygon points="18,30 182,30 182,34 18,34 " />
<polygon points="182,30 158,32 170,20 " />
<polygon points="92,30.4 108,30.4 108,34.4 92,34.4 " />
<polygon points="106.5,32.4 104,35.6 99.2,41.7 93.6,47.6 87.2,53.4 80.1,59 72.2,64.5 63.5,69.9 53.9,75.2 43.6,80.3 32.4,85.3 20.3,89.9 19.6,88.3 30.7,81.9 41,75.6 50.6,69.5 59.3,63.5 67.2,57.6 74.3,51.8 80.5,46 85.8,40.2 90.3,34.6 91.7,32.4 " />
<polygon points="83.3,53.8 92,66 99.5,78.3 105.6,90.5 110.4,102.7 114,114.8 116.4,126.8 117.4,138.8 117.2,150.6 115.6,162.3 112.8,173.9 101.4,170.1 104.5,159.9 106.5,149.5 107.4,138.8 107.1,127.8 105.7,116.5 103.2,104.9 99.5,92.9 94.7,80.6 88.7,67.9 81.8,54.8 " />
<polygon points="112.8,173.9 109.8,177.3 105.2,177.7 101.8,174.7 101.4,170.1 " />
<polygon points="112.8,173.9 111.9,176.3 110.7,178.5 109.3,180.6 107.7,182.4 105.7,184 103.6,185.3 101.4,186.3 99,187 96.5,187.4 94,187.5 94,175.5 95.3,175.4 96.4,175.3 97.3,175 98.1,174.7 98.7,174.3 99.3,173.8 99.9,173.2 100.4,172.4 100.9,171.4 101.4,170.1 " />
<polygon points="94,181.5 94,175.5 74,175.5 74,178.5 " />
<polygon points="100.5,81.2 94,87.7 87.1,93.9 79.8,99.8 72,105.5 63.8,110.8 55.2,115.8 46.2,120.5 36.7,124.8 26.7,128.7 16.3,132.2 15.6,130.5 25.1,125.3 34.3,120 43,114.7 51.2,109.3 59.1,103.7 66.4,98 73.4,92.1 79.8,86 85.9,79.7 91.4,73.3 " />
<polygon points="113.7,109.9 106.2,118.7 98.2,127.1 89.7,134.9 80.7,142.2 71.2,149 61.2,155.2 50.7,161 39.7,166.1 28.3,170.6 16.3,174.4 15.6,172.7 26.7,167.1 37.4,161.3 47.5,155.2 57.1,148.9 66.2,142.1 74.8,135 82.9,127.5 90.5,119.6 97.6,111.3 104.2,102.6 " />
<polygon points="172.1,60.5 168.8,64.3 165.3,68.1 161.5,71.9 157.6,75.8 153.4,79.7 149,83.6 144.3,87.5 139.4,91.5 134.1,95.3 128.6,99 127.3,97.7 131.6,92.5 135.7,87.6 139.7,82.8 143.6,78.3 147.2,73.8 150.7,69.5 154,65.3 157.1,61.2 159.9,57.2 162.6,53.3 " />
<polygon points="162.6,53.3 172.1,60.5 163,52.7 " />
<polygon points="172.1,60.5 173.3,63.9 166.1,63.5 " />
<polygon points="108,33.2 112.9,50.1 118.2,66.1 124,81.1 130.3,95.2 137.4,108.3 145,120.3 153.3,131.5 162.2,141.6 171.8,150.9 182,159.2 173.9,169.5 163.3,160 153.5,149.5 144.5,138.2 136.4,125.9 129.1,112.7 122.7,98.6 117.2,83.7 112.5,67.8 108.8,51.1 106.3,33.5 " />
<polygon points="173.9,169.5 182,159.2 184.8,161.3 " />
</g>
</svg>
