<svg xmlns="http://www.w3.org/2000/svg" xmlns:xlink="http://www.w3.org/1999/xlink" version="1.1" baseProfile="full" viewBox="0 0 200 200" width="200" height="200">
<g fill="black">
<polygon points="18,30 182,30 182,34 18,34 " />
<polygon points="182,30 162,32 172,21 " />
<polygon points="95,30.4 110,30.4 110,34.4 95,34.4 " />
<polygon points="110.8,32.4 107.8,35.9 102.3,42.3 96.1,48.6 89.1,54.5 81.5,60.3 73.1,65.9 64,71.2 54.2,76.3 43.7,81.2 32.4,85.8 20.3,89.9 19.6,88.3 30.8,82.3 41.3,76.4 51,70.6 60,64.8 68.3,58.9 75.8,53 82.5,47 88.5,41 93.7,34.9 95.5,32.4 " />
<polygon points="83.3,56.1 98.6,70.1 109.4,85.2 116.6,100.3 120.7,115.2 122.3,129.3 121.8,142.3 119.8,153.9 116.9,163.7 113.5,171.7 109.9,177.5 100.6,170 103.3,166.1 106.6,159.7 109.6,151.2 111.9,141 112.9,129.4 112.1,116.6 109.2,102.9 103.4,88.4 94.4,73.4 82.1,57.4 " />
<polygon points="109.9,177.5 105.9,179.6 101.5,178.4 99.3,174.4 100.6,170 " />
<polygon points="109.9,177.5 108.3,179.3 106.5,181 104.7,182.5 102.7,183.9 100.6,185 98.4,185.9 96.1,186.6 93.8,187.1 91.4,187.4 89,187.5 89,175.5 90.4,175.5 91.8,175.3 93.1,175 94.3,174.6 95.4,174.2 96.5,173.6 97.6,172.9 98.6,172 99.6,171.1 100.6,170 " />
<polygon points="69,178.5 69,175.5 89,175.5 89,181.5 " />
<polygon points="105.2,84.1 98.5,90.1 91.3,95.8 83.7,101.3 75.5,106.5 66.9,111.5 57.8,116.3 48.2,120.8 38.1,125 27.4,128.8 16.3,132.2 15.6,130.5 26,125.3 35.8,120.1 45.2,114.9 54.1,109.7 62.5,104.3 70.4,98.8 77.7,93.2 84.6,87.5 90.9,81.6 96.7,75.7 " />
<polygon points="119.6,112.7 111.8,121.1 103.5,128.9 94.5,136.3 85.1,143.3 75,149.8 64.4,155.8 53.2,161.3 41.5,166.3 29.2,170.7 16.2,174.4 15.7,172.7 27.8,167.1 39.3,161.4 50.2,155.4 60.6,149.2 70.4,142.6 79.6,135.8 88.1,128.6 96.1,121.1 103.5,113.3 110.3,105.1 " />
<polygon points="168.3,60.4 164.9,64.4 161.4,68.6 157.6,72.9 153.6,77.3 149.3,81.8 144.8,86.4 140,91.2 134.9,96 129.4,100.8 123.6,105.6 122.3,104.3 126.6,98.2 130.9,92.4 135,86.8 139,81.5 142.8,76.4 146.4,71.4 149.7,66.7 152.9,62.1 155.8,57.7 158.5,53.5 " />
<polygon points="159,52.8 168.3,60.4 157.9,54.3 " />
<polygon points="168.3,60.4 169.6,63.8 163.7,63.3 " />
<polygon points="107.2,80.2 115.2,90.4 122.8,100 130.4,109 138,117.4 145.5,125.1 153,132.1 160.6,138.4 168.1,144.1 175.7,149 183.2,153.3 176.7,164.8 168.7,159.5 160.9,153.4 153.3,146.8 145.9,139.4 138.7,131.5 131.6,122.8 124.7,113.5 118,103.5 111.7,92.7 105.7,81.2 " />
<polygon points="176.7,164.8 183.2,153.3 187.8,156 " />
</g>
</svg>
