<svg xmlns="http://www.w3.org/2000/svg" xmlns:xlink="http://www.w3.org/1999/xlink" version="1.1" baseProfile="full" viewBox="0 0 200 200" width="200" height="200">
<g fill="black">
<polygon points="76.7,17.8 72.1,24.7 67.2,31.4 61.8,37.9 56.1,44.2 49.9,50.4 43.3,56.3 36.3,62.1 28.8,67.6 20.9,72.8 12.5,77.7 11.4,76.2 18.6,69.8 25.4,63.4 31.9,57.1 38,50.8 43.8,44.5 49.1,38.1 54,31.6 58.5,25.1 62.6,18.5 66.2,11.8 " />
<polygon points="66.2,11.8 76.7,17.8 66.8,10.9 " />
<polygon points="76.7,17.8 78.3,21 71.1,21.5 " />
<polygon points="64,25 121,25 121,29 64,29 " />
<polygon points="125.8,30.6 123.4,32.9 120.9,35.3 118.3,37.8 115.4,40.3 112.3,42.8 109,45.3 105.5,47.9 101.7,50.5 97.7,53 93.5,55.6 92.4,54.3 95.6,50.6 98.6,47 101.4,43.5 104.1,40.3 106.6,37.1 108.9,34.1 111,31.2 113,28.5 114.7,25.8 116.2,23.4 " />
<polygon points="115,25 121,20 132,29 127,33 121,33 " />
<polygon points="52.8,53.8 52.8,92.1 40.8,98.1 40.8,47.8 " />
<polygon points="46.8,53.8 153.2,53.8 153.2,57.8 46.8,57.8 " />
<polygon points="159.2,55.8 159.2,87.1 147.2,93.1 147.2,55.8 " />
<polygon points="147.2,53.8 153.2,48.8 164.2,57.8 159.2,61.8 147.2,55.8 " />
<polygon points="106,53.8 106,85.1 94,85.1 94,53.8 " />
<polygon points="46.8,81.1 153.2,81.1 153.2,85.1 46.8,85.1 " />
<polygon points="92,81.6 108,81.6 108,85.6 92,85.6 " />
<polygon points="108.2,83.6 103.2,87.8 98.4,91.8 92.8,95.6 86.5,99.4 79.4,103 71.5,106.5 62.9,109.9 53.5,113.3 43.2,116.5 32.1,119.5 20.2,122.3 19.7,120.5 30.9,115.9 41.4,111.4 51.1,107.2 59.9,103 67.9,98.9 75,94.8 81.2,90.8 86.6,86.9 90.4,83.6 " />
<polygon points="83.3,97.7 92,105.5 99.4,113.3 105.5,121.2 110.5,129.2 114.3,137.1 116.8,145.1 118.1,153.1 118,161.1 116.6,169 113.8,176.7 103,171.4 105.7,165.6 107.3,159.6 108,153.4 107.7,146.8 106.2,139.8 103.7,132.5 99.9,124.7 95.1,116.6 89.1,108 82,99 " />
<polygon points="113.8,176.7 110.3,179.7 105.7,179.4 102.8,175.9 103,171.4 " />
<polygon points="113.8,176.7 112.6,178.9 111.1,180.9 109.5,182.8 107.7,184.4 105.7,185.9 103.6,187 101.3,187.9 98.9,188.5 96.5,188.9 94,189 94,177 95.3,176.9 96.5,176.7 97.6,176.5 98.6,176.1 99.4,175.7 100.2,175.1 100.9,174.4 101.7,173.6 102.4,172.6 103,171.4 " />
<polygon points="94,183 94,177 74,177 74,180 " />
<polygon points="99.6,118.3 93.1,122.5 86.3,126.5 79,130.4 71.3,134 63.2,137.4 54.7,140.5 45.7,143.5 36.3,146.1 26.5,148.5 16.2,150.4 15.7,148.7 25.4,144.8 34.6,141.1 43.4,137.3 51.8,133.5 59.7,129.6 67.2,125.6 74.1,121.6 80.7,117.4 86.7,113.1 92.3,108.7 " />
<polygon points="112.9,137.3 105.4,143.2 97.4,148.6 88.9,153.7 80,158.5 70.5,162.8 60.6,166.8 50.3,170.5 39.4,173.7 28,176.4 16.2,178.6 15.7,176.8 27,172.7 37.7,168.6 47.9,164.3 57.7,159.9 66.9,155.2 75.5,150.3 83.7,145.2 91.3,139.8 98.4,134.2 105,128.3 " />
<polygon points="171.2,104.6 167.9,106.9 164.4,109.4 160.7,111.8 156.8,114.2 152.7,116.6 148.3,119.1 143.7,121.5 138.9,123.9 133.8,126.1 128.4,128.3 127.5,126.8 131.9,123 136.1,119.5 140.2,116.1 144.1,112.9 147.9,109.8 151.4,106.7 154.7,103.8 157.7,101 160.6,98.2 163.2,95.5 " />
<polygon points="163.2,95.5 171.2,104.6 163.4,95.4 " />
<polygon points="171.2,104.6 171.6,108.1 164.7,106.3 " />
<polygon points="108.1,84.3 112.9,95.3 118.1,105.6 123.8,115.3 130,124.4 136.9,132.8 144.4,140.6 152.5,147.7 161.3,154.3 170.8,160.3 181,165.7 174.9,177.4 164.2,170.9 154.3,163.8 145.3,156 137,147.7 129.6,138.7 123.1,129 117.5,118.8 112.7,108.1 109,96.7 106.4,84.8 " />
<polygon points="174.9,177.4 181,165.7 186.2,168.4 " />
</g>
</svg>
