<svg xmlns="http://www.w3.org/2000/svg" xmlns:xlink="http://www.w3.org/1999/xlink" version="1.1" baseProfile="full" viewBox="0 0 200 200" width="200" height="200">
<g fill="black">
<polygon points="91.5,19 84.5,29.5 77.3,39.7 70.1,49.6 62.8,59 55.4,68 47.9,76.7 40.3,84.9 32.6,92.6 24.7,99.9 16.6,106.6 15.3,105.3 22,97.2 28.6,89 35.3,80.6 42.1,71.8 48.7,62.8 55.4,53.4 61.9,43.8 68.4,33.7 74.9,23.4 81.3,12.6 " />
<polygon points="81.8,11.8 91.5,19 80.8,13.5 " />
<polygon points="91.5,19 93,22.2 87.2,22.2 " />
<polygon points="64,50 144,50 144,54 64,54 " />
<polygon points="148.8,55.5 145.3,59.8 141.6,64 137.9,68.2 134.1,72.3 130.2,76.4 126.2,80.5 122.1,84.4 117.8,88.3 113.3,92 108.6,95.6 107.3,94.3 110.5,89.4 113.8,84.7 117.1,80.1 120.4,75.5 123.7,71 126.9,66.5 130.1,61.9 133.1,57.4 136.2,52.9 139.1,48.4 " />
<polygon points="138,50 144,45 155,54 150,57 138,62 " />
<polygon points="54,93 54,183 42,189 42,87 " />
<polygon points="48,93 166,93 166,97 48,97 " />
<polygon points="172,95 172,177 160,183 160,95 " />
<polygon points="160,93 166,88 177,97 172,101 160,95 " />
<polygon points="114,93 114,167 102,167 102,93 " />
<polygon points="48,167 166,167 166,171 48,171 " />
</g>
</svg>
