<svg xmlns="http://www.w3.org/2000/svg" xmlns:xlink="http://www.w3.org/1999/xlink" version="1.1" baseProfile="full" viewBox="0 0 200 200" width="200" height="200">
<g fill="black">
<polygon points="104.3,22.1 100.2,25.6 95.8,29.1 91.2,32.5 86.4,36 81.3,39.3 76,42.7 70.5,46 64.7,49.3 58.6,52.3 52.1,55.2 51.2,53.7 56.5,49.1 61.7,44.8 66.7,40.6 71.6,36.6 76.2,32.6 80.6,28.7 84.8,24.8 88.8,21 92.5,17.2 96,13.5 " />
<polygon points="96,13.5 104.3,22.1 96.2,13.3 " />
<polygon points="104.3,22.1 105,25.7 97.9,24.1 " />
<polygon points="26.3,53.4 37.5,52.4 49.2,51.5 61.3,50.6 74,49.6 87.1,48.7 100.6,47.7 114.7,46.8 129.2,46 144.2,45.3 159.6,44.9 159.8,46.6 144.5,49.1 129.7,51.4 115.3,53.4 101.4,55.3 87.9,57.1 74.9,58.8 62.4,60.5 50.3,62.2 38.8,63.8 27.6,65.3 " />
<polygon points="27.6,65.3 26.3,53.4 24.3,53.6 " />
<polygon points="27.6,65.3 30,68.1 33.3,61.6 " />
<polygon points="126.8,24.2 133.5,26.3 140,28.7 146,31.5 151.8,34.5 157.2,37.8 162.3,41.3 167.2,44.9 171.7,48.8 175.9,52.9 179.8,57.1 170.3,64.5 167.3,60.4 164,56.3 160.4,52.4 156.4,48.5 152.2,44.6 147.6,40.9 142.6,37.1 137.4,33.4 131.9,29.7 126,25.8 " />
<polygon points="179.8,57.1 180.9,61.6 178.7,65.6 174.3,66.7 170.3,64.5 " />
<polygon points="62,72 62,157 50,163 50,66 " />
<polygon points="56,72 152,72 152,76 56,76 " />
<polygon points="158,74 158,152 146,158 146,74 " />
<polygon points="146,72 152,67 163,76 158,80 146,74 " />
<polygon points="56,96 152,96 152,100 56,100 " />
<polygon points="56,121 152,121 152,125 56,125 " />
<polygon points="56,146 152,146 152,150 56,150 " />
<polygon points="90.1,168.6 84.6,171.3 78.8,173.9 72.8,176.3 66.5,178.6 60,180.8 53.2,182.8 46.1,184.7 38.8,186.3 31.1,187.7 23.2,188.8 22.7,187.1 30.1,184.1 37.2,181.2 44.1,178.4 50.7,175.7 57,172.9 63,170 68.7,167.2 74.1,164.2 79.3,161.3 84.1,158.3 " />
<polygon points="84.1,158.3 90.1,168.6 91.9,167.6 " />
<polygon points="91.9,167.6 92.1,171 84.9,168.2 " />
<polygon points="116.1,161.3 123.8,161.9 131.1,162.9 138,164.2 144.6,165.7 150.8,167.3 156.7,169.2 162.2,171.2 167.4,173.4 172.3,175.8 176.9,178.3 170.1,188.2 166.5,185.5 162.4,182.9 158,180.3 153.1,177.8 147.9,175.3 142.2,172.9 136.2,170.5 129.7,168.1 122.9,165.6 115.7,163 " />
<polygon points="176.9,178.3 179.3,182.2 178.4,186.6 174.6,189.1 170.1,188.2 " />
</g>
</svg>
