<svg xmlns="http://www.w3.org/2000/svg" xmlns:xlink="http://www.w3.org/1999/xlink" version="1.1" baseProfile="full" viewBox="0 0 200 200" width="200" height="200">
<g fill="black">
<polygon points="21,33 182,33 182,37 21,37 " />
<polygon points="182,33 158,35 170,23 " />
<polygon points="106,16 106,54 94,54 94,14 " />
<polygon points="106,16 109,18 106,20 " />
<polygon points="41,50 163,50 163,54 41,54 " />
<polygon points="163,50 139,52 151,40 " />
<polygon points="44.2,62.1 44.2,91.5 32.2,97.5 32.2,56.1 " />
<polygon points="38.2,62.1 161.7,62.1 161.7,66.1 38.2,66.1 " />
<polygon points="167.7,64.1 167.7,90.5 155.7,96.5 155.7,64.1 " />
<polygon points="155.7,62.1 161.7,57.1 172.7,66.1 167.7,70.1 155.7,64.1 " />
<polygon points="85.4,62.1 85.4,88.5 73.4,88.5 73.4,62.1 " />
<polygon points="126.5,62.1 126.5,88.5 114.5,88.5 114.5,62.1 " />
<polygon points="38.2,84.5 161.7,84.5 161.7,88.5 38.2,88.5 " />
<polygon points="63,100.5 63,160.9 51,166.9 51,94.5 " />
<polygon points="57,100.5 143,100.5 143,104.5 57,104.5 " />
<polygon points="149,102.5 149,157.9 137,163.9 137,102.5 " />
<polygon points="137,100.5 143,95.5 154,104.5 149,108.5 137,102.5 " />
<polygon points="57,118.3 143,118.3 143,122.3 57,122.3 " />
<polygon points="57,136.1 143,136.1 143,140.1 57,140.1 " />
<polygon points="57,153.9 143,153.9 143,157.9 57,157.9 " />
<polygon points="86.8,171.2 82.7,173.3 78.3,175.3 73.4,177.2 68.1,179.1 62.4,181 56.2,182.8 49.6,184.6 42.6,186.3 35.1,187.8 27.1,189.1 26.6,187.4 34,184.2 41,181.2 47.5,178.4 53.6,175.7 59.3,173.1 64.5,170.6 69.2,168.1 73.4,165.7 77.2,163.3 80.4,161.1 " />
<polygon points="80.4,161.1 86.8,171.2 88,170.5 " />
<polygon points="88,170.5 88.1,173.9 81.1,171.3 " />
<polygon points="109.7,164.9 117.4,165.4 124.6,166.2 131.3,167.2 137.6,168.5 143.3,169.9 148.7,171.4 153.6,173.1 158.1,175 162.2,177 165.8,179.3 158.4,188.7 156,186.6 153,184.4 149.4,182.2 145.3,180.1 140.6,177.9 135.4,175.7 129.6,173.6 123.4,171.4 116.6,169.1 109.4,166.7 " />
<polygon points="165.8,179.3 168,183.3 166.8,187.7 162.8,189.9 158.4,188.7 " />
</g>
</svg>
