<svg xmlns="http://www.w3.org/2000/svg" xmlns:xlink="http://www.w3.org/1999/xlink" version="1.1" baseProfile="full" viewBox="0 0 200 200" width="200" height="200">
<g fill="black">
<polygon points="12,40 95.2,40 95.2,44 12,44 " />
<polygon points="95.2,40 71.2,42 83.2,30 " />
<polygon points="30.9,66 30.9,118 18.9,124 18.9,60 " />
<polygon points="24.9,66 82.3,66 82.3,70 24.9,70 " />
<polygon points="88.3,68 88.3,110 76.3,116 76.3,68 " />
<polygon points="76.3,66 82.3,61 93.3,70 88.3,74 76.3,68 " />
<polygon points="24.9,102 82.3,102 82.3,106 24.9,106 " />
<polygon points="59.6,14 59.6,183 47.6,189 47.6,12 " />
<polygon points="59.6,14 62.6,16 57.6,19 " />
<polygon points="57,104 56.6,105.5 53.5,115.3 50.2,124.7 46.5,133.5 42.5,141.8 38.1,149.5 33.5,156.6 28.6,163.1 23.3,169 17.6,174.2 11.7,178.6 10.4,177.3 14.9,171.6 19.2,165.6 23.2,159.3 27.1,152.6 30.7,145.4 34,137.8 37.2,129.7 40,121.1 42.6,112 44.6,104 " />
<polygon points="55.8,118.7 60.5,120.9 65,123 69,125.4 72.8,127.9 76.2,130.6 79.2,133.4 82,136.4 84.4,139.5 86.4,142.8 88,146.3 76.6,149.9 76,147.3 75.1,144.6 73.9,141.9 72.3,139 70.3,136.1 68,133.1 65.3,130 62.2,126.8 58.8,123.5 54.9,120.2 " />
<polygon points="88,146.3 87.6,150.9 84.1,153.8 79.5,153.3 76.6,149.9 " />
<polygon points="131.8,18.2 128.4,25.2 124.7,32.1 120.8,38.8 116.6,45.4 112,51.8 107.2,58 102.1,64 96.7,69.8 90.9,75.4 84.8,80.6 83.5,79.3 88.1,72.8 92.6,66.4 96.9,60 101.1,53.6 105,47.1 108.6,40.6 112,33.9 115.2,27.2 118.1,20.5 120.7,13.6 " />
<polygon points="121.3,12.3 131.8,18.2 120.3,14.5 " />
<polygon points="131.8,18.2 133.8,21.2 128.1,22 " />
<polygon points="117.9,29 154.3,29 154.3,33 117.9,33 " />
<polygon points="159.9,33.1 158.4,35.9 156.7,38.8 154.9,41.6 153,44.5 151,47.3 148.8,50.1 146.5,53 144.1,55.8 141.4,58.5 138.9,61.5 137.4,60.4 139,57 140.4,53.5 141.7,50.1 143,46.8 144.2,43.6 145.3,40.5 146.3,37.5 147.2,34.5 148,31.6 148.7,28.8 " />
<polygon points="148.3,29 154.3,24 165.3,33 160.3,36 148.3,41 " />
<polygon points="115.8,59 115.8,151 103.8,157 103.8,53 " />
<polygon points="109.8,59 170.5,59 170.5,63 109.8,63 " />
<polygon points="176.5,61 176.5,146 164.5,152 164.5,61 " />
<polygon points="164.5,59 170.5,54 181.5,63 176.5,67 164.5,61 " />
<polygon points="109.8,85 170.5,85 170.5,89 109.8,89 " />
<polygon points="109.8,113 170.5,113 170.5,117 109.8,117 " />
<polygon points="109.8,140 170.5,140 170.5,144 109.8,144 " />
<polygon points="133.7,162.8 130,166.2 126,169.4 121.9,172.5 117.6,175.4 113,178.1 108.3,180.7 103.4,183.1 98.2,185.3 92.8,187.2 87.2,188.8 86.5,187.1 91.1,183.8 95.7,180.6 100.1,177.4 104.2,174.3 108.2,171.1 112,167.9 115.5,164.7 118.9,161.4 122,158 125,154.6 " />
<polygon points="125.3,154.2 133.7,162.8 124.3,155.3 " />
<polygon points="133.7,162.8 134.5,166.3 128.8,165.1 " />
<polygon points="146.8,156.4 151.9,157.3 156.8,158.4 161.4,159.9 165.8,161.7 170,163.8 173.9,166.1 177.5,168.7 180.9,171.6 184,174.8 186.8,178.2 176.7,184.7 175,181.7 173,178.7 170.8,175.9 168.2,173.2 165.4,170.5 162.2,167.9 158.7,165.4 154.8,162.9 150.7,160.4 146.2,158.1 " />
<polygon points="186.8,178.2 187.5,182.7 185,186.5 180.5,187.2 176.7,184.7 " />
</g>
</svg>
