<svg xmlns="http://www.w3.org/2000/svg" xmlns:xlink="http://www.w3.org/1999/xlink" version="1.1" baseProfile="full" viewBox="0 0 200 200" width="200" height="200">
<g fill="black">
<polygon points="15,40.5 98.2,40.5 98.2,44.5 15,44.5 " />
<polygon points="98.2,40.5 74.2,42.5 86.2,30.5 " />
<polygon points="62.6,14.8 62.6,182.1 50.6,188.1 50.6,12.8 " />
<polygon points="62.6,14.8 65.6,16.8 62.6,18.8 " />
<polygon points="33.9,65.3 33.9,114 21.9,120 21.9,59.3 " />
<polygon points="27.9,65.3 85.3,65.3 85.3,69.3 27.9,69.3 " />
<polygon points="91.3,67.3 91.3,106 79.3,112 79.3,67.3 " />
<polygon points="79.3,65.3 85.3,60.3 96.3,69.3 91.3,73.3 79.3,67.3 " />
<polygon points="60.1,100 59.7,101.4 56.6,111.9 53.2,121.8 49.5,131.2 45.5,139.9 41.2,147.9 36.5,155.4 31.6,162.1 26.3,168.2 20.7,173.4 14.6,177.8 13.5,176.5 17.9,170.8 22.1,164.8 26.2,158.4 30,151.5 33.6,144 37,136.1 40.1,127.6 43,118.5 45.6,108.8 47.6,100 " />
<polygon points="58.8,118.5 63.5,120.7 68,122.8 72,125.1 75.7,127.6 79.1,130.3 82.2,133.1 84.9,136 87.3,139.1 89.4,142.4 91,145.8 79.6,149.4 79,146.8 78.1,144.2 76.9,141.5 75.3,138.7 73.4,135.8 71,132.8 68.3,129.7 65.2,126.6 61.8,123.3 57.9,120 " />
<polygon points="91,145.8 90.6,150.3 87.1,153.3 82.5,152.8 79.6,149.4 " />
<polygon points="27.9,98 85.3,98 85.3,102 27.9,102 " />
<polygon points="99,22 174,22 174,26 99,26 " />
<polygon points="180,24 179.9,28.8 179.8,33.3 179.7,37.5 179.4,41.2 179.2,44.6 178.8,47.7 178.4,50.4 177.8,52.9 177.1,55.1 176.1,57.2 165.7,51.3 165.9,50.9 166.2,49.8 166.6,48.2 166.9,46 167.2,43.4 167.5,40.4 167.7,36.9 167.8,33 167.9,28.7 168,24 " />
<polygon points="168,22 174,17 185,26 180,30 174,30 " />
<polygon points="176.1,57.2 172.5,60 167.9,59.5 165.2,55.8 165.7,51.3 " />
<polygon points="176.1,57.2 174.8,59.4 173.3,61.3 171.6,63.1 169.7,64.6 167.7,66 165.5,67.1 163.3,67.9 160.9,68.5 158.4,68.8 156,69 156,57 157.4,56.9 158.6,56.7 159.7,56.4 160.8,56.1 161.7,55.6 162.5,55 163.4,54.3 164.2,53.5 165,52.5 165.7,51.3 " />
<polygon points="156,63 156,57 136,57 136,60 " />
<polygon points="144,24 143.8,25.1 141.8,32.6 139.2,39.5 136,45.8 132.2,51.5 127.9,56.5 123.1,60.7 117.8,64.3 112,67 105.8,68.8 99.2,69.8 98.7,68.1 104.4,65.3 109.5,62.2 114,58.8 118,55.1 121.5,50.9 124.5,46.3 127,41.3 129.1,35.7 130.8,29.5 131.8,24 " />
<polygon points="116.6,74.5 116.6,156.4 104.6,162.4 104.6,68.5 " />
<polygon points="110.6,74.5 170.1,74.5 170.1,78.5 110.6,78.5 " />
<polygon points="176.1,76.5 176.1,153.4 164.1,159.4 164.1,76.5 " />
<polygon points="164.1,74.5 170.1,69.5 181.1,78.5 176.1,82.5 164.1,76.5 " />
<polygon points="110.6,97.5 170.1,97.5 170.1,101.5 110.6,101.5 " />
<polygon points="110.6,123.8 170.1,123.8 170.1,127.8 110.6,127.8 " />
<polygon points="110.6,149.4 170.1,149.4 170.1,153.4 110.6,153.4 " />
<polygon points="134.3,169.7 130.5,171.9 126.6,174 122.4,176 118,178 113.4,179.8 108.6,181.6 103.5,183.3 98.2,184.9 92.7,186.2 86.9,187.4 86.2,185.7 91.3,182.7 96.2,180 100.9,177.3 105.4,174.8 109.7,172.2 113.7,169.7 117.5,167.3 121,164.8 124.3,162.4 127.4,159.9 " />
<polygon points="127.4,159.9 134.3,169.7 134.6,169.6 " />
<polygon points="134.6,169.6 134.7,173.1 127.9,170.6 " />
<polygon points="147.3,160.4 152.1,161.5 156.7,162.6 161,163.9 165.1,165.3 168.9,166.9 172.6,168.7 176,170.5 179.2,172.5 182.2,174.6 184.9,176.9 176.1,185 174.4,182.8 172.5,180.6 170.2,178.3 167.7,176.1 164.9,173.8 161.8,171.5 158.4,169.2 154.8,166.8 150.9,164.4 146.7,162.1 " />
<polygon points="184.9,176.9 186.4,181.2 184.6,185.4 180.3,186.9 176.1,185 " />
</g>
</svg>
