<svg xmlns="http://www.w3.org/2000/svg" xmlns:xlink="http://www.w3.org/1999/xlink" version="1.1" baseProfile="full" viewBox="0 0 200 200" width="200" height="200">
<g fill="black">
<polygon points="30,43 170,43 170,47 30,47 " />
<polygon points="170,43 146,45 158,33 " />
<polygon points="106,14 106,86 94,86 94,12 " />
<polygon points="106,14 109,16 106,18 " />
<polygon points="14,82 186,82 186,86 14,86 " />
<polygon points="186,82 162,84 174,72 " />
<polygon points="106,82 106,172 94,172 94,82 " />
<polygon points="100,120 170,120 170,124 100,124 " />
<polygon points="170,120 146,122 158,110 " />
<polygon points="63.7,105 61.1,115.8 57.9,126.1 54.2,135.9 49.9,145.1 45.1,153.7 39.7,161.8 33.8,169.3 27.3,176.1 20.2,182.3 12.5,187.7 11.4,186.2 17.6,179.5 23.3,172.5 28.6,165.3 33.4,157.7 37.7,149.6 41.5,141.2 44.8,132.3 47.7,123 50,113.2 51.9,102.9 " />
<polygon points="51.9,102.9 63.7,105 52.2,100.9 " />
<polygon points="63.7,105 66.3,107.5 59.6,110.4 " />
<polygon points="53.1,125.6 59.5,137.3 66.6,146.6 74.7,153.9 84,159.5 94.8,163.5 107.4,166.3 122,167.9 138.7,168.5 157.5,168.3 178.7,167.4 179.2,180.5 157.7,180.8 138.3,180.3 120.9,178.9 105.5,176.3 91.9,172.4 80.1,166.8 70.1,159.5 62,150.3 55.8,139.2 51.4,126.2 " />
<polygon points="179.2,180.5 178.7,167.4 190.1,166.9 " />
</g>
</svg>
