<svg xmlns="http://www.w3.org/2000/svg" xmlns:xlink="http://www.w3.org/1999/xlink" version="1.1" baseProfile="full" viewBox="0 0 200 200" width="200" height="200">
<g fill="black">
<polygon points="37,44 162,44 162,48 37,48 " />
<polygon points="162,44 138,46 150,34 " />
<polygon points="105,18 105,80 93,80 93,16 " />
<polygon points="105,18 108,20 105,22 " />
<polygon points="18,76 183,76 183,80 18,80 " />
<polygon points="183,76 159,78 171,66 " />
<polygon points="54.3,89.9 58.1,92.1 61.9,94.5 65.4,97.2 68.6,100.1 71.7,103.3 74.5,106.7 77.1,110.2 79.5,114 81.7,118 83.6,122.1 72.3,126.1 71.2,122.3 70,118.6 68.6,115 66.9,111.5 65.1,108 63.1,104.6 60.9,101.3 58.5,97.9 56,94.5 53.2,91.3 " />
<polygon points="83.6,122.1 83.3,126.7 79.9,129.8 75.4,129.5 72.3,126.1 " />
<polygon points="154.3,97.2 148.2,105.1 141.7,112.9 134.8,120.4 127.5,127.7 119.7,134.7 111.6,141.5 103,148.1 93.9,154.3 84.4,160.2 74.4,165.7 73.5,164.2 82.3,157.1 90.7,150 98.8,143 106.6,135.8 113.9,128.6 120.8,121.2 127.3,113.7 133.4,106.1 139.1,98.3 144.4,90.4 " />
<polygon points="144.4,90.4 154.3,97.2 144.9,89.7 " />
<polygon points="154.3,97.2 155.7,100.5 148.5,100.4 " />
<polygon points="17.6,178.6 20.7,174.7 23.9,170.3 27.2,165.4 30.7,159.9 34.3,154 38.1,147.6 42,140.8 46.1,133.5 50.5,125.7 55.1,117.6 56.8,118.3 53.9,127.3 51,135.7 47.9,143.6 44.9,151 41.9,158 38.9,164.4 35.9,170.4 33.1,175.9 30.2,181 27.4,185.6 " />
<polygon points="27.4,185.6 17.6,178.6 16.5,180.3 " />
<polygon points="27.4,185.6 31,185.7 28.5,179 " />
<polygon points="49,135.8 52.7,143.9 58.1,150.7 65.3,156.5 74.6,161.3 86.1,165.2 100,168.3 116.1,170.3 134.6,171.3 155.5,171.4 178.6,170.4 179.3,183.5 155.5,183.9 134.1,183.1 114.9,181.3 98,178.3 83.3,174.1 71,168.8 61,162.3 53.6,154.5 48.9,145.7 47.2,136.1 " />
<polygon points="179.3,183.5 178.6,170.4 189.9,169.8 " />
</g>
</svg>
