<svg xmlns="http://www.w3.org/2000/svg" xmlns:xlink="http://www.w3.org/1999/xlink" version="1.1" baseProfile="full" viewBox="0 0 200 200" width="200" height="200">
<g fill="black">
<polygon points="14.1,36 95,36 95,40 14.1,40 " />
<polygon points="95,36 71,38 83,26 " />
<polygon points="33.6,61 33.6,135 21.6,141 21.6,55 " />
<polygon points="27.6,61 81.5,61 81.5,65 27.6,65 " />
<polygon points="87.5,63 87.5,132 75.5,138 75.5,63 " />
<polygon points="75.5,61 81.5,56 92.5,65 87.5,69 75.5,63 " />
<polygon points="27.6,92 81.5,92 81.5,96 27.6,96 " />
<polygon points="27.6,124 81.5,124 81.5,128 27.6,128 " />
<polygon points="11.6,153 97.5,153 97.5,157 11.6,157 " />
<polygon points="97.5,153 73.5,155 85.5,143 " />
<polygon points="60.5,15 60.5,183 48.5,189 48.5,13 " />
<polygon points="60.5,15 63.5,17 58.5,20 " />
<polygon points="122.8,26 122.8,52 110.8,52 110.8,20 " />
<polygon points="122.8,52 120.4,55.6 116.8,58 113.2,55.6 110.8,52 " />
<polygon points="122.8,52 122.2,58 121,63.9 119.2,69.6 116.7,74.9 113.7,80 110.2,84.8 106,89.4 101.4,93.5 96.1,97.3 90.2,100.7 89.2,99.2 93.6,94.4 97.6,89.7 101,85.1 104,80.5 106.4,75.9 108.2,71.2 109.6,66.5 110.5,61.7 110.9,56.9 110.8,52 " />
<polygon points="116.8,26 157.1,26 157.1,30 116.8,30 " />
<polygon points="163.1,28 163.1,73 151.1,73 151.1,28 " />
<polygon points="151.1,26 157.1,21 168.1,30 163.1,34 151.1,28 " />
<polygon points="163.1,73 160.7,76.6 157.1,79 153.5,76.6 151.1,73 " />
<polygon points="163.1,73 163,74.2 163.1,75.1 163.2,75.8 163.3,76.2 163.5,76.6 163.7,76.9 164.1,77.2 164.7,77.5 165.7,77.8 167.1,78 167.1,88 164.6,87.9 162.2,87.6 159.9,86.9 157.7,85.8 155.7,84.3 154,82.5 152.7,80.3 151.8,78 151.3,75.5 151.1,73 " />
<polygon points="167.1,78 170.6,79.5 172.1,83 170.6,86.5 167.1,88 " />
<polygon points="167.1,78 185.1,78 185.1,88 167.1,88 " />
<polygon points="185.1,78 188.1,80 190.1,83 188.1,86 185.1,88 " />
<polygon points="180.1,79 185.1,61 187.1,61 185.1,79 " />
<polygon points="101.1,103 166.7,103 166.7,107 101.1,107 " />
<polygon points="172.4,106.7 167.5,119.9 161.6,132.2 154.7,143.3 146.9,153.3 138.2,162.2 128.5,170 117.9,176.6 106.5,181.9 94.2,186 81.2,188.8 80.7,187.1 93,182.4 104.3,177.1 114.5,170.9 123.9,164 132.2,156.2 139.7,147.4 146.3,137.8 152.1,127.3 156.9,115.7 161,103.2 " />
<polygon points="160.7,103 166.7,98 177.7,107 172.7,110 160.7,115 " />
<polygon points="113.5,105.7 117.5,116.7 122,126.5 127.1,135.4 132.8,143.3 139.3,150.2 146.5,156.2 154.4,161.3 163.1,165.6 172.6,169 183,171.5 180.1,184.4 168.7,180.8 158.1,176.3 148.6,170.7 140,164.2 132.5,156.7 126.1,148.3 120.8,139 116.5,128.8 113.5,117.9 111.8,106.1 " />
<polygon points="180.1,184.4 183,171.5 191.9,173.5 " />
</g>
</svg>
