<svg xmlns="http://www.w3.org/2000/svg" xmlns:xlink="http://www.w3.org/1999/xlink" version="1.1" baseProfile="full" viewBox="0 0 200 200" width="200" height="200">
<g fill="black">
<polygon points="13.8,40 95.7,40 95.7,44 13.8,44 " />
<polygon points="95.7,40 71.7,42 83.7,30 " />
<polygon points="33.8,63 33.8,130 21.8,136 21.8,57 " />
<polygon points="27.8,63 81.7,63 81.7,67 27.8,67 " />
<polygon points="87.7,65 87.7,127 75.7,133 75.7,65 " />
<polygon points="75.7,63 81.7,58 92.7,67 87.7,71 75.7,65 " />
<polygon points="27.8,90 81.7,90 81.7,94 27.8,94 " />
<polygon points="27.8,119 81.7,119 81.7,123 27.8,123 " />
<polygon points="12,146 97.5,146 97.5,150 12,150 " />
<polygon points="97.5,146 73.5,148 85.5,136 " />
<polygon points="60.8,15 60.8,183 48.8,189 48.8,13 " />
<polygon points="60.8,15 63.8,17 58.8,20 " />
<polygon points="117.6,25 117.6,103 105.6,103 105.6,19 " />
<polygon points="117.6,103 115.2,106.6 111.6,109 108,106.6 105.6,103 " />
<polygon points="117.6,103 116.9,115.4 115.7,127 113.8,137.8 111.3,147.6 108.1,156.6 104.3,164.7 99.7,171.8 94.6,177.9 88.7,182.9 82.3,186.7 81.3,185.2 86.2,180.1 90.4,174.5 94.2,168.3 97.4,161.4 100.1,153.8 102.3,145.3 103.9,136 105,125.8 105.6,114.8 105.6,103 " />
<polygon points="111.6,25 154.1,25 154.1,29 111.6,29 " />
<polygon points="160.1,27 160.1,165 148.1,165 148.1,27 " />
<polygon points="148.1,25 154.1,20 165.1,29 160.1,33 148.1,27 " />
<polygon points="160.1,165 157.7,168.6 154.1,171 150.5,168.6 148.1,165 " />
<polygon points="160.1,165 160.1,166.2 160.3,167.1 160.5,167.7 160.6,168 160.8,168.2 161,168.4 161.3,168.5 161.9,168.7 162.8,168.9 164.1,169 164.1,181 161.5,180.8 159,180.4 156.6,179.6 154.3,178.3 152.3,176.7 150.7,174.7 149.4,172.4 148.6,170 148.2,167.5 148.1,165 " />
<polygon points="164.1,169 168.2,170.8 170.1,175 168.2,179.2 164.1,181 " />
<polygon points="164.1,169 183,169 183,181 164.1,181 " />
<polygon points="183,169 186.6,171.4 189,175 186.6,178.6 183,181 " />
<polygon points="177,170 183,144 185,144 183,170 " />
<polygon points="123.9,65.2 126.6,67.8 129.4,70.4 131.8,73.4 134.1,76.5 136.2,79.8 138.2,83.3 139.9,87 141.5,90.8 142.9,94.8 144.1,98.9 132.3,101.1 131.9,97.3 131.4,93.6 130.7,90 129.9,86.5 129,83 127.9,79.6 126.8,76.2 125.5,72.9 124.2,69.5 122.5,66.3 " />
<polygon points="144.1,98.9 143.1,103.4 139.3,105.9 134.8,104.9 132.3,101.1 " />
</g>
</svg>
