<svg xmlns="http://www.w3.org/2000/svg" xmlns:xlink="http://www.w3.org/1999/xlink" version="1.1" baseProfile="full" viewBox="0 0 200 200" width="200" height="200">
<g fill="black">
<polygon points="12.6,177.7 15.5,174.1 18.4,170.6 21.2,167.1 24,163.8 26.7,160.5 29.4,157.3 32.1,154.2 34.8,151.2 37.5,148.3 40.2,145.5 41.7,146.4 40.3,150.1 38.9,153.8 37.2,157.5 35.4,161.2 33.5,165 31.5,168.8 29.3,172.7 27.1,176.6 24.8,180.5 22.4,184.6 " />
<polygon points="22.4,184.6 12.6,177.7 11.5,179.3 " />
<polygon points="22.4,184.6 26,184.7 23.4,177.9 " />
<polygon points="37.3,154.1 41.7,156.9 46.4,159.7 52.1,162.4 59.6,164.9 69.5,167.1 82.7,168.9 99.5,170 120.8,170.4 146.9,169.9 178.6,168.4 179.3,181.5 147.2,182.4 120.6,182.2 98.8,181 81.3,179 67.5,176.2 56.9,172.8 48.8,168.8 42.9,164.5 38.8,159.9 36,155.3 " />
<polygon points="179.3,181.5 178.6,168.4 189.8,167.8 " />
<polygon points="23.3,24.8 26,26.2 28.8,27.6 31.6,29.2 34.2,31 36.8,33.1 39.3,35.4 41.6,37.8 43.9,40.4 46.1,43.2 48.2,46.1 37.7,51.8 36.5,48.9 35.2,46 33.9,43.3 32.5,40.6 31,38.1 29.5,35.6 27.8,33.1 26.1,30.7 24.3,28.3 22.3,26.3 " />
<polygon points="48.2,46.1 48.6,50.7 45.8,54.2 41.2,54.6 37.7,51.8 " />
<polygon points="15,72 46,72 46,76 15,76 " />
<polygon points="51.4,75 32.6,119.2 19.2,119.9 39.4,74 " />
<polygon points="40,72 46,67 57,76 52,79 40,84 " />
<polygon points="28,113 54,113 54,117 28,117 " />
<polygon points="59.4,116 42.7,157.1 29.3,158 47.4,115 " />
<polygon points="48,113 54,108 65,117 60,120 48,125 " />
</g>
</svg>
