<svg xmlns="http://www.w3.org/2000/svg" xmlns:xlink="http://www.w3.org/1999/xlink" version="1.1" baseProfile="full" viewBox="0 0 200 200" width="200" height="200">
<g fill="black">
<polygon points="163,28.9 151,32.7 138.6,36 126,38.9 113.1,41.4 99.9,43.5 86.5,45.1 72.8,46.3 58.8,47.1 44.5,47.3 30,46.8 29.9,45.1 44.3,43.5 58.3,41.7 72,39.8 85.4,37.6 98.5,35.1 111.2,32.3 123.7,29.1 135.8,25.6 147.5,21.8 159,17.6 " />
<polygon points="158.1,18 163,28.9 168.5,27 " />
<polygon points="168.5,27 168.7,30.1 162,27.2 " />
<polygon points="43.3,52.6 47.8,55.3 52,58.1 56,61 59.7,64.1 63.1,67.2 66.3,70.3 69.3,73.5 72.1,76.8 74.6,80.1 76.9,83.5 66.2,89.1 64.9,85.9 63.2,82.7 61.4,79.4 59.3,76 57,72.6 54.4,69 51.6,65.4 48.7,61.7 45.5,57.9 42.1,54 " />
<polygon points="76.9,83.5 77.2,88.1 74.3,91.6 69.8,92 66.2,89.1 " />
<polygon points="159.1,57.1 155.3,61.5 151.4,65.7 147.4,69.9 143.3,74 139.2,78 134.9,81.8 130.6,85.6 126.1,89.2 121.4,92.6 116.6,95.7 115.3,94.3 118.8,89.8 122.3,85.3 125.9,81 129.4,76.6 132.9,72.2 136.4,67.8 139.8,63.4 143.1,58.9 146.4,54.3 149.6,49.8 " />
<polygon points="149,50.6 159.1,57.1 150,49.2 " />
<polygon points="159.1,57.1 160.2,60.5 154.5,59.8 " />
<polygon points="23,99.1 180,99.1 180,103.1 23,103.1 " />
<polygon points="180,99.1 156,101.1 168,89.1 " />
<polygon points="106,38.9 106,182.8 94,188.8 94,36.9 " />
<polygon points="106,38.9 109,40.9 104,43.9 " />
<polygon points="102.8,101.1 101.3,103.8 95.4,114 89,123.7 82,132.7 74.4,141.1 66.4,148.9 57.8,156 48.7,162.4 39.1,168.1 29,173 18.3,177.1 17.6,175.5 27.2,169.7 36.3,163.6 44.9,157.1 53,150.2 60.5,142.8 67.5,134.9 74.1,126.6 80.1,117.7 85.6,108.3 89.2,101.1 " />
<polygon points="107.2,101.5 113.5,109 119.7,116.3 126.1,123.2 132.7,129.6 139.5,135.7 146.6,141.4 154,146.7 161.7,151.5 169.6,156 177.9,160 172,171.8 163.4,166.8 155.2,161.4 147.4,155.5 140.1,149.3 133.1,142.5 126.6,135.4 120.6,127.8 115,119.8 110,111.4 105.7,102.4 " />
<polygon points="172,171.8 177.9,160 183.3,162.7 " />
</g>
</svg>
