<svg xmlns="http://www.w3.org/2000/svg" xmlns:xlink="http://www.w3.org/1999/xlink" version="1.1" baseProfile="full" viewBox="0 0 200 200" width="200" height="200">
<g fill="black">
<polygon points="164.2,28 152.6,30.1 140.4,32 127.8,33.9 114.6,35.7 100.8,37.4 86.6,39.1 71.7,40.6 56.4,41.9 40.5,43 24,43.8 23.9,42.1 40.1,39.2 55.7,36.6 70.9,34 85.5,31.5 99.6,29.1 113.1,26.6 126.1,24 138.5,21.5 150.4,18.9 161.7,16.3 " />
<polygon points="161.7,16.3 164.2,28 172.6,26.3 " />
<polygon points="172.6,26.3 172.9,29.3 164.4,24.9 " />
<polygon points="43.3,49 46.3,51.4 49.4,53.8 52.1,56.5 54.7,59.4 57,62.6 59.1,65.9 61,69.4 62.6,73.1 64.1,76.9 65.3,80.9 53.5,83.1 53.2,79.6 52.6,76.1 51.9,72.8 51,69.5 50,66.2 48.8,63 47.4,59.8 45.8,56.6 44.1,53.4 42,50.3 " />
<polygon points="65.3,80.9 64.3,85.4 60.5,87.9 56,86.9 53.5,83.1 " />
<polygon points="83.3,42.9 86.3,44.9 89.3,47 92.1,49.5 94.7,52.2 97.2,55.2 99.4,58.5 101.4,62 103.2,65.7 104.8,69.6 106.2,73.7 94.4,76.3 93.9,72.6 93.2,69 92.4,65.6 91.4,62.2 90.3,59 89,55.9 87.6,52.9 86,50 84.2,47 82.1,44.3 " />
<polygon points="106.2,73.7 105.3,78.2 101.6,80.9 97.1,80 94.4,76.3 " />
<polygon points="167.7,48.7 164.8,53.3 161.8,58 158.5,62.8 155,67.7 151.4,72.7 147.6,77.8 143.5,82.9 139.2,88.1 134.6,93.3 129.7,98.5 128.2,97.4 131.5,91.1 134.8,85.1 138.1,79.2 141.2,73.6 144.3,68.1 147.2,62.8 149.9,57.6 152.5,52.6 154.9,47.7 157.2,43 " />
<polygon points="157.2,43 167.7,48.7 157.7,42 " />
<polygon points="167.7,48.7 169.4,51.9 162.3,52.5 " />
<polygon points="22,110 182,110 182,114 22,114 " />
<polygon points="182,110 158,112 170,100 " />
<polygon points="106,89 106,184 94,190 94,87 " />
<polygon points="106,89 109,91 106,93 " />
<polygon points="103,112 101.2,114.9 95.2,124.2 88.5,133 81.1,141.3 73.1,148.9 64.4,156 55,162.5 45.1,168.3 34.5,173.5 23.2,178 11.3,181.8 10.6,180.1 21.7,174.6 32,168.8 41.7,162.7 50.7,156.2 59,149.4 66.7,142.2 73.7,134.5 80,126.5 85.7,118 89,112 " />
<polygon points="106.3,112.3 112.7,119.2 119.1,125.7 125.8,132 132.8,138 140,143.5 147.6,148.7 155.5,153.6 163.8,158 172.5,162.1 181.5,165.9 176.4,178 167,173.4 158.1,168.3 149.7,162.9 141.7,157 134.2,150.8 127.1,144.1 120.6,137.1 114.7,129.6 109.3,121.7 104.8,113.3 " />
<polygon points="176.4,178 181.5,165.9 187.8,168.5 " />
</g>
</svg>
