<svg xmlns="http://www.w3.org/2000/svg" xmlns:xlink="http://www.w3.org/1999/xlink" version="1.1" baseProfile="full" viewBox="0 0 200 200" width="200" height="200">
<g fill="black">
<polygon points="63,21 63,114 51,114 51,15 " />
<polygon points="57,21 167,21 167,25 57,25 " />
<polygon points="167,21 143,23 155,11 " />
<polygon points="57,52 153,52 153,56 57,56 " />
<polygon points="153,52 129,54 141,42 " />
<polygon points="57,83 154,83 154,87 57,87 " />
<polygon points="154,83 130,85 142,73 " />
<polygon points="17,110 187,110 187,114 17,114 " />
<polygon points="187,110 163,112 175,100 " />
<polygon points="95.2,117 92.4,123.1 89.4,129.2 86.1,135.2 82.6,141.3 78.8,147.3 74.8,153.3 70.5,159.2 65.9,165.1 61,170.9 55.7,176.5 54.2,175.4 57.9,168.7 61.5,162.1 65,155.7 68.3,149.3 71.4,143.1 74.4,136.9 77.1,130.8 79.6,124.7 81.9,118.7 84,112.7 " />
<polygon points="84,112.7 95.2,117 84.5,111.4 " />
<polygon points="95.2,117 97.3,120 90.2,121.6 " />
<polygon points="38.4,170.9 50.3,170 62.1,169.1 73.8,168.1 85.4,167.2 96.9,166.2 108.3,165.2 119.6,164.3 130.7,163.4 141.8,162.7 152.8,162.1 153.1,163.8 142.4,166.4 131.5,168.7 120.4,170.8 109.3,172.8 98,174.6 86.5,176.4 75,178.1 63.3,179.7 51.5,181.3 39.5,182.8 " />
<polygon points="39.5,182.8 38.4,170.9 36.4,171.1 " />
<polygon points="39.5,182.8 41.8,185.6 45.2,179.3 " />
<polygon points="126.3,137.9 132.2,141.8 137.7,145.8 142.6,150 147.1,154.1 151.2,158.2 154.9,162.4 158.1,166.5 161,170.7 163.5,174.9 165.6,179.1 154.3,183.2 153.2,179.6 151.6,175.9 149.7,171.9 147.3,167.8 144.6,163.6 141.4,159.1 137.9,154.5 133.9,149.7 129.7,144.6 125.1,139.3 " />
<polygon points="165.6,179.1 165.3,183.6 162,186.8 157.4,186.5 154.3,183.2 " />
</g>
</svg>
