<svg xmlns="http://www.w3.org/2000/svg" xmlns:xlink="http://www.w3.org/1999/xlink" version="1.1" baseProfile="full" viewBox="0 0 200 200" width="200" height="200">
<g fill="black">
<polygon points="61,102 61,171 49,171 49,102 " />
<polygon points="23.2,175.9 31.8,173.6 40.7,171.1 49.9,168.5 59.5,165.8 69.3,162.9 79.5,159.8 90,156.7 100.8,153.5 112.1,150.3 123.6,147.1 124.3,148.8 113.3,153.9 102.7,158.5 92.2,162.9 82,167 72.1,170.9 62.4,174.6 53,178.1 44,181.4 35.2,184.5 26.6,187.4 " />
<polygon points="26.6,187.4 23.2,175.9 21.3,176.5 " />
<polygon points="26.6,187.4 29.4,189.7 31.5,182.8 " />
<polygon points="162.2,121.6 159,123.1 155.4,124.8 151.6,126.5 147.5,128.4 143,130.3 138.2,132.4 133,134.5 127.5,136.6 121.6,138.7 115.4,140.8 114.5,139.1 119.9,135.3 125.1,131.8 130,128.6 134.7,125.6 139,122.8 143,120.2 146.8,117.7 150.2,115.4 153.2,113.3 156,111.3 " />
<polygon points="156,111.3 162.2,121.6 163.7,120.7 " />
<polygon points="163.7,120.7 163.9,124.1 156.7,121.4 " />
<polygon points="92.2,104.5 98.3,115.1 104.9,124.8 112,133.7 119.7,141.7 128.1,148.9 137.1,155.2 146.9,160.7 157.3,165.5 168.6,169.4 180.6,172.5 177.3,185.4 164.6,181.3 152.6,176.3 141.5,170.4 131.3,163.6 122,156 113.7,147.5 106.3,138.2 99.9,128 94.6,117 90.5,105.2 " />
<polygon points="177.3,185.4 180.6,172.5 189.1,174.7 " />
<polygon points="57,24 165,24 165,28 57,28 " />
<polygon points="165,24 141,26 153,14 " />
<polygon points="63,24 63,106 51,106 51,18 " />
<polygon points="57,50 156,50 156,54 57,54 " />
<polygon points="156,50 132,52 144,40 " />
<polygon points="57,76 156,76 156,80 57,80 " />
<polygon points="156,76 132,78 144,66 " />
<polygon points="13,102 186,102 186,106 13,106 " />
<polygon points="186,102 162,104 174,92 " />
</g>
</svg>
