<svg xmlns="http://www.w3.org/2000/svg" xmlns:xlink="http://www.w3.org/1999/xlink" version="1.1" baseProfile="full" viewBox="0 0 200 200" width="200" height="200">
<g fill="black">
<polygon points="35,25 35,183 23,189 23,19 " />
<polygon points="29,25 83,25 83,29 29,29 " />
<polygon points="89,27 89,78 77,84 77,27 " />
<polygon points="77,25 83,20 94,29 89,33 77,27 " />
<polygon points="29,49 83,49 83,53 29,53 " />
<polygon points="29,74 83,74 83,78 29,78 " />
<polygon points="123,25 123,78 111,84 111,19 " />
<polygon points="117,25 171,25 171,29 117,29 " />
<polygon points="177,27 177,172 165,172 165,27 " />
<polygon points="165,25 171,20 182,29 177,33 165,27 " />
<polygon points="177,172 174.6,175.6 171,178 167.4,175.6 165,172 " />
<polygon points="177,172 176.8,174.5 176.4,177 175.6,179.4 174.3,181.7 172.7,183.7 170.7,185.3 168.4,186.6 166,187.4 163.5,187.8 161,188 161,176 162.2,175.9 163.1,175.7 163.7,175.5 164,175.4 164.2,175.2 164.4,175 164.5,174.7 164.7,174.1 164.9,173.2 165,172 " />
<polygon points="161,182 161,176 141,176 141,179 " />
<polygon points="117,49 171,49 171,53 117,53 " />
<polygon points="117,74 171,74 171,78 117,78 " />
<polygon points="78.2,89.6 78.2,137.5 66.2,137.5 66.2,83.6 " />
<polygon points="78.2,137.5 75.8,141.1 72.2,143.5 68.6,141.1 66.2,137.5 " />
<polygon points="78.2,137.5 77.7,143 76.7,148.3 75.2,153.3 73.2,158 70.8,162.3 67.9,166.3 64.6,170 60.9,173.2 56.8,175.9 52.3,178.2 51.3,176.7 54.6,173.2 57.4,169.6 59.8,166 61.8,162.3 63.4,158.6 64.7,154.7 65.6,150.7 66.2,146.5 66.4,142.1 66.2,137.5 " />
<polygon points="72.2,89.6 131,89.6 131,93.6 72.2,93.6 " />
<polygon points="137,91.6 137,163.7 125,163.7 125,91.6 " />
<polygon points="125,89.6 131,84.6 142,93.6 137,97.6 125,91.6 " />
<polygon points="137,163.7 134.6,167.3 131,169.7 127.4,167.3 125,163.7 " />
<polygon points="137,163.7 136.8,166.3 136.4,168.7 135.6,171.2 134.4,173.4 132.7,175.4 130.7,177.1 128.4,178.3 126,179.1 123.5,179.6 121,179.7 121,167.7 122.2,167.6 123.1,167.5 123.7,167.3 124,167.1 124.2,166.9 124.4,166.8 124.6,166.4 124.7,165.8 124.9,164.9 125,163.7 " />
<polygon points="121,173.7 121,167.7 101,167.7 101,170.7 " />
<polygon points="72.2,113.4 131,113.4 131,117.4 72.2,117.4 " />
<polygon points="72.2,136.6 131,136.6 131,140.6 72.2,140.6 " />
</g>
</svg>
