<svg xmlns="http://www.w3.org/2000/svg" xmlns:xlink="http://www.w3.org/1999/xlink" version="1.1" baseProfile="full" viewBox="0 0 200 200" width="200" height="200">
<g fill="black">
<polygon points="37.2,15.5 41.7,16.8 46,18.1 49.9,19.8 53.6,21.8 56.8,24 59.8,26.6 62.3,29.5 64.5,32.8 66.2,36.3 67.4,40.1 55.6,41.9 55.4,39.4 54.9,37 54.1,34.5 52.9,32.1 51.3,29.6 49.3,27 46.8,24.5 43.9,22 40.5,19.4 36.6,17.2 " />
<polygon points="67.4,40.1 66.3,44.5 62.4,46.9 58,45.8 55.6,41.9 " />
<polygon points="40,41 40,178 28,184 28,39 " />
<polygon points="40,41 43,43 38,46 " />
<polygon points="77,32 167,32 167,36 77,36 " />
<polygon points="173,34 173,170 161,170 161,34 " />
<polygon points="161,32 167,27 178,36 173,40 161,34 " />
<polygon points="173,170 170.6,173.6 167,176 163.4,173.6 161,170 " />
<polygon points="173,170 172.8,172.5 172.4,175 171.6,177.4 170.3,179.7 168.7,181.7 166.7,183.3 164.4,184.6 162,185.4 159.5,185.8 157,186 157,174 158.2,173.9 159.1,173.7 159.7,173.5 160,173.4 160.2,173.2 160.4,173 160.5,172.7 160.7,172.1 160.9,171.2 161,170 " />
<polygon points="157,180 157,174 137,174 137,177 " />
</g>
</svg>
