<svg xmlns="http://www.w3.org/2000/svg" xmlns:xlink="http://www.w3.org/1999/xlink" version="1.1" baseProfile="full" viewBox="0 0 200 200" width="200" height="200">
<g fill="black">
<polygon points="29.4,26.2 72,26.2 72,30.2 29.4,30.2 " />
<polygon points="77.6,30.5 75.5,34.6 73.3,38.8 71,43.2 68.4,47.7 65.7,52.4 62.7,57.1 59.6,62 56.2,67 52.5,72.1 48.4,77.2 46.9,76.3 49.2,70.2 51.5,64.4 53.8,58.9 56,53.6 58.1,48.5 60,43.7 61.9,39 63.5,34.4 65.1,30.1 66.4,26 " />
<polygon points="66,26.2 72,21.2 83,30.2 78,34.2 72,34.2 " />
<polygon points="49,76.8 55.5,82.4 61.1,87.9 65.7,93.5 69.4,99 72.2,104.4 74.2,109.9 75.1,115.4 75,120.9 73.8,126.2 71.4,131.3 61.4,124.7 63.3,121.9 64.5,118.9 65.1,115.6 65.1,111.7 64.3,107.3 62.6,102.4 60.1,97 56.8,91.2 52.6,84.9 47.7,78.1 " />
<polygon points="71.4,131.3 67.6,133.8 63.1,133 60.6,129.1 61.4,124.7 " />
<polygon points="71.4,131.3 69.9,133.3 68.3,135.2 66.5,136.8 64.6,138.3 62.6,139.5 60.4,140.5 58.1,141.3 55.7,141.9 53.3,142.2 50.9,142.3 50.9,130.3 52.3,130.2 53.6,130.1 54.8,129.8 55.9,129.4 56.9,128.9 57.9,128.3 58.8,127.6 59.7,126.8 60.6,125.8 61.4,124.7 " />
<polygon points="50.9,136.3 50.9,130.3 30.9,130.3 30.9,133.3 " />
<polygon points="35.4,26.2 35.4,184.8 23.4,190.8 23.4,20.2 " />
<polygon points="122.2,20 119,27.3 115.5,34.4 111.8,41 107.9,47.3 103.6,53.3 99.2,58.8 94.4,64 89.5,68.7 84.1,73 78.5,76.6 77.4,75.3 81.5,70.2 85.5,65.1 89.4,59.8 93.1,54.3 96.6,48.6 99.9,42.6 103,36.3 105.8,29.8 108.5,22.9 111,15.8 " />
<polygon points="111,15.8 122.2,20 111.5,14.4 " />
<polygon points="122.2,20 124.4,22.9 117.3,24.6 " />
<polygon points="111,36 159,36 159,40 111,40 " />
<polygon points="163.9,41.4 156,51.3 147.9,60.4 139.4,68.7 130.6,76.1 121.4,82.6 112,88.4 102.2,93.2 92.1,97.1 81.8,100 71.2,101.8 70.7,100.1 80.6,96.4 90.1,92.1 99.2,87.3 108,81.9 116.5,75.8 124.6,68.9 132.4,61.4 139.9,53.2 147.1,44.2 154,34.5 " />
<polygon points="153,36 159,31 170,40 165,44 159,44 " />
<polygon points="111.2,38.5 115.9,45.6 120.9,52 126.4,57.8 132.4,63 139,67.6 146.2,71.7 154.2,75.2 162.8,78.2 172.1,80.6 182.2,82.5 179.7,95.4 169,92.7 158.9,89.3 149.7,85.3 141.2,80.6 133.6,75.2 126.8,69.2 121,62.6 116.1,55.4 112.2,47.6 109.5,39.2 " />
<polygon points="179.7,95.4 182.2,82.5 191.6,84.2 " />
<polygon points="113.5,100.5 111.4,106.4 109.1,112 106.5,117.4 103.7,122.5 100.5,127.3 97.1,131.9 93.5,136.2 89.5,140.1 85.2,143.6 80.6,146.6 79.3,145.3 82.5,140.9 85.4,136.5 88.2,132.2 90.8,127.7 93.2,123 95.4,118.3 97.4,113.3 99.1,108.2 100.6,102.9 101.9,97.4 " />
<polygon points="101.9,97.4 113.5,100.5 102.3,95.7 " />
<polygon points="113.5,100.5 115.9,103.2 109,105.5 " />
<polygon points="96,121 180,121 180,125 96,125 " />
<polygon points="180,121 156,123 168,111 " />
<polygon points="138,93 138,183 126,183 126,91 " />
<polygon points="138,93 141,95 138,97 " />
<polygon points="71,179 189,179 189,183 71,183 " />
<polygon points="189,179 165,181 177,169 " />
<polygon points="92,150 173,150 173,154 92,154 " />
<polygon points="173,150 149,152 161,140 " />
</g>
</svg>
