<svg xmlns="http://www.w3.org/2000/svg" xmlns:xlink="http://www.w3.org/1999/xlink" version="1.1" baseProfile="full" viewBox="0 0 200 200" width="200" height="200">
<g fill="black">
<polygon points="29.4,26.2 72,26.2 72,30.2 29.4,30.2 " />
<polygon points="77.6,30.5 75.5,34.6 73.3,38.8 71,43.2 68.4,47.7 65.7,52.4 62.7,57.1 59.6,62 56.2,67 52.5,72.1 48.4,77.2 46.9,76.3 49.2,70.2 51.5,64.4 53.8,58.9 56,53.6 58.1,48.5 60,43.7 61.9,39 63.5,34.4 65.1,30.1 66.4,26 " />
<polygon points="66,26.2 72,21.2 83,30.2 78,34.2 72,34.2 " />
<polygon points="49,76.8 55.5,82.4 61.1,87.9 65.7,93.5 69.4,99 72.2,104.4 74.2,109.9 75.1,115.4 75,120.9 73.8,126.2 71.4,131.3 61.4,124.7 63.3,121.9 64.5,118.9 65.1,115.6 65.1,111.7 64.3,107.3 62.6,102.4 60.1,97 56.8,91.2 52.6,84.9 47.7,78.1 " />
<polygon points="71.4,131.3 67.6,133.8 63.1,133 60.6,129.1 61.4,124.7 " />
<polygon points="71.4,131.3 69.9,133.3 68.3,135.2 66.5,136.8 64.6,138.3 62.6,139.5 60.4,140.5 58.1,141.3 55.7,141.9 53.3,142.2 50.9,142.3 50.9,130.3 52.3,130.2 53.6,130.1 54.8,129.8 55.9,129.4 56.9,128.9 57.9,128.3 58.8,127.6 59.7,126.8 60.6,125.8 61.4,124.7 " />
<polygon points="50.9,136.3 50.9,130.3 30.9,130.3 30.9,133.3 " />
<polygon points="35.4,26.2 35.4,184.8 23.4,190.8 23.4,20.2 " />
<polygon points="115.8,19.4 112.5,26.5 109,33.3 105.3,39.7 101.3,45.8 97.1,51.6 92.6,56.9 87.8,61.9 82.8,66.5 77.5,70.6 71.9,74.1 70.7,72.7 74.9,67.8 79,62.7 82.9,57.6 86.6,52.3 90.1,46.7 93.4,40.9 96.5,34.9 99.4,28.5 102.1,21.9 104.6,15 " />
<polygon points="104.6,15 115.8,19.4 105.1,13.7 " />
<polygon points="115.8,19.4 117.9,22.3 110.8,23.9 " />
<polygon points="99.5,34.7 156.9,34.7 156.9,38.7 99.5,38.7 " />
<polygon points="161.1,40.9 150.7,50.6 140.6,59.4 130.8,67.3 121.3,74.3 112.1,80.5 103.2,85.7 94.6,90 86.3,93.3 78.3,95.6 70.7,96.7 70.3,95 77.1,92 84.2,88.4 91.6,84.2 99.3,79.2 107.4,73.5 115.7,66.9 124.5,59.5 133.5,51.3 142.9,42.3 152.6,32.4 " />
<polygon points="150.9,34.7 156.9,29.7 167.9,38.7 162.9,42.7 156.9,42.7 " />
<polygon points="107.8,38.3 112.2,44.9 116.9,50.9 122.3,56.4 128.3,61.3 135,65.7 142.5,69.5 150.8,72.9 159.9,75.8 169.9,78.2 180.8,80.1 178.5,93.2 167,90.4 156.3,87.1 146.6,83.2 137.7,78.6 129.8,73.4 122.9,67.7 117,61.3 112.1,54.4 108.5,46.9 106.1,38.9 " />
<polygon points="178.5,93.2 180.8,80.1 190.3,81.8 " />
<polygon points="91.7,97.9 164.7,97.9 164.7,101.9 91.7,101.9 " />
<polygon points="164.7,97.9 140.7,99.9 152.7,87.9 " />
<polygon points="104.2,111.8 102.1,116.9 99.8,121.6 97.2,126.2 94.3,130.5 91.1,134.5 87.6,138.2 83.9,141.6 79.9,144.7 75.6,147.3 71,149.6 70,148.1 73.3,144.5 76.4,140.8 79.3,137.2 81.9,133.4 84.3,129.6 86.5,125.6 88.4,121.5 90.1,117.3 91.5,112.9 92.7,108.3 " />
<polygon points="92.7,108.3 104.2,111.8 93.2,106.7 " />
<polygon points="104.2,111.8 106.5,114.6 99.6,116.7 " />
<polygon points="87,128.5 174.1,128.5 174.1,132.5 87,132.5 " />
<polygon points="174.1,128.5 150.1,130.5 162.1,118.5 " />
<polygon points="131.5,107 131.5,183.5 119.5,183.5 119.5,105 " />
<polygon points="131.5,107 134.5,109 131.5,111 " />
<polygon points="83.1,151 167.8,151 167.8,155 83.1,155 " />
<polygon points="167.8,151 143.8,153 155.8,141 " />
<polygon points="62.7,179.5 186.7,179.5 186.7,183.5 62.7,183.5 " />
<polygon points="186.7,179.5 162.7,181.5 174.7,169.5 " />
</g>
</svg>
