<svg xmlns="http://www.w3.org/2000/svg" xmlns:xlink="http://www.w3.org/1999/xlink" version="1.1" baseProfile="full" viewBox="0 0 200 200" width="200" height="200">
<g fill="black">
<polygon points="31.9,32.6 32.6,38.6 33.2,44.2 33.3,49.4 32.9,54.4 32.2,59 31,63.3 29.5,67.3 27.4,70.9 24.8,74.2 21.7,77 15.2,66.9 17.2,65.8 19.2,64.2 21.1,62.2 22.8,59.7 24.5,56.5 26,52.9 27.3,48.6 28.4,43.8 29.4,38.5 30.1,32.7 " />
<polygon points="21.7,77 17.2,77.7 13.4,75.1 12.7,70.6 15.2,66.9 " />
<polygon points="32,42.5 176,42.5 176,46.5 32,46.5 " />
<polygon points="181.1,47.5 179.4,49.5 177.6,51.7 175.6,53.9 173.4,56.3 171.1,58.7 168.6,61.3 165.9,63.9 162.9,66.6 159.8,69.3 156.6,72.4 155.3,71.2 157.6,67.6 159.5,63.9 161.4,60.5 163.2,57.2 164.8,54.1 166.3,51.2 167.7,48.5 168.9,46 169.9,43.6 170.8,41.4 " />
<polygon points="170,42.5 176,37.5 187,46.5 182,49.5 170,54.5 " />
<polygon points="96.3,16.8 91.2,29.9 85.4,42.6 78.9,54.6 71.7,66.1 63.8,76.9 55.2,87.2 45.8,96.9 35.8,105.9 25,114.2 13.5,121.7 12.4,120.2 22.6,111.2 32.2,101.9 41.1,92.3 49.4,82.3 56.9,71.9 63.9,61.1 70.1,49.8 75.7,38 80.7,25.8 84.9,13 " />
<polygon points="84.6,14 96.3,16.8 85.4,11.5 " />
<polygon points="96.3,16.8 98.6,19.6 92.9,20.9 " />
<polygon points="58,83 58,184 46,190 46,83 " />
<polygon points="125,58.4 123.4,60.7 121.8,63.2 120,65.7 118.2,68.3 116.2,71 114.2,73.7 112,76.6 109.6,79.4 107.1,82.3 104.7,85.4 103.2,84.5 104.7,80.9 105.9,77.3 107.1,73.8 108.3,70.5 109.4,67.4 110.5,64.3 111.5,61.4 112.5,58.6 113.3,55.9 114.1,53.3 " />
<polygon points="113.7,54.3 125,58.4 114.6,52.2 " />
<polygon points="125,58.4 126.9,61.4 121.1,62.1 " />
<polygon points="52,83 170,83 170,87 52,87 " />
<polygon points="170,83 146,85 158,73 " />
<polygon points="113,83 113,177 101,177 101,83 " />
<polygon points="52,113 164,113 164,117 52,117 " />
<polygon points="164,113 140,115 152,103 " />
<polygon points="52,142 164,142 164,146 52,146 " />
<polygon points="164,142 140,144 152,132 " />
<polygon points="52,173 180,173 180,177 52,177 " />
<polygon points="180,173 156,175 168,163 " />
</g>
</svg>
