<svg xmlns="http://www.w3.org/2000/svg" xmlns:xlink="http://www.w3.org/1999/xlink" version="1.1" baseProfile="full" viewBox="0 0 200 200" width="200" height="200">
<g fill="black">
<polygon points="30,34.4 170,34.4 170,38.4 30,38.4 " />
<polygon points="170,34.4 146,36.4 158,24.4 " />
<polygon points="106,14.7 106,85.7 94,85.7 94,12.7 " />
<polygon points="106,14.7 109,16.7 106,18.7 " />
<polygon points="37,58 163,58 163,62 37,62 " />
<polygon points="163,58 139,60 151,48 " />
<polygon points="14,81.7 186,81.7 186,85.7 14,85.7 " />
<polygon points="186,81.7 162,83.7 174,71.7 " />
<polygon points="62,102 62,183 50,189 50,96 " />
<polygon points="56,102 143,102 143,106 56,106 " />
<polygon points="149,104 149,173 137,173 137,104 " />
<polygon points="137,102 143,97 154,106 149,110 137,104 " />
<polygon points="149,173 146.6,176.6 143,179 139.4,176.6 137,173 " />
<polygon points="149,173 148.8,175.5 148.4,178 147.6,180.4 146.3,182.7 144.7,184.7 142.7,186.3 140.4,187.6 138,188.4 135.5,188.8 133,189 133,177 134.2,176.9 135.1,176.7 135.7,176.5 136,176.4 136.2,176.2 136.4,176 136.5,175.7 136.7,175.1 136.9,174.2 137,173 " />
<polygon points="133,183 133,177 113,177 113,180 " />
<polygon points="106,102 106,145 94,145 94,102 " />
<polygon points="56,141 143,141 143,145 56,145 " />
</g>
</svg>
