<svg xmlns="http://www.w3.org/2000/svg" xmlns:xlink="http://www.w3.org/1999/xlink" version="1.1" baseProfile="full" viewBox="0 0 200 200" width="200" height="200">
<g fill="black">
<polygon points="30,34.4 170,34.4 170,38.4 30,38.4 " />
<polygon points="170,34.4 146,36.4 158,24.4 " />
<polygon points="106,14.7 106,85.7 94,85.7 94,12.7 " />
<polygon points="106,14.7 109,16.7 106,18.7 " />
<polygon points="37,58 163,58 163,62 37,62 " />
<polygon points="163,58 139,60 151,48 " />
<polygon points="14,81.7 186,81.7 186,85.7 14,85.7 " />
<polygon points="186,81.7 162,83.7 174,71.7 " />
<polygon points="62.3,101.6 62.3,183.8 50.3,189.8 50.3,95.6 " />
<polygon points="56.3,101.6 143.6,101.6 143.6,105.6 56.3,105.6 " />
<polygon points="149.6,103.6 149.6,173.1 137.6,173.1 137.6,103.6 " />
<polygon points="137.6,101.6 143.6,96.6 154.6,105.6 149.6,109.6 137.6,103.6 " />
<polygon points="149.6,173.1 147.2,176.7 143.6,179.1 140,176.7 137.6,173.1 " />
<polygon points="149.6,173.1 149.5,175.6 149.1,178.1 148.2,180.5 147,182.8 145.4,184.8 143.4,186.4 141.1,187.7 138.7,188.5 136.2,188.9 133.6,189.1 133.6,177.1 134.9,177 135.8,176.8 136.4,176.6 136.7,176.5 136.9,176.3 137,176.1 137.2,175.8 137.4,175.2 137.6,174.3 137.6,173.1 " />
<polygon points="133.6,183.1 133.6,177.1 113.6,177.1 113.6,180.1 " />
<polygon points="56.3,125.9 143.6,125.9 143.6,129.9 56.3,129.9 " />
<polygon points="56.3,150.2 143.6,150.2 143.6,154.2 56.3,154.2 " />
</g>
</svg>
