<svg xmlns="http://www.w3.org/2000/svg" xmlns:xlink="http://www.w3.org/1999/xlink" version="1.1" baseProfile="full" viewBox="0 0 200 200" width="200" height="200">
<g fill="black">
<polygon points="84,17 84,184 72,190 72,15 " />
<polygon points="84,17 87,19 84,21 " />
<polygon points="23,48 78,48 78,52 23,52 " />
<polygon points="30,91 78,91 78,95 30,95 " />
<polygon points="16,136 78,136 78,140 16,140 " />
<polygon points="128,17 128,184 116,190 116,15 " />
<polygon points="128,17 131,19 128,21 " />
<polygon points="122,48 180,48 180,52 122,52 " />
<polygon points="180,48 156,50 168,38 " />
<polygon points="122,91 171,91 171,95 122,95 " />
<polygon points="171,91 151,93 161,82 " />
<polygon points="122,136 187,136 187,140 122,140 " />
<polygon points="187,136 163,138 175,126 " />
</g>
</svg>
