<svg xmlns="http://www.w3.org/2000/svg" xmlns:xlink="http://www.w3.org/1999/xlink" version="1.1" baseProfile="full" viewBox="0 0 200 200" width="200" height="200">
<g fill="black">
<polygon points="97.5,18.4 86.1,63 73.8,63 86.4,13.5 " />
<polygon points="97.5,18.4 99.9,21.1 94.6,22.5 " />
<polygon points="40,34 142,34 142,38 40,38 " />
<polygon points="148,36 148,66 136,66 136,36 " />
<polygon points="136,34 142,29 153,38 148,42 136,36 " />
<polygon points="22,62 182,62 182,66 22,66 " />
<polygon points="182,62 162,64 172,53 " />
<polygon points="61.9,78.4 61.9,118.5 49.9,124.5 49.9,72.4 " />
<polygon points="55.9,78.4 144,78.4 144,82.4 55.9,82.4 " />
<polygon points="150,80.4 150,115.5 138,121.5 138,80.4 " />
<polygon points="138,78.4 144,73.4 155,82.4 150,86.4 138,80.4 " />
<polygon points="55.9,107.5 144,107.5 144,111.5 55.9,111.5 " />
<polygon points="54,134 166,134 166,138 54,138 " />
<polygon points="166,134 142,136 154,124 " />
<polygon points="60,134 60,164 48,164 48,128 " />
<polygon points="18,160 184,160 184,164 18,164 " />
<polygon points="184,160 160,162 172,150 " />
<polygon points="126,113 126,183 114,189 114,111 " />
<polygon points="126,113 129,115 124,118 " />
</g>
</svg>
