<svg xmlns="http://www.w3.org/2000/svg" xmlns:xlink="http://www.w3.org/1999/xlink" version="1.1" baseProfile="full" viewBox="0 0 200 200" width="200" height="200">
<g fill="black">
<polygon points="18.5,31.6 81.2,31.6 81.2,35.6 18.5,35.6 " />
<polygon points="86.2,37 84.1,39.4 81.8,41.8 79.3,44.3 76.7,46.8 73.8,49.4 70.7,52 67.4,54.7 63.9,57.3 60.2,60 56.3,62.8 55.1,61.5 58,57.8 60.7,54.1 63.2,50.6 65.6,47.3 67.9,44.1 69.9,41.1 71.8,38.2 73.5,35.4 75,32.8 76.2,30.3 " />
<polygon points="75.2,31.6 81.2,26.6 92.2,35.6 87.2,39.6 81.2,39.6 " />
<polygon points="59,57.6 59,159.8 48,159.8 48,55.6 " />
<polygon points="59,57.6 61.7,59.6 59,61.6 " />
<polygon points="53.5,98.8 86.3,98.8 86.3,102.8 53.5,102.8 " />
<polygon points="86.3,98.8 70.3,100.8 78.3,91.8 " />
<polygon points="36.4,83.4 36.4,170 25.4,170 25.4,81.4 " />
<polygon points="36.4,83.4 39.1,85.4 36.4,87.4 " />
<polygon points="14.8,166.5 21.4,164.8 28.3,163 35.3,161.1 42.5,159.1 50,157 57.6,154.8 65.5,152.6 73.5,150.3 81.8,148.1 90.4,145.9 91,147.6 83.1,151.6 75.4,155.3 67.7,158.7 60.1,162 52.7,165 45.5,167.9 38.4,170.6 31.5,173.2 24.8,175.7 18.2,178 " />
<polygon points="18.2,178 14.8,166.5 12.8,167.1 " />
<polygon points="18.2,178 21,180.3 23.1,173.4 " />
<polygon points="90.4,26 186.4,26 186.4,30 90.4,30 " />
<polygon points="186.4,26 162.4,28 174.4,16 " />
<polygon points="147.5,28 145.7,30.7 143.7,33.6 141.6,36.5 139.5,39.3 137.2,42 134.9,44.6 132.5,47.2 130,49.7 127.3,52 124.5,54.2 121.8,56.5 120.5,55.4 122.3,52.4 123.9,49.3 125.5,46.3 127,43.3 128.5,40.3 129.9,37.3 131.3,34.3 132.6,31.3 133.8,28.2 133.8,28 " />
<polygon points="113.7,54 113.7,151 101.7,157 101.7,48 " />
<polygon points="107.7,54 167.2,54 167.2,58 107.7,58 " />
<polygon points="173.2,56 173.2,144 161.2,150 161.2,56 " />
<polygon points="161.2,54 167.2,49 178.2,58 173.2,62 161.2,56 " />
<polygon points="107.7,83 167.2,83 167.2,87 107.7,87 " />
<polygon points="107.7,111 167.2,111 167.2,115 107.7,115 " />
<polygon points="107.7,140 167.2,140 167.2,144 107.7,144 " />
<polygon points="131.2,162 127.1,165.2 122.7,168.3 118,171.3 112.9,174.2 107.5,177 101.8,179.7 95.7,182.3 89.3,184.7 82.6,186.9 75.4,188.8 74.7,187.1 81.1,183.4 87.1,179.8 92.8,176.4 98.2,173 103.2,169.7 107.9,166.4 112.2,163.1 116.2,159.8 119.8,156.5 123,153.2 " />
<polygon points="123,153.2 131.2,162 123.3,153 " />
<polygon points="131.2,162 131.8,165.6 124.8,163.9 " />
<polygon points="143.5,153.5 148.2,154.6 152.7,155.9 157.1,157.5 161.3,159.3 165.2,161.4 169.1,163.7 172.7,166.2 176.2,168.9 179.4,171.8 182.5,174.9 173.2,182.4 171,179.3 168.7,176.4 166.2,173.5 163.5,170.7 160.6,168 157.5,165.4 154.1,162.8 150.6,160.2 146.9,157.6 142.9,155.2 " />
<polygon points="182.5,174.9 183.7,179.3 181.6,183.3 177.2,184.5 173.2,182.4 " />
</g>
</svg>
