<svg xmlns="http://www.w3.org/2000/svg" xmlns:xlink="http://www.w3.org/1999/xlink" version="1.1" baseProfile="full" viewBox="0 0 200 200" width="200" height="200">
<g fill="black">
<polygon points="90.4,26 186.4,26 186.4,30 90.4,30 " />
<polygon points="186.4,26 162.4,28 174.4,16 " />
<polygon points="147.5,28 145.7,30.7 143.7,33.6 141.6,36.5 139.5,39.3 137.2,42 134.9,44.6 132.5,47.2 130,49.7 127.3,52 124.5,54.2 121.8,56.5 120.5,55.4 122.3,52.4 123.9,49.3 125.5,46.3 127,43.3 128.5,40.3 129.9,37.3 131.3,34.3 132.6,31.3 133.8,28.2 133.8,28 " />
<polygon points="113.7,54 113.7,151 101.7,157 101.7,48 " />
<polygon points="107.7,54 167.2,54 167.2,58 107.7,58 " />
<polygon points="173.2,56 173.2,144 161.2,150 161.2,56 " />
<polygon points="161.2,54 167.2,49 178.2,58 173.2,62 161.2,56 " />
<polygon points="107.7,83 167.2,83 167.2,87 107.7,87 " />
<polygon points="107.7,111 167.2,111 167.2,115 107.7,115 " />
<polygon points="107.7,140 167.2,140 167.2,144 107.7,144 " />
<polygon points="131.2,162 127.1,165.2 122.7,168.3 118,171.3 112.9,174.2 107.5,177 101.8,179.7 95.7,182.3 89.3,184.7 82.6,186.9 75.4,188.8 74.7,187.1 81.1,183.4 87.1,179.8 92.8,176.4 98.2,173 103.2,169.7 107.9,166.4 112.2,163.1 116.2,159.8 119.8,156.5 123,153.2 " />
<polygon points="122.3,153.9 131.2,162 123.3,153 " />
<polygon points="131.2,162 131.8,165.6 126.2,164 " />
<polygon points="143.5,153.5 148.2,154.6 152.7,155.9 157.1,157.5 161.3,159.3 165.2,161.4 169.1,163.7 172.7,166.2 176.2,168.9 179.4,171.8 182.5,174.9 173.2,182.4 171,179.3 168.7,176.4 166.2,173.5 163.5,170.7 160.6,168 157.5,165.4 154.1,162.8 150.6,160.2 146.9,157.6 142.9,155.2 " />
<polygon points="182.5,174.9 183.7,179.3 181.6,183.3 177.2,184.5 173.2,182.4 " />
<polygon points="13,34 90,34 90,38 13,38 " />
<polygon points="90,34 66,36 78,24 " />
<polygon points="63,34 63,154 51,154 51,34 " />
<polygon points="57,88 88,88 88,92 57,92 " />
<polygon points="88,88 72,90 80,81 " />
<polygon points="36,71 36,164 24,164 24,69 " />
<polygon points="36,71 39,73 34,76 " />
<polygon points="12.5,160.9 19.3,159.5 26.5,158 34.1,156.1 42.2,154.1 50.6,151.9 59.5,149.4 68.9,146.7 78.6,143.9 88.9,141 99.6,138.1 100.3,139.8 90.2,144.6 80.5,149 71,153 62,156.6 53.2,159.9 44.9,163 36.9,165.8 29.4,168.3 22.1,170.6 15.3,172.6 " />
<polygon points="15.3,172.6 12.5,160.9 10.6,161.3 " />
<polygon points="15.3,172.6 17.9,175 20.5,168.3 " />
</g>
</svg>
