<svg xmlns="http://www.w3.org/2000/svg" xmlns:xlink="http://www.w3.org/1999/xlink" version="1.1" baseProfile="full" viewBox="0 0 200 200" width="200" height="200">
<g fill="black">
<polygon points="15,43.5 98.2,43.5 98.2,47.5 15,47.5 " />
<polygon points="98.2,43.5 74.2,45.5 86.2,33.5 " />
<polygon points="62.6,17.8 62.6,185.1 50.6,191.1 50.6,15.8 " />
<polygon points="62.6,17.8 65.6,19.8 62.6,21.8 " />
<polygon points="33.9,68.3 33.9,117 21.9,123 21.9,62.3 " />
<polygon points="27.9,68.3 85.3,68.3 85.3,72.3 27.9,72.3 " />
<polygon points="91.3,70.3 91.3,109 79.3,115 79.3,70.3 " />
<polygon points="79.3,68.3 85.3,63.3 96.3,72.3 91.3,76.3 79.3,70.3 " />
<polygon points="60.1,103 59.7,104.4 56.6,114.9 53.2,124.8 49.5,134.2 45.5,142.9 41.2,150.9 36.5,158.4 31.6,165.1 26.3,171.2 20.7,176.4 14.6,180.8 13.5,179.5 17.9,173.8 22.1,167.8 26.2,161.4 30,154.5 33.6,147 37,139.1 40.1,130.6 43,121.5 45.6,111.8 47.6,103 " />
<polygon points="58.8,121.5 63.5,123.7 68,125.8 72,128.1 75.7,130.6 79.1,133.3 82.2,136.1 84.9,139 87.3,142.1 89.4,145.4 91,148.8 79.6,152.4 79,149.8 78.1,147.2 76.9,144.5 75.3,141.7 73.4,138.8 71,135.8 68.3,132.7 65.2,129.6 61.8,126.3 57.9,123 " />
<polygon points="91,148.8 90.6,153.3 87.1,156.3 82.5,155.8 79.6,152.4 " />
<polygon points="27.9,101 85.3,101 85.3,105 27.9,105 " />
<polygon points="95.5,26 187,26 187,30 95.5,30 " />
<polygon points="187,26 163,28 175,16 " />
<polygon points="150.1,28 148.4,30.6 146.5,33.5 144.5,36.4 142.5,39.2 140.3,41.9 138.1,44.6 135.7,47.1 133.3,49.6 130.7,52 128,54.2 125.4,56.5 124.1,55.4 125.8,52.5 127.3,49.4 128.7,46.3 130.2,43.3 131.6,40.3 132.9,37.3 134.2,34.4 135.4,31.4 136.6,28.3 136.7,28 " />
<polygon points="117.9,54 117.9,151 105.9,157 105.9,48 " />
<polygon points="111.9,54 168.7,54 168.7,58 111.9,58 " />
<polygon points="174.7,56 174.7,144 162.7,150 162.7,56 " />
<polygon points="162.7,54 168.7,49 179.7,58 174.7,62 162.7,56 " />
<polygon points="111.9,83 168.7,83 168.7,87 111.9,87 " />
<polygon points="111.9,111 168.7,111 168.7,115 111.9,115 " />
<polygon points="111.9,140 168.7,140 168.7,144 111.9,144 " />
<polygon points="134.6,161.9 130.7,165.2 126.5,168.3 121.9,171.3 117.1,174.2 111.9,177 106.4,179.7 100.7,182.3 94.5,184.7 88,186.9 81.2,188.8 80.5,187.1 86.5,183.4 92.2,179.8 97.6,176.4 102.7,173.1 107.5,169.8 111.9,166.4 116,163.2 119.8,159.9 123.2,156.6 126.2,153.4 " />
<polygon points="126.2,153.4 134.6,161.9 126.5,153.1 " />
<polygon points="134.6,161.9 135.3,165.5 128.2,164 " />
<polygon points="146.1,153.5 150.6,154.7 155,155.9 159.1,157.5 163.1,159.4 166.9,161.4 170.6,163.7 174.1,166.2 177.4,168.9 180.6,171.8 183.5,174.9 174,182.2 172,179.2 169.8,176.3 167.5,173.4 164.9,170.6 162.2,167.9 159.2,165.3 156.1,162.7 152.8,160.2 149.2,157.6 145.5,155.2 " />
<polygon points="183.5,174.9 184.6,179.4 182.4,183.3 178,184.5 174,182.2 " />
</g>
</svg>
