<svg xmlns="http://www.w3.org/2000/svg" xmlns:xlink="http://www.w3.org/1999/xlink" version="1.1" baseProfile="full" viewBox="0 0 200 200" width="200" height="200">
<g fill="black">
<polygon points="106.2,18.5 101.6,26.8 96.7,34.9 91.5,42.6 85.9,50 80,57.1 73.8,63.8 67.3,70.2 60.4,76.1 53.1,81.6 45.5,86.7 44.3,85.2 50.6,78.8 56.7,72.2 62.5,65.6 68.1,58.8 73.4,51.8 78.4,44.5 83.1,37.1 87.5,29.4 91.6,21.4 95.4,13.2 " />
<polygon points="95.4,13.2 106.2,18.5 96,12.1 " />
<polygon points="106.2,18.5 108.1,21.6 100.9,22.6 " />
<polygon points="97.9,24.5 103.8,26.3 109.3,28.3 114.5,30.6 119.3,33.1 123.8,35.8 128,38.7 131.8,41.8 135.4,45.1 138.6,48.6 141.5,52.2 131.4,58.6 129.5,55.4 127.3,52.1 124.8,48.9 121.9,45.7 118.6,42.5 115,39.3 111,36.1 106.7,32.9 102.1,29.6 97.2,26.2 " />
<polygon points="141.5,52.2 142.2,56.7 139.7,60.5 135.1,61.2 131.4,58.6 " />
<polygon points="106.1,49 106.1,76 94.1,76 94.1,47 " />
<polygon points="106.1,49 109.1,51 106.1,53 " />
<polygon points="73.7,72 125.4,72 125.4,76 73.7,76 " />
<polygon points="131.4,74 131.4,125 119.4,131 119.4,74 " />
<polygon points="119.4,72 125.4,67 136.4,76 131.4,80 119.4,74 " />
<polygon points="73.7,95 125.4,95 125.4,99 73.7,99 " />
<polygon points="73.7,119 125.4,119 125.4,123 73.7,123 " />
<polygon points="79.7,72 79.7,169 67.7,169 67.7,66 " />
<polygon points="48.9,167.9 54.9,166.6 61.1,165.1 67.7,163.5 74.6,161.7 81.8,159.9 89.3,157.8 97.1,155.7 105.3,153.5 113.9,151.3 122.8,149.1 123.4,150.8 115.1,154.9 107.1,158.6 99.3,161.9 91.7,165 84.4,167.9 77.4,170.6 70.6,173.1 64.1,175.4 57.9,177.5 52,179.5 " />
<polygon points="52,179.5 48.9,167.9 47,168.4 " />
<polygon points="52,179.5 54.7,181.9 57,175 " />
<polygon points="101.4,130.7 106.2,132.8 110.8,135.1 115.1,137.8 119.1,140.7 122.9,143.8 126.4,147.2 129.6,150.8 132.6,154.6 135.3,158.6 137.7,162.8 126.7,167.7 125.3,163.9 123.5,160.2 121.5,156.6 119.3,153 116.8,149.5 114,146 111,142.6 107.8,139.2 104.3,135.7 100.5,132.2 " />
<polygon points="137.7,162.8 137.8,167.3 134.7,170.7 130.1,170.8 126.7,167.7 " />
</g>
</svg>
