<svg xmlns="http://www.w3.org/2000/svg" xmlns:xlink="http://www.w3.org/1999/xlink" version="1.1" baseProfile="full" viewBox="0 0 200 200" width="200" height="200">
<g fill="black">
<polygon points="59,22 59,77 47,77 47,16 " />
<polygon points="53,22 146,22 146,26 53,26 " />
<polygon points="152,24 152,77 140,77 140,24 " />
<polygon points="140,22 146,17 157,26 152,30 140,24 " />
<polygon points="107,29 106.3,34.9 104.8,40.6 102.6,46 99.6,50.9 96,55.4 91.7,59.4 86.8,63 81.3,66.1 75.1,68.7 68.3,70.8 67.6,69.1 73.4,65.3 78.4,61.6 82.8,57.8 86.4,53.9 89.4,50 91.7,46.1 93.4,42 94.4,37.8 95,33.5 95,29 " />
<polygon points="95,26.6 107,29 95,30 " />
<polygon points="107,29 110,31 105,34 " />
<polygon points="98.2,46.5 102.3,47.6 106.4,48.5 110.1,49.7 113.7,51 117.1,52.4 120.2,54 123.2,55.8 126,57.7 128.5,59.7 130.9,61.9 121.4,69.2 120.2,67.2 118.8,65.2 117.1,63.2 115.1,61.1 112.9,58.9 110.4,56.8 107.6,54.7 104.5,52.5 101.2,50.2 97.6,48.1 " />
<polygon points="130.9,61.9 132,66.3 129.8,70.3 125.4,71.5 121.4,69.2 " />
<polygon points="29.9,66.9 30.6,71.6 31.3,76.2 31.6,80.6 31.7,84.8 31.5,88.9 31.1,92.8 30.4,96.5 29.4,100.1 28.1,103.5 26.6,106.8 16.6,100.1 18.2,98.2 19.8,95.9 21.2,93.3 22.5,90.5 23.8,87.3 24.8,83.8 25.8,80.1 26.7,76 27.6,71.6 28.1,67 " />
<polygon points="26.6,106.8 22.8,109.3 18.3,108.4 15.8,104.6 16.6,100.1 " />
<polygon points="30,73 176,73 176,77 30,77 " />
<polygon points="181.6,76.9 179.9,80.4 178.2,83.7 176.3,87 174.3,90.2 172.2,93.3 169.9,96.3 167.6,99.3 165,102.1 162.3,104.8 159.7,107.5 158.2,106.4 159.9,103.1 161.3,99.6 162.6,96.3 164,92.9 165.2,89.6 166.4,86.3 167.5,83 168.5,79.6 169.5,76.3 170.3,73 " />
<polygon points="170,73 176,68 187,77 182,80 170,85 " />
<polygon points="64,94 64,182 52,188 52,88 " />
<polygon points="58,94 141,94 141,98 58,98 " />
<polygon points="147,96 147,173 135,173 135,96 " />
<polygon points="135,94 141,89 152,98 147,102 135,96 " />
<polygon points="147,173 144.6,176.6 141,179 137.4,176.6 135,173 " />
<polygon points="147,173 146.8,175.5 146.4,178 145.6,180.4 144.3,182.7 142.7,184.7 140.7,186.3 138.4,187.6 136,188.4 133.5,188.8 131,189 131,177 132.2,176.9 133.1,176.7 133.7,176.5 134,176.4 134.2,176.2 134.4,176 134.5,175.7 134.7,175.1 134.9,174.2 135,173 " />
<polygon points="111,180 111,177 131,177 131,183 " />
<polygon points="58,121 141,121 141,125 58,125 " />
<polygon points="58,150 141,150 141,154 58,154 " />
</g>
</svg>
