<svg xmlns="http://www.w3.org/2000/svg" xmlns:xlink="http://www.w3.org/1999/xlink" version="1.1" baseProfile="full" viewBox="0 0 200 200" width="200" height="200">
<g fill="black">
<polygon points="59,22 59,77 47,77 47,16 " />
<polygon points="53,22 146,22 146,26 53,26 " />
<polygon points="152,24 152,77 140,77 140,24 " />
<polygon points="140,22 146,17 157,26 152,30 140,24 " />
<polygon points="53,44 99,44 99,48 53,48 " />
<polygon points="105,46 105,77 93,77 93,46 " />
<polygon points="93,44 99,39 110,48 105,52 93,46 " />
<polygon points="34.9,66 35.3,70 35.8,74 36,78 35.8,81.9 35.4,85.8 34.7,89.7 33.8,93.5 32.7,97.2 31.3,100.9 29.6,104.5 19.4,98.3 21.3,95.6 23.2,92.8 24.8,89.9 26.4,86.9 27.8,83.8 29.1,80.5 30.2,77.1 31.3,73.5 32.4,69.8 33.1,66 " />
<polygon points="29.6,104.5 25.9,107.2 21.4,106.5 18.7,102.8 19.4,98.3 " />
<polygon points="33,73 176,73 176,77 33,77 " />
<polygon points="181.6,76.9 179.9,80.4 178.2,83.7 176.3,87 174.3,90.2 172.2,93.3 169.9,96.3 167.6,99.3 165,102.1 162.3,104.8 159.7,107.5 158.2,106.4 159.9,103.1 161.3,99.6 162.6,96.3 164,92.9 165.2,89.6 166.4,86.3 167.5,83 168.5,79.6 169.5,76.3 170.3,73 " />
<polygon points="170,73 176,68 187,77 182,81 176,81 " />
<polygon points="64,94 64,182 52,188 52,88 " />
<polygon points="58,94 141,94 141,98 58,98 " />
<polygon points="147,96 147,173 135,173 135,96 " />
<polygon points="135,94 141,89 152,98 147,102 135,96 " />
<polygon points="147,173 144.6,176.6 141,179 137.4,176.6 135,173 " />
<polygon points="147,173 146.8,175.5 146.4,178 145.6,180.4 144.3,182.7 142.7,184.7 140.7,186.3 138.4,187.6 136,188.4 133.5,188.8 131,189 131,177 132.2,176.9 133.1,176.7 133.7,176.5 134,176.4 134.2,176.2 134.4,176 134.5,175.7 134.7,175.1 134.9,174.2 135,173 " />
<polygon points="131,183 131,177 111,177 111,180 " />
<polygon points="58,121 141,121 141,125 58,125 " />
<polygon points="58,150 141,150 141,154 58,154 " />
</g>
</svg>
