<svg xmlns="http://www.w3.org/2000/svg" xmlns:xlink="http://www.w3.org/1999/xlink" version="1.1" baseProfile="full" viewBox="0 0 200 200" width="200" height="200">
<g fill="black">
<polygon points="25,26 175,26 175,30 25,30 " />
<polygon points="175,26 151,28 163,16 " />
<polygon points="59,48 59,87 47,93 47,42 " />
<polygon points="53,48 147,48 147,52 53,52 " />
<polygon points="153,50 153,86 141,92 141,50 " />
<polygon points="141,48 147,43 158,52 153,56 141,50 " />
<polygon points="53,80 147,80 147,84 53,84 " />
<polygon points="37,102 37,178 25,184 25,96 " />
<polygon points="31,102 169,102 169,106 31,106 " />
<polygon points="175,104 175,169 163,169 163,104 " />
<polygon points="163,102 169,97 180,106 175,110 163,104 " />
<polygon points="175,169 172.6,172.6 169,175 165.4,172.6 163,169 " />
<polygon points="175,169 174.8,171.5 174.4,174 173.6,176.4 172.3,178.7 170.7,180.7 168.7,182.3 166.4,183.6 164,184.4 161.5,184.8 159,185 159,173 160.2,172.9 161.1,172.7 161.7,172.5 162,172.4 162.2,172.2 162.4,172 162.5,171.7 162.7,171.1 162.9,170.2 163,169 " />
<polygon points="159,179 159,173 139,173 139,176 " />
<polygon points="88.1,104 87.8,105.2 85.7,112 83,118.3 79.6,123.9 75.7,128.9 71.1,133.3 66.1,136.9 60.5,139.8 54.5,142 48,143.3 41.1,143.8 40.8,142.1 47,139.7 52.5,137 57.3,134 61.6,130.8 65.3,127.1 68.4,123.1 71,118.7 73.2,113.9 74.9,108.5 75.8,104 " />
<polygon points="123,102 123,121 111,121 111,102 " />
<polygon points="123,121 120.6,124.6 117,127 113.4,124.6 111,121 " />
<polygon points="123,121 122.9,122.2 122.9,123.2 123,123.9 123,124.4 123.2,124.7 123.4,125.1 123.8,125.5 124.5,125.9 125.6,126.2 127,126.5 127,135.5 124.5,135.5 122.2,135.2 119.9,134.6 117.7,133.6 115.7,132.2 114.1,130.3 112.7,128.2 111.8,125.9 111.2,123.5 111,121 " />
<polygon points="127,126.5 130.1,127.8 131.5,131 130.1,134.1 127,135.5 " />
<polygon points="127,126.5 152,126.5 152,135.5 127,135.5 " />
<polygon points="152,126.5 154.7,128.3 156.5,131 154.7,133.7 152,135.5 " />
<polygon points="147.5,127.5 152,113.5 154,113.5 152,127.5 " />
<polygon points="50,150 150,150 150,154 50,154 " />
<polygon points="150,150 126,152 138,140 " />
<polygon points="106,150 106,177 94,183 94,150 " />
</g>
</svg>
