<svg xmlns="http://www.w3.org/2000/svg" xmlns:xlink="http://www.w3.org/1999/xlink" version="1.1" baseProfile="full" viewBox="0 0 200 200" width="200" height="200">
<g fill="black">
<polygon points="20,23 181,23 181,27 20,27 " />
<polygon points="181,23 157,25 169,13 " />
<polygon points="52,47 52,87 40,93 40,41 " />
<polygon points="46,47 154,47 154,51 46,51 " />
<polygon points="160,49 160,84 148,90 148,49 " />
<polygon points="148,47 154,42 165,51 160,55 148,49 " />
<polygon points="46,76 154,76 154,80 46,80 " />
<polygon points="33,102 33,183 21,189 21,96 " />
<polygon points="27,102 174,102 174,106 27,106 " />
<polygon points="180,104 180,172 168,172 168,104 " />
<polygon points="168,102 174,97 185,106 180,110 168,104 " />
<polygon points="180,172 177.6,175.6 174,178 170.4,175.6 168,172 " />
<polygon points="180,172 179.8,174.5 179.4,177 178.6,179.4 177.3,181.7 175.7,183.7 173.7,185.3 171.4,186.6 169,187.4 166.5,187.8 164,188 164,176 165.2,175.9 166.1,175.7 166.7,175.5 167,175.4 167.2,175.2 167.4,175 167.5,174.7 167.7,174.1 167.9,173.2 168,172 " />
<polygon points="164,182 164,176 144,176 144,179 " />
<polygon points="59.3,105.8 62.8,107.7 66.3,109.7 69.6,112.1 72.6,114.7 75.4,117.6 78,120.7 80.4,124.1 82.5,127.7 84.3,131.5 85.9,135.5 74.4,138.6 73.7,135.1 72.8,131.8 71.7,128.5 70.5,125.3 69,122.1 67.3,119.1 65.4,116.1 63.3,113.1 61,110.1 58.2,107.3 " />
<polygon points="85.9,135.5 85.3,140 81.7,142.8 77.2,142.2 74.4,138.6 " />
<polygon points="138.1,114.4 135.1,117.7 132.1,120.9 129.1,124 126,127.2 122.9,130.2 119.8,133.3 116.6,136.2 113.4,139.1 110,141.8 106.6,144.5 105.3,143.4 107.5,139.6 109.7,135.9 111.9,132.3 114.3,128.6 116.6,125.1 119,121.5 121.4,117.9 123.8,114.3 126.2,110.7 128.6,107.1 " />
<polygon points="128.6,107.1 138.1,114.4 129,106.5 " />
<polygon points="138.1,114.4 139.2,117.8 132,117.3 " />
<polygon points="43,142 158,142 158,146 43,146 " />
<polygon points="158,142 134,144 146,132 " />
<polygon points="105,144 105,183 93,189 93,144 " />
</g>
</svg>
