<svg xmlns="http://www.w3.org/2000/svg" xmlns:xlink="http://www.w3.org/1999/xlink" version="1.1" baseProfile="full" viewBox="0 0 200 200" width="200" height="200">
<g fill="black">
<polygon points="18.8,21.7 98,21.7 98,25.7 18.8,25.7 " />
<polygon points="98,21.7 74,23.7 86,11.7 " />
<polygon points="37.9,32.1 28.6,57.7 15.3,59.3 27.3,26.2 " />
<polygon points="37.9,32.1 40.1,35 34.7,36.2 " />
<polygon points="24.7,49 94,49 94,53 24.7,53 " />
<polygon points="94,49 70,51 82,39 " />
<polygon points="65.5,23.7 65.3,24.7 62.8,35.3 59.8,45.1 56.1,54 51.9,62 47,69.1 41.5,75.3 35.4,80.4 28.8,84.5 21.6,87.4 14.1,89.2 13.6,87.4 20.1,84 25.9,80 31.2,75.4 35.9,70.2 40,64.3 43.7,57.6 46.9,50.1 49.6,41.8 51.8,32.7 53.2,23.7 " />
<polygon points="74.3,49 74.3,79.4 62.3,79.4 62.3,49 " />
<polygon points="56.9,78.8 61,77.3 65.2,75.9 69.5,74.4 73.8,72.9 78.2,71.4 82.7,70 87.2,68.5 91.9,67.2 96.7,65.9 101.6,64.7 102.3,66.4 98.1,69.2 94,71.9 89.8,74.4 85.7,76.7 81.5,79.1 77.5,81.3 73.5,83.5 69.5,85.6 65.6,87.7 61.7,89.8 " />
<polygon points="61.7,89.8 56.9,78.8 55,79.6 " />
<polygon points="61.7,89.8 64.7,91.7 66,84.6 " />
<polygon points="100.9,20.8 177.2,20.8 177.2,24.8 100.9,24.8 " />
<polygon points="177.2,20.8 153.2,22.8 165.2,10.8 " />
<polygon points="122.1,32.1 113.8,54.9 100.5,56.5 111.5,26.2 " />
<polygon points="122.1,32.1 124.2,35 118.8,36.2 " />
<polygon points="108.9,49 180.1,49 180.1,53 108.9,53 " />
<polygon points="180.1,49 156.1,51 168.1,39 " />
<polygon points="149.7,22.8 149.4,24 146.5,34.7 143.1,44.6 139.1,53.6 134.5,61.6 129.3,68.6 123.5,74.6 117.2,79.5 110.3,83.4 102.9,86 95.2,87.4 94.8,85.6 101.6,82.4 107.7,78.7 113.2,74.3 118.1,69.3 122.6,63.4 126.5,56.8 130,49.4 133,41 135.6,31.8 137.3,22.8 " />
<polygon points="153.5,49 153.5,72.9 141.5,72.9 141.5,49 " />
<polygon points="153.5,72.9 151.1,76.5 147.5,78.9 143.9,76.5 141.5,72.9 " />
<polygon points="153.5,72.9 153.4,74.1 153.4,75.1 153.5,75.8 153.6,76.3 153.7,76.6 153.9,77 154.3,77.4 155,77.8 156.1,78.1 157.5,78.4 157.5,87.4 155,87.4 152.7,87.1 150.4,86.5 148.2,85.5 146.2,84.1 144.6,82.2 143.3,80.1 142.3,77.8 141.7,75.4 141.5,72.9 " />
<polygon points="157.5,78.4 160.6,79.7 162,82.9 160.6,86 157.5,87.4 " />
<polygon points="157.5,78.4 180.1,78.4 180.1,87.4 157.5,87.4 " />
<polygon points="180.1,78.4 182.8,80.2 184.6,82.9 182.8,85.6 180.1,87.4 " />
<polygon points="175.6,79.4 180.1,65.4 182.1,65.4 180.1,79.4 " />
<polygon points="21.6,97.8 179.3,97.8 179.3,101.8 21.6,101.8 " />
<polygon points="179.3,97.8 163.3,99.8 171.3,90.8 " />
<polygon points="61.9,110.6 61.9,129.5 49.9,135.5 49.9,104.6 " />
<polygon points="55.9,110.6 144.1,110.6 144.1,114.6 55.9,114.6 " />
<polygon points="150.1,112.6 150.1,129.5 138.1,135.5 138.1,112.6 " />
<polygon points="138.1,110.6 144.1,105.6 155.1,114.6 150.1,118.6 138.1,112.6 " />
<polygon points="55.9,125.5 144.1,125.5 144.1,129.5 55.9,129.5 " />
<polygon points="37.4,138.3 37.4,182 25.4,188 25.4,132.3 " />
<polygon points="31.4,138.3 168.6,138.3 168.6,142.3 31.4,142.3 " />
<polygon points="174.6,140.3 174.6,169.7 162.6,169.7 162.6,140.3 " />
<polygon points="162.6,138.3 168.6,133.3 179.6,142.3 174.6,146.3 162.6,140.3 " />
<polygon points="174.6,169.7 172.2,173.3 168.6,175.7 165,173.3 162.6,169.7 " />
<polygon points="174.6,169.7 174.4,172.3 174,174.8 173.2,177.2 171.9,179.4 170.3,181.5 168.3,183.1 166,184.3 163.6,185.1 161.1,185.6 158.6,185.7 158.6,173.7 159.8,173.7 160.7,173.5 161.3,173.3 161.6,173.1 161.8,173 162,172.8 162.1,172.5 162.3,171.9 162.5,171 162.6,169.7 " />
<polygon points="158.6,179.7 158.6,173.7 138.6,173.7 138.6,176.7 " />
<polygon points="90.9,140.3 88.4,143.5 85.4,147.2 81.9,150.5 78.1,153.5 73.8,156.2 69.2,158.6 64.2,160.7 58.8,162.5 53.1,164 46.9,165 40.4,165.7 40,163.9 45.9,161.4 51.4,158.9 56.4,156.4 61,153.9 65,151.3 68.6,148.6 71.7,145.8 74.3,143 76.3,140.3 " />
<polygon points="119.7,138.3 119.7,146.3 107.7,146.3 107.7,138.3 " />
<polygon points="119.7,146.3 117.3,149.9 113.7,152.3 110.1,149.9 107.7,146.3 " />
<polygon points="119.7,146.3 119.5,147.6 119.4,148.6 119.4,149.3 119.4,149.9 119.5,150.4 119.8,150.9 120.2,151.5 121,152 122.2,152.5 123.7,152.8 123.7,159.8 121.4,159.9 119.1,159.8 116.9,159.3 114.8,158.4 112.8,157.1 111.1,155.5 109.7,153.5 108.7,151.2 108.1,148.8 107.7,146.3 " />
<polygon points="123.7,152.8 126.1,153.8 127.2,156.3 126.1,158.7 123.7,159.8 " />
<polygon points="123.7,152.8 151.9,152.8 151.9,159.8 123.7,159.8 " />
<polygon points="151.9,152.8 154,154.2 155.4,156.3 154,158.4 151.9,159.8 " />
<polygon points="148.4,153.8 151.9,147.8 153.9,147.8 151.9,153.8 " />
<polygon points="55.9,166 143.1,166 143.1,170 55.9,170 " />
<polygon points="143.1,166 123.1,168 133.1,157 " />
<polygon points="106,166 106,182 94,188 94,166 " />
</g>
</svg>
