<svg xmlns="http://www.w3.org/2000/svg" xmlns:xlink="http://www.w3.org/1999/xlink" version="1.1" baseProfile="full" viewBox="0 0 200 200" width="200" height="200">
<g fill="black">
<polygon points="75.1,18.2 71.2,25.6 66.9,32.8 62.1,39.8 56.7,46.6 50.8,53.2 44.4,59.6 37.5,65.8 30.1,71.7 22.1,77.4 13.5,82.7 12.4,81.2 19.7,74.4 26.6,67.7 33,61 38.9,54.4 44.4,47.7 49.3,40.9 53.8,34.2 57.7,27.3 61.1,20.4 64,13.5 " />
<polygon points="64,13.5 75.1,18.2 64.6,12.2 " />
<polygon points="75.1,18.2 77,21.3 69.9,22.6 " />
<polygon points="60,31 121,31 121,35 60,35 " />
<polygon points="126.1,36 123.9,39 121.5,42 119,45.1 116.3,48.3 113.5,51.6 110.5,54.9 107.4,58.2 104,61.6 100.4,65 96.7,68.5 95.2,67.4 97.8,63 100.1,58.7 102.5,54.6 104.7,50.6 106.9,46.8 108.9,43.2 110.8,39.7 112.6,36.3 114.3,33 115.8,29.9 " />
<polygon points="115,31 121,26 132,35 127,39 121,39 " />
<polygon points="52.4,65.5 52.4,134.5 40.4,140.5 40.4,59.5 " />
<polygon points="46.4,65.5 153.6,65.5 153.6,69.5 46.4,69.5 " />
<polygon points="159.6,67.5 159.6,134.5 147.6,140.5 147.6,67.5 " />
<polygon points="147.6,65.5 153.6,60.5 164.6,69.5 159.6,73.5 147.6,67.5 " />
<polygon points="106,65.5 106,134.5 94,134.5 94,65.5 " />
<polygon points="46.4,97.5 153.6,97.5 153.6,101.5 46.4,101.5 " />
<polygon points="46.4,130.5 153.6,130.5 153.6,134.5 46.4,134.5 " />
<polygon points="43.8,148.4 44.1,153.5 44.1,158.3 43.7,163 42.8,167.4 41.4,171.5 39.5,175.4 37.1,179 34.3,182.3 31,185.1 27.2,187.6 22.1,176.8 24.9,175.6 27.6,174.2 30,172.4 32.3,170.3 34.4,167.8 36.3,164.8 38,161.4 39.6,157.5 41,153.1 42,148.3 " />
<polygon points="27.2,187.6 22.7,187.8 19.2,184.8 19.1,180.2 22.1,176.8 " />
<polygon points="70.3,149.2 73.2,151.7 76.1,154.2 78.6,156.8 80.8,159.6 82.8,162.6 84.3,165.7 85.6,168.9 86.5,172.3 87.1,175.8 87.2,179.4 75.3,178.1 75.9,175.7 76.2,173.2 76.3,170.7 76.1,168.1 75.7,165.4 74.9,162.6 73.9,159.7 72.7,156.6 71.1,153.4 69,150.4 " />
<polygon points="87.2,179.4 85,183.4 80.6,184.7 76.6,182.5 75.3,178.1 " />
<polygon points="108.3,149 112.2,151.4 115.9,153.7 119.3,156.2 122.3,158.9 125,161.8 127.4,164.7 129.5,167.8 131.2,171.1 132.6,174.5 133.6,178.1 121.7,179.4 121.6,177 121.3,174.4 120.7,171.8 119.8,169 118.6,166.2 117,163.2 115.1,160.1 112.8,156.9 110.3,153.6 107.2,150.4 " />
<polygon points="133.6,178.1 132.3,182.5 128.3,184.7 123.9,183.4 121.7,179.4 " />
<polygon points="148.3,148 153.2,150.6 157.9,153.2 162.1,156 166,158.9 169.5,161.9 172.6,165.1 175.5,168.3 177.9,171.7 180,175.2 181.8,178.8 170.3,182.4 169.6,179.6 168.6,176.7 167.3,173.7 165.5,170.6 163.4,167.3 160.9,164 158,160.5 154.8,157 151.2,153.3 147.3,149.5 " />
<polygon points="181.8,178.8 181.3,183.3 177.9,186.3 173.3,185.9 170.3,182.4 " />
</g>
</svg>
