<svg xmlns="http://www.w3.org/2000/svg" xmlns:xlink="http://www.w3.org/1999/xlink" version="1.1" baseProfile="full" viewBox="0 0 200 200" width="200" height="200">
<g fill="black">
<polygon points="42,26 42,94 30,94 30,20 " />
<polygon points="42,94 39.6,97.6 36,100 32.4,97.6 30,94 " />
<polygon points="42,94 41.4,107.9 40.3,120.9 38.6,132.9 36.3,144 33.5,154.1 30.1,163.2 26.2,171.3 21.6,178.3 16.3,184.1 10.5,188.6 9.4,187.3 13.4,181.6 17,175.4 20.3,168.4 23,160.6 25.4,151.8 27.2,142.2 28.6,131.5 29.6,120 30,107.4 30,94 " />
<polygon points="36,26 156,26 156,30 36,30 " />
<polygon points="161.9,28.2 161.2,64.3 161.8,94.1 163.5,118.2 166,137.1 169.2,151.5 172.8,161.6 176.3,168.3 179.4,171.9 181.8,173.5 183.5,174 182.4,185.9 177,184.5 171.5,180.9 166.4,175 161.7,166.4 157.7,154.7 154.2,139.2 151.5,119.4 149.8,94.6 149.2,64.2 150,27.7 " />
<polygon points="150,26 156,21 167,30 162,34 156,34 " />
<polygon points="183.5,174 187.5,176.1 188.9,180.5 186.8,184.5 182.4,185.9 " />
<polygon points="183.4,175 187.7,149.3 185.8,149.1 177.4,174.4 " />
<polygon points="98.1,38.7 96.6,40.6 95,42.4 93.4,44.3 91.8,46.1 90.2,47.9 88.5,49.7 86.7,51.5 84.9,53.2 83,54.8 81.5,56.7 80,55.8 81,53.6 81.7,51.2 82.4,48.8 83.1,46.5 83.9,44.2 84.6,41.9 85.3,39.7 86.1,37.4 86.8,35.2 87.5,33 " />
<polygon points="87.5,33 98.1,38.7 88,32 " />
<polygon points="98.1,38.7 99.8,41.9 92.6,42.6 " />
<polygon points="66.9,54.3 66.9,129.7 54.9,135.7 54.9,48.3 " />
<polygon points="60.9,54.3 119.7,54.3 119.7,58.3 60.9,58.3 " />
<polygon points="125.7,56.3 125.7,95.7 113.7,101.7 113.7,56.3 " />
<polygon points="113.7,54.3 119.7,49.3 130.7,58.3 125.7,62.3 113.7,56.3 " />
<polygon points="60.9,73 119.7,73 119.7,77 60.9,77 " />
<polygon points="60.9,91.7 119.7,91.7 119.7,95.7 60.9,95.7 " />
<polygon points="60.9,108.7 146.1,108.7 146.1,112.7 60.9,112.7 " />
<polygon points="146.1,108.7 122.1,110.7 134.1,98.7 " />
<polygon points="60.9,125.7 135.5,125.7 135.5,129.7 60.9,129.7 " />
<polygon points="141.5,127.4 141.7,134.5 141.8,141 141.8,147 141.7,152.3 141.5,157.1 141.1,161.4 140.6,165.1 140,168.4 139.1,171.3 137.9,174 127.6,167.8 127.9,167.2 128.3,165.7 128.8,163.3 129.2,160.2 129.5,156.4 129.7,151.9 129.8,146.8 129.8,141.1 129.7,134.8 129.5,127.9 " />
<polygon points="129.5,125.7 135.5,120.7 146.5,129.7 141.5,133.7 135.5,133.7 " />
<polygon points="137.9,174 134.2,176.7 129.6,176.1 127,172.4 127.6,167.8 " />
<polygon points="137.9,174 136.5,176.1 134.9,178 133.2,179.8 131.3,181.3 129.3,182.6 127.1,183.7 124.9,184.5 122.5,185.1 120.1,185.4 117.6,185.5 117.6,173.5 119,173.4 120.3,173.3 121.4,173 122.5,172.6 123.4,172.1 124.3,171.6 125.2,170.9 126,170 126.8,169 127.6,167.8 " />
<polygon points="117.6,179.5 117.6,173.5 97.6,173.5 97.6,176.5 " />
<polygon points="50.7,136.2 51.5,141.2 52.3,145.9 52.7,150.4 52.7,154.6 52.4,158.7 51.8,162.5 50.8,166.2 49.4,169.7 47.6,172.9 45.4,175.8 37.2,167.1 38.9,165.8 40.5,164.2 42,162.2 43.5,159.7 44.8,156.9 45.9,153.6 46.9,149.9 47.8,145.8 48.6,141.3 48.9,136.4 " />
<polygon points="45.4,175.8 41.2,177.4 37,175.6 35.4,171.3 37.2,167.1 " />
<polygon points="66.1,140.9 67.6,143.6 69.3,146.1 70.7,148.7 72,151.5 73,154.3 73.7,157.2 74.3,160.1 74.6,163.1 74.8,166.2 74.6,169.3 62.9,166.9 63.7,164.7 64.4,162.4 64.9,160.1 65.3,157.7 65.5,155.2 65.7,152.7 65.6,150.1 65.5,147.3 65.3,144.5 64.5,141.7 " />
<polygon points="74.6,169.3 72,173 67.6,173.9 63.8,171.3 62.9,166.9 " />
<polygon points="81.4,140.4 83.4,141.8 85.7,143.2 87.7,144.8 89.7,146.7 91.5,148.8 93.1,151 94.6,153.5 95.9,156.2 97.1,159 98.1,162 86.2,163.9 86.2,161.4 86,158.9 85.8,156.6 85.4,154.4 84.9,152.1 84.3,150 83.6,147.8 82.7,145.7 81.7,143.5 80.2,141.7 " />
<polygon points="98.1,162 96.9,166.4 93.1,168.9 88.6,167.7 86.2,163.9 " />
<polygon points="99.9,137.7 102.1,139 104.5,140 106.7,141.2 108.8,142.6 110.8,144.2 112.7,146 114.4,147.9 116,150 117.4,152.2 118.6,154.5 107.1,157.9 107,156 106.7,154.2 106.3,152.4 105.7,150.5 105,148.6 104.2,146.7 103.2,144.8 102,142.8 100.7,140.8 98.8,139.2 " />
<polygon points="118.6,154.5 118.1,159.1 114.5,162 110,161.4 107.1,157.9 " />
</g>
</svg>
