<svg xmlns="http://www.w3.org/2000/svg" xmlns:xlink="http://www.w3.org/1999/xlink" version="1.1" baseProfile="full" viewBox="0 0 200 200" width="200" height="200">
<g fill="black">
<polygon points="24,33 176,33 176,37 24,37 " />
<polygon points="176,33 152,35 164,23 " />
<polygon points="79,14 79,61 67,67 67,12 " />
<polygon points="79,14 82,16 79,18 " />
<polygon points="73,57 127,57 127,61 73,61 " />
<polygon points="133,14 133,61 121,67 121,12 " />
<polygon points="133,14 136,16 133,18 " />
<polygon points="13,74 187,74 187,78 13,78 " />
<polygon points="187,74 163,76 175,64 " />
<polygon points="52,92 52,155 40,161 40,86 " />
<polygon points="46,92 154,92 154,96 46,96 " />
<polygon points="160,94 160,148 148,154 148,94 " />
<polygon points="148,92 154,87 165,96 160,100 148,94 " />
<polygon points="106,92 106,148 94,148 94,92 " />
<polygon points="46,118 154,118 154,122 46,122 " />
<polygon points="46,144 154,144 154,148 46,148 " />
<polygon points="83.4,164.5 78.3,167.4 72.7,170.2 66.9,172.9 60.7,175.5 54.2,178 47.3,180.3 40.1,182.5 32.5,184.6 24.5,186.3 16.2,187.8 15.7,186.1 23.4,182.7 30.8,179.5 37.8,176.4 44.5,173.3 50.8,170.2 56.8,167.1 62.3,164 67.5,160.8 72.4,157.7 76.8,154.5 " />
<polygon points="76.8,154.5 83.4,164.5 84.1,164 " />
<polygon points="84.1,164 84.3,167.6 77.3,165 " />
<polygon points="118.2,156.3 125.5,157.4 132.5,158.8 139.1,160.5 145.4,162.3 151.4,164.4 157,166.7 162.3,169.1 167.3,171.7 172,174.5 176.4,177.4 168.8,186.7 165.4,183.7 161.6,180.8 157.4,177.8 152.8,175 147.9,172.2 142.5,169.4 136.8,166.6 130.8,163.9 124.4,161 117.7,158.1 " />
<polygon points="176.4,177.4 178.5,181.4 177.3,185.8 173.2,188 168.8,186.7 " />
</g>
</svg>
