<svg xmlns="http://www.w3.org/2000/svg" xmlns:xlink="http://www.w3.org/1999/xlink" version="1.1" baseProfile="full" viewBox="0 0 200 200" width="200" height="200">
<g fill="black">
<polygon points="50,26 50,95 38,101 38,20 " />
<polygon points="44,26 156,26 156,30 44,30 " />
<polygon points="162,28 162,92 150,98 150,28 " />
<polygon points="150,26 156,21 167,30 162,34 150,28 " />
<polygon points="44,55 156,55 156,59 44,59 " />
<polygon points="44,84 156,84 156,88 44,88 " />
<polygon points="106,26 106,140 94,140 94,26 " />
<polygon points="28,111 172,111 172,115 28,115 " />
<polygon points="172,111 148,113 160,101 " />
<polygon points="14,136 186,136 186,140 14,140 " />
<polygon points="186,136 162,138 174,126 " />
<polygon points="43.8,148.8 44,153.6 44.1,158.3 43.6,162.7 42.7,167 41.3,171 39.4,174.7 37.1,178.2 34.2,181.3 30.9,184.1 27.2,186.4 22.2,175.5 25.1,174.4 27.7,173.1 30.1,171.4 32.4,169.4 34.4,167.1 36.4,164.3 38.1,161.1 39.6,157.4 41.1,153.3 42,148.7 " />
<polygon points="27.2,186.4 22.6,186.5 19.2,183.4 19.1,178.9 22.2,175.5 " />
<polygon points="70.3,149.5 73.1,151.9 76,154.2 78.6,156.7 80.8,159.3 82.7,162.1 84.3,165.1 85.6,168.2 86.5,171.4 87.1,174.8 87.3,178.3 75.3,176.9 75.9,174.7 76.2,172.4 76.3,170.1 76.1,167.6 75.7,165.1 75,162.4 74,159.6 72.7,156.7 71.2,153.6 69,150.7 " />
<polygon points="87.3,178.3 85,182.2 80.6,183.5 76.6,181.3 75.3,176.9 " />
<polygon points="108.3,149.3 112.1,151.6 115.8,153.7 119.2,156.1 122.2,158.6 125,161.3 127.4,164.1 129.5,167.1 131.2,170.2 132.6,173.5 133.6,176.9 121.6,178.3 121.6,176 121.4,173.6 120.8,171.2 119.9,168.5 118.7,165.8 117.1,163 115.2,160 112.9,157 110.3,153.8 107.2,150.7 " />
<polygon points="133.6,176.9 132.3,181.3 128.3,183.5 123.9,182.2 121.6,178.3 " />
<polygon points="148.3,148.4 153.2,150.8 157.8,153.2 162,155.8 165.9,158.6 169.4,161.4 172.5,164.4 175.4,167.5 177.8,170.6 180,174 181.7,177.4 170.3,181.2 169.7,178.6 168.7,175.9 167.3,173 165.6,170 163.5,166.9 161,163.8 158.1,160.5 154.9,157 151.3,153.4 147.3,149.9 " />
<polygon points="181.7,177.4 181.3,182 177.9,185 173.3,184.7 170.3,181.2 " />
</g>
</svg>
