<svg xmlns="http://www.w3.org/2000/svg" xmlns:xlink="http://www.w3.org/1999/xlink" version="1.1" baseProfile="full" viewBox="0 0 200 200" width="200" height="200">
<g fill="black">
<polygon points="88.5,20.9 86.1,22.7 83.6,24.6 81,26.4 78.3,28.2 75.6,30 72.7,31.8 69.8,33.5 66.8,35.2 63.6,36.8 60.5,38.7 59.4,37.2 61.9,34.7 64,31.9 66.2,29.3 68.4,26.7 70.5,24.2 72.5,21.8 74.5,19.4 76.4,17 78.2,14.7 80,12.4 " />
<polygon points="80,12.4 88.5,20.9 80.3,12.1 " />
<polygon points="88.5,20.9 89.2,24.4 82.1,23 " />
<polygon points="45,36 45,66 33,72 33,30 " />
<polygon points="39,36 148,36 148,40 39,40 " />
<polygon points="154,38 154,68 142,74 142,38 " />
<polygon points="142,36 148,31 159,40 154,44 142,38 " />
<polygon points="83,61 83,172 73,172 73,61 " />
<polygon points="73,59 78,54 88,63 83,66 73,61 " />
<polygon points="83,172 81,175 78,177 75,175 73,172 " />
<polygon points="83,172 83.1,173.3 83.4,174.3 83.7,175 84,175.4 84.3,175.6 84.7,175.7 85.1,175.8 85.8,175.9 86.7,176 88,176 88,188 85.4,187.7 82.9,187.2 80.6,186.3 78.4,185 76.6,183.3 75.1,181.3 74,179.1 73.3,176.8 73,174.4 73,172 " />
<polygon points="88,176 92.2,177.8 94,182 92.2,186.2 88,188 " />
<polygon points="88,176 179,176 179,188 88,188 " />
<polygon points="179,176 182.6,178.4 185,182 182.6,185.6 179,188 " />
<polygon points="173,177 179,151 181,151 179,177 " />
<polygon points="39,59 78,59 78,63 39,63 " />
<polygon points="110,60 148,60 148,64 110,64 " />
<polygon points="116,60 116,184 104,184 104,54 " />
<polygon points="16,81 56,81 56,85 16,85 " />
<polygon points="61.5,83 61.5,116 50.5,121.5 50.5,83 " />
<polygon points="50.5,81 56,76 66.5,85 61.5,88.5 50.5,83 " />
<polygon points="16,97 78,97 78,101 16,101 " />
<polygon points="16,112 56,112 56,116 16,116 " />
<polygon points="16,130 55,130 55,134 16,134 " />
<polygon points="60.5,132 60.5,171 49.5,176.5 49.5,132 " />
<polygon points="49.5,130 55,125 65.5,134 60.5,137.5 49.5,132 " />
<polygon points="16,146 78,146 78,150 16,150 " />
<polygon points="16,161 55,161 55,165 16,165 " />
<polygon points="110,85 161,85 161,89 110,89 " />
<polygon points="167,87 167,158 155,164 155,87 " />
<polygon points="155,85 161,80 172,89 167,93 155,87 " />
<polygon points="110,150 161,150 161,154 110,154 " />
<polygon points="151.3,100.9 148.9,106.4 146.4,111.8 143.8,116.9 141,121.7 138.1,126.3 135,130.6 131.7,134.6 128.2,138.3 124.5,141.7 120.6,144.6 119.3,143.3 121.6,139.2 124,135.1 126.3,130.9 128.5,126.6 130.7,122.1 132.7,117.4 134.7,112.6 136.6,107.6 138.3,102.4 140,96.9 " />
<polygon points="140,96.9 151.3,100.9 140.5,95.5 " />
<polygon points="151.3,100.9 153.5,103.7 146.5,105.5 " />
<polygon points="121.3,97.9 124.8,100 128.2,102.5 131.5,105.6 134.6,109.1 137.5,113 140.4,117.3 143.1,122 145.7,127 148.2,132.4 150.6,138.2 139.3,142.1 137.6,136.5 135.9,131.2 134.1,126.2 132.2,121.6 130.3,117.3 128.3,113.2 126.3,109.5 124.2,105.9 122.2,102.5 120.1,99.3 " />
<polygon points="150.6,138.2 150.3,142.7 146.9,145.8 142.4,145.5 139.3,142.1 " />
</g>
</svg>
