<svg xmlns="http://www.w3.org/2000/svg" xmlns:xlink="http://www.w3.org/1999/xlink" version="1.1" baseProfile="full" viewBox="0 0 200 200" width="200" height="200">
<g fill="black">
<polygon points="127.5,93 127.5,165 116.5,170.5 116.5,87.5 " />
<polygon points="122,93 162,93 162,97 122,97 " />
<polygon points="168,95 168,164 156,170 156,95 " />
<polygon points="156,93 162,88 173,97 168,101 156,95 " />
<polygon points="122,113 162,113 162,117 122,117 " />
<polygon points="122,135 162,135 162,139 122,139 " />
<polygon points="122,158 162,158 162,162 122,162 " />
<polygon points="66.9,15.4 62.5,23.5 57.9,31.1 53,38.2 47.9,44.8 42.6,50.9 37,56.5 31.2,61.5 25.2,65.9 18.9,69.7 12.4,72.7 11.5,71.2 16.8,66.6 21.8,61.7 26.8,56.7 31.5,51.2 36.1,45.4 40.5,39.3 44.7,32.7 48.7,25.6 52.5,18.2 56.1,10.3 " />
<polygon points="55.7,11.2 66.9,15.4 56.6,9.1 " />
<polygon points="66.9,15.4 68.8,18.5 63,19.1 " />
<polygon points="54,25 116,25 116,29 54,29 " />
<polygon points="120.9,30.4 118.6,32.9 116.3,35.3 113.8,37.8 111.3,40.2 108.6,42.5 105.8,44.9 102.9,47.1 99.9,49.3 96.7,51.4 93.6,53.6 92.3,52.3 94.7,49.3 96.8,46.2 98.9,43.2 100.9,40.2 102.8,37.4 104.6,34.5 106.4,31.7 108,29 109.6,26.2 111,23.5 " />
<polygon points="110,25 116,20 127,29 122,32 110,37 " />
<polygon points="51,51 51,75 39,81 39,45 " />
<polygon points="45,51 153,51 153,55 45,55 " />
<polygon points="159,53 159,77 147,83 147,53 " />
<polygon points="147,51 153,46 164,55 159,59 147,53 " />
<polygon points="45,71 153,71 153,75 45,75 " />
<polygon points="104.5,51 104.5,172 93.5,172 93.5,51 " />
<polygon points="104.5,172 102.3,175.3 99,177.5 95.7,175.3 93.5,172 " />
<polygon points="104.5,172 104.5,173.2 104.6,174.2 104.8,174.9 105,175.4 105.2,175.7 105.4,176 105.9,176.3 106.6,176.6 107.6,176.8 109,177 109,187 106.5,186.9 104.1,186.5 101.8,185.8 99.7,184.7 97.7,183.2 96.1,181.3 94.9,179.2 94.1,176.9 93.6,174.5 93.5,172 " />
<polygon points="109,177 112.5,178.5 114,182 112.5,185.5 109,187 " />
<polygon points="109,177 183,177 183,187 109,187 " />
<polygon points="183,177 186,179 188,182 186,185 183,187 " />
<polygon points="178,178 183,160 185,160 183,178 " />
<polygon points="20,103 90,103 90,107 20,107 " />
<polygon points="90,103 70,105 80,94 " />
<polygon points="20,151 90,151 90,155 20,155 " />
<polygon points="90,151 70,153 80,142 " />
<polygon points="24,89 63,89 63,93 24,93 " />
<polygon points="69,91 69,123 57,129 57,91 " />
<polygon points="57,89 63,84 74,93 69,97 57,91 " />
<polygon points="24,119 63,119 63,123 24,123 " />
<polygon points="24,136 63,136 63,140 24,140 " />
<polygon points="69,138 69,173 57,179 57,138 " />
<polygon points="57,136 63,131 74,140 69,144 57,138 " />
<polygon points="24,165 63,165 63,169 24,169 " />
</g>
</svg>
