<svg xmlns="http://www.w3.org/2000/svg" xmlns:xlink="http://www.w3.org/1999/xlink" version="1.1" baseProfile="full" viewBox="0 0 200 200" width="200" height="200">
<g fill="black">
<polygon points="106.1,18.1 98.7,26.6 90.9,34.5 82.5,42 73.7,48.9 64.5,55.3 54.8,61.2 44.6,66.5 34,71.3 22.8,75.5 11.3,78.9 10.6,77.2 21.4,72 31.6,66.5 41.4,60.8 50.8,54.7 59.6,48.4 68,41.6 75.8,34.5 83.2,27 90.1,19.1 96.6,10.8 " />
<polygon points="96.6,10.8 106.1,18.1 97,10.2 " />
<polygon points="106.1,18.1 107.2,21.6 100,21 " />
<polygon points="99.3,16.2 107.1,22.4 114.8,28.4 122.5,34 130.4,39.3 138.4,44.1 146.6,48.6 154.9,52.6 163.4,56.2 172.1,59.4 181,62.3 176.9,74.8 167.6,71.1 158.6,67 149.9,62.4 141.5,57.4 133.3,52 125.5,46 118,39.7 110.9,32.8 104.2,25.4 98,17.4 " />
<polygon points="176.9,74.8 181,62.3 188.5,64.7 " />
<polygon points="64,59.4 133,59.4 133,63.4 64,63.4 " />
<polygon points="133,59.4 109,61.4 121,49.4 " />
<polygon points="42.2,77.8 42.2,109.1 30.2,115.1 30.2,71.8 " />
<polygon points="36.2,77.8 65.1,77.8 65.1,81.8 36.2,81.8 " />
<polygon points="70.6,79.8 70.6,108.1 59.6,113.6 59.6,79.8 " />
<polygon points="59.6,77.8 65.1,72.8 75.6,81.8 70.6,85.3 59.6,79.8 " />
<polygon points="36.2,102.1 65.1,102.1 65.1,106.1 36.2,106.1 " />
<polygon points="91,77.8 91,109.1 80,114.6 80,72.3 " />
<polygon points="85.5,77.8 114.4,77.8 114.4,81.8 85.5,81.8 " />
<polygon points="119.9,79.8 119.9,108.1 108.9,113.6 108.9,79.8 " />
<polygon points="108.9,77.8 114.4,72.8 124.9,81.8 119.9,85.3 108.9,79.8 " />
<polygon points="85.5,102.1 114.4,102.1 114.4,106.1 85.5,106.1 " />
<polygon points="140.3,77.8 140.3,109.1 129.3,114.6 129.3,72.3 " />
<polygon points="134.8,77.8 163.7,77.8 163.7,81.8 134.8,81.8 " />
<polygon points="169.7,79.8 169.7,108.1 157.7,114.1 157.7,79.8 " />
<polygon points="157.7,77.8 163.7,72.8 174.7,81.8 169.7,85.8 157.7,79.8 " />
<polygon points="134.8,102.1 163.7,102.1 163.7,106.1 134.8,106.1 " />
<polygon points="47,121.5 47,181.3 35,187.3 35,115.5 " />
<polygon points="41,121.5 158.9,121.5 158.9,125.5 41,125.5 " />
<polygon points="164.9,123.5 164.9,173 152.9,173 152.9,123.5 " />
<polygon points="152.9,121.5 158.9,116.5 169.9,125.5 164.9,129.5 152.9,123.5 " />
<polygon points="164.9,173 162.5,176.6 158.9,179 155.3,176.6 152.9,173 " />
<polygon points="164.9,173 164.8,175.6 164.3,178.1 163.5,180.5 162.3,182.8 160.7,184.8 158.6,186.4 156.4,187.7 154,188.5 151.5,188.9 148.9,189 148.9,177 150.1,177 151.1,176.8 151.6,176.6 152,176.4 152.2,176.3 152.3,176.1 152.5,175.8 152.7,175.2 152.8,174.3 152.9,173 " />
<polygon points="148.9,183 148.9,177 128.9,177 128.9,180 " />
<polygon points="86.6,121.5 86.6,177.2 74.6,183.2 74.6,121.5 " />
<polygon points="125.3,121.5 125.3,177.2 113.3,183.2 113.3,121.5 " />
<polygon points="41,149.5 158.9,149.5 158.9,153.5 41,153.5 " />
</g>
</svg>
