<svg xmlns="http://www.w3.org/2000/svg" xmlns:xlink="http://www.w3.org/1999/xlink" version="1.1" baseProfile="full" viewBox="0 0 200 200" width="200" height="200">
<g fill="black">
<polygon points="38.3,19.6 42.9,21.4 47.3,23.2 51.5,25.3 55.3,27.5 58.8,29.9 62.1,32.6 65.1,35.3 67.8,38.3 70.1,41.4 72.2,44.8 61.2,49.6 60.3,46.9 59,44.2 57.5,41.4 55.6,38.6 53.4,35.8 50.9,33 48,30.1 44.8,27.1 41.3,24.1 37.4,21.2 " />
<polygon points="72.2,44.8 72.3,49.3 69.2,52.7 64.6,52.8 61.2,49.6 " />
<polygon points="157.3,26.2 154.7,29.3 151.9,32.4 148.8,35.6 145.5,38.8 141.9,42.1 138,45.4 133.9,48.7 129.4,52.1 124.7,55.4 119.5,58.6 118.4,57.3 122.2,52.6 125.9,48.2 129.4,44.1 132.7,40.1 135.8,36.3 138.6,32.6 141.2,29.1 143.5,25.7 145.6,22.5 147.4,19.4 " />
<polygon points="147.4,19.4 157.3,26.2 147.9,18.7 " />
<polygon points="157.3,26.2 158.7,29.5 151.5,29.4 " />
<polygon points="32,56 170,56 170,60 32,60 " />
<polygon points="170,56 146,58 158,46 " />
<polygon points="17,83 186,83 186,87 17,87 " />
<polygon points="186,83 162,85 174,73 " />
<polygon points="108.5,19.4 103.6,35.1 97.7,50.1 90.7,64.1 82.6,77.4 73.5,89.8 63.4,101.3 52.2,111.8 40,121.5 26.7,130.1 12.4,137.7 11.5,136.2 24.6,127 36.6,117.3 47.7,107 57.7,96.2 66.8,84.6 74.8,72.4 81.8,59.5 87.8,45.9 92.8,31.5 96.9,16.5 " />
<polygon points="96.9,16.5 108.5,19.4 97.3,14.7 " />
<polygon points="108.5,19.4 111,22 104.2,24.5 " />
<polygon points="113.2,58.3 120,66.4 126.7,74 133.3,81.2 140.1,87.9 147,94 154.1,99.6 161.3,104.7 168.6,109.3 176.1,113.4 183.8,117 178.1,128.9 170,124.4 162.2,119.3 154.7,113.6 147.5,107.5 140.6,100.8 134.1,93.6 127.9,85.9 122,77.6 116.6,68.8 111.7,59.3 " />
<polygon points="178.1,128.9 183.8,117 189.5,119.7 " />
</g>
</svg>
