<svg xmlns="http://www.w3.org/2000/svg" xmlns:xlink="http://www.w3.org/1999/xlink" version="1.1" baseProfile="full" viewBox="0 0 200 200" width="200" height="200">
<g fill="black">
<polygon points="20,18 92,18 92,22 20,22 " />
<polygon points="98,20 98,97 86,103 86,20 " />
<polygon points="86,18 92,13 103,22 98,26 86,20 " />
<polygon points="79,31.5 75.1,35.6 70.9,39.5 66.5,43.2 61.7,46.8 56.6,50.3 51.2,53.6 45.5,56.7 39.5,59.7 33.1,62.4 26.4,64.8 25.5,63.1 31.3,59 36.8,55.1 42,51.2 46.9,47.3 51.5,43.5 55.8,39.6 59.7,35.7 63.4,31.8 66.7,27.9 69.7,24 " />
<polygon points="69.7,24 79,31.5 70.1,23.4 " />
<polygon points="79,31.5 80.1,34.9 72.9,34.3 " />
<polygon points="85.9,57.6 81.3,62.2 76.3,66.7 70.8,71 64.9,75.1 58.6,78.9 51.9,82.6 44.7,86.1 37,89.3 28.9,92.2 20.3,94.8 19.6,93.1 27.4,88.8 34.7,84.5 41.6,80.3 48,76.1 54,71.8 59.5,67.6 64.5,63.2 69,58.8 73.1,54.4 76.7,49.9 " />
<polygon points="76.7,49.9 85.9,57.6 77.1,49.4 " />
<polygon points="85.9,57.6 86.9,61 79.8,60.2 " />
<polygon points="103,18 176,18 176,22 103,22 " />
<polygon points="182,20 182,97 170,103 170,20 " />
<polygon points="170,18 176,13 187,22 182,26 170,20 " />
<polygon points="162.1,31.4 158.4,35.5 154.3,39.4 149.9,43.2 145.2,46.8 140.1,50.3 134.7,53.6 128.9,56.8 122.8,59.7 116.3,62.4 109.3,64.8 108.6,63.1 114.5,59 120.1,55.1 125.4,51.2 130.4,47.3 135,43.5 139.3,39.7 143.1,35.8 146.6,31.9 149.8,28 152.6,24.1 " />
<polygon points="152.6,24.1 162.1,31.4 153,23.5 " />
<polygon points="162.1,31.4 163.3,34.8 156.1,34.3 " />
<polygon points="169.8,57.7 165,62.3 159.9,66.8 154.3,71 148.3,75.1 141.8,79 135,82.6 127.7,86.1 120.1,89.3 111.9,92.2 103.3,94.8 102.6,93.1 110.4,88.8 117.7,84.5 124.7,80.3 131.2,76.1 137.2,71.8 142.8,67.5 148,63.2 152.7,58.7 157,54.3 160.8,49.8 " />
<polygon points="160.8,49.8 169.8,57.7 161.2,49.3 " />
<polygon points="169.8,57.7 170.7,61.1 163.6,60.2 " />
</g>
</svg>
