<svg xmlns="http://www.w3.org/2000/svg" xmlns:xlink="http://www.w3.org/1999/xlink" version="1.1" baseProfile="full" viewBox="0 0 200 200" width="200" height="200">
<g fill="black">
<polygon points="20,29 182,29 182,33 20,33 " />
<polygon points="182,29 158,31 170,19 " />
<polygon points="101.3,35.8 96.4,48.5 91.1,60.4 85.4,71.3 79.3,81.3 72.8,90.4 65.9,98.6 58.6,105.7 50.9,111.9 42.8,116.9 34.4,120.7 33.5,119.2 40.7,113.7 47.5,107.7 54,101.1 60.1,93.7 65.9,85.5 71.4,76.5 76.5,66.6 81.3,56 85.8,44.4 89.9,32 " />
<polygon points="89.9,32 101.3,35.8 90.4,30.5 " />
<polygon points="101.3,35.8 103.5,38.6 96.6,40.5 " />
<polygon points="78,77 143,77 143,81 78,81 " />
<polygon points="148.8,80.2 144.5,94.7 138.3,108.3 130.4,121.1 120.7,133 109.3,144.1 96.3,154.2 81.5,163.5 65.1,171.9 47,179.3 27.2,185.8 26.7,184.1 45.6,175.8 62.7,167.1 78.1,157.9 91.7,148.1 103.6,137.8 113.7,126.9 122.1,115.5 128.7,103.5 133.7,90.9 137.1,77.7 " />
<polygon points="137,77 143,72 154,81 149,85 143,85 " />
<polygon points="64.3,89.9 77.1,99.5 88.8,108.9 99.4,118.1 109,127.1 117.6,135.9 125.2,144.4 131.7,152.6 137.3,160.6 141.9,168.4 145.5,176.1 134.3,180.2 131.7,173.4 128.1,166.1 123.5,158.3 117.8,150.1 111.2,141.4 103.5,132.3 94.8,122.8 85.2,112.8 74.6,102.3 63.1,91.3 " />
<polygon points="145.5,176.1 145.3,180.6 142,183.8 137.4,183.5 134.3,180.2 " />
</g>
</svg>
